<?xml version="1.0" encoding="utf-8"?>
<!-- Generator: Adobe Illustrator 20.1.0, SVG Export Plug-In . SVG Version: 6.00 Build 0)  -->
<svg version="1.1" id="Layer_1" xmlns="http://www.w3.org/2000/svg" xmlns:xlink="http://www.w3.org/1999/xlink" x="0px" y="0px"
	 viewBox="0 0 352.1 274" style="enable-background:new 0 0 352.1 274;" xml:space="preserve">
<style type="text/css">
	.st0{fill:#FFFFFF;}
</style>
<g>
	<path class="st0" d="M247.6,105.1c-13-13.7-45.9-47.6-49.7-52.3c-15.6-19.3-5.5-48,18.5-52.3c10.9-1.9,19.9,2.1,27.4,10
		c23.4,24.5,89.7,93.8,99.4,104.1c11.7,12.4,12,31.5,0.3,43.9c-33.3,35.2-66.7,70.4-100.2,105.4c-12,12.6-29.3,13.4-41.7,2.6
		c-12.8-11.2-14.9-31.4-3.9-44.7c7.3-8.8,40.6-43,50-52.8c-2.9,0-145.7,0-215.2,0c-14.4,0-25.5-7.4-30.3-20.2
		c-4.9-12.9-1.4-27.4,8.9-36.5c6.3-5.6,13.9-7.4,22.2-7.4C102.5,105.1,244.4,105.1,247.6,105.1z"/>
</g>
</svg>
