<?xml version="1.0" encoding="utf-8"?>
<!-- Generator: Adobe Illustrator 20.1.0, SVG Export Plug-In . SVG Version: 6.00 Build 0)  -->
<svg version="1.1" id="Layer_1" xmlns="http://www.w3.org/2000/svg" xmlns:xlink="http://www.w3.org/1999/xlink" x="0px" y="0px"
	 viewBox="0 0 274 352.2" style="enable-background:new 0 0 274 352.2;" xml:space="preserve">
<style type="text/css">
	.st0{fill:#cecece;}
</style>
<g>
	<path class="st0" d="M169,247.6c13.7-13,47.6-45.9,52.3-49.7c19.3-15.6,48-5.5,52.3,18.5c1.9,10.9-2.1,19.9-10,27.4
		c-24.5,23.4-93.8,89.7-104.1,99.4c-12.4,11.7-31.5,12-43.9,0.3c-35.2-33.3-70.4-66.7-105.4-100.2c-12.6-12-13.4-29.3-2.6-41.7
		c11.2-12.8,31.4-14.9,44.7-3.9c8.8,7.3,43,40.6,52.8,50c0-2.9,0-145.7,0-215.2c0-14.4,7.4-25.5,20.2-30.3
		c12.9-4.9,27.4-1.4,36.5,8.9c5.6,6.3,7.4,13.9,7.4,22.2C169,102.5,169,244.4,169,247.6z"/>
</g>
</svg>
