<?xml version="1.0" encoding="UTF-8"?>
<svg width="500px" height="500px" viewBox="0 0 500 500" version="1.1" xmlns="http://www.w3.org/2000/svg" xmlns:xlink="http://www.w3.org/1999/xlink">
    <!-- Generator: Sketch 49.3 (51167) - http://www.bohemiancoding.com/sketch -->
    <title>home-3-sites-users-love</title>
    <desc>Created with Sketch.</desc>
    <defs></defs>
    <g id="home-3-sites-users-love" stroke="none" stroke-width="1" fill="none" fill-rule="evenodd">
        <g id="Fill" transform="translate(48.000000, 65.000000)">
            <path d="M13.9277344,173.509766 C35.9721729,128.373596 9.34644813,180.414517 50.9726563,113.189453 C57.7249145,102.284761 70.200346,71.6652391 84.9023437,60.0585938 C127.162198,26.6961117 183.943546,-1.05281622 238.681641,0.685546875 C266.088634,1.55593349 291.893962,15.612388 308.001953,37.9492187 C316.177397,49.2860462 321.16461,63.132246 331.150391,72.9121094 C354.440093,95.7215542 367.110775,88.4404591 381.916016,113.904297 C392.778458,132.586835 375.53453,150.729543 380.242187,170.068359 C382.862088,180.830776 403.337264,187.670225 399.095703,199.523437 C382.634566,245.524743 325.080815,259.359067 288.072266,280.078125 C254.547765,298.846655 196.552182,345.923158 157.980469,351.53125 C141.948865,353.862148 125.674067,356.21373 109.511719,355.107422 C71.0711217,352.476174 9.25383371,316.381197 2.16015625,273.990234 C-2.96618685,243.355825 3.4669275,220.808972 11.7382813,191.832031 L13.9277344,173.509766 Z" id="Path-1563" fill="#D8D8D8"></path>
            <path d="M70.9003906,227.21875 C63.3428649,214.937293 69.2918882,227.482858 68.4296875,208.181641 C68.179762,202.586811 65.2356957,197.178636 65.7246094,191.599609 C66.8838553,178.371376 107.172461,171.189286 111,170.146484 C127.222399,165.726741 135.440921,164.834525 151.623047,160.269531 C185.669431,150.665012 218.866482,140.893205 253.927734,136.691406 C264.024312,135.481416 261.420042,132.841418 271.5,131.5 C281.919901,130.113343 290.434933,127.911047 297.972656,124.824219 C309.138125,120.251766 320.941643,117.189813 331.773438,111.875 C346.068848,104.860701 348.357127,55.798684 363,67 C366.218841,69.4623073 366.167539,79.8566066 367.228516,75.9453125 L375.152344,79.9082031 C378.29687,68.3158946 376.502756,55.8801774 375.925781,43.8828125 C375.806902,41.4108997 374.93351,38.6723571 373.089844,37.0214844 C367.449829,31.9712494 344.816284,37.3726967 339.740234,43.5527344 C331.567209,53.5033084 346.021945,53.5108773 347.5,59.5 C348.368286,63.0183211 345.007772,66.8157143 343.068359,69.8769531 C337.016886,79.4288172 334.957151,91.6059131 327.263672,99.8925781 C312.266584,116.045979 261.840988,131.262487 240.076172,134.738281 C229.079351,136.49445 217.887155,136.903583 206.919922,138.835938 C200.297163,140.002824 193.779621,141.824364 187.421875,144.015625 C173.791109,148.713605 175.209891,144.538199 161.5,149 C153.129716,151.724058 145.646926,152.352938 137,154 C126.963506,155.911746 120.988574,158.121425 111,160.269531 C104.407344,161.687324 84.8188353,167.79158 78.5,170.146484 C75.2509171,171.357353 68.7106483,173.409401 65.7246094,175.171875 C63.224399,176.647594 57.2735898,183.73992 55.3105469,185.878906 C54.1986814,187.090426 53.1636862,188.874839 53.5273438,190.478516 C55.2203995,197.944641 63.6440602,204.729684 61.2578125,212.105469 C53.5273438,236 68.6516927,233.526042 68.4296875,236 L70.9003906,227.21875 Z" id="Path-1570" fill="#F7F7F1"></path>
            <path d="M101.867188,54.9941406 C156.753561,43.3683674 111.329763,51.6518009 224.185547,48.1523438 C233.387683,47.8670019 242.595042,47.4450432 251.759766,46.5683594 C265.834474,45.2219938 279.967125,38.9192726 293.871094,41.4863281 C298.299152,42.3038697 295.900196,50.2942205 296.253906,54.7832031 C298.298452,80.7308161 289.417058,104.0247 288.201172,129.384766 C286.102437,173.158668 288.507547,172.345967 292.453125,202.326172 C292.535525,202.952283 292.903777,203.778303 292.453125,204.220703 C291.603406,205.054863 290.334551,205.492629 289.146484,205.572266 C267.980145,206.991062 246.785464,208.038799 225.582031,208.703125 C121.270899,211.971303 253.070746,212.219957 172.96875,193.183594 C163.31986,190.89052 153.308434,195.902777 143.419922,196.662109 C111.777275,199.091928 112.468513,200.768196 113.806641,176.195312 C114.488084,163.681533 115.219701,151.11091 114.429688,138.603516 C113.511267,124.063199 110.023564,109.782057 108.695312,95.2734375 C107.701384,84.4166632 107.878906,73.484375 107.470703,62.5898437 L101.867188,54.9941406 Z" id="Path-1564" fill="#EEEEEE"></path>
            <path d="M127.464844,196.720703 C125.689453,188.165365 123.379444,179.703752 122.138672,171.054688 C121.681065,167.864844 119.494762,162.792236 122.396484,161.390625 C144.441271,150.742397 209.949277,150.246117 234.945312,149.5625 C248.146757,149.201454 263.61145,142.18414 274.564453,149.5625 L277.314453,150.064453 C278.016871,150.537628 278.567692,151.420742 278.580078,152.267578 C278.748393,163.77542 278.720042,175.310851 277.851563,186.787109 C277.121522,196.434011 283.280992,213.63513 273.792969,215.525391 C231.888324,223.873884 188.329461,214.718246 145.630859,213.128906 C140.494072,212.937703 135.431464,211.615025 130.492188,210.191406 C129.459266,209.893693 128.310564,209.113281 128.066406,208.066406 C126.01961,199.290346 125.203125,190.272135 123.771484,181.375" id="Path-1566" fill="#F7F7F1"></path>
            <path d="M81.4863281,213.167969 C81.0653533,241.788792 84.9287129,202.721682 66.6054688,227.179688 C63.8123796,230.907924 70.5386293,237.114484 68.0878906,241.076172 C66.0090359,244.436699 59.0455045,240.517054 56.4902344,243.53125 C54.1885001,246.246375 59.2550907,251.47604 56.9628906,254.199219 C53.2944585,258.557389 44.4123918,256.517489 41.4589844,261.388672 C38.7039103,265.932735 41.9476991,272.045491 42.9824219,277.257812 C44.6189362,285.501603 43.3840825,295.80859 49.4472656,301.628906 C53.0727372,305.109156 58.9886067,298.401169 63.9003906,297.337891 C68.8088578,296.27533 73.8066676,295.484624 78.8242188,295.269531 C90.8178224,294.755388 102.843385,294.661641 114.837891,295.154297 C196.185633,298.495528 277.394225,306.808556 358.810547,306.769531 C362.725129,306.767655 357.769224,298.628748 359.326172,295.037109 L363.212891,292.410156 C364.11281,290.334182 363.5376,287.883821 363.40625,285.625 C352.572323,99.3142772 369.396032,316.196174 357.929688,269.371094 C357.123169,266.077517 359.149013,262.672864 359.240234,259.283203 C359.429016,252.268349 362.42577,244.224771 358.767578,238.236328 C356.12701,233.91373 346.43636,238.899243 344.056641,234.427734 L341.458984,232.263672 C340.306797,230.098704 341.511928,226.032028 339.181641,225.267578 C333.501647,223.404259 325.405173,229.93419 321.251953,225.634766 C316.949608,221.180967 327.757124,207.65997 321.59375,207.060547 L320.220703,206.210938 C279.276125,202.228844 239.314113,214.730045 198.351563,214.367188 C187.665616,214.272529 210.438137,194.463767 190.814453,195.019531 C147.421542,196.248466 129.913257,197.83346 89.390625,202.208984 C88.7216034,202.281224 87.7211851,202.170167 87.4570313,202.789062 C86.866878,204.171753 87.2994792,205.791667 87.2207031,207.292969 L81.4863281,213.167969 Z" id="Path-1565" fill="#F7F7F1"></path>
            <path d="M192.982422,117.634766 C198.888021,113.027995 204.297459,107.702372 210.699219,103.814453 C226.159802,94.4249253 229.653877,119.498389 221.244141,130.777344 C214.317193,140.067614 205.11435,147.602201 198.759766,157.292969 C196.925292,160.090549 200.650278,167.724198 197.341797,167.228516 C193.361419,166.632169 194.24388,159.769571 192.189453,156.308594 C191.209287,154.657363 189.84892,153.204404 188.324219,152.037109 C178.151348,144.248875 163.570881,146.358015 155.982422,134.777344 C149.422449,124.766235 149.941092,96.8327165 167.148438,98.0566406 C177.049376,98.7608746 185.415201,107.014675 190.900391,114.503906 L192.982422,117.634766 Z" id="Path-1569" fill="#F7F7F1"></path>
            <path d="M118.402344,77.859375 C120.013021,81.7376302 119.452682,87.668233 123.234375,89.4941406 C137.697749,96.4774633 135.711953,77.6285831 133.777344,76.8535156 C129.26278,75.0448346 124.229167,78.7089844 119.455078,79.6367187" id="Path-1568" fill="#F7F7F1"></path>
            <path d="M176.017578,75.1523438 C176.318359,77.9615885 174.144927,83.0492966 176.919922,83.5800781 C185.556183,85.2319617 194.336573,81.0784615 203.097656,80.3320313 C209.856005,79.7562308 216.651054,79.5541474 223.433594,79.6171875 C244.398194,79.8120423 265.645775,84.6323505 286.3125,81.1054688 C290.361384,80.414506 290.792452,69.94596 286.849609,68.7949219 C274.848632,65.2914639 261.839581,69.3569165 249.375,70.3222656 C231.546133,71.7030646 213.846342,74.5257443 196.011719,75.8300781 C187.65867,76.4409777 179.261719,75.985026 170.886719,76.0625" id="Path-1567" fill="#F7F7F1"></path>
            <path d="M119.669922,79.5214844 C95.704319,82.705572 56.721165,87.0591133 30.0976563,92.6640625 C29.7239376,92.7427401 29.9043564,93.4056772 29.8613281,93.7851562 L29.8828125,112.724609 C29.0471287,120.094754 26.0141027,127.110778 25.2460938,134.488281 C22.5478873,160.407285 26.0500313,189.144328 33.7070313,213.980469 C33.9148013,214.654389 35.0287983,214.732009 35.7246094,214.617188 L52.7753906,209.689453 C63.1218041,207.982113 73.6213439,207.311673 84.0859375,206.636719 C89.4147086,206.293019 94.7953833,207.199678 100.105469,206.636719 C109.794288,205.609539 126.084376,211.19447 128.945313,201.880859 C134.045116,185.278749 120.713721,168.128391 117.15625,151.128906 C112.498319,128.87084 114.816141,108.793432 118.789063,86.7109375 L119.669922,79.5214844 Z" id="Path-1571" fill="#EEEEEE"></path>
            <path d="M322.412928,118.465203 C322.412928,141 323.023535,120.352493 319,185 C318.687795,190.016302 314.337938,201.195727 319,202 C366.333166,210.165657 364.253003,202.512668 365.018397,174.5 C365.388647,160.949185 367.325377,149.952037 369,136.5 C369.711967,130.780858 370.216217,121.148172 365.018397,118.658562 C352.912739,112.860293 338.174647,118.374708 324.752772,118.232781 L322.412928,118.465203 Z" id="Path-1572" fill="#D8D8D8"></path>
        </g>
        <g id="Lines" transform="translate(40.000000, 69.000000)" stroke="#979797" stroke-linecap="round" stroke-linejoin="round" stroke-width="3">
            <path d="M110.791016,50.9804688 C120.850872,139.591609 117.481185,93.2297621 119.875,190.136719" id="Path-1253"></path>
            <path d="M292.660156,66.5390625 C292.681641,69.8567708 292.703125,73.1744792 292.724609,76.4921875" id="Path-1265"></path>
            <path d="M185.4375,80.2617188 C253.347942,75.0643515 217.716665,76.722527 292.359375,75.9316406" id="Path-1266"></path>
            <path d="M200.017578,112.460937 C203.253255,109.780599 205.995921,106.356596 209.724609,104.419922 C230.339282,93.7126984 242.0869,111.189349 229.525391,128.058594 C223.259084,136.473814 214.907411,143.174136 208.5,151.482422 C206.658714,153.86996 206.18099,157.048828 205.021484,159.832031" id="Path-1267"></path>
            <path d="M198.708984,112.537109 C196.096354,108.272786 194.633174,103.039143 190.871094,99.7441406 C188.07366,97.2940192 183.885573,97.0963384 180.240234,96.3613281 C161.420926,92.5667871 159.170051,113.231695 164.328125,126.800781 C169.77623,141.132837 179.629313,138.266603 193.919922,149.587891 C197.987068,152.80996 200.319661,157.757161 203.519531,161.841797" id="Path-1268"></path>
            <path d="M225.59375,103.029297 C226.775391,101.567057 227.957031,100.104818 229.138672,98.6425781" id="Path-1269"></path>
            <path d="M228.623047,105 C230.348307,103.891927 232.073568,102.783854 233.798828,101.675781" id="Path-1270"></path>
            <path d="M230.640625,107.628906 C231.778646,107.486979 232.916667,107.345052 234.054688,107.203125" id="Path-1271"></path>
            <path d="M232.123047,112.673828 C233.819661,112.531901 235.516276,112.389974 237.212891,112.248047" id="Path-1272"></path>
            <path d="M180.197266,118.201172 C179.352865,120.46875 178.508464,122.736328 177.664062,125.003906" id="Path-1273"></path>
            <path d="M182.988281,124.443359 C179.961495,129.679526 178.570711,128.497943 181.9375,129.816406" id="Path-1274"></path>
            <path d="M189.367188,127.708984 C188.500651,129.403646 184.968112,132.172739 186.767578,132.792969 C188.878797,133.520652 189.777262,128.512326 192.007813,128.619141 C193.480521,128.689665 190.20743,132.606583 191.621094,133.025391 L195.378906,131.943359 C196.071368,132.148506 194.603436,133.837818 195.273438,134.107422 C196.578368,134.632516 198.225522,132.913393 199.460938,133.585938 C200.516022,134.160312 199.607527,136.325599 200.597656,137.005859 C202.563954,138.356788 205.165365,138.384766 207.449219,139.074219" id="Path-1275"></path>
            <path d="M214.943359,134.339844 C216.417969,134.358724 217.892578,134.377604 219.367188,134.396484" id="Path-1276"></path>
            <path d="M220.548828,128.386719 C221.815755,128.541016 223.082682,128.695312 224.349609,128.849609" id="Path-1277"></path>
            <path d="M223.748047,123.496094 C225.444661,122.955078 227.141276,122.414062 228.837891,121.873047" id="Path-1278"></path>
            <path d="M218.207031,141.992188 C219.130859,142.507812 220.054688,143.023438 220.978516,143.539062" id="Path-1279"></path>
            <path d="M213.460938,145.607422 C214.477865,145.910156 215.494792,146.212891 216.511719,146.515625" id="Path-1280"></path>
            <path d="M208.115234,150.515625 C208.952474,150.747396 209.789714,150.979167 210.626953,151.210938" id="Path-1281"></path>
            <path d="M185.029297,145.103516 C184.434896,145.844401 183.840495,146.585286 183.246094,147.326172" id="Path-1282"></path>
            <path d="M175.429688,137.798828 C174.664062,138.964844 173.898438,140.130859 173.132812,141.296875" id="Path-1283"></path>
            <path d="M164.671875,128.65625 C162.92513,129.042969 161.178385,129.429688 159.431641,129.816406" id="Path-1284"></path>
            <path d="M163.146484,122.607422 C162.230469,122.407552 161.314453,122.207682 160.398438,122.007812" id="Path-1285"></path>
            <path d="M171.435547,99.859375 C171.113281,99.0410156 170.791016,98.2226562 170.46875,97.4042969" id="Path-1286"></path>
            <path d="M176.976562,97.6171875 C177.263021,96.811849 177.549479,96.0065104 177.835938,95.2011719" id="Path-1287"></path>
            <path d="M172.703125,97.0371094 C171.729167,95.9101562 170.755208,94.7832031 169.78125,93.65625" id="Path-1288"></path>
            <path d="M166.152344,102.160156 C165.164714,101.380208 164.177083,100.60026 163.189453,99.8203125" id="Path-1289"></path>
            <path d="M96.6835938,207.607422 C96.6477865,204.096354 93.940129,199.393735 96.5761719,197.074219 C101.316844,192.90279 135.800104,191.398799 137.398437,191.333984 C152.936794,190.703883 168.489911,190.303492 184.041016,190.330078 C187.553744,190.336083 191.987486,188.998916 194.521484,191.431641 C197.558023,194.34682 196.754557,199.548828 197.871094,203.607422" id="Path-1290"></path>
            <path d="M245.695312,202.564453 C246.220637,192.796598 258.447325,190.312678 259.673828,200.572266" id="Path-1291"></path>
            <path d="M265.966797,201.423828 C264.521817,190.250974 273.842768,192.96041 276.960938,200.591797" id="Path-1292"></path>
            <path d="M284.091797,201.056641 C287.281737,191.877425 294.562042,191.151083 295.644531,201.558594" id="Path-1293"></path>
            <path d="M88.2851562,220.054688 C88.6503906,216.305339 89.015625,212.55599 89.3808594,208.806641" id="Path-1294"></path>
            <path d="M90.5625,207.974609 C136.542241,197.775811 204.415199,205.32659 245.308594,204.439453 C364.781425,201.847623 253.772366,198.566217 329.123047,201.519531" id="Path-1295"></path>
            <path d="M328.607422,201.423828 C329.064742,218.188759 326.512909,212.569453 330.498047,219.841797" id="Path-1296"></path>
            <path d="M316.990234,221.291016 C326.997396,221.768229 337.004557,222.245443 347.011719,222.722656" id="Path-1297"></path>
            <path d="M347.269531,222.992188 C347.620443,225.55013 347.971354,228.108073 348.322266,230.666016" id="Path-1298"></path>
            <path d="M337.498047,230.548828 C347.311849,231.173828 357.125651,231.798828 366.939453,232.423828" id="Path-1299"></path>
            <path d="M338.013672,240.328125 C346.560547,240.689453 355.107422,241.050781 363.654297,241.412109" id="Path-1300"></path>
            <path d="M364.900391,233.951172 C365.229818,236.572917 365.559245,239.194661 365.888672,241.816406" id="Path-1301"></path>
            <path d="M366.490234,242.861328 C366.46875,251.583984 366.447266,260.306641 366.425781,269.029297" id="Path-1302"></path>
            <path d="M354.462891,268.990234 C359.645833,269.022786 364.828776,269.055339 370.011719,269.087891" id="Path-1303"></path>
            <path d="M350.490234,292.609375 C356.818359,292.016276 363.146484,291.423177 369.474609,290.830078" id="Path-1304"></path>
            <path d="M368.9375,268.585938 C369.095052,275.96224 369.252604,283.338542 369.410156,290.714844" id="Path-1305"></path>
            <path d="M366.039062,291.003906 C366.303385,294.399089 366.567708,297.794271 366.832031,301.189453" id="Path-1306"></path>
            <path d="M100.978516,200.902344 C101.371745,202.280599 101.764974,203.658854 102.158203,205.037109" id="Path-1307"></path>
            <path d="M106.539062,199.857422 C107.3125,201.087891 108.085938,202.318359 108.859375,203.548828" id="Path-1308"></path>
            <path d="M112.960938,199.335938 C113.36849,200.753255 113.776042,202.170573 114.183594,203.587891" id="Path-1309"></path>
            <path d="M119.251953,199.470703 C119.810547,200.675781 120.369141,201.880859 120.927734,203.085938" id="Path-1310"></path>
            <path d="M128.056641,199.509766 C128.536458,200.63737 129.016276,201.764974 129.496094,202.892578" id="Path-1311"></path>
            <path d="M136.453125,199.335938 C136.496094,200.598958 136.539062,201.861979 136.582031,203.125" id="Path-1312"></path>
            <path d="M142.982422,199.240234 C143.247396,200.354818 143.51237,201.469401 143.777344,202.583984" id="Path-1313"></path>
            <path d="M149.595703,199.490234 C149.82487,200.521484 150.054036,201.552734 150.283203,202.583984" id="Path-1314"></path>
            <path d="M158.572266,199.007812 C158.894531,200.173828 159.216797,201.339844 159.539062,202.505859" id="Path-1315"></path>
            <path d="M166.990234,198.621094 C167.140625,199.722656 167.291016,200.824219 167.441406,201.925781" id="Path-1316"></path>
            <path d="M177.900391,197.925781 C178.236328,199.111328 178.572266,200.296875 178.908203,201.482422" id="Path-1317"></path>
            <path d="M191.126953,198.15625 C191.063151,199.380859 190.999349,200.605469 190.935547,201.830078" id="Path-1318"></path>
            <path d="M114.291016,78.0390625 C48.1837344,85.3680904 73.1523748,79.9191708 38.3359375,88.4765625" id="Path-1319"></path>
            <path d="M38.4863281,89.7128906 C29.4649573,123.172065 28.5404488,176.466781 38.0996094,206.873047" id="Path-1320"></path>
            <path d="M39.96875,206.390625 C49.6679688,206.403646 59.3671875,206.416667 69.0664062,206.429688" id="Path-1321"></path>
            <path d="M75.5507812,205.964844 C82.0078125,205.572266 88.4648438,205.179688 94.921875,204.787109" id="Path-1322"></path>
            <path d="M117.255859,158.960938 C101.842147,165.348548 60.897474,163.959939 64.0839844,190.5625 C64.8137299,196.654776 68.5587884,202.143374 69.1953125,208.246094 C70.3776129,219.581482 62.5904468,225.997573 74.9941406,228.056641" id="Path-1323"></path>
            <path d="M118.435547,165.185547 C109.461853,168.659628 77.4641576,175.216786 74.1132813,182.039062 C68.8862475,192.681136 75.6766422,195.800767 75.8300781,206.023437 C76.0662193,221.756345 69.0675797,213.247242 77.2050781,220.730469" id="Path-1324"></path>
            <path d="M110.662109,161.494141 C109.256027,166.929908 108.11528,165.282349 111.84375,167.388672" id="Path-1325"></path>
            <path d="M102.158203,163.425781 C100.415516,169.56887 99.3581457,167.408259 102.78125,170.615234" id="Path-1326"></path>
            <path d="M91.765625,165.435547 C89.9821033,171.052482 88.9906324,169.109718 92.3886719,171.949219" id="Path-1327"></path>
            <path d="M82.7246094,167.542969 C79.9437964,175.650664 78.079386,173.510208 83.4550781,176.027344" id="Path-1328"></path>
            <path d="M72.3085937,173.03125 C70.7574156,179.695481 69.5219774,177.39291 74.4570312,180.570312" id="Path-1329"></path>
            <path d="M65.09375,182 C68.6565589,187.394464 66.2138773,186.485812 72.1152344,185.439453" id="Path-1330"></path>
            <path d="M64.6425781,190.580078 C71.1219697,192.250763 68.6341636,193.153622 72.5664062,190.078125" id="Path-1331"></path>
            <path d="M66.9609375,200.011719 C73.4089437,200.406542 71.4266485,201.88627 73.984375,197.615234" id="Path-1332"></path>
            <path d="M68.4648438,206.3125 C74.6304579,208.001677 72.4522719,209.070656 75.6796875,205.347656" id="Path-1333"></path>
            <path d="M69.4746094,214.353516 C74.3861499,215.746439 73.1366568,216.929672 74.6289062,214.0625" id="Path-1334"></path>
            <path d="M68.0566406,222.585938 C73.2874785,222.718835 71.1793531,223.7432 74.2421875,219.242188" id="Path-1335"></path>
            <path d="M75.9589844,235.361328 C77.2634198,217.861204 72.4636778,222.271058 88.8007812,220.615234" id="Path-1336"></path>
            <path d="M88.4785156,220.189453 C93.2174479,220.195964 97.9563802,220.202474 102.695312,220.208984" id="Path-1337"></path>
            <path d="M84.5273438,236.599609 C79.4882812,237.114583 74.4492188,237.629557 69.4101562,238.144531" id="Path-1338"></path>
            <path d="M69.5175781,238.337891 C60.0481436,239.009193 63.8646231,236.912458 65.3730469,250.726562" id="Path-1339"></path>
            <path d="M68.6582031,250.070312 C42.5650363,254.678796 50.8432271,254.480313 53.7128906,289.052734" id="Path-1340"></path>
            <path d="M55.1289062,292.009766 C82.2684698,288.648407 68.2939973,289.653452 97.0683594,289.226562" id="Path-1341"></path>
            <path d="M93.8476562,254.457031 C94.9570312,265.763672 96.0664062,277.070312 97.1757812,288.376953" id="Path-1342"></path>
            <path d="M78.2363281,251.441406 C67.3749398,255.728432 71.0995719,267.122586 82.6816406,262.072266 C91.484165,258.233956 82.0057963,246.549864 73.6835937,254.496094" id="Path-1343"></path>
            <path d="M76.7109375,262.882812 C76.8326823,266.110677 76.9544271,269.338542 77.0761719,272.566406" id="Path-1344"></path>
            <path d="M80.4472656,264.121094 C80.1113281,266.96224 79.7753906,269.803385 79.4394531,272.644531" id="Path-1345"></path>
            <path d="M76.3457031,273.087891 C77.7486979,272.559896 79.1516927,272.031901 80.5546875,271.503906" id="Path-1346"></path>
            <path d="M72.9960938,258.689453 C79.2495706,264.050689 82.6577459,260.03681 85.4511719,253.296875" id="Path-1347"></path>
            <path d="M72.0292969,261.974609 C59.9100911,268.707971 65.6789848,286.350698 80.8554688,279.814453 C87.4143704,276.989649 90.5510391,263.56325 81.8652344,263.173828" id="Path-1348"></path>
            <path d="M72.9960938,263.947266 C50.5281957,282.375884 97.3181248,284.723933 81.4570312,263.308594" id="Path-1349"></path>
            <path d="M60.0253906,291.46875 C60.9957385,302.664186 58.5160233,296.121423 75.4433594,295.179688 C165.452662,290.172112 112.702679,293.692361 208.392578,296.957031 C260.631573,298.739279 312.902995,299.391927 365.158203,300.609375" id="Path-1350"></path>
            <path d="M70.4414063,295.449219 C69.4458143,309.952106 81.5169561,305.284648 81.5644531,296.009766" id="Path-1351"></path>
            <path d="M113.605469,292.898438 C113.998698,294.734375 114.391927,296.570312 114.785156,298.40625" id="Path-1352"></path>
            <path d="M115.214844,298.117188 C119.910807,298.284505 124.606771,298.451823 129.302734,298.619141" id="Path-1353"></path>
            <path d="M131.964844,293.632812 C129.032324,295.698786 129.837489,294.277105 129.667969,297.962891" id="Path-1354"></path>
            <path d="M168.107422,296.455078 C168.537109,298.291016 168.966797,300.126953 169.396484,301.962891" id="Path-1355"></path>
            <path d="M169.673828,301.035156 C176.009115,301.022135 182.344401,301.009115 188.679688,300.996094" id="Path-1356"></path>
            <path d="M187.003906,297.828125 C187.619792,298.942057 188.235677,300.05599 188.851562,301.169922" id="Path-1357"></path>
            <path d="M235.945312,299.451172 C236.453776,301.235677 236.96224,303.020182 237.470703,304.804688" id="Path-1358"></path>
            <path d="M238.585938,304.398438 C247.626953,304.611328 256.667969,304.824219 265.708984,305.037109" id="Path-1359"></path>
            <path d="M263.046875,300.107422 C263.676432,301.350911 264.30599,302.594401 264.935547,303.837891" id="Path-1360"></path>
            <path d="M308.980469,300.785156 C308.994792,302.646484 309.009115,304.507812 309.023438,306.369141" id="Path-1361"></path>
            <path d="M309.96875,306.15625 C317.227214,306.607422 324.485677,307.058594 331.744141,307.509766" id="Path-1362"></path>
            <path d="M332.537109,301.556641 C332.501302,303.057943 332.465495,304.559245 332.429688,306.060547" id="Path-1363"></path>
            <path d="M336.896484,303.162109 C368.270842,307.645332 367.314412,317.485286 366.554688,302.949219" id="Path-1364"></path>
            <path d="M264.957031,320.960938 C263.468099,322.809896 261.195371,324.24102 260.490234,326.507812 C259.111368,330.940435 287.555908,322.892607 262.1875,323.455078" id="Path-1365"></path>
            <path d="M293.455078,333.15625 C283.477387,339.731011 299.820535,338.708887 292.595703,333.408203" id="Path-1366"></path>
            <path d="M322.015625,332.09375 C321.485677,332.91862 320.955729,333.74349 320.425781,334.568359" id="Path-1367"></path>
            <path d="M338.958984,321.058594 C338.740455,325.404891 337.50025,324.689233 340.248047,325.15625" id="Path-1368"></path>
            <path d="M356.890625,333.775391 C351.285145,338.763702 359.481776,343.025198 359.853516,335.167969" id="Path-1369"></path>
            <path d="M316.410156,347.943359 C315.257812,348.16862 313.952641,348.003018 312.953125,348.619141 C301.222711,355.850015 333.695453,352.106045 319.609375,348.078125" id="Path-1370"></path>
            <path d="M395.09375,299.412109 C391.667456,303.886722 395.537985,305.178146 397.304688,301.287109" id="Path-1371"></path>
            <path d="M60.7988281,95.9550781 C50.4723214,101.242522 52.2810597,113.154899 61.8730469,109.136719 C71.5758432,105.07212 64.6070257,97.1898674 58.1367187,95.9355469" id="Path-1372"></path>
            <path d="M114.527344,96.2460937 C98.8578326,95.3928363 108.336672,95.3424583 86.1601562,98.2363281" id="Path-1373"></path>
            <path d="M84.9785156,97.1347656 C86.5320479,107.862031 83.0907907,107.797887 88.3496094,106.894531" id="Path-1374"></path>
            <path d="M87.3847656,106.642578 C95.516276,106.623698 103.647786,106.604818 111.779297,106.585938" id="Path-1375"></path>
            <path d="M45.9589844,91.5488281 C67.6914062,90.4023438 89.4238281,89.2558594 111.15625,88.109375" id="Path-1376"></path>
            <path d="M44.5859375,92.9980469 C39.3117907,164.024592 39.8550256,129.014659 42.5878906,198.021484" id="Path-1377"></path>
            <path d="M43.46875,195.972656 C49.9251302,196.275391 56.3815104,196.578125 62.8378906,196.880859" id="Path-1378"></path>
            <path d="M75.6152344,197.90625 C81.8001302,197.435547 87.985026,196.964844 94.1699219,196.494141" id="Path-1379"></path>
            <path d="M128.572266,157.859375 C130.447917,168.244792 132.323568,178.630208 134.199219,189.015625" id="Path-1380"></path>
            <path d="M129.925781,155.095703 C144.177734,153.588542 158.429688,152.08138 172.681641,150.574219" id="Path-1381"></path>
            <path d="M220.548828,150.439453 C255.669409,144.874622 233.567372,147.457078 287.183594,146.398438" id="Path-1382"></path>
            <path d="M285.015625,148.951172 C284.464193,162.337891 283.91276,175.724609 283.361328,189.111328" id="Path-1383"></path>
            <path d="M140.46875,167.175781 C139.08751,177.150997 139.333677,170.722653 142.982422,186.310547" id="Path-1384"></path>
            <path d="M139.974609,167.117188 C149.223307,166.11263 158.472005,165.108073 167.720703,164.103516" id="Path-1385"></path>
            <path d="M194.457031,164.664062 C205.036458,163.723307 215.615885,162.782552 226.195312,161.841797" id="Path-1386"></path>
            <path d="M244.771484,162.691406 C254.255859,162.395182 263.740234,162.098958 273.224609,161.802734" id="Path-1387"></path>
            <path d="M168.558594,164.585938 C169.882812,172.535807 171.207031,180.485677 172.53125,188.435547" id="Path-1388"></path>
            <path d="M194.628906,165.494141 C196.690104,174.796875 198.751302,184.099609 200.8125,193.402344" id="Path-1389"></path>
            <path d="M225.464844,162.923828 C227.455078,172.555339 229.445312,182.186849 231.435547,191.818359" id="Path-1390"></path>
            <path d="M244.041016,163.503906 C244.814453,170.455078 245.587891,177.40625 246.361328,184.357422" id="Path-1391"></path>
            <path d="M272.945312,163.677734 C273.947917,171.930339 274.950521,180.182943 275.953125,188.435547" id="Path-1392"></path>
            <path d="M330.755859,116.054688 C331.492836,141.837716 326.683068,167.164008 327.041016,192.958984" id="Path-1393"></path>
            <path d="M330.992188,116.017578 C365.980103,113.804297 351.328479,112.180848 375.208984,116.808594" id="Path-1394"></path>
            <path d="M377.763672,115.650391 C377.331798,146.004556 370.666691,175.211069 368.572266,205.423828" id="Path-1395"></path>
            <path d="M337.304688,205.443359 C348.278646,205.623698 359.252604,205.804036 370.226562,205.984375" id="Path-1396"></path>
            <path d="M346.96875,195.335938 C339.909591,213.393255 359.176666,199.619046 345.400391,197.267578" id="Path-1397"></path>
            <path d="M331.808594,125.023438 C346.711589,125.783854 361.614583,126.544271 376.517578,127.304688" id="Path-1398"></path>
            <path d="M330.175781,189.556641 C342.029948,191.431641 353.884115,193.306641 365.738281,195.181641" id="Path-1399"></path>
            <path d="M337.949219,131.265625 C333.879771,132.872108 334.342063,137.030142 339.109375,138.6875 C344.318048,140.498297 345.565673,132.132212 338.830078,131.632812" id="Path-1400"></path>
            <path d="M363.826172,133.429688 C366.167318,133.616536 368.508464,133.803385 370.849609,133.990234" id="Path-1401"></path>
            <path d="M364.277344,137.064453 C366.511068,137.251302 368.744792,137.438151 370.978516,137.625" id="Path-1402"></path>
            <path d="M363.009766,140.041016 C365.336589,140.530599 367.663411,141.020182 369.990234,141.509766" id="Path-1403"></path>
            <path d="M335.072266,147.90625 C334.621094,154.097656 334.169922,160.289062 333.71875,166.480469" id="Path-1404"></path>
            <path d="M337.261719,148.466797 C347.097005,149.813151 356.932292,151.159505 366.767578,152.505859" id="Path-1405"></path>
            <path d="M335.587891,166.345703 C372.266108,170.573606 364.851357,180.127274 369.109375,152.46875" id="Path-1406"></path>
            <path d="M335.050781,174.964844 C334.513672,179.268229 333.976562,183.571615 333.439453,187.875" id="Path-1407"></path>
            <path d="M336.039062,175.023438 C369.269169,179.685255 366.828854,169.372839 363.632812,190.8125" id="Path-1408"></path>
            <path d="M301.292969,116.964844 C316.137318,108.845758 335.847888,100.554666 343.726562,84.1074219 C354.695697,61.2086423 351,65 357,56" id="Path-1409"></path>
            <path d="M346.109375,44.6992188 C352.745443,42.1028646 359.194515,38.9654553 366.017578,36.9101563 C391.042607,29.3719122 381.595024,53.5129557 380.619141,68.2011719 C380.435089,70.971373 382.443337,73.6105533 382.208984,76.3769531 C382.144073,77.1431905 380.417504,77.1481806 379.910156,76.5703125 C375.397052,71.4298945 372.913201,64.5549535 367.820312,59.9882813 C364.551472,57.0571893 346.399222,53.4452316 348.966797,44.796875" id="Path-1410"></path>
            <path d="M364.470703,59.7949219 C352.245819,75.2022642 349.754729,102.30094 330.197266,111.765625 C320.54422,116.437142 310.397786,120.011719 300.498047,124.134766" id="Path-1411"></path>
            <path d="M308.357422,113.484375 C305.549567,118.610425 304.819034,116.668415 308.357422,119.708984" id="Path-1412"></path>
            <path d="M318.193359,107.494141 C316.880603,115.302484 315.08292,113.260323 321.714844,114.857422" id="Path-1413"></path>
            <path d="M326.482422,103.492188 C326.801334,109.21268 327.075847,112.627048 332.345703,108.324219" id="Path-1414"></path>
            <path d="M333.482422,96.0722656 C332.950735,102.097239 336.19723,106.681481 341.986328,101.193359" id="Path-1415"></path>
            <path d="M340.033203,90.5429688 C344.414103,93.6551425 341.99646,93.2773428 347.355469,91.0664062" id="Path-1416"></path>
            <path d="M346.496094,78.5996094 C350.356154,82.0203761 348.228367,81.7215145 352.875,79.5273438" id="Path-1417"></path>
            <path d="M353.175781,66.5195312 C355.334681,70.434403 353.718776,69.389793 357.707031,70.0957031" id="Path-1418"></path>
            <path d="M354.3125,61.0898438 C356.453125,62.0878906 358.59375,63.0859375 360.734375,64.0839844" id="Path-1419"></path>
            <path d="M379.439453,38.515625 C382.143181,48.599145 381.926737,42.4897365 374.242188,56.1035156" id="Path-1420"></path>
            <path d="M379.439453,35.5976562 C373.849294,40.1655959 364.798299,45.1775765 364.384766,53.4160156" id="Path-1421"></path>
            <path d="M380.382812,40.4863281 C373.039282,42.7371316 372.235565,45.6169643 370.355469,52.8945312" id="Path-1422"></path>
            <path d="M333.998047,63.640625 C299.616,-11.6087055 201.252997,-12.1510485 137.720703,24.5039063 C122.461479,33.3077148 81.4531118,55.3361147 76.3242188,75.875" id="Path-1423"></path>
            <path d="M280.054688,0.498046875 C301.495713,7.0269013 317.486928,16.0473837 323.197266,38.1679688" id="Path-1424"></path>
            <path d="M362.816406,81.1113281 C374.061158,96.0155563 393.838783,95.7231277 400.720703,110.875 C409.154326,129.443244 385.799582,140.411673 387.556641,157.183594 C387.767454,159.195902 388.706477,161.118787 389.789062,162.828125 C393.769747,169.113389 400.199203,174.036565 402.673828,181.052734 C411.84175,207.046042 392.918463,231.126385 370.011719,239.671875" id="Path-1425"></path>
            <path d="M22.4882812,167.890625 C4.62265787,207.241136 -12.2659031,250.22446 15.4003906,290.095703 C51.5792249,342.234783 119.588615,359.704901 179.423828,344.966797 C198.363967,340.301622 204.19366,331.876181 224.134766,320.75 C241.707088,310.945486 234.425654,319.97563 240.283203,311.742188" id="Path-1426"></path>
            <path d="M21.4785156,315.376953 C43.1016718,344.025125 75.5742072,352.563188 108.773438,363.462891" id="Path-1427"></path>
            <path d="M124.964844,364.912109 C125.344611,367.205507 128.206001,371.509241 126.917969,367.095703" id="Path-1428"></path>
            <path d="M89.1015625,375.599609 C88.4773522,379.962534 87.3033362,379.066063 89.8535156,379.966797" id="Path-1429"></path>
            <path d="M69.3242188,372.931641 C67.3984375,372.996094 65.4726562,373.060547 63.546875,373.125" id="Path-1430"></path>
            <path d="M415.945313,67.2929688 C412.984431,76.6349989 420.941675,72.6649441 416.203125,69.0527344" id="Path-1431"></path>
            <path d="M441.994141,34.9589844 C443.160807,35.4746094 444.327474,35.9902344 445.494141,36.5058594" id="Path-1432"></path>
            <path d="M444.914062,27.5957031 C446.080729,27.6731771 447.247396,27.750651 448.414062,27.828125" id="Path-1433"></path>
            <path d="M413.111328,49.28125 C414.750651,50.75 416.389974,52.21875 418.029297,53.6875" id="Path-1434"></path>
            <path d="M432.544922,61.5136719 C434.055339,61.2949219 435.565755,61.0761719 437.076172,60.8574219" id="Path-1435"></path>
            <path d="M441.199219,72.0097656 C442.308594,71.796875 443.417969,71.5839844 444.527344,71.3710938" id="Path-1436"></path>
            <path d="M450.240234,64.5292969 C454.958036,66.1346302 458.577459,63.0286328 453.761719,61.4941406" id="Path-1437"></path>
            <path d="M409.117188,97.5019531 C410.133464,97.843099 411.14974,98.1842448 412.166016,98.5253906" id="Path-1438"></path>
            <path d="M426.896484,85.5 C427.741536,86.125 428.586589,86.75 429.431641,87.375" id="Path-1439"></path>
            <path d="M22.875,64.2402344 C19.9789755,77.5882747 28.0042937,56.7849293 20.7695312,65.0703125" id="Path-1440"></path>
            <path d="M33.1171875,42.59375 C32.5234375,43.6048177 31.9296875,44.6158854 31.3359375,45.6269531" id="Path-1441"></path>
            <path d="M41.9433594,49.859375 C42.7239583,50.2395833 43.5045573,50.6197917 44.2851562,51" id="Path-1442"></path>
            <path d="M53.9257812,56.9335937 C50.7751054,67.0594292 63.1011338,54.9367845 53.9902344,56.5273437" id="Path-1443"></path>
            <path d="M67.390625,49.6289062 C68.2858073,49.6028646 69.1809896,49.5768229 70.0761719,49.5507812" id="Path-1444"></path>
            <path d="M70.4414062,45.78125 C70.9635417,46.2773438 71.4856771,46.7734375 72.0078125,47.2695312" id="Path-1445"></path>
            <path d="M78.4726563,16.0957031 C78.3079427,17.171875 77.1538383,20.0349815 77.9785156,19.3242188 L80.8125,20.4628906 C85.5178836,16.4074724 79.474068,12.8773582 77.7636719,16.65625" id="Path-1446"></path>
            <path d="M57.9003906,27.9824219 C55.5389711,34.7654438 60.0251907,31.3937182 57.6640625,29.5859375" id="Path-1447"></path>
            <path d="M407.505859,179.138672 C411.59966,188.497467 411.067842,195.997639 407.65625,205.308594" id="Path-1448"></path>
            <path d="M158.099609,214.835937 C196.496832,211.522788 177.333825,211.809474 215.587891,213.927734" id="Path-1449"></path>
            <path d="M160.033203,244.792969 C195.083313,242.541656 177.267957,242.98516 213.482422,243.595703" id="Path-1450"></path>
            <path d="M110.490234,243.498047 C112.108073,243.479167 113.725911,243.460286 115.34375,243.441406" id="Path-1451"></path>
            <path d="M120.777344,242.570312 C123.132161,242.621745 125.486979,242.673177 127.841797,242.724609" id="Path-1452"></path>
            <polyline id="Path-1453" points="136.087891 243.285156 138.472656 243.285156 139.009766 243.285156 140.962891 243.285156 143.541016 243.285156 144.484375 243.285156 145.021484 243.285156 145.171875 243.285156 145.322266 243.285156 145.34375 243.285156 145.472656 243.285156 145.558594 243.285156 145.644531 243.285156 145.730469 243.285156 145.816406 243.285156 145.902344 243.285156 145.966797 243.285156 146.052734 243.285156 146.117188 243.285156 146.203125 243.285156 146.310547 243.285156 146.417969 243.285156 146.525391 243.285156 146.611328 243.285156"></polyline>
            <path d="M229.375,241.179688 C231.665365,241.03776 233.955729,240.895833 236.246094,240.753906" id="Path-1454"></path>
            <path d="M242.001953,238.337891 C244.435547,238.350911 246.869141,238.363932 249.302734,238.376953" id="Path-1455"></path>
            <path d="M254.994141,235.324219 C257.327474,235.201823 259.660807,235.079427 261.994141,234.957031" id="Path-1456"></path>
            <path d="M271.357422,232.830078 C280.46224,233.339193 289.567057,233.848307 298.671875,234.357422" id="Path-1457"></path>
            <path d="M227.871094,215.880859 C230.054036,215.783854 232.236979,215.686849 234.419922,215.589844" id="Path-1458"></path>
            <path d="M241.292969,215.550781 C243.611979,215.576823 245.93099,215.602865 248.25,215.628906" id="Path-1459"></path>
            <path d="M254.328125,214.566406 C256.597005,214.579427 258.865885,214.592448 261.134766,214.605469" id="Path-1460"></path>
            <path d="M270.433594,213.677734 C279.896484,213.774089 289.359375,213.870443 298.822266,213.966797" id="Path-1461"></path>
            <path d="M110.984375,214.605469 C112.344401,214.44401 113.704427,214.282552 115.064453,214.121094" id="Path-1462"></path>
            <path d="M121.916016,214.025391 C124.335286,213.896484 126.754557,213.767578 129.173828,213.638672" id="Path-1463"></path>
            <path d="M138.472656,215.261719 C141.307292,215.410156 144.141927,215.558594 146.976562,215.707031" id="Path-1464"></path>
            <path d="M111.134766,214.507812 C110.826823,224.564453 110.51888,234.621094 110.210938,244.677734" id="Path-1465"></path>
            <path d="M115.494141,215.996094 C115.143229,224.590495 114.792318,233.184896 114.441406,241.779297" id="Path-1466"></path>
            <path d="M122.494141,214.566406 C122.522786,223.695312 122.551432,232.824219 122.580078,241.953125" id="Path-1467"></path>
            <path d="M128.056641,214.566406 C127.591797,223.44401 127.126953,232.321615 126.662109,241.199219" id="Path-1468"></path>
            <path d="M135.744141,216.09375 C136.080729,224.861328 136.417318,233.628906 136.753906,242.396484" id="Path-1469"></path>
            <path d="M147.492188,216.054688 C147.370443,224.848307 147.248698,233.641927 147.126953,242.435547" id="Path-1470"></path>
            <path d="M157.992188,215.339844 C158.400391,224.365234 158.808594,233.390625 159.216797,242.416016" id="Path-1471"></path>
            <path d="M216.404297,214.972656 C216.289714,224.532552 216.17513,234.092448 216.060547,243.652344" id="Path-1472"></path>
            <path d="M158.421875,219.996094 C202.274149,215.735427 182.897002,215.974413 216.490234,217.195313" id="Path-1473"></path>
            <path d="M228.064453,215.841797 C228.815755,224.087891 229.567057,232.333984 230.318359,240.580078" id="Path-1474"></path>
            <path d="M233.390625,217.677734 C234.048828,224.70638 234.707031,231.735026 235.365234,238.763672" id="Path-1475"></path>
            <path d="M241.486328,216.789062 C241.879557,223.714193 242.272786,230.639323 242.666016,237.564453" id="Path-1476"></path>
            <path d="M247.798828,217.966797 C248.128255,225.047526 248.457682,232.128255 248.787109,239.208984" id="Path-1477"></path>
            <path d="M253.941406,215.996094 C254.306641,218.044922 254.671875,220.09375 255.037109,222.142578" id="Path-1478"></path>
            <path d="M261.414062,215.048828 C261.654842,223.086977 263.699299,220.99598 256.990234,222.625" id="Path-1479"></path>
            <path d="M256.173828,235.498047 C255.635161,226.263381 259.681712,225.10506 261.521484,233.951172" id="Path-1480"></path>
            <path d="M271.830078,233.003906 C271.629557,231.599609 271.429036,230.195312 271.228516,228.791016" id="Path-1481"></path>
            <path d="M272.195312,228.578125 C299.966327,228.036735 296.396571,219.632365 299.037109,234.046875" id="Path-1482"></path>
            <path d="M270.712891,214.449219 C270.95638,216.910156 271.19987,219.371094 271.443359,221.832031" id="Path-1483"></path>
            <path d="M272.109375,221.001953 C299.230178,220.733657 298.093344,229.22435 297.277344,215.802734" id="Path-1484"></path>
            <path d="M249.539062,254.611328 C248.822917,266.684245 248.106771,278.757161 247.390625,290.830078" id="Path-1485"></path>
            <path d="M249.732422,254.050781 C266.88214,253.488753 330.534203,250.184819 350.640625,253.742188 C354.500829,254.425162 348.266026,266.907947 347.527344,293.710938" id="Path-1486"></path>
            <path d="M248.894531,290.560547 C281.643229,291.89388 314.391927,293.227214 347.140625,294.560547" id="Path-1487"></path>
            <path d="M259.289062,257.994141 C254.835792,258.255158 256.843363,265.069112 261.285156,262.691406 C265.397299,260.490163 259.309145,254.84479 257.376953,259.384766" id="Path-1488"></path>
            <path d="M260.275391,268.816406 C247.618592,268.726287 268.692749,276.182763 258.171875,269.474609" id="Path-1489"></path>
            <path d="M259.396484,281.804688 C248.71289,289.548501 269.058333,285.061644 257.763672,281.4375" id="Path-1490"></path>
            <path d="M282.888672,259.482422 C275.961176,260.12257 281.020359,266.207839 282.330078,265.144531 C287.94303,260.587605 283.430662,260.702802 281.363281,260.351562" id="Path-1491"></path>
            <path d="M280.398438,271.212891 C276.739155,272.429016 274.778395,278.973996 280.570312,276.181641 C288.24266,272.482706 278.808886,271.721232 278.787109,271.716797" id="Path-1492"></path>
            <path d="M282.974609,282.191406 C273.613919,291.26161 288.847119,284.991113 281.921875,282.867188" id="Path-1493"></path>
            <path d="M306.382813,259.482422 C304.387076,260.239 300.297005,260.622307 303.675781,264.603516 C304.604404,265.69771 313.33776,260.366403 304.277344,259.056641" id="Path-1494"></path>
            <path d="M305.4375,270.671875 C292.217868,274.636737 314.846018,277.911148 303.267578,270.828125" id="Path-1495"></path>
            <path d="M304.964844,282.751953 C290.476482,287.716183 316.486674,285.542401 303.503906,282.171875" id="Path-1496"></path>
            <path d="M326.375,260.486328 C317.28002,268.916543 333.374011,262.908281 324.548828,261.396484" id="Path-1497"></path>
            <path d="M324.419922,273.707031 C318.057643,282.422912 336.258755,271.153102 322.617188,272.837891" id="Path-1498"></path>
            <path d="M323.347656,285.882812 C313.526036,289.103837 337.555945,285.931818 322.53125,285.167969" id="Path-1499"></path>
            <path d="M339.904297,261.492188 C328.393956,269.179562 352.273191,261.022794 341.041016,260.544922 C340.051893,260.50284 339.151693,261.13737 338.207031,261.433594" id="Path-1500"></path>
            <path d="M339.96875,273.261719 C326.124346,276.911607 351.607217,278.840182 337.927734,273.996094" id="Path-1501"></path>
            <path d="M340.914063,286.289062 C334.960894,286.38485 339.923602,291.261726 342.501953,290 C348.997701,286.82128 341.342892,285.177262 340.828125,284.994141" id="Path-1502"></path>
            <path d="M192.652344,257.492188 C192.466146,265.963542 189.582241,290.998891 192.09375,282.90625" id="Path-1503"></path>
            <path d="M204.119141,260.970703 C204.822706,280.148194 202.209524,273.264913 206.869141,282.886719" id="Path-1504"></path>
            <path d="M219.195312,260.912109 C220.655599,269.023438 222.115885,277.134766 223.576172,285.246094" id="Path-1505"></path>
            <path d="M235.923828,258.322266 C236.998691,285.377047 234.584355,292.607618 237.857422,281.109375" id="Path-1506"></path>
            <path d="M231.478516,268.333984 C234.248698,268.218099 237.01888,268.102214 239.789062,267.986328" id="Path-1507"></path>
            <path d="M217.433594,280.259766 C220.153646,279.950521 222.873698,279.641276 225.59375,279.332031" id="Path-1508"></path>
            <path d="M199.974609,272.894531 C202.830729,272.566406 205.686849,272.238281 208.542969,271.910156" id="Path-1509"></path>
            <path d="M185.888672,266.34375 C189.617839,265.91862 193.347005,265.49349 197.076172,265.068359" id="Path-1510"></path>
            <path d="M149.875,254.998047 C149.688802,257.78125 149.502604,260.564453 149.316406,263.347656" id="Path-1511"></path>
            <path d="M148.994141,262.882812 C160.934542,263.875762 159.979051,256.157137 151.056641,255.306641" id="Path-1512"></path>
            <path d="M164.328125,257.433594 C166.209896,270.035758 174.076058,255.791244 164.349609,257.994141" id="Path-1513"></path>
            <path d="M168.408203,270.015625 C157.884133,281.926129 177.800367,275.588806 167.548828,270.402344" id="Path-1514"></path>
            <path d="M171.757812,283.951172 C165.662799,281.394792 167.972659,291.259032 172.595703,288.587891 C175.222696,287.070045 175.513424,280.974406 170.619141,283.738281" id="Path-1515"></path>
            <path d="M152.794922,282.90625 C152.759115,284.445964 152.723307,285.985677 152.6875,287.525391" id="Path-1516"></path>
            <path d="M152.429688,288.800781 C154.219401,288.781901 156.009115,288.763021 157.798828,288.744141" id="Path-1517"></path>
            <path d="M153.396484,283.988281 C160.109984,283.359924 158.519216,281.78054 158.636719,288.203125" id="Path-1518"></path>
            <path d="M152.259766,270.537109 C151.93085,278.378764 149.969477,276.95585 157.046875,276.007812" id="Path-1519"></path>
            <path d="M151.958984,270.537109 C158.826499,270.163845 156.694675,268.627272 157.691406,275.949219" id="Path-1520"></path>
            <path d="M125.931641,264.816406 C126.079039,250.071176 133.899978,241.313971 133.941406,265.203125" id="Path-1521"></path>
            <path d="M129.044922,273.050781 C129.130859,276.065755 129.216797,279.080729 129.302734,282.095703" id="Path-1522"></path>
            <path d="M128.980469,284.394531 C131.134766,284.311198 133.289062,284.227865 135.443359,284.144531" id="Path-1523"></path>
            <path d="M135.080078,271.966797 C135.215495,275.716797 135.350911,279.466797 135.486328,283.216797" id="Path-1524"></path>
            <path d="M123.439453,266.015625 C141.955179,266.27641 139.639406,260.793572 139.996094,272.701172" id="Path-1525"></path>
            <path d="M125.416016,272.798828 C130.469401,272.592448 135.522786,272.386068 140.576172,272.179688" id="Path-1526"></path>
            <path d="M122.859375,266.960938 C123.03125,268.326823 123.203125,269.692708 123.375,271.058594" id="Path-1527"></path>
            <path d="M100.935547,266.498047 C117.819937,265.697362 115.532669,260.775493 116.525391,271.195312" id="Path-1528"></path>
            <path d="M101.814453,266.904297 C103.074648,276.199192 100.860254,271.622307 116.203125,271.966797" id="Path-1529"></path>
            <path d="M105.808594,265.087891 C105.989079,252.050748 113.349442,239.643127 112.015625,265.878906" id="Path-1530"></path>
            <path d="M107.484375,272.625 C106.376044,286.851452 113.000883,296.987622 111.736328,271.658203" id="Path-1531"></path>
            <path d="M164.371094,223.84375 C164.5,226.278646 164.628906,228.713542 164.757812,231.148438" id="Path-1532"></path>
            <path d="M164.800781,230.007812 C168.207682,230.078776 171.614583,230.14974 175.021484,230.220703" id="Path-1533"></path>
            <path d="M164.435547,225.214844 C175.630374,224.845886 173.616882,221.788766 174.119141,230.394531" id="Path-1534"></path>
            <path d="M182.816406,225.525391 C183.204499,233.728266 181.51909,230.164903 194.005859,229.351562" id="Path-1535"></path>
            <path d="M183.439453,224.441406 C195.555997,224.015151 194.144061,220.603162 193.490234,229.099609" id="Path-1536"></path>
            <path d="M199.931641,225.001953 C201.440618,233.791745 199.105205,230.163991 212.259766,228.945312" id="Path-1537"></path>
            <path d="M200.382812,223.998047 C212.019931,223.728365 210.173859,220.430126 210.755859,228.578125" id="Path-1538"></path>
            <path d="M165.486328,236.251953 C165.291101,242.854178 164.167442,239.882111 174.291016,239.904297" id="Path-1539"></path>
            <path d="M165.9375,235.400391 C176.714236,234.930659 175.120324,231.887462 175.451172,239.363281" id="Path-1540"></path>
            <path d="M184.277344,235.439453 C186.552559,241.505441 184.337419,238.587499 194.800781,238.609375" id="Path-1541"></path>
            <path d="M185.373047,234.570312 C195.650192,234.526431 194.386045,231.484753 194.671875,237.914062" id="Path-1542"></path>
            <path d="M201.84375,235.902344 C203.14815,242.183695 201.380744,239.321317 211.013672,240.117188" id="Path-1543"></path>
            <path d="M201.994141,235.960938 C212.503647,235.938914 211.557674,232.844164 211.035156,239.498047" id="Path-1544"></path>
            <path d="M110.339844,50.5371094 C181.930095,41.4677889 106.138853,50.0338156 210.734375,43.5585937 C242.272241,41.606171 271.154755,36.2428908 302.410156,40.2539062" id="Path-1254"></path>
            <path d="M304.707031,40.9511719 C300.646037,93.9904008 295.621004,148.085603 302.023438,201.037109" id="Path-1255"></path>
            <path d="M112.488281,61.4570313 C176.1249,52.4826038 238.874397,48.7678201 303.203125,51.5039063" id="Path-1256"></path>
            <path d="M119.982422,52.7597656 C118.331942,59.056424 125.863307,55.0165707 123.783203,52.4882812 C120.09869,48.009891 119.557872,51.4212141 119.101562,52.9902344" id="Path-1257"></path>
            <path d="M129.410156,52.0625 C120.410175,58.8474085 140.16707,52.6021156 129.066406,52.0625" id="Path-1258"></path>
            <path d="M137.484375,50.9609375 C134.127675,58.6415233 144.191536,51.9442545 138.408203,51.078125" id="Path-1259"></path>
            <path d="M125.523438,73.6914062 C126.582682,76.9700521 127.641927,80.2486979 128.701172,83.5273438" id="Path-1260"></path>
            <path d="M126.490234,73.7675781 C132.574219,73.0071615 138.658203,72.2467448 144.742188,71.4863281" id="Path-1261"></path>
            <path d="M143.583984,72.0292969 C144.121211,87.7186252 147.445286,82.1047682 128.873047,84.9394531" id="Path-1262"></path>
            <path d="M183.117188,71.9902344 C184.001624,80.0707697 181.928285,77.9543524 185.4375,80.5703125" id="Path-1263"></path>
            <path d="M183.998047,71.1015625 C254.448441,65.0848237 217.737435,66.8377827 294.162109,66.5390625" id="Path-1264"></path>
        </g>
    </g>
</svg>