<?xml version="1.0" encoding="UTF-8"?>
<svg width="500px" height="500px" viewBox="0 0 500 500" version="1.1" xmlns="http://www.w3.org/2000/svg" xmlns:xlink="http://www.w3.org/1999/xlink">
    <!-- Generator: Sketch 49.3 (51167) - http://www.bohemiancoding.com/sketch -->
    <title>home-2-a-handcrafted-you</title>
    <desc>Created with Sketch.</desc>
    <defs></defs>
    <g id="home-2-a-handcrafted-you" stroke="none" stroke-width="1" fill="none" fill-rule="evenodd">
        <g id="Fill" transform="translate(-50.000000, 48.000000)">
            <path d="M237.84375,58.6015625 C209.695318,80.9350381 212.415135,94.627981 193.025391,130.287109 C182.608102,149.445249 169.084057,166.762716 158,185.542969 C151.169866,197.115595 149.761031,220.553864 149.087891,230.013672 C148.398761,239.698169 147.994164,249.493442 149.087891,259.140625 C153.97266,302.226601 208.973928,320.163761 244.886719,305.892578 C269.202154,296.230003 287.371788,280.925804 316.525391,286.970703 C334.083053,290.611224 360.714121,298.778573 378.716797,308.869141 C420.984154,332.560154 434.441828,353.182799 478.703125,326.900391 C504.312765,311.693357 513.711678,275.905021 508.402344,247.621094 C501.912052,213.045961 492.694705,232.340327 495.560547,203.980469 C496.834747,191.371219 508.623327,179.300025 513.234375,169.365234 C514.259668,167.156176 514.053024,164.40191 513.382813,162.060547 C511.172627,154.33933 506.802188,147.335779 504.708984,139.582031 C502.559658,131.620391 505.31106,119.116055 508.552734,112.408203 C512.5145,104.210298 526.350653,97.7403328 523.046875,89.2558594 L523.025391,84.1523438 C512.725121,57.7000921 470.154417,67.2772899 457.099609,49.7695313 C449.471394,39.5393577 468.363982,22.7032366 455.488281,15.6386719 C407.369991,-10.762593 319.7966,1.29822589 274.542969,23.7558594 C264.265513,28.8561648 255.416667,36.4342448 245.853516,42.7734375 L237.84375,58.6015625 Z" id="Path-1553" fill="#D8D8D8"></path>
            <path d="M164.980469,69.9472656 C192.185786,64.5394273 163.117245,69.6140107 212.589844,66.5253906 C224.954714,65.7534403 237.220711,63.7081522 249.589844,63.0078125 C269.890849,61.8583706 290.268375,62.3343663 310.556641,60.9785156 C380.161842,56.3268484 362.013023,52.5024465 418.810547,54.4277344 C429.251827,54.7816665 440.347828,53.0374298 450.054687,56.9003906 C453.741647,58.3676603 455.821158,73.3293172 455.832031,77.3300781 C455.914958,107.842118 450.896975,137.279819 451.128906,167.646484 C451.227482,180.552933 451.159059,193.477262 451.988281,206.357422 C453.243612,225.856233 471.79236,251.534449 457.378906,264.726563 C437.442559,282.973581 368.871267,269.695987 339.439453,269.576172 C298.959989,269.411383 258.500492,272.110582 218.021484,271.857422 C207.016555,271.788596 192.923244,276.417648 185.166016,268.611328 C176.362182,259.751779 179.596841,244.205581 178.208984,231.792969 C176.604461,217.442544 177.689784,202.883451 176.210938,188.519531 C163.338521,63.4907895 168.202162,165.141943 165.238281,80.9433594 L164.980469,69.9472656 Z" id="Path-1555" fill="#F7F7F1"></path>
            <path d="M183.984375,80.9628906 C235.596215,73.3347256 246.846907,70.9897551 310.341797,66.71875 C331.239575,65.3130539 352.209897,65.1959058 373.154297,65.0371094 C436.949457,64.5534266 444.355517,47.854299 445.029297,100.832031 C445.267745,119.580669 444.824692,138.339483 444.064453,157.074219 C443.814735,163.228089 442.053317,169.276826 442.001953,175.435547 C441.780843,201.947644 466.903158,242.990876 443.248047,254.964844 L440.755859,257.613281 C435.507744,260.269822 427.87459,256.945664 423.298828,256.802734 C414.317276,256.522185 405.330277,257.64432 396.347656,257.400391 C389.170912,257.205501 382.073836,255.523301 374.894531,255.488281 C350.408937,255.368844 325.936639,257.080558 301.451172,256.9375 C288.361569,256.861023 275.32743,254.696839 262.238281,254.830078 C232.240803,255.135434 236.873117,268.040303 195.603516,259.025391 C191.776414,258.1894 196.052328,251.15979 195.560547,247.273437 C192.311127,221.594529 186.021374,196.262072 184.392578,170.429687 C183.245305,152.234168 186.932048,134.03904 187.271484,115.810547 C187.426815,107.468919 186.340495,99.1503906 185.875,90.8203125 L183.984375,80.9628906 Z" id="Path-1561" fill="#EEEEEE"></path>
            <path d="M241.34375,136.509766 C287.193318,132.127963 333.39113,126.363821 379.597656,134.402344 C384.99649,135.341576 381.008461,145.349041 380.583984,150.8125 C379.785529,161.089466 376.417963,171.089535 375.947266,181.386719 C374.875835,204.825786 379.411128,228.567693 375.96875,251.777344 C375.509228,254.875592 356.409622,254.583389 354.986328,254.462891 C329.827476,252.332894 304.328893,249.696854 279.052734,249.785156 C268.990398,249.820309 255.379341,259.378848 248.923828,251.660156 C239.704758,240.637149 246.648908,222.996096 244.736328,208.753906 C235.452411,139.620408 234.979503,174.464529 236.232422,141.013672 L241.34375,136.509766 Z" id="Path-1554" fill="#F7F7F1"></path>
            <path d="M416.984375,67.453125 C416.533203,73.3483073 409.767864,84.3757698 415.630859,85.1386719 L416.576172,90.1054688 C423.469624,91.0024555 430.370979,88.1370712 437.320312,87.9609375 C444.642284,87.7753591 451.944396,88.8941663 459.267578,89.0234375 C459.987173,89.03614 461.200858,89.0927776 461.330078,88.3847656 C462.152035,83.8811522 461.308082,79.2031514 461.888672,74.6621094 C463.901836,58.9162902 473.219973,63.759415 440.648438,64.8457031 C433.593511,65.0809909 426.61849,66.4173177 419.603516,67.203125 L416.984375,67.453125 Z" id="Path-1556" fill="#F7F7F1"></path>
            <path d="M419.152344,99.9042969 C418.519973,111.968235 411.65631,124.87634 425.380859,123.792969 C438.166786,122.783689 463.229397,122.466646 465,113.5 C469.808594,89.1484375 463.672384,95.4881872 457.099609,95.8652344 C445.842628,96.5109909 434.64465,98.0434885 423.490234,99.6914062 C422.158477,99.8881557 421.042318,100.8125 419.818359,101.373047" id="Path-1557" fill="#F7F7F1"></path>
            <path d="M418.896484,134.421875 C418.338606,143.37531 414.858697,184.316747 418.681641,184.460938 C486,187 464.701172,184.460938 470.648438,148.744141 C471.129428,145.855514 471.253661,134.960153 464.701172,134.867188 C450.100557,134.660036 435.509766,135.730469 420.914062,136.162109 L418.896484,134.421875 Z" id="Path-1558" fill="#F7F7F1"></path>
            <path d="M418.144531,202.472656 C418.874349,211.576172 412.250785,225.532495 420.333984,229.783203 C434.503,237.234255 454.3528,236.641198 468.351562,228.875 C475.713684,224.790661 475.105654,207.181077 467.470703,203.632812 C452.809707,196.819266 435.173828,205.178385 419.025391,205.951172" id="Path-1559" fill="#F7F7F1"></path>
            <path d="M416.962891,266.445312 C419.69806,303.035866 413.669293,293.232813 454.457031,290.546875 C459.407842,290.220856 464.561575,292.789517 469.318359,291.378906 C471.005383,290.878624 469.744762,287.835871 469.447266,286.101562 C468.163009,278.614753 471.67273,266.590873 464.59375,263.835937 C450.674064,258.418795 434.786458,265.820312 419.882812,266.8125 L416.962891,266.445312 Z" id="Path-1560" fill="#F7F7F1"></path>
            <path d="M254.851562,296.074219 C279.552534,283.47383 306.90431,283.701622 334.220703,284.419922 C334.405557,284.424783 372.785597,283.52483 383.119141,292.074219 C385.117794,293.727792 387.855492,296.465944 386.898438,298.876953 C386.006978,301.122714 382.222196,300.226796 379.8125,300.404297 C362.37155,301.689017 287.481802,305.952433 267.994141,305.119141 C262.74787,304.89481 250.694995,296.094622 259.167969,291.996094" id="Path-1562" fill="#F7F7F1"></path>
        </g>
        <g id="Lines" transform="translate(42.000000, 35.000000)" stroke="#979797" stroke-linecap="round" stroke-linejoin="round" stroke-width="3">
            <path d="M61.4589844,101.839844 C89.0938425,88.981623 77.1865187,92.1842183 95.9257812,88.4082031" id="Path-1041"></path>
            <path d="M62.5332031,99.8496094 C64.1367188,109.390625 65.7402344,118.931641 67.34375,128.472656" id="Path-1042"></path>
            <path d="M68.4394531,128.105469 C80.5651042,122.938802 92.6907552,117.772135 104.816406,112.605469" id="Path-1043"></path>
            <path d="M99.9199219,87.09375 C101.659505,95.5592448 103.399089,104.02474 105.138672,112.490234" id="Path-1044"></path>
            <path d="M68.3964844,102.921875 C66.7445545,110.784286 76.9276511,102.726759 69.0839844,102.033203" id="Path-1045"></path>
            <path d="M69.9628906,113.667969 C79.2617188,110.305339 88.5605469,106.942708 97.859375,103.580078" id="Path-1046"></path>
            <path d="M74.9667969,118.945312 C82.1178385,116.142578 89.2688802,113.339844 96.4199219,110.537109" id="Path-1047"></path>
            <path d="M85.4472656,98.6328125 C88.03125,97.8079427 90.6152344,96.9830729 93.1992188,96.1582031" id="Path-1048"></path>
            <path d="M324.458984,79.9433594 C323.893229,86.7272135 323.327474,93.5110677 322.761719,100.294922" id="Path-1049"></path>
            <path d="M326.285156,78.4941406 C364.402298,75.1819703 350.026764,74.3030335 369.425781,76.0976562" id="Path-1050"></path>
            <path d="M372.240234,75.9804688 C367.343889,94.9564718 364.73488,88.202533 370.220703,97.6074219" id="Path-1051"></path>
            <path d="M324.029297,99.0371094 C325.697266,100.480469 327.365234,101.923828 329.033203,103.367188" id="Path-1052"></path>
            <path d="M331.007812,102.498047 C342.647135,101.71224 354.286458,100.926432 365.925781,100.140625" id="Path-1053"></path>
            <path d="M323.492188,98.8828125 C325.861979,98.4322917 328.231771,97.9817708 330.601562,97.53125" id="Path-1054"></path>
            <path d="M329.699219,92.0410156 C340.357422,91.0234375 351.015625,90.0058594 361.673828,88.9882812" id="Path-1055"></path>
            <path d="M347.630859,95.8886719 C350.715495,95.3665365 353.80013,94.844401 356.884766,94.3222656" id="Path-1056"></path>
            <path d="M330.580078,85.7792969 C341.209635,84.9804688 351.839193,84.1816406 362.46875,83.3828125" id="Path-1057"></path>
            <path d="M326.306641,112.953125 C326.529782,150.424055 321.687086,137.327286 372.240234,130.580078" id="Path-1058"></path>
            <path d="M329.742188,112.123047 C378.797175,110.935723 374.814884,96.4356766 372.583984,126.25" id="Path-1059"></path>
            <path d="M145.919922,23.9335938 C142.704419,26.1981809 145.347146,30.8687279 148.302734,27.9335938 C153.200231,23.0699897 145.821934,23.2454975 144.652344,23.4882813" id="Path-1060"></path>
            <path d="M226.470703,48.7304688 C221.059931,59.8506596 235.654413,51.8756586 227.587891,49.1738281" id="Path-1061"></path>
            <path d="M145.167969,31.4511719 C147.053522,116.216377 146.284543,186.475436 157.171875,266.951172" id="Path-1062"></path>
            <path d="M78.2519531,124.53125 C91.6758778,274.225911 80.8819482,222.368871 94.0800781,282.646484" id="Path-1063"></path>
            <path d="M95.6679688,283.1875 C310.490862,280.525153 219.458401,282.799326 368.804688,278.181641" id="Path-1068"></path>
            <path d="M361.566406,243.46875 C362.347005,254.524089 363.127604,265.579427 363.908203,276.634766" id="Path-1069"></path>
            <path d="M325.103516,214.730469 C325.733073,223.666016 326.36263,232.601562 326.992188,241.537109" id="Path-1070"></path>
            <path d="M325.833984,214.517578 C341.903646,215.400391 357.973307,216.283203 374.042969,217.166016" id="Path-1071"></path>
            <path d="M327.056641,241.304688 C341.301432,241.227214 355.546224,241.14974 369.791016,241.072266" id="Path-1072"></path>
            <path d="M375.826172,216.160156 C375.539714,225.366536 375.253255,234.572917 374.966797,243.779297" id="Path-1073"></path>
            <path d="M325.490234,148.535156 C325.404297,165.040365 325.318359,181.545573 325.232422,198.050781" id="Path-1074"></path>
            <path d="M326.414062,147.066406 C343.00651,147.768229 361.548895,141.33614 376.191406,149.171875 C379.237187,150.801782 374.531778,196.45735 374.386719,198.148437" id="Path-1075"></path>
            <path d="M327.164062,197.083984 C342.46875,196.955078 357.773438,196.826172 373.078125,196.697266" id="Path-1076"></path>
            <path d="M286.943359,213.957031 C363.233043,206.167426 318.037199,209.690182 422.726562,206.302734" id="Path-1077"></path>
            <path d="M285.912109,198.011719 C321.778985,197.509358 308.04779,196.037072 327.335938,198.708984" id="Path-1078"></path>
            <path d="M285.503906,180.849609 C298.131582,177.69862 290.282372,179.036157 309.320312,179.013672" id="Path-1079"></path>
            <path d="M283.357422,165.078125 C305.426052,162.669259 292.421099,163.502836 322.439453,164.074219" id="Path-1080"></path>
            <path d="M148.001953,149.90625 C239.516283,146.414532 192.895771,147.341991 287.867188,147.316406" id="Path-1081"></path>
            <path d="M108.380859,273.658203 C191.731293,263.797722 272.715333,268.308127 356.605469,270.546875" id="Path-1083"></path>
            <path d="M352.546875,242.173828 C352.776042,250.298177 353.005208,258.422526 353.234375,266.546875" id="Path-1084"></path>
            <path d="M91.4589844,120.046875 C94.6158854,163.732422 97.0417875,207.47695 100.929688,251.103516 C101.676685,259.485656 101.973556,268.252224 105.353516,275.958984 C106.147788,277.770031 109.004557,274.438151 110.830078,273.677734" id="Path-1085"></path>
            <path d="M175.554688,174.994141 C175.998047,178.955729 176.441406,182.917318 176.884766,186.878906" id="Path-1086"></path>
            <path d="M175.941406,172.810547 C190.586589,172.720052 205.231771,172.629557 219.876953,172.539062" id="Path-1087"></path>
            <path d="M177.9375,186.783203 C191.251953,186.596354 204.566406,186.409505 217.880859,186.222656" id="Path-1088"></path>
            <path d="M217.494141,173.273438 C217.823568,178.317708 218.152995,183.361979 218.482422,188.40625" id="Path-1089"></path>
            <path d="M226.0625,173.949219 C226.578125,178.072917 227.09375,182.196615 227.609375,186.320312" id="Path-1090"></path>
            <path d="M227.630859,172.017578 C239.36263,172.024089 251.094401,172.030599 262.826172,172.037109" id="Path-1091"></path>
            <path d="M227.673828,187.072266 C240.064453,186.640625 252.455078,186.208984 264.845703,185.777344" id="Path-1092"></path>
            <path d="M263.578125,173.96875 C263.878906,177.570312 264.179688,181.171875 264.480469,184.773438" id="Path-1093"></path>
            <path d="M178.130859,198.398438 C178.975911,205.78125 179.820964,213.164062 180.666016,220.546875" id="Path-1094"></path>
            <path d="M179.634766,197.490234 C243.660587,193.81725 214.456952,193.420235 267.25,196.677734" id="Path-1095"></path>
            <path d="M266.992188,197.414062 C266.848958,205.060547 266.705729,212.707031 266.5625,220.353516" id="Path-1096"></path>
            <path d="M181.09375,223.503906 C210.84375,222.003255 240.59375,220.502604 270.34375,219.001953" id="Path-1097"></path>
            <path d="M182.017578,231.757812 C182.082031,233.858073 182.146484,235.958333 182.210938,238.058594" id="Path-1098"></path>
            <path d="M181.501953,233.322266 C198.009115,232.446615 214.516276,231.570964 231.023438,230.695312" id="Path-1099"></path>
            <path d="M184.037109,239.082031 C198.782552,238.444661 213.527995,237.807292 228.273438,237.169922" id="Path-1100"></path>
            <path d="M182.898438,243.875 C183.163411,245.479167 183.428385,247.083333 183.693359,248.6875" id="Path-1101"></path>
            <path d="M184.294922,249.015625 C198.188802,248.029948 212.082682,247.044271 225.976562,246.058594" id="Path-1102"></path>
            <path d="M184.251953,243.953125 C198.224609,243.154297 212.197266,242.355469 226.169922,241.556641" id="Path-1103"></path>
            <path d="M225.998047,241.478516 C225.990885,242.599609 225.983724,243.720703 225.976562,244.841797" id="Path-1104"></path>
            <path d="M227.480469,233.419922 C227.308594,234.85026 227.136719,236.280599 226.964844,237.710938" id="Path-1105"></path>
            <path d="M185.367188,254.988281 C185.28125,256.283203 185.195312,257.578125 185.109375,258.873047" id="Path-1106"></path>
            <path d="M185.474609,254.080078 C198.695964,253.178385 211.917318,252.276693 225.138672,251.375" id="Path-1107"></path>
            <path d="M185.925781,259.375 C198.595703,258.576172 211.265625,257.777344 223.935547,256.978516" id="Path-1108"></path>
            <path d="M224.623047,251.972656 C224.723307,253.531901 224.823568,255.091146 224.923828,256.650391" id="Path-1109"></path>
            <path d="M255.482422,233.167969 C238.580908,233.668642 236.418172,253.688357 249.833984,254.988281 C271.71868,257.108798 272.308348,239.164616 252.390625,234.560547" id="Path-1110"></path>
            <path d="M147.808594,157.501953 C173.105469,157.663411 198.405189,158.398633 223.699219,157.986328 C293.499023,156.848559 252.707361,153.254302 287.222656,156.904297" id="Path-1111"></path>
            <path d="M175.511719,157.212891 C175.740885,160.704427 175.970052,164.195964 176.199219,167.6875" id="Path-1112"></path>
            <path d="M176.583984,166.779297 C220.763451,164.640503 191.207924,165.59597 265.296875,166.818359" id="Path-1113"></path>
            <path d="M263.878906,155.376953 C263.929036,158.907552 263.979167,162.438151 264.029297,165.96875" id="Path-1114"></path>
            <path d="M61.0722656,191.673828 C101.999674,186.369132 73.5580681,189.608374 146.712891,185.314453" id="Path-1115"></path>
            <path d="M96.4414062,173.3125 C112.891276,172.958333 129.341146,172.604167 145.791016,172.25" id="Path-1116"></path>
            <path d="M27.0996094,163.261719 C108.253034,157.115294 68.0503586,158.072332 147.701172,160.130859" id="Path-1117"></path>
            <path d="M12.5839844,226.751953 C58.9735505,220.779782 104.009167,219.829821 150.751953,217.068359" id="Path-1118"></path>
            <path d="M72.5195312,252.785156 C127.255169,246.539293 100.327306,248.547812 153.285156,246.523438" id="Path-1119"></path>
            <path d="M109.841797,233.728516 C134.50349,231.893811 120.052581,232.397092 153.220703,233.632813" id="Path-1120"></path>
            <path d="M102.927734,202.109375 C118.661458,202.070964 134.395182,202.032552 150.128906,201.994141" id="Path-1121"></path>
            <path d="M281.402344,230.617188 C289.426432,230.263021 297.450521,229.908854 305.474609,229.554688" id="Path-1122"></path>
            <path d="M283.914062,247.179688 C322.568359,244.776693 361.222656,242.373698 399.876953,239.970703" id="Path-1123"></path>
            <path d="M285.546875,260.767578 C308.388672,259.878255 331.230469,258.988932 354.072266,258.099609" id="Path-1124"></path>
            <path d="M222.820312,282.105469 C223.385417,287.79362 223.950521,293.481771 224.515625,299.169922" id="Path-1125"></path>
            <path d="M236.927734,282.974609 C234.730693,294.4308 235.145601,288.596191 235.769531,300.484375" id="Path-1126"></path>
            <path d="M224.322266,299.306641 C217.658203,299.235677 210.980135,298.656139 204.330078,299.09375 C197.63487,299.534332 190.880477,300.186107 184.402344,301.933594 C176.512347,304.061932 156.409465,304.248243 161.488281,310.650391 L160.650391,312.332031 C161.558503,313.47676 163.033521,314.398676 164.494141,314.439453 C195.499627,315.305057 226.529085,315.364672 257.544922,315.037109 C269.265452,314.913327 280.961032,313.894457 292.654297,313.085938 C295.683024,312.876519 299.052234,313.478088 301.695312,311.984375 C302.728961,311.400217 300.464528,309.722689 299.355469,309.298828 C291.533959,306.309598 283.616824,303.217933 275.345703,301.914062 C262.919654,299.955203 250.248165,300.102671 237.679688,299.576172 C229.633572,299.239117 221.570142,299.054605 213.521484,299.324219 C211.902902,299.378438 210.386068,300.136719 208.818359,300.542969" id="Path-1127"></path>
            <path d="M164.902344,329.746094 C159.347656,340.659505 153.792969,351.572917 148.238281,362.486328" id="Path-1128"></path>
            <path d="M145.425781,367.78125 C205.17848,343.698605 271.744539,360.37868 333.585938,362.3125" id="Path-1129"></path>
            <path d="M164.966797,329.667969 C213.56535,325.12428 270.176097,324.28194 317.115234,335.505859 C323.135349,336.945368 324.353679,345.598195 328.625,350.078125 C343.233199,365.399782 351.959836,363.859272 328.130859,360.533203" id="Path-1130"></path>
            <path d="M146.691406,366.042969 C147.69401,368.58724 148.696615,371.13151 149.699219,373.675781" id="Path-1131"></path>
            <path d="M149.613281,373 C217.211406,356.686132 235.843769,361.575676 303.349609,368.574219 C315.505094,369.834416 327.713634,370.572083 339.919922,371.164062 C341.95102,371.262566 344.918873,372.366076 345.998047,370.642578 C347.44539,368.331095 345.568359,365.205078 345.353516,362.486328" id="Path-1132"></path>
            <path d="M53.4921875,191.382812 C53.9138457,199.030159 67.9899842,190.89799 54.6523438,191.654297" id="Path-1133"></path>
            <path d="M7.38671875,225.4375 C4.60603436,239.2475 18.8978107,222.919948 6.33398438,227.099609" id="Path-1134"></path>
            <path d="M23.921875,161.503906 C21.0375612,171.380496 30.9352631,162.465867 23.3847656,162.314453" id="Path-1135"></path>
            <path d="M425.947266,204.429688 C419.94289,212.032862 432.864532,209.894465 426.785156,203.984375" id="Path-1136"></path>
            <path d="M100.414062,89.5683594 C177.155399,81.651021 254.062176,78.386113 331.201172,77.4296875" id="Path-1137"></path>
            <path d="M191.423828,42.4472656 C190.522468,102.804788 188.600566,79.9557932 191.939453,111.234375" id="Path-1138"></path>
            <path d="M226.835938,54.9921875 C226.936198,73.2753906 227.036458,91.5585938 227.136719,109.841797" id="Path-1139"></path>
            <path d="M262.482422,55.3964844 C262.776042,73.6028646 263.069661,91.8092448 263.363281,110.015625" id="Path-1140"></path>
            <path d="M92.9628906,137.267578 C226.524555,127.529132 80.367869,136.345559 242.705078,133.75 C383.373352,131.500899 207.400742,129.961208 288.875,130.947266" id="Path-1141"></path>
            <path d="M106.857422,110.517578 C217.869747,106.134256 107.492827,109.290078 262.375,110.654297 C272.547696,110.743899 284.667424,103.39741 292.869141,109.416016 C298.887138,113.832159 291.695964,124.298828 291.109375,131.740234" id="Path-1142"></path>
            <path d="M157,126.482422 C157.10026,128.736979 157.200521,130.991536 157.300781,133.246094" id="Path-1143"></path>
            <path d="M164.880859,126.964844 C165.260417,128.981771 165.639974,130.998698 166.019531,133.015625" id="Path-1144"></path>
            <path d="M173.191406,128.435547 C173.177083,129.878255 173.16276,131.320964 173.148438,132.763672" id="Path-1145"></path>
            <path d="M179.957031,127.583984 C180.222005,129.458984 180.486979,131.333984 180.751953,133.208984" id="Path-1146"></path>
            <path d="M186.054688,129.59375 C186.240885,131.410807 186.427083,133.227865 186.613281,135.044922" id="Path-1147"></path>
            <path d="M191.917969,116.992188 C192.561849,122.404297 193.205729,127.816406 193.849609,133.228516" id="Path-1148"></path>
            <path d="M204.029297,127.970703 C204.086589,129.826172 204.14388,131.681641 204.201172,133.537109" id="Path-1149"></path>
            <path d="M213.5,127.892578 C213.757812,129.59375 214.015625,131.294922 214.273438,132.996094" id="Path-1150"></path>
            <path d="M224.880859,127.912109 C225.231771,129.342448 225.582682,130.772786 225.933594,132.203125" id="Path-1151"></path>
            <path d="M240.494141,127.140625 C240.779948,128.776693 241.065755,130.41276 241.351562,132.048828" id="Path-1152"></path>
            <path d="M254.085938,127.410156 C254.193359,128.492188 254.300781,129.574219 254.408203,130.65625" id="Path-1153"></path>
            <path d="M264.931641,114.558594 C265.103516,119.879557 265.275391,125.200521 265.447266,130.521484" id="Path-1154"></path>
            <path d="M279.8125,124.898438 C279.905599,126.193359 279.998698,127.488281 280.091797,128.783203" id="Path-1155"></path>
            <path d="M324.222656,281.505859 C324.630859,289.964844 325.039062,298.423828 325.447266,306.882812" id="Path-1156"></path>
            <path d="M352.998047,101.957031 C353.327474,105.036458 353.656901,108.115885 353.986328,111.195312" id="Path-1232"></path>
            <path d="M351.646484,135.373047 C352.018229,138.053385 352.389974,140.733724 352.761719,143.414062" id="Path-1233"></path>
            <path d="M353.234375,198.496094 C353.463542,201.240234 353.692708,203.984375 353.921875,206.728516" id="Path-1234"></path>
            <path d="M389.119141,32.9785156 C389.591797,33.2363281 390.064453,33.4941406 390.537109,33.7519531" id="Path-1235"></path>
            <path d="M375.417969,13.9609375 C376.65625,13.4192708 377.894531,12.8776042 379.132812,12.3359375" id="Path-1236"></path>
            <path d="M362.425781,7.46679688 C362.404297,5.06380208 362.382812,2.66080729 362.361328,0.2578125" id="Path-1237"></path>
            <path d="M394.316406,19.9707031 C398.120062,20.1632008 398.117307,20.8104554 395.689453,18.5976562" id="Path-1238"></path>
            <path d="M60.3867188,311.65625 C60.4511719,313.156901 60.515625,314.657552 60.5800781,316.158203" id="Path-1239"></path>
            <path d="M173.041016,60.0742188 C173.995544,63.4828611 176.750635,62.5613162 173.083984,59.8613281" id="Path-1240"></path>
            <path d="M168.875,34.1367188 C168.296658,43.5526984 174.735082,34.9491783 170.851563,33.4414062" id="Path-1241"></path>
            <path d="M202.976562,34.0800781 C205.454345,36.0464042 205.14393,36.2275015 203.707031,33.2871094" id="Path-1242"></path>
            <path d="M202.589844,11.8730469 C202.31961,18.3136138 208.11538,16.6604022 206.15625,12.1621094" id="Path-1243"></path>
            <path d="M429.619141,144.939453 C431.036458,144.572266 432.453776,144.205078 433.871094,143.837891" id="Path-1244"></path>
            <path d="M427.021484,132.144531 C428.639323,130.882161 430.257161,129.619792 431.875,128.357422" id="Path-1245"></path>
            <path d="M423.994141,153.037109 C424.602214,153.417318 425.210286,153.797526 425.818359,154.177734" id="Path-1246"></path>
            <path d="M408.101562,155.164062 C410.349609,155.11263 412.597656,155.061198 414.845703,155.009766" id="Path-1247"></path>
            <path d="M183.478516,203.443359 C188.410156,203.636719 193.341797,203.830078 198.273438,204.023438" id="Path-1248"></path>
            <path d="M187.708984,211.927734 C231.188391,206.968487 208.543639,208.312284 255.675781,208.488281" id="Path-1249"></path>
            <path d="M126.699219,147.568359 C131.341315,177.351511 131.365932,174.581907 133.529297,218.015625 C134.178966,231.058992 126.886092,246.23952 134,257.191406 C138.176401,263.620991 149.161458,254.898438 156.742188,253.751953" id="Path-1250"></path>
            <path d="M126.763672,152.052734 C125.869141,146.847005 124.974609,141.641276 124.080078,136.435547" id="Path-1251"></path>
            <path d="M260.357422,134.966797 C260.14974,138.523438 259.942057,142.080078 259.734375,145.636719" id="Path-1252"></path>
            <path d="M75.4179688,81.6445313 C299.42452,66.9189874 203.870708,68.4994752 361.867188,69.640625" id="Path-1039"></path>
            <path d="M74.2148438,82.0117188 C74.5084635,86.0247396 74.8020833,90.0377604 75.0957031,94.0507812" id="Path-1040"></path>
            <path d="M361.544922,69.4863281 C361.580729,72.2115885 361.616536,74.936849 361.652344,77.6621094" id="Path-1064"></path>
            <path d="M361.222656,101.144531 C361.051432,104.320964 360.880208,107.497396 360.708984,110.673828" id="Path-1065"></path>
            <path d="M358.001953,133.923828 C358.087891,136.925781 358.173828,139.927734 358.259766,142.929688" id="Path-1066"></path>
            <path d="M360.878906,194.998047 C360.707682,199.063151 360.536458,203.128255 360.365234,207.193359" id="Path-1067"></path>
            <path d="M288.552734,147.548828 C281.874803,249.893337 281.635722,208.263984 283.677734,272.34375" id="Path-1082"></path>
            <path d="M326.90625,308.505859 C343.377604,307.47526 359.848958,306.444661 376.320312,305.414062" id="Path-1157"></path>
            <path d="M374.537109,283.960938 C375.539714,291.865234 376.542318,299.769531 377.544922,307.673828" id="Path-1158"></path>
            <path d="M332.447266,284.210938 C332.210938,285.776693 331.974609,287.342448 331.738281,288.908203" id="Path-1159"></path>
            <path d="M331.996094,283.863281 C338.095052,283.00651 353.980608,276.360153 350.292969,281.292969" id="Path-1160"></path>
            <path d="M331.888672,288.521484 C357.619187,285.927804 357.609685,293.643333 353.169922,279.417969" id="Path-1161"></path>
            <path d="M333.822266,295.228516 C334.330078,297.470052 334.837891,299.711589 335.345703,301.953125" id="Path-1162"></path>
            <path d="M334.638672,294.570312 C344.53125,294.358073 354.423828,294.145833 364.316406,293.933594" id="Path-1163"></path>
            <path d="M332.275391,303.054688 C343.492188,301.630859 354.708984,300.207031 365.925781,298.783203" id="Path-1164"></path>
            <path d="M332.533203,223.330078 C332.919922,227.021484 333.306641,230.712891 333.693359,234.404297" id="Path-1165"></path>
            <path d="M330.773438,233.013672 C351.287962,229.354854 341.312281,230.119037 360.666016,230.308594" id="Path-1166"></path>
            <path d="M334.509766,223.253906 C351.885923,221.851109 367.107167,212.928503 365.646484,231.603516" id="Path-1167"></path>
            <path d="M358.603516,230.558594 C359.913411,230.578125 361.223307,230.597656 362.533203,230.617188" id="Path-1168"></path>
            <path d="M331.544922,156.652344 C333.244866,167.358003 331.574626,174.756686 352.525391,164.363281 C355.083268,163.094351 354.001685,156.927086 351.345703,155.878906 C345.75206,153.671384 339.333984,156.484375 333.328125,156.787109 L331.544922,156.652344 Z" id="Path-1169"></path>
            <path d="M365.839844,156.613281 C361.236752,158.390713 359.539282,164.648558 366.462891,163.648438 C374.726977,162.454684 368.151138,156.939036 363.414063,156.806641" id="Path-1170"></path>
            <path d="M334.230469,176.539062 C343.213542,175.811198 352.196615,175.083333 361.179688,174.355469" id="Path-1171"></path>
            <path d="M336.3125,183.013672 C345.375,183.136068 354.4375,183.258464 363.5,183.380859" id="Path-1172"></path>
            <path d="M331.308594,118.09375 C330.525771,134.294111 349.638325,120.269106 329.699219,118.810547" id="Path-1173"></path>
            <path d="M344.859375,119.332031 C358.487401,116.692836 351.980836,117.170994 364.337891,117.417969" id="Path-1174"></path>
            <path d="M344.751953,124.568359 C354.151042,123.873047 363.55013,123.177734 372.949219,122.482422" id="Path-1175"></path>
            <path d="M140.013672,76.5800781 C205.263705,27.5540833 103.411439,105.549397 180.021484,40.8046875 C217.212492,9.37380952 300.425979,4.00346826 342.455078,16.125 C354.523877,19.6057392 367.023917,27.3636771 371.316406,39.8203125 C373.412027,45.9017212 356.171643,62.9572219 368.675781,66.6269531 C381.626732,70.4278155 417.10042,69.4928941 427.773438,87.5761719 C441.178637,110.288582 407.167407,115.999343 406.40625,135.605469 C405.980155,146.580959 417.975639,174.079216 418.990234,178.357422 C422.11905,191.550581 402.310165,209.243113 400.865234,226.365234 C399.629179,241.012226 407.501128,244.020269 414.910156,255.876953 C420.492983,264.811163 418.502825,283.046368 417.9375,289.525391 C415.155962,321.403773 386.783529,347.017966 355.748047,351.566406 C346.758606,352.883864 330.101039,354.968367 322.119141,347.566406" id="Path-1176"></path>
            <path d="M81.5390625,172.384766 C40.8820193,206.293191 41.6633138,290.440964 93.7792969,315.019531 C118.024383,326.453825 138.728966,322.60312 163.550781,313.220703 C164.256266,312.954036 162.634115,312.022786 162.175781,311.423828" id="Path-1177"></path>
            <path d="M260.228516,315.019531 C292.666138,323.65251 278.869723,317.403868 302.576172,331.486328" id="Path-1178"></path>
            <path d="M168.875,332.857422 C167.529297,335.080078 166.183594,337.302734 164.837891,339.525391" id="Path-1179"></path>
            <path d="M165.224609,338.076172 C169.125651,338.443359 173.026693,338.810547 176.927734,339.177734" id="Path-1180"></path>
            <path d="M167.373047,334.113281 C177.327335,330.762333 174.095156,329.042492 178.109375,331.794922" id="Path-1181"></path>
            <path d="M175.962891,340.318359 C176.556641,337.664062 177.150391,335.009766 177.744141,332.355469" id="Path-1182"></path>
            <path d="M181.974609,329.978516 C181.473958,332.097656 180.973307,334.216797 180.472656,336.335938" id="Path-1183"></path>
            <path d="M180.451172,336.066406 C221.231161,332.669235 264.146218,327.476516 304.144531,339.525391" id="Path-1184"></path>
            <path d="M157.107422,352.996094 C155.185017,359.48109 153.253321,358.554996 156.505859,359.394531" id="Path-1185"></path>
            <path d="M155.517578,360.630859 C208.00528,349.75735 268.728411,341.094924 320.765625,359.78125" id="Path-1186"></path>
            <path d="M159.619141,352.707031 C209.581971,342.911122 255.045193,344.06842 305.324219,352.513672" id="Path-1187"></path>
            <path d="M166.449219,345.052734 C212.461213,335.365149 259.97047,337.779957 306.011719,346.308594" id="Path-1188"></path>
            <path d="M191.875,330.267578 C180.520749,340.781264 186.926209,333.98332 174.222656,352.029297" id="Path-1189"></path>
            <path d="M210.515625,330.248047 C210.014323,336.716146 209.513021,343.184245 209.011719,349.652344" id="Path-1190"></path>
            <path d="M234.996094,330.074219 C236.96317,344.839302 234.873709,337.598336 241.587891,351.701172" id="Path-1191"></path>
            <path d="M262.224609,329.011719 C272.051748,346.645774 266.276037,338.657428 279.361328,353.113281" id="Path-1192"></path>
            <path d="M294.308594,330.925781 C305.356384,349.37226 298.591728,340.946046 314.816406,356.03125" id="Path-1193"></path>
            <path d="M116.027344,79.2285156 C115.110677,76.4388021 114.19401,73.6490885 113.277344,70.859375" id="Path-1194"></path>
            <path d="M120.900391,78.6289062 C120.492839,76.0130208 120.085286,73.3971354 119.677734,70.78125" id="Path-1195"></path>
            <path d="M124.789062,77.1015625 C124.817708,74.5247396 124.846354,71.9479167 124.875,69.3710938" id="Path-1196"></path>
            <path d="M139.691406,39.5097656 C144.122396,39.2070312 148.553385,38.9042969 152.984375,38.6015625" id="Path-1197"></path>
            <path d="M143.900391,49.5019531 C146.083984,49.3216146 148.267578,49.141276 150.451172,48.9609375" id="Path-1198"></path>
            <path d="M142.375,60.5390625 C144.193359,60.313151 146.011719,60.0872396 147.830078,59.8613281" id="Path-1199"></path>
            <path d="M189.941406,39.9746094 C189.485735,47.2498164 197.19359,39.8101611 190.542969,40.8046875" id="Path-1200"></path>
            <path d="M261.96875,52.4589844 C260.158003,60.6484985 270.291753,54.2195499 262.162109,52.8457031" id="Path-1201"></path>
            <path d="M224.021484,94.8242188 C227.400391,94.2382812 230.779297,93.6523438 234.158203,93.0664062" id="Path-1202"></path>
            <path d="M223.443359,65.5449219 C225.282552,65.1647135 227.121745,64.7845052 228.960938,64.4042969" id="Path-1203"></path>
            <path d="M188.074219,78.0097656 C189.863932,78.1516927 191.653646,78.2936198 193.443359,78.4355469" id="Path-1204"></path>
            <path d="M192.111328,64.7714844 C193.149089,64.5520833 194.186849,64.3326823 195.224609,64.1132812" id="Path-1205"></path>
            <path d="M190.199219,59.8046875 C190.60026,59.4114583 191.001302,59.0182292 191.402344,58.625" id="Path-1206"></path>
            <path d="M187,54.1210938 C190.099609,54.1471354 193.199219,54.1731771 196.298828,54.1992188" id="Path-1207"></path>
            <path d="M189.0625,62.1816406 C190.458333,62.188151 191.854167,62.1946615 193.25,62.2011719" id="Path-1208"></path>
            <path d="M189.683594,93.0273438 C191.186849,93.1178385 192.690104,93.2083333 194.193359,93.2988281" id="Path-1209"></path>
            <path d="M22.8261719,223.427734 C23.1985677,225.244141 23.5709635,227.060547 23.9433594,228.876953" id="Path-1210"></path>
            <path d="M34.7675781,221.591797 C35.218099,223.176432 35.6686198,224.761068 36.1191406,226.345703" id="Path-1211"></path>
            <path d="M68.7617188,220.064453 C68.9479167,221.681641 69.1341146,223.298828 69.3203125,224.916016" id="Path-1212"></path>
            <path d="M107.652344,216.277344 C107.952474,217.764974 108.252604,219.252604 108.552734,220.740234" id="Path-1213"></path>
            <path d="M123.800781,217.029297 C124.065755,218.279297 124.330729,219.529297 124.595703,220.779297" id="Path-1214"></path>
            <path d="M71.1015625,189.933594 C71.280599,191.208984 71.4596354,192.484375 71.6386719,193.759766" id="Path-1215"></path>
            <path d="M107.544922,185.140625 C107.78776,186.513021 108.030599,187.885417 108.273438,189.257812" id="Path-1216"></path>
            <path d="M118.839844,186.28125 C119.3125,187.086589 119.785156,187.891927 120.257812,188.697266" id="Path-1217"></path>
            <path d="M49.21875,157.966797 C49.2330729,159.583984 49.2473958,161.201172 49.2617187,162.818359" id="Path-1218"></path>
            <path d="M62.5546875,157.560547 C62.9127604,159.209635 63.2708333,160.858724 63.6289062,162.507812" id="Path-1219"></path>
            <path d="M76.2773438,156.652344 C76.7714844,157.973307 77.265625,159.294271 77.7597656,160.615234" id="Path-1220"></path>
            <path d="M111.195312,157.464844 C111.52474,158.746745 111.854167,160.028646 112.183594,161.310547" id="Path-1221"></path>
            <path d="M122.253906,159.029297 C122.626302,160.072917 122.998698,161.116536 123.371094,162.160156" id="Path-1222"></path>
            <path d="M306.011719,208.121094 C306.291016,209.982422 306.570312,211.84375 306.849609,213.705078" id="Path-1223"></path>
            <path d="M354.179688,16.4335938 C374.68273,23.0611246 374.382256,26.6046388 382.011719,48.4394531" id="Path-1224"></path>
            <path d="M52.0976562,283.476562 C65.846829,306.808748 83.432872,314.204671 108.832031,321.242188" id="Path-1225"></path>
            <path d="M39.234375,294.337891 C37.0306527,303.369813 48.5754424,296.505706 38.9550781,294.783203" id="Path-1226"></path>
            <path d="M46.3632813,254.544922 C45.2556828,260.71928 52.0255744,257.140427 45.5253906,254.912109" id="Path-1227"></path>
            <path d="M6.26953125,250.910156 C-5.67644492,256.761424 4.65375162,270.434818 13.0566406,256.941406 C15.9919875,252.227808 9.3247707,252.003645 7.04296875,251.162109 L6.26953125,250.910156 Z" id="Path-1228"></path>
            <path d="M36.484375,267.609375 C37.969239,273.953794 45.5555265,266.563932 37.9238281,266.275391" id="Path-1229"></path>
            <path d="M371.337891,355.529297 C394.546994,343.126905 412.026264,331.834527 420.494141,306.089844" id="Path-1230"></path>
            <path d="M425.474609,307.519531 C424.699489,315.363222 429.58777,307.708282 426.333984,307.925781" id="Path-1231"></path>
        </g>
    </g>
</svg>