<?xml version="1.0" encoding="UTF-8"?>
<svg width="500px" height="500px" viewBox="0 0 500 500" version="1.1" xmlns="http://www.w3.org/2000/svg" xmlns:xlink="http://www.w3.org/1999/xlink">
    <!-- Generator: Sketch 48.2 (47327) - http://www.bohemiancoding.com/sketch -->
    <title>home-1-content-that-kills</title>
    <desc>Created with Sketch.</desc>
    <defs></defs>
    <g id="Icons" stroke="none" stroke-width="1" fill="none" fill-rule="evenodd">
        <g id="home-1-content-that-kills">
            <g id="Fill" transform="translate(59.000000, 98.000000)">
                <path d="M66.09375,108.798828 C79.6679931,60.5808916 93.7171806,28.592441 144.734375,7.89257813 C149.767149,5.85056593 175.156975,0.0910659848 182.894531,1.05078125 C201.021718,3.29915762 218.592907,9.11230401 236.730469,11.2753906 C246.589346,12.4511608 256.607055,11.655996 266.515625,11.0234375 C275.108415,10.4748777 283.527731,7.58897838 292.136719,7.73828125 C296.030986,7.80581825 305.506431,14.1859512 308.15625,16.9179688 C320.932681,30.0907294 334.079919,43.0070586 345.478516,57.3886719 C349.903288,62.9714081 353.255219,75.4489231 353.015625,82.9589844 C351.231551,138.880793 349.617239,182.919367 325.765625,233.363281 C318.067029,249.645087 288.572245,269.706078 280.066406,275.535156 C272.373944,280.806825 237.189781,305.686591 220.173828,298.552734 C214.410242,296.136378 210.351511,290.667999 204.755859,287.884766 C192.918877,281.997144 161.359775,275.438654 149.287109,279.496094 C134.644343,284.417305 92.3885773,315.360393 74.8984375,292.716797 C62.6189513,276.819169 71.0607501,249.33881 70.4960938,232.242187 C69.9166689,214.698406 54.1911821,210.739386 49.4082031,195.404297 C44.1614257,178.582186 49.7451585,181.957205 48.1191406,160.595703 C47.9767932,158.725641 46.407617,157.173566 45.0488281,155.880859 C41.7108979,152.705264 37.4425075,150.594524 34.1835937,147.337891 C18.9254758,132.090448 41.9929906,127.682039 54.9277344,120.587891 L66.09375,108.798828 Z" id="Path-1545" fill="#B9D7FF"></path>
                <path d="M119.082031,86.84375 C108.623698,90.8378906 98.0205297,94.4716747 87.7070313,98.8261719 C84.8847883,100.017761 80.6765763,100.521621 79.7617188,103.445312 C78.6938653,106.857947 82.4047654,110.136699 83.0683594,113.650391 C83.9459982,118.297438 84.0927161,123.057515 84.3574219,127.779297 C85.7751999,153.069406 86.5177424,178.396388 88.1152344,203.675781 C89.2954358,222.35179 77.9850968,248.054448 92.6894531,259.628906 C108.624943,272.172445 133.166548,256.949636 153.355469,255.029297 C167.384571,253.69487 185.556954,260.033283 195.316406,249.867187 C199.733854,245.26568 184.653608,185.246282 184.169922,181.353516 C180.802345,154.250843 187.365532,126.49848 186.103516,99.2714844 C185.880105,94.4515836 187.932124,86.9969297 183.527344,85.0273438 L181.25,82.3789062 C179.886179,81.7690771 178.268414,81.8503195 176.783203,82.0117188 L157.328125,85.2402344 C146.65272,86.4003408 135.910156,86.8248698 125.201172,87.6171875 L119.082031,86.84375 Z" id="Path-1547" fill="#EEEEEE"></path>
                <path d="M109.988281,63.1289062 C139.895182,56.7897135 169.656116,49.7178575 199.708984,44.1113281 C211.091795,41.9878016 227.992405,30.1806591 234.197266,39.9570312 C241.083983,50.8077364 225.865208,159.46007 225.457031,164.113281 C224.544158,174.52004 224.478854,184.998246 224.662109,195.443359 C224.75864,200.945406 229.214702,207.206684 226.294922,211.871094 C225.760162,212.725383 182.209698,221.224543 176.367188,222.017578 C155.976099,224.78537 135.338955,233.312092 115.099609,229.59375 C108.980995,228.469647 116.864201,217.147844 116.195312,210.962891 C115.308934,202.766889 111.588346,195.069665 110.482422,186.900391 C108.752082,174.118668 108.073971,161.197947 107.712891,148.304688 C105.154363,56.9462639 113.552982,120.044408 102.236328,69.2363281 C101.910621,67.7740117 101.674666,66.2272142 101.935547,64.7519531 C102.051481,64.0963563 102.837891,63.7727865 103.289063,63.2832031 L109.988281,63.1289062 Z" id="Path-1546" fill="#F7F7F1"></path>
                <path d="M48.5195312,164.90625 C53.078776,159.05013 56.0099426,151.436413 62.1972656,147.337891 C72.9631586,140.206494 92.8739077,144.889139 98.1464844,156.923828 C127.06529,222.931183 73.1875711,108.289648 93.1425781,171.669922 C93.9660339,174.285348 112.659978,182.911257 107.337891,190.919922 C102.871157,197.641452 98.0057762,203.151943 89.7070312,200.351562 C87.2651228,199.52755 84.1727699,193.151881 83.5644531,195.65625 C82.9342808,198.250596 89.6136019,198.301527 89.5566406,200.970703 C89.4642614,205.299546 82.2047118,208.36786 78.7558594,206.246094 C76.7125077,204.989005 76.3002381,201.006882 73.9023437,200.931641 C71.8107569,200.866011 72.1093884,205.200454 70.1660156,205.976562 C68.5880835,206.606728 66.8598901,203.606127 65.3339844,204.353516 C59.9752759,206.978212 56.7879368,219.033466 42.9570312,208.044922 C35.1181966,201.81703 42.9292739,198.489062 41.96875,192.001953 C41.720664,190.32645 41.8952579,188.502905 42.5917969,186.958984 L39.5859375,181.816406 C41.1060635,178.446955 46.6847165,178.134707 48.1113281,174.724609 C60.266507,145.669509 36.911196,176.462853 50.8164062,159.494141" id="Path-1549" fill="#EEEEEE"></path>
                <path d="M279.474609,164.171875 C282.261748,167.236341 289.582074,173.659212 289.71875,179.052734 C289.874304,185.191221 284.28649,191.884772 287.183594,197.298828 C291.031326,204.489403 304.344089,196.74646 304.105469,207.019531 C304.040271,209.826439 299.57437,213.388961 301.787109,215.117188 C302.339315,215.54848 317.062022,214.296706 320.449219,217.457031 C327.709134,224.230684 315.42415,229.463915 310.720703,229.748047 C306.507806,230.002545 302.073613,227.825399 298.072266,229.167969 C293.362677,230.748175 302.03551,234.418488 297.0625,235.255859 C288.485307,236.700115 275.508989,235.485023 267.40625,241.460938 C266.293026,242.28196 265.74874,244.247122 266.375,245.480469 C268.831546,250.31835 273.588794,253.7278 276.082031,258.546875 C276.922836,260.172031 276.699717,262.355185 275.974609,264.035156 C269.079269,280.010673 266.044994,270.188441 257.248047,272.404297 C255.923424,272.737955 256.573824,275.902713 255.208984,275.958984 C251.533955,276.110503 248.265115,273.230514 244.599609,272.925781 C240.466787,272.582198 233.817372,277.869356 232.208984,274.046875 L229.890625,272.287109 C228.759448,269.598762 230.159552,264.710403 226.498047,262.933594 C221.465571,260.491497 214.276854,261.721275 210.626953,257.482422 C202.282848,247.791904 197.646065,235.364978 192.630859,223.601562 C191.219869,220.292015 189.789383,215.965477 191.601562,212.857422 C201.21956,196.361672 223.292626,203.151147 236.568359,193.316406 C248.988502,184.115492 260.777995,174.092448 272.882812,164.480469 L279.474609,164.171875 Z" id="Path-1548" fill="#EEEEEE"></path>
                <path d="M197.972656,111.388672 C199.132161,121.554688 193.283656,135.723602 201.451172,141.886719 C211.171213,149.221354 228.919716,149.713163 237.980469,141.578125 C245.892085,134.474819 246.122688,115.642801 237.314453,109.6875 C226.678228,102.496284 211.917318,113.476563 199.21875,115.371094" id="Path-1550" fill="#EEEEEE"></path>
                <path d="M362.958984,8.58789062 C358.871745,15.1595052 355.315057,22.0924485 350.697266,28.3027344 C338.349881,44.9082473 324.419561,60.2997196 312.128906,76.9472656 C310.09291,79.7049983 304.954596,91.3418226 307.46875,95.5019531 C307.476365,95.5145537 317.352081,100.269068 319.408203,97.3183594 C327.275435,86.0282172 332.515908,73.0486119 340.410156,61.7773438 C350.353724,47.5800944 362.399301,34.9634107 372.794922,21.09375 C374.436393,18.9037273 377.805977,16.0907796 376.423828,13.7285156 C374.637037,10.6746681 369.751953,11.3704427 366.416016,10.1914062 L362.958984,8.58789062 Z" id="Path-1551" fill="#D8D8D8"></path>
                <path d="M6.84570313,115.988281 C20.4660647,134.421391 24.9963341,164.557187 30.5,185.5 C36.4445308,208.120412 40.2836271,228.950979 44.2539063,252 C46.8598538,267.128544 62.4238371,283.720446 44.2539063,278.666016 C42.0087681,278.041473 39.4767097,276.789678 38.5214844,274.664062 C32.4425777,261.136971 31.1970068,245.862015 27.5,231.5 C9.39454193,161.164492 26.4476057,214.215013 8.73632813,159.533203 C-4.48216424,118.722421 2.46740909,122.85407 4.37695313,121.498047 L6.84570313,115.988281 Z" id="Path-1552" fill="#D8D8D8"></path>
                <path d="M117.613281,312.976562 C119.28776,315.708333 120.96224,318.440104 122.636719,321.171875" id="Path-1573" stroke="#979797" stroke-width="3" stroke-linecap="round" stroke-linejoin="round"></path>
                <path d="M104.082031,323.027344 C108.464129,326.238839 110.426485,321.5317 104.726562,322.292969" id="Path-1574" stroke="#979797" stroke-width="3" stroke-linecap="round" stroke-linejoin="round"></path>
                <path d="M83.9375,324.535156 C81.9908854,325.798177 80.0442708,327.061198 78.0976562,328.324219" id="Path-1575" stroke="#979797" stroke-width="3" stroke-linecap="round" stroke-linejoin="round"></path>
                <path d="M69.6796875,318.464844 C68.4348958,319.44401 67.1901042,320.423177 65.9453125,321.402344" id="Path-1576" stroke="#979797" stroke-width="3" stroke-linecap="round" stroke-linejoin="round"></path>
                <path d="M104.8125,333.578125 C105.285156,335.227865 105.757812,336.877604 106.230469,338.527344" id="Path-1577" stroke="#979797" stroke-width="3" stroke-linecap="round" stroke-linejoin="round"></path>
                <path d="M346.789062,223.570313 C354.414168,227.610734 357.201347,219.000716 347.21875,220.207031" id="Path-1578" stroke="#979797" stroke-width="3" stroke-linecap="round" stroke-linejoin="round"></path>
                <path d="M357.441406,233.15625 C359.115885,233.807394 360.790365,234.458538 362.464844,235.109682" id="Path-1579" stroke="#979797" stroke-width="3" stroke-linecap="round" stroke-linejoin="round"></path>
                <path d="M358.537109,208.744141 C358.891602,209.069661 359.246094,209.395182 359.600586,209.720703" id="Path-1580" stroke="#979797" stroke-width="3" stroke-linecap="round" stroke-linejoin="round"></path>
                <path d="M358.34375,254.520508 C358.676758,255.068034 359.009766,255.61556 359.342773,256.163086" id="Path-1581" stroke="#979797" stroke-width="3" stroke-linecap="round" stroke-linejoin="round"></path>
                <path d="M381.611328,220.504883 C381.844076,220.97526 382.076823,221.445638 382.30957,221.916016" id="Path-1582" stroke="#979797" stroke-width="3" stroke-linecap="round" stroke-linejoin="round"></path>
                <path d="M380.248047,239.986328 C379.789663,246.00783 386.530531,240.331557 380.548828,239.464844" id="Path-1583" stroke="#979797" stroke-width="3" stroke-linecap="round" stroke-linejoin="round"></path>
                <path d="M395.527344,188.702148 C394.792058,193.823273 399.662919,188.769738 395.634766,188.518555" id="Path-1584" stroke="#979797" stroke-width="3" stroke-linecap="round" stroke-linejoin="round"></path>
                <path d="M359.740234,281.713867 C360.854905,287.134002 366.590409,281.525366 360.222656,280.863281" id="Path-1585" stroke="#979797" stroke-width="3" stroke-linecap="round" stroke-linejoin="round"></path>
                <path d="M400.938477,252.540039 C402.863426,259.939583 405.012949,253.229798 401.045898,252.87793" id="Path-1587" stroke="#979797" stroke-width="3" stroke-linecap="round" stroke-linejoin="round"></path>
            </g>
            <g id="Lines" transform="translate(50.000000, 70.000000)" stroke="#979797" stroke-linecap="round" stroke-linejoin="round" stroke-width="3">
                <path d="M362.177734,88.4941406 C362.701085,110.431817 364.364859,159.991348 361.146484,181.1875 C350.541203,251.033671 312.663414,305.906163 243.058594,326.238281 C215.40091,334.317309 193.587522,307.633474 166.115234,310.660156 C141.946272,313.322904 119.183244,334.86183 93.9609375,328.208984 C85.155963,325.886511 79.872904,313.228084 78.1972656,306.15625 C71.8453502,279.348739 87.5344021,265.889478 66.9882812,243.054688" id="Path-907"></path>
                <path d="M54.5117188,187.294922 C52.2285156,185.626302 49.6675859,184.282896 47.6621094,182.289062 C23.4954372,158.26269 55.7565643,151.208151 71.7988281,143.132812 C75.9290388,141.053751 75.940634,133.05956 76.4375,130.222656" id="Path-908"></path>
                <path d="M376.029297,42.6699219 C360.142303,72.4850351 337.734359,98.4543045 319.765625,127.265625" id="Path-916"></path>
                <path d="M57.9042969,202.931641 C57.8971354,207.550781 59.5249662,212.471674 57.8828125,216.789062 C56.7568981,219.749205 48.4607667,216.403796 48.4980469,214.294922 C48.6748116,204.29566 60.3355479,206.344537 64.2402344,202.177734 C74.9415082,190.758099 67.6446354,182.788348 88.140625,184.666016" id="Path-917"></path>
                <path d="M57.2597656,201.539063 C56.9446615,199.142578 54.7426112,196.185839 56.3144531,194.349609 C60.2450791,189.757841 66.7434134,188.20703 71.6699219,184.705078 C85.6141244,174.793001 102.964468,168.180432 104.955078,194.697266 C105.697998,204.593666 85.3148054,203.87405 81.5273438,202.640625 C75.8009612,200.775772 74.8025657,189.181444 83.3515625,196.630859" id="Path-918"></path>
                <path d="M80.4550781,203.355469 C75.7328468,214.769455 83.9679309,220.284717 87.4140625,208.341797" id="Path-919"></path>
                <path d="M88.9355469,210.642578 C90.9287752,209.189734 102.680629,197.975091 100.015625,207.666016" id="Path-920"></path>
                <path d="M89.3007812,214.449219 C93.507005,211.324016 98.4321955,205.592671 104.783203,207.085938 C114.716937,209.421584 116.969773,225.869519 106.373047,229.197266 C92.3499155,233.601024 98.7783344,221.286226 87.3027344,222.392578" id="Path-921"></path>
                <path d="M83.8671875,225.873047 C89.2675863,244.992891 96.4786576,231.383133 93.5957031,225.640625" id="Path-922"></path>
                <path d="M85.0058594,229.099609 C79.9261931,229.099609 82.1122372,238.281962 75.2558594,230.492188" id="Path-923"></path>
                <path d="M77.1679688,228.037109 C54.8059651,231.767032 60.191753,222.926502 65.2265625,205.462891" id="Path-924"></path>
                <path d="M60.5253906,222.992188 C47.5793156,230.506482 42.5947777,235.312917 61.1035156,237.777344 C63.7653322,238.131763 66.2334852,240.345882 68.8789062,239.884766 C69.220005,239.82531 70.5224555,236.761195 75.4921875,232.482422 C76.276027,231.807562 76.3229167,230.587891 76.7382812,229.640625" id="Path-925"></path>
                <path d="M68.6640625,186.560547 C71.8582059,174.844203 68.0451302,178.125003 80.96875,177.824219" id="Path-926"></path>
                <path d="M54.640625,217.484375 C52.6851594,226.80839 50.1675522,225.227462 56.3359375,226.240234" id="Path-927"></path>
                <path d="M112.0625,114.568359 C118.183462,163.44572 118.837651,211.725958 127.332031,260.390625" id="Path-928"></path>
                <path d="M126.730469,90.4472656 C176.161903,76.345031 138.783174,86.0515704 241.167969,72.3769531" id="Path-929"></path>
                <path d="M242.435547,72.7636719 C241.51237,93.8554688 240.589193,114.947266 239.666016,136.039062" id="Path-930"></path>
                <path d="M236.980469,174.964844 C236.286458,191.966146 235.592448,208.967448 234.898438,225.96875" id="Path-931"></path>
                <path d="M126.816406,259.541016 C153.543243,255.544461 180.157758,254.011009 206.808594,249.548828" id="Path-932"></path>
                <path d="M288.433594,194.080078 C280.13737,199.027344 271.388329,203.284169 263.544922,208.921875 C247.064891,220.767438 259.801959,217.495995 244.798828,224.732422 C241.936172,226.11316 238.91842,227.327081 235.779297,227.824219 C230.019841,228.736334 223.187994,225.715024 218.320313,228.925781 C194.160605,244.861692 205.592576,245.103636 211.726563,258.806641 C221.333698,280.26848 216.300004,287.360636 237.109375,289.980469" id="Path-933"></path>
                <path d="M230.044922,278.693359 C252.820351,301.167026 227.179198,272.688592 241.082031,298.619141 C241.827289,300.009141 244.019448,299.927377 245.591797,300.050781 C250.394772,300.427737 255.315367,299.189827 260.044922,300.107422 C262.439438,300.571989 264.34762,305.627122 266.208984,304.050781 C266.975649,303.401513 266.629922,292.771392 263.824219,291.0625 C244.593888,279.34973 234.577209,285.252134 237.044922,258.689453 C237.305062,255.889281 240.524089,254.270182 242.263672,252.060547" id="Path-934"></path>
                <path d="M268.763672,300.533203 C275.440089,305.659434 284.969976,301.15663 284.009766,291.816406 C283.544617,287.291783 266.905076,296.571972 274.455078,288.164062 C283.32128,278.290393 288.452454,287.967176 283.023438,296.068359" id="Path-935"></path>
                <path d="M279.199219,283.041016 C276.994792,279.607422 274.790365,276.173828 272.585938,272.740234" id="Path-936"></path>
                <path d="M242.951172,252.3125 C243.051432,255.230469 241.699779,258.593483 243.251953,261.066406 C245.24674,264.2445 249.771162,264.914055 252.486328,267.503906 C256.047696,270.900903 258.423047,275.397932 261.914063,278.867188 C263.083651,280.029486 265.034453,282.293101 266.273438,281.205078 C276.09736,272.578132 274.583137,261.757963 290.839844,261.125 C296.559539,260.902301 308.180238,267.946967 307.976563,262.226562 C307.724905,255.158547 295.775349,254.921366 290.453125,250.263672 C285.843356,246.229477 282.436198,240.999349 278.427734,236.367188" id="Path-937"></path>
                <path d="M300.630859,256.060547 C308.878097,255.210224 326.036309,262.348254 331.017578,251.09375 C332.343036,248.099056 326.095896,246.333954 322.921875,245.527344 C313.163129,243.047365 298.866324,248.448676 292.964844,236.753906 C291.99433,234.83067 292.457579,232.322758 291.291016,230.511719 C290.282838,228.946567 288.298828,228.295573 286.802734,227.1875" id="Path-938"></path>
                <path d="M308.384766,245.566406 C327.436276,222.138409 291.666422,238.647019 278.578125,216.34375 C278.306698,215.881221 279.622396,216.588542 280.144531,216.710937" id="Path-939"></path>
                <path d="M294.447266,226.433594 C296.308875,216.895599 302.692526,199.555954 288.949219,196.320312" id="Path-940"></path>
                <path d="M235.048828,243.09375 C229.992111,253.806795 225.640109,268.480875 236.550781,276.548828" id="Path-941"></path>
                <path d="M254.074219,255.326172 C263.580213,241.96673 252.120468,255.871163 271.382812,242.996094 C274.621689,240.831208 264.717859,235.963103 270.673828,224.90625" id="Path-942"></path>
                <path d="M264.833984,222.972656 C260.259432,224.981196 250.666751,234.754242 259.894531,237.816406" id="Path-943"></path>
                <path d="M71.9707031,314.990234 C79.6823437,332.628341 92.8227089,346.98658 113.630859,336.443359" id="Path-944"></path>
                <path d="M223.494141,342.839844 C243.16872,335.11548 265.428101,335.400145 284.267578,326.103516 C310.839472,312.991206 312.135734,308.910118 333.101562,289.167969" id="Path-945"></path>
                <path d="M303.595703,327.513672 C331.09509,308.697627 338.136765,298.988087 353.630859,268.875" id="Path-946"></path>
                <path d="M269.6875,43.4628906 C268.999121,30.546851 267.003282,35.3155543 271.791016,28.0976562" id="Path-947"></path>
                <path d="M274.261719,42.8066406 C274.081965,35.178012 273.219536,38.9149156 277.375,31.7304688" id="Path-948"></path>
                <path d="M285.621094,45.046875 C284.999863,36.1950838 284.042295,40.7819757 290.710938,31.9433594" id="Path-949"></path>
                <path d="M231.269531,14.6464844 C233.266276,14.7363281 235.263021,14.8261719 237.259766,14.9160156" id="Path-950"></path>
                <path d="M256.695312,35.0546875 C257.861979,34.764974 259.028646,34.4752604 260.195312,34.1855469" id="Path-951"></path>
                <path d="M306.902344,21.0234375 C309.99658,22.5341945 311.555796,21.4524896 307.589844,20.9082031" id="Path-952"></path>
                <path d="M356.980469,176.742188 C367.416391,178.64707 363.174016,179.216671 369.800781,177.476562" id="Path-953"></path>
                <path d="M351.591797,191.160156 C357.404297,190.799479 363.216797,190.438802 369.029297,190.078125" id="Path-954"></path>
                <path d="M353.072266,212.556641 C362.76027,210.810957 358.207513,212.77702 366.494141,206.138672" id="Path-955"></path>
                <path d="M160.230469,312.882812 C160.538411,315.440755 160.846354,317.998698 161.154297,320.556641" id="Path-956"></path>
                <path d="M166.265625,310.410156 C166.673828,313.341146 167.082031,316.272135 167.490234,319.203125" id="Path-957"></path>
                <path d="M178.333984,312.496094 C178.326823,317.604818 178.319661,322.713542 178.3125,327.822266" id="Path-958"></path>
                <path d="M7.05273438,151.869141 C12.2308448,162.507137 23.8469459,209.339357 25.4355469,211.357422 C28.3808898,215.099011 34.9651232,210.620545 39.6074219,209.560547 C40.1125666,209.445205 38.9641927,208.748047 38.6425781,208.341797" id="Path-960"></path>
                <path d="M14.7617188,144.542969 C23.9821676,165.50682 27.3623221,188.516758 38.2773438,208.671875" id="Path-961"></path>
                <path d="M9.13671875,157.048828 C-7.25102991,167.391596 13.5906244,193.039256 17.8320312,207.240234" id="Path-962"></path>
                <path d="M211.447266,140.214844 C239.408913,140.214844 225.001283,140.934168 254.654297,137.759766" id="Path-988"></path>
                <path d="M210.996094,141.335938 C210.860026,152.403646 210.723958,163.471354 210.587891,174.539062" id="Path-989"></path>
                <path d="M211.210938,174.558594 C224.604167,174.101562 237.997396,173.644531 251.390625,173.1875" id="Path-990"></path>
                <path d="M254.460938,139.326172 C253.752604,150.658203 253.044271,161.990234 252.335938,173.322266" id="Path-991"></path>
                <path d="M219.285156,144.96875 C224.289062,144.492188 229.292969,144.015625 234.296875,143.539062" id="Path-992"></path>
                <path d="M218.191406,151.056641 C223.767578,150.599609 229.34375,150.142578 234.919922,149.685547" id="Path-993"></path>
                <path d="M217.976562,157.511719 C222.64388,157.195964 227.311198,156.880208 231.978516,156.564453" id="Path-994"></path>
                <path d="M219.435547,165.050781 C223.315755,164.998698 227.195964,164.946615 231.076172,164.894531" id="Path-995"></path>
                <path d="M237.839844,147.443359 C241.519531,147.24349 245.199219,147.04362 248.878906,146.84375" id="Path-996"></path>
                <path d="M240.224609,154.1875 C242.600911,154.284505 244.977214,154.38151 247.353516,154.478516" id="Path-997"></path>
                <path d="M79.9667969,91.7597656 C91.8270462,62.7804342 91.6897292,61.2679236 115.9375,41.9550781" id="Path-1038"></path>
                <path d="M87.4746094,95.6074219 C92.9147135,86.8847656 97.148905,77.2822795 103.794922,69.4394531 C125.218924,44.1574329 168.634299,26.6231516 201.054688,31.2285156 C267.471497,40.6631214 209.228758,37.6983264 266.679688,43.328125 C272.194913,43.8685794 277.78639,44.1070339 283.302734,43.578125 C289.339839,42.9992855 295.230118,38.6899074 301.146484,40.0234375 C311.714642,42.4054666 328.479346,57.6307622 336.923828,64.6269531" id="Path-906"></path>
                <path d="M379.894531,19.9414062 C370.28608,40.258738 371.105306,40.780833 354.189453,62.2304688 C347.941916,70.1524693 329.567047,98.5726148 318,117.5 C315.188814,122.099998 315.240951,124.147164 324,128 C328.272225,129.87922 335.462963,110.917501 338,107 C360.759248,71.856887 375.098169,59.1600213 392.607422,24.7148437 C397.306085,15.4713716 367.307955,25.2900335 380.625,3.20507812 C382.383907,0.288110745 397.458859,-1.08414294 400.509766,1.1171875 C402.304656,2.41226047 402.637881,5.58272955 401.798828,7.63085937 C399.46732,13.3220774 394.969401,17.8613281 391.554688,22.9765625" id="Path-909"></path>
                <path d="M389.279297,2.02539062 C380.575674,13.2543796 383.477727,7.42070631 379.679688,19.0527344" id="Path-910"></path>
                <path d="M316.308594,120.423828 C296.09205,168.74819 305.803231,151.069495 324.554688,129.160156" id="Path-911"></path>
                <path d="M307.847656,139.035156 C311.951696,144.955503 309.237459,143.857552 315.169922,143.886719" id="Path-912"></path>
                <path d="M371.541016,38.84375 C378.273738,45.0413135 374.654529,43.5971687 381.613281,44.7773438" id="Path-913"></path>
                <path d="M376.738281,29.0449219 C383.910789,34.6036155 380.500824,34.3341115 385.822266,33.8183594" id="Path-914"></path>
                <path d="M378.798828,25.953125 C384.139262,31.2059286 381.017985,30.1123663 387.904297,29.8945312" id="Path-915"></path>
                <path d="M0.587890625,154.574219 C5.54166667,150.876302 10.4954427,147.178385 15.4492188,143.480469" id="Path-959"></path>
                <path d="M27.0234375,212.400391 C36.3042794,260.337118 30.8049798,235.862355 43.7734375,285.767578" id="Path-963"></path>
                <path d="M37.6542969,211.029297 C43.4954427,235.742188 49.3365885,260.455078 55.1777344,285.167969" id="Path-964"></path>
                <path d="M44.6328125,285.630859 C47.6536458,285.373698 50.6744792,285.116536 53.6953125,284.859375" id="Path-965"></path>
                <path d="M42.5507812,285.960938 C47.9192686,301.086726 66.4471794,335.054616 52.6855469,283.853516" id="Path-966"></path>
                <path d="M24.9199219,239.556641 C26.4876302,239.009115 28.0553385,238.461589 29.6230469,237.914062" id="Path-967"></path>
                <path d="M28.4628906,244.658203 C29.8730469,243.994792 31.2832031,243.33138 32.6933594,242.667969" id="Path-968"></path>
                <path d="M29.6875,252.542969 C31.8489583,251.924479 34.0104167,251.30599 36.171875,250.6875" id="Path-969"></path>
                <path d="M130.123047,115.919922 C130.903646,120.403646 129.615844,125.821965 132.464844,129.371094 C141.066438,140.086492 151.214998,110.037778 130.982422,118.626953" id="Path-970"></path>
                <path d="M223.902344,89.4609375 C222.986328,90.5110677 221.727199,91.3410363 221.154297,92.6113281 C215.222843,105.763103 238.569293,89.7439693 222.765625,91.3359375" id="Path-971"></path>
                <path d="M227.853516,110.837891 C225.29164,122.848034 236.832535,112.022417 228.798828,110.064453" id="Path-972"></path>
                <path d="M127.138672,141.007812 C180.759946,131.049999 150.564868,135.340041 217.998047,130.242188" id="Path-973"></path>
                <path d="M141.119141,147.617188 C161.476562,144.898438 181.833984,142.179688 202.191406,139.460938" id="Path-974"></path>
                <path d="M147.603516,158.208984 C184.308198,157.493837 165.569602,158.699951 203.802734,154.341797" id="Path-975"></path>
                <path d="M136.222656,181.033203 C149.163612,180.900322 142.515138,181.634124 156.128906,178.501953" id="Path-976"></path>
                <path d="M139.59375,186.908203 C144.432943,186.386719 149.272135,185.865234 154.111328,185.34375" id="Path-977"></path>
                <path d="M138.21875,195.529297 C153.924237,195.707845 147.50942,197.14577 157.847656,193.615234" id="Path-978"></path>
                <path d="M174.769531,178.191406 C178.921224,178.179036 183.072917,178.166667 187.224609,178.154297" id="Path-979"></path>
                <path d="M171.957031,187.507812 C176.788411,187.102214 181.619792,186.696615 186.451172,186.291016" id="Path-980"></path>
                <path d="M173.652344,199.046875 C178.21224,198.492839 182.772135,197.938802 187.332031,197.384766" id="Path-981"></path>
                <path d="M212.736328,185.517578 C215.814453,185.072917 218.892578,184.628255 221.970703,184.183594" id="Path-982"></path>
                <path d="M213.789062,193.441406 C216.83138,193.145182 219.873698,192.848958 222.916016,192.552734" id="Path-983"></path>
                <path d="M143.566406,222.103516 C165.578125,219.320312 187.589844,216.537109 209.601562,213.753906" id="Path-984"></path>
                <path d="M145.070312,231.476562 C178.971807,230.998182 156.915646,231.866066 211.060547,225.96875" id="Path-985"></path>
                <path d="M112.449219,122.027344 C79.5594181,131.612201 89.9115077,141.986317 93.4882813,174.132812" id="Path-986"></path>
                <path d="M96.4941406,231.457031 C98.3697917,247.376302 99.8393012,263.348695 102.121094,279.214844 C102.663501,282.986403 101.168686,289.86233 104.955078,290.289062 C120.48387,292.039183 135.93049,285.977753 151.511719,284.78125 C161.804748,283.990835 172.209741,285.395873 182.478516,284.335938 C189.659027,283.59477 198.079105,284.098469 203.566406,279.408203 C206.049639,277.285662 202.968425,251.125558 202.878906,250.126953" id="Path-987"></path>
                <path d="M67.9335938,107.533203 C79.422526,103.106771 90.7859227,98.3396133 102.400391,94.2539062 C108.931471,91.9564199 116.065537,85.446583 122.328125,88.3984375 C127.956817,91.0515066 132.624501,102.276338 127.826172,106.238281 C113.190945,118.322475 92.9979546,121.460134 74.9980469,127.478516 C73.2832857,128.051857 70.5764223,127.283578 69.9082031,125.603516 C67.9360299,120.645002 68.5917969,115.01237 67.9335938,109.716797" id="Path-998"></path>
                <path d="M69.6289062,123.535156 C87.6393229,116.126302 105.64974,108.717448 123.660156,101.308594" id="Path-999"></path>
                <path d="M79.5507812,103.589844 C79.5292969,108.621094 79.5078125,113.652344 79.4863281,118.683594" id="Path-1000"></path>
                <path d="M80.0664062,119.050781 C82.0351562,120.951172 84.0039062,122.851562 85.9726562,124.751953" id="Path-1001"></path>
                <path d="M112.75,91.375 C113.287109,95.375651 113.824219,99.3763021 114.361328,103.376953" id="Path-1002"></path>
                <path d="M113.244141,106.025391 C114.61849,108.653646 115.992839,111.281901 117.367188,113.910156" id="Path-1003"></path>
                <path d="M89.515625,105.271484 C89.9589844,108.460286 90.4023438,111.649089 90.8457031,114.837891" id="Path-1004"></path>
                <path d="M93.7460938,102.216797 C94.1751302,106.404297 94.6041667,110.591797 95.0332031,114.779297" id="Path-1005"></path>
                <path d="M98.1269531,97.9082031 C98.4772135,102.063151 98.827474,106.218099 99.1777344,110.373047" id="Path-1006"></path>
                <path d="M60.4609375,110.740234 C62.9876302,110.405599 65.5143229,110.070964 68.0410156,109.736328" id="Path-1007"></path>
                <path d="M68.9863281,118.644531 C64.5224042,121.161028 65.6896517,119.391363 64.4765625,123.128906" id="Path-1008"></path>
                <path d="M64.7773438,145.509766 C62.5669543,143.531185 56.3300976,139.556442 59.4941406,136.078125" id="Path-1009"></path>
                <path d="M54.9199219,151.675781 C52.2786458,149.607422 49.6373698,147.539062 46.9960938,145.470703" id="Path-1010"></path>
                <path d="M9.45703125,157.53125 C11.0104167,154.535807 12.5638021,151.540365 14.1171875,148.544922" id="Path-1011"></path>
                <path d="M14.3105469,164.083984 C15.6992188,160.404948 17.0878906,156.725911 18.4765625,153.046875" id="Path-1012"></path>
                <path d="M16.5664062,172.857422 C18.0195312,168.818359 19.4726562,164.779297 20.9257812,160.740234" id="Path-1013"></path>
                <path d="M18.0253906,182 C19.8867188,177.271484 21.7480469,172.542969 23.609375,167.814453" id="Path-1014"></path>
                <path d="M20.5175781,190.232422 C22.343099,185.259115 24.1686198,180.285807 25.9941406,175.3125" id="Path-1015"></path>
                <path d="M23.0722656,200.283203 C25.141276,194.890625 27.2102865,189.498047 29.2792969,184.105469" id="Path-1016"></path>
                <path d="M26.3359375,205.462891 C28.1328125,200.109375 29.9296875,194.755859 31.7265625,189.402344" id="Path-1017"></path>
                <path d="M29,212.091797 C30.2311198,207.717448 31.4622396,203.343099 32.6933594,198.96875" id="Path-1018"></path>
                <path d="M33.6386719,210.353516 C34.8053385,206.958333 35.9720052,203.563151 37.1386719,200.167969" id="Path-1019"></path>
                <path d="M261.398438,103.957031 C264.409563,107.607656 265.822948,105.575714 265.027344,101.482422" id="Path-1020"></path>
                <path d="M269.236328,86.5429688 C275.006575,86.4745198 274.147396,88.1307306 274.21875,83.9921875" id="Path-1021"></path>
                <path d="M184.882812,53.9003906 C188.53637,55.1340594 187.825912,55.8668839 187.525391,52.3535156" id="Path-1022"></path>
                <path d="M218.986328,57.0683594 C220.140453,63.8015505 225.063962,55.8540279 221.519531,55.5234375" id="Path-1023"></path>
                <path d="M246.988281,57.03125 C245.617229,62.1113186 248.842717,59.0194254 247.869141,57.0878906" id="Path-1024"></path>
                <path d="M278.964844,67.9121094 C279.93099,68.3886719 280.897135,68.8652344 281.863281,69.3417969" id="Path-1025"></path>
                <path d="M298.849609,78 C304.544377,72.8123891 306.263226,72.6228956 302.005859,73.8828125" id="Path-1026"></path>
                <path d="M283.708984,50.4980469 C284.66862,51.1230469 285.628255,51.7480469 286.587891,52.3730469" id="Path-1027"></path>
                <path d="M338.707031,130.455078 C338.721354,135.10612 338.735677,139.757161 338.75,144.408203" id="Path-1028"></path>
                <path d="M344.224609,128.830078 C344.47526,129.938151 344.725911,131.046224 344.976562,132.154297" id="Path-1029"></path>
                <path d="M103.558594,240.753906 C106.536458,240.251302 109.514323,239.748698 112.492188,239.246094" id="Path-1030"></path>
                <path d="M105.255859,246.552734 C107.482422,246.25 109.708984,245.947266 111.935547,245.644531" id="Path-1031"></path>
                <path d="M108.154297,255.693359 C109.879557,255.184896 111.604818,254.676432 113.330078,254.167969" id="Path-1032"></path>
                <path d="M98.8574219,152.525391 C101.484375,152.261719 104.111328,151.998047 106.738281,151.734375" id="Path-1033"></path>
                <path d="M101.025391,157.298828 C102.836589,157.054036 104.647786,156.809245 106.458984,156.564453" id="Path-1034"></path>
                <path d="M101.648438,166.712891 C104.647786,166.351562 107.647135,165.990234 110.646484,165.628906" id="Path-1035"></path>
                <path d="M116.744141,273.011719 C142.970704,269.773454 161.892284,266.062022 187.117188,266.576172 C187.811437,266.590323 188.16276,267.490234 188.685547,267.947266" id="Path-1036"></path>
                <path d="M132.572266,94.5449219 C207.991949,85.8027675 174.046613,88.5983947 234.296875,84.9003906" id="Path-1037"></path>
            </g>
        </g>
    </g>
</svg>