<?xml version="1.0" encoding="utf-8"?>
<!-- Generator: Adobe Illustrator 21.0.2, SVG Export Plug-In . SVG Version: 6.00 Build 0)  -->
<svg version="1.1" id="Layer_1" xmlns="http://www.w3.org/2000/svg" xmlns:xlink="http://www.w3.org/1999/xlink" x="0px" y="0px"
	 viewBox="0 0 50 50" style="enable-background:new 0 0 50 50;" xml:space="preserve">
<style type="text/css">
	.st0{fill:#FFFFFF;}
</style>
<title>icon-phone</title>
<path class="st0" d="M1.8,15.2c0-2.5,0.6-5,1.7-7.3c0.6-1.2,1.3-2.5,2.4-3.4c1.4-1.3,2.8-2.6,4.2-3.7c1.5-1.2,3.1-0.9,4.5,0.4
	c1.5,1.4,2.6,3.2,3.7,4.9c0.6,1,1.2,2,1.6,3.1c1,2.5,0.6,4.7-1.6,6.5c-1,0.8-2,1.5-3,2.4c-1,0.9-1.4,2-1.2,3.4
	c0.3,2.2,1.5,4,2.8,5.8c1.6,2.2,3.4,4.3,5.4,6.2c1.2,1.1,2.5,2.2,3.9,2.9c1.1,0.5,2.2,0.8,3.4,0.5c0.6-0.2,1.1-0.6,1.6-1
	c1.2-1,2.4-2.2,3.6-3.2c1.5-1.1,3.2-1.1,4.8-0.3c1.6,0.7,3,1.8,4.3,2.9c0.8,0.8,1.7,1.4,2.5,2.2c0.9,0.9,1.7,1.8,2,3.1
	c0.3,1.1,0,2.1-0.8,2.8c-1.4,1.4-2.9,2.7-4.5,3.9c-1.9,1.4-4.1,2.2-6.4,2.4c-1,0.1-1.9,0.2-2.9,0.2c-2.1-0.1-4.2-0.6-6.2-1.3
	c-2.2-0.8-4.2-1.9-6.1-3.3c-1.2-0.9-2.4-1.8-3.6-2.8c-1.1-1-2.2-2-3.3-3.1c-1.6-1.7-3.1-3.4-4.5-5.2c-1.4-1.8-2.8-3.8-4-5.7
	c-1.8-2.8-3.1-5.9-3.8-9.2C2,18,1.9,16.6,1.8,15.2z"/>
</svg>
