<?xml version="1.0" encoding="UTF-8"?>
<svg width="200px" height="200px" viewBox="0 0 200 200" version="1.1" xmlns="http://www.w3.org/2000/svg" xmlns:xlink="http://www.w3.org/1999/xlink">
    <!-- Generator: Sketch 48.2 (47327) - http://www.bohemiancoding.com/sketch -->
    <title>icon-coffee-cup</title>
    <desc>Created with Sketch.</desc>
    <defs></defs>
    <g id="Icons" stroke="none" stroke-width="1" fill="none" fill-rule="evenodd">
        <g id="icon-coffee-cup">
            <g transform="translate(45.000000, 56.000000)">
                <path d="M21.5,51 C29.1666667,69.6666667 40.8333333,78.3333333 56.5,77 C80,75 98,52 97,48.5 C96,45 76,39.5 69.5,44 C63,48.5 46.5,53 32.5,48.5 C23.1666667,45.5 19.5,46.3333333 21.5,51 Z" id="Path-163" fill="#959595"></path>
                <path d="M47.5,5 C41.5,10 43.5,13.5 40.5,15 C37.5,16.5 33.5,17.5 31,19.5 C28.5,21.5 38,22 34.5,24.5 C31,27 24.5,22 25.5,27 C26.5,32 29,37 31,38.5 C33,40 29,41 30,43.5 C31,46 33,60 50.5,53.5 C68,47 84,44.5 85,43.5 C86,42.5 82.5,39.8973601 83,35 C83.5,30.1026399 88,32 87,27 C86,22 86,24.5 81,22 C76,19.5 77,20.5 77.5,16.5 C78,12.5 78,14 73,12.5 C68,11 72.5,12 69.5,8.5 C66.5,5 67,7 61,8.5 C55,10 50.7294238,12.5 53.5,7 C56.2705762,1.5 57.5,-1 53.5,3 C49.5,7 53.5,-1.02140518e-14 47.5,5 Z" id="Path-164" fill="#ECECEC"></path>
                <path d="M21.5,48.5327419 C24.1666667,43.3375584 30.1666667,43.8630506 39.5,50.1092186 C53.5,59.4784706 65.5,40.7399666 68,38.5778316 C70.5,36.4156965 85.5,37.0773096 89,40.7399666 C91.3333333,43.181738 93.3333333,46.304822 95,50.1092186 C81.6666667,43.1205947 73.8333333,41.1332014 71.5,44.147039 C68,48.6677953 59.5,61.6406057 53,59.4784706 C46.5,57.3163356 24.5,50.1092186 23,55.1542005 C22,58.5175217 21.5,56.3103689 21.5,48.5327419 Z" id="Path-2" fill="#C4C3C3"></path>
                <path d="M18.2412109,40.5869141 C50.5694798,33.5325816 24.6053619,38.649124 97.4287109,34.9150391" id="Path-131" stroke="#4A4A4A" stroke-width="2" stroke-linecap="round" stroke-linejoin="round"></path>
                <path d="M18.6708984,40.7900391 C22.3198844,60.7122778 34.0247264,77.9124218 57.2714844,76.1972656 C74.3291559,74.938743 103.254867,54.8628819 96.8173828,34.7119141" id="Path-132" stroke="#4A4A4A" stroke-width="2" stroke-linecap="round" stroke-linejoin="round"></path>
                <path d="M20,40.5 C1,40.5 -13.5,55.5 22,54.5" id="Path-133" stroke="#4A4A4A" stroke-width="2" stroke-linecap="round" stroke-linejoin="round"></path>
                <path d="M18.8857422,45.7709258 C1.5,44 4.5,53.5 20.5,50.5" id="Path-134" stroke="#4A4A4A" stroke-width="2" stroke-linecap="round" stroke-linejoin="round"></path>
                <path d="M31.0185547,37.6787109 C29.7981771,36.0582682 28.1582601,34.6811999 27.3574219,32.8173828 C23.0935212,22.893866 34.3060606,28.586186 34.4335937,26.0048828 C34.5238558,24.177956 28.7646272,24.3904868 29.8808594,22.9414063 L29.6552734,21.0185547 C49.3979642,-4.61119193 20.9111318,34.3911987 40.6181641,16.1767578 C41.7701239,15.1120463 39.6518465,12.9009207 40.3173828,11.4804688 C41.8908066,8.12231567 48.8887267,1.52160785 53.0732422,8.40722656 C54.2763529,10.3869448 49.9506579,17.0794504 50.3349609,14.7949219 C51.0580593,10.4963898 52.9240871,2.40314083 58.1523437,0.155273438 C58.9216717,-0.17549593 59.8302967,0.806692599 60.2568359,1.52734375 C60.809334,2.46080621 59.9772761,4.09159085 60.8574219,4.72558594 L55.6611328,12.0703125 C58.9005931,14.4037919 68.3573149,0.400241646 73.4208984,8.91992188 C75.1874153,11.8921566 73.767286,13.6760719 70.9941406,15.4042969 C69.4160052,16.3877913 63.9889383,17.9027551 65.7539062,17.3173828 C70.2831006,15.8152224 77.164298,11.5532088 82.4072266,15.1621094 C83.4208956,15.859855 83.0671273,17.8509528 82.3535156,18.8535156 C81.1357433,20.5643806 76.2399559,20.6099287 77.2001953,22.4775391 C78.2230712,24.4669737 81.6925033,21.347272 83.8789062,21.8203125 C91.9611346,23.5689477 83.1770119,34.0679309 79.9052734,35.6396484" id="Path-135" stroke="#4A4A4A" stroke-width="2" stroke-linecap="round" stroke-linejoin="round"></path>
                <path d="M21.9892578,50.328125 C34.3828386,39.5851034 39.2567216,56.9017161 51.6347656,52.9853516 C61.4652359,49.8750294 62.7154683,43.1128229 73.0664062,43.6601563 C120.330076,46.1593484 73.9482238,47.9845703 96.8925781,46.8105469" id="Path-136" stroke="#4A4A4A" stroke-width="2" stroke-linecap="round" stroke-linejoin="round"></path>
                <path d="M30.75,38.6933594 C29.0046678,45.0781677 28.2190954,42.593605 30.7392578,46.5107422" id="Path-137" stroke="#4A4A4A" stroke-width="2" stroke-linecap="round" stroke-linejoin="round"></path>
                <path d="M82.9765625,36.0449219 C84.4594466,43.0742077 85.2222186,40.2279373 82.6220703,44.8779297" id="Path-138" stroke="#4A4A4A" stroke-width="2" stroke-linecap="round" stroke-linejoin="round"></path>
                <path d="M74.9560547,57.8652344 C72.4139971,65.3989686 79.8151899,55.3732051 74,59.0351562" id="Path-139" stroke="#4A4A4A" stroke-width="2" stroke-linecap="round" stroke-linejoin="round"></path>
                <path d="M52.8798828,68.5439453 C52.5384344,71.1030838 56.9169555,69.3524433 52.9335938,68.234375" id="Path-140" stroke="#4A4A4A" stroke-width="2" stroke-linecap="round" stroke-linejoin="round"></path>
                <path d="M37.890625,61.4697266 C39.7307454,66.2677264 43.6619301,62.0238484 38.4707031,61.7412109" id="Path-141" stroke="#4A4A4A" stroke-width="2" stroke-linecap="round" stroke-linejoin="round"></path>
                <path d="M62.0605469,54.2324219 C60.7196248,58.9000319 64.6098307,56.7786459 62.8652344,54.7539062" id="Path-142" stroke="#4A4A4A" stroke-width="2" stroke-linecap="round" stroke-linejoin="round"></path>
                <path d="M67.0097656,65.7412109 C70.1964929,65.0920628 70.1897691,65.2356608 66.8925781,65.3261719" id="Path-143" stroke="#4A4A4A" stroke-width="2" stroke-linecap="round" stroke-linejoin="round"></path>
                <path d="M57.6367188,29.3095703 C67.1867867,31.293813 63.8278454,32.8626586 68.75,28.875" id="Path-144" stroke="#4A4A4A" stroke-width="2" stroke-linecap="round" stroke-linejoin="round"></path>
                <path d="M59.9882812,25.5888672 C68.3575377,26.9301267 64.3482323,27.2267346 72.0351562,25.0097656" id="Path-145" stroke="#4A4A4A" stroke-width="2" stroke-linecap="round" stroke-linejoin="round"></path>
                <path d="M35.9472656,30.6533203 C38.038238,33.5608087 36.3531491,31.9509415 42.7763672,32.1513672" id="Path-146" stroke="#4A4A4A" stroke-width="2" stroke-linecap="round" stroke-linejoin="round"></path>
                <path d="M37.8261719,27.5507812 C39.9772135,27.921224 42.1282552,28.2916667 44.2792969,28.6621094" id="Path-147" stroke="#4A4A4A" stroke-width="2" stroke-linecap="round" stroke-linejoin="round"></path>
                <path d="M36.6025391,19.4824219 C53.0224038,6.43830361 48.980463,28.349171 63.4990234,23.328125 C93.7587838,12.8631999 64.2652563,15.8835989 79.8310547,14.7373047" id="Path-148" stroke="#4A4A4A" stroke-width="2" stroke-linecap="round" stroke-linejoin="round"></path>
                <path d="M38.9863281,27.5800781 C32.4619612,27.0263754 35.1654815,26.317816 30.6533203,28.5078125" id="Path-149" stroke="#4A4A4A" stroke-width="2" stroke-linecap="round" stroke-linejoin="round"></path>
                <path d="M91.9960938,56.5322266 C93.8606771,57.250651 95.7252604,57.9690755 97.5898438,58.6875" id="Path-150" stroke="#4A4A4A" stroke-width="2" stroke-linecap="round" stroke-linejoin="round"></path>
                <path d="M94.046875,53.2558594 C101.835659,55.048809 97.9835434,52.3894366 95.2597656,52.1738281" id="Path-151" stroke="#4A4A4A" stroke-width="2" stroke-linecap="round" stroke-linejoin="round"></path>
                <path d="M96.1298828,43.2929687 C102.509909,42.3275865 102.677782,41.9302011 97.1601562,44.0761719" id="Path-152" stroke="#4A4A4A" stroke-width="2" stroke-linecap="round" stroke-linejoin="round"></path>
                <path d="M7.53579425,52 C4.36329493,56.7911464 4.39033605,57.229772 6.38735675,52.6474609" id="Path-153" stroke="#4A4A4A" stroke-width="2" stroke-linecap="round" stroke-linejoin="round"></path>
                <path d="M12.5357943,37 C9.36329493,41.7911464 9.39033605,42.229772 11.3873568,37.6474609" id="Path-153-Copy" stroke="#4A4A4A" stroke-width="2" stroke-linecap="round" stroke-linejoin="round" transform="translate(11.267897, 38.925279) rotate(126.000000) translate(-11.267897, -38.925279) "></path>
                <path d="M28.4521484,63.7890625 C28.0192057,63.8889974 25.4329427,65.9000651 25,66" id="Path-154" stroke="#4A4A4A" stroke-width="2" stroke-linecap="round" stroke-linejoin="round"></path>
                <path d="M33.1445312,19.1152344 C21.5627445,13.2806319 31.2375417,20.3027484 32.1787109,18.0039063" id="Path-155" stroke="#4A4A4A" stroke-width="2" stroke-linecap="round" stroke-linejoin="round"></path>
                <path d="M71.6591797,10.6015625 C81.3664072,3.82693949 75.0316229,10.0393313 72.3251953,10.5722656" id="Path-156" stroke="#4A4A4A" stroke-width="2" stroke-linecap="round" stroke-linejoin="round"></path>
                <path d="M84.0507812,27.8603516 C97.2477734,24.6353785 83.9804493,29.8448469 83.6748047,29.0195312" id="Path-157" stroke="#4A4A4A" stroke-width="2" stroke-linecap="round" stroke-linejoin="round"></path>
                <path d="M22.3535156,52.2314453 C31.0774273,45.2390917 41.2251379,57.5235119 51.4091797,56.5800781 C56.7300145,56.0871643 63.752698,48.2668723 67.1171875,46.4824219 C76.2685598,41.6287374 87.0515692,49.5149356 96.8496094,49.796875" id="Path-158" stroke="#4A4A4A" stroke-width="2" stroke-linecap="round" stroke-linejoin="round"></path>
                <path d="M20.4746094,48.0185547 C33.9040254,40.9743354 33.7160348,51.679121 49.0253906,50.3378906 C55.5525608,49.7660547 60.5858025,44.0861343 66.7099609,41.7568359 C76.0112203,38.2191404 87.9254861,42.5194174 96.3339844,43.9208984" id="Path-159" stroke="#4A4A4A" stroke-width="2" stroke-linecap="round" stroke-linejoin="round"></path>
                <path d="M42.9589844,43.8339844 C44.8736979,44.5071615 46.7884115,45.1803385 48.703125,45.8535156" id="Path-160" stroke="#4A4A4A" stroke-width="2" stroke-linecap="round" stroke-linejoin="round"></path>
                <path d="M46.2333984,42.4912109 C48.4667969,42.6458333 50.7001953,42.8004557 52.9335938,42.9550781" id="Path-161" stroke="#4A4A4A" stroke-width="2" stroke-linecap="round" stroke-linejoin="round"></path>
                <path d="M48.4560547,39.9492188 C45.9472656,40.203776 43.4384766,40.4583333 40.9296875,40.7128906" id="Path-162" stroke="#4A4A4A" stroke-width="2" stroke-linecap="round" stroke-linejoin="round"></path>
            </g>
        </g>
    </g>
</svg>