<?xml version="1.0" encoding="UTF-8"?>
<svg width="200px" height="200px" viewBox="0 0 200 200" version="1.1" xmlns="http://www.w3.org/2000/svg" xmlns:xlink="http://www.w3.org/1999/xlink">
    <!-- Generator: Sketch 49.3 (51167) - http://www.bohemiancoding.com/sketch -->
    <title>icon-book</title>
    <desc>Created with Sketch.</desc>
    <defs></defs>
    <g id="icon-book" stroke="none" stroke-width="1" fill="none" fill-rule="evenodd">
        <path d="M53.9335938,114.642578 C53.9335937,131.898302 54.5060165,126.879362 72.1904297,126.347656 C91.2833105,125.773603 110.395836,126.391826 129.494141,126.041992 C135.779289,125.926864 142.097837,125.839121 148.321289,124.953125 C164.174419,122.69621 139.56064,108.589568 134.265625,108.037109 C122.991116,106.860777 111.669318,105.680048 100.333984,105.772461 C95.1178709,105.814986 90.1147828,108.036765 84.9140625,108.439453 C56.2206603,110.661161 70.4161878,104.099238 54.5283203,113.476562 L53.9335938,114.642578 Z" id="Path-2" fill="#D8D8D8"></path>
        <path d="M104.849415,103.983104 C104.849415,116.044246 128.906103,106.244568 148.848344,106.244568 C156.181498,106.244568 148.960721,58 144.899722,58 C139.014503,58 126.800995,60.4081763 120.933659,61.0152855 C88.5624035,64.3648269 104.285326,64.7843924 101.007662,67.3540478 L104.849415,103.983104 Z" id="Path-2-Copy" fill="#EEEEEE"></path>
        <path d="M55.849415,105.983104 C55.849415,118.044246 79.9061025,108.244568 99.8483437,108.244568 C107.181498,108.244568 99.9607208,60 95.8997219,60 C90.0145026,60 77.8009952,62.4081763 71.9336588,63.0152855 C39.5624035,66.3648269 55.2853262,66.7843924 52.0076616,69.3540478 L55.849415,105.983104 Z" id="Path-2-Copy-2" fill="#EEEEEE"></path>
        <g transform="translate(53.000000, 55.000000)" stroke="#4A4A4A" stroke-linecap="round" stroke-linejoin="round" stroke-width="2">
            <path d="M45.1298828,8.73339844 C48.3458297,52.626014 48.7125055,34.7006564 47.1591797,62.4824219" id="Path-387"></path>
            <path d="M45.1513672,10.0664063 C52.3102835,1.07706025 87.5,-5 96,10.0664063" id="Path-388"></path>
            <path d="M44.4101562,10.5986328 C31.4152224,0.292785393 5.250045,-5.26474311 0.44140625,18.4648438" id="Path-389"></path>
            <path d="M48.2431641,62.453125 C61.1049567,40.5825336 85,33 98.5,55" id="Path-390"></path>
            <path d="M96.0047829,11 C95.7308619,21.0404938 99.1654459,45.0474691 98.8915249,55.0879629 L96.0047829,11 Z" id="Path-391"></path>
            <path d="M46.9121094,61.7666016 C31.7035476,37.5818609 15.5,44 3,59" id="Path-392"></path>
            <path d="M0.167673953,19 C1.17353333,31.9332682 2.1793927,44.8665365 3.18525208,57.7998047" id="Path-393"></path>
            <path d="M5.26171875,65.2070313 C19.5,44.5 30.9568386,46.6426577 44,64" id="Path-394"></path>
            <path d="M10.6845703,67.5742188 C18.7626203,48.6785666 29.5078929,55.1160647 41.5966797,65.5449219" id="Path-395"></path>
            <path d="M49.3603516,64.2792969 C68.8004865,46.1169242 76.1525979,39.0757069 95.6376953,59.6123047" id="Path-396"></path>
            <path d="M51.9912109,68.0673828 C70.1041932,51.1928402 71.3974081,51.5489851 92.3740234,64.6464844" id="Path-397"></path>
            <path d="M55.4804688,69.7001953 C64.8956677,58.0402823 78.1857193,61.9306668 90.6123047,66.9179687" id="Path-398"></path>
            <path d="M44.5605469,70.3671875 C44.6679688,70.6025391 44.7753906,70.8378906 44.8828125,71.0732422" id="Path-399"></path>
            <path d="M42.7568359,67.3037109 C43.3563826,74.0713211 54.1569783,78.6790499 54.03125,68.8017578" id="Path-400"></path>
            <path d="M42.8427734,67.3623047 C46.7652995,67.6360677 50.6878255,67.9098307 54.6103516,68.1835938" id="Path-401"></path>
            <path d="M43.5,67.033705 C36.6194611,66.7925473 27.6209701,66.9483774 20.0963166,67.033705 C13.6638996,67.106647 7.28658203,67.8556083 1.4609375,70.2324219 C0.558109513,70.600768 1.93937301,72.8648551 2.91015625,72.7734375 C8.78184107,72.2205074 4.67214979,71.5 15,71.5 C24,71.5 32,70.2324219 42,70.2324219 L43.5,67.033705 Z" id="Path-402"></path>
            <path d="M54.4169922,68.0380859 C69.8766344,64.8265724 58.680238,66.6945328 88.4443359,66.7050781" id="Path-403"></path>
            <path d="M54.6748047,68.7539062 C60.5609042,76.8671785 118.227343,69.0723269 84.234375,66.7919922" id="Path-404"></path>
            <path d="M49.4462891,12.5507812 C58.0378306,6.19031899 53.2004372,8.6841906 64.1240234,5.39941406" id="Path-405"></path>
            <path d="M50.9492188,17.1884766 C65.8112044,7.06731708 81.3455973,7.32562423 90.7949219,23.1611328" id="Path-406"></path>
            <path d="M54.5244141,23.9248047 C60.9561182,16.0086907 67.1703193,16.6564836 75.9023438,19.7783203" id="Path-407"></path>
            <path d="M55.6738281,29.5966797 C65.7053228,23.0127012 78.9297608,22.1616564 89.0019531,29.6259766" id="Path-408"></path>
            <path d="M56.7470703,42.3144531 C65.163493,33.2363436 76.6654182,28.3140038 87.8212891,36.4384766" id="Path-409"></path>
            <path d="M5.70214844,12.8310547 C6.18164062,14.3577474 6.66113281,15.8844401 7.140625,17.4111328" id="Path-410"></path>
            <path d="M5.5625,13.4970703 C11.1253923,6.31648664 18.1321292,3.6038606 26.0820312,8.25976563" id="Path-411"></path>
            <path d="M7.16210938,18.5322266 C23.2099166,9.01814197 31.2383696,18.9935592 27.4882812,7.30273438" id="Path-412"></path>
            <path d="M7.01269531,23.421875 C19.8421443,17.8362646 26.5443637,17.5502231 37.9140625,26.5625" id="Path-413"></path>
            <path d="M10.0292969,31.9453125 C22.7970789,25.1117743 28.6823581,28.0593096 39.3525391,36.390625" id="Path-414"></path>
            <path d="M9.08496094,39.7626953 C20.2062053,33.1428382 27.1300814,32.7469024 38.0966797,40.8457031" id="Path-415"></path>
            <path d="M9.91113281,46.7402344 C20.3507726,39.4362899 28.5474284,38.9692206 39.9648438,45.5224609" id="Path-416"></path>
        </g>
        <polyline id="Path-900" stroke="#4A4A4A" stroke-width="2" stroke-linecap="round" points="52.15625 94.1542969 53.7763672 94.1542969 55.3300781 94.1542969 56.4316406 94.1542969 56.9736328 94.1542969"></polyline>
        <path d="M150.469727,75.9208984 C151.969401,76.0042318 153.469076,76.0875651 154.96875,76.1708984" id="Path-897" stroke="#4A4A4A" stroke-width="2" stroke-linecap="round"></path>
        <polyline id="Path-849" stroke="#4A4A4A" stroke-width="2" stroke-linecap="round" stroke-linejoin="round" points="133.53418 58.9785156 133.53418 54.0361328 133.53418 52.7949219 133.53418 52.5087891 133.53418 52.2226562 133.53418 51.8818359 133.53418 52.1669922"></polyline>
        <polyline id="Path-850" stroke="#4A4A4A" stroke-width="2" stroke-linecap="round" points="137.777344 57.6435547 137.777344 55.2285156 137.777344 53.5498047 137.777344 53.140625 137.777344 52.7314453 137.777344 52.0097656"></polyline>
        <path d="M148.736328,71.6699219 C150.583333,71.7779948 152.430339,71.8860677 154.277344,71.9941406" id="Path-896" stroke="#4A4A4A" stroke-width="2" stroke-linecap="round"></path>
        <path d="M147.139648,125.620117 C147.27474,127.249349 147.409831,128.878581 147.544922,130.507812" id="Path-898" stroke="#4A4A4A" stroke-width="2" stroke-linecap="round"></path>
        <path d="M143.806641,126.538086 C144.022786,127.583659 144.238932,128.629232 144.455078,129.674805" id="Path-899" stroke="#4A4A4A" stroke-width="2" stroke-linecap="round"></path>
        <path d="M51.0039062,90.796875 C53.2721354,91 55.5403646,91.203125 57.8085938,91.40625" id="Path-901" stroke="#4A4A4A" stroke-width="2" stroke-linecap="round"></path>
        <path d="M53.9960938,125.994141 C52.4882812,125.777669 50.9804688,125.561198 49.4726562,125.344727" id="Path-902" stroke="#4A4A4A" stroke-width="2" stroke-linecap="round"></path>
        <polyline id="Path-903" stroke="#4A4A4A" stroke-width="2" stroke-linecap="round" points="78.5351562 57.9755859 78.5351562 56.6943359 78.5351562 56.2851562 78.5351562 55.7392578 78.5351562 53.5966797 78.5351562 53.4199219 78.5351562 53.2431641 78.5351562 53.1611328"></polyline>
        <path d="M82.0458984,59.1933594 C81.9912109,57.2789714 81.9365234,55.3645833 81.8818359,53.4501953" id="Path-904" stroke="#4A4A4A" stroke-width="2" stroke-linecap="round"></path>
        <path d="M151.837891,101.71582 C153.642904,101.421875 155.447917,101.12793 157.25293,100.833984" id="Path-905" stroke="#4A4A4A" stroke-width="2" stroke-linecap="round"></path>
    </g>
</svg>