<?xml version="1.0" encoding="UTF-8"?>
<svg width="200px" height="200px" viewBox="0 0 200 200" version="1.1" xmlns="http://www.w3.org/2000/svg" xmlns:xlink="http://www.w3.org/1999/xlink">
    <!-- Generator: Sketch 49.3 (51167) - http://www.bohemiancoding.com/sketch -->
    <title>icon-cloud-1</title>
    <desc>Created with Sketch.</desc>
    <defs></defs>
    <g id="icon-cloud-1" stroke="none" stroke-width="1" fill="none" fill-rule="evenodd">
        <path d="M30.9080056,109.079723 C26.4789326,108.707682 25.8145716,109.637784 28.9149228,111.87003 C33.5654495,115.218399 157.800949,117.729675 163.115836,115.218399 C168.430724,112.707122 181.053582,107.126508 161.787114,110.753907 C148.942802,113.172173 105.316433,112.614112 30.9080056,109.079723 Z" id="Path-431" fill="#A1A1A1"></path>
        <path d="M59.5,100 C63.1666667,80.6666667 82.3333333,67.1666667 117,59.5 C130.666667,58.1666667 136.666667,71.6666667 135,100 C154.666667,87.3333333 161.078231,89.7423314 154.234694,107.226994 C143.969388,133.453988 156.234694,98.7269942 160.234694,99.7269942 C164.234694,100.726994 170.734694,109.226994 169.734694,110.226994 C168.734694,111.226994 41.5,117.726994 36,107.226994 C32.3333333,100.226994 35.244898,93.7269942 44.7346939,87.7269942 L59.5,100 Z" id="Path-430" fill="#D8D8D8"></path>
        <path d="M35,105 C70.5,114.5 124.797242,113.500886 170.861328,108.560547" id="Path-421" stroke="#4A4A4A" stroke-width="2" stroke-linecap="round" stroke-linejoin="round"></path>
        <path d="M33,105 C27.3333333,108 26.6666667,110.345175 31,112.035524 C37.5,114.571047 124.797242,119.500886 170.861328,114.560547 C174.102214,114.186849 174.102214,111.833333 170.861328,107.5" id="Path-421-Copy" stroke="#4A4A4A" stroke-width="2" stroke-linecap="round" stroke-linejoin="round"></path>
        <path d="M170.5,109 C165.768386,99.2599498 159.566567,90.9811676 155.5,103.50696" id="Path-422" stroke="#4A4A4A" stroke-width="2" stroke-linecap="round" stroke-linejoin="round"></path>
        <path d="M155.539062,104.066406 C162,83.5 160.539062,80 140.5,100" id="Path-423" stroke="#4A4A4A" stroke-width="2" stroke-linecap="round" stroke-linejoin="round"></path>
        <path d="M139.838061,99.6015625 C139.86836,85.5803079 151.33867,30 77.5430926,65 C56.0438108,75.1967474 53.9621626,84.700134 58.5551072,99.6015625" id="Path-424" stroke="#4A4A4A" stroke-width="2" stroke-linecap="round" stroke-linejoin="round"></path>
        <path d="M56.5,95.6520406 C51.5683594,91.7868062 51.8877918,88.0952598 45.9980469,85.9570313 C40.0286179,83.789874 24.6104417,105.366971 35,105.5" id="Path-425" stroke="#4A4A4A" stroke-width="2" stroke-linecap="round" stroke-linejoin="round"></path>
        <path d="M138,69.0736504 C140.007812,68.0651869 142.015625,67.0567233 144.023438,66.0482598" id="Path-417" stroke="#4A4A4A" stroke-width="2" stroke-linecap="round" stroke-linejoin="round"></path>
        <path d="M140,72.0580254 C142.620117,70.7214369 145.240234,69.3848483 147.860352,68.0482598" id="Path-418" stroke="#4A4A4A" stroke-width="2" stroke-linecap="round" stroke-linejoin="round"></path>
        <path d="M139,76.6088066 C141.913411,75.755291 144.826823,74.9017754 147.740234,74.0482598" id="Path-419" stroke="#4A4A4A" stroke-width="2" stroke-linecap="round" stroke-linejoin="round"></path>
        <path d="M29.0126953,93.4560547 C30.5445964,94.4384766 32.0764974,95.4208984 33.6083984,96.4033203" id="Path-420" stroke="#4A4A4A" stroke-width="2" stroke-linecap="round" stroke-linejoin="round"></path>
        <path d="M32.0195312,89.8603516 C33.5693359,91.4098307 35.1191406,92.9593099 36.6689453,94.5087891" id="Path-426" stroke="#4A4A4A" stroke-width="2" stroke-linecap="round" stroke-linejoin="round"></path>
        <path d="M165.097656,115.914062 C165.38737,117.43099 165.677083,118.947917 165.966797,120.464844" id="Path-427" stroke="#4A4A4A" stroke-width="2" stroke-linecap="round" stroke-linejoin="round"></path>
        <path d="M155.293945,116.455078 C155.279622,117.801432 155.265299,119.147786 155.250977,120.494141" id="Path-428" stroke="#4A4A4A" stroke-width="2" stroke-linecap="round" stroke-linejoin="round"></path>
        <path d="M143.676758,117.005859 C143.44043,118.716146 143.204102,120.426432 142.967773,122.136719" id="Path-429" stroke="#4A4A4A" stroke-width="2" stroke-linecap="round" stroke-linejoin="round"></path>
    </g>
</svg>