<?xml version="1.0" encoding="UTF-8"?>
<svg width="200px" height="200px" viewBox="0 0 200 200" version="1.1" xmlns="http://www.w3.org/2000/svg" xmlns:xlink="http://www.w3.org/1999/xlink">
    <!-- Generator: Sketch 48.2 (47327) - http://www.bohemiancoding.com/sketch -->
    <title>icon-across-devices</title>
    <desc>Created with Sketch.</desc>
    <defs></defs>
    <g id="Icons" stroke="none" stroke-width="1" fill="none" fill-rule="evenodd">
        <g id="icon-across-devices">
            <g transform="translate(21.000000, 26.000000)">
                <path d="M39,16 C46.0273151,88.3333333 48.8606484,126.666667 47.5,131 C45.4590273,137.5 131.581945,137 127.5,131 C123.418055,125 131.577439,9 126.475007,9 C123.073386,9 93.9150504,11.3333333 39,16 Z" id="Path-50-Copy" fill="#D4D4D4"></path>
                <path d="M100,38 C98.0114522,96.6666667 96.683845,128.166667 96.0171784,132.5 C95.0171784,139 138.017178,142.5 136.017178,136.5 C134.017178,130.5 142,36 139.5,36 C137.833333,36 124.666667,36.6666667 100,38 Z" id="Path-50" fill="#EEEEEE"></path>
                <path d="M7.43140999,104 C11.3788764,120.915442 12.9017397,129.873954 12,130.875537 C10.6473904,132.37791 69.7052191,132.262343 67,130.875537 C64.2947809,129.48873 72.3815239,102.5 69,102.5 C66.7456507,102.5 46.2227874,103 7.43140999,104 Z" id="Path-50-Copy-2" fill="#F0F0F0"></path>
                <ellipse id="Oval" stroke="#4A4A4A" stroke-width="2" cx="49.5" cy="27" rx="3.5" ry="4"></ellipse>
                <path d="M138,58.0601408 C142.238281,56.9650887 145.166016,56.2919116 146.783203,56.0406095 C148.400391,55.7893074 145.685384,56.7043465 138.638184,58.7857267 L138,58.0601408 Z" id="Path-4" stroke="#4A4A4A" stroke-linecap="round" stroke-linejoin="round"></path>
                <path d="M139.229495,46.8940365 C142.549999,45.7989844 144.843748,45.1258073 146.110742,44.8745052 C147.377736,44.6232032 145.25065,45.5382422 139.729483,47.6196224 L139.229495,46.8940365 Z" id="Path-4-Copy" stroke="#4A4A4A" stroke-linecap="round" stroke-linejoin="round" transform="translate(142.847479, 46.226759) rotate(14.000000) translate(-142.847479, -46.226759) "></path>
                <path d="M123.19979,16.1359584 C127.438072,15.0409063 130.365806,14.3677292 131.982993,14.1164271 C133.600181,13.8651251 130.885174,14.7801641 123.837974,16.8615443 L123.19979,16.1359584 Z" id="Path-4-Copy-2" stroke="#4A4A4A" stroke-linecap="round" stroke-linejoin="round" transform="translate(127.817775, 15.468681) rotate(14.000000) translate(-127.817775, -15.468681) "></path>
                <path d="M119.090665,8.81855647 C118.978213,6.98111546 118.970367,5.757192 119.067126,5.1467861 C119.163885,4.5363802 119.415025,5.82974119 119.820547,9.02686908 L119.090665,8.81855647 Z" id="Path-4-Copy-3" stroke="#4A4A4A" stroke-linecap="round" stroke-linejoin="round"></path>
                <path d="M95.0906651,10.4564418 C94.9782133,5.42493445 94.9703669,2.07343644 95.0671257,0.401947794 C95.1638846,-1.26954086 95.4150251,2.27209957 95.8205473,11.0268691 L95.0906651,10.4564418 Z" id="Path-4-Copy-8" stroke="#4A4A4A" stroke-linecap="round" stroke-linejoin="round"></path>
                <path d="M49.1867258,10.8410195 C51.8597363,9.74596738 53.7062077,9.0727903 54.7261398,8.82148821 C55.7460719,8.57018613 54.0337644,9.48522519 49.5892171,11.5666054 L49.1867258,10.8410195 Z" id="Path-4-Copy-4" stroke="#4A4A4A" stroke-linecap="round" stroke-linejoin="round" transform="translate(52.099209, 10.173742) rotate(-75.000000) translate(-52.099209, -10.173742) "></path>
                <path d="M33.1717106,55.8865335 C37.4099919,54.7914814 40.3377262,54.1183043 41.9549137,53.8670023 C43.5721012,53.6157002 40.8570947,54.5307392 33.8098942,56.6121194 L33.1717106,55.8865335 Z" id="Path-4-Copy-5" stroke="#4A4A4A" stroke-linecap="round" stroke-linejoin="round" transform="translate(37.789695, 55.219256) rotate(190.000000) translate(-37.789695, -55.219256) "></path>
                <path d="M39.0538035,63.0869754 C41.1318972,62.733968 42.5674099,62.5169587 43.3603415,62.4359474 C44.1532732,62.3549362 42.8220642,62.6499136 39.3667146,63.3208795 L39.0538035,63.0869754 Z" id="Path-4-Copy-6" stroke="#4A4A4A" stroke-linecap="round" stroke-linejoin="round" transform="translate(41.318072, 62.922856) rotate(191.000000) translate(-41.318072, -62.922856) "></path>
                <path d="M40.1990764,70.5733393 C42.1256824,69.4782872 43.4565498,68.8051101 44.1916787,68.553808 C44.9268077,68.3025059 43.6926404,69.217545 40.4891771,71.2989252 L40.1990764,70.5733393 Z" id="Path-4-Copy-7" stroke="#4A4A4A" stroke-linecap="round" stroke-linejoin="round" transform="translate(42.298285, 69.906062) rotate(-153.000000) translate(-42.298285, -69.906062) "></path>
                <path d="M93.7739258,62.9684583 C81.1826172,62.4739922 68.5913086,61.979526 56,61.4850599" id="Path-6" stroke="#4A4A4A" stroke-width="2" stroke-linecap="round" stroke-linejoin="round"></path>
                <path d="M55.2299805,64.2807617 C58.6103775,75.7835709 58.2843419,70.1963463 56.8891602,80.9887695" id="Path-7" stroke="#4A4A4A" stroke-width="2" stroke-linecap="round" stroke-linejoin="round"></path>
                <path d="M56.878418,80.8632812 C86.3875991,77.9694576 74.8118631,77.3606255 91.6025391,78.9790039" id="Path-8" stroke="#4A4A4A" stroke-width="2" stroke-linecap="round" stroke-linejoin="round"></path>
                <path d="M56.7119141,89.0097656 C65.8277995,88.504069 74.9436849,87.9983724 84.0595703,87.4926758" id="Path-9" stroke="#4A4A4A" stroke-width="2" stroke-linecap="round" stroke-linejoin="round"></path>
                <path d="M66.9121094,96.3779297 C70.7651367,96.0301107 74.6181641,95.6822917 78.4711914,95.3344727" id="Path-10" stroke="#4A4A4A" stroke-width="2" stroke-linecap="round" stroke-linejoin="round"></path>
                <path d="M95.7604267,37.4850599 C78.2106297,38.6685905 81.640768,33.9120631 83.7672627,50.3566419" id="Path-11" stroke="#4A4A4A" stroke-width="2" stroke-linecap="round" stroke-linejoin="round"></path>
                <path d="M83,53.0211927 C87.1393229,52.8424817 91.2786458,52.6637708 95.4179688,52.4850599" id="Path-12" stroke="#4A4A4A" stroke-width="2" stroke-linecap="round" stroke-linejoin="round"></path>
                <path d="M113.520508,35.1493485 C114.42186,27.724715 114.639513,27.6343135 113,34.6708329" id="Path-13" stroke="#4A4A4A" stroke-width="2" stroke-linecap="round" stroke-linejoin="round"></path>
                <path d="M120,35.9383746 C121.9893,27.4934395 121.88034,27.3082758 120.515625,35.5516558" id="Path-14" stroke="#4A4A4A" stroke-width="2" stroke-linecap="round" stroke-linejoin="round"></path>
                <path d="M133.308442,31.4850599 C132.905378,42.7051733 132.82128,42.8261318 133.523285,31.8712903" id="Path-15" stroke="#4A4A4A" stroke-width="2" stroke-linecap="round" stroke-linejoin="round"></path>
                <path d="M133.118164,116.020887 C137.124614,115.141717 151.427759,113.963357 133,116.711805" id="Path-20" stroke="#4A4A4A" stroke-width="2" stroke-linecap="round" stroke-linejoin="round"></path>
                <path d="M145,78 C142.666667,78.1396902 140.333333,78.2793803 138,78.4190705" id="Path-21" stroke="#4A4A4A" stroke-width="2" stroke-linecap="round" stroke-linejoin="round"></path>
                <path d="M137,69.2344381 C150.453343,67.6152828 150.395401,67.1423897 137.365234,70.6162741" id="Path-22" stroke="#4A4A4A" stroke-width="2" stroke-linecap="round" stroke-linejoin="round"></path>
                <path d="M133,127.212891 C134.556966,126.808594 136.113932,126.404297 137.670898,126" id="Path-24" stroke="#4A4A4A" stroke-width="2" stroke-linecap="round" stroke-linejoin="round"></path>
                <path d="M116.140694,136.255859 C115.959991,143.584884 115.828358,143.482604 116.570381,136" id="Path-25" stroke="#4A4A4A" stroke-width="2" stroke-linecap="round" stroke-linejoin="round"></path>
                <path d="M103,135.188375 C103.985847,153.185799 104.613516,128.789497 103.064484,136.589742" id="Path-26" stroke="#4A4A4A" stroke-width="2" stroke-linecap="round" stroke-linejoin="round"></path>
                <path d="M104.471191,45.2641602 C104.549967,47.5366211 104.628743,49.809082 104.70752,52.081543" id="Path-28" stroke="#4A4A4A" stroke-width="2" stroke-linecap="round" stroke-linejoin="round"></path>
                <path d="M104.836426,51.6083984 C113.633789,50.9318034 122.431152,50.2552083 131.228516,49.5786133" id="Path-29" stroke="#4A4A4A" stroke-width="2" stroke-linecap="round" stroke-linejoin="round"></path>
                <path d="M130.149414,43.5151367 C130.344564,45.8263346 130.539714,48.1375326 130.734863,50.4487305" id="Path-30" stroke="#4A4A4A" stroke-width="2" stroke-linecap="round" stroke-linejoin="round"></path>
                <path d="M101.964355,92.1225586 C102.259603,97.1251628 102.55485,102.127767 102.850098,107.130371" id="Path-31" stroke="#4A4A4A" stroke-width="2" stroke-linecap="round" stroke-linejoin="round"></path>
                <path d="M101.862305,92.6157227 C105.57194,92.3611654 109.281576,92.1066081 112.991211,91.8520508" id="Path-32" stroke="#4A4A4A" stroke-width="2" stroke-linecap="round" stroke-linejoin="round"></path>
                <path d="M113.050293,91.8374023 C112.640625,97.5598958 112.230957,103.282389 111.821289,109.004883" id="Path-33" stroke="#4A4A4A" stroke-width="2" stroke-linecap="round" stroke-linejoin="round"></path>
                <path d="M103.016602,107.255859 C106.055176,107.247721 109.09375,107.239583 112.132324,107.231445" id="Path-34" stroke="#4A4A4A" stroke-width="2" stroke-linecap="round" stroke-linejoin="round"></path>
                <path d="M120.099609,107.004395 C119.632487,102.667155 119.165365,98.3299154 118.698242,93.9926758" id="Path-35" stroke="#4A4A4A" stroke-width="2" stroke-linecap="round" stroke-linejoin="round"></path>
                <path d="M118.354492,94.1279297 C122.186035,93.483724 126.017578,92.8395182 129.849121,92.1953125" id="Path-36" stroke="#4A4A4A" stroke-width="2" stroke-linecap="round" stroke-linejoin="round"></path>
                <path d="M129.505371,92.9633789 C129.480306,99.1980794 129.455241,105.43278 129.430176,111.66748" id="Path-37" stroke="#4A4A4A" stroke-width="2" stroke-linecap="round" stroke-linejoin="round"></path>
                <path d="M128.705566,110.710449 C125.879883,110.249837 123.054199,109.789225 120.228516,109.328613" id="Path-38" stroke="#4A4A4A" stroke-width="2" stroke-linecap="round" stroke-linejoin="round"></path>
                <path d="M140.625,134.411621 C124.121109,137.619745 146.380666,136.698626 139.057617,134.194336" id="Path-49" stroke="#4A4A4A" stroke-width="2" stroke-linecap="round" stroke-linejoin="round"></path>
                <path d="M44.9296875,86.4697266 C45.5019531,78.5263672 43.139974,54.7958984 37.84375,15.2783203 C65.3164062,10.9879557 86.2861328,10.2359416 100.75293,13.0222778" id="Path" stroke="#4A4A4A" stroke-width="2" stroke-linecap="round" stroke-linejoin="round"></path>
                <path d="M127.199219,26.1210938 C127.950521,16.2636719 127.950521,10.7617188 127.199219,9.61523438 C126.447917,8.46875 114.79069,9.04199219 92.2275391,11.3349609" id="Path-2" stroke="#4A4A4A" stroke-width="2" stroke-linecap="round" stroke-linejoin="round"></path>
                <path d="M97.5429688,125.558594 L99.421875,37.4853516 C126.279297,34.8955078 139.750977,34.2480469 139.836914,35.5429688 C139.96582,37.4853516 132.460938,131.541016 132.954102,136.758789 C133.447266,141.976563 108.258789,130.816406 101.730469,134.56543" id="Path-3" stroke="#4A4A4A" stroke-width="2" stroke-linecap="round" stroke-linejoin="round"></path>
                <path d="M52,49.5 C52,49.5 51,37 50.5,36.5 C50,36 71,30.5 73.5,33 C76,35.5 74,48 72.5,49.5 C71,51 56,50 53.5,46" id="Path-5" stroke="#4A4A4A" stroke-width="2" stroke-linecap="round" stroke-linejoin="round"></path>
                <path d="M104.736328,64.0498047 C110.536296,63.991862 116.336263,63.9339193 122.13623,63.8759766" id="Path-16" stroke="#4A4A4A" stroke-width="2" stroke-linecap="round" stroke-linejoin="round"></path>
                <path d="M105.675781,69.3837891 C109.870443,69.4853516 114.065104,69.5869141 118.259766,69.6884766" id="Path-17" stroke="#4A4A4A" stroke-width="2" stroke-linecap="round" stroke-linejoin="round"></path>
                <path d="M104.279785,75.0131836 C106.760091,75.0582682 109.240397,75.1033529 111.720703,75.1484375" id="Path-18" stroke="#4A4A4A" stroke-width="2" stroke-linecap="round" stroke-linejoin="round"></path>
                <path d="M106.25,81.9609375 C113.044922,82.2316081 119.839844,82.5022786 126.634766,82.7729492" id="Path-19" stroke="#4A4A4A" stroke-width="2" stroke-linecap="round" stroke-linejoin="round"></path>
                <path d="M134.936523,134.983887 C135.21403,134.95166 135.491536,134.919434 135.769043,134.887207" id="Path-23" stroke="#979797"></path>
                <path d="M105.115723,42.1474609 C113.354818,42.0266927 121.593913,41.9059245 129.833008,41.7851562" id="Path-27" stroke="#4A4A4A" stroke-width="2" stroke-linecap="round" stroke-linejoin="round"></path>
                <path d="M33.2592773,121.893066 C30.6234165,108.694501 29.659689,115.429776 51.7275391,113.200684" id="Path-39" stroke="#4A4A4A" stroke-width="2" stroke-linecap="round" stroke-linejoin="round"></path>
                <path d="M35.734375,120.254883 C55.2939295,119.986972 55.2066538,126.00318 53.3598633,116.36084" id="Path-40" stroke="#4A4A4A" stroke-width="2"></path>
                <path d="M22.2592773,110.978027 C17.8523271,110.700843 14.6856924,116.050515 20.1333008,116.621582 C24.5615574,117.085791 25.1025178,110.363094 19.5371094,110.615723" id="Path-41" stroke="#4A4A4A" stroke-width="2"></path>
                <path d="M12.128418,130.223145 C11.3908394,127.108692 5.68287972,106.590123 9.00927734,104.102539 C14.0646259,100.321991 21.6291476,104.846083 27.9389648,104.658203 C40.7936867,104.275444 53.5986308,102.765995 66.4536133,102.39209 C67.5189133,102.361104 69.4949372,102.38472 69.4707031,103.450195 C68.5970497,141.861223 72.0953526,129.840805 43.0625,129.537109 C34.927082,129.45201 26.8170573,130.461589 18.6943359,130.923828" id="Path-42" stroke="#4A4A4A" stroke-width="2"></path>
                <path d="M38.1611328,98.4829102 C38.2970378,101.306315 38.4329427,104.12972 38.5688477,106.953125" id="Path-43" stroke="#4A4A4A" stroke-width="2"></path>
                <path d="M49.3491211,129.479004 C49.5721609,136.244332 49.4047201,136.427228 49.8325195,130.044434" id="Path-44" stroke="#4A4A4A" stroke-width="2"></path>
                <path d="M9.64257812,122.352051 C2.63932364,124.393804 2.77393095,124.176878 10.2978516,122.748535" id="Path-45" stroke="#4A4A4A" stroke-width="2"></path>
                <path d="M7.77441406,111.12793 C-1.63838522,112.612562 -1.68619594,112.715983 7.53271484,110.88623" id="Path-46" stroke="#4A4A4A" stroke-width="2"></path>
                <path d="M21.3032227,103.76416 C22.1224789,98.3939838 21.805693,98.3549774 22.2592773,103.710938" id="Path-47" stroke="#4A4A4A" stroke-width="2"></path>
                <path d="M86.140625,103.977051 C84.8914388,104.133138 83.6422526,104.289225 82.3930664,104.445312" id="Path-48" stroke="#4A4A4A" stroke-width="2" stroke-linecap="round" stroke-linejoin="round"></path>
            </g>
        </g>
    </g>
</svg>