<svg width="36" height="69" viewBox="0 0 36 69" fill="none" xmlns="http://www.w3.org/2000/svg">
<rect x="30" y="9" width="5" height="24" transform="rotate(90 30 9)" fill="white"/>
<rect x="24" width="5" height="12" transform="rotate(90 24 0)" fill="white"/>
<rect y="18" width="36" height="51" rx="3" fill="#434D5A"/>
<rect y="23" width="5" height="36" transform="rotate(-90 0 23)" fill="white"/>
<path fill-rule="evenodd" clip-rule="evenodd" d="M23.9999 48.4925C24.0003 48.493 24.001 48.493 24.0015 48.4925L25.8591 46.6349C26.2496 46.2444 26.2496 45.6113 25.8591 45.2207L16.9312 36.2929C16.5407 35.9024 15.9075 35.9024 15.517 36.2929L14.3657 37.4442C13.9752 37.8347 13.9752 38.4679 14.3657 38.8584L20.9394 45.432C21.3299 45.8226 21.3299 46.4557 20.9394 46.8462L14.2929 53.4927C13.9024 53.8833 13.9024 54.5164 14.2929 54.907L15.2313 55.8453C15.6218 56.2359 16.255 56.2359 16.6455 55.8453L23.9983 48.4925C23.9987 48.4921 23.9994 48.4921 23.9999 48.4925V48.4925Z" fill="#70C1DB"/>
</svg>
