<?xml version="1.0" encoding="UTF-8"?>
<svg width="200px" height="200px" viewBox="0 0 200 200" version="1.1" xmlns="http://www.w3.org/2000/svg" xmlns:xlink="http://www.w3.org/1999/xlink">
    <!-- Generator: Sketch 49.3 (51167) - http://www.bohemiancoding.com/sketch -->
    <title>icon-business</title>
    <desc>Created with Sketch.</desc>
    <defs></defs>
    <g id="icon-business" stroke="none" stroke-width="1" fill="none" fill-rule="evenodd">
        <path d="M99.5397364,132.903662 C107.598493,133.86706 120.274133,139.328385 128.337874,139.756853 C157.194739,141.290166 152.106509,148.543589 154.240129,98.0192906 C154.572819,90.1411689 156.824476,69.2347648 151.504925,69.2347648 C135.429828,69.2347648 101.320163,68.706544 83.4221616,69.2347648 C73.2789619,69.5341195 59.1695763,64.1703078 49.5,73.5 C45.3548065,77.4994906 50.5178147,139.756853 52.6903587,139.756853 C67.1528871,138.823793 77.3968214,138.071509 83.4221616,137.5 C88.7556175,136.994117 95.5366653,132.425108 99.5397364,132.903662 Z" id="Path-862-Copy-2" fill="#D8D8D8"></path>
        <polyline id="Path-864" stroke="#424C59" stroke-width="2" points="101.579072 112 101.579072 114.095341 101.579072 121.569545 101.579072 124.771719 101.579072 126.526875 101.579072 128.282031 101.579072 131.71839 101.579072 132.438201 101.579072 133.158013 101.579072 133.601732 101.579072 134.045451 101.579072 134.250055 101.579072 134.693774 101.579072 135.137493 101.579072 135.342097 101.579072 135.785816 101.579072 135.99042 101.579072 136.195024 101.579072 136.399628 101.579072 136.604232 101.579072 136.808836 101.579072 137.01344"></polyline>
        <path d="M48.3027344,60.59375 C48.3027344,80.6595052 47.8307937,100.730811 48.3027344,120.791016 C48.3953936,124.729566 48.6249973,128.794203 49.9941406,132.488281 C54.4128516,144.41038 79.233313,137.106873 82.7539062,137.103516 C105.42119,137.081902 128.063287,138.887698 150.730469,138.958984 C166.740817,139.009335 152.816984,119.58102 152.525391,113.800781 C152.175512,106.865158 151.67566,99.8857011 152.292969,92.96875 C153.369978,80.9008527 158.877586,69.0574151 157.59375,57.0097656 C157.252572,53.8081187 151.424547,54.953681 148.214844,54.6992188 C113.723818,51.9648027 137.419635,55.1940743 111.779297,55.8652344 C98.2318513,56.2198515 84.6667226,55.4132557 71.1230469,55.890625 C64.9506937,56.1081798 58.8470052,57.2617188 52.7089844,57.9472656 L48.3027344,60.59375 Z" id="Path-860" stroke="#424C59" stroke-width="2" stroke-linecap="round" stroke-linejoin="round"></path>
        <path d="M87,109.519819 C87,104.378946 103.058594,106.385752 110.558594,106.385752 C116.883563,106.385752 118.03837,135.770543 113.058594,136.487846 C105.058594,137.640192 101.579072,136.487846 89.5761719,136.487846 C88.7174479,128.150193 87,118.426687 87,109.519819 Z" id="Path-861" stroke="#424C59" stroke-width="2"></path>
        <path d="M100.275114,71.7535452 C109.548524,72.0664211 124.134696,73.8400575 133.413841,73.979208 C166.620148,74.4771715 160.764996,76.8328149 163.220206,60.4243919 C163.60304,57.8658695 166.194077,51.0762429 160.072739,51.0762429 C141.574728,51.0762429 102.323895,50.9046963 81.7282225,51.0762429 C70.0561922,51.1734622 57.4913986,51.7855637 46.3643784,54.8155025 C41.5944019,56.1143891 42.5901127,71.7535452 45.0901127,71.7535452 C69.467675,71.3347615 87.8626753,71.3347615 100.275114,71.7535452 Z" id="Path-862" fill="#D8D8D8"></path>
        <path d="M99.3631629,112.133856 C101.921005,112.346935 105.944243,113.554841 108.503668,113.649607 C117.662812,113.988737 116.047812,115.593009 116.725022,104.418325 C116.830617,102.675886 117.545291,98.051924 115.85687,98.051924 C110.754648,98.051924 99.9282689,97.935095 94.2474581,98.051924 C91.028015,98.1181336 87.562325,98.5349951 84.4932096,100.598484 C83.1775286,101.48307 84.9639224,109.381714 84.4932096,112.133856 C84.0224968,114.885999 94.2276631,111.706048 99.3631629,112.133856 Z" id="Path-862-Copy" stroke="#424C59" stroke-width="2" fill="#EEEEEE"></path>
        <path d="M56,90.677505 C56,94.7569525 67.245983,94.6985854 69.9595822,91.9418065 C71.0632504,90.8205763 71.6196262,89.4788671 71.8721673,88.0420143 C72.3235277,85.4739637 71.8043336,82.601991 71.7045299,80.1416593 C71.5667787,76.7458538 62.6982434,78.0344902 57.1632985,79.2987917 C56.5816493,85.6202991 56,86.2508036 56,90.677505 Z" id="Path-863" stroke="#424C59" stroke-width="2" fill="#EEEEEE" stroke-linecap="round" stroke-linejoin="round"></path>
        <path d="M81.5925673,90.677505 C81.5925673,94.7569525 92.8385503,94.6985854 95.5521495,91.9418065 C96.6558177,90.8205763 97.2121935,89.4788671 97.4647346,88.0420143 C97.916095,85.4739637 97.3969009,82.601991 97.2970972,80.1416593 C97.159346,76.7458538 88.2908107,78.0344902 82.7558658,79.2987917 C82.1742166,85.6202991 81.5925673,86.2508036 81.5925673,90.677505 Z" id="Path-863-Copy" stroke="#424C59" stroke-width="2" fill="#EEEEEE"></path>
        <path d="M106.775391,91.677505 C106.775391,95.7569525 117.717596,95.6985854 120.357895,92.9418065 C121.43175,91.8205763 121.973097,90.4788671 122.218817,89.0420143 C122.657985,86.4739637 122.152815,83.601991 122.055708,81.1416593 C121.921677,77.7458538 113.2927,79.0344902 107.907266,80.2987917 C107.341328,86.6202991 106.775391,87.2508036 106.775391,91.677505 Z" id="Path-863-Copy-3" stroke="#424C59" stroke-width="2" fill="#EEEEEE" stroke-linecap="round"></path>
        <path d="M130.544773,91.677505 C130.544773,95.7569525 141.486978,95.6985854 144.127277,92.9418065 C145.201132,91.8205763 145.742479,90.4788671 145.988199,89.0420143 C146.427367,86.4739637 145.922197,83.601991 145.82509,81.1416593 C145.691059,77.7458538 137.062082,79.0344902 131.676648,80.2987917 C131.11071,86.6202991 130.544773,87.2508036 130.544773,91.677505 Z" id="Path-863-Copy-4" stroke="#424C59" stroke-width="2" fill="#EEEEEE" stroke-linecap="round"></path>
        <polyline id="Path-865" stroke="#424C59" stroke-width="2" stroke-linecap="round" stroke-linejoin="round" points="47.4082031 86.546875 46.5097656 86.546875 46.1689453 86.546875 45.9921875 86.546875 45.9101562 86.546875 45.7333984 86.546875 45.6513672 86.546875 45.4746094 86.546875 45.3925781 86.546875 45.3105469 86.546875 45.2285156 86.546875"></polyline>
        <polyline id="Path-866" stroke="#424C59" stroke-width="2" stroke-linecap="round" stroke-linejoin="round" points="48.3095703 90.2910156 46.0185547 90.2910156 45.3232422 90.2910156 44.8603516 90.2910156 44.7783203 90.2910156 44.6962891 90.2910156"></polyline>
        <polyline id="Path-867" stroke="#424C59" stroke-width="2" stroke-linecap="round" stroke-linejoin="round" points="48.0488281 95.2548828 46.2919922 95.2548828 46.0332031 95.2548828 45.8564453 95.2548828 45.7744141 95.2548828 45.6923828 95.2548828"></polyline>
        <polyline id="Path-868" stroke="#424C59" stroke-width="2" stroke-linecap="round" points="153.193359 90.5449219 155.017578 90.5449219 156.858398 90.5449219 157.266602 90.5449219 158.216797 90.5449219 158.297852 90.5449219"></polyline>
        <polyline id="Path-869" stroke="#424C59" stroke-width="2" stroke-linecap="round" points="152.705078 95.3837891 153.859375 95.3837891 154.552734 95.3837891 155.246094 95.3837891 155.327148 95.3837891 155.50293 95.3837891 155.759766 95.3837891 156.273438 95.3837891 156.449219 95.3837891 156.881836 95.3837891 157.043945 95.3837891 157.287109 95.3837891"></polyline>
        <polyline id="Path-870" stroke="#424C59" stroke-width="2" stroke-linecap="round" points="152.588867 139.330078 152.588867 140.442383 152.588867 140.727539 152.588867 140.90332 152.588867 141.364258 152.588867 141.796875 152.588867 141.87793"></polyline>
        <path d="M59.4853516,138.946289 C59.2373047,140.431641 58.9892578,141.916992 58.7412109,143.402344" id="Path-871" stroke="#424C59" stroke-width="2" stroke-linecap="round" stroke-linejoin="round"></path>
        <path d="M57.1357422,138.99707 C54.8707682,140.122396 52.6057943,141.247721 50.3408203,142.373047" id="Path-872" stroke="#424C59" stroke-width="2" stroke-linecap="round" stroke-linejoin="round"></path>
        <polyline id="Path-873" stroke="#424C59" stroke-width="2" stroke-linecap="round" stroke-linejoin="round" points="77.1650391 49.0283203 77.1650391 48.1298828 77.1650391 46.3984375 77.1650391 44.8847656 77.1650391 44.0683594 77.1650391 43.8916016 77.1650391 43.9726562 77.1650391 44.1484375 77.1650391 44.2294922 77.1650391 44.3105469"></polyline>
        <path d="M79.7109375,50.0419922 C79.8190104,48.4970703 79.9270833,46.9521484 80.0351562,45.4072266" id="Path-874" stroke="#424C59" stroke-width="2" stroke-linecap="round" stroke-linejoin="round"></path>
        <polyline id="Path-875" stroke="#424C59" stroke-width="2" stroke-linecap="round" points="139.227539 94.28125 139.227539 95.9375 139.227539 96.96875 139.227539 97.2255859 139.227539 97.5498047 139.227539 97.6308594"></polyline>
        <path d="M142.865234,94.5703125 C143.90918,95.1679688 144.956055,96.9023438 146,97.5" id="Path-876" stroke="#424C59" stroke-width="2" stroke-linecap="round"></path>
        <polyline id="Path-877" stroke="#424C59" stroke-width="2" stroke-linecap="round" stroke-linejoin="round" points="85.6767578 122.203125 87.0595703 122.203125 87.8720703 122.203125 88.4804688 122.203125 88.8466797 122.203125 89.1318359 122.203125 89.2128906 122.203125 89.4560547 122.203125 89.5371094 122.203125 89.6992188 122.203125 89.7802734 122.203125"></polyline>
        <polyline id="Path-878" stroke="#424C59" stroke-width="2" stroke-linecap="round" stroke-linejoin="round" points="85.7929688 125.311523 86.890625 125.311523 87.6083984 125.311523 87.6894531 125.311523 87.7705078 125.311523 87.8515625 125.311523 87.9326172 125.311523 88.1083984 125.311523 88.1894531 125.311523 88.2705078 125.311523 88.3515625 125.311523 88.4326172 125.311523 88.5136719 125.311523"></polyline>
        <path d="M102.318359,132.102539 C100.563802,132.301107 98.8092448,132.499674 97.0546875,132.698242" id="Path-879" stroke="#424C59" stroke-width="2" stroke-linecap="round" stroke-linejoin="round"></path>
        <path d="M116,122 C117.088542,122.090169 119.177083,122.180339 120.265625,122.270508" id="Path-881" stroke="#424C59" stroke-width="2" stroke-linecap="round"></path>
        <path d="M85.8662109,77.4746094 C85.8955078,76.4394531 85.9248047,75.4042969 85.9541016,74.3691406" id="Path-882" stroke="#424C59" stroke-width="2" stroke-linecap="round" stroke-linejoin="round"></path>
        <path d="M89.7402344,77.3945313 C89.8212891,76.3040365 89.9023438,75.2135417 89.9833984,74.1230469" id="Path-883" stroke="#424C59" stroke-width="2" stroke-linecap="round" stroke-linejoin="round"></path>
        <path d="M115.819336,118.610352 C117.208984,118.555664 118.598633,118.500977 119.988281,118.446289" id="Path-880" stroke="#424C59" stroke-width="2" stroke-linecap="round"></path>
        <path d="M156.482422,123.327148 C157.618815,123.327148 158.755208,123.327148 159.891602,123.327148" id="Path-884" stroke="#424C59" stroke-width="2" stroke-linecap="round"></path>
        <path d="M48.6865234,119.719727 C47.6826172,119.719727 46.6787109,119.719727 45.6748047,119.719727" id="Path-885" stroke="#424C59" stroke-width="2" stroke-linecap="round" stroke-linejoin="round"></path>
        <path d="M44,50 C59.141276,49.6210937 75.8079149,49.1628928 90.9277344,48.2724609 C97.1844617,47.9039916 122.232432,48.2710044 128.5,48.2724609 C140.515444,48.2752532 168.90918,38.2929688 164,61.5 C163.28974,64.8575933 164.28404,69.338284 161.267578,70.8300781 C156.637815,73.1197323 150.943428,71.8003168 145.787109,71.5009766 C135.270921,70.8904793 124.900788,68.2710159 114.368164,68.1074219 C42.9918606,66.9987964 41.5,78 43,60 L44,50 Z" id="Path-886" stroke="#424C59" stroke-width="2"></path>
    </g>
</svg>