<?xml version="1.0" encoding="UTF-8"?>
<svg width="200px" height="200px" viewBox="0 0 200 200" version="1.1" xmlns="http://www.w3.org/2000/svg" xmlns:xlink="http://www.w3.org/1999/xlink">
    <!-- Generator: Sketch 49.3 (51167) - http://www.bohemiancoding.com/sketch -->
    <title>icon-editing</title>
    <desc>Created with Sketch.</desc>
    <defs></defs>
    <g id="icon-editing" stroke="none" stroke-width="1" fill="none" fill-rule="evenodd">
        <path d="M83.4724186,117.117002 C96.1302822,116.083748 108.699389,115.775959 121.301314,116.157836 C125.60021,116.288105 127.37602,130.716172 119.76635,131.0816 C104.498748,131.814773 94.5699587,131.0816 80.8224045,131.0816 C74.7661191,131.0816 77.0519292,121.208575 79.8706966,117.707717 C81.2105471,116.043648 84.128023,117.343741 86.2566862,117.161753" id="Path-583" fill="#D8D8D8"></path>
        <path d="M57.9964419,82.5348804 C75.5904421,82.0401029 93.0610739,81.8927174 110.577321,82.0755802 C116.55264,82.1379603 119.020956,89.0468896 108.443772,89.2218759 C87.2223249,89.5729583 73.4216454,89.2218759 54.3130123,89.2218759 C45.8949815,89.2218759 49.0721798,84.4941438 52.9901708,82.8177464 C54.8525174,82.020901 58.9077097,82.6434552 61.8664792,82.5563096" id="Path-583-Copy" fill="#5F5F5F"></path>
        <path d="M97.5576919,94.1502054 C110.382321,93.789552 123.117025,93.6821196 135.884979,93.8154121 C140.240512,93.8608822 142.039718,98.8969432 134.329791,99.0244943 C118.861041,99.2804056 108.801441,99.0244943 94.8727642,99.0244943 C88.736688,99.0244943 91.0526133,95.578353 93.9085177,94.3563923 C95.2660206,93.7755553 98.2219338,94.2293479 100.378642,94.1658257" id="Path-583-Copy-2" fill="#5F5F5F"></path>
        <path d="M86.2464227,104.227526 C102.408479,103.228711 118.576705,100.136999 134.732591,101.231083 C136.827512,101.372952 135.71151,106.984911 133.661366,107.438485 C118.289396,110.839387 102.355729,112.78881 86.6387979,111.871375 C84.2466637,111.73174 85.0833267,109.811744 85.4141528,107.438485 L86.2464227,104.227526 Z" id="Path-579" stroke="#4A4A4A" stroke-width="2" stroke-linecap="round" stroke-linejoin="round"></path>
        <path d="M90.1976271,94.6689887 C90.2062259,97.1096801 89.2038876,97.3032873 91.6340733,97.5296618 C111.549677,99.3848226 131.801465,98.5386783 151.614527,95.7972371 C153.772564,95.4986396 153.527353,89.3942052 151.352491,89.266702 C130.979136,88.0722963 110.582582,91.2199792 90.1976271,92.1966177 L90.1976271,94.6689887 Z" id="Path-578" stroke="#4A4A4A" stroke-width="2" stroke-linecap="round" stroke-linejoin="round"></path>
        <path d="M73.9535886,87.1229669 C87.7130955,87.9200659 99.9836682,86.6314326 113.759812,86.210399 C115.568163,86.1551312 115.996739,82.846412 115.561127,81.0904418 C115.303202,80.0507316 113.449814,80.6604102 112.378728,80.6431847 C90.8399654,80.2967918 69.2977666,80.2143949 47.7572862,80 C45.3003543,88.7118075 47.5517917,85.5934901 73.9535886,87.1229669 Z" id="Path-577" stroke="#4A4A4A" stroke-width="2" stroke-linecap="round" stroke-linejoin="round"></path>
        <path d="M92.4391673,60.6284472 C92.5538442,62.4378856 91.090829,65.0878934 92.7831979,66.0567624 C94.967554,67.3072905 98.7509386,66.9696395 100.483706,65.233887 C101.944179,63.7708971 101.315596,60.3874937 99.4327052,59.3957979 C97.1175837,58.1764515 94.1372603,60.129778 91.4895379,60.4967681" id="Path-581" stroke="#4A4A4A" stroke-width="2" stroke-linecap="round" stroke-linejoin="round"></path>
        <path d="M97,67 C101.741013,117.870634 101.929642,94.1932775 98.2993713,138.026051" id="Path-582" stroke="#4A4A4A" stroke-width="2" stroke-linecap="round" stroke-linejoin="round"></path>
        <path d="M75.7409932,121.090247 C74.3590171,127.255387 72.8725805,127.677022 75.2681422,128.771066 C90.5084119,135.731239 107.826388,130.705093 124.231829,130.743747 C124.533826,130.744459 125.264945,128.968165 124.975224,128.888183 L127.027025,117.270186 C111.150311,112.887199 94.0502675,116.289445 77.5618884,115.799074 L75.7409932,121.090247 Z" id="Path-580" stroke="#4A4A4A" stroke-width="2" stroke-linecap="round" stroke-linejoin="round"></path>
        <path d="M113,83.7539062 C115.323893,83.5026042 117.647786,83.2513021 119.97168,83" id="Path-598" stroke="#4A4A4A" stroke-width="2" stroke-linecap="round" stroke-linejoin="round"></path>
        <path d="M71.7529297,118.560547 C72.773763,118.747396 73.7945964,118.934245 74.8154297,119.121094" id="Path-587" stroke="#4A4A4A" stroke-width="2" stroke-linecap="round" stroke-linejoin="round"></path>
        <path d="M153,93 C155.843424,93.1289062 158.686849,93.2578125 161.530273,93.3867188" id="Path-597" stroke="#4A4A4A" stroke-width="2" stroke-linecap="round" stroke-linejoin="round"></path>
        <path d="M149,91.7119141 C150.803711,89.8079427 152.607422,87.9039714 154.411133,86" id="Path-596" stroke="#4A4A4A" stroke-width="2" stroke-linecap="round" stroke-linejoin="round"></path>
        <path d="M52.734375,81.8779297 C52.6969401,80.1546224 52.6595052,78.4313151 52.6220703,76.7080078" id="Path-584" stroke="#4A4A4A" stroke-width="2" stroke-linecap="round" stroke-linejoin="round"></path>
        <polyline id="Path-585" stroke="#4A4A4A" stroke-width="2" stroke-linecap="round" stroke-linejoin="round" points="57.3193359 79.0078125 56.9248047 78.2636719 56.8496094 77.2880859 57.1689453 76.3212891 57.3193359 76.3212891"></polyline>
        <path d="M59.0478516,79.0371094 C59.2610677,78.5120443 59.4742839,77.9869792 59.6875,77.4619141" id="Path-586" stroke="#4A4A4A" stroke-width="2" stroke-linecap="round" stroke-linejoin="round"></path>
        <path d="M71.9951172,121.884766 C74.0556641,122.203776 76.1162109,122.522786 78.1767578,122.841797" id="Path-588" stroke="#4A4A4A" stroke-width="2" stroke-linecap="round" stroke-linejoin="round"></path>
        <path d="M69.4013672,125.547852 C71.5748698,125.744141 73.7483724,125.94043 75.921875,126.136719" id="Path-589" stroke="#4A4A4A" stroke-width="2" stroke-linecap="round" stroke-linejoin="round"></path>
        <path d="M116.959961,131.268555 C116.77832,132.266927 116.59668,133.265299 116.415039,134.263672" id="Path-590" stroke="#4A4A4A" stroke-width="2" stroke-linecap="round" stroke-linejoin="round"></path>
        <polyline id="Path-591" stroke="#4A4A4A" stroke-width="2" stroke-linecap="round" stroke-linejoin="round" points="119.72168 129.828125 119.72168 130.736328 119.72168 132.00293 119.72168 133.635742 119.72168 133.945312 119.72168 134.196289 119.72168 134.379883"></polyline>
        <path d="M112.675781,130.03125 C112.587891,131.5 112.5,132.96875 112.412109,134.4375" id="Path-592" stroke="#4A4A4A" stroke-width="2" stroke-linecap="round" stroke-linejoin="round"></path>
        <path d="M123.385742,122.958008 C126.398438,122.777344 129.411133,122.59668 132.423828,122.416016" id="Path-593" stroke="#4A4A4A" stroke-width="2" stroke-linecap="round" stroke-linejoin="round"></path>
        <path d="M123.799805,120.299805 C126.399089,120.416016 128.998372,120.532227 131.597656,120.648438" id="Path-594" stroke="#4A4A4A" stroke-width="2" stroke-linecap="round" stroke-linejoin="round"></path>
        <path d="M144.224609,91.203125 C144.575195,89.4798177 144.925781,87.7565104 145.276367,86.0332031" id="Path-595" stroke="#4A4A4A" stroke-width="2" stroke-linecap="round" stroke-linejoin="round"></path>
        <path d="M109.59375,81.6171875 C109.888346,79.6907552 110.182943,77.7643229 110.477539,75.8378906" id="Path-599" stroke="#4A4A4A" stroke-width="2" stroke-linecap="round" stroke-linejoin="round"></path>
        <path d="M113.991211,80.6601562 C115.091435,75.5297528 113.766275,77.3428266 117.128906,74.6982422" id="Path-600" stroke="#4A4A4A" stroke-width="2" stroke-linecap="round" stroke-linejoin="round"></path>
        <path d="M132.443359,105.514648 C136.614583,105.530924 140.785807,105.547201 144.957031,105.563477" id="Path-601" stroke="#4A4A4A" stroke-width="2" stroke-linecap="round" stroke-linejoin="round"></path>
        <path d="M80.3378906,108.268555 C82.6676432,108.310547 84.9973958,108.352539 87.3271484,108.394531" id="Path-602" stroke="#4A4A4A" stroke-width="2" stroke-linecap="round" stroke-linejoin="round"></path>
        <path d="M80.8261719,105.00293 C83.5257161,105.502279 86.2252604,106.001628 88.9248047,106.500977" id="Path-603" stroke="#4A4A4A" stroke-width="2" stroke-linecap="round" stroke-linejoin="round"></path>
        <path d="M62.5058594,85.5986328 C62.4495443,87.4635417 62.3932292,89.3284505 62.3369141,91.1933594" id="Path-604" stroke="#4A4A4A" stroke-width="2" stroke-linecap="round" stroke-linejoin="round"></path>
        <path d="M67.0712891,86.7773438 C67.4661458,88.8388672 67.8610026,90.9003906 68.2558594,92.9619141" id="Path-605" stroke="#4A4A4A" stroke-width="2" stroke-linecap="round" stroke-linejoin="round"></path>
        <path d="M70.7734375,84.3037109 C71.0052083,86.5100911 71.2369792,88.7164714 71.46875,90.9228516" id="Path-606" stroke="#4A4A4A" stroke-width="2" stroke-linecap="round" stroke-linejoin="round"></path>
    </g>
</svg>