<?xml version="1.0" encoding="UTF-8"?>
<svg width="200px" height="200px" viewBox="0 0 200 200" version="1.1" xmlns="http://www.w3.org/2000/svg" xmlns:xlink="http://www.w3.org/1999/xlink">
    <!-- Generator: Sketch 49.3 (51167) - http://www.bohemiancoding.com/sketch -->
    <title>icon-email</title>
    <desc>Created with Sketch.</desc>
    <defs></defs>
    <g id="icon-email" stroke="none" stroke-width="1" fill="none" fill-rule="evenodd">
        <path d="M73,81.5444898 C92.0076492,110.946939 101.168012,106.57123 124.133254,91.9515894 C127.17809,90.0132507 132.871506,85.0494645 129.565346,83.9446254 C117.006367,79.7477177 103.251611,81.5444898 77.0157005,81 L73,81.5444898 Z" id="Path-674" fill="#D8D8D8"></path>
        <path d="M129.502472,83.7130971 C131.289118,84.80918 128.32314,104.272146 127.781228,114.827334 C127.726816,115.887152 128.365624,117.859528 126.926201,117.958187 C117.117136,118.630512 107.335517,116.806894 97.5028064,116.902651 C90.0963848,116.974779 82.7461298,118.22932 75.3407342,118.460558 C73.774184,118.509474 71.3960852,118.78105 70.7684621,117.737446 C69.8002139,116.127455 69.9899228,110.5351 70.0701036,108.759627 C70.5274128,98.6332754 69.4213282,92.0009975 72.3795596,82.0623651 C72.9893851,80.0135627 78.0586701,81.5455538 80.895875,81.6186484 C90.0051401,81.8533294 98.551976,82.5655946 107.662666,82.7623733 C115.735723,82.9367406 111.877216,81.2977053 125.748644,82.7623733 C127.060098,82.6654672 128.311374,82.9823751 129.502472,83.7130971 Z" id="Path-669" stroke="#4A4A4A" stroke-width="2" stroke-linecap="round" stroke-linejoin="round"></path>
        <path d="M103.657123,94.3481791 C94.8742519,92.370005 91.3459589,99.1172248 97.293702,101.557352 C101.184815,103.153723 103.607375,99.171328 104.100524,95.9135872 C104.191119,95.3151133 103.664315,93.5539384 103.6383,94.1588838 C103.547857,96.2620263 102.323724,101.753351 106.611905,101.238315 C107.489849,101.132868 108.374838,100.385099 108.670474,99.5378474 C113.686891,85.1615101 84.1684091,87.1115053 91.0442681,104.884376 C94.1091044,112.806431 106.582121,106.324332 109.327209,102.337929" id="Path-670" stroke="#4A4A4A" stroke-width="2" stroke-linecap="round" stroke-linejoin="round"></path>
        <path d="M109,95.4160088 C112.844708,95.6294186 114.42098,95.0228616 116.763688,95.0004962 C118.825398,94.9808134 121.514015,95.5530007 126.401369,95.5948611 L109,95.4160088 Z" id="Path-671" stroke="#4A4A4A" stroke-width="2" stroke-linecap="round" stroke-linejoin="round"></path>
        <path d="M74,95.502229 C80.162167,95.502229 80.6734954,95.0247165 81.6096996,95.0012567 C82.70715,94.9737563 83.2541756,95.4057123 90.0225393,95.502229 L74,95.502229 Z" id="Path-671-Copy" stroke="#4A4A4A" stroke-width="2" stroke-linecap="round" stroke-linejoin="round"></path>
        <path d="M109,98.4531404 C111.468164,98.4810832 112.42153,97.9731698 114.889694,98.0011126 C117.180345,98.0270457 119.291878,98.5080211 121.582528,98.5339542 L109,98.4531404 Z" id="Path-672" stroke="#4A4A4A" stroke-width="2" stroke-linecap="round" stroke-linejoin="round"></path>
        <path d="M78,99.3415003 C80.3810499,99.3684569 82.8215644,98.9933506 84.4628467,99.0000897 C86.1018644,99.0068196 87.7447887,99.314581 90.1225533,99.3415003 L78,99.3415003 Z" id="Path-672-Copy" stroke="#4A4A4A" stroke-width="2" stroke-linecap="round" stroke-linejoin="round"></path>
        <path d="M109,103.042863 C110.670587,103.191345 112.637679,102.894381 114.308265,103.042863 L109,103.042863 Z" id="Path-673" stroke="#4A4A4A" stroke-width="2" stroke-linecap="round" stroke-linejoin="round"></path>
        <path d="M83,102.042863 C84.6705866,102.191345 87.7545343,101.894381 89.4251209,102.042863 L83,102.042863 Z" id="Path-673-Copy" stroke="#4A4A4A" stroke-width="2" stroke-linecap="round" stroke-linejoin="round"></path>
        <path d="M78.2324219,81.6621094 C77.7753906,80.6442057 77.3183594,79.6263021 76.8613281,78.6083984" id="Path-675" stroke="#4A4A4A" stroke-width="2" stroke-linecap="round" stroke-linejoin="round"></path>
        <path d="M80.7509766,82.3964844 C80.4690755,80.9147135 80.1871745,79.4329427 79.9052734,77.9511719" id="Path-676" stroke="#4A4A4A" stroke-width="2" stroke-linecap="round" stroke-linejoin="round"></path>
        <path d="M83.34375,82.7734375 C83.1871745,81.5042318 83.030599,80.235026 82.8740234,78.9658203" id="Path-677" stroke="#4A4A4A" stroke-width="2" stroke-linecap="round" stroke-linejoin="round"></path>
        <path d="M67.7294922,111.763672 C69.4957682,111.602865 71.2620443,111.442057 73.0283203,111.28125" id="Path-678" stroke="#4A4A4A" stroke-width="2" stroke-linecap="round" stroke-linejoin="round"></path>
        <path d="M65.7373047,114.856445 C66.8896484,114.721029 68.0419922,114.585612 69.1943359,114.450195" id="Path-679" stroke="#4A4A4A" stroke-width="2" stroke-linecap="round" stroke-linejoin="round"></path>
        <path d="M66.1503906,118.480469 C67.4033203,117.971354 68.65625,117.46224 69.9091797,116.953125" id="Path-680" stroke="#4A4A4A" stroke-width="2" stroke-linecap="round" stroke-linejoin="round"></path>
        <path d="M129.229492,111.299805 C130.288086,111.280599 131.34668,111.261393 132.405273,111.242188" id="Path-681" stroke="#4A4A4A" stroke-width="2" stroke-linecap="round" stroke-linejoin="round"></path>
        <path d="M126.787109,115.18457 C128.916667,114.807943 131.046224,114.431315 133.175781,114.054688" id="Path-682" stroke="#4A4A4A" stroke-width="2" stroke-linecap="round" stroke-linejoin="round"></path>
        <path d="M96.6582031,116.248047 C97.3720703,117.607422 98.0859375,118.966797 98.7998047,120.326172" id="Path-683" stroke="#4A4A4A" stroke-width="2" stroke-linecap="round" stroke-linejoin="round"></path>
        <path d="M101.115234,117.755859 C101.653971,119.192383 102.192708,120.628906 102.731445,122.06543" id="Path-684" stroke="#4A4A4A" stroke-width="2" stroke-linecap="round" stroke-linejoin="round"></path>
        <path d="M105.102539,118.036133 C105.27181,119.015299 105.441081,119.994466 105.610352,120.973633" id="Path-685" stroke="#4A4A4A" stroke-width="2" stroke-linecap="round" stroke-linejoin="round"></path>
        <path d="M120.022461,83.9228516 C119.62793,81.5908203 119.233398,79.2587891 118.838867,76.9267578" id="Path-686" stroke="#4A4A4A" stroke-width="2" stroke-linecap="round" stroke-linejoin="round"></path>
    </g>
</svg>