<?xml version="1.0" encoding="UTF-8"?>
<svg width="200px" height="200px" viewBox="0 0 200 200" version="1.1" xmlns="http://www.w3.org/2000/svg" xmlns:xlink="http://www.w3.org/1999/xlink">
    <!-- Generator: Sketch 48.2 (47327) - http://www.bohemiancoding.com/sketch -->
    <title>icon-news</title>
    <desc>Created with Sketch.</desc>
    <defs></defs>
    <g id="Icons" stroke="none" stroke-width="1" fill="none" fill-rule="evenodd">
        <g id="icon-news">
            <path d="M61.4259905,143.478856 C64.4884305,147.846366 85.4518419,138.721128 97.9835523,136.873308 C109.367269,135.194761 122.684456,138.671509 132.288624,132.81444 C137.689592,129.520679 134.567413,120.925861 133.832513,115.010945 C127.370089,62.9974715 130.838484,86.515893 129.748978,67.6430099 C129.077204,56.0062523 132.08119,46.8048094 126.682315,35.7257595 C125.208521,32.7013821 120.810551,32.8986118 117.208683,33.0999805 C106.42884,33.7026463 94.2086065,33.1574184 83.4796131,34.2911195 C75.2948575,35.1559784 63.4031042,35.0361577 59.1439405,41.5116238 C52.5796155,51.4917671 58.3260532,64.8222572 58.3635504,76.4811678 C58.4045456,89.2277305 62.2209568,111.252467 59.1439405,119.259031 C58.6236804,132.493908 59.3843637,140.567183 61.4259905,143.478856 Z" id="Path-813" fill="#D8D8D8"></path>
            <path d="M135.926208,44.6495056 C141.100861,60.9081822 142.481533,78.8217913 142.63807,95.8180739 C142.715935,104.272454 140.41298,112.692371 140.931177,121.133654 C141.492258,130.273487 148.939822,139.516838 145.855067,148.221984 C144.300829,152.608029 135.875925,149.389987 130.856205,149.565117 C123.391568,149.825546 115.878061,148.834954 108.446171,149.527118 C106.021666,149.752923 75.5884729,159.908514 67.1370129,150.961758 C63.1153521,146.704409 71.2091933,126.514259 71.1023069,119.069323 C70.7430631,94.0469887 76.1628436,110.934915 71.1023069,80.1424993 C69.5490616,70.6912928 64.2519342,65.848832 66.5846588,48.425323 C75.9842497,37.2770069 99.0980993,36.0184011 135.926208,44.6495056 Z" id="Path-815" fill="#EEEEEE"></path>
            <path d="M78.1464242,89.9732488 C77.8322411,93.7079657 77.2095757,97.4315614 77.203875,101.1774 C77.1988429,104.48392 76.0137542,109.975313 79.4149804,111.061681 C82.4372184,112.026999 86.9632316,111.291056 90.160362,111.061681 C95.6034957,110.67117 98.8524331,109.875357 107.024897,107.855632 C107.472458,107.745022 107.362541,88.6815623 107.024897,88.4003622 C100.136205,82.6632494 88.7104067,88.9759802 79.4149804,89.2520514 L78.1464242,89.9732488 Z" id="Path-779" stroke="#4A4A4A" stroke-width="2" stroke-linecap="round" stroke-linejoin="round"></path>
            <path d="M116.974398,130.484122 C116.806524,132.146876 116.473823,133.804679 116.470777,135.472385 C116.468088,136.944499 115.139914,139.389353 116.957249,139.873021 C121.321352,141.034489 132.501119,143.24535 136.030918,140.964129 C136.895766,138.085213 136.895766,135.670763 136.030918,130.163033 C132.350167,127.608781 122.618921,130.040122 117.65221,130.163033 L116.974398,130.484122 Z" id="Path-779-Copy" stroke="#4A4A4A" stroke-width="2" stroke-linecap="round" stroke-linejoin="round"></path>
            <path d="M85,44 L88.5917857,53.4555197 L85,44 Z" id="Path-780" stroke="#4A4A4A" stroke-width="2" stroke-linecap="round" stroke-linejoin="round"></path>
            <path d="M85,44.1995695 C97.2208524,56.1740917 93.1872548,57.9387274 94.1612078,44" id="Path-781" stroke="#4A4A4A" stroke-width="2" stroke-linecap="round" stroke-linejoin="round"></path>
            <path d="M97.9068475,45 C99.3887044,50.8843559 93.1677168,55.6137362 101.225825,54.2048869" id="Path-782" stroke="#4A4A4A" stroke-width="2" stroke-linecap="round" stroke-linejoin="round"></path>
            <path d="M98,45.5199713 L101.478911,45 L98,45.5199713 Z" id="Path-784" stroke="#4A4A4A" stroke-width="2" stroke-linecap="round" stroke-linejoin="round"></path>
            <path d="M113.161208,44 C111.964507,52.2924998 112.007872,53.6150686 112.13338,53.4248506 C112.338557,53.1138885 109.325312,48.3521026 108.182742,48.4233787 C106.724568,48.5143428 104.775064,54.668414 104.130024,53.7284597 C103.484983,52.7885054 105.427296,46.2797213 105.85972,45.0382649" id="Path-785" stroke="#4A4A4A" stroke-width="2" stroke-linecap="round" stroke-linejoin="round"></path>
            <path d="M121.932707,45.8833824 C120.658999,43.4269641 116.1796,46.5921282 117.992606,49.2991751 C118.43343,49.9573815 120.727154,48.7756471 121.476387,49.1239523 C121.774199,49.2623999 122.236618,50.6347582 122.154383,50.9085131 C121.121793,54.3459407 118.434604,53.79158 117.438855,53.2316565 C116.930553,52.9458318 116.916781,51.9395784 117.130282,51.52745" id="Path-786" stroke="#4A4A4A" stroke-width="2" stroke-linecap="round" stroke-linejoin="round"></path>
            <path d="M66,61.9197922 C86.1400902,60.7681192 86.068144,58.2282899 106.215429,57.2523512 C110.691428,57.0355328 133.837539,56.8140064 138.30095,57.2523512 C138.752982,57.2967445 138.726854,58.2196542 138.691145,58.7333477 L139.275593,69.5444303 C139.052656,72.7515714 143.205492,78.6936829 141.674195,80.9434992 C141.356687,81.4099898 117.515338,82.5558623 108.809973,82.5463134 C94.4709131,82.5305849 82.3980463,80.3961188 68.0649934,80.8677228 L66,61.9197922 Z" id="Path-787" fill="#BBBBBB"></path>
            <path d="M116,88.1302808 C122.699301,88.0868539 129.398602,88.0434269 136.097903,88" id="Path-788" stroke="#4A4A4A" stroke-width="2" stroke-linecap="round" stroke-linejoin="round"></path>
            <path d="M113,92.022489 C120.976467,92.0149926 128.952934,92.0074963 136.929401,92" id="Path-789" stroke="#4A4A4A" stroke-width="2" stroke-linecap="round" stroke-linejoin="round"></path>
            <path d="M114,96.7789083 C121.928738,94.9078449 127.799619,97.027557 135.587172,96.7824785 L114,96.7789083 Z" id="Path-790" stroke="#4A4A4A" stroke-width="2" stroke-linecap="round" stroke-linejoin="round"></path>
            <path d="M113,104 C120.546431,104.023006 128.092861,104.046012 135.639292,104.069018 L113,104 Z" id="Path-791" stroke="#4A4A4A" stroke-width="2" stroke-linecap="round" stroke-linejoin="round"></path>
            <path d="M114,100 C121.546431,100.023006 129.092861,100.046012 136.639292,100.069018 L114,100 Z" id="Path-791-Copy" stroke="#4A4A4A" stroke-width="2" stroke-linecap="round" stroke-linejoin="round"></path>
            <path d="M114.136596,109.030585 C113.783992,109.809155 111.765607,110.337219 114.136596,110.645872 C117.967607,111.144589 131.081983,111.161644 135.325371,110.645872 C138.117888,110.306449 136.613354,109.684584 136.613354,109 L114.136596,109.030585 Z" id="Path-792" stroke="#4A4A4A" stroke-width="2" stroke-linecap="round" stroke-linejoin="round"></path>
            <path d="M80,119 C86.1375488,119.087112 92.2750977,119.174225 98.4126465,119.261337" id="Path-793" stroke="#4A4A4A" stroke-width="2" stroke-linecap="round" stroke-linejoin="round"></path>
            <path d="M80,124 C89.0352962,124.247895 98.0705924,124.495791 107.105889,124.743686" id="Path-794" stroke="#4A4A4A" stroke-width="2" stroke-linecap="round" stroke-linejoin="round"></path>
            <path d="M80,128 C89.4091628,128.214808 98.8183255,128.429617 108.227488,128.644425" id="Path-795" stroke="#4A4A4A" stroke-width="2" stroke-linecap="round" stroke-linejoin="round"></path>
            <path d="M80,132 C86.3053384,132.173966 92.6106767,132.347933 98.9160151,132.521899" id="Path-796" stroke="#4A4A4A" stroke-width="2" stroke-linecap="round" stroke-linejoin="round"></path>
            <path d="M81,137 C89.7807967,137.286411 98.5615934,137.572822 107.34239,137.859233" id="Path-797" stroke="#4A4A4A" stroke-width="2" stroke-linecap="round" stroke-linejoin="round"></path>
            <path d="M83,142 C91.6510132,142.181721 100.302026,142.363442 108.95304,142.545163" id="Path-798" stroke="#4A4A4A" stroke-width="2" stroke-linecap="round" stroke-linejoin="round"></path>
            <path d="M138,61.5521425 C141.797223,61.368095 145.594446,61.1840475 149.391669,61" id="Path-799" stroke="#4A4A4A" stroke-width="2" stroke-linecap="round" stroke-linejoin="round"></path>
            <path d="M139,65.5443877 C140.370469,65.3629251 141.740937,65.1814626 143.111406,65" id="Path-800" stroke="#4A4A4A" stroke-width="2" stroke-linecap="round" stroke-linejoin="round"></path>
            <path d="M138,69 C140.692233,69.0537667 143.384467,69.1075334 146.0767,69.1613001" id="Path-801" stroke="#4A4A4A" stroke-width="2" stroke-linecap="round" stroke-linejoin="round"></path>
            <path d="M64.5902623,51.5218988 C62.7268415,51.3479325 60.8634208,51.1739663 59,51" id="Path-802" stroke="#4A4A4A" stroke-width="2" stroke-linecap="round" stroke-linejoin="round"></path>
            <path d="M63.8436944,54.0767726 C62.8957962,54.0511818 61.9478981,54.0255909 61,54" id="Path-803" stroke="#4A4A4A" stroke-width="2" stroke-linecap="round" stroke-linejoin="round"></path>
            <path d="M81,40.5990077 C81.059402,39.3993385 81.118804,38.1996692 81.178206,37" id="Path-804" stroke="#4A4A4A" stroke-width="2" stroke-linecap="round" stroke-linejoin="round"></path>
            <path d="M84,41.309719 C84.4495971,39.5398127 84.8991941,37.7699063 85.3487912,36" id="Path-805" stroke="#4A4A4A" stroke-width="2" stroke-linecap="round" stroke-linejoin="round"></path>
            <path d="M71.9822247,154 C71.3214832,155.455578 70.6607416,156.911156 70,158.366734" id="Path-806" stroke="#4A4A4A" stroke-width="2" stroke-linecap="round" stroke-linejoin="round"></path>
            <path d="M74.2998057,156 C73.8665371,156.997786 73.4332686,157.995571 73,158.993357" id="Path-807" stroke="#4A4A4A" stroke-width="2" stroke-linecap="round" stroke-linejoin="round"></path>
            <path d="M69.6535665,152.183789 C67.1023777,152.122526 64.5511888,152.061263 62,152" id="Path-808" stroke="#4A4A4A" stroke-width="2" stroke-linecap="round" stroke-linejoin="round"></path>
            <path d="M123.552354,148 C123.368236,149.040954 123.184118,150.081908 123,151.122862" id="Path-809" stroke="#4A4A4A" stroke-width="2" stroke-linecap="round" stroke-linejoin="round"></path>
            <path d="M126.251665,149 C125.834443,149.910673 125.417222,150.821347 125,151.73202" id="Path-810" stroke="#4A4A4A" stroke-width="2" stroke-linecap="round" stroke-linejoin="round"></path>
            <path d="M145,146 C146.85779,146.189217 148.71558,146.378435 150.573371,146.567652" id="Path-811" stroke="#4A4A4A" stroke-width="2" stroke-linecap="round" stroke-linejoin="round"></path>
            <path d="M69.9305881,99 C67.2870587,99.1023635 64.6435294,99.204727 62,99.3070905" id="Path-812" stroke="#4A4A4A" stroke-width="2" stroke-linecap="round" stroke-linejoin="round"></path>
            <path d="M65,49.6820118 C71.2833161,106.403987 73.8766109,94.8365304 71.5064595,133.374922 C71.1002001,139.980653 66.3941266,151.431437 71.4775012,153.433259 C81.961435,157.561808 91.6600221,147.469729 101.945989,145.361941 C116.672879,142.344124 128.979851,154.083334 143.009126,148.389392 C145.498419,147.379084 143.229431,141.3062 142.500123,137.821751 C141.299498,132.085472 141.181493,116.577606 140.75565,110.77156 C140.112149,101.997907 143.206441,93.8356216 142.848152,85.0774455 C142.578417,78.4839408 139.71276,72.0692156 138.902371,65.4691947 C138.357431,61.031063 139.193923,56.6607731 138.813513,52.2183067 C138.521698,48.8104542 139.515307,42.328137 136.899649,42.081161 C112.592002,39.7859822 88.4559882,34.9539736 67.8908045,45.7720173 L65,49.6820118 Z" id="Path-778" stroke="#4A4A4A" stroke-width="2" stroke-linecap="round" stroke-linejoin="round"></path>
        </g>
    </g>
</svg>