<svg id="Layer_1" data-name="Layer 1" xmlns="http://www.w3.org/2000/svg" viewBox="0 0 378.9 446.7"><defs><style>.cls-1{fill:#231f20;}</style></defs><title>icon-</title><path class="cls-1" d="M95.7,24.6c3,3.2,5.8,6.4,8.5,9.8s5.4,6.7,8,10.1q7.6,10.5,14.7,21.3c4.7,7.3,9.2,14.7,13.4,22.3,2.1,3.8,4.2,7.5,6.2,11.4l3,5.8c1,1.9,1.9,3.9,2.9,5.8l2.8,5.9,2.7,6,2.7,5.9c.9,2,1.6,4,2.5,6,3.4,8.1,6.4,16.3,9.3,24.5a437.4,437.4,0,0,1,14.2,50.7l1.4,6.4.7,3.2c.3,1.1.5,2.2.7,3.3l2.6,12.9c.9,4.4,1.6,8.8,2.3,13.1l1.1,6.6.9,6.6a214.4,214.4,0,0,1,.4,53.1c-.6,4.4-1.2,8.8-1.9,13.1l-.6,3.3c-.1,1.1-.3,2.2-.5,3.3l-1.5,6.5q-1.3,6.5-3,12.9l-3.9,12.7c-1.4,4.2-2.8,8.4-4.5,12.5s-3.4,8.2-5.2,12.2l-1.3,3-1.5,3c-1.1,2-2.1,4-3.2,5.9-2.1,3.9-4.4,7.8-6.8,11.5a2.1,2.1,0,0,1-3.9-.9h0c-.5-4.5-.7-8.9-.8-13.2-.1-2.2-.1-4.4-.2-6.5v-3.2l-.2-3.3c-.1-4.3-.2-8.5-.2-12.7v-3.2c0-1,.1-2.1,0-3.1s-.1-4.3-.2-6.3V350.2c-.1-4.2-.2-8.3-.2-12.4-.1-2.1,0-4.1,0-6.2s-.1-4.1-.2-6.1c-.1-4.1-.1-8.2-.2-12.3.1-2,0-4.1-.1-6.1s-.1-4.1-.1-6.1v-6.1c.1-2,0-4,0-6.1-.1-4,0-8.1.1-12.1.1-2.1,0-4.1.1-6.1V243c0-1,0-2-.1-3.1l-.6-12.3c-.1-2-.3-4.1-.5-6.1l-.7-6.1-.6-6.1-.9-6.1-.9-6.1-.5-3.1-.5-3-2.2-12.2-2.6-12.1c-1.7-8.1-3.7-16.2-5.9-24.2-.5-2-1-4-1.6-6l-1.8-5.9c-.6-2-1.1-4-1.7-6l-2-6a474.1,474.1,0,0,0-17.9-46.8c-3.4-7.7-7-15.3-10.9-22.7s-8-15-12.4-22h0a2.1,2.1,0,0,1,.6-2.8A2,2,0,0,1,95.7,24.6Z"/><path class="cls-1" d="M31.1,231.3a128.3,128.3,0,0,1,12.1,8.2c2,1.4,3.8,2.9,5.7,4.4s3.8,3,5.7,4.6,3.7,3,5.5,4.7l5.4,4.8,2.7,2.5,2.6,2.5,5.2,5.1c1.8,1.7,3.4,3.4,5.1,5.2l5,5.2,2.5,2.7,2.4,2.7,4.8,5.5,4.8,5.4,4.6,5.7,4.6,5.7,2.3,2.8,2.2,2.9,8.7,11.7c1.5,1.9,2.8,3.9,4.2,5.9l4.1,6,4.1,6.1,2.1,3,1.9,3.1,7.7,12.4c2.7,4.1,5,8.3,7.4,12.6l7.2,12.7c4.5,8.6,8.9,17.3,13.3,26l-25.9-3.1c6.4-9.3,12.9-18.6,19.2-27.9s12.4-18.9,18.5-28.5l9.3-14.2c3.1-4.7,6.3-9.5,9.6-14.1,6.5-9.3,13.4-18.3,20.8-27.1s15-17.4,23.2-25.8a284.6,284.6,0,0,1,26.1-23.9l3.6-2.8,3.7-2.8c2.5-1.7,4.9-3.5,7.6-5.1a113.9,113.9,0,0,1,16.6-8.8,66.4,66.4,0,0,1,18.6-4.9,43.4,43.4,0,0,1,18.7,1.9,2,2,0,0,1,1.2,2.6,2.2,2.2,0,0,1-1.4,1.4h-.1a50,50,0,0,0-14.8,6,68.1,68.1,0,0,0-12,9.4,115.3,115.3,0,0,0-10.6,11.4c-3.4,4-6.7,8.2-9.9,12.5-12.9,17.3-25.1,35.7-38.1,53.9-6.5,9.1-13.2,18.1-20.3,26.9-3.5,4.4-7.1,8.7-10.7,13.1l-11,12.9c-7.4,8.6-14.8,17.2-22.1,25.9l-21.6,26.2-.7.8a15,15,0,0,1-25.3-3.9l-5.2-13-2.6-6.5-1.3-3.2c-.5-1.1-.9-2.2-1.4-3.2L131,384.7c-1.9-4.3-3.7-8.6-5.8-12.7-4.2-8.4-8.1-16.9-12.7-25.1l-3.3-6.2c-1.1-2-2.1-4.1-3.4-6.1l-7-12.1L97,319.4l-1.9-3-3.7-5.9-3.8-5.9-3.9-5.8-4-5.8-2-2.9-2.1-2.9-4.2-5.6-4.3-5.7c-5.8-7.4-11.7-14.6-18.1-21.6a219.8,219.8,0,0,0-20.1-19.7h-.1a1.9,1.9,0,0,1-.2-2.8A2,2,0,0,1,31.1,231.3Z"/></svg>