<?xml version="1.0" encoding="UTF-8"?>
<svg width="200px" height="200px" viewBox="0 0 200 200" version="1.1" xmlns="http://www.w3.org/2000/svg" xmlns:xlink="http://www.w3.org/1999/xlink">
    <!-- Generator: Sketch 48.2 (47327) - http://www.bohemiancoding.com/sketch -->
    <title>icon-plan</title>
    <desc>Created with Sketch.</desc>
    <defs></defs>
    <g id="Icons" stroke="none" stroke-width="1" fill="none" fill-rule="evenodd">
        <g id="icon-plan">
            <path d="M41.0126202,67.1357764 C40.902324,57.8209997 32.2623566,43.1778425 40.6817316,39.1914465 C57.5770928,31.1918503 78.0470675,40.7524063 96.7405627,40.7497742 C112.877407,40.747502 148.429088,34.4462119 160.384621,39.374223 C165.634386,41.5381502 160.660887,50.7273785 160.79902,56.4039562" id="Path-459" stroke="#4A4A4A" stroke-width="2" fill="#EEEEEE"></path>
            <path d="M41.2594805,133 C41.2594805,141.838402 36.1756494,152.285268 41.2594805,159.515206 C44.6136171,164.285271 52.8413653,158.065256 58.6642207,157.752043 C63.7813945,157.476788 68.9261922,157.389667 74.0379352,157.752043 C82.6899742,158.365393 91.2280222,160.320112 99.8945156,160.674892 C147.70821,162.63224 165.506032,178.907858 157.908741,146.263906" id="Path-460" stroke="#4A4A4A" stroke-width="2" fill="#EEEEEE"></path>
            <path d="M46.9535739,116.54693 C47.2884247,170.657952 30.3123058,143.661243 84.1680052,141.152437 C96.4480555,140.580385 103.337455,151.267301 115.630784,151.236661 C125.679185,151.211616 148.177904,157.706486 158.195169,158.497302 C161.39585,158.74998 159.161763,115.074416 160.096991,112.003007 C162.706069,103.434449 158.284007,94.1559936 158.195169,85.1994547 C157.80722,46.0866852 174.709137,53.8972271 115.630784,53.2180041 C93.3683918,52.9620537 69.2121094,61.9491731 46.9535739,61.462137 C45.3423288,61.4268816 43.3931364,61.7788965 42.3810086,63.03307 C41.5237392,64.0953515 42.3810086,65.7631635 42.3810086,67.1282103 L46.9535739,116.54693 Z" id="Path-463" fill="#EEEEEE"></path>
            <path d="M33.0501051,86.0871881 C34.617099,140.138628 31.2425005,130.861142 50.7518572,130.861142 C61.2394501,130.861142 62.449557,132.071249 60.1687892,107.333387 C57.1116472,74.1747487 59.5487257,76.8097021 45.8728055,77.2130711 C36.7555253,77.4819837 32.4812919,80.4400227 33.0501051,86.0871881 Z" id="Path-705" fill="#FFFFFF"></path>
            <path d="M70.0501051,79.4961023 C71.617099,153.824081 68.2425005,141.066294 87.7518572,141.066294 C98.2394501,141.066294 99.449557,142.730353 97.1687892,108.712476 C94.1116472,63.1149006 96.5487257,66.7383149 82.8728055,67.2930013 C73.7555253,67.6627923 69.4812919,71.7304926 70.0501051,79.4961023 Z" id="Path-705-Copy" fill="#FFFFFF"></path>
            <path d="M109.050105,81.094608 C110.617099,141.138275 107.242501,130.832273 126.751857,130.832273 C137.23945,130.832273 138.449557,132.176534 136.168789,104.696194 C133.111647,67.861537 135.548726,70.7886054 121.872805,71.2366925 C112.755525,71.5354172 108.481292,74.821389 109.050105,81.094608 Z" id="Path-705-Copy-2" fill="#FFFFFF"></path>
            <path d="M145.050105,81.9577232 C146.617099,153.083373 143.242501,140.875239 162.751857,140.875239 C173.23945,140.875239 174.449557,142.467604 172.168789,109.915345 C169.111647,66.2822853 171.548726,69.7495893 157.872805,70.2803777 C148.755525,70.6342367 144.481292,74.5266852 145.050105,81.9577232 Z" id="Path-705-Copy-3" fill="#FFFFFF"></path>
            <path d="M25.1300411,74.8130818 C25.1300411,92.3133982 21.7981594,85.685652 48.8649953,85.7316177 C53.1790772,85.738944 58.8368749,88.0334953 61.7791046,84.8783978 C64.4198624,82.0465835 64.1347911,74.4294566 60.4185222,73.3422032 C49.0898925,70.0278331 36.8172364,73.8626962 25.0165936,74.1229427" id="Path-453" fill="#D8D8D8"></path>
            <path d="M69.8196715,56.0859144 C73.800839,56.0859144 77.6233493,55.6124669 81.5930029,55.3099018 C86.6880581,54.9215592 91.8467499,54.2211839 96.9525365,54.0178607 C98.4472293,53.9583388 100.58078,53.9721447 101.250149,55.3099018 C102.338542,57.4850922 102.394389,65.7829611 99.744606,65.9842104 C67.8784584,68.4044242 67.9545602,72.9919755 69.5258109,56.7792048 L69.8196715,56.0859144 Z" id="Path-454" fill="#D8D8D8"></path>
            <path d="M108.918579,71.6226861 C118.336152,70.859804 126.006148,69.069329 134.682884,69 L136.138961,80.5558904 C126.608725,84.2220586 118.302025,81.5044377 108,80.5558904" id="Path-455" fill="#D8D8D8"></path>
            <path d="M145.455262,62.4295951 C147.875475,59.6060124 165.623709,58.7992745 174.244145,62.4295951 C175.012622,62.7532236 174.244145,74.5306638 174.244145,71.5589691 C155.225536,74.0837218 144.822504,74.5364614 143.035048,72.917188 C140.540737,70.6575679 143.035048,65.2531778 145.455262,62.4295951 Z" id="Path-456" fill="#D8D8D8"></path>
            <path d="M29.6233554,98.2584239 C29.6233554,110.320206 29.3781924,103.420944 29.6233554,115.480017 C30.0356398,135.759447 27.923627,127.754712 49.0865799,129.653774 C51.1014428,129.834578 53.1230562,131.703005 55.0201882,130.972658 C56.2089744,130.515006 61.220447,132.287295 61.3476815,130.972658 C62.1558638,122.622195 59.5326051,108.854118 60.4211772,100.512539 C64.1374226,65.6258354 71.6017481,73.3313124 45.1947795,73.841146 C40.0382125,73.9407027 34.2873242,70.3690299 29.7476132,72.921009 C27.1174216,74.3995599 27.9935283,80.2255003 28.9200325,83.7676817 L29.6233554,98.2584239 Z" id="Path-450" stroke="#4A4A4A" stroke-width="2"></path>
            <path d="M69.5036857,58.2122731 C69.5346981,79.8788921 69.1546478,101.563307 69.596723,123.21213 C69.7017395,128.354885 68.2030523,133.924458 69.596723,138.259526 C70.1124206,139.863624 71.7383834,142.410348 72.6849104,142.134483 C73.9773272,141.757809 77.588986,141.731368 78.8793888,142.134483 C83.7115469,143.644027 87.3095865,140.73022 92.1497461,142.134483 C94.4270951,142.795205 101.592476,145.28001 99.5276499,133.30389 C97.4628238,121.327771 99.7327095,79.1176831 101.592476,57.3174772 C101.927755,53.3873356 95.8155765,56.9190125 94.159102,54.6794878 C91.4264777,50.9850271 84.6592658,54.51353 81.3571801,54.6794878 C76.7144028,54.9128266 75.5485062,55.2302262 70.91558,55.8757 L69.5036857,58.2122731 Z" id="Path-451" stroke="#4A4A4A" stroke-width="2"></path>
            <path d="M107.957092,73.255999 C108.038196,85.5913464 105.979669,98.0887435 106.000152,110.534637 C106.009063,115.949164 107.630919,121.389961 107.957092,126.743276 C108.041474,128.128185 110.153751,128.348493 111.330555,128.622851 C115.100874,129.501856 119.011594,129.195079 122.828046,129.746925 C127.550141,130.429724 133.138172,135.650551 136.929598,132.324386 C140.426372,129.256716 137.390279,122.174086 137.242779,117.101083 C136.89997,105.310786 135.986783,108.959957 136.929598,97.194478 C137.764368,86.7773026 138.223564,90.5196148 137.280094,79.903864 C136.97893,76.5152214 138.721825,71.5278341 136.203731,69.7604756 C132.983443,67.5002726 128.736494,70.969069 124.978551,71.2698595 C119.8462,71.6806593 114.695577,71.6856507 109.55409,71.8935463 L107.957092,73.255999 Z" id="Path-452" stroke="#4A4A4A" stroke-width="2"></path>
            <path d="M173.516854,132.895632 C172.203652,116.165679 174.60779,104.588389 174.587319,89.3977532 C174.578413,82.7891393 172.203652,74.3407952 174.587319,62.7162985 C174.89814,61.2005082 171.191126,61.2916955 170.014982,60.9568325 C166.246776,59.8839771 162.108048,61.6303795 158.293735,60.9568325 C153.574288,60.1234532 147.464513,58.656601 143.675212,62.7162985 C140.1804,66.460494 143.21479,75.1050838 143.362208,81.2968563 C143.704824,95.6873151 144.617499,91.233377 143.675212,105.593544 C142.84091,118.308061 142.381972,113.740441 143.324914,126.697326 C143.625909,130.833279 141.88399,136.920555 144.400673,139.077676 C147.619156,141.83633 154.609286,141.627734 158.365122,141.260609 C163.494596,140.759213 173.516854,143.351853 173.516854,137.914618 L173.516854,132.895632 Z" id="Path-452-Copy" stroke="#4A4A4A" stroke-width="2"></path>
            <path d="M111,105.599469 C111,108.423052 113.399329,106.406207 132.469155,106.406207 C134.889369,106.406207 134.486,100.759042 133.182535,101.007996 C127.580209,102.078008 118.394178,101.792937 111,102.185408 L111,105.599469 Z" id="Path" stroke="#4A4A4A" stroke-width="2"></path>
            <path d="M32.8302595,98.0530845 C33.5122211,99.5125886 55.5068992,100.678543 56.7549815,98.0530845 C57.722368,96.0180963 58.5558023,92.0476606 56.7549815,90.2115518 C54.8247486,88.2434949 33.3015015,88.9915461 32.8302595,90.2115518 C31.3654182,94.003902 32.1482979,96.5935804 32.8302595,98.0530845 Z" id="Path-457" stroke="#4A4A4A" stroke-width="2"></path>
            <path d="M32.2908651,118.427858 C32.6122746,119.524108 37.7718192,119.023189 43.1583053,119.32802 C49.2007819,119.669975 55.5557278,120.640029 56.2155871,118.427858 C56.6377805,117.01246 56.05226,114.509773 56.2155871,112.45852 C56.4264972,109.809667 57.2304814,107.579971 56.2155871,105.930844 C54.2853542,102.794361 32.7621071,103.986527 32.2908651,105.930844 C31.6485844,108.580858 32.2668717,110.53574 32.2908651,112.45852 C32.3215932,114.921 31.9079194,117.121724 32.2908651,118.427858 Z" id="Path-457-Copy" stroke="#4A4A4A" stroke-width="2"></path>
            <path d="M72.3936805,71.7071407 C71.5164385,77.8346151 69.3011603,86.890424 73.3722626,88.2340672 C77.9888699,89.7577511 85.7033678,90.2954352 96.5157564,89.8471193 C97.02057,87.0283012 97.5153178,80.9789872 98,71.6991772 C92.5081546,70.7642939 83.9727147,70.7669485 72.3936805,71.7071407 Z" id="Path-458" stroke="#4A4A4A" stroke-width="2"></path>
            <path d="M72.3420627,92.2233076 C71.4973112,94.1582995 69.3640803,97.0180286 73.2844011,97.442337 C77.7300228,97.9235004 85.1587986,98.0932953 95.5707284,97.9517219 C96.0568452,97.0615688 96.533269,95.1512591 97,92.2207928 C91.7115562,91.9255665 83.4922438,91.9264048 72.3420627,92.2233076 Z" id="Path-458-Copy" stroke="#4A4A4A" stroke-width="2"></path>
            <path d="M147.571402,76.3603014 C146.732641,79.4823641 146.642226,84.7810792 148.507057,84.7810792 C153.382525,84.7810792 160.758617,85.0550393 170.635334,85.6029594 C171.118004,84.1667189 171.322136,81.0844804 171.247732,76.3562438 C165.996793,75.8799034 158.104683,75.8812559 147.571402,76.3603014 Z" id="Path-458-Copy-3" stroke="#4A4A4A" stroke-width="2"></path>
            <path d="M72.3420627,101.223308 C71.4973112,103.158299 69.3640803,106.018029 73.2844011,106.442337 C77.7300228,106.9235 85.1587986,107.093295 95.5707284,106.951722 C96.0568452,106.061569 96.533269,104.151259 97,101.220793 C91.7115562,100.925567 83.4922438,100.926405 72.3420627,101.223308 Z" id="Path-458-Copy-2" stroke="#4A4A4A" stroke-width="2"></path>
            <path d="M171.425935,98.242658 C161.300919,98.7189985 153.612941,98.7189985 148.362002,98.242658 C147.879333,93.5171265 147.879333,90.4362405 148.362002,89 C162.743932,89 170.120024,89.2739601 170.490279,89.8218802 C171.324325,91.0561396 172.264695,95.1205954 171.425935,98.242658 Z" id="Path-458-Copy-4" stroke="#4A4A4A" stroke-width="2"></path>
            <path d="M110.094366,91.6476097 C110.094366,96.9986662 107.774991,99.9011732 126.133656,98.2087731 C130.371093,97.8181435 133.394297,98.6121421 133.797666,97.8054042 C134.684511,96.0317155 135.690292,85.4656637 132.587559,85.7043354 C127.343763,86.1077044 129.783647,85.9648652 122.906704,85.7043354 C119.351056,85.5696314 114.672609,84.4859667 111.209005,85.3009665 C109.914306,85.6056141 109.943628,89.6480972 110.30708,90.9275331 L110.094366,91.6476097 Z" id="Path-461" stroke="#4A4A4A" stroke-width="2"></path>
            <path d="M110.610958,110.608563 C110.610958,113.311082 108.600721,117.527286 111.873062,117.527286 C117.252365,117.527286 124.513532,117.527286 133.656561,117.527286 C133.797691,114.546392 133.656561,111.748553 133.656561,110.608563 C133.656561,109.468573 127.715085,110.236706 124.782444,110.468329 C120.031894,110.843531 116.638383,110.453623 111.873062,110.468329 L110.610958,110.608563 Z" id="Path-462" stroke="#4A4A4A" stroke-width="2"></path>
            <path d="M126,159 C126.282568,161.458555 126.565137,163.91711 126.847705,166.375664" id="Path-687" stroke="#4A4A4A" stroke-width="2" stroke-linecap="round" stroke-linejoin="round"></path>
            <path d="M130,163 C130.52522,164.611375 131.05044,166.22275 131.57566,167.834125" id="Path-688" stroke="#4A4A4A" stroke-width="2" stroke-linecap="round" stroke-linejoin="round"></path>
            <path d="M135,163 C136.081428,164.959071 137.162856,166.918141 138.244284,168.877212" id="Path-689" stroke="#4A4A4A" stroke-width="2" stroke-linecap="round" stroke-linejoin="round"></path>
            <path d="M164,45 C165.455385,45.1875035 166.910769,45.3750071 168.366154,45.5625106" id="Path-690" stroke="#4A4A4A" stroke-width="2" stroke-linecap="round" stroke-linejoin="round"></path>
            <path d="M161,42.7326819 C162.677553,42.4884546 164.355105,42.2442273 166.032658,42" id="Path-691" stroke="#4A4A4A" stroke-width="2" stroke-linecap="round" stroke-linejoin="round"></path>
            <path d="M60.1229581,37.8630308 C59.0819721,35.9086872 58.040986,33.9543436 57,32" id="Path-692" stroke="#4A4A4A" stroke-width="2" stroke-linecap="round" stroke-linejoin="round"></path>
            <path d="M62.7279549,36.3005202 C62.4853033,34.5336801 62.2426516,32.7668401 62,31" id="Path-693" stroke="#4A4A4A" stroke-width="2" stroke-linecap="round" stroke-linejoin="round"></path>
            <path d="M55.0875881,36.5683721 C50.3593492,31.0657446 51.2075798,31.8160067 56.6333105,39.5936393" id="Path-694" stroke="#4A4A4A" stroke-width="2" stroke-linecap="round" stroke-linejoin="round"></path>
            <path d="M41.4254848,153.436458 C40.2836565,153.290972 39.1418283,153.145486 38,153" id="Path-695" stroke="#4A4A4A" stroke-width="2" stroke-linecap="round" stroke-linejoin="round"></path>
            <path d="M42.2442839,149.806738 C41.1628559,149.537825 40.081428,149.268913 39,149" id="Path-696" stroke="#4A4A4A" stroke-width="2" stroke-linecap="round" stroke-linejoin="round"></path>
            <path d="M73,155 C73.6370919,156.460637 74.2741837,157.921274 74.9112756,159.38191" id="Path-697" stroke="#4A4A4A" stroke-width="2" stroke-linecap="round" stroke-linejoin="round"></path>
            <path d="M79,156 C79.52522,157.413892 80.05044,158.827784 80.57566,160.241677" id="Path-698" stroke="#4A4A4A" stroke-width="2" stroke-linecap="round" stroke-linejoin="round"></path>
            <path d="M84,157 C84.4952825,158.714843 84.9905649,160.429687 85.4858474,162.14453" id="Path-699" stroke="#4A4A4A" stroke-width="2" stroke-linecap="round" stroke-linejoin="round"></path>
            <path d="M121.273133,38.4854165 C120.848756,36.323611 120.424378,34.1618055 120,32" id="Path-700" stroke="#4A4A4A" stroke-width="2" stroke-linecap="round" stroke-linejoin="round"></path>
            <path d="M126,38.8183682 C126.110821,37.2122455 126.221643,35.6061227 126.332464,34" id="Path-701" stroke="#4A4A4A" stroke-width="2" stroke-linecap="round" stroke-linejoin="round"></path>
            <path d="M129,40.8404275 C129.353473,40.450189 131.47011,36.3902385 131.823583,36 L129,40.8404275 Z" id="Path-702" stroke="#4A4A4A" stroke-width="2" stroke-linecap="round" stroke-linejoin="round"></path>
            <path d="M39.3351847,57 C37.5567898,57.1817261 35.7783949,57.3634522 34,57.5451784" id="Path-703" stroke="#4A4A4A" stroke-width="2" stroke-linecap="round" stroke-linejoin="round"></path>
            <path d="M163,155.669655 C164.687532,155.446437 166.375064,155.223218 168.062596,155" id="Path-704" stroke="#4A4A4A" stroke-width="2" stroke-linecap="round" stroke-linejoin="round"></path>
            <path d="M60.3123401,109.680855 L68.0426114,103.630321 C64.4375763,101.655231 63.2175971,101.244771 60.3123401,100 C60.9549281,103.66945 59.3584093,109.277486 60.3123401,109.680855 Z" id="Path-706" stroke="#4A4A4A" fill="#4A4A4A" stroke-linecap="round" stroke-linejoin="round"></path>
            <path d="M98.1080145,104.66401 L104.379234,100.832005 C102.164462,98.8569153 100.920298,98.2447714 99.1354379,97 C99.5302152,100.66945 97.5219621,104.260641 98.1080145,104.66401 Z" id="Path-706-Copy" stroke="#4A4A4A" fill="#4A4A4A" stroke-linecap="round" stroke-linejoin="round"></path>
            <path d="M138.10866,97 L143.453903,101.490127 C139.814947,103.401999 139.926539,104.662239 137,105.856117 C137.706531,102.198441 137.147835,97.3866591 138.10866,97 Z" id="Path-706-Copy-2" stroke="#4A4A4A" fill="#4A4A4A" stroke-linecap="round" stroke-linejoin="round"></path>
        </g>
    </g>
</svg>