<svg width="36" height="80" viewBox="0 0 36 80" fill="none" xmlns="http://www.w3.org/2000/svg">
<rect y="58" width="36" height="22" fill="#434D5A"/>
<path d="M18 48L0 58H36L18 48Z" fill="#434D5A"/>
<rect x="7" width="22" height="74" rx="3" fill="white"/>
<path d="M18 70L0 80H36L18 70Z" fill="#70C1DB"/>
<path d="M18 70L36 58V80L18 70L0 80V58L18 70Z" fill="#70C1DB"/>
<rect x="9" y="19" width="18" height="1" fill="#434D5A"/>
<rect x="9" y="15" width="8" height="1" fill="#434D5A"/>
<rect x="9" y="11" width="18" height="1" fill="#434D5A"/>
<rect x="9" y="7" width="8" height="1" fill="#434D5A"/>
<rect x="9" y="23" width="18" height="1" fill="#434D5A"/>
<rect x="9" y="27" width="8" height="1" fill="#434D5A"/>
<rect x="9" y="31" width="18" height="1" fill="#434D5A"/>
<rect x="9" y="35" width="18" height="1" fill="#434D5A"/>
<rect x="9" y="51" width="8" height="1" fill="#434D5A"/>
<rect x="9" y="39" width="18" height="9" rx="1" fill="#434D5A"/>
</svg>
