<?xml version="1.0" encoding="UTF-8"?>
<svg width="200px" height="200px" viewBox="0 0 200 200" version="1.1" xmlns="http://www.w3.org/2000/svg" xmlns:xlink="http://www.w3.org/1999/xlink">
    <!-- Generator: Sketch 48.2 (47327) - http://www.bohemiancoding.com/sketch -->
    <title>icon-cheese</title>
    <desc>Created with Sketch.</desc>
    <defs></defs>
    <g id="Icons" stroke="none" stroke-width="1" fill="none" fill-rule="evenodd">
        <g id="icon-cheese">
            <path d="M139.198096,42.788585 C143.954099,40.8987028 153.600823,43.3070527 157.285973,48.269576 C162.482318,55.2671139 146.281115,63.1158118 147.226868,72.1070313 C148.687473,85.9929273 168.167146,92.482207 166.219898,107.596904 C164.407961,121.661301 148.485193,137.260567 135.898424,137.260567 C114.271878,137.260567 119.71038,147.84319 106.511693,155.369689 C95.4711507,161.665514 74.6889439,160.234718 64.1463025,156.173173 C43.0889248,148.060835 52.7886447,133.372376 48.2336744,116.899566 C45.8731585,108.362884 36.3663724,105.622027 33.6495645,96.4103405 C31.0867911,87.720928 35.4958128,67.1730118 57.9445278,61.9925391 C68.0446043,59.6617522 57.1675988,48.269576 69.9869267,41.4039215 C82.8062547,34.538267 106.511693,55.7771074 139.198096,42.788585 Z" id="Path-728" fill="#D8D8D8"></path>
            <path d="M78.7165562,68.8629971 C84.2445879,66.5782392 89.380326,62.8625393 95.3006512,62.0087234 C96.8178364,61.7899184 95.7303652,65.7558452 97.1982092,66.1976148 L102.614709,69.7643561 C112.324804,69.7643561 117.84492,68.0406414 122.031105,67.602005 C123.32561,67.4663643 124.744936,67.6038426 125.884642,68.232501 C128.200231,69.5097727 130.763017,70.8787463 132.103867,73.1581093 C140.580445,87.5677675 119.946985,79.4681261 123.753398,89.6299138 C125.365093,93.9325738 138.12512,88.406605 137.98698,93.2262451 C137.921302,95.5177138 135.958959,97.4072342 135.578045,99.6677753 C135.085557,102.590449 137.078176,107.451404 135.578045,110.007607 C135.104432,110.814636 125.884642,122.826935 118.540235,124.380793 C117.279136,124.647604 115.689283,119.963065 114.410524,120.107684 C100.670869,121.661542 117.763306,130.596225 91.3477216,126.71158 C85.734882,125.886162 63.3782789,113.892252 67.5049553,92.1298952 C68.6071187,86.3175486 91.1645491,90.8924599 85.0814557,78.2559469 C83.8789495,75.7579604 81.3151711,74.1866803 79.4320289,72.152047 L78.7165562,68.8629971 Z" id="Path-732" fill="#F4F4F4"></path>
            <path d="M79.8395897,70 C73.1535603,73.5065317 69.5921967,82.8710762 70.0372281,90.3629199" id="Path-713" stroke="#4A4A4A" stroke-width="2" stroke-linecap="round" stroke-linejoin="round"></path>
            <path d="M95,62.903908 C104.79047,61.0717012 104.832861,60.2459638 115.198707,61.8687717 C119.26301,62.5050519 119.317991,68.597471 123.00938,67.9771599" id="Path-714" stroke="#4A4A4A" stroke-width="2" stroke-linecap="round" stroke-linejoin="round"></path>
            <path d="M134,85 C136.374715,90.0058965 136.578316,87.7828434 135.094752,91.6069879" id="Path-715" stroke="#4A4A4A" stroke-width="2" stroke-linecap="round" stroke-linejoin="round"></path>
            <path d="M106,126.49354 C112.335751,123.891144 108.957557,124.778548 116.177395,124" id="Path-716" stroke="#4A4A4A" stroke-width="2" stroke-linecap="round" stroke-linejoin="round"></path>
            <path d="M83.2816344,102.14981 C80.4066008,102.573767 77.9310439,107.154356 82.6247835,107.587798 C90.7237454,108.335695 89.7267155,100.945098 82.2080192,102.128674" id="Path-717" stroke="#4A4A4A" stroke-width="2" fill="#FFFFFF" stroke-linecap="round" stroke-linejoin="round"></path>
            <path d="M100.417414,79.6659558 C97.9200794,80.775882 99.1830587,82.2638685 100.694895,82.718253 C102.039316,83.1223205 104.438734,83.3782123 102.914748,80.4984005 C102.544772,78.8335111 101.712328,78.5560295 100.417414,79.6659558 Z" id="Path-718" stroke="#4A4A4A" stroke-width="2" stroke-linecap="round" stroke-linejoin="round"></path>
            <path d="M53.0167065,80.7019469 C51.7781607,79.2239414 51.0145373,80.3699891 51.0003801,81.4838028 C50.9877906,82.4742764 51.2808934,84.1515086 52.9377922,82.5577279 C53.9950864,81.9829755 54.0213912,81.3643818 53.0167065,80.7019469 Z" id="Path-718-Copy" stroke="#4A4A4A" stroke-width="2" stroke-linecap="round" stroke-linejoin="round"></path>
            <path d="M82.1685499,47.8569574 C79.9516299,45.8946737 78.2505383,47.6963305 78.0414904,49.3290365 C77.8555918,50.7809421 78.1645537,53.1884621 81.7104874,50.5862799 C83.9013504,49.5731749 84.0540379,48.6634007 82.1685499,47.8569574 Z" id="Path-718-Copy-7" stroke="#4A4A4A" stroke-width="2" stroke-linecap="round" stroke-linejoin="round"></path>
            <path d="M142.236177,56.2554375 C142.669041,52.162792 137.363217,51.1013626 135.632281,52.7309052 C134.093023,54.1799976 132.297838,58.6717373 137.201064,58.8525901 C141.030313,59.6456541 142.708683,58.7799366 142.236177,56.2554375 Z" id="Path-718-Copy-2" stroke="#4A4A4A" stroke-width="2" stroke-linecap="round" stroke-linejoin="round"></path>
            <path d="M129.411669,147.402703 C129.729676,144.396002 125.831703,143.616213 124.560054,144.813372 C123.429224,145.877961 122.110374,149.17786 125.712576,149.310726 C128.525769,149.893357 129.7588,149.25735 129.411669,147.402703 Z" id="Path-718-Copy-9" stroke="#4A4A4A" stroke-width="2" stroke-linecap="round" stroke-linejoin="round" transform="translate(126.414873, 146.898024) rotate(-56.000000) translate(-126.414873, -146.898024) "></path>
            <path d="M87.9487623,139.556908 C88.2088513,137.097815 85.0208116,136.460048 83.980767,137.439169 C83.0558935,138.309866 81.9772448,141.008758 84.9233811,141.117425 C87.2242104,141.593943 88.2326708,141.07377 87.9487623,139.556908 Z" id="Path-718-Copy-3" stroke="#4A4A4A" stroke-width="2" stroke-linecap="round" stroke-linejoin="round"></path>
            <path d="M64.7428127,145.90047 C64.8344086,145.034448 63.7116721,144.809844 63.3453981,145.154663 C63.0196841,145.461297 62.6398148,146.41177 63.6773599,146.450039 C64.4876462,146.617855 64.8427972,146.434666 64.7428127,145.90047 Z" id="Path-718-Copy-4" stroke="#4A4A4A" stroke-width="2" stroke-linecap="round" stroke-linejoin="round"></path>
            <path d="M129.742813,56.90047 C129.834409,56.0344475 128.711672,55.8098442 128.345398,56.1546629 C128.019684,56.4612975 127.639815,57.4117701 128.67736,57.4500394 C129.487646,57.6178553 129.842797,57.4346655 129.742813,56.90047 Z" id="Path-718-Copy-5" stroke="#4A4A4A" stroke-width="2" stroke-linecap="round" stroke-linejoin="round"></path>
            <path d="M58.7428127,51.90047 C58.8344086,51.0344475 57.7116721,50.8098442 57.3453981,51.1546629 C57.0196841,51.4612975 56.6398148,52.4117701 57.6773599,52.4500394 C58.4876462,52.6178553 58.8427972,52.4346655 58.7428127,51.90047 Z" id="Path-718-Copy-6" stroke="#4A4A4A" stroke-width="2" stroke-linecap="round" stroke-linejoin="round"></path>
            <path d="M151.306523,121.260102 C151.398119,120.39408 148.697346,119.74989 148.331072,120.094709 C148.005358,120.401343 147.653838,124.329549 148.691383,124.367818 C150.693786,124.367818 151.5655,123.331913 151.306523,121.260102 Z" id="Path-718-Copy-8" stroke="#4A4A4A" stroke-width="2" stroke-linecap="round" stroke-linejoin="round"></path>
            <path d="M106.371808,93.9693404 C105.093264,97.7846789 103.09128,99.2497398 109.135243,99.4019092 C110.181532,99.4282517 111.707137,99.2126563 112.045005,98.2220706 C113.546685,93.819349 110.350258,91.9546654 107.875736,93.5807578 L106.371808,93.9693404 Z" id="Path-719" stroke="#4A4A4A" stroke-width="2" fill="#FFFFFF" stroke-linecap="round" stroke-linejoin="round"></path>
            <path d="M123.473503,103.375576 C116.193558,105.680307 115.763619,114.426159 124.683149,113.977865 C134.243708,113.497352 131.978999,105.815334 122.660026,103" id="Path-720" stroke="#4A4A4A" stroke-width="2" fill="#FFFFFF" stroke-linecap="round" stroke-linejoin="round"></path>
            <path d="M130,71.7429311 C130.924577,71.1619541 131.849155,70.580977 132.773732,70" id="Path-721" stroke="#4A4A4A" stroke-width="2" stroke-linecap="round" stroke-linejoin="round"></path>
            <path d="M132,73.7478087 C133.6788,73.1652058 135.357599,72.5826029 137.036399,72" id="Path-722" stroke="#4A4A4A" stroke-width="2" stroke-linecap="round" stroke-linejoin="round"></path>
            <path d="M132,75.2546286 C133.188691,74.8364191 134.377381,74.4182095 135.566072,74" id="Path-723" stroke="#4A4A4A" stroke-width="2" stroke-linecap="round" stroke-linejoin="round"></path>
            <path d="M77.8777874,72.8827558 C76.9185249,72.2551705 75.9592625,71.6275853 75,71" id="Path-724" stroke="#4A4A4A" stroke-width="2" stroke-linecap="round" stroke-linejoin="round"></path>
            <path d="M79.0859894,68.6139455 C78.3906596,68.0759637 77.6953298,67.5379818 77,67" id="Path-725" stroke="#4A4A4A" stroke-width="2" stroke-linecap="round" stroke-linejoin="round"></path>
            <path d="M67.191038,100 C66.1273587,100.214434 65.0636793,100.428868 64,100.643302" id="Path-726" stroke="#4A4A4A" stroke-width="2" stroke-linecap="round" stroke-linejoin="round"></path>
            <path d="M68.0427237,103 C67.6951491,103.192936 67.3475746,103.385873 67,103.578809" id="Path-727" stroke="#4A4A4A" stroke-width="2" stroke-linecap="round" stroke-linejoin="round"></path>
            <path d="M67.7541305,105 C66.5027537,105.457592 65.2513768,105.915183 64,106.372775" id="Path-729" stroke="#4A4A4A" stroke-width="2" stroke-linecap="round" stroke-linejoin="round"></path>
            <path d="M74.0225805,116 C73.348387,117.024478 72.6741935,118.048956 72,119.073434" id="Path-730" stroke="#4A4A4A" stroke-width="2" stroke-linecap="round" stroke-linejoin="round"></path>
            <path d="M93.3245409,127 C92.8830273,127.840213 92.4415136,128.680425 92,129.520638" id="Path-731" stroke="#4A4A4A" stroke-width="2" stroke-linecap="round" stroke-linejoin="round"></path>
            <path d="M94.1838957,61 C83.7154785,64.4905268 89.1897985,62.1268123 78,68.6209879" id="Path-707" stroke="#4A4A4A" stroke-width="2" stroke-linecap="round" stroke-linejoin="round"></path>
            <path d="M78.3134263,70 C96.115198,80.7973098 80.1692214,88.2965086 68,91.6392267" id="Path-708" stroke="#4A4A4A" stroke-width="2" stroke-linecap="round" stroke-linejoin="round"></path>
            <path d="M68.0208878,91 C62.5049439,111.791668 80.2411798,127.834798 99.5757449,127.676885 C101.938101,127.657591 104.513161,127.808955 106.594078,126.690525 C109.535753,125.109463 112.717062,114.255568 117.115615,125.322627" id="Path-709" stroke="#4A4A4A" stroke-width="2" stroke-linecap="round" stroke-linejoin="round"></path>
            <path d="M117,124.624494 C126.792092,119.797712 136.050544,113.661161 136.979757,101.504643 C137.222285,98.3317397 139.111548,94.4025087 137.073515,91.9586266 C135.221814,89.7381815 131.264947,91.8123354 128.428772,91.2508318 C126.348016,90.8388855 123.114617,85.7067763 126.572572,84.9012731 C128.96696,84.3435194 131.452707,84.3004244 133.892774,84" id="Path-710" stroke="#4A4A4A" stroke-width="2" stroke-linecap="round" stroke-linejoin="round"></path>
            <path d="M95,61 C99.1924122,75.0702674 112.911378,70.3518569 123.32263,67.6124075" id="Path-711" stroke="#4A4A4A" stroke-width="2" stroke-linecap="round" stroke-linejoin="round"></path>
            <path d="M123,68 C127.585735,70.1815758 130.308534,70.5109843 132.781767,75.3630168 C134.918402,79.5547045 138.221026,85.2132229 133.574107,84.5069016" id="Path-712" stroke="#4A4A4A" stroke-width="2" stroke-linecap="round" stroke-linejoin="round"></path>
        </g>
    </g>
</svg>