<?xml version="1.0" encoding="UTF-8"?>
<svg width="99px" height="228px" viewBox="0 0 99 228" version="1.1" xmlns="http://www.w3.org/2000/svg" xmlns:xlink="http://www.w3.org/1999/xlink">
    <!-- Generator: Sketch 49.3 (51167) - http://www.bohemiancoding.com/sketch -->
    <title>Money Icon</title>
    <desc>Created with Sketch.</desc>
    <defs></defs>
    <g id="Artwork" stroke="none" stroke-width="1" fill="none" fill-rule="evenodd">
        <g id="Facebook-Ad-1" transform="translate(-993.000000, -304.000000)">
            <g id="Money-Icon" transform="translate(993.000000, 305.000000)">
                <path d="M79.5877073,83.2345926 C57.9404524,58.1696973 9.22913146,67.668536 11.2697442,91.6767462 C14.3897412,128.384125 77.5303502,93.475972 93.927937,123.34151 C103.036434,139.931157 87.3297072,157.24841 71.3109432,159.357474 C46.6157266,162.608897 28.9647179,164.332879 13.0914593,143.57252 C16.6214306,116.887155 36.1104462,151.459349 62.462371,146.085418 C64.6350934,145.642336 83.7856837,139.579489 81.7642811,133.00993 C79.2737121,124.915581 70.8403113,123.804649 67.5456613,123.307899 C52.9954857,121.114102 37.992969,124.123956 23.418323,122.099098 C-4.16174093,118.267395 -11.249979,68.3234642 23.418323,59.5381432 C42.9748155,54.5823175 52.3331356,54.3282999 69.9340781,62.0287123 C79.8963544,66.3872081 79.8963544,67.6324926 84.2548502,70.745704 L78.6510698,78.8400534" id="Path-4747-Copy" fill="#F5A623"></path>
                <path d="M81.3801466,83.7817474 C59.7328916,58.7168521 11.0215707,68.2156908 13.0621834,92.2239009 C16.1821805,128.93128 79.3227894,94.0231267 95.7203762,123.888665 C104.828873,140.478312 89.1221464,157.795565 73.1033824,159.904629 C48.4081659,163.156052 30.7571572,164.880034 14.8838985,144.119674" id="Path-4747" stroke="#979797"></path>
                <path d="M22.2967393,7.63523567 C22.2967393,24.2742962 21.6290758,40.9267576 22.2967393,57.5524174 C22.5615816,64.1473226 35.6107766,60.0676025 36.0252716,59.5346574 C39.107646,55.5714344 37.3293783,49.5158326 37.0151755,44.5049001 C36.1936193,31.4026515 37.1108252,17.705142 32.6287094,5.36599648 C31.5104457,2.28744631 26.0779939,5.3741038 22.8026362,5.37815746 L22.2967393,7.63523567 Z" id="Path-4753" fill="#F5A623"></path>
                <path d="M52.8137254,5.14463707 C52.8137254,23.0524934 48.7328432,41.4315286 52.8137254,58.868206 C53.7615427,62.9180127 64.480967,62.5066096 65.2835961,58.4255463 C77.402151,-3.19269558 79.985465,-0.38184291 54.3350642,4.03312334" id="Path-4754" fill="#F5A623"></path>
                <path d="M36.7067742,161 C36.2754647,179.270254 29.4926693,198.520888 35.4128457,215.810761 C37.5427568,222.031165 50.7394896,219.656205 55.1087717,214.743027 C59.2183125,210.121922 52.775899,202.528546 52.7240032,196.344677 C52.4180628,159.889036 66.3915923,166.174844 37.8681479,164.818548" id="Path-4755" fill="#F5A623"></path>
                <path d="M67.8085664,160.202572 C67.8304561,181.487533 61.3828146,203.786503 67.8742357,224.057454 C69.8885566,230.347634 82.5676529,220.431327 85.1489102,214.351775 C88.7758646,205.809326 83.4175795,166.107464 79.9233364,157.043149 C79.7382194,156.562942 66.4254033,160.197987 60,162.623823" id="Path-4756" fill="#F5A623"></path>
                <path d="M26.8140589,59.2690282 C25.7690252,42.242843 21.3237694,25.0853289 23.6789579,8.19047275 C24.1609376,4.73300914 33.2275087,3.68443007 34.0911904,7.06679803 C38.0016641,22.3810759 35.0267753,38.6642715 35.4945677,54.4630082" id="Path-4748" stroke="#979797"></path>
                <path d="M53,56.9584286 C53,40.5256994 53,16.8588075 53,2.91989021 C61.3537088,-0.973296737 65.7008544,-0.973296737 66.0414368,2.91989021 C67.3154763,17.4833948 64.8221626,31.7625317 61.0335445,45.8822064 C60.3923335,48.2719146 60.7186845,50.8282252 60.938288,53.3246324 C60.9879092,53.8887162 61.0248777,54.4512318 61.0335445,55.0102393" id="Path-4749" stroke="#979797"></path>
                <path d="M36.5988062,162 C36.7592195,205.288398 18.677294,220.687049 53.1426057,217.184103 C54.4287627,217.053382 55.9205023,215.820024 55.9688179,214.528144 C56.1636129,209.319648 54.0240488,204.248107 53.8211885,199.039918 C53.3764541,187.621905 53.9606345,176.187001 54.0303574,164.760543" id="Path-4750" stroke="#979797"></path>
                <path d="M66,164.102748 C66.9631498,180.534666 64.7802957,197.459543 68.8894493,213.398503 C70.162878,218.337995 80.2845792,214.580422 81.3033794,211.051434 C85.9394902,194.992562 81.169168,175.128443 76.1276656,159" id="Path-4751" stroke="#979797"></path>
                <path d="M15.9254607,142.062565 C18.6214306,116.887155 38.1104462,151.459349 64.462371,146.085418 C66.6350934,145.642336 85.7856837,139.579489 83.7642811,133.00993 C81.2737121,124.915581 72.8403113,123.804649 69.5456613,123.307899 C54.9954857,121.114102 39.992969,124.123956 25.418323,122.099098 C-2.16174093,118.267395 -9.24997903,68.3234642 25.418323,59.5381432 C44.9748155,54.5823175 54.3331356,54.3282999 71.9340781,62.0287123 C81.8963544,66.3872081 81.8963544,67.6324926 86.2548502,70.745704 L80.6510698,78.8400534" id="Path-4752" stroke="#979797"></path>
            </g>
        </g>
    </g>
</svg>