<?xml version="1.0" encoding="UTF-8"?>
<svg width="226px" height="226px" viewBox="0 0 226 226" version="1.1" xmlns="http://www.w3.org/2000/svg" xmlns:xlink="http://www.w3.org/1999/xlink">
    <!-- Generator: Sketch 49.3 (51167) - http://www.bohemiancoding.com/sketch -->
    <title>Facebook Icon</title>
    <desc>Created with Sketch.</desc>
    <defs></defs>
    <g id="Artwork" stroke="none" stroke-width="1" fill="none" fill-rule="evenodd">
        <g id="Facebook-Ad-1" transform="translate(-70.000000, -341.000000)">
            <g id="Facebook-Icon" transform="translate(70.000000, 343.000000)">
                <path d="M5.51101323,54.767454 C0.447039326,82.9155958 8.05848018,86.4830239 2.28848438,132.75165 C-0.473683202,154.901007 -1.03891294,192.563508 2.28848438,201.506947 C9.02242797,219.606564 8.83342746,220.42619 37.7363017,220.42619 C53.5446767,220.42619 83.4293757,225.315886 110.473381,223.656305 C136.219472,222.076371 186.380697,222.48708 198.862744,213.504516 C216.816834,200.584057 195.50011,104.869133 193.338409,50.3989671 C192.94561,40.5012912 151.043263,50.3989671 122.442774,50.3989671 C100.460218,50.3989671 61.4829647,51.8551294 5.51101323,54.767454 Z" id="Path-2392-Copy-8" fill="#ECECE4"></path>
                <path d="M21,143.439036 C22.774813,155.17239 21,169.062478 24.0994526,187.373814 C25.9791922,198.479176 62.831678,192.499457 85.2003976,191.482989 C126.165746,189.621464 100.4053,192.876541 138.950853,187.373814 C167.455807,183.304474 192.04856,185.597871 220.123615,180.211905 C222.419925,179.771377 222.822898,149.495987 220.123615,135.431652 C219.675129,133.094863 200.836417,131.949177 200.388914,132.001729 C187.008118,133.57309 127.211813,137.385526 21,143.439036 Z" id="Path-2392-Copy" fill="#D8D8D8"></path>
                <path d="M21.7716729,61.4814393 C23.548502,79.807053 19.3555168,77.3538784 21.7716729,109.71214 C23.1112603,127.652504 17.9757344,146 29.0139936,146 C70.4193318,146 98.9675365,145.407575 137.556875,136.8132 C166.09421,130.457544 193.014537,140.172474 221.121484,131.76046 C223.420402,131.072426 223.823833,63.9258469 221.121484,41.959615 C220.672488,38.309926 202.394732,46.2411412 201.946721,46.3232191 C188.550724,48.7774339 128.492375,53.830174 21.7716729,61.4814393 Z" id="Path-2392-Copy-2" fill="#EEEEEE"></path>
                <path d="M13.7616444,22.1129299 C15.5346387,34.0109243 8.27862303,53.9760857 19.0824201,59.0230533 C39.3885244,68.5090007 63.8181949,58.1815444 86.1639924,57.1508138 C127.087363,55.2631672 94.3133253,55.4683493 132.819379,49.8884095 C161.295124,45.7619689 190.208474,48.0023623 218.254759,42.5408209 C220.548716,42.0941116 220.698504,18.7414884 218.001987,4.47980484 C217.553961,2.11022636 198.734553,0.948463451 198.287509,1.00175295 C184.920424,2.59516392 123.411803,9.6322229 13.7616444,22.1129299 Z" id="Path-2392" fill="#D8D8D8"></path>
                <path d="M35,170.6775 C35,176.462766 35.0313642,182.128594 40.2289822,184.479421 C48.0121428,187.999661 115.951143,184.672597 149.400631,181.910089 C152.499086,181.654196 153.841304,166 147.558071,166 C127.289917,166 105.880604,170.6775 85.3716893,170.6775 C79.947175,170.6775 63.1566119,170.6775 35,170.6775 Z" id="Path-2391" fill="#EEEEEE"></path>
                <path d="M14,23.8102275 C75.5937295,10.3782694 60.0561217,10.3782694 91.4691114,10.3782694 C125.256494,10.3782694 125.349501,6.27720144 156.70955,4.29386752 C162.61919,3.92011845 210.342624,-3.37811708 213.299219,1.92388981 C222.391756,18.2293697 218.46987,63.2614676 218.666074,66.5823845 C224.132806,159.111567 226.414989,183.655531 213.299219,183.655531 C192.893017,183.655531 98.0950431,191.304744 77.7083651,190.990581 C72.5297777,190.910778 37.0452882,190.279711 24.9526374,190.990581 C22.5111203,191.134106 25.5847731,186.017468 24.9526374,183.655531 C22.7133507,175.288572 20.2612234,120.937442 19.7942207,112.334783 C17.3735064,67.7427973 19.8053172,75.5555125 14.4691307,34.1155659 L14,23.8102275 Z" id="Path-2385" stroke="#424C59" stroke-width="3"></path>
                <path d="M33.5207168,151.531535 C33.5207168,155.040796 30.099104,159.722385 33.5207168,162.059317 C36.5118567,164.102239 41.1974773,162.202729 45.2026014,162.059317 C64.0275515,161.385249 83.0495579,162.288968 101.570113,159.62266 C105.246293,159.09342 106.452519,151.539938 102.759437,151.084769 C81.1427602,148.420534 58.9717736,151.477631 37.077942,151.674062 L33.5207168,151.531535 Z" id="Path-2389" fill="#EEEEEE"></path>
                <path d="M50.5207168,22.5315353 C50.5207168,26.0407958 47.099104,30.7223854 50.5207168,33.0593168 C53.5118567,35.1022392 58.1974773,33.202729 62.2026014,33.0593168 C81.0275515,32.3852486 100.049558,33.2889681 118.570113,30.6226603 C122.246293,30.0934198 123.452519,22.5399381 119.759437,22.0847692 C98.1427602,19.4205345 75.9717736,22.477631 54.077942,22.6740619 L50.5207168,22.5315353 Z" id="Path-2389-Copy" fill="#EEEEEE" transform="translate(85.500000, 27.500000) rotate(-4.000000) translate(-85.500000, -27.500000) "></path>
                <path d="M18,59 C72.3348949,56.2299263 55.9319723,57.8837827 130.715509,47.7016111 C135.624806,47.0331846 140.312796,44.8298837 145.262223,44.6265033 C243.416563,40.5931737 178.103598,47.9458603 219,43" id="Path-2386" stroke="#979797" stroke-width="3"></path>
                <path d="M169.947205,162.998442 C169.947205,162.998442 173.73244,161.824121 204.500943,162.998442 C209.752022,163.198856 211.203602,144 204.500943,144 C192.948559,144 174.328415,144 169.947205,144 C165.565994,144 169.947205,162.998442 169.947205,162.998442 Z" id="Path-2390" fill="#F5A623"></path>
                <path d="M22,144.573784 C53.3841443,144.436408 84.8113011,145.854732 116.152433,144.161656 C123.136067,143.784393 129.474279,139.605914 136.367609,138.395542 C151.474683,135.742952 166.731702,133.982845 181.998605,132.599991 C189.080449,131.958527 218.84798,130.754467 223.922531,135.860218 C224.37596,136.316435 222.716688,136.26744 222.113767,136.471051" id="Path-2387" stroke="#979797" stroke-width="3"></path>
                <path d="M23.6345504,45.5937327 C32.8331989,49.9584941 39.5564051,42.9238325 40.9280095,41.2289712 C43.871577,37.59167 43.5036311,33.9543688 40.9280095,28.268244 C38.3523879,22.5821192 28.9036512,24.9946729 23.6345504,30.3170675 C20.1218165,33.8653307 20.1218165,38.9575524 23.6345504,45.5937327 Z" id="Path-2388" fill="#EEEEEE"></path>
            </g>
        </g>
    </g>
</svg>