<svg id="Layer_1" data-name="Layer 1" xmlns="http://www.w3.org/2000/svg" viewBox="0 0 354.5 431.6"><defs><style>.cls-1{fill:#231f20;}</style></defs><title>icon-bottom-arrow</title><path class="cls-1" d="M345.7,206.3c-47.4-3-83.2,42.3-150.8,132.7a485.5,485.5,0,0,0,1.2-83.5,487.4,487.4,0,0,0-26.8-128.2C144.1,56.5,111.1,15,109.7,13.3a20,20,0,1,0-31.1,25c10.5,13.2,35.3,52,53.5,103.9a446.3,446.3,0,0,1,24.2,117.2,446.3,446.3,0,0,1-3.6,95.1C98.9,255.8,43.8,218.1,41.1,216.3a20,20,0,1,0-22.3,33.2c.2.2,17.2,11.9,40.9,39.3,39.7,45.9,67.1,99.6,83.1,136.5a20,20,0,0,0,15.9,12h2.4a20,20,0,0,0,15.9-7.9c15.1-19.8,29-38.5,41.3-54.9,59.5-79.7,95.8-128.4,123.4-128.4h1.5a20,20,0,1,0,2.5-39.9Z" transform="translate(-10 -5.8)"/></svg>