<?xml version="1.0" encoding="UTF-8"?>
<svg width="200px" height="200px" viewBox="0 0 200 200" version="1.1" xmlns="http://www.w3.org/2000/svg" xmlns:xlink="http://www.w3.org/1999/xlink">
    <!-- Generator: Sketch 48.2 (47327) - http://www.bohemiancoding.com/sketch -->
    <title>icon-optimize</title>
    <desc>Created with Sketch.</desc>
    <defs></defs>
    <g id="Icons" stroke="none" stroke-width="1" fill="none" fill-rule="evenodd">
        <g id="icon-optimize">
            <path d="M53.3332783,45.265625 C72.0082557,43.5973519 115.711647,37.6286729 139.638382,40.6367188 C141.138561,40.8253199 142.384714,42.636278 142.403415,44.0859375 C142.474268,49.5785892 141.103794,55.019478 139.893176,60.3886719 C137.01857,73.1378066 128.19978,90.2510671 134.12768,104.125977 C136.192648,108.959262 139.948305,113.124224 141.4036,118.157227 C142.934721,123.452467 143.987557,129.175275 142.932368,134.576172 C141.269537,143.087237 137.511068,151.177844 133.441773,158.90918 C132.91178,159.916125 131.107575,159.2273 129.93172,159.276367 C106.095317,160.27103 82.0390366,165.226033 58.4128668,162.040039 C54.0889949,161.456964 57.3009351,153.692733 57.5496222,149.515625 C58.0945487,140.362688 60.7678187,131.355303 60.7855157,122.1875 C60.8203011,104.167188 59.3513864,86.1583225 57.7065757,68.2070312 C57.1839548,62.5032004 55.431768,56.9648438 54.2943642,51.34375 L53.3332783,45.265625 Z" id="Path-769" fill="#E7E7E7"></path>
            <path d="M45.5,132.5 C44.6134788,133.566138 43.4289973,134.485767 44.5,136 C48.7437434,142 61,131.132024 47.3724164,131.132024 L45.5,132.5 Z" id="Path-734" stroke="#4A4A4A" stroke-width="2" stroke-linecap="round" stroke-linejoin="round"></path>
            <path d="M71,113.5 C67.7111668,120.670273 77.0267407,119.47224 78.5,117 C80.7589159,113.209369 75.5429106,108.563934 73.5,111 L71,113.5 Z" id="Path-735" stroke="#4A4A4A" stroke-width="2" stroke-linecap="round" stroke-linejoin="round"></path>
            <path d="M89.5,96 C95.5,102 102.5,85 90.5,91 L89.5,96 Z" id="Path-736" stroke="#4A4A4A" stroke-width="2" stroke-linecap="round" stroke-linejoin="round"></path>
            <path d="M126.110706,93.514182 C119.900387,111.141198 144.77125,87.2518688 128.81935,91.5211172 C127.35033,91.9142748 126.273117,93.2511913 125,94.1162283" id="Path-738" stroke="#4A4A4A" stroke-width="2" stroke-linecap="round" stroke-linejoin="round"></path>
            <path d="M146.554492,60.955041 C148.915534,55.3814639 154.883718,59.1409652 152.316261,63.8608545 C149.748805,68.5807438 144.193449,66.5286181 146.554492,60.955041 Z" id="Path-737" stroke="#4A4A4A" stroke-width="2" stroke-linecap="round" stroke-linejoin="round"></path>
            <path d="M60.215901,46.4904284 C56.3117735,70.235636 62.4917562,80.709065 60.215901,104.5" id="Path-743" stroke="#4A4A4A" stroke-width="2" stroke-linecap="round" stroke-linejoin="round"></path>
            <path d="M59.5,142.5 C59.4891129,144.091278 59.3726881,160.842047 61.4592211,162.03882 C65.3409876,164.265284 107.273447,157.64327 108.351124,157.540083 C117.016557,156.71037 127.061688,161.158427 134.414948,156.109264 C138.640937,153.207461 138.122965,146.118556 138.381971,140.694782 C138.582354,136.498613 138.072153,132.101635 138.381971,127.913324 C138.965203,120.028823 137.15087,116.900819 137.5,109" id="Path-744" stroke="#4A4A4A" stroke-width="2" stroke-linecap="round" stroke-linejoin="round"></path>
            <path d="M87,71.0856068 C94.7357501,70.7050379 101.164773,72.8019418 110.20725,70.104844 C115.327211,68.5777145 110.01039,84.181282 108.921558,87.7585749 C108.472108,89.2352142 102.463498,86.4997628 96.0429221,86.4550163 C93.9844495,86.4406703 88.5367696,86.9245739 88.6836312,88.6440067 C87.5612104,83.6236592 87,79.9775756 87,77.7057559 C87,75.8775111 87,73.6707947 87,71.0856068 Z" id="Path-749" fill="#EEEEEE"></path>
            <path d="M53.9745798,131.757123 C60.645548,127.133129 65.8290318,123.623994 72.5,119" id="Path-733" stroke="#4A4A4A" stroke-width="2" stroke-linecap="round" stroke-linejoin="round"></path>
            <path d="M90,97 C77.4761048,110.26849 80.0169327,109.336394 77.5,111.5 L90,97 Z" id="Path-739" stroke="#4A4A4A" stroke-width="2" stroke-linecap="round" stroke-linejoin="round"></path>
            <path d="M96.9915547,91.9234275 C107.029251,93.5662198 114.462303,94.3572077 124.5,96" id="Path-740" stroke="#4A4A4A" stroke-width="2" stroke-linecap="round" stroke-linejoin="round"></path>
            <path d="M147.382855,65.9617138 C131.999782,88.8209185 141.874597,75.3246234 133.5,91" id="Path-741" stroke="#4A4A4A" stroke-width="2" stroke-linecap="round" stroke-linejoin="round"></path>
            <path d="M67,43.5 C73.2812018,42.6012024 83.6178123,46.3941346 94.5,45.5 C110.674934,44.1709871 128.285292,38.603893 137.435546,41.3385345 C141.328088,42.5018582 142.186904,44.6189751 142,49 C141.789362,53.9373398 138.643835,57.1070979 138,62" id="Path-742" stroke="#4A4A4A" stroke-width="2" stroke-linecap="round" stroke-linejoin="round"></path>
            <path d="M65.0887757,130.035131 C65.4999914,134.516437 64.036284,139.207559 66.322423,143.479048 C66.9343859,144.622457 70.3299688,143.68645 72.3031937,143.51476 C76.4146848,143.15702 80.788411,143.054648 84.4739714,141.899683 C85.607255,141.544539 84.822058,140.368405 84.7993157,139.59878 C84.6433238,134.319843 83.1668544,130.3241 84.7993157,124 C86.1478615,118.775778 79.1299868,124.798333 77.7880866,125.41875 L65.0887757,130.035131 Z" id="Path-746" fill="#EEEEEE"></path>
            <path d="M65.5,110.5 C65.5203107,110.490367 79.4829607,99.3162344 80.7129632,97.5641527 C84.8260797,91.7052084 84.3971799,96.6511643 82.5,91.25 C81.6316738,88.7779243 76.2954841,91.1506473 74.5561786,91.25 C71.7041115,91.4129158 68.3083619,90.9303772 65.5,91.25 L65.5,110.5 Z" id="Path-747" fill="#EEEEEE"></path>
            <path d="M90.5,106.224493 C90.7947046,111.256168 88.9798914,110.308766 91.8855453,115.238954 C92.4185774,116.14338 97.2124294,115.268125 99.8437802,115.147242 C103.726458,114.968874 109.45344,115.533335 111.363869,114.344131 C114.166029,112.599845 112.555268,110.989782 112.788611,108.993287 C113.006574,107.128393 113.657404,105.90116 114.027096,104.03916 C114.294808,102.690802 115.86261,103 112.788611,103 C102.348608,103 102.435708,103 95,103 L90.5,106.224493 Z" id="Path-750" fill="#EEEEEE"></path>
            <path d="M116.858049,70.333818 C115.616742,76.1866108 117.096213,80.8750571 114,87.9364626 C125.717231,88.8011245 121.044584,89.5984401 126.472032,84.8427997 C130.528019,81.2888622 129.258968,79.3242898 129.726684,76.2440298 C129.948003,74.78648 131.16045,73.1658182 129.749664,71.8604867 C128.667865,70.8595507 125.612807,70.6751687 123.327441,70.3231223 C121.524336,70.0453653 119.557157,70.1077074 117.672015,70 L116.858049,70.333818 Z" id="Path-751" fill="#EEEEEE"></path>
            <path d="M117.852676,102.963103 C121.477949,102.95515 127.74216,101.509332 128.728496,102.939244 C131.384565,106.789803 130.5,109.196543 132,114.5 C132.41071,115.952121 118.929808,116.661562 116.928079,115.681682 C114.494046,114.490182 118.2467,104.444486 118.470198,103.168498 L117.852676,102.963103 Z" id="Path-752" fill="#EEEEEE"></path>
            <path d="M140.94043,45.7773438 C143.533529,45.3297526 146.126628,44.8821615 148.719727,44.4345703" id="Path-745" stroke="#4A4A4A" stroke-width="2" stroke-linecap="round" stroke-linejoin="round"></path>
            <path d="M140.507812,43.3232422 C141.979818,43.0589193 143.451823,42.7945964 144.923828,42.5302734" id="Path-748" stroke="#4A4A4A" stroke-width="2" stroke-linecap="round" stroke-linejoin="round"></path>
            <path d="M129.948242,40.4628906 C129.735026,39.6702474 129.52181,38.8776042 129.308594,38.0849609" id="Path-753" stroke="#4A4A4A" stroke-width="2" stroke-linecap="round" stroke-linejoin="round"></path>
            <path d="M58.2626953,57.3056641 C56.1080729,57.3378906 53.9534505,57.3701172 51.7988281,57.4023438" id="Path-754" stroke="#4A4A4A" stroke-width="2" stroke-linecap="round" stroke-linejoin="round"></path>
            <path d="M56.8916016,59.9824219 C55.8268229,60.124349 54.7620443,60.266276 53.6972656,60.4082031" id="Path-755" stroke="#4A4A4A" stroke-width="2" stroke-linecap="round" stroke-linejoin="round"></path>
            <path d="M56.5908203,63.8671875 C54.5364583,64.4117839 52.4820964,64.9563802 50.4277344,65.5009766" id="Path-756" stroke="#4A4A4A" stroke-width="2" stroke-linecap="round" stroke-linejoin="round"></path>
            <path d="M58.2626953,150.839844 C56.8033854,151.055664 55.3440755,151.271484 53.8847656,151.487305" id="Path-757" stroke="#4A4A4A" stroke-width="2" stroke-linecap="round" stroke-linejoin="round"></path>
            <path d="M60.9306641,153.526367 C58.3691406,154.898438 55.8076172,156.270508 53.2460938,157.642578" id="Path-758" stroke="#4A4A4A" stroke-width="2" stroke-linecap="round" stroke-linejoin="round"></path>
            <path d="M72.6376953,163.740234 C72.7190755,165.250977 72.8004557,166.761719 72.8818359,168.272461" id="Path-759" stroke="#4A4A4A" stroke-width="2" stroke-linecap="round" stroke-linejoin="round"></path>
            <path d="M78.5380859,162.735352 C78.3876953,164.149414 78.2373047,165.563477 78.0869141,166.977539" id="Path-760" stroke="#4A4A4A" stroke-width="2" stroke-linecap="round" stroke-linejoin="round"></path>
            <path d="M134.495117,157.411133 C136.092122,157.501302 137.689128,157.591471 139.286133,157.681641" id="Path-761" stroke="#4A4A4A" stroke-width="2" stroke-linecap="round" stroke-linejoin="round"></path>
            <path d="M137.726562,153.931641 C138.960612,154.582357 140.194661,155.233073 141.428711,155.883789" id="Path-762" stroke="#4A4A4A" stroke-width="2" stroke-linecap="round" stroke-linejoin="round"></path>
            <path d="M126.264648,158.232422 C125.945312,159.498372 125.625977,160.764323 125.306641,162.030273" id="Path-763" stroke="#4A4A4A" stroke-width="2" stroke-linecap="round" stroke-linejoin="round"></path>
            <path d="M138.30957,112.349609 C140.338867,111.814779 142.368164,111.279948 144.397461,110.745117" id="Path-764" stroke="#4A4A4A" stroke-width="2" stroke-linecap="round" stroke-linejoin="round"></path>
            <path d="M138.516602,72.7392578 C140.840169,73.2578125 143.163737,73.7763672 145.487305,74.2949219" id="Path-765" stroke="#4A4A4A" stroke-width="2" stroke-linecap="round" stroke-linejoin="round"></path>
            <path d="M136.242188,75.0576172 C139.317708,76.3203125 142.393229,77.5830078 145.46875,78.8457031" id="Path-766" stroke="#4A4A4A" stroke-width="2" stroke-linecap="round" stroke-linejoin="round"></path>
            <path d="M62.0205078,125.772461 C60.9684245,124.973633 59.9163411,124.174805 58.8642578,123.375977" id="Path-767" stroke="#4A4A4A" stroke-width="2" stroke-linecap="round" stroke-linejoin="round"></path>
            <path d="M63.0361328,121.868164 C65.2845052,123.047201 67.5328776,124.226237 69.78125,125.405273" id="Path-768" stroke="#4A4A4A" stroke-width="2" stroke-linecap="round" stroke-linejoin="round"></path>
            <path d="M64.0027762,64.9758782 C63.8022554,71.3215813 74.5120785,67.4758782 80.5809012,67.4758782 C82.5809012,67.4758782 80.5809012,61.4758782 82.5809012,51.4758782 C77.9685058,51.1849535 68.6189871,49.7991204 64.0027762,50.0247063 L64.0027762,64.9758782 Z" id="Path-770" fill="#EEEEEE"></path>
            <path d="M86.4868106,51.1394444 C86.5493106,56.8376866 83.9211489,66.7654209 90.2719669,66.7654209 C97.7719669,66.7654209 103.427646,66.7654209 109.504389,66.7654209 C111.771967,66.7654209 112.271967,51.1394444 109.504389,49.477335 C107.002055,47.9745221 95.1235294,50.4565017 87.9330997,50.946085 L86.4868106,51.1394444 Z" id="Path-771" fill="#EEEEEE"></path>
            <path d="M64.383605,72.2029818 C64.4328548,77.901224 62.3618729,87.8289583 67.3662943,87.8289583 C73.276267,87.8289583 77.7329215,87.8289583 82.5213727,87.8289583 C84.308216,87.8289583 84.7022142,72.2029818 82.5213727,70.5408724 C80.5495429,69.0380595 71.1893079,71.5200391 65.5232755,72.0096224 L64.383605,72.2029818 Z" id="Path-771-Copy" fill="#EEEEEE"></path>
            <path d="M116.259572,54.7637516 C115.752085,60.5170068 115.389929,63.1264061 121.259572,64.7637516 C126.251759,66.1563297 126.957819,67.1563297 131.92754,67.1563297 C135.462608,67.1563297 134.130089,51.0963894 135.259572,47.7637516 C136.389054,44.4311138 126.362369,46.6400279 116.259572,47.7637516 L116.259572,54.7637516 Z" id="Path-772" fill="#EEEEEE"></path>
            <path d="M90.8457031,121.182617 C91.9355469,127.525065 90.8457031,137.5 93,137.5 C97.5,137.5 106.5,138 109,136 C113.4324,132.45408 110.5,125 110.5,122.477539 C110.5,120 97.7597656,122.532227 90.4501953,122.477539" id="Path-773" fill="#EEEEEE"></path>
            <path d="M116.719727,122.148437 C117.82194,127.817708 114.670395,138.574461 120.026367,139.15625 C137,141 132.066001,130.911078 132.165039,130.168945 C132.525287,127.46947 136.682252,123.537633 134.269531,122.274414 C129.358157,119.702984 123.183594,122.467773 117.640625,122.564453 L116.719727,122.148437 Z" id="Path-774" fill="#EEEEEE"></path>
            <path d="M68.5,160 C75,160.5 76.6478047,160 82.6904297,158.338867 C83.0622287,158.236659 86.9091254,148.064551 83.1972656,147.370117 C77.8728781,146.374003 72.8802083,147.871745 67.5,148.5 L68.5,160 Z" id="Path-775" fill="#EEEEEE"></path>
            <path d="M93,155 C93,158.5 105.5,155 110.725586,153.844727 C113.591899,153.211041 113.38783,143.37317 110.725586,142.5 C104.058114,140.313185 99.9899089,143.384766 93,144 L93,155 Z" id="Path-776" fill="#EEEEEE"></path>
            <path d="M116.700195,148.5 C116.85026,151.663086 114.412937,154.501953 117.865234,154.501953 C127,154.501953 130.492188,154.501953 132,152.5 C133.73285,150.19926 135.906322,144.93174 133.5,144 C128.415966,142.031436 123.295898,142.628255 117.865234,143.108398 L116.700195,148.5 Z" id="Path-777" fill="#EEEEEE"></path>
        </g>
    </g>
</svg>