<?xml version="1.0" encoding="UTF-8"?>
<svg width="200px" height="200px" viewBox="0 0 200 200" version="1.1" xmlns="http://www.w3.org/2000/svg" xmlns:xlink="http://www.w3.org/1999/xlink">
    <!-- Generator: Sketch 49.3 (51167) - http://www.bohemiancoding.com/sketch -->
    <title>icon-audio</title>
    <desc>Created with Sketch.</desc>
    <defs></defs>
    <g id="icon-audio" stroke="none" stroke-width="1" fill="none" fill-rule="evenodd">
        <g transform="translate(29.000000, 64.000000)">
            <polygon id="Path-306" fill="#D8D8D8" transform="translate(124.250000, 53.500000) rotate(-3.000000) translate(-124.250000, -53.500000) " points="118.5 43.5 132.5 41 130.5 65 116 66"></polygon>
            <polygon id="Path-306-Copy" fill="#D8D8D8" transform="translate(109.672852, 52.377930) rotate(-3.000000) translate(-109.672852, -52.377930) " points="105.022076 44.0755859 116.345703 42 114.728042 61.925625 103 62.7558594"></polygon>
            <polygon id="Path-306-Copy-4" fill="#9A9A9A" transform="translate(114.250000, 29.247420) rotate(-3.000000) translate(-114.250000, -29.247420) " points="109 11.5 122.5 11.5 117.728042 45.5150473 106 46.994841"></polygon>
            <polygon id="Path-306-Copy-5" fill="#9A9A9A" transform="translate(127.500000, 27.497420) rotate(-3.000000) translate(-127.500000, -27.497420) " points="122.022076 12.6994841 135 9 131.728042 44.5150473 120 45.994841"></polygon>
            <polygon id="Path-306-Copy-3" fill="#C0C0C0" transform="translate(13.672852, 34.045932) rotate(-3.000000) translate(-13.672852, -34.045932) " points="10 9 22.3457031 7.54445971 20.3457031 60.5474034 5 60.5474034"></polygon>
            <polygon id="Path-306-Copy-2" fill="#EFEFEF" transform="translate(63.000000, 36.819467) rotate(-3.000000) translate(-63.000000, -36.819467) " points="20.6269531 13 106.5 17 102 60.6389331 19.5 56"></polygon>
            <path d="M106.642578,44.7441406 C110.329102,44.8763021 114.015625,45.0084635 117.702148,45.140625" id="Path-302" stroke="#4A4A4A" stroke-width="2" stroke-linecap="round" stroke-linejoin="round" transform="translate(112.172363, 45.244141) rotate(-3.000000) translate(-112.172363, -45.244141) "></path>
            <path d="M118,42.1113281 C122.015625,41.7408854 126.03125,41.3704427 130.046875,41" id="Path-303" stroke="#4A4A4A" stroke-width="2" stroke-linecap="round" stroke-linejoin="round" transform="translate(124.023438, 41.555664) rotate(-3.000000) translate(-124.023438, -41.555664) "></path>
            <path d="M122,28.1494141 C125.761719,27.766276 129.523438,27.383138 133.285156,27" id="Path-304" stroke="#4A4A4A" stroke-width="2" stroke-linecap="round" stroke-linejoin="round" transform="translate(127.642578, 27.574707) rotate(-3.000000) translate(-127.642578, -27.574707) "></path>
            <path d="M106,32.4219462 C110.448568,31.9479641 114.897135,31.4739821 119.345703,31" id="Path-305" stroke="#4A4A4A" stroke-width="2" stroke-linecap="round" stroke-linejoin="round" transform="translate(112.672852, 31.710973) rotate(-3.000000) translate(-112.672852, -31.710973) "></path>
            <path d="M21.3242188,11.8007812 C50.6916035,11.0054076 78.1865361,12.5913 107.125977,17.7246094" id="Path-292" stroke="#4A4A4A" stroke-width="2" stroke-linecap="round" stroke-linejoin="round" transform="translate(64.225098, 14.665633) rotate(-3.000000) translate(-64.225098, -14.665633) "></path>
            <path d="M19.5849609,56.2441406 C90.5356011,61.8950387 62.7096303,61.5286606 102.916992,61.2978516" id="Path-293" stroke="#4A4A4A" stroke-width="2" stroke-linecap="round" stroke-linejoin="round" transform="translate(61.250977, 58.824264) rotate(-3.000000) translate(-61.250977, -58.824264) "></path>
            <path d="M103.59375,11.2597656 C99.91357,50 99.2836286,34.9514944 97.3339844,64" id="Path-294" stroke="#4A4A4A" stroke-width="2" stroke-linecap="round" stroke-linejoin="round" transform="translate(100.463867, 37.629883) rotate(-3.000000) translate(-100.463867, -37.629883) "></path>
            <path d="M20.9912109,8.16699219 C20.2897135,25.7516276 19.5882161,43.336263 18.8867188,60.9208984" id="Path-285" stroke="#4A4A4A" stroke-width="2" stroke-linecap="round" stroke-linejoin="round" transform="translate(19.938965, 34.543945) rotate(-3.000000) translate(-19.938965, -34.543945) "></path>
            <path d="M16.1279297,11.2216797 C16.03125,13.1542969 15.9345703,15.0869141 15.8378906,17.0195312" id="Path-286" stroke="#4A4A4A" stroke-width="2" stroke-linecap="round" stroke-linejoin="round" transform="translate(16.337891, 14.120605) rotate(-3.000000) translate(-16.337891, -14.120605) "></path>
            <path d="M19,18 C19.7288883,19.3921589 20.385139,22.1024078 19,23 C17.494268,23.9757384 13.8454235,23.0766494 12.2939453,23 C9.91983673,22.8827093 11.9067745,24.1271212 12.2939453,16.6230469 C16.1259,16.3210217 18.3612515,16.7800061 19,18 Z" id="Path-287" stroke="#4A4A4A" stroke-width="2" stroke-linecap="round" stroke-linejoin="round" transform="translate(15.479193, 19.992175) rotate(-3.000000) translate(-15.479193, -19.992175) "></path>
            <path d="M15.0859375,24.2285156 C14.7138672,35.1097005 14.3417969,45.9908854 13.9697266,56.8720703" id="Path-288" stroke="#4A4A4A" stroke-width="2" stroke-linecap="round" stroke-linejoin="round" transform="translate(14.527832, 40.550293) rotate(-3.000000) translate(-14.527832, -40.550293) "></path>
            <path d="M19.8642578,36.7529297 C21.8434245,37.0426432 24.6790047,39.2775038 25.8017578,37.6220703 C29.8539312,31.6473788 32.7221167,10.7917705 33.1035156,17.2324219 C37.8271484,97 36.8460613,17.6921227 39.5,23 C43,30 39.5,35.0712891 41.5,42.5 C42.2378568,45.2406624 42.9927494,33.9479656 45.8271484,32.0371094 C47.5813308,30.8544988 46.7397339,37.0614581 48.7685547,37.6611328 C50.2503573,38.099121 49.379788,33.0898257 50.8623047,33.5253906 L53.5253906,37.0615234 C54.5722163,37.3690819 55.0331883,35.0485963 56.1240234,35.0712891 C59.381109,35.1390465 63.6638689,39.9059775 65.6367188,37.3134766 C69.5379502,32.1869099 66.3763502,12.3445058 68.9121094,18.2666016 C72.9374187,27.6674421 67.9280514,39.0276296 70.5976562,48.8994141 C71.8303141,53.4575916 71.1066154,39.1256372 73.4433594,35.0224609 C74.3446606,33.4398323 73.8343523,40.0546617 75.6552734,40.0185547 L78.8222656,38.6757813 C79.6636375,38.6590977 80.1899451,40.0281932 81.0234375,39.9121094 C82.0840159,39.7643983 82.5448383,37.9126405 83.6113281,38.0087891 C84.7147001,38.1082627 84.8654124,40.2062058 85.9628906,40.3574219 C87.6105425,40.5844437 89.0995037,39.003583 90.7626953,38.9941406 C94.8609319,38.9708739 98.9156901,39.8385417 102.992188,40.2607422" id="Path-289" stroke="#4A4A4A" stroke-width="2" stroke-linecap="round" stroke-linejoin="round" transform="translate(61.428223, 34.509136) rotate(-3.000000) translate(-61.428223, -34.509136) "></path>
            <path d="M107.663086,7.61230469 C131.15872,7.91672397 123.135098,4.73912336 118.5,38 C117.705631,43.7002933 118.82819,57.2024043 115,61.5 C112.51444,64.2903347 104.208984,62.047526 100.833984,60.4433594" id="Path-290" stroke="#4A4A4A" stroke-width="2" stroke-linecap="round" stroke-linejoin="round" transform="translate(112.245751, 35.218005) rotate(-3.000000) translate(-112.245751, -35.218005) "></path>
            <path d="M122.207653,14.5792505 C120.253551,30.9591333 114.557128,47.3200775 116.345348,63.7188989 C116.749253,67.4229008 125.93376,66.6007688 127.51234,63.2257348 C132.599959,52.3483106 131.848068,39.5849856 133.213512,27.6544458 C133.899401,21.6615076 138.258423,14.9376976 134.902565,9.92531603 C132.877203,6.9001923 126.513266,6.26259059 123.023682,7.30002548" id="Path-291" stroke="#4A4A4A" stroke-width="2" stroke-linecap="round" stroke-linejoin="round" transform="translate(126.080201, 36.493552) rotate(-3.000000) translate(-126.080201, -36.493552) "></path>
            <path d="M9.34179688,7.58300781 C42.5466207,6.24366376 76.0309318,10.5379263 109.477539,10.4726562" id="Path-281" stroke="#4A4A4A" stroke-width="2" stroke-linecap="round" stroke-linejoin="round" transform="translate(59.409668, 8.898699) rotate(-3.000000) translate(-59.409668, -8.898699) "></path>
            <path d="M9.54589844,8.25390625 C8.33244796,23.4504851 4.04433578,44.5970509 8.99804688,60.2148438" id="Path-282" stroke="#4A4A4A" stroke-width="2" stroke-linecap="round" stroke-linejoin="round" transform="translate(8.105421, 34.234375) rotate(-3.000000) translate(-8.105421, -34.234375) "></path>
            <path d="M9.27734375,59.2587891 C41.1576546,60.1549016 69.6616089,64.5513829 102.21875,64.4003906" id="Path-283" stroke="#4A4A4A" stroke-width="2" stroke-linecap="round" stroke-linejoin="round" transform="translate(55.748047, 61.831489) rotate(-3.000000) translate(-55.748047, -61.831489) "></path>
            <path d="M108.478516,12.3427734 C104.643509,45.3090254 106.400879,29 104.323242,64.5" id="Path-284" stroke="#4A4A4A" stroke-width="2" stroke-linecap="round" stroke-linejoin="round" transform="translate(106.400879, 38.421387) rotate(-3.000000) translate(-106.400879, -38.421387) "></path>
            <path d="M32.265625,11.5019531 C32.8346354,26.5898438 33.4036458,41.6777344 33.9726562,56.765625" id="Path-295" stroke="#4A4A4A" stroke-width="2" stroke-linecap="round" stroke-linejoin="round" transform="translate(33.119141, 34.133789) rotate(-3.000000) translate(-33.119141, -34.133789) "></path>
            <path d="M50.7441406,12.1972656 C49.7207031,27.6041667 48.6972656,43.0110677 47.6738281,58.4179688" id="Path-296" stroke="#4A4A4A" stroke-width="2" stroke-linecap="round" stroke-linejoin="round" transform="translate(49.208984, 35.307617) rotate(-3.000000) translate(-49.208984, -35.307617) "></path>
            <path d="M61.2773438,12.7382812 C60.8694661,28.280599 60.4615885,43.8229167 60.0537109,59.3652344" id="Path-297" stroke="#4A4A4A" stroke-width="2" stroke-linecap="round" stroke-linejoin="round" transform="translate(60.665527, 36.051758) rotate(-3.000000) translate(-60.665527, -36.051758) "></path>
            <path d="M75.3652344,13.0283203 C75.0501302,28.5384115 74.735026,44.0485026 74.4199219,59.5585938" id="Path-298" stroke="#4A4A4A" stroke-width="2" stroke-linecap="round" stroke-linejoin="round" transform="translate(74.919922, 36.293457) rotate(-3.000000) translate(-74.919922, -36.293457) "></path>
            <path d="M87.7236328,15.9570312 C87.6233724,30.6455078 87.523112,45.3339844 87.4228516,60.0224609" id="Path-299" stroke="#4A4A4A" stroke-width="2" stroke-linecap="round" stroke-linejoin="round" transform="translate(87.922852, 37.989746) rotate(-3.000000) translate(-87.922852, -37.989746) "></path>
            <path d="M21.2382812,26.2773438 C47.4156901,26.9794922 73.593099,27.6816406 99.7705078,28.3837891" id="Path-300" stroke="#4A4A4A" stroke-width="2" stroke-linecap="round" stroke-linejoin="round" transform="translate(60.504395, 27.330566) rotate(-3.000000) translate(-60.504395, -27.330566) "></path>
            <path d="M19.9931641,47.0253906 C45.9593099,47.8564453 71.9254557,48.6875 97.8916016,49.5185547" id="Path-301" stroke="#4A4A4A" stroke-width="2" stroke-linecap="round" stroke-linejoin="round" transform="translate(58.942383, 48.271973) rotate(-3.000000) translate(-58.942383, -48.271973) "></path>
            <path d="M134.978516,15.5410156 C136.517578,15.4283854 138.056641,15.3157552 139.595703,15.203125" id="Path-307" stroke="#4A4A4A" stroke-width="2" stroke-linecap="round" stroke-linejoin="round" transform="translate(137.287109, 15.703125) rotate(-3.000000) translate(-137.287109, -15.703125) "></path>
            <path d="M134.634766,20.5078125 C136.420898,20.5400391 138.207031,20.5722656 139.993164,20.6044922" id="Path-308" stroke="#4A4A4A" stroke-width="2" stroke-linecap="round" stroke-linejoin="round" transform="translate(137.313965, 21.007812) rotate(-3.000000) translate(-137.313965, -21.007812) "></path>
            <path d="M109.885742,63.1494141 C109.706706,65.1787109 109.527669,67.2080078 109.348633,69.2373047" id="Path-309" stroke="#4A4A4A" stroke-width="2" stroke-linecap="round" stroke-linejoin="round" transform="translate(109.848633, 66.193359) rotate(-3.000000) translate(-109.848633, -66.193359) "></path>
            <path d="M111.850586,64.2021484 C111.929362,65.8772786 112.008138,67.5524089 112.086914,69.2275391" id="Path-310" stroke="#4A4A4A" stroke-width="2" stroke-linecap="round" stroke-linejoin="round" transform="translate(112.350586, 66.714844) rotate(-3.000000) translate(-112.350586, -66.714844) "></path>
            <path d="M37.7949219,5.42285156 C38.1315104,3.71907552 38.468099,2.01529948 38.8046875,0.311523438" id="Path-311" stroke="#4A4A4A" stroke-width="2" stroke-linecap="round" stroke-linejoin="round" transform="translate(38.299805, 2.867188) rotate(-3.000000) translate(-38.299805, -2.867188) "></path>
            <path d="M64.2304688,6.75683594 C64.4166667,4.98209635 64.6028646,3.20735677 64.7890625,1.43261719" id="Path-312" stroke="#4A4A4A" stroke-width="2" stroke-linecap="round" stroke-linejoin="round" transform="translate(64.730469, 4.094727) rotate(-3.000000) translate(-64.730469, -4.094727) "></path>
            <path d="M9.54589844,25.0019531 C-4.46123999,23.2796094 6.21976139,25.7429079 9.16992188,23.8222656" id="Path-313" stroke="#4A4A4A" stroke-width="2" stroke-linecap="round" stroke-linejoin="round" transform="translate(6.019665, 24.412109) rotate(-3.000000) translate(-6.019665, -24.412109) "></path>
            <path d="M22.1083984,59.0371094 C19.3567508,74.3557081 22.9317175,63.8134997 22.6660156,60.5537109" id="Path-314" stroke="#4A4A4A" stroke-width="2" stroke-linecap="round" stroke-linejoin="round" transform="translate(21.871044, 63.082392) rotate(-3.000000) translate(-21.871044, -63.082392) "></path>
            <path d="M135.225586,58.4667969 C122.187414,56.1311509 123.833327,59.3856563 132.874023,57.8867187" id="Path-315" stroke="#4A4A4A" stroke-width="2" stroke-linecap="round" stroke-linejoin="round" transform="translate(130.496848, 58.092523) rotate(-3.000000) translate(-130.496848, -58.092523) "></path>
            <path d="M0.98828125,32.9833984 C2.94596354,32.9160156 4.90364583,32.8486328 6.86132812,32.78125" id="Path-316" stroke="#4A4A4A" stroke-width="2" stroke-linecap="round" stroke-linejoin="round" transform="translate(3.924805, 33.281250) rotate(-3.000000) translate(-3.924805, -33.281250) "></path>
            <path d="M2.62011719,53.5380859 C4.71028646,53.2288411 6.80045573,52.9195964 8.890625,52.6103516" id="Path-317" stroke="#4A4A4A" stroke-width="2" stroke-linecap="round" stroke-linejoin="round" transform="translate(5.755371, 53.110352) rotate(-3.000000) translate(-5.755371, -53.110352) "></path>
            <path d="M97.6767578,5.82910156 C96.6007995,15.9981853 98.6096013,14.1592605 97.5166016,5.68457031" id="Path-318" stroke="#4A4A4A" stroke-width="2" stroke-linecap="round" stroke-linejoin="round" transform="translate(97.848515, 9.226252) rotate(-3.000000) translate(-97.848515, -9.226252) "></path>
        </g>
    </g>
</svg>