<?xml version="1.0" encoding="UTF-8"?>
<svg width="200px" height="200px" viewBox="0 0 200 200" version="1.1" xmlns="http://www.w3.org/2000/svg" xmlns:xlink="http://www.w3.org/1999/xlink">
    <!-- Generator: Sketch 48.2 (47327) - http://www.bohemiancoding.com/sketch -->
    <title>icon-website</title>
    <desc>Created with Sketch.</desc>
    <defs></defs>
    <g id="Icons" stroke="none" stroke-width="1" fill="none" fill-rule="evenodd">
        <g id="icon-website">
            <path d="M148.094727,51.7851562 C142.821972,37.6807554 109.025037,46.823996 102.170898,46.8476562 C52.2523279,47.0199735 65.1626462,39.9753468 30.4492188,49.8818359 C29.5010724,50.1524171 28.6382587,50.8780498 28.1376953,51.7275391 C19.1819938,66.9259576 29.724132,65.6774468 27.7802734,91.0576172 C22.5,160 25.4265805,157.377239 32.4785156,158.750977 C40.6440549,160.341648 49.1298046,157.806863 57.3193359,156.344727 C64.4788168,155.066493 80.2043306,153.714628 88.3984375,154.21875 C91.0833278,154.383931 140.156396,164.680416 145.614258,146.37207 L148.094727,51.7851562 Z" id="Path-824" fill="#EEEEEE"></path>
            <path d="M35.8984375,56.5107422 C87.9327319,52.9444778 82.6227052,52.7021252 164.348633,55.2832031 C165.283161,55.3127175 164.798623,57.2140526 164.460937,58.0859375 C162.929493,62.0400409 163.98395,146.371307 162,146.5 C131.241018,148.495251 89.3367545,146.746148 58.5214844,147.463867 C52.1147225,147.613087 45.3172753,151.591547 39.3740234,149.194336 C36.6579015,148.098788 35.7959809,120.904813 35.8984375,110.5 C35.9848808,101.721392 35.9848808,83.7249723 35.8984375,56.5107422 Z" id="Path-825" fill="#FFFFFF"></path>
            <path d="M47.1519063,128.529925 C45.9269077,122.105175 45.3335489,110.766676 47.1519063,106.444846 C48.9702636,102.123016 75.7552342,99.6620764 91.2518569,99.4617838 C110.743348,99.2098579 120.900652,98.5624473 148.010127,99.4617838 C161.656865,99.9145042 159.219928,111.729845 157.401783,118.64763" id="Path-819" stroke="#4A4A4A" stroke-width="2" stroke-linecap="round" stroke-linejoin="round"></path>
            <path d="M36.7246801,58.5462385 C35.9100263,68.6908046 37.0801953,79.6801209 36.7246801,90.1270359 C36.202799,105.462662 38.1733059,96.3851639 35.4209854,120.644599 C34.4580508,129.132074 35.2542267,147.340285 36.7246801,148.351335 C37.9496788,149.193616 65.3636278,147.163065 81.1542676,147.146694 C107.366939,147.119518 156.287517,148.351335 161.087558,145.942053 C165.956088,143.498395 162.536101,129.25548 163.219933,123.053881 C165.13585,105.678626 164.694119,97.6755601 163.219933,79.2852699 C162.574794,71.2372475 165.411928,65.3180249 163.219933,57.6312987 C162.911898,56.5511066 162.139921,55.1721387 161.087558,55.1309039 C147.067649,54.5815617 133.035072,55.9415916 119.00587,55.8988588 C93.5238281,55.8212407 68.7584045,54.5234406 43.3458198,57.5734957 L36.7246801,58.5462385 Z" id="Path-816" stroke="#4A4A4A" stroke-width="2" stroke-linecap="round" stroke-linejoin="round"></path>
            <path d="M36.4965648,57.6229149 C36.936267,59.8450168 35.5375612,63.9636777 37.8156714,64.2892207 C44.2757165,65.2123641 51.9337459,62.0767156 58.4053606,61.2355785 C79.6664844,58.4721999 117.779719,57.6700976 134.016345,57.9413291 C143.488929,58.0995677 153.008677,61.5304656 162.358794,60.0290592 C164.557591,59.6759846 164.012639,53.7872424 161.806906,53.4788255 C146.393684,51.3236692 84.5911946,51.8923741 64.3788416,52.8733681 C55.1804213,53.3198078 45.9963847,54.1693562 36.8642239,55.3414698 C34.9195713,55.5910661 36.8568243,58.4241897 36.9104804,58.5467865" id="Path-814" stroke="#4A4A4A" stroke-width="2" fill="#D8D8D8" stroke-linecap="round" stroke-linejoin="round"></path>
            <path d="M42,67.8888655 C42.181243,69.4274021 42.543729,71.0188687 42.543729,72.5044754 C42.543729,73.7856127 48.1788901,73.4343246 48.1788901,72.1112226 C48.1788901,70.1177878 48.509415,67.4592862 47.7349279,67.1890227 C46.0366278,66.5963874 44.1516372,67.5694668 42.3599918,67.7596889 L42,67.8888655 Z" id="Path-817" stroke="#4A4A4A" stroke-width="2" stroke-linecap="round" stroke-linejoin="round"></path>
            <path d="M92,67.8888655 C92,70.0439379 92,70.625616 92,72.1112226 C92,73.39236 159.830512,73.4343246 159.830512,72.1112226 C159.830512,70.1177878 163.458943,67.4592862 154.956791,67.1890227 C136.313223,66.5963874 115.620205,67.5694668 95.9519122,67.7596889 L92,67.8888655 Z" id="Path-817-Copy" stroke="#4A4A4A" stroke-width="2" stroke-linecap="round" stroke-linejoin="round"></path>
            <path d="M69.429087,95.6371253 C73.7358261,114.864304 64.3467204,116.126161 74.075267,117.722204 C80.5352295,118.782011 99.8153912,117.922714 123.720612,116.116017 C127.904632,115.799799 125.93135,105.943509 125.933542,102.092058 C125.936427,97.0226028 128.671023,89.096944 123.720612,87.6825254 C108.446426,83.3184252 91.9236737,88.7206605 76.0429631,89.5992844 C73.8112891,89.722755 71.2220262,89.3737366 69.429087,90.6862843 C68.856971,91.1051104 68.856971,92.7553907 69.429087,95.6371253 Z" id="Path-818" stroke="#4A4A4A" stroke-width="2" fill="#D8D8D8" stroke-linecap="round" stroke-linejoin="round"></path>
            <path d="M55,131.135918 C55.7179362,135.387205 54.7085666,134.140412 55.6230226,138.167675 C56.0861624,140.207342 67.7719632,138.796556 72.400218,138.796556 C75.9356509,138.796556 74.512176,132.63867 74.6252118,129.321864 C74.9367231,120.181193 72.400218,123.129796 55.6230226,124.898959 L55,131.135918 Z" id="Path-820" stroke="#4A4A4A" stroke-width="2" stroke-linecap="round" stroke-linejoin="round"></path>
            <path d="M91.029479,131.135918 C91.029479,138.062522 90.389249,139.391955 95.0760838,139.186537 C108.1626,138.612972 110.654691,140.539548 110.654691,137.512072 C110.654691,136.321022 110.51255,124.806435 109.393435,124.138389 C106.03557,122.133938 93.2973061,123.363036 91.029479,123.475591 L91.029479,131.135918 Z" id="Path-821" stroke="#4A4A4A" stroke-width="2" stroke-linecap="round" stroke-linejoin="round"></path>
            <path d="M78.0587939,96.1520798 C78.0587939,98.8356379 76.7818982,99.350697 86.1294744,99.2711124 C112.22965,99.0488975 117.199956,99.7953063 117.199956,98.6223782 C117.199956,98.1609327 116.916466,93.699863 114.684467,93.4410432 C107.98743,92.6644637 82.5818222,93.1406502 78.0587939,93.184257 L78.0587939,96.1520798 Z" id="Path-821-Copy" stroke="#4A4A4A" stroke-width="2" fill="#EEEEEE" stroke-linecap="round" stroke-linejoin="round"></path>
            <path d="M89.0244564,107.545892 C89.0244564,108.862005 88.4933077,109.114608 92.3816077,109.075577 C103.238466,108.966595 105.305959,109.33266 105.305959,108.757415 C105.305959,108.531105 105.188036,106.343238 104.259594,106.216303 C101.473835,105.835441 90.9058951,106.06898 89.0244564,106.090366 L89.0244564,107.545892 Z" id="Path-821-Copy-2" stroke="#4A4A4A" stroke-width="2" fill="#EEEEEE" stroke-linecap="round" stroke-linejoin="round"></path>
            <path d="M127.023277,124.180286 C127.456473,128.923583 125.955499,139.515904 128.759101,139.515904 C132.185725,139.515904 140.908042,139.515904 144.700327,139.515904 C146.203734,139.515904 146.203734,122.923098 144.056618,123.000268 C141.327568,123.098354 133.286358,123.433344 127.901228,123.649883 L127.023277,124.180286 Z" id="Path-822" stroke="#4A4A4A" stroke-width="2" stroke-linecap="round" stroke-linejoin="round"></path>
            <path d="M42.7342728,58.0941987 C39.2794722,57.3253821 39.3454191,61.5034853 41.5561297,61.9003152 C43.9348405,62.3273017 46.1890734,58.8630152 42.7342728,58.0941987 Z" id="Path-823" stroke="#4A4A4A" stroke-width="2"></path>
            <path d="M50.7342728,57.0941987 C47.2794722,56.3253821 47.3454191,60.5034853 49.5561297,60.9003152 C51.9348405,61.3273017 54.1890734,57.8630152 50.7342728,57.0941987 Z" id="Path-823-Copy" stroke="#4A4A4A" stroke-width="2"></path>
            <path d="M58.7342728,55.0941987 C55.2794722,54.3253821 55.3454191,58.5034853 57.5561297,58.9003152 C59.9348405,59.3273017 62.1890734,55.8630152 58.7342728,55.0941987 Z" id="Path-823-Copy-2" stroke="#4A4A4A" stroke-width="2"></path>
            <path d="M164.009766,67.7685547 C166.089193,67.9778646 168.16862,68.1871745 170.248047,68.3964844" id="Path-826" stroke="#4A4A4A" stroke-width="2" stroke-linecap="round" stroke-linejoin="round"></path>
            <path d="M164.723633,64.4833984 C165.813477,64.4801432 166.90332,64.476888 167.993164,64.4736328" id="Path-827" stroke="#4A4A4A" stroke-width="2" stroke-linecap="round" stroke-linejoin="round"></path>
            <path d="M164.798828,61.3232422 C167.454753,61.3297526 170.110677,61.336263 172.766602,61.3427734" id="Path-828" stroke="#4A4A4A" stroke-width="2" stroke-linecap="round" stroke-linejoin="round"></path>
            <path d="M35.9541016,81.5976562 C34.0625,81.6878255 32.1708984,81.7779948 30.2792969,81.8681641" id="Path-829" stroke="#4A4A4A" stroke-width="2" stroke-linecap="round" stroke-linejoin="round"></path>
            <path d="M35.4658203,85.453125 C34.6829427,85.5273438 33.9000651,85.6015625 33.1171875,85.6757812" id="Path-830" stroke="#4A4A4A" stroke-width="2" stroke-linecap="round" stroke-linejoin="round"></path>
            <path d="M41.5166016,54.5205078 C41.3349609,53.6022135 41.1533203,52.6839193 40.9716797,51.765625" id="Path-831" stroke="#4A4A4A" stroke-width="2" stroke-linecap="round" stroke-linejoin="round"></path>
            <path d="M44.5039062,54.5292969 C46.1513672,52.2809245 47.7988281,50.0325521 49.4462891,47.7841797" id="Path-832" stroke="#4A4A4A" stroke-width="2" stroke-linecap="round" stroke-linejoin="round"></path>
            <path d="M48.5058594,148.817383 C48.0299479,150.579427 47.5540365,152.341471 47.078125,154.103516" id="Path-834" stroke="#4A4A4A" stroke-width="2" stroke-linecap="round" stroke-linejoin="round" transform="translate(47.791992, 151.460449) rotate(-32.000000) translate(-47.791992, -151.460449) "></path>
            <path d="M42.1367188,149.589844 C41.7233073,151.467773 41.3098958,153.345703 40.8964844,155.223633" id="Path-835" stroke="#4A4A4A" stroke-width="2" stroke-linecap="round" stroke-linejoin="round"></path>
            <path d="M54.9892578,148.817383 C54.6634115,149.680664 54.3375651,150.543945 54.0117188,151.407227" id="Path-836" stroke="#4A4A4A" stroke-width="2" stroke-linecap="round" stroke-linejoin="round"></path>
            <path d="M164.253906,112.762695 C165.901367,112.827148 167.548828,112.891602 169.196289,112.956055" id="Path-837" stroke="#4A4A4A" stroke-width="2" stroke-linecap="round" stroke-linejoin="round"></path>
            <path d="M163.258789,118.135742 C164.787109,118.164714 166.31543,118.193685 167.84375,118.222656" id="Path-838" stroke="#4A4A4A" stroke-width="2" stroke-linecap="round" stroke-linejoin="round"></path>
            <path d="M85.4482422,51.5146484 C85.6110026,49.9394531 85.773763,48.3642578 85.9365234,46.7890625" id="Path-839" stroke="#4A4A4A" stroke-width="2" stroke-linecap="round" stroke-linejoin="round"></path>
            <path d="M88.7548828,50.8964844 C88.9742839,50.155599 89.1936849,49.4147135 89.4130859,48.6738281" id="Path-840" stroke="#4A4A4A" stroke-width="2" stroke-linecap="round" stroke-linejoin="round"></path>
            <path d="M93.3779297,50.7324219 C93.578125,49.069987 93.7783203,47.4075521 93.9785156,45.7451172" id="Path-841" stroke="#4A4A4A" stroke-width="2" stroke-linecap="round" stroke-linejoin="round"></path>
            <path d="M141.706055,50.7607422 C142.094401,49.5400391 142.482747,48.3193359 142.871094,47.0986328" id="Path-842" stroke="#4A4A4A" stroke-width="2" stroke-linecap="round" stroke-linejoin="round"></path>
            <path d="M144.223633,51.9306641 C145.219727,50.3037109 146.21582,48.6767578 147.211914,47.0498047" id="Path-843" stroke="#4A4A4A" stroke-width="2" stroke-linecap="round" stroke-linejoin="round"></path>
            <path d="M137.102539,147.473633 C137.133789,148.826497 137.165039,150.179362 137.196289,151.532227" id="Path-844" stroke="#4A4A4A" stroke-width="2" stroke-linecap="round" stroke-linejoin="round"></path>
            <path d="M141.499023,147.773438 C141.542969,149.236003 141.586914,150.698568 141.630859,152.161133" id="Path-845" stroke="#4A4A4A" stroke-width="2" stroke-linecap="round" stroke-linejoin="round"></path>
            <path d="M145.182617,147.744141 C145.332682,148.752604 145.482747,149.761068 145.632812,150.769531" id="Path-846" stroke="#4A4A4A" stroke-width="2" stroke-linecap="round" stroke-linejoin="round"></path>
            <path d="M34.7333984,129.944336 C33.8753255,129.995768 33.0172526,130.047201 32.1591797,130.098633" id="Path-847" stroke="#4A4A4A" stroke-width="2" stroke-linecap="round" stroke-linejoin="round"></path>
            <path d="M35.0146484,126.813477 C32.7786458,126.89388 30.5426432,126.974284 28.3066406,127.054688" id="Path-848" stroke="#4A4A4A" stroke-width="2" stroke-linecap="round" stroke-linejoin="round"></path>
        </g>
    </g>
</svg>