<?xml version="1.0" encoding="UTF-8"?>
<svg width="200px" height="200px" viewBox="0 0 200 200" version="1.1" xmlns="http://www.w3.org/2000/svg" xmlns:xlink="http://www.w3.org/1999/xlink">
    <!-- Generator: Sketch 49.3 (51167) - http://www.bohemiancoding.com/sketch -->
    <title>icon-cloud-2</title>
    <desc>Created with Sketch.</desc>
    <defs></defs>
    <g id="icon-cloud-2" stroke="none" stroke-width="1" fill="none" fill-rule="evenodd">
        <path d="M20,106.233126 C18.5,109.233126 13.3130889,113.185862 18.8130889,112.185862 C24.3130889,111.185862 43,112.5 51.3130889,113.733126 C64.6261778,122.466253 86.5,115.111341 100,115.111341 C113.5,115.111341 162,120 180,109.5 C198,99 154.5,112.5 133,111 C111.5,109.5 122.626178,101.733126 97.8130889,107.733126 C73,113.733126 59,113.733126 45.8130889,106.233126 C32.6261778,98.7331263 21.5,103.233126 20,106.233126 Z" id="Path-447" fill="#A0A0A0"></path>
        <path d="M22.5,99.5 L51.5,99.5 C47.8333333,94.5 47.8333333,91.8333333 51.5,91.5 C57,91 61.5,98.5 63.5,97.5 C65.5,96.5 51.5,70.5 68,63 C84.5,55.5 80.5,67 81,70 C81.5,73 83.5,92.5 86.5,91.5 C89.5,90.5 91,83.5 92,83 C93,82.5 96.5,79.5 97.5,96.5 C97.7390581,100.563987 108.341046,98.8316468 115,99.5 C136.196011,101.627425 173.717174,94.4562322 176,97.5 C179,101.5 183.5,106 173,107.5 C167.933738,108.223752 151.384898,111.449302 133.5,111 C114.317839,110.518108 93.7099865,106.412506 87.5,109 C75.5,114 52.5,105 48,105 C43.5,105 28,111.5 24,109 C21.3333333,107.333333 20.8333333,104.166667 22.5,99.5 Z" id="Path-434" fill="#D8D8D8"></path>
        <path d="M44.8076172,100.342773 C31.5,100.342773 24.5,94.9589844 19.5,104 C14.5,113.041016 46.9901574,106.613096 50.1972656,106.701172 C52.265034,106.757958 61,116 72.8535156,113.041016 C102.60192,105.614943 97.2710887,108.212817 123.5,111 C133.828316,112.097526 164.31957,112.137571 177,106.701172 C185.997751,102.843624 176.629934,97.4092106 175,97.2412109 C159.357965,95.6289632 113.714192,101.391589 96.5,97.2412109 C94.8346139,96.8396828 102.17626,85 96.5,82 C92.7158264,80 89.873053,81.9912109 87.9716797,87.9736328 C86.90533,83.7526655 89.444152,71.3378232 89.4101563,66.984375 C89.3934331,64.842833 88.9562866,62.6245056 87.9716797,60.7226562 C86.8892117,58.6317801 85.3222744,56.6901781 83.3867188,55.3496094 C81.5258091,54.0607406 79.2373072,53.2223171 76.9765625,53.1074219 C73.6964651,52.9407213 70.2027255,53.1393344 67.2265625,54.5283203 C64.0775206,55.9979894 61.2322601,58.4293519 59.3349609,61.3408203 C57.0798746,64.8013249 54.4615766,68.9085326 55.1796875,73.0146484 C58.5,92 62.8369688,93.1763276 53.5,86 C52.6738651,85.3650386 48.6726022,83.9318305 44.8076172,87.9736328 C42.2309605,90.6681677 42.2309605,94.7912146 44.8076172,100.342773 Z" id="Path-432" stroke="#4A4A4A" stroke-width="2" stroke-linecap="round" stroke-linejoin="round"></path>
        <path d="M19.5107422,104.723888 C12.6766769,110.123236 18.3889762,112.976004 25.5,113 C43.3897598,113.06037 49.5,111.5 60.5,118 C71.3285137,124.398667 82,110.619237 130.5,116.259593 C140.357225,117.405949 192.521601,118.093549 180.859375,101.396484" id="Path-433" stroke="#4A4A4A" stroke-width="2" stroke-linecap="round" stroke-linejoin="round"></path>
        <path d="M45.3730469,112.992188 C45.1263021,114.596354 44.8795573,116.200521 44.6328125,117.804688" id="Path-435" stroke="#4A4A4A" stroke-width="2" stroke-linecap="round" stroke-linejoin="round"></path>
        <path d="M48.4658203,116.5 C48.4944661,117.746745 48.523112,118.99349 48.5517578,120.240234" id="Path-436" stroke="#4A4A4A" stroke-width="2" stroke-linecap="round" stroke-linejoin="round"></path>
        <path d="M53.8027344,115.34082 C53.4625651,117.370117 53.1223958,119.399414 52.7822266,121.428711" id="Path-437" stroke="#4A4A4A" stroke-width="2" stroke-linecap="round" stroke-linejoin="round"></path>
        <path d="M135.383789,100.004883 C135.591471,97.8369141 135.799154,95.6689453 136.006836,93.5009766" id="Path-438" stroke="#4A4A4A" stroke-width="2" stroke-linecap="round" stroke-linejoin="round"></path>
        <path d="M140.957031,98.2460938 C141.483073,97.0026042 142.009115,95.7591146 142.535156,94.515625" id="Path-439" stroke="#4A4A4A" stroke-width="2" stroke-linecap="round" stroke-linejoin="round"></path>
        <path d="M144.295898,100.671875 C145.577474,98.4749349 146.859049,96.2779948 148.140625,94.0810547" id="Path-440" stroke="#4A4A4A" stroke-width="2" stroke-linecap="round" stroke-linejoin="round"></path>
        <path d="M96.2578125,83.2285156 C97.8219401,82.3395182 99.3860677,81.4505208 100.950195,80.5615234" id="Path-441" stroke="#4A4A4A" stroke-width="2" stroke-linecap="round" stroke-linejoin="round"></path>
        <path d="M97.5458984,86.7851562 C99.1171875,86.820638 100.688477,86.8561198 102.259766,86.8916016" id="Path-442" stroke="#4A4A4A" stroke-width="2" stroke-linecap="round" stroke-linejoin="round"></path>
        <path d="M96.1396484,93.0273438 C97.789388,93.0693359 99.4391276,93.1113281 101.088867,93.1533203" id="Path-443" stroke="#4A4A4A" stroke-width="2" stroke-linecap="round" stroke-linejoin="round"></path>
        <path d="M60.2128906,65.7373047 C58.5055339,63.6757812 56.7981771,61.6142578 55.0908203,59.5527344" id="Path-444" stroke="#4A4A4A" stroke-width="2" stroke-linecap="round" stroke-linejoin="round"></path>
        <path d="M61.1572266,61.7373047 C60.094401,60.3554688 59.0315755,58.9736328 57.96875,57.5917969" id="Path-445" stroke="#4A4A4A" stroke-width="2" stroke-linecap="round" stroke-linejoin="round"></path>
        <path d="M63.4873047,58.6835938 C62.2132161,56.2932943 60.9391276,53.9029948 59.6650391,51.5126953" id="Path-446" stroke="#4A4A4A" stroke-width="2" stroke-linecap="round" stroke-linejoin="round"></path>
    </g>
</svg>