<?xml version="1.0" encoding="UTF-8"?>
<svg width="200px" height="200px" viewBox="0 0 200 200" version="1.1" xmlns="http://www.w3.org/2000/svg" xmlns:xlink="http://www.w3.org/1999/xlink">
    <!-- Generator: Sketch 49.3 (51167) - http://www.bohemiancoding.com/sketch -->
    <title>icon-code</title>
    <desc>Created with Sketch.</desc>
    <defs></defs>
    <g id="icon-code" stroke="none" stroke-width="1" fill="none" fill-rule="evenodd">
        <g transform="translate(53.000000, 45.000000)">
            <path d="M94.5,11.5 C70,34 34,74.5 15.5,100 C13,100.5 4.5,96.5 4.5,93.5 C4.5,90.5 69,28.5 85.5,0.5 C90.5,3 94.5,3.5 94.5,11.5 Z" id="Path-73" fill="#C6C6C6"></path>
            <path d="M3,45.8516484 C31,18.1849817 46.1666667,5.68498168 48.5,8.35164835 C52,12.3516484 58,18.8516484 56.5,19.8516484 C55,20.8516484 22.5,45.8516484 23.5,47.3516484 C24.5,48.8516484 32,58.3516484 31.5,59.8516484 C31,61.3516484 24,69.8516484 22,69.3516484 C20.6666667,69.018315 14.3333333,61.1849817 3,45.8516484 Z" id="Path-72" fill="#ECECEC"></path>
            <path d="M39.7988281,68.4903202 C67.7988281,40.8236536 82.9654948,28.3236536 85.2988281,30.9903202 C88.7988281,34.9903202 94.7988281,41.4903202 93.2988281,42.4903202 C91.7988281,43.4903202 59.2988281,68.4903202 60.2988281,69.9903202 C61.2988281,71.4903202 68.7988281,80.9903202 68.2988281,82.4903202 C67.7988281,83.9903202 60.7988281,92.4903202 58.7988281,91.9903202 C57.4654948,91.6569869 51.1321615,83.8236536 39.7988281,68.4903202 Z" id="Path-72-Copy" fill="#ECECEC" transform="translate(66.666907, 61.325091) rotate(180.000000) translate(-66.666907, -61.325091) "></path>
            <path d="M6,49.0422923 C17.9441872,39.0281948 35.0558128,25.0140974 47,15" id="Path-51" stroke="#4A4A4A" stroke-width="2" stroke-linecap="round" stroke-linejoin="round"></path>
            <path d="M48.4238281,13.59375 C50.0436221,16.9305133 51.6634162,20.2672765 53.2832102,23.6040398" id="Path-52" stroke="#4A4A4A" stroke-width="2" stroke-linecap="round" stroke-linejoin="round" transform="translate(50.853519, 18.598895) rotate(-22.000000) translate(-50.853519, -18.598895) "></path>
            <path d="M54.5,23.5 C21,52 16.4753629,42.0088291 28.181507,60.729218" id="Path-53" stroke="#4A4A4A" stroke-width="2" stroke-linecap="round" stroke-linejoin="round"></path>
            <path d="M20.5616865,67.2500262 C15.707791,61.1666841 10.8538955,55.0833421 6,49" id="Path-54" stroke="#4A4A4A" stroke-width="2" stroke-linecap="round" stroke-linejoin="round"></path>
            <path d="M83.5748342,2 C39.7049538,61.5214075 65.7337646,29.8827807 3,94.8023796" id="Path-55" stroke="#4A4A4A" stroke-width="2" stroke-linecap="round" stroke-linejoin="round"></path>
            <path d="M3,93.7082366 C6.93046942,95.9733603 10.9963835,102.990026 14.7914083,100.503608 C23.736526,94.6429593 25.8760989,82.0383092 32.9995305,74.0531906 C51.8464311,52.9264719 72.8110973,33.7968732 92.470618,13.427921 C96.8893269,8.84975903 87.8148759,-2.16564537 83.5609069,1.87426715" id="Path-56" stroke="#4A4A4A" stroke-width="2" stroke-linecap="round" stroke-linejoin="round"></path>
            <path d="M69.8383287,44.8373956 C84,56 65.6206453,52.8594909 39.5,83 C37.1499186,85.7117497 43.6253311,90.2660388 47,89 C53.5005468,86.5612587 62.2208882,76.2914826 67.207324,71.4515412 C95.9839181,43.5203631 102.264143,56.4259475 76.2702361,37" id="Path-57" stroke="#4A4A4A" stroke-width="2" stroke-linecap="round" stroke-linejoin="round"></path>
            <path d="M34.7325441,24.6445602 C29.7293222,15.736932 29.5040603,15.9508267 35.5947742,24.2929879" id="Path-58" stroke="#4A4A4A" stroke-width="2" stroke-linecap="round" stroke-linejoin="round"></path>
            <path d="M16.8955601,39.156668 C14.3400732,30.8477708 14.0884667,31.0609443 17.8831365,39.1185916" id="Path-59" stroke="#4A4A4A" stroke-width="2" stroke-linecap="round" stroke-linejoin="round"></path>
            <path d="M0.3574046,53.127397 C23.9528266,71.3139881 -12.4170185,42.0505775 5.68970235,57.179515" id="Path-60" stroke="#4A4A4A" stroke-width="2" stroke-linecap="round" stroke-linejoin="round" transform="translate(4.485135, 55.984475) rotate(289.000000) translate(-4.485135, -55.984475) "></path>
            <path d="M83,40.9565664 C90.7643063,35.6905769 90.7110758,35.5884552 83.2367651,41.2078707" id="Path-61" stroke="#4A4A4A" stroke-width="2" stroke-linecap="round" stroke-linejoin="round"></path>
            <path d="M79.380393,6.60134854 C76.1657084,4.71721207 69.0117817,-4.66775033 79.5057392,6.04797129" id="Path-62" stroke="#4A4A4A" stroke-width="2" stroke-linecap="round" stroke-linejoin="round"></path>
            <path d="M89,17.2565217 C94.0836466,23.9972519 93.6123589,24.0057134 89.6545859,16" id="Path-63" stroke="#4A4A4A" stroke-width="2" stroke-linecap="round" stroke-linejoin="round"></path>
            <path d="M69.1335443,19.3516264 C65.0106612,12.3085782 64.9053778,12.248361 69.1196169,18.987362 L69.1335443,19.3516264 Z" id="Path-64" stroke="#4A4A4A" stroke-width="2" stroke-linecap="round" stroke-linejoin="round"></path>
            <path d="M61,81.4645323 C68.3846706,99.7153914 64.1070812,84.6932415 61.5013849,81" id="Path-65" stroke="#4A4A4A" stroke-width="2" stroke-linecap="round" stroke-linejoin="round"></path>
            <path d="M80,62 C88.2643362,72.2185687 88.2497606,72.3346871 80.348184,62.0380764" id="Path-66" stroke="#4A4A4A" stroke-width="2" stroke-linecap="round" stroke-linejoin="round"></path>
            <path d="M92,51.544921 C104.983707,46.0844099 97.0550405,50.9205902 92.3760387,52.1731818" id="Path-67" stroke="#4A4A4A" stroke-width="2" stroke-linecap="round" stroke-linejoin="round"></path>
            <path d="M48,29.0420246 C51.7829303,33.0066385 51.3875291,33.1034244 48.6406585,28" id="Path-68" stroke="#4A4A4A" stroke-width="2" stroke-linecap="round" stroke-linejoin="round"></path>
            <path d="M26.2506925,84 C32.0272567,88.4086275 32.1011049,88.2930466 26,84.326188 L26.2506925,84 Z" id="Path-69" stroke="#4A4A4A" stroke-width="2" stroke-linecap="round" stroke-linejoin="round"></path>
            <path d="M12.2971042,83.8048128 C1.32860951,78.7895752 1.52167236,78.2470105 11.1829155,85.123526" id="Path-70" stroke="#4A4A4A" stroke-width="2" stroke-linecap="round" stroke-linejoin="round"></path>
            <path d="M7.00627041,91.1357513 C-10.9895153,86.4786539 18.3755069,98.1531323 6.19936431,90.4916299" id="Path-71" stroke="#4A4A4A" stroke-width="2" stroke-linecap="round" stroke-linejoin="round"></path>
        </g>
    </g>
</svg>