<?xml version="1.0" encoding="UTF-8"?>
<svg width="200px" height="200px" viewBox="0 0 200 200" version="1.1" xmlns="http://www.w3.org/2000/svg" xmlns:xlink="http://www.w3.org/1999/xlink">
    <!-- Generator: Sketch 49.3 (51167) - http://www.bohemiancoding.com/sketch -->
    <title>icon-video-player</title>
    <desc>Created with Sketch.</desc>
    <defs></defs>
    <g id="icon-video-player" stroke="none" stroke-width="1" fill="none" fill-rule="evenodd">
        <path d="M44.0392032,73.4154138 C78.9079495,70.0623496 134.28647,64.1486458 155.51579,68.5943137 C159.840292,69.4999151 159.109169,116.007617 153.787879,117.765693 C136.029335,123.632856 114.32351,123.199793 95.7152182,123.508757 C89.8643741,123.605902 84.0138137,124.017368 78.195145,124.670459 C66.6329239,125.968211 55.2238208,129.509234 43.5971009,129.358529 C41.9699464,129.337438 44.2131443,125.918743 43.9480829,124.226551 C43.5493007,121.680665 43.5796741,104.74362 44.0392032,73.4154138 Z" id="Path-523" fill="#EEEEEE"></path>
        <path d="M44,64.4309526 C78.8687463,64.205712 134.247267,63.8084616 155.476587,64.1070973 C159.801089,64.1679307 159.069966,67.2920649 153.748676,67.4101629 C135.990132,67.8042869 114.284307,67.7751961 95.676015,67.7959506 C89.8251709,67.8024763 83.9746105,67.8301163 78.1559418,67.8739875 C66.5937207,67.9611633 56.6610099,72.7517022 45.0342901,72.7415786 C44.6355079,72.5705599 44.2907446,69.8003512 44,64.4309526 Z" id="Path-523-Copy" fill="#9B9B9B"></path>
        <path d="M45,64.2328063 C113.541746,61.3876392 79.3766208,62.1198923 147.494824,62.0075738" id="Path-497" stroke="#4A4A4A" stroke-width="2" stroke-linecap="round" stroke-linejoin="round"></path>
        <path d="M43.7254336,66.3177209 C43.6716796,70.8099182 41.0381499,73.9745907 46.1512587,72.4035488 C61.9432534,67.5513376 104.979724,67.6539597 114.661582,67.1375959 C128.429381,66.4033162 142.226023,67.8291935 155.987005,66.8148792 C156.579418,66.7712127 155.929401,64.2031787 155.337688,64.1393826 L156.169246,61.1825991 C149.962952,60.5134613 143.736386,61.8730968 137.519956,62.2183456" id="Path-498" stroke="#4A4A4A" stroke-width="2" stroke-linecap="round" stroke-linejoin="round"></path>
        <path d="M100.977182,86.0839442 C80.5421134,90.7422951 87.1304374,106.284654 100.924535,103.951253 C105.604117,103.159658 115.361375,91.030537 107.937424,87.9420988 C105.360717,86.8701629 102.535002,86.6473663 99.8337909,86" id="Path-500" stroke="#4A4A4A" stroke-width="2" stroke-linecap="round" stroke-linejoin="round"></path>
        <path d="M55.547658,73.0358856 C46.8118037,75.0272993 49.6282679,81.671553 55.5251516,80.6740398 C57.5256416,80.3356381 61.6968037,75.1505207 58.5231145,73.8302342 C57.4215897,73.3719888 56.2136155,73.2767447 55.0588659,73" id="Path-500-Copy" stroke="#4A4A4A" stroke-width="2" stroke-linecap="round" stroke-linejoin="round"></path>
        <path d="M95.0036643,90 C94.9055083,93.7347585 96.8118967,96.3172941 96.8118967,99.9780218 C96.8118967,102.757195 99.1327568,98.8595507 101.903051,97.0462126 C103.071239,96.2815574 109.770534,92.9969933 108.577114,92.2769214 C106.471765,91.0066207 101.947282,90.2476469 95.0036643,90 Z" id="Path-501" stroke="#4A4A4A" stroke-width="2" fill="#9B9B9B" stroke-linecap="round" stroke-linejoin="round"></path>
        <path d="M49.001226,122 C48.9683851,123.249568 49.6062209,124.113628 49.6062209,125.338427 C49.6062209,126.268278 50.3827299,124.964212 51.3096097,124.357508 C51.7004599,124.101671 53.9418972,123.002728 53.5426048,122.761808 C52.8382012,122.336793 51.3244082,122.082857 49.001226,122 Z" id="Path-501-Copy" stroke="#4A4A4A" stroke-width="2" stroke-linecap="round" stroke-linejoin="round"></path>
        <path d="M44,70.6659965 C44.5978241,79.4658754 45.6384772,88.2262193 45.7934723,97.0656333 C45.9751901,107.429049 44.3671614,117.819866 45.0078701,128.145113 C45.0908909,129.483022 46.8351967,128.880496 47.7606713,128.767738 C64.5187973,126.725948 81.8121366,126.665868 98.58984,124.993895 C117.111919,123.148087 135.696262,125.211831 153.621525,118.218229 C157.965532,116.5234 155.004272,105.341189 156.079246,99.0221884 C156.96755,93.8004838 162.988807,60.9959932 154.898927,63.0965856" id="Path-499" stroke="#4A4A4A" stroke-width="2" stroke-linecap="round" stroke-linejoin="round"></path>
        <path d="M62,73.6787793 C67.2710742,73.3625827 72.5204554,72.9773547 77.8132226,72.7301895 C83.2126122,72.4780452 88.7922842,71.6331583 94.0606506,72.1815894 C95.9029309,72.3733688 96.6080559,74.1874645 94.8723311,74.5060239 C89.6644022,75.4618408 83.5043364,74.8852842 77.8415878,75.1582918 C66.8896631,75.6862965 62.7808305,77.7715069 62.391294,73.8774259 L62,73.6787793 Z" id="Path-502" stroke="#4A4A4A" stroke-width="2" stroke-linecap="round" stroke-linejoin="round"></path>
        <path d="M64,78.8947702 C66.1352115,78.726241 68.2616355,78.5209189 70.4056344,78.3891827 C72.5928239,78.2547926 74.8530425,77.8044775 76.987157,78.0967851 C77.7334296,78.1990013 78.0190623,79.1658936 77.3159533,79.3356821 C75.2063208,79.8451216 72.7109958,79.5378235 70.4171246,79.6833334 C65.9807091,79.964754 64.3162995,81.0761472 64.1585057,79.0006466 L64,78.8947702 Z" id="Path-502" stroke="#4A4A4A" stroke-width="2" stroke-linecap="round" stroke-linejoin="round"></path>
        <path d="M59,121.244098 C72.8268883,120.896554 85.9010702,118.507361 99.7787009,118.228569 C109.577035,118.031727 135.788274,115.652899 145.395553,116.043174 C148.387107,116.1647 146.506681,118.023611 143.667642,118.228569 C133.397551,118.969996 110.753055,120.941756 99.7787009,121.244098 C91.8501398,121.46253 78.7418646,122.163918 60.4538752,123.348264 C59.9053366,122.711004 60.436776,122.059366 60.4282265,121.414917 L59,121.244098 Z" id="Path-503" stroke="#4A4A4A" stroke-width="2" stroke-linecap="round" stroke-linejoin="round"></path>
        <path d="M41,89.8024496 C42.9178013,89.5349664 44.8356026,89.2674832 46.7534038,89" id="Path-504" stroke="#4A4A4A" stroke-width="2" stroke-linecap="round" stroke-linejoin="round"></path>
        <path d="M44,95.0633138 C44.8095083,95.0422092 45.6190167,95.0211046 46.428525,95" id="Path-505" stroke="#4A4A4A" stroke-width="2" stroke-linecap="round" stroke-linejoin="round"></path>
        <path d="M43,97.2881136 C44.515297,97.1920757 46.030594,97.0960379 47.545891,97" id="Path-506" stroke="#4A4A4A" stroke-width="2" stroke-linecap="round" stroke-linejoin="round"></path>
        <path d="M157,89.1899415 C158.216512,89.1266277 159.433025,89.0633138 160.649537,89" id="Path-507" stroke="#4A4A4A" stroke-width="2" stroke-linecap="round" stroke-linejoin="round"></path>
        <path d="M157,90.1195138 C158.303133,90.0796758 159.606266,90.0398379 160.909399,90" id="Path-508" stroke="#4A4A4A" stroke-width="2" stroke-linecap="round" stroke-linejoin="round"></path>
        <path d="M43,121 C43.9177278,121.016362 44.8354555,121.032724 45.7531833,121.049086" id="Path-509" stroke="#4A4A4A" stroke-width="2" stroke-linecap="round" stroke-linejoin="round"></path>
        <path d="M64,128 C64.3246583,128.966781 64.6493166,129.933562 64.9739749,130.900343" id="Path-510" stroke="#4A4A4A" stroke-width="2" stroke-linecap="round" stroke-linejoin="round"></path>
        <path d="M75,127 C75.0908953,127.52311 75.1817906,128.04622 75.272686,128.56933" id="Path-511" stroke="#4A4A4A" stroke-width="2" stroke-linecap="round" stroke-linejoin="round"></path>
        <path d="M77,127 C77.3118339,127.675822 77.6236679,128.351644 77.9355018,129.027466" id="Path-512" stroke="#4A4A4A" stroke-width="2" stroke-linecap="round" stroke-linejoin="round"></path>
        <path d="M81,127 C81.3680811,128.074675 81.7361621,129.149351 82.1042432,130.224026" id="Path-513" stroke="#4A4A4A" stroke-width="2" stroke-linecap="round" stroke-linejoin="round"></path>
        <path d="M143,122 C143.099445,122.725145 143.19889,123.45029 143.298335,124.175435" id="Path-514" stroke="#4A4A4A" stroke-width="2" stroke-linecap="round" stroke-linejoin="round"></path>
        <path d="M145,121 C145.026099,122.084161 145.052197,123.168321 145.078296,124.252482" id="Path-515" stroke="#4A4A4A" stroke-width="2" stroke-linecap="round" stroke-linejoin="round"></path>
        <path d="M47.1039446,64.8436482 C47.0692964,63.5624321 47.0346482,62.2812161 47,61" id="Path-516" stroke="#4A4A4A" stroke-width="2" stroke-linecap="round" stroke-linejoin="round"></path>
        <path d="M50.5068989,64.344035 C50.3379326,63.56269 50.1689663,62.781345 50,62" id="Path-517" stroke="#4A4A4A" stroke-width="2" stroke-linecap="round" stroke-linejoin="round"></path>
        <path d="M53.155917,63.7594876 C53.1039446,62.8396584 53.0519723,61.9198292 53,61" id="Path-518" stroke="#4A4A4A" stroke-width="2" stroke-linecap="round" stroke-linejoin="round"></path>
        <path d="M118,61.9707709 C118.268411,60.9805139 118.536822,59.990257 118.805234,59" id="Path-519" stroke="#4A4A4A" stroke-width="2" stroke-linecap="round" stroke-linejoin="round"></path>
        <path d="M121,62.2588844 C121.199115,61.1725896 121.39823,60.0862948 121.597344,59" id="Path-520" stroke="#4A4A4A" stroke-width="2" stroke-linecap="round" stroke-linejoin="round"></path>
        <path d="M124.155917,62.3648817 C124.103945,61.2432545 124.051972,60.1216272 124,59" id="Path-521" stroke="#4A4A4A" stroke-width="2" stroke-linecap="round" stroke-linejoin="round"></path>
        <path d="M44.5715397,87 C43.0476931,87.128999 41.5238466,87.257998 40,87.386997" id="Path-522" stroke="#4A4A4A" stroke-width="2" stroke-linecap="round" stroke-linejoin="round"></path>
    </g>
</svg>