<?xml version="1.0" encoding="UTF-8"?>
<svg width="344px" height="344px" viewBox="0 0 344 344" version="1.1" xmlns="http://www.w3.org/2000/svg" xmlns:xlink="http://www.w3.org/1999/xlink">
    <!-- Generator: Sketch 48.2 (47327) - http://www.bohemiancoding.com/sketch -->
    <title>icon-subtle-pattern</title>
    <desc>Created with Sketch.</desc>
    <defs></defs>
    <g id="Icons" stroke="none" stroke-width="1" fill="none" fill-rule="evenodd">
        <g id="icon-subtle-pattern">
            <path d="M83.6800333,298.556766 C95.8847152,301.749792 104.027956,279.254447 116.08433,281.576891 C145.79479,287.300079 119.32073,314.562005 116.08433,317.613803 C102.908549,330.03805 80.5094076,330.87709 78.8265177,330.03805 C53.6995964,317.510504 44.908549,314.833615 47.408549,306.69519 C49.908549,298.556766 51.408549,290.113803 83.6800333,298.556766 Z" id="Path-1641" fill="#F7F7F1"></path>
            <path d="M301.142013,59.2195069 C276.7024,59.7875348 295.780624,77.9443772 295.049939,84.8410417 C293.957305,95.1540117 280.572546,94.9946006 282.125158,109.278642 C284.673207,132.720707 311.019074,114.662304 321.371432,109.278642 C327.560443,106.060097 326.982862,86.2422264 325.455781,82.5082262 C324.715383,80.6978155 321.980785,80.1006904 321.371432,77.6611931 C317.926864,63.8711164 311.183724,57.7238876 301.142013,59.2195069 Z" id="Path-1642" fill="#F7F7F1"></path>
            <path d="M32.0987358,25.3637497 C34.5273917,29.8981579 44.9140859,23.6209707 49.02054,23.137915 C53.6911819,22.588492 56.9515794,26.4589386 61.6801503,25.1159431 C62.5384879,24.8721604 63.2543821,24.2486252 63.5731761,23.5907521 C66.0914913,18.3938804 56.9167511,12.5898593 50.4480046,14.3075905 C47.008616,15.2208965 46.2552519,15.9943797 42.9211107,17.1138533 C38.4781354,18.6056299 37.9322131,17.1665063 35.2874455,15.6034128 C29.541676,15.3516727 28.4787728,18.6051183 32.0987358,25.3637497 Z" id="Path-1591" fill="#F7F7F1" transform="translate(47.000000, 20.500000) rotate(-139.000000) translate(-47.000000, -20.500000) "></path>
            <path d="M115.556904,147.678736 C109.285964,152.556379 122.097557,156.995024 119.61618,162.511574 C115.906153,170.759636 105.356038,178.538569 126.05199,178.3744 C129.76272,178.344965 143.887652,175.577431 141.698767,167.746516 C139.11653,158.508358 136.706732,163.624485 137.338239,155.703648 C137.794013,149.986994 153.133403,136.549826 134.137071,138.584836 C123.374206,139.737823 117.491565,146.173924 115.556904,147.678736 Z" id="Path-1592" fill="#F7F7F1" transform="translate(128.619422, 158.376953) rotate(34.000000) translate(-128.619422, -158.376953) "></path>
            <path d="M22,20 C22.7475515,23.5748582 24.9227219,24.2547095 23.5616803,20.3952953" id="Path-1588" stroke="#D8D8D8" stroke-linecap="round" stroke-linejoin="round"></path>
            <path d="M19,184.974693 C19.8400487,181.088805 26.7036902,183.758616 20.2838151,186" id="Path-1589" stroke="#D8D8D8" stroke-linecap="round" stroke-linejoin="round"></path>
            <path d="M148,74 C136.914258,74 135.608756,84.1693822 146.66633,78.0294731" id="Path-1590" stroke="#D8D8D8" stroke-linecap="round" stroke-linejoin="round"></path>
            <path d="M21,144.168645 C21.0654657,150.773484 27.4352676,143.712207 21.4124233,144.009169" id="Path-1593" stroke="#D8D8D8" stroke-linecap="round" stroke-linejoin="round"></path>
            <path d="M100,113.342973 C100.658055,117.500453 105.992603,112.450607 100.640622,113.050223" id="Path-1594" stroke="#D8D8D8" stroke-linecap="round" stroke-linejoin="round"></path>
            <path d="M183.424601,58 C181.289772,66.4354993 188.161591,59.044286 183.08723,58.1750699" id="Path-1595" stroke="#D8D8D8" stroke-linecap="round" stroke-linejoin="round"></path>
            <path d="M98.4855173,7 C97.3104054,14.298991 102.79331,5.74240061 98,7.61668085" id="Path-1596" stroke="#D8D8D8" stroke-linecap="round" stroke-linejoin="round"></path>
            <path d="M22,151.482422 C22.6666667,151.321615 23.3333333,151.160807 24,151" id="Path-1597" stroke="#D8D8D8" stroke-linecap="round" stroke-linejoin="round"></path>
            <path d="M21,158 C20.6666667,158.666667 20.3333333,159.333333 20,160" id="Path-1599" stroke="#D8D8D8" stroke-linecap="round" stroke-linejoin="round"></path>
            <path d="M30,156 C30.6666667,156.333333 31.3333333,156.666667 32,157" id="Path-1600" stroke="#D8D8D8" stroke-linecap="round" stroke-linejoin="round"></path>
            <path d="M68,279 C68.6666667,279.333333 69.3333333,279.666667 70,280" id="Path-1600-Copy" stroke="#D8D8D8" stroke-linecap="round" stroke-linejoin="round"></path>
            <path d="M111,113 C111.666667,113.333333 112.333333,113.666667 113,114" id="Path-1600-Copy-2" stroke="#D8D8D8" stroke-linecap="round" stroke-linejoin="round"></path>
            <path d="M14,89.7036064 C17.1102045,90.2022458 16.098621,90.4869321 14.2967398,87" id="Path-1606" stroke="#D8D8D8" stroke-linecap="round" stroke-linejoin="round"></path>
            <path d="M74,77.4108465 C74.127677,79.6220847 76.9987761,82.1013652 75.6319935,77" id="Path-1607" stroke="#D8D8D8" stroke-linecap="round" stroke-linejoin="round"></path>
            <path d="M77,175.580358 C78.1537962,180.388514 82.1971462,176.858669 78.4275778,175" id="Path-1608" stroke="#D8D8D8" stroke-linecap="round" stroke-linejoin="round"></path>
            <path d="M115,298.580358 C116.153796,303.388514 120.197146,299.858669 116.427578,298" id="Path-1608-Copy" stroke="#D8D8D8" stroke-linecap="round" stroke-linejoin="round"></path>
            <path d="M158,132.580358 C159.153796,137.388514 163.197146,133.858669 159.427578,132" id="Path-1608-Copy-2" stroke="#D8D8D8" stroke-linecap="round" stroke-linejoin="round"></path>
            <path d="M184,101.30431 C186.825922,103.735923 186.350825,103.762951 184.469756,100" id="Path-1609" stroke="#D8D8D8" stroke-linecap="round" stroke-linejoin="round"></path>
            <path d="M159,74.1522757 C159,79.5615035 162.712696,75.9551301 160.02115,74" id="Path-1610" stroke="#D8D8D8" stroke-linecap="round" stroke-linejoin="round"></path>
            <path d="M152,67 C152.042969,66 152.085938,65 152.128906,64" id="Path-1611" stroke="#D8D8D8" stroke-linecap="round" stroke-linejoin="round"></path>
            <path d="M146.880859,87 C146.58724,87.3333333 146.29362,87.6666667 146,88" id="Path-1612" stroke="#D8D8D8" stroke-linecap="round" stroke-linejoin="round"></path>
            <path d="M160,90 C160.333333,90.6666667 160.666667,91.3333333 161,92" id="Path-1613" stroke="#D8D8D8" stroke-linecap="round" stroke-linejoin="round"></path>
            <path d="M137,67.984375 C136,67.65625 135,67.328125 134,67" id="Path-1614" stroke="#D8D8D8" stroke-linecap="round" stroke-linejoin="round"></path>
            <path d="M17,79 C17.2578125,78.3333333 17.515625,77.6666667 17.7734375,77" id="Path-1615" stroke="#D8D8D8" stroke-linecap="round" stroke-linejoin="round"></path>
            <path d="M12,81 C9.66666667,80 7.33333333,79 5,78" id="Path-1616" stroke="#D8D8D8" stroke-linecap="round" stroke-linejoin="round"></path>
            <path d="M124.71875,279.039062 C124.532552,280.282552 124.346354,281.526042 124.160156,282.769531" id="Path-1617" stroke="#D8D8D8" stroke-linecap="round" stroke-linejoin="round"></path>
            <path d="M240.509766,223.724609 C242.026681,225.362454 247.762986,226.251472 241.175781,223.029297" id="Path-1618" stroke="#D8D8D8" stroke-linecap="round" stroke-linejoin="round"></path>
            <path d="M289.966797,104.322266 C290.417122,111.290025 294.865348,105.616167 290.525391,103.916016" id="Path-1619" stroke="#D8D8D8" stroke-linecap="round" stroke-linejoin="round"></path>
            <path d="M319.429688,227.996094 C319.838568,235.186984 322.089153,231.377547 320.759766,228.769531" id="Path-1620" stroke="#D8D8D8" stroke-linecap="round" stroke-linejoin="round"></path>
            <path d="M281.914062,326.121094 C283.547255,334.478781 287.299732,319.064365 282.492188,326.371094" id="Path-1621" stroke="#D8D8D8" stroke-linecap="round" stroke-linejoin="round"></path>
            <path d="M26.9238281,324.265625 C24.4066174,330.5826 32.7074016,326.334761 26.7949219,323.898438 L26.9238281,324.265625 Z" id="Path-1622" stroke="#D8D8D8" stroke-linecap="round" stroke-linejoin="round"></path>
            <path d="M22.6503906,235.515625 C27.9621948,235.632412 24.0545824,241.741396 21.7480469,234.277344" id="Path-1623" stroke="#D8D8D8" stroke-linecap="round" stroke-linejoin="round"></path>
            <path d="M222.621094,138.53125 C219.934247,146.254353 225.655639,141.036723 222.792969,138.376953" id="Path-1624" stroke="#D8D8D8" stroke-linecap="round" stroke-linejoin="round"></path>
            <path d="M312.943359,40.8710938 C310.612167,50.2564134 319.006374,41.8442328 311.677734,41.625" id="Path-1625" stroke="#D8D8D8" stroke-linecap="round" stroke-linejoin="round"></path>
            <path d="M310.539062,61.4746094 C311.548177,61.5195312 312.557292,61.5644531 313.566406,61.609375" id="Path-1626" stroke="#D8D8D8" stroke-linecap="round" stroke-linejoin="round"></path>
            <path d="M317.796875,53.9550781 C318.405599,53.4720052 319.014323,52.9889323 319.623047,52.5058594" id="Path-1627" stroke="#D8D8D8" stroke-linecap="round" stroke-linejoin="round"></path>
            <path d="M313.996094,32.9667969 C314.633464,31.9550781 315.270833,30.9433594 315.908203,29.9316406" id="Path-1628" stroke="#D8D8D8" stroke-linecap="round" stroke-linejoin="round"></path>
            <path d="M288.376953,183.929688 C289.400391,183.34375 290.423828,182.757812 291.447266,182.171875" id="Path-1629" stroke="#D8D8D8" stroke-linecap="round" stroke-linejoin="round"></path>
            <path d="M171.425781,209.925781 C171.604818,208.901693 171.783854,207.877604 171.962891,206.853516" id="Path-1630" stroke="#D8D8D8" stroke-linecap="round" stroke-linejoin="round"></path>
            <path d="M173.337891,266.033203 C173.524089,267.45638 173.710286,268.879557 173.896484,270.302734" id="Path-1631" stroke="#D8D8D8" stroke-linecap="round" stroke-linejoin="round"></path>
            <path d="M155.019531,325.501953 C155.814453,325.965495 156.609375,326.429036 157.404297,326.892578" id="Path-1632" stroke="#D8D8D8" stroke-linecap="round" stroke-linejoin="round"></path>
            <path d="M74.9414062,253.005859 C75.4778646,252.16862 76.0143229,251.33138 76.5507812,250.494141" id="Path-1633" stroke="#D8D8D8" stroke-linecap="round" stroke-linejoin="round"></path>
            <path d="M89,220 C89.5651042,220.914714 90.1302083,221.829427 90.6953125,222.744141" id="Path-1634" stroke="#D8D8D8" stroke-linecap="round" stroke-linejoin="round"></path>
            <path d="M127,342 C127.565104,342.914714 128.130208,343.829427 128.695312,344.744141" id="Path-1634-Copy" stroke="#D8D8D8" stroke-linecap="round" stroke-linejoin="round"></path>
            <path d="M170,176 C170.565104,176.914714 171.130208,177.829427 171.695312,178.744141" id="Path-1634-Copy-2" stroke="#D8D8D8" stroke-linecap="round" stroke-linejoin="round"></path>
            <path d="M245.835938,55.25 C244.239583,55.7460938 242.643229,56.2421875 241.046875,56.7382812" id="Path-1635" stroke="#D8D8D8" stroke-linecap="round" stroke-linejoin="round"></path>
            <path d="M252.449219,26.4140625 C253.022135,26.0859375 253.595052,25.7578125 254.167969,25.4296875" id="Path-1636" stroke="#D8D8D8" stroke-linecap="round" stroke-linejoin="round"></path>
            <path d="M330.552734,136.869141 C331.583333,136.23763 332.613932,135.60612 333.644531,134.974609" id="Path-1637" stroke="#D8D8D8" stroke-linecap="round" stroke-linejoin="round"></path>
            <path d="M178.041016,263.113281 C179.34375,263.989583 180.646484,264.865885 181.949219,265.742188" id="Path-1638" stroke="#D8D8D8" stroke-linecap="round" stroke-linejoin="round"></path>
            <path d="M325.076172,235.804688 C325.863932,235.817708 326.651693,235.830729 327.439453,235.84375" id="Path-1639" stroke="#D8D8D8" stroke-linecap="round" stroke-linejoin="round"></path>
            <path d="M309.572266,215.453125 C310.030599,214.016276 310.488932,212.579427 310.947266,211.142578" id="Path-1640" stroke="#D8D8D8" stroke-linecap="round" stroke-linejoin="round"></path>
            <path d="M128.046875,163.927734 C129.35026,163.289714 130.653646,162.651693 131.957031,162.013672" id="Path-1643" stroke="#D8D8D8" stroke-linecap="round" stroke-linejoin="round"></path>
            <path d="M43.0722656,19.0117188 C42.7786458,20.28125 42.485026,21.5507812 42.1914062,22.8203125" id="Path-1644" stroke="#D8D8D8" stroke-linecap="round" stroke-linejoin="round"></path>
            <path d="M111.511719,7.55078125 C112.013021,8.0859375 112.514323,8.62109375 113.015625,9.15625" id="Path-1645" stroke="#D8D8D8" stroke-linecap="round" stroke-linejoin="round"></path>
            <path d="M79.859375,200.455078 C78.4707031,201.292969 77.0820312,202.130859 75.6933594,202.96875" id="Path-1646" stroke="#D8D8D8" stroke-linecap="round" stroke-linejoin="round"></path>
            <path d="M254.855469,261.103516 C255.828776,262.320964 256.802083,263.538411 257.775391,264.755859" id="Path-1647" stroke="#D8D8D8" stroke-linecap="round" stroke-linejoin="round"></path>
            <path d="M238.621094,298.347656 C239.572917,298.192708 240.52474,298.03776 241.476562,297.882812" id="Path-1648" stroke="#D8D8D8" stroke-linecap="round" stroke-linejoin="round"></path>
            <path d="M232.972656,285.28125 C235.910178,287.770675 235.489851,288.035467 234.154297,284.373047" id="Path-1649" stroke="#D8D8D8" stroke-linecap="round" stroke-linejoin="round"></path>
            <path d="M287.431641,283.291016 C291.4967,284.912271 292.67872,281.213096 289.064453,280.392578" id="Path-1650" stroke="#D8D8D8" stroke-linecap="round" stroke-linejoin="round"></path>
            <path d="M255.134766,168.101562 C256.516276,167.714844 257.897786,167.328125 259.279297,166.941406" id="Path-1651" stroke="#D8D8D8" stroke-linecap="round" stroke-linejoin="round"></path>
            <path d="M240.101562,106.371094 C240.323568,105.875 240.545573,105.378906 240.767578,104.882812" id="Path-1652" stroke="#D8D8D8" stroke-linecap="round" stroke-linejoin="round"></path>
            <path d="M271.583984,15.4941406 C272.313802,14.7278646 273.04362,13.9615885 273.773438,13.1953125" id="Path-1653" stroke="#D8D8D8" stroke-linecap="round" stroke-linejoin="round"></path>
            <path d="M308.863281,85.4785156 C312.29845,86.8394039 311.409591,87.220585 310.345703,82.984375" id="Path-1654" stroke="#D8D8D8" stroke-linecap="round" stroke-linejoin="round"></path>
            <path d="M14.0039062,146.890625 C14.7701823,146.903646 15.5364583,146.916667 16.3027344,146.929688" id="Path-1598" stroke="#D8D8D8" stroke-linecap="round" stroke-linejoin="round"></path>
            <path d="M171.637695,15.1352539 C171.65918,14.5828451 171.680664,14.0304362 171.702148,13.4780273" id="Path-1601" stroke="#D8D8D8" stroke-linecap="round" stroke-linejoin="round"></path>
            <path d="M173.635254,15.4785156 C174.372559,15.1917318 175.109863,14.9049479 175.847168,14.6181641" id="Path-1602" stroke="#D8D8D8" stroke-linecap="round" stroke-linejoin="round"></path>
            <path d="M174.080566,19.6337891 C175.923828,19.5581055 177.76709,19.4824219 179.610352,19.4067383" id="Path-1603" stroke="#D8D8D8" stroke-linecap="round" stroke-linejoin="round"></path>
            <path d="M168.003418,19.2568359 C166.629289,23.5943095 169.885766,21.9409857 167.761719,20.1362305" id="Path-1604" stroke="#D8D8D8" stroke-linecap="round" stroke-linejoin="round"></path>
        </g>
    </g>
</svg>