<svg id="Layer_1" data-name="Layer 1" xmlns="http://www.w3.org/2000/svg" viewBox="0 0 378.9 446.7"><defs><style>.cls-1{fill:#231f20;}</style></defs><title>icon-</title><path class="cls-1" d="M167.5,25.5c.5,2.1,1,4,1.4,6l1.3,6.1c.8,4,1.5,8,2.3,12s1.4,8.1,2.1,12.1,1.3,8.1,1.9,12.1,1.3,8.1,1.8,12.2l1.6,12.2.8,6.1.7,6.1,1.4,12.2c1.8,16.3,3.3,32.6,4.3,49l.8,12.2.6,12.3.6,12.3c.1,4.1.3,8.2.4,12.3.4,16.3,1.8,32.8,2.2,49.2.1,4.1.2,8.2.2,12.3s-.1,8.2-.3,12.3c-.5,8.2-1.3,16.3-2.4,24.5-.6,4-1.1,8.1-1.8,12.2s-1.5,8.1-2.3,12.1c-1.6,8.1-3.4,16.1-5.5,24.2-.5,2-1,4-1.6,6s-1.1,4-1.8,6c-1.2,3.9-2.5,7.9-3.9,11.9s-2.8,7.9-4.4,11.8-3.2,7.8-5.1,11.7a2.1,2.1,0,0,1-2.8,1,2.4,2.4,0,0,1-1.2-1.4h0c-4.1-16.8-5.9-33.2-7.3-49.5-.8-8.2-1.3-16.3-1.6-24.4-.2-4.1-.3-8.1-.4-12.1,0-2.1-.1-4.1-.1-6.1v-6.1c-.1-8,.1-16.1.6-24.1.1-2,.4-4,.5-6s.3-4,.5-6c.3-4,.8-8,1.2-12l1.6-12,.8-6.1.7-6c.9-8,1.7-16,2.3-24.1.4-4,.6-8,.8-12l.8-12.1.8-12.1.6-12.1c.5-8,1-16.1,1.3-24.2l.6-12.1.3-6,.2-6.1c.6-16.2,1-32.4,1.1-48.6.1-4,.2-8.1.1-12.1V50.4c-.1-8.1-.2-16.2-.5-24.3h0a2,2,0,0,1,3.9-.6Z"/><path class="cls-1" d="M31.2,243.9a134.3,134.3,0,0,1,11.2,8.2l5.4,4.3,5.3,4.4,2.6,2.3,2.5,2.3,5.1,4.6,10,9.5,9.6,9.8,9.4,10.2c1.6,1.6,3.1,3.4,4.6,5.1l4.5,5.2,4.5,5.2,4.4,5.3,8.8,10.6,8.4,10.9,4.2,5.5,4.1,5.5,8.1,11.2c5.4,7.5,10.5,15.1,15.6,22.7s10,15.5,14.9,23.3l-25.7-1.5,9-13.3c2.9-4.5,6-8.9,9-13.4s6-8.9,9.1-13.3l4.5-6.7,4.6-6.6c6.2-8.8,12.6-17.5,19.3-25.9,3.5-4.2,6.9-8.3,10.5-12.3l5.5-5.9,5.6-5.8,11.7-11.2c4-3.7,8.1-7.2,12.2-10.8s8.3-6.9,12.5-10.3,8.7-6.6,13.1-9.7,9-6.2,13.6-9.2,9.2-5.8,14.1-8.4l7.3-3.8a31.4,31.4,0,0,1,3.7-1.8l3.8-1.8a130.5,130.5,0,0,1,15.5-5.9,2,2,0,0,1,2.6,1.3,1.9,1.9,0,0,1-.4,1.9h0l-40.1,49.1c-3.2,4.2-6.5,8.1-9.8,12.2l-9.8,12c-3.3,4.1-6.6,8-9.9,12L256,332.9l-5,6-5.1,5.8-5.2,5.8c-1.7,1.9-3.4,3.9-5.2,5.8l-10.6,11.4c-3.6,3.7-7.1,7.5-10.7,11.3l-5.3,5.6-5.3,5.8c-3.5,3.9-7,7.7-10.4,11.7l-5,5.9c-1.7,2-3.4,4-5,6.1l-9.7,12.2-.9,1a14.8,14.8,0,0,1-20.8,2.3,15.3,15.3,0,0,1-4-4.8L135.5,401l-6.4-11.8-3.2-5.9-3.2-5.8L116,365.8l-3.3-5.8-3.5-5.7-6.9-11.5-7.2-11.3-3.6-5.7-3.7-5.6L84,314.7c-1.2-1.9-2.5-3.8-3.8-5.6l-7.8-10.9-8.1-10.8L56,276.9l-4.3-5.2-2.2-2.6-2.2-2.5a212.6,212.6,0,0,0-18.5-19.4h-.1a2,2,0,0,1,2.5-3.2Z"/></svg>