<svg width="34" height="80" viewBox="0 0 34 80" fill="none" xmlns="http://www.w3.org/2000/svg">
<path d="M1.5166 40.426V27.426H27.5166V40.426C27.5166 44.8443 23.9349 48.426 19.5166 48.426H9.5166C5.09832 48.426 1.5166 44.8443 1.5166 40.426Z" fill="#434D5A"/>
<path d="M32.5166 6.4262C27.7166 9.2262 27.1833 21.5929 27.5166 27.4262C18.8499 28.0928 1.5166 29.0261 1.5166 27.4262C1.5166 25.4264 0.516665 8.92609 0.0166653 1.92609C-0.383335 -3.67391 6.51667 4.25942 10.0167 8.92609V1.42609L16.0167 13.9261C16.85 11.7595 18.9167 6.5262 20.5167 2.9262C22.5167 -1.5738 38.5166 2.9262 32.5166 6.4262Z" fill="white"/>
<path fill-rule="evenodd" clip-rule="evenodd" d="M15 43C12.7909 43 11 44.7909 11 47V76C11 78.2091 12.7909 80 15 80C17.2091 80 19 78.2091 19 76V47C19 44.7909 17.2091 43 15 43ZM15 77.9998C16.1046 77.9998 17 77.1043 17 75.9998C17 74.8952 16.1046 73.9998 15 73.9998C13.8954 73.9998 13 74.8952 13 75.9998C13 77.1043 13.8954 77.9998 15 77.9998Z" fill="#434D5A"/>
<rect x="1.5166" y="27.426" width="26" height="7" fill="#70C1DB"/>
<rect x="1.5166" y="37.426" width="26" height="3" fill="#70C1DB"/>
</svg>
