<?xml version="1.0" encoding="UTF-8"?>
<svg width="200px" height="200px" viewBox="0 0 200 200" version="1.1" xmlns="http://www.w3.org/2000/svg" xmlns:xlink="http://www.w3.org/1999/xlink">
    <!-- Generator: Sketch 49.3 (51167) - http://www.bohemiancoding.com/sketch -->
    <title>icon-arrow</title>
    <desc>Created with Sketch.</desc>
    <defs></defs>
    <g id="icon-arrow" stroke="none" stroke-width="1" fill="none" fill-rule="evenodd">
        <path d="M54.3434452,68.1410466 C34.4310324,68.1410466 52.3072224,146.408553 62.697063,150.236485 C82.9565008,157.700674 108.340537,130.119467 123.291713,120.816641 C125.006574,119.74963 136.706919,110.238796 133.142898,106.599779 C115.246268,88.326559 81.8101125,77.0174092 59.2473096,67.5694305 L54.3434452,68.1410466 Z" id="Path-1655" fill="#F7F7F1"></path>
        <path d="M57.261879,59.9659002 C57.261879,68.0565523 56.5018191,76.1829847 57.261879,84.2378566 C58.907963,101.682528 54.8040174,121.690596 64.465579,136.308407 C74.5490424,151.564549 120.246584,109.363087 128.463183,104.775923 C134.383228,101.470879 150.225827,104.709333 147.774448,98.3878622 C142.814816,85.5982607 74.4110013,50.7634589 59.2474928,55.3261157 C55.6780827,56.4001411 57.9348929,62.6646414 57.2785929,66.3339042" id="Path-1605" fill="#D8D8D8"></path>
        <path d="M57.261879,59.9659002 C57.261879,68.0565523 61.2985312,80.2364781 62.0585912,88.29135 C63.7046752,105.736022 54.8040174,121.690596 64.465579,136.308407 C74.5490424,151.564549 114.600438,115.128086 122.817037,110.540922 C128.737083,107.235878 150.225827,104.709333 147.774448,98.3878622 C142.814816,85.5982607 79.1736464,66.3339042 59.2474928,55.3261157 C56.0209912,53.5437021 57.9348929,62.6646414 57.2785929,66.3339042" id="Path-1605-Copy" stroke="#979797" stroke-width="3"></path>
        <path d="M102.546394,72.7490747 C106.629048,71.3712904 110.711701,69.9935062 114.794355,68.615722" id="Path-1656" stroke="#979797" stroke-width="2" stroke-linecap="round"></path>
        <path d="M114.792684,78.5337628 C114.792684,73.596383 113.767109,75.6282359 119.243601,73.35579" id="Path-1657" stroke="#979797" stroke-width="2" stroke-linecap="round"></path>
        <path d="M119.243601,80.4642207 C120.223037,79.1243213 121.202473,77.784422 122.181908,76.4445226" id="Path-1658" stroke="#979797" stroke-width="2" stroke-linecap="round"></path>
        <path d="M76.8921962,143.702208 C76.7283998,141.307103 76.5646033,138.911998 76.4008069,136.516893" id="Path-1659" stroke="#979797" stroke-width="2" stroke-linecap="round"></path>
        <path d="M82.820624,135.050216 C82.3531914,133.359324 81.8857587,131.668432 81.418326,129.977541" id="Path-1660" stroke="#979797" stroke-width="2" stroke-linecap="round"></path>
        <path d="M45.3229419,139.897253 C52.5090062,142.429438 43.6774726,130.178139 46.1736805,140.183061" id="Path-1661" stroke="#979797" stroke-width="2" stroke-linecap="round"></path>
        <path d="M93.6947011,151.535156 C103.830962,151.176048 92.0483272,143.21586 94.448499,151.078866" id="Path-1662" stroke="#979797" stroke-width="2" stroke-linecap="round"></path>
        <path d="M138.364327,123.39727 C139.304763,123.256873 140.2452,123.116476 141.185637,122.976079" id="Path-1663" stroke="#979797" stroke-width="2" stroke-linecap="round"></path>
        <path d="M146.759729,79.7889783 C146.354138,78.5761047 145.948547,77.3632312 145.542956,76.1503576" id="Path-1664" stroke="#979797" stroke-width="2" stroke-linecap="round"></path>
        <path d="M153.090963,80 L154.386292,80" id="Path-1665" stroke="#979797" stroke-width="2" stroke-linecap="round"></path>
        <polyline id="Path-1666" stroke="#979797" stroke-width="2" stroke-linecap="round" points="39.7421636 68.6090364 38.3198089 68.6090364 36.6668021 68.6090364 36.5264052 68.6090364 36.3860083 68.6090364"></polyline>
        <polyline id="Path-1666-Copy" stroke="#979797" stroke-width="2" stroke-linecap="round" points="44.8766802 65.1860253 43.4543255 65.1860253 41.8013187 65.1860253 41.6609218 65.1860253 41.5205248 65.1860253"></polyline>
    </g>
</svg>