<?xml version="1.0" encoding="UTF-8"?>
<svg width="200px" height="200px" viewBox="0 0 200 200" version="1.1" xmlns="http://www.w3.org/2000/svg" xmlns:xlink="http://www.w3.org/1999/xlink">
    <!-- Generator: Sketch 48.2 (47327) - http://www.bohemiancoding.com/sketch -->
    <title>icon-manage</title>
    <desc>Created with Sketch.</desc>
    <defs></defs>
    <g id="Icons" stroke="none" stroke-width="1" fill="none" fill-rule="evenodd">
        <g id="icon-manage">
            <path d="M61.2226563,50.6630859 C58,56 62.4628906,73 65.6005859,92.1386719 C66.376947,96.87416 69.5535874,101.002266 70.7675781,105.677734 C74.2260482,118.997414 70.4294664,130.343518 70.2041016,144.370117 C70.1787771,145.946302 70.8953755,158.112302 75.5214844,159.078125 C83.5143737,160.746852 91.8410949,159.909162 100.005859,159.822266 C115.157981,159.661003 134.436944,168.75205 145.44043,158.333984 C153.733473,150.482157 138.097569,136.566038 136.514648,125.255859 C135.350178,116.935564 137.689172,108.455144 137.285156,100.063477 C136.897557,92.0127916 134.40503,84.1437841 134.147461,76.0878906 C134.049881,73.035925 135.971216,70.2102173 136.233398,67.1679688 C136.852015,59.9898117 136.858619,52.7648634 136.77832,45.5605469 C136.770137,44.8263869 136.70236,43.5597341 135.969727,43.5117187 C127.163321,42.9345648 118.317118,43.5312568 109.495117,43.7724609 C93.8127322,44.2012363 78.1324986,44.757002 62.4628906,45.5214844 C60.9737712,45.5941349 60.5603598,47.3080021 61.2226563,50.6630859 Z" id="Path-496" fill="#EEEEEE"></path>
            <path d="M53.1541881,81 C52.1671746,81.6713158 50.88246,81.832168 50.1931475,83.0139473 C44.0164442,93.6034838 64.1574974,88.92816 57.5952429,83.1240524 C55.8746391,81.6022324 53.5567547,82.2320619 51.5375105,81.7860666" id="Path-464" stroke="#4A4A4A" stroke-width="2" stroke-linecap="round" stroke-linejoin="round"></path>
            <path d="M58,84.6249499 C92.2254103,81.9145712 84.1814286,82.7790619 118.130339,82" id="Path-465" stroke="#4A4A4A" stroke-width="2" stroke-linecap="round" stroke-linejoin="round"></path>
            <path d="M121.750279,77 C115.425521,80.8895477 117.552814,85.461691 124.7508,83.2915787 C132.06079,81.0876984 124.492442,77.0854582 120.757191,77.4008793" id="Path-466" stroke="#4A4A4A" stroke-width="2" stroke-linecap="round" stroke-linejoin="round"></path>
            <path d="M65.4880001,114.751311 C56.3091055,112.704092 60.0294194,124.695393 66.5591584,121.82758 C71.1907936,119.7934 66.4908301,113.009897 63.2273426,114.122404" id="Path-467" stroke="#4A4A4A" stroke-width="2" stroke-linecap="round" stroke-linejoin="round"></path>
            <path d="M69,117.802945 C84.3815517,117.201963 99.7631033,116.600982 115.144655,116" id="Path-468" stroke="#4A4A4A" stroke-width="2" stroke-linecap="round" stroke-linejoin="round"></path>
            <path d="M118.837404,113.509005 C111.129953,118.66307 121.162642,124.054841 124.895136,119.786352 C131.425669,112.318018 119.313088,112.045672 116.168924,114.0957" id="Path-469" stroke="#4A4A4A" stroke-width="2" stroke-linecap="round" stroke-linejoin="round"></path>
            <path d="M134.364198,92.4176157 C125.996023,89.1345568 135.291724,106.559608 140.090901,97.7667229 C143.213782,92.0450909 135.46043,92.5350566 132.319308,92.4074925" id="Path-470" stroke="#4A4A4A" stroke-width="2" stroke-linecap="round" stroke-linejoin="round"></path>
            <path d="M83.973879,141.54058 C73.6373446,141.800971 78.0493852,150.529181 87.0908172,148.532685 C95.1468292,146.753786 86.5121578,141.014591 82.104121,141" id="Path-471" stroke="#4A4A4A" stroke-width="2" stroke-linecap="round" stroke-linejoin="round"></path>
            <path d="M83.6054727,141.47564 C83.4243014,140.692169 78.3729392,102.802848 84.2333262,99.8185652 C91.922015,95.9032572 117.614548,96.8840297 132.540263,96" id="Path-472" stroke="#4A4A4A" stroke-width="2" stroke-linecap="round" stroke-linejoin="round"></path>
            <path d="M96.5442051,64 C89.4536382,69.5122679 90.5020713,74.7088423 100.810128,73.5168353 C109.712981,72.4873237 102.816681,63.8731334 94.8100982,64.3512756" id="Path-473" stroke="#4A4A4A" stroke-width="2" stroke-linecap="round" stroke-linejoin="round"></path>
            <path d="M99,73 C99.258319,117.92558 98.534722,97.9012511 100.46078,133.094446" id="Path-474" stroke="#4A4A4A" stroke-width="2" stroke-linecap="round" stroke-linejoin="round"></path>
            <path d="M100.430614,132 C94.9703675,132.037703 92.7112955,139.440964 98.0093804,140.986379 C104.161127,142.780801 109.997664,137.194007 100.094795,133.182392" id="Path-475" stroke="#4A4A4A" stroke-width="2" stroke-linecap="round" stroke-linejoin="round"></path>
            <path d="M67,130.765482 C68.4022947,175.062396 66.8714256,157.829878 123.658097,156.978115 C130.025693,156.882606 137.445809,161.865932 142.7177,158.293459 C146.25486,155.896519 140.5859,149.969457 140.291094,145.706839 C139.947002,140.731589 138.251515,116.971769 139.482225,110" id="Path-477" stroke="#4A4A4A" stroke-width="2" stroke-linecap="round" stroke-linejoin="round"></path>
            <path d="M64.0105885,68.3050707 C62.964759,61.8933345 55.6238517,53.6031188 60.8730999,49.0698622 C68.2082856,42.7351876 81.0499952,45.4585801 91.2872793,44.7488899 C106.626516,43.6855114 122.733538,39.7559729 137.433514,43.762382 C142.115234,45.0383624 133.85325,51.8598072 132.963805,56.1076297 C132.136323,60.0595243 132.246765,64.1324611 132.326923,68.1504839 C132.36065,69.8410901 132.978163,71.4831403 133.303783,73.1494685" id="Path-476" stroke="#4A4A4A" stroke-width="2" stroke-linecap="round" stroke-linejoin="round"></path>
            <path d="M126.957031,153.482422 C127.370443,156.304036 127.783854,159.125651 128.197266,161.947266" id="Path-478" stroke="#4A4A4A" stroke-width="2" stroke-linecap="round" stroke-linejoin="round"></path>
            <path d="M120.267578,155.261719 C121.044271,157.18099 121.820964,159.10026 122.597656,161.019531" id="Path-479" stroke="#4A4A4A" stroke-width="2" stroke-linecap="round" stroke-linejoin="round"></path>
            <path d="M141.011719,133.074219 C144.05599,132.745443 147.10026,132.416667 150.144531,132.087891" id="Path-480" stroke="#4A4A4A" stroke-width="2" stroke-linecap="round" stroke-linejoin="round"></path>
            <path d="M140.486328,129.632812 C142.289714,129.272135 144.093099,128.911458 145.896484,128.550781" id="Path-481" stroke="#4A4A4A" stroke-width="2" stroke-linecap="round" stroke-linejoin="round"></path>
            <path d="M139.734375,124.957031 C141.850911,124.421875 143.967448,123.886719 146.083984,123.351562" id="Path-482" stroke="#4A4A4A" stroke-width="2" stroke-linecap="round" stroke-linejoin="round"></path>
            <path d="M61.1152344,54.6835938 C58.296875,54.8893229 55.4785156,55.0950521 52.6601562,55.3007812" id="Path-483" stroke="#4A4A4A" stroke-width="2" stroke-linecap="round" stroke-linejoin="round"></path>
            <path d="M57.5449219,52.4414062 C54.6009115,52.5761719 51.656901,52.7109375 48.7128906,52.8457031" id="Path-484" stroke="#4A4A4A" stroke-width="2" stroke-linecap="round" stroke-linejoin="round"></path>
            <path d="M90.2402344,43.5117188 C89.9772135,42.0559896 89.7141927,40.6002604 89.4511719,39.1445312" id="Path-485" stroke="#4A4A4A" stroke-width="2" stroke-linecap="round" stroke-linejoin="round"></path>
            <path d="M101.513672,40.4570312 C102.227865,42.6152344 102.942057,44.7734375 103.65625,46.9316406" id="Path-486" stroke="#4A4A4A" stroke-width="2" stroke-linecap="round" stroke-linejoin="round"></path>
            <path d="M112.638672,42.0234375 C112.688802,40.9414062 112.738932,39.859375 112.789062,38.7773438" id="Path-487" stroke="#4A4A4A" stroke-width="2" stroke-linecap="round" stroke-linejoin="round"></path>
            <path d="M62.3925781,139.238281 C65.0358073,138.684245 67.6790365,138.130208 70.3222656,137.576172" id="Path-488" stroke="#4A4A4A" stroke-width="2" stroke-linecap="round" stroke-linejoin="round"></path>
            <path d="M60,145.8125 C64.3723958,145.541667 68.7447917,145.270833 73.1171875,145" id="Path-489" stroke="#4A4A4A" stroke-width="2" stroke-linecap="round" stroke-linejoin="round"></path>
            <path d="M132.367188,68.5585938 C134.121094,68.3268229 135.875,68.0950521 137.628906,67.8632812" id="Path-490" stroke="#4A4A4A" stroke-width="2" stroke-linecap="round" stroke-linejoin="round"></path>
            <path d="M132.931641,62.0078125 C134.936198,62.1621094 136.940755,62.3164062 138.945312,62.4707031" id="Path-491" stroke="#4A4A4A" stroke-width="2" stroke-linecap="round" stroke-linejoin="round"></path>
            <path d="M130.472656,58.6542969 C131.775391,58.686849 133.078125,58.719401 134.380859,58.7519531" id="Path-492" stroke="#4A4A4A" stroke-width="2" stroke-linecap="round" stroke-linejoin="round"></path>
            <path d="M54,62.0625 C56.3671875,61.7083333 58.734375,61.3541667 61.1015625,61" id="Path-493" stroke="#4A4A4A" stroke-width="2" stroke-linecap="round" stroke-linejoin="round"></path>
            <path d="M141,154.792969 C143.079427,154.528646 145.158854,154.264323 147.238281,154" id="Path-494" stroke="#4A4A4A" stroke-width="2" stroke-linecap="round" stroke-linejoin="round"></path>
            <path d="M62,159.281451 C64.1295573,158.520967 66.2591146,157.760484 68.3886719,157" id="Path-495" stroke="#4A4A4A" stroke-width="2" stroke-linecap="round" stroke-linejoin="round"></path>
        </g>
    </g>
</svg>