<?xml version="1.0" encoding="UTF-8"?>
<svg width="429px" height="449px" viewBox="0 0 429 449" version="1.1" xmlns="http://www.w3.org/2000/svg" xmlns:xlink="http://www.w3.org/1999/xlink">
    <!-- Generator: Sketch 49.3 (51167) - http://www.bohemiancoding.com/sketch -->
    <title>Landing Page Icon</title>
    <desc>Created with Sketch.</desc>
    <defs></defs>
    <g id="Artwork" stroke="none" stroke-width="1" fill="none" fill-rule="evenodd">
        <g id="Facebook-Ad-1" transform="translate(-412.000000, -236.000000)">
            <g id="Landing-Page-Icon" transform="translate(412.000000, 236.000000)">
                <path d="M7.60031113,58.2200466 C-1.26727528,118.718408 25.3045322,126.141262 15.2006223,225.585697 C10.3637569,273.190965 0,308.904051 0,369.402412 C1.68701858e-15,407.636515 19.0871552,412.488572 24.9138012,431.710567 C36.7056919,470.611791 66.7704077,431.710567 117.382583,431.710567 C145.064821,431.710567 177.480479,420.400833 224.837567,416.833921 C269.92186,413.438195 307.778852,451.016653 329.636316,431.710567 C361.07594,403.940827 371.701071,364.462774 374.780392,360.831308 C407.66521,322.050004 373.728908,161.526508 369.943527,44.4546312 C369.255692,23.181711 295.879981,44.4546312 245.797317,44.4546312 C207.303396,44.4546312 127.904394,49.043103 7.60031113,58.2200466 Z" id="Path-2392-Copy-7" fill="#ECECE4"></path>
                <path d="M46,67.032131 C48.8406666,157.775723 46,277.841396 46,362.7701 C46,441.254454 121.715963,388.889408 158.732656,388.889408 C226.241024,388.889408 174.880705,393.944758 253.798254,393.944758 C310.189907,393.944758 360.641891,405.061266 420.373373,400.005916 C424.948794,399.618677 425,375.12396 425,370.912158 C425,314.754437 419.276049,166.489914 415.325642,67.032131 C414.607821,48.9598362 338.033259,67.032131 285.767216,67.032131 C245.595133,67.032131 165.672728,67.032131 46,67.032131 Z" id="Path-2392-Copy-6" fill="#EEEEEE"></path>
                <path d="M42,24.8872174 C45.2624262,39.1516829 47.3542864,55.2111256 47.3542864,68.5615181 C47.3542864,80.898889 132.90709,74.451571 174.024827,73.2158316 C249.326518,70.9527385 190.220389,79.9056028 261.07406,73.2158316 C313.471302,68.2686559 366.673768,70.954656 418.280777,64.4068324 C422.501808,63.8712741 426.717029,34.3752153 421.75526,17.2769308 C420.930862,14.4360512 370.361503,17.2130422 369.538912,17.2769308 C344.942597,19.1872659 235.76296,21.7240281 42,24.8872174 Z" id="Path-2392-Copy-3" fill="#ABABAC"></path>
                <path d="M35,14.113424 C38.260686,22.5312728 40.4221815,28.0869782 40.4221815,35.9654076 C40.4221815,43.2460255 122.681006,28.7023382 163.776811,27.9730948 C239.038338,26.637582 211.571153,26.592702 282.387032,22.6448863 C334.756326,19.7254235 362.973223,21.5678639 414.552706,17.7038153 C418.771485,17.3877678 419.511829,10.8437139 414.552706,0.753551584 C413.728748,-0.922928715 363.186361,0.715849188 362.364209,0.753551584 C337.781014,1.88089222 228.659611,6.33418304 35,14.113424 Z" id="Path-2392-Copy-9" fill="#D8D8D8"></path>
                <path d="M80,118.212604 C81.1531998,155.393159 80,187.945768 80,222.743776 C80,254.901328 110.241137,238.096292 124.775402,234.875318 C151.392984,228.97653 123.50805,234.875318 155.545496,234.875318 C178.438307,234.875318 185.234479,254.829368 207.104288,241.289306 C208.637824,240.339861 216.760228,224.007837 218.064811,222.743776 C231.996761,209.244562 230.629044,164.021588 229.025333,123.270551 C228.733925,115.865753 194.365848,114 194.028023,114 C177.45202,114 139.442679,115.404201 80,118.212604 Z" id="Path-2392-Copy-4" fill="#D8D8D8"></path>
                <path d="M103.202269,325.725219 C105.32161,349.138737 99,358.748983 99,380.662152 C99,400.91256 131.961258,398.781723 158.672218,396.753396 C207.589803,393.038782 187.20124,391.551092 246.07941,391.551092 C288.15164,391.551092 316.744542,400.077605 356.936707,391.551092 C359.755026,390.953203 354.539155,363.960351 356.936707,363.16434 C382.540738,354.66355 359.883994,348.734377 356.936707,323.072438 C356.40116,318.409453 313.382936,323.072438 312.762085,323.072438 C282.298835,323.072438 212.445563,323.956698 103.202269,325.725219 Z" id="Path-2392-Copy-5" fill="#D8D8D8"></path>
                <path d="M42,36 C72.7997152,34.7472333 103.65093,34.4272072 134.399146,32.2416999 C144.547623,31.5203711 162.791211,32.6239901 172.957893,32.2416999 C183.124574,31.8594096 200.804537,30.3154724 218.896471,29.064409 C232.928038,28.0941214 262.836718,27.8980032 276.774254,26 C317.461788,20.4592017 396.875533,22.1426945 419,16" id="Path-4746" stroke="#979797" stroke-width="3"></path>
                <path d="M37,14.5014895 C104.147541,14.5014895 138.330794,8.03007963 217.706582,8.03007963 C231.089237,8.03007963 265.110809,6.31296661 278.462178,5.27586862 C317.706086,2.2275087 357.15815,1.50828472 396.513212,2.2948789 C403.368506,2.43189646 414.766972,1.36236998 416.261502,8.03007963 C422.267788,34.8265711 415.334614,62.958931 416.261502,90.4000513 C417.925599,139.666732 423.271561,190.096019 424.052626,239.699322 C424.43635,264.068543 421.84955,288.431838 422.409959,312.79766 C422.74274,327.266504 435.037737,387.785018 417.950349,396.324532 C402.436079,404.077872 383.43059,391.92882 366.074392,391.861264 C116.860912,390.891247 254.857773,388.787289 199.12927,393.008304 C178.490547,394.571532 113.090801,392.041741 92.4152779,393.008304 C79.0016547,393.635379 54.3106219,407.003345 42.6701704,397.744364 C36.1705623,392.574483 45.5088146,381.373699 45.932415,373.097791 C46.5984546,360.085335 44.7716123,346.987616 45.932415,334.009686 C46.7519207,324.847503 51.4966962,316.241445 51.8400795,307.049313 C52.1243914,299.43848 48.276787,292.162041 47.779591,284.562067 C46.2923483,261.828571 47.6317104,238.95878 45.8994297,216.242516 C45.3342467,208.830988 45.8994297,116.173945 41.8719265,49.3629646 L37,14.5014895 Z" id="Path-2393" stroke="#424C59" stroke-width="3"></path>
                <path d="M48,70.9918217 C81.9134552,70.9918217 115.843667,69.9328566 149.740365,70.9918217 C155.317796,71.1660659 258.13299,68.5050628 266.559112,67.8730946 C302.823657,65.1532147 381.256278,61 419,61" id="Path-2394" stroke="#979797" stroke-width="3"></path>
                <path d="M80.9810836,119.078513 C80.9810836,150.743526 78.7736455,182.485663 80.9810836,214.073552 C81.2571952,218.02464 86.7606927,219.790964 88.2748501,223.45049 C101.854665,256.271177 63.1124304,233.837854 138.97229,238.171558 C157.136779,239.209254 184.41733,249.459118 203.802843,242.721646 C215.103469,238.794092 221.505709,186.201441 222.700778,174.694365 C224.399547,158.33726 239.777765,129.310358 223.820363,125.371539 L221.838039,116.950087 C203.036523,112.309246 183.400272,112.047938 164.087214,110.627408 C131.75278,108.249119 124.334858,112.902829 88.2287495,120.02082 L80.9810836,119.078513 Z" id="Path-2395" stroke="#979797"></path>
                <path d="M96.3492019,271.075899 C96.6245275,280.252174 90.3952871,292.303269 97.1751787,298.604723 C103.805529,304.767188 115.380284,296.916985 124.492122,297.232854 C137.863478,297.696383 156.866961,308.760812 169.429904,298.967288 C176.685102,293.311452 183.59231,275.682001 175.042566,272.196259 C150.494471,262.187967 121.954483,269.925054 95.4104411,268.789452" id="Path-4210" stroke="#979797"></path>
                <path d="M189.303259,269.781818 C189.303259,311.535232 181.830982,298.212583 202.670858,297.145782 C225.086496,295.998316 248.381359,302.73663 270.006269,296.773394 C276.215122,295.061255 278.339617,281.08581 272.809578,277.804487 L271.979456,274.701256 C267.33473,271.945245 262.422208,268.783124 257.020789,268.435996 C236.005708,267.08544 214.910765,269.265702 193.855753,269.680555 L189.303259,269.781818 Z" id="Path-4211" stroke="#979797"></path>
                <circle id="Oval" fill="#9B9B9B" transform="translate(52.500000, 24.500000) rotate(-4.000000) translate(-52.500000, -24.500000) " cx="52.5" cy="24.5" r="7.5"></circle>
                <circle id="Oval-Copy" fill="#9B9B9B" transform="translate(72.500000, 24.500000) rotate(-4.000000) translate(-72.500000, -24.500000) " cx="72.5" cy="24.5" r="7.5"></circle>
                <circle id="Oval-Copy-2" fill="#9B9B9B" transform="translate(93.500000, 24.500000) rotate(-4.000000) translate(-93.500000, -24.500000) " cx="93.5" cy="24.5" r="7.5"></circle>
                <path d="M295.889594,266.452123 C296.4651,273.290608 292.866509,281.980957 297.616114,286.967576 C302.624094,292.225465 311.842287,290.81958 319.131966,290.854338 C333.420259,290.922465 347.80885,289.925784 361.845284,287.273826 C363.008992,287.053962 394.684254,273.032427 374.016265,262.79342 C364.623972,258.140439 353.080356,265.462423 342.59754,264.917618 C328.923483,264.206961 292.009208,243.666822 292,267.439289" id="Path-4212" stroke="#979797"></path>
                <path d="M240.171405,111 C240.171405,130.18676 238.084851,199.731744 248.471774,213.25911 C256.09421,223.186157 273.490591,214.35406 286,214.901535" id="Path-4213" stroke="#979797"></path>
                <path d="M288.38233,199.556814 C288.38233,207.704543 285.582548,224 295.135934,224 C321.959088,224 340.416082,224 364.531858,224 C373.703291,224 369.668023,202.709179 364.531858,197.968366 C358.652277,192.541361 348.322684,196.280995 340.287474,195.952635 C331.841409,195.607485 320.037384,196.047187 311.584655,195.952635 C303.626152,195.863611 299.354739,197.398656 291.429366,198.121666 L288.38233,199.556814 Z" id="Path-4214" stroke="#979797" fill="#F5A623"></path>
                <path d="M244,108.84397 C399.984416,103.269384 400.330239,105.871759 392.364934,116.812388 C389.731869,120.428997 396.827269,215.324296 392.364934,214.999166 L368.65988,214.999166" id="Path-4215" stroke="#979797"></path>
                <path d="M266.425457,130.979474 C266.425457,180.107347 265.019843,164.960191 321.355264,159.296888 C338.253935,157.598094 357.362005,164.207453 372.210917,156.090712 C379.494122,152.109552 380.353321,133.235732 372.210917,131.498072 C346.1743,125.941633 319.252844,137.513749 292.660489,139.113963 C283.449103,139.668264 274.220163,138.337696 265,137.949563" id="Path-4216" stroke="#979797"></path>
                <path d="M100.708577,333 C100.270386,392.534285 95.9532772,370.490666 103,400" id="Path-4217" stroke="#979797"></path>
                <path d="M102,330.22387 C177.115241,325.12856 193.428571,322.561358 276.606725,324.764292 C283.560926,324.948471 290.137475,328.701443 297.094169,328.697537 C317.413728,328.686127 344.261537,309.843781 357.919877,324.718632 C372.961965,341.10048 355.507519,368.906211 354.301341,391" id="Path-4744" stroke="#979797"></path>
            </g>
        </g>
    </g>
</svg>