<?xml version="1.0" encoding="utf-8"?>
<!-- Generator: Adobe Illustrator 20.1.0, SVG Export Plug-In . SVG Version: 6.00 Build 0)  -->
<svg version="1.1" id="Layer_1" xmlns="http://www.w3.org/2000/svg" xmlns:xlink="http://www.w3.org/1999/xlink" x="0px" y="0px"
	 viewBox="0 0 222.7 220" style="enable-background:new 0 0 222.7 220;" xml:space="preserve">
<style type="text/css">
	.st0{fill:#FFFFFF;}
</style>
<path class="st0" d="M210.7,54H12C5.4,54,0,48.6,0,42V12C0,5.4,5.4,0,12,0h198.7c6.6,0,12,5.4,12,12v30
	C222.7,48.6,217.3,54,210.7,54z"/>
<path class="st0" d="M210.7,137H12c-6.6,0-12-5.4-12-12V95c0-6.6,5.4-12,12-12h198.7c6.6,0,12,5.4,12,12v30
	C222.7,131.6,217.3,137,210.7,137z"/>
<path class="st0" d="M210.7,220H12c-6.6,0-12-5.4-12-12v-30c0-6.6,5.4-12,12-12h198.7c6.6,0,12,5.4,12,12v30
	C222.7,214.6,217.3,220,210.7,220z"/>
</svg>
