<svg id="Layer_1" data-name="Layer 1" xmlns="http://www.w3.org/2000/svg" viewBox="0 0 220.3 187.5">
  <defs>
    <style>
      .cls-1 {
        fill: #687282;
      }

      .cls-2 {
        fill: #434d5a;
      }
    </style>
  </defs>
  <title>v4-0-0_icons</title>
  <path class="cls-1" d="M100.9,100.6a1.8,1.8,0,0,0-2.4,0,19,19,0,0,0-3.6,4.7c-.4,1.9-5.3,2.9-9.5,5.6s-7.1,5.9-9.5,6.9-4.9.4-8,1.4-3.9,3.7-1.9,4.6,7.6,2.9,7.8,4.1,2.6,5.8,5.8,5,15.6,2.8,17.5,6.4,13-.7,15.3-.5,4.8-6.3,7.9-5.8,13.5-3.7,14.5-5.3,9.3-2.7,6.4-3.6-13.3-6.1-14.5-8.5-4.9-4.9-6.5-4.7-15.1-5.8-16.2-7.1A29.9,29.9,0,0,0,100.9,100.6Z"/>
  <g>
    <path class="cls-2" d="M133,122.3a5,5,0,0,1-3.6-3,1.6,1.6,0,0,0-.8-1,3.8,3.8,0,0,1-2.5-3,2.7,2.7,0,0,0-1.8-1.9,6.4,6.4,0,0,0-1.8-.6c-.3-.1-.7.2-1.1.2h-.8c0-.3.1-.6.1-.9s0-.8-.2-.9a19.9,19.9,0,0,0-1.9-1.2l-1.4-.8c-1.9-1.1-3.7-2.4-5.6-3.3a60.7,60.7,0,0,0-5.9-2.4c-1.9-.9-2.8-2.8-4.3-4.1s-.1-.3-.1-.4h.6a13.7,13.7,0,0,1,2.2,1.9,7.9,7.9,0,0,0,4.3,2.7,22.3,22.3,0,0,1,6.7,2.9c1.4.9,2.9,1.6,4.4,2.5l2.4,1.8a24.8,24.8,0,0,0,3.2,1.7,3.4,3.4,0,0,1,2.1,2.7,3.4,3.4,0,0,0,2.4,2.4,1.5,1.5,0,0,1,.9,1c.6,1.2,1.1,2.3,2.6,2.5s.4.4.4.5A1.6,1.6,0,0,1,133,122.3Z"/>
    <path class="cls-2" d="M100.6,97.6l-.8,1L95,103a4.6,4.6,0,0,0-.9,1.5,6.5,6.5,0,0,1-3.6,2.9c-1.9.9-3.9,1.8-5.2,3.5a18.3,18.3,0,0,1-2.1,2.6c-1.8,1.4-3.8,2.6-5.6,3.9s-2,1.2-2.3,2.6-.6.3-.8.2-.5-.6-.4-.7a7.3,7.3,0,0,1,1.6-2.2c1.9-1.4,3.9-2.6,5.8-3.9a7.9,7.9,0,0,0,2.3-2.8,7.8,7.8,0,0,1,3.1-2.5c1.2-.8,2.6-1.2,3.9-1.9a5.2,5.2,0,0,0,1.8-2.1,7.4,7.4,0,0,1,2-2.3c1.4-1.3,2.7-2.7,4-4a3.9,3.9,0,0,1,1.1-.6Z"/>
    <path class="cls-2" d="M107.8,64.2c-.2.3-.3.8-.6.9a7.2,7.2,0,0,0-2.8,3.2,3.1,3.1,0,0,0-.5,2.1.6.6,0,0,1,.1.4c.5,1.1.9,2.3,1.4,3.4s.1.4.2.5c1.5,2.1.5,3.6-1.1,5.1l-2.4,2.4-.6.5a1.5,1.5,0,0,1-.9.2c.1-.3.1-.6.2-.8s2-2,2.9-3.1a7.5,7.5,0,0,0,.9-1.5h0a12.8,12.8,0,0,0-1.1-2.4c-1.2-2-2.3-4.1-1.1-6.4a12.2,12.2,0,0,1,2.3-2.7c.7-.8,1.4-1.4,2.1-2.1l.7-.4Z"/>
    <path class="cls-2" d="M143.3,121.9l1.7.4a1.7,1.7,0,0,0,1-.1c.1,0,.1-.5,0-.6l-.8-.5h-2.6l-.6-.2c-.8-1.3-2.2-1-3.3-1.1s-3.1.2-4.7.2-.6-.3-.9-.5.7-.6,1.1-.6l7.1.6c1.7.2,3.3.6,5,.9s.9.6.6,1.2l-.3.6h1.3l1,.3-.3.6h-1.3c-.3,0-.6-.3-.9-.3l-4.1-.4c-.1,0-.2-.3-.1-.3Z"/>
    <path class="cls-2" d="M121.3,133.3l-3.4.9c-.2,0-.3.3-.3.5s-.7,1.7-1.5,2.2a20.4,20.4,0,0,1-2.2.9h-.6c.1-.2.1-.5.3-.5a13.3,13.3,0,0,1,2.1-.9,1.2,1.2,0,0,0,.3-2.2c-.1-.1-.4-.4-.3-.6a.8.8,0,0,1,.6-.4h1.3l1.8-.4h2.8a.4.4,0,0,1,.3.4c-.1.1-.2.4-.4.4h-.8Z"/>
    <path class="cls-2" d="M97.2,132.3l1.8,1.1a2.7,2.7,0,0,0,1.5.3,6.4,6.4,0,0,0,1.8-.6h.8c1.2,1.3,2.7.8,4.1.9s1.4.4.9,1.1-.8.2-.8.2a1.2,1.2,0,0,0-1.5-.6c-1.2.1-2.4.3-3.5-.5s-.7,0-1.1.1-2.3.6-3.3-.4-.7-.3-1-.5l-.6-.7Z"/>
    <path class="cls-2" d="M115.4,140.6c0,.8-1.2,1.8-2.1,1.8s-1.3-.4-1.4-1.3-.4-.6-.6-.7a2.3,2.3,0,0,1-1.8-2.3c0-.1.1-.3.2-.3l.5.2a2,2,0,0,0,2.1,1.4c.3,0,.5.6.8.9l.4.8c.1.1.6-.1.5-.2a1.3,1.3,0,0,0-.3-.8l-.7-1.3c-.1-.1,0-.4.1-.5h.4l1.8,1.9A.5.5,0,0,1,115.4,140.6Z"/>
    <path class="cls-2" d="M66.8,118.4l5.5-1.2a.7.7,0,0,1,.6.1c-.1.2-.2.5-.4.6l-1.5.6a3.9,3.9,0,0,0-1.1.6,1.3,1.3,0,0,1-.8.3l-6.2.2h-.7l-.5-.4.5-.4,4.5-.5Z"/>
    <path class="cls-2" d="M128.5,129.8h.4c.9.9,2.2.7,3.3,1h1.5l1.1.2c-.1.1,0,.4-.1.4s-.7.6-1,.6l-2.8-.3c-.6,0-1.1.3-1.7.3l-2.9-.5s0-.6.1-.7l1.5-.8Z"/>
    <path class="cls-2" d="M118.4,126.3h.3a2.8,2.8,0,0,0,3.5-.7,3,3,0,0,1,2.5-1.2c.1,0,.4-.1.4-.3s.8-.7,1.4-.4.5.5.5.7-.4.5-.6.5a1.3,1.3,0,0,0-1.3.9h-.7c-.7-.7-1.1-.3-1.7.3a5.2,5.2,0,0,1-3.9,1.5c-.3,0-.6-.4-.7-.7S118.3,126.5,118.4,126.3Z"/>
    <path class="cls-2" d="M117.9,121.3c-1.7-.3-3.2.4-4.4-.6l-.5-.7h.9c1.2.8,2.4.4,3.7.2l1.4-.4a3.4,3.4,0,0,0,.9-.8l1-1c.1-.1.6.3.6.3s-.2,1.3-.6,1.6S118.7,120.9,117.9,121.3Z"/>
    <path class="cls-2" d="M78.4,122.7c.5.4,1.4.1,1.2,1.2s.2.3.4.4l1.9.4c1.1.1,1.5.8,1.6,1.8s-.2.6-.3.6a.9.9,0,0,1-.8-.3c0-1.7-1.4-1.3-2.4-1.5l-2.2-.7a3,3,0,0,1-.7-1.1Z"/>
    <path class="cls-2" d="M105.5,113.2l-2.1.5c-.7.1-2.3-.9-2.3-1.5s.2-.7.4-.9a2.8,2.8,0,0,1,1.2-.4l1.5.8,1.5.7.5.6-.6.5Z"/>
    <path class="cls-2" d="M84.1,115.4a13.7,13.7,0,0,1,1.3-2c0-.1.3-.1.4-.1s.1.2.1.4a5.1,5.1,0,0,0-.2,1.3l1.4-.6.8-.4a.8.8,0,0,1,.7.3c.1.1-.1.4-.1.6s.1.8.1,1.2.2.4.2.6h-.6c-.2-.1-.5-.1-.5-.2s-1.5-.6-2.3-.4S84.3,116.2,84.1,115.4Z"/>
    <path class="cls-2" d="M66,127c-.8-.1-1.6-.1-1.9-1.1s.1-.7.3-.8a20.9,20.9,0,0,1,3.5-1.3c.3-.1.8.4,1.2.6v.5a4,4,0,0,0-1.1,0l-2.3.5a2,2,0,0,0,.1.5h3.1c-.2.2-.4.5-.6.5Z"/>
    <path class="cls-2" d="M88.5,127.5a11.2,11.2,0,0,0,2.4.3c1.5-.1,2.4.9,3.6,1.5l1.2.6c.2.2.2.5.3.7s-.5.3-.6.2-1.2-.7-1.8-.9-2-1.5-3.5-1.1-1.4.2-1.8-.7a1.1,1.1,0,0,1-.2-.5Z"/>
    <path class="cls-2" d="M102.7,139.6c.1-.2,0-.5.1-.7s.4-.5.6-.7a1.9,1.9,0,0,1,.2.7c.1.3,0,.6.1.8s.4.8.9.5l1.8-1.4c.2-.1.8-.2.9-.1a8.9,8.9,0,0,1,.8,1.7H107c-.5-.4-.9-.5-1.2.1l-.4.4a5.4,5.4,0,0,1-2.1.5c-.3,0-.5-1-.7-1.6Z"/>
    <path class="cls-2" d="M106.1,126.6l-.7.2-1.4-.5h-1.7a1.5,1.5,0,0,1-1-.2,1.8,1.8,0,0,1-.7-1,3.8,3.8,0,0,1-.3-1l1,.6.9.7.5-.9.9-.9c.2.3.5.6.5.9s.6,1.1,1.3,1.4l.8.5Z"/>
    <path class="cls-2" d="M119.1,130.4a5.8,5.8,0,0,1-1.2,1c-.4.3-.9.8-1.2.7a8.2,8.2,0,0,1-2.4-1l.2-.6c0-.1.3-.2.4-.1s2.6-.1,3.8-.7.3-.3.5-.3l1.2.2c.1.1.2.4.1.5l-1.1.7Z"/>
    <path class="cls-2" d="M51.2,121.3l2.5.5a.7.7,0,0,1,0,1.2,22.3,22.3,0,0,1-3.6.5c-.3.1-.9-.5-1-.9s.4-.8.7-1A5.8,5.8,0,0,1,51.2,121.3Zm.1,1.5,1.2-.4-1.4-.4-.6.2a.2.2,0,0,0-.2.2l.2.2Z"/>
    <path class="cls-2" d="M95.2,126.5h-.5a8.5,8.5,0,0,1-3.3-3.2l-.4-.9a.7.7,0,0,1-.1-.5h.6l.5.7c.5.7.9,1.4,1.9,1.4a.9.9,0,0,1,.5.3c.3.7.7,1.3,1.6,1l.2.6Z"/>
    <path class="cls-2" d="M67.4,122.2H62.3c-.2,0-.3.3-.4.4l-.5.6a4.7,4.7,0,0,1-.6-.9c0-.1.2-.5.4-.5,2.1-.4,4.2-.9,6.3-.4.3.1.5.4.7.5l-.7.6Z"/>
    <path class="cls-2" d="M92.3,133.2l-3.6-.8a1.3,1.3,0,0,1-.5-.7,3.7,3.7,0,0,1-.1-1.1l.9.6,1.6.5h2.9c.2,0,.4.3.4.4a.7.7,0,0,1-.3.6Z"/>
    <path class="cls-2" d="M119.6,42.2c0-.2.1-.5,0-.6a2.2,2.2,0,0,0-.5-.8l-.5.7a1.4,1.4,0,0,0-.2.6c-.3-.2-.6-.3-.7-.5a1.8,1.8,0,0,1,1.2-2.1,1,1,0,0,1,1.5.9,5.9,5.9,0,0,1,.1,2.3c0,.2-.5.5-.7.7a2.9,2.9,0,0,1-.2-.9c-.1-.1,0-.2,0-.3Z"/>
    <path class="cls-2" d="M130.7,122.5a4.7,4.7,0,0,1,1.5,1.2c.1.3-.5,1-.9,1.3s-1,.3-.9,1.1-.7.7-1.1,1.1-.2-.2-.3-.3.1-.7-.2-1.1.1-.8.4-1,.7-.3,1-.4l.7-.4-.4-.6a.8.8,0,0,1-.2-.5C130.3,122.8,130.5,122.7,130.7,122.5Z"/>
    <path class="cls-2" d="M115.9,74.4a3.4,3.4,0,0,1,2.2-2.7c.4-.1.8.3,1.2.6s.2.4.1.5-.4.2-.6.3l-1.4.4c-.4.3-.5.7.1,1s.3.4.4.6-.5.4-.7.4S115.9,75.3,115.9,74.4Z"/>
    <path class="cls-2" d="M106.5,121.3l-2.3.6a2.2,2.2,0,0,1-2.4-.8v-.7h.6c1.2.9,1.3.8,2.2-.4s.6-.3.9-.2l1.4.8a1.3,1.3,0,0,1,.3.5l-.5.5Z"/>
    <path class="cls-2" d="M159,119.8h.2l-1.1-.2a4.3,4.3,0,0,1,1.3-.5l3.4.9v.5l-4,1c-.1.1-.3-.2-.3-.2s.3-.5.5-.5h1.3l.6-.4-.6-.4Z"/>
    <path class="cls-2" d="M126.2,137.2c1.1.1,2-.1,2.1,1.1s-1.1,1.6-1.9,1.6-1.4-1.1-1.2-1.7S126,137.4,126.2,137.2Z"/>
    <path class="cls-2" d="M55,130.8l-2.5.2-1-.6.9-1.1h1.4l-.9.4-.2.2.2.2c.6-.1,1.4.5,1.9-.5s1.2-.2,1.8-.3-.5,1-.8,1.4-.5.1-.8.1Z"/>
    <path class="cls-2" d="M104.5,132.5l-.7-.3h-1a12.3,12.3,0,0,1-2-.2c-.3,0-.4-.5-.5-.8s.2-.5.4-.5.4.3.6.4a1.7,1.7,0,0,0,1,.1c1.2-.6,1.8-.6,2.6.4s.3.5.2.6S104.7,132.4,104.5,132.5Z"/>
    <path class="cls-2" d="M91.8,136.1a2.6,2.6,0,0,1-3-2.3,2.1,2.1,0,0,1,.3-.7c.1.1.4.2.5.4,1.2,1.7,1.8,2,4,1.6h.7c-.2.2-.4.5-.6.5Z"/>
    <path class="cls-2" d="M146.7,124.2l2.9.4.5.4a1.5,1.5,0,0,1-.3.8l-2.7.6-.3-.3a5.9,5.9,0,0,1-.2-1.3C146.5,124.6,146.7,124.4,146.7,124.2Z"/>
    <path class="cls-2" d="M150,121.9c-.2-.4-.5-.7-.5-.9s-.1-.7-.6-.7l-1.2-.2c-.1,0-.3-.3-.2-.4s.3-.4.4-.4l3.8,1c.4.2.6.6,0,.9Z"/>
    <path class="cls-2" d="M78.1,127.7l-1.3-.9s0-.3.1-.4a.3.3,0,0,1,.4,0l2.7.5a2.1,2.1,0,0,1,2,1.4c.1.2-.2.6-.2.9s-.6-.1-.7-.3A2.5,2.5,0,0,0,78.1,127.7Z"/>
    <path class="cls-2" d="M77.7,132.3l1.9-.4.5.3-.4.3-2.7.7c-.9.2-1.4-.4-1-1.3a5.3,5.3,0,0,1,1.3-1.3H78a1,1,0,0,1-.4.5,4.1,4.1,0,0,1-.5.9Z"/>
    <path class="cls-2" d="M86.5,139.3c-.3-.3-.9-.5-1.1-.9a1.6,1.6,0,0,1,.5-1.2c.3-.3.8-.3,1.1-.4s.3.2.5.3l-.4.3-.6.5h.7l.5-.2.8.3c-.1.3-.2.7-.4.8Z"/>
    <path class="cls-2" d="M72.8,123.9l-1.8.3-.6-.2c.1-.2.2-.6.3-.6s2.4-1,3.6-.3a3,3,0,0,1,.8.8s-.3.5-.4.5l-1-.3Z"/>
    <path class="cls-2" d="M98.8,138.7a20.6,20.6,0,0,1-2.5,0c-.4-.1-1-.7-.9-1s.6-.9.9-1.3.3.3.3.5.3,1.2,1.2,1h.6l1,.3Z"/>
    <path class="cls-2" d="M83.5,134.4c-.3-.2-1-.5-1-.7a6.7,6.7,0,0,1,.7-1.8h.2a.4.4,0,0,1,.1.5c-.4,1.1.4,1.1,1.1,1l2.2-.7h.7c-.2.2-.2.5-.4.5Z"/>
    <path class="cls-2" d="M123.3,129.4l-.6-.5c.3-.2.5-.5.8-.5s1.3,0,1.1-1,.2-.4.3-.3a3.3,3.3,0,0,1,1.3.4.8.8,0,0,1,0,.5C125.7,129.2,124.7,129.3,123.3,129.4Z"/>
    <path class="cls-2" d="M63.1,133.9l.6.6-.7.3-.5.2-.6.2h.6l.4.3c-.2.2-.3.6-.5.7a1.5,1.5,0,0,1-1.8-.9c-.2-.9.3-1,1-1.1Z"/>
    <path class="cls-2" d="M110.9,129.9c-.5-.1-.9,0-1.2-.2a2,2,0,0,1-.4-.8l.6-.2a1.8,1.8,0,0,0,2.6-.2c.4-.4,1.2-.3,1.8-.4l.4.3c0,.1-.1.4-.2.4Z"/>
    <path class="cls-2" d="M89.8,55.5a6.8,6.8,0,0,1,1.3.4,2.4,2.4,0,0,1,.6.8l-.8.2a1.2,1.2,0,0,0-.5.5,2.1,2.1,0,0,0,.2.6c-.3,0-.8.2-.9,0a3.1,3.1,0,0,1-.8-1.5C88.9,56.2,89.5,55.8,89.8,55.5Z"/>
    <path class="cls-2" d="M72.4,129.1l.6.6-.6.5-1.1.8-.6.8a2.3,2.3,0,0,1-.7-1,1,1,0,0,1,.3-.9Z"/>
    <path class="cls-2" d="M94.3,112.7c-1.1-.1-1.6-.6-1.7-1.4a2.9,2.9,0,0,1,1.6-2.3l.3.2a.4.4,0,0,1-.1.3,7.6,7.6,0,0,0-.9.9,1.7,1.7,0,0,0,0,1,1.2,1.2,0,0,0,.8.4l1.2.2Z"/>
    <path class="cls-2" d="M137.2,123.9a14.6,14.6,0,0,1,2.2-.3,1.9,1.9,0,0,1,.8.3.5.5,0,0,1,0,.5,1.9,1.9,0,0,1-.8.3c-1.2-.2-2.4-.7-3.7-.1s-.3-.1-.4-.2.2-.5.4-.5h1.5Z"/>
    <path class="cls-2" d="M134.1,125.9l2.7.2c.2.1.4.5.6.7l-.8.3a5.3,5.3,0,0,0-3.7-.5h-.6l.4-.3Z"/>
    <path class="cls-2" d="M58,125.4l-.9.5-1.9.2-.5-.2.3-.6,2.3-.8C57.4,124.4,57.6,124.9,58,125.4Z"/>
    <path class="cls-2" d="M115.1,111.9c-1-.4-2.1-.7-3.1-1.2s-.2-.5-.3-.8l.8.2a4.2,4.2,0,0,0,3,1h.8l-.7.4h-.4Z"/>
    <path class="cls-2" d="M70.8,128.3l-.9-.5c.2-.3.3-.7.6-1.1a1.1,1.1,0,0,1,.7-.3,3,3,0,0,1,1.3-.2l-.8.7-.3.3h.3l.5.5-.7.3h-.6Z"/>
    <path class="cls-2" d="M110.8,133.6c-1.1,0-1.5-.4-1.2-1.1s.6-.4.6-.3,1.4.2,2.1.2l.6.2c-.1.2-.2.5-.4.6Z"/>
    <path class="cls-2" d="M46.3,126H43.6l.3-.6,3.2-.3.3.2-.2.2Z"/>
    <path class="cls-2" d="M93.9,118.8c-.8,0-1.6-.9-1.4-1.6a.8.8,0,0,1,.4-.6l.6.4a3.1,3.1,0,0,1,.7.9,2.1,2.1,0,0,1,.4.6Z"/>
    <path class="cls-2" d="M96.6,68.6c-.1.1-.3.5-.5.5s-.9-.9-1.1-1.6.4-.4.6-.4S96.7,67.5,96.6,68.6Z"/>
    <path class="cls-2" d="M111.3,112c-.4.1-.6.4-.8.3l-2.6-1.3a.6.6,0,0,1-.1-.4h.4a4,4,0,0,0,2.6,1C110.9,111.5,111,111.7,111.3,112Z"/>
    <path class="cls-2" d="M44,127.1l.5.2-.7.4a.9.9,0,0,1-.7.1c-.4-.1-1-.4-.9-.5a3.1,3.1,0,0,1,.5-1.2l.5.3C42.9,127.2,43.3,127.2,44,127.1Z"/>
    <path class="cls-2" d="M100.9,52.8c.4.4.9.7.8.9a1.5,1.5,0,0,1-.7,1,.6.6,0,0,1-.8-.8C100.2,53.6,100.5,53.3,100.9,52.8Z"/>
    <path class="cls-2" d="M71.7,132.8l.7.8c-.1,1-.9.8-1.5.9s-.4-.3-.6-.5Z"/>
    <path class="cls-2" d="M90.9,111.2l-.7-.9a1.9,1.9,0,0,1,.2-.7l1-.9h.7l-.4.6h-.3c-.5.3-.6.5-.2.9a.5.5,0,0,1,.3.5Z"/>
    <path class="cls-2" d="M96.8,109.7a7.7,7.7,0,0,1,.9,1.3,2.8,2.8,0,0,1,.4,1.2.7.7,0,0,1-.1.6l-.4-.3a17.4,17.4,0,0,1-1-1.9A5.1,5.1,0,0,1,96.8,109.7Z"/>
    <path class="cls-2" d="M75.7,130.6c-.3-.3-.6-.4-.7-.7s.1-.6.3-.7a4.5,4.5,0,0,1,1.2-.6h.4l-.2.3-.3,1Z"/>
    <path class="cls-2" d="M133.8,129.7c-.2-.3-.5-.7-.4-1a2.3,2.3,0,0,1,.7-1c.2.2.6.4.5.6a12.1,12.1,0,0,1-.5,1.4Z"/>
    <path class="cls-2" d="M84.8,128.4c-.3-.2-.7-.4-.8-.7s.1-.6.2-.8.4-.2.5-.1l1.2,1Z"/>
    <path class="cls-2" d="M80.7,116.7c.4.5.7.8.7,1l-.8.9c-.2-.2-.5-.4-.5-.5A7.3,7.3,0,0,1,80.7,116.7Z"/>
    <path class="cls-2" d="M114.5,58.8a2,2,0,0,1-.4-.8c.1-.3.5-.7.7-.7a1.3,1.3,0,0,1,.8.6l-.7,1.1Z"/>
    <path class="cls-2" d="M118.6,51.5c-.5.3-.8.6-1,.6s-.6-.4-.8-.6.5-.6.7-.6S118.1,51.2,118.6,51.5Z"/>
    <path class="cls-2" d="M52.1,126.8c-.5.3-.8.6-1.1.6a1.5,1.5,0,0,1-.5-.6,2.7,2.7,0,0,1,.8-.7C51.4,126,51.7,126.4,52.1,126.8Z"/>
    <path class="cls-2" d="M78.8,137.2l-1,.5a1.6,1.6,0,0,1-.7-.7c.3-.2.5-.5.8-.5S78.3,136.8,78.8,137.2Z"/>
    <path class="cls-2" d="M140.2,127.4l.9-.5c.1-.1.5.4.4.4a2.2,2.2,0,0,1-.7.9c-.2.1-.6-.1-.9-.2Z"/>
    <path class="cls-2" d="M136,132.5l.7.7a1.8,1.8,0,0,1-.8.7c-.1.1-.4-.2-.6-.3Z"/>
    <path class="cls-2" d="M86.6,122.5l.7,1c-.2.1-.5.4-.7.4a1,1,0,0,1-.6-.5A3.5,3.5,0,0,1,86.6,122.5Z"/>
    <path class="cls-2" d="M96.3,104.8c.3.6.6.8.6,1.2l-.5.6-.6-.7C95.8,105.6,96,105.4,96.3,104.8Z"/>
    <path class="cls-2" d="M98,118.9l-1.2.5c-.1,0-.4-.4-.3-.5l.7-.7Z"/>
    <path class="cls-2" d="M118.9,138.8c-.4.3-.6.6-.8.6l-.8-.5c.2-.2.4-.7.6-.6S118.4,138.6,118.9,138.8Z"/>
    <path class="cls-2" d="M126.3,122c-.4-.4-.7-.7-.6-.9a.6.6,0,0,1,.6-.5c.2-.1.6.3.6.4S126.6,121.5,126.3,122Z"/>
    <path class="cls-2" d="M118.6,124.2c-.3-.3-.6-.5-.6-.8s.3-.4.5-.6.6.4.6.6S118.8,123.9,118.6,124.2Z"/>
    <path class="cls-2" d="M104.5,106.7l-1.1.5s-.4-.3-.3-.4a2.4,2.4,0,0,1,.6-.8Z"/>
    <path class="cls-2" d="M107,128.1a3.1,3.1,0,0,1,.4.9c0,.2-.3.4-.5.6a3.5,3.5,0,0,1-.5-.8C106.4,128.7,106.7,128.4,107,128.1Z"/>
    <path class="cls-2" d="M82.6,121l-.6-.8c.2-.2.4-.4.6-.4s.5.3.6.4S82.9,120.6,82.6,121Z"/>
    <path class="cls-2" d="M90,125.5l-.8.6c-.1,0-.5-.4-.4-.5a.8.8,0,0,1,.4-.7C89.4,124.9,89.6,125.2,90,125.5Z"/>
    <path class="cls-2" d="M129.6,121.1l-.7.5c-.1-.2-.4-.4-.3-.6s.3-.4.5-.6Z"/>
    <path class="cls-2" d="M98.4,125.3c-.1-.4-.3-.7-.3-.8l.5-.7.5.5C99,124.6,98.7,124.8,98.4,125.3Z"/>
    <path class="cls-2" d="M100.8,103.3c-.4.2-.6.5-.8.5s-.4-.4-.4-.5a.6.6,0,0,1,.5-.5C100.3,102.7,100.5,103,100.8,103.3Z"/>
    <path class="cls-2" d="M64.3,129.3l-.9.5-.4-.4a1.7,1.7,0,0,1,.6-.6Z"/>
    <path class="cls-2" d="M113.9,117c-.3.3-.5.6-.6.5a1.8,1.8,0,0,1-.7-.5l.5-.5C113.3,116.5,113.6,116.8,113.9,117Z"/>
    <path class="cls-2" d="M109.5,125.3c-.3.3-.5.5-.7.5a.7.7,0,0,1-.4-.5l.4-.5C109,124.8,109.2,125.1,109.5,125.3Z"/>
    <path class="cls-2" d="M155.4,123.1l-.7.6-.3-.5a1.7,1.7,0,0,1,.6-.6c.1-.1.4,0,.6.1Z"/>
    <path class="cls-2" d="M113.2,125.2l.4.6c-.1.3-.3.4-.5.7s-.4-.4-.4-.6S112.9,125.5,113.2,125.2Z"/>
    <path class="cls-2" d="M99.7,129.1l-.6.4a.9.9,0,0,1-.4-.5l.5-.5Z"/>
    <path class="cls-2" d="M51.3,122.8l-.8-.2-.2-.2a.2.2,0,0,1,.2-.2l.6-.2,1.4.4Z"/>
  </g>
</svg>
