<svg xmlns="http://www.w3.org/2000/svg" viewBox="0 0 220.3 178.7">
  <defs>
    <style>
      .cls-1 {
        fill: #434d5a;
      }

      .cls-2 {
        fill: #70c1db;
      }
    </style>
  </defs>
  <title>v4-0-0_icons</title>
  <g id="Layer_2" data-name="Layer 2">
    <path class="cls-1" d="M126.5,136.2l16.4-2.1a1,1,0,0,0,.3-1.9c-5.4-2.4-23.2-2.1-40-.3-19.9,2-46.8-2.9-45,3.2S126.5,136.2,126.5,136.2Z"/>
    <path class="cls-2" d="M93.8,83.1s7.3-4,12.3-1,21-3.4,20.3.7-3.1,5.1-3.1,5.1-13,14.9-16.5,17.3-18.8,14-22.9,15.2-13-.1-14.3-1.8.5-9.1,1.8-12.1,11.2-9.3,12-12.1,9.3-11.2,9.3-11.2Z"/>
    <g>
      <path class="cls-1" d="M137.4,55.2c3.1,3.5,6.8,6.4,9.4,10.3.9,1.4,2,2.9,2.9,4.4a2.9,2.9,0,0,1-.3,3.5c-1.9,2.4-3.5,4.9-6.7,5.6a11.9,11.9,0,0,0-5.9,3,27.5,27.5,0,0,0-2.2,2.6l-2.9,3c-.2.3-.6.5-.8.8-1.6,1.9-3.1,4-4.8,5.8s-3.4,3-5.1,4.5-2.4,2.4-3.7,3.5-2,1.5-2.9,2.4l-4.5,3.9a1,1,0,0,1-.4.5c-2,.6-3,2.2-4.4,3.5s-1.8,1.4-2.6,2.1l-3.7,3.1c-2.9,2.3-5.8,4.6-8.6,7s-4.9,4.2-7.5,6.2a29.1,29.1,0,0,1-6.2,3.5,8.2,8.2,0,0,1-8.3-1.9l-2.9-2.8c-2.6-2.3-3.2-5.5-4-8.6a14,14,0,0,1-.8-4.9,16.9,16.9,0,0,1,2.4-9c.8-1.5,1.4-3,2.2-4.5a9.2,9.2,0,0,1,1.8-2.2l3.5-3.6c.4-.4.3-1.1.7-1.5l5.4-5c.5-.5.8-1.2,1.3-1.8s2.6-3.5,4-5.1,3.2-3.2,4.9-4.8l1.1-1.5L91.2,74a38.6,38.6,0,0,0,4.9-5,12.6,12.6,0,0,1,2-2,13.5,13.5,0,0,1,2-1.5c1.5-1,2.1-2,3.7-2.9a2.9,2.9,0,0,0,1.2-1c1.3-1.7,3.2-2.9,3.9-5,.2-.5.8-.8,1.1-1.2s1-1.1,1.1-1.6a53.2,53.2,0,0,0,.6-5.6,6.1,6.1,0,0,1,7.4-5.7,29.1,29.1,0,0,1,6,2.7,22.2,22.2,0,0,1,3.7,2.1c1.5,1.1,2.9,2.4,4.3,3.6S136,53.7,137.4,55.2Zm5,8-2-2c-3.4-3.4-7-6.6-10.2-10.1s-6.6-4.8-10.4-6.4-6.5,2.2-6.2,5.9a7.6,7.6,0,0,1-1.2,5,123.5,123.5,0,0,1-9.7,10.7c-1.1.9-4.7,3.6-5.5,4.7a45.7,45.7,0,0,1-4.5,4.3c-1.2,1.2-2.3,2.4-3.6,3.6s-1.9,1.4-2.6,2.2-2.2,2.9-3.3,4.4-3.5,4.2-5.4,6.2-4.9,5-7.4,7.5a25.4,25.4,0,0,0-5.3,8,51.5,51.5,0,0,0-2.4,7.6c-.5,2.9.5,5.7,1.3,8.4a15.8,15.8,0,0,0,5.3,7.7,6.1,6.1,0,0,0,5.2,1.4,16.7,16.7,0,0,0,5.8-2.5,69.9,69.9,0,0,0,6.7-5.5c2.2-1.8,4.2-3.7,6.4-5.4s4.2-2.6,6-4.3,5.5-4.6,8.2-6.9l7.6-6.5c3.9-3.2,7.9-6.1,10.8-10.3a42.5,42.5,0,0,1,3.5-3.9,38.7,38.7,0,0,0,3.2-3.7,14.7,14.7,0,0,1,7.5-5.7c1.6-.5,3.3-.9,4.5-2.3s.8-1.6,1.5-2.1a2.5,2.5,0,0,0,.7-3.6C145.5,67.4,142.5,63.2,142.4,63.2Z"/>
      <path class="cls-1" d="M119.4,64.6a23.9,23.9,0,0,0,7.1,7.9,26.7,26.7,0,0,0,6.2,2.8c1.2.4,2.3,2.8,1.5,3.8a39.4,39.4,0,0,1-4.4,4.7,30.8,30.8,0,0,1-4.1,3l-3.1,3.1c-1.4,1.6-2.6,3.2-4,4.7-3.1,3.2-6.2,6.5-9.3,9.6-1.5,1.5-3.1,2.8-4.7,4.2s-1.7,1-2.6,1.6c-2.7,1.9-5.4,4-8.2,5.8s-6.4,3.9-9.7,5.7c-1,.6-2.4.4-3.6.7s-1,.6-1.5.6c-2.4-.3-5-.3-7-1.9a8.7,8.7,0,0,0-1.8-1.1c-1.5-.9-1.9-2.4-2.1-4a18.7,18.7,0,0,1,4.7-12.4c2.3-2.4,4.9-4.6,7.3-7s2.8-3.2,4.2-4.8,1.9-2.9,3.3-3.8,2-2.4,3.1-3.5,1-1.6,1.6-2.3c1.7-2.3,3.6-4.4,5.1-6.8s5.1-4.8,7.7-7.2a15.9,15.9,0,0,1,1.3-1.3l3.8-2.8a11.3,11.3,0,0,1,2.6-1.6,5.4,5.4,0,0,1,2.8.2A40.5,40.5,0,0,1,119.4,64.6Zm3.5,22.5c.1,0,1.3-1.2,1.2-1.4a8.6,8.6,0,0,0-4.8-4c-.4-.1-.6-.4-.9-.7l.2-.3c1.4.3,2.8-.6,4.1.6a24.3,24.3,0,0,0,2.5,2,.9.9,0,0,0,.9.1c.2,0,.4-.5.3-.6a17.3,17.3,0,0,0-2.1-2.5c-1.6-1.4-3.4-2.7-5.1-4.1s-.3-.7-.5-1.1a9.3,9.3,0,0,1,1.3-.4,3,3,0,0,1,1.6.8l6,4.7c1.5,1.1,1.7,1.1,3.1-.4l.5-.6a1.9,1.9,0,0,0-.9-3.1,21.8,21.8,0,0,1-7-4.2c-1.2-1.1-2.3-2.4-3.5-3.6l-1.6-1.5a5.2,5.2,0,0,1-1.1-1c-.7-1.1-3.1-1.8-4-1.1s-4.2,2.8-6.2,4.4-3.7,2.9-5.5,4.5-.2,1.1-.5,1.4-.9.5-1.3.8l-1.7,1.6-.5.2a39.7,39.7,0,0,1-2,3.5C94,83,92.5,84.7,91,86.5s-3.5,4.4-5.4,6.4-1.7,2.7-3.4,3.5-1.4,1.4-2.1,2.1l-3.6,4.3c-1,1.2-2.3,2-3,3.3a17.4,17.4,0,0,0-2.6,6.5c-.6,4.2-.1,5.6,3.2,6.8h.8a1.4,1.4,0,0,1-.2-.6c0-.5-.1-1.1.1-1.2a1.9,1.9,0,0,1,2.7.1A7.5,7.5,0,0,0,80,120c.8.3,1.8-.2,2.7-.3l-1-1.3c-.2-.2-.6-.3-.7-.6s-.6-1-.5-1a2.7,2.7,0,0,1,1.4-.7c1.3-.1,1.7,1,2.2,1.9s.6.9,1.3.7,1.8-1.3.6-2.5-2.4-1.9-3.6-2.8-.8-1.4-.1-1.9a2.1,2.1,0,0,1,1.7.3c1.5,1,2.8,2.3,4.2,3.4a3.1,3.1,0,0,0,2,.6,4.7,4.7,0,0,0,1.8-1.2,1.2,1.2,0,0,0,.1-1c-.8-.7-1.6-1.1-2.4-1.8s-.4-.6-.7-1,.9-.6,1.2-.5a19.6,19.6,0,0,1,2.5,1.3c.7.4,1.4,1.1,1.9,1a11.3,11.3,0,0,0,2.3-1.7,9.6,9.6,0,0,0-1.8-1.7,2.3,2.3,0,0,1-1.3-2.1c0-.2.4-.5.4-.4a22.6,22.6,0,0,1,3.7,2.2c.8.6,1.3.9,2.2.3l4-2.8,2-1.8c1.7-1.6,3.5-3,5.1-4.7s2.6-3.4,4.1-4.9.5-1.2-.2-1.6l-3-1.7c-.9-.3-.4-1-.5-1.5h.9a5,5,0,0,1,3.9,1.8c.6.6,1.2.4,1.7-.2l2.8-2.7Z"/>
      <path class="cls-1" d="M123.1,62.2a18.7,18.7,0,0,1-2.7-6.5,26.6,26.6,0,0,0-1.6-3.9h0a1,1,0,0,1,1.2-1.2c.1,0,.2,0,.2.1a33.3,33.3,0,0,1,2.5,5c1,3.4,2.4,6.3,5.3,8.5s3.8,3.3,6.2,4.1a65.3,65.3,0,0,0,7.9,2.1c.8.2,1.5.5,1.4,1.4s-1,.8-1.8.6c-3.9-1-8.1-1.4-11.5-3.9A63.1,63.1,0,0,1,123.1,62.2Z"/>
      <path class="cls-1" d="M133.6,63.2c1.3,1,.6,2.4.9,3.5s-.1.2-.2.2l-.3-.3-1.4-.9c-.3-.2-1.5-2.5-2.1-3.1s-3-2.7-4.5-4l-1.3-1.5a6.7,6.7,0,0,1,2,0C128.1,57.8,132.4,62.3,133.6,63.2Z"/>
      <path class="cls-1" d="M102.6,104.9a7.3,7.3,0,0,0,.5.9,1.2,1.2,0,0,1,.2,1.9c-.4.4-2,.1-2.4-.3s-3.3-3-5-4.3-1.1-.8-.6-1.4a1.9,1.9,0,0,1,1.5-.6c1.8,1,3.5,2.2,5.3,3.3C102.3,104.5,102.4,104.8,102.6,104.9Z"/>
      <path class="cls-1" d="M120.8,90.4c-.6.4-1.2.5-1.8-.5a11.2,11.2,0,0,0-2.6-2.2l-2.1-1.6c-.6-.5-.7-1-.1-1.6s1-.7,1.7-.1l5,4C121.8,89.1,121.9,89.7,120.8,90.4Z"/>
      <path class="cls-1" d="M113,97.2c-.1.5.1,1.4-.3,1.7a1.3,1.3,0,0,1-2.1-.3,15,15,0,0,0-2.4-2,4.7,4.7,0,0,1-1.8-3.1c0-.1.2-.4.3-.4a7.4,7.4,0,0,1,2.1.7l3,2.4Z"/>
      <path class="cls-1" d="M108,100.1l.3,1.4c-.3.1-.7.3-1,.2l-3.3-1.6c-.1-.1-.2-.6-.1-.7s.7-.6,1-.5A28.5,28.5,0,0,1,108,100.1Z"/>
    </g>
  </g>
</svg>
