<svg xmlns="http://www.w3.org/2000/svg" viewBox="0 0 220.3 189.6">
  <defs>
    <style>
      .cls-1 {
        fill: #434d5a;
      }

      .cls-2 {
        fill: #f99c1c;
      }
    </style>
  </defs>
  <title>v4-0-0_icons</title>
  <g id="Layer_3" data-name="Layer 3">
    <g>
      <path class="cls-1" d="M80.8,115.1c-.2,6.6-.5,13.2-.6,19.8a16.3,16.3,0,0,0,.3,3.8c.4,2.6-2.5,5.3-5.1,4.6a8.1,8.1,0,0,0-3.1-.1c-2,0-3.9.2-5.9.3l-8.8.5c-2.9.2-5.8.4-8.7.4-.4,0-1.1-1.2-1.2-1.9-.3-3.1-.5-6.3-.5-9.4,0-4.7.2-9.4.4-14.1s.6-11.2.7-16.8c.2-7.1.2-14.1.3-21.2.1-5.3.1-10.6.2-15.9s.4-9.2.9-13.7a36.1,36.1,0,0,1,2.1-7.1,2.3,2.3,0,0,1,1.5-.6c3.8,0,7.6.6,11.3-.5a9.6,9.6,0,0,1,1.7,0l7.7.3a6.4,6.4,0,0,1,5.1,5c.4,3.4.9,6.8,1,10.2.3,8.5.3,17,.5,25.5,0,2.8.4,5.6.4,8.4,0,5.3-.4,10.6-.5,15.9C80.5,110.7,80.7,112.9,80.8,115.1ZM66.2,140.8v.5c3.1-.3,6.3-.8,9.5-1s1.9-1.1,1.9-2.5,0-5.2.1-7.8.6-6.4.6-9.6-.2-6.6-.1-10,.4-9.7.5-14.6c.1-3-.2-6-.3-9.1s0-7.1-.1-10.7l-.6-11.8c0-.4-.4-1.1-.6-1.1a26.3,26.3,0,0,0-4.9-.5l-10.2-.2-3.6-.5H52.7c-1-.1-1.4,0-1.4,1.1l-.3,13c-.1,5.1-.1,10.2-.1,15.3s.1,8.4.2,12.6.1,5.4.2,8c0,.2-.1.4-.1.6a13,13,0,0,0-.7,3.3c-.2,1.4.1,2.8,0,4.2s-.5,1.8-.5,2.6,0,3.9,0,5.9c0,4-.1,8.1,1.1,12.1.2.4.8,1,1.2,1Zm6-80.3v-.2a28.1,28.1,0,0,0,4.1-.1c.4,0,1-.8,1-1.2-.4-3-.9-6-1.3-9s-2.5-3.9-5.3-3.8H67.1l-4.6.2a45.2,45.2,0,0,1-5.2.2c-3.1-.1-4.2.4-4.8,3s-.8,4.9-1.1,7.3c-.1.6,0,1.5.4,1.7a6.4,6.4,0,0,0,4.9,1.3,12.2,12.2,0,0,1,3.3-.1Z"/>
      <path class="cls-2" d="M131.6,74c.3,9-.6,17.7-1,26.6s-.3,15.6-.4,23.4-.3,14.6-.5,21.9c-.1,3.9-.3,7.7-.4,11.6.2,9.3-2.8,8.4-5.5,8.6a82.7,82.7,0,0,1-8.6.5,26.3,26.3,0,0,0-4.9.6c-5.3.3-9.3.8-14,0s-6.5-2-8.8-7.1a11.2,11.2,0,0,1-.7-3.8c-.2-5.1-.3-10.2-.7-15.3-.6-6.8-1.4-13.5-2-20.4-.3-4.3-.4-8.7-.4-13.1,0-6.9.3-13.8.3-20.6-.1-10.3-.6-20.6-.5-30.9.1-6.5.4-13.3,2.2-19.3.9-3,2.2-5.7,4.3-6,4.4-.7,8.9-1.1,13.4-1.5s7.4-1.6,10.9-.5,8.4,1.2,12.5,2.9c1.9.8,4.4,5.9,4.4,9.6,0,1.4.1,2.8.1,4.2S131.3,64.5,131.6,74ZM90.2,34c-1.6.4-1.5,5.2-2.3,6.8s-1.4,6.3-1.7,9.5-.3,8.7-.3,13.1,0,7.2.1,10.9c.1,9,.5,18.1.2,27.1a216.7,216.7,0,0,0,1.2,26.8c.6,6.2,1,12.4,1.6,18.6a59.5,59.5,0,0,0,1.3,9.8c1.6,5.6,4.7,8.2,8.1,8.1s8.1-.8,12.2-1.1,8-.5,12-.7,3.2-3.3,3.4-4.8c1.6-13.6,1.2-27.5,1.8-41.2.4-7.7.5-15.4.7-23.1.2-5.4.7-10.7.7-15.9-.1-11.7-.5-23.3-.8-34.9-.1-2.3-2-8.9-3.2-9.1-3.8-.7-5.5-1.3-9.3-1.8a91.3,91.3,0,0,0-10.5-.4c-1.5,0-5.8,1.1-7.4,1.3S92,33.5,90.2,34Z"/>
      <path class="cls-1" d="M170.3,84.1c.3,4.3.6,8.6.8,12.8,0,1.8-.1,3.6-.2,5.3a1.9,1.9,0,0,1-2.6,1.8c-.4-.1-1-.3-1.3-.1-3.3,1.5-6.9.7-10.4,1.3l-9.1,1.1a23,23,0,0,1-3.7-.2l-.8.2a6.2,6.2,0,0,1-5.5-1.6,3.8,3.8,0,0,1-.5-1.5c-.1-3.7-.4-7.5-.3-11.2.2-5.7.5-11.4,1-17,.1-1.9,1-3.2,3.5-3.4a89.4,89.4,0,0,1,21.3.5c1.4.2,3.2.5,4.2,1.5a16.3,16.3,0,0,1,3,5.1,32,32,0,0,1,.9,5.4Zm-22.4-10h0a23.7,23.7,0,0,0-4.6.3c-1.2.4-2.7,1.1-3.2,2a9.1,9.1,0,0,0-.7,4.4c-.2,2.5-.1,5-.2,7.5s-.2,3.3-.1,5,.7,5.5.8,8.3.8,2.1,2.1,2.1,4.7-.1,7-.3q5.7-.5,11.4-1.2c2.2-.2,4.4-.6,6.6-1,.5-.2,1.3-.8,1.4-1.3a12,12,0,0,0,.2-3.8c-.2-2.9-.6-5.7-.8-8.6s-.9-3.1-3.4-2.9-7.6.2-11.4.3l-10.9.7a3.4,3.4,0,0,1-1.7-.5c-.2-.1-.3-.9-.2-1a3.3,3.3,0,0,1,1.7-1,16.2,16.2,0,0,1,3.1-.2,16.7,16.7,0,0,1,3.8-.3c5.1.8,10.2.4,15.3.1,3.2-.2,3.3-.5,2.4-3.5-.3-1.3-.3-3.1-1.8-3.6a26.4,26.4,0,0,0-6.8-1.3C154.6,73.9,151.2,74.1,147.9,74.1Z"/>
      <path class="cls-1" d="M58.4,125.7H68.6c.3,0,.6.6.9.9s-.8.7-1.2.6a17.4,17.4,0,0,0-7.5.6c-.9.2-1.9-.3-2.9-.5s-.3-.2-.5-.3l-1.2-.9,1.7-.9h.5Z"/>
      <path class="cls-1" d="M68.6,134H56.1a1.7,1.7,0,0,1-1.2-.4c-.3-.2-.6-.7-.5-1s.6-.6.9-.5l12.4,1.1h2l.9.6-.9.5H68.6Z"/>
      <path class="cls-1" d="M61.4,103.6l10.5,1c.3,0,.5.3.7.5s-.7.9-1.1.9q-4.9-.1-9.9-.6c-.5,0-.9-.5-1.3-.8Z"/>
      <path class="cls-1" d="M64.3,68.4a43.4,43.4,0,0,1,5.1.1c.4,0,.7.6,1.1,1s-.9.8-1.1.8c-2.6-.8-5,.1-7.5.4-.6.1-1.3-.5-2-.8s.8-1,1.3-1.2S63.3,68.5,64.3,68.4Z"/>
      <path class="cls-1" d="M66.7,88.9l-6.7.8h-.5l-1.8-.8c.5-.2,1-.7,1.6-.8l7.5-.6c.8,0,1.5-.1,1.4.8s-.8.7-1.3,1.1Z"/>
      <path class="cls-1" d="M61.6,77.4l6.6.6c.3,0,.5.3.8.6s-.6.7-.8.7H59.7c-.4,0-.7-.4-1-.7a9,9,0,0,1,.9-1Z"/>
      <path class="cls-1" d="M64.2,111.9c2.1.3,4.2.5,6.2.9.4,0,.8.6,1.2.9a3.9,3.9,0,0,1-1.5.2,19.7,19.7,0,0,0-8.7-.1,1.7,1.7,0,0,1-1,.1c-.3-.1-.5-.4-.8-.6s.4-.7.7-.8Z"/>
      <path class="cls-1" d="M62.9,95.1l5.7.7c.3.1.6.6.9.8a3.5,3.5,0,0,1-1.3.5c-2.1,0-4.1-.1-6.2-.3a2.5,2.5,0,0,1-1.7-.8c-.1-1.1.9-.7,1.5-.7h1.1Z"/>
      <path class="cls-1" d="M64.7,119.2l-4.3.7a5.3,5.3,0,0,1-1.2-.3c.3-.3.5-1,.9-1a55.8,55.8,0,0,1,5.9-.9c.4,0,.8.5,1.2.8s-.7.7-1.1.8a3.2,3.2,0,0,1-1.4.1Z"/>
      <path class="cls-1" d="M97.4,58.5c4.1-.4,8.1-.6,12.1-1.1a22.1,22.1,0,0,1,11.9,1.7c1.1.5,2.5.5,2.6,2.2s-.3,1.6-.3,2.4.3,2.8.2,4.2c-.1,3.8-.2,7.6-.4,11.4s-.8,5.2-.9,7.8.5,3.1.4,4.6c-.6,6.6.6,13,1.1,19.5a31.9,31.9,0,0,1-.8,6.2c0,.3.3.6.4.9s.7,1.2.6,1.5a3.1,3.1,0,0,1-1.6,1.4,23.9,23.9,0,0,1-4.6,1.2l-9.6,1c-.7.1-1.4-.2-2.1-.1-4.1.7-6.7-.5-10.1-2.6a10.6,10.6,0,0,1-3.5-4.3,24.5,24.5,0,0,1-1.9-7.4,94.3,94.3,0,0,1-.7-10.6c.1-1.3-.3-3.8-.3-5.1,0-3.3-.3-6.6,0-9.9a101.4,101.4,0,0,0-.3-14.6,20.7,20.7,0,0,1,.3-5,5.7,5.7,0,0,1,4.6-4.7C95.5,58.9,97.4,58.4,97.4,58.5Zm4.2,60.7.8.4c.8.8,2.8,1.5,3.4.8s1.5-.5,2.4-.3l3.6.6,7.2-1.2a1.7,1.7,0,0,0,1.1-.9c.4-1.5.7-3.1,1-4.6.7-3.2-.4-6.2-.5-9.3-.3-6.2-.5-12.5-.5-18.7,0-3.1.5-6.1.7-9.2.2-1.2-.1-1.8-1.5-1.5a16.1,16.1,0,0,1-3.1,0H104.1l-3.7-.3a20.9,20.9,0,0,0-2.5,0,16.8,16.8,0,0,0-4.5.6c-1.1.5-.9,1.9-.3,3h0c-.2,1.5-.5,3-.6,4.5a18.6,18.6,0,0,0-.4,3.3,12,12,0,0,0-.1,2.5c-.2,3.7.3,7.4.1,11.1,0,.7.1,2.3.2,3a45.5,45.5,0,0,0,.4,5.2,32.5,32.5,0,0,0,.7,4.5C93.4,112.9,97.6,119.8,101.6,119.2ZM98,72.7c0-.1,2.5.3,3.6.3,5.7.1,11.3.2,17,.1,1.1,0,2.6,0,2.1-1.9s0-1.5-.1-2.2,0-4-.2-6c-.1-.5-.6-1.3-1.1-1.4a22.9,22.9,0,0,0-5.2-1.1,60,60,0,0,0-17.9,1.4c-1.1.3-2.8,1-2.9,1.7a75.6,75.6,0,0,0-.7,8.2,1.4,1.4,0,0,0,.9.9Z"/>
      <path class="cls-1" d="M158.6,93.3c-1.1.5-2.1,1.3-3.1,1.3a67.8,67.8,0,0,1-7.8-.3c-.4,0-.8-.5-1.3-.8a4.8,4.8,0,0,1,1.4-.5h9.8a3.2,3.2,0,0,1,.9.3Z"/>
      <path class="cls-1" d="M146.2,100.3a5.3,5.3,0,0,1-1.2-.3,1.5,1.5,0,0,1-.6-1c-.1-.2.5-.7.8-.7l11.6-.4h.7l.5.3-.5.2-9.4,1.4Z"/>
      <path class="cls-1" d="M152.1,88.7H159c.3,0,.5.2.8.4l-.8.2-9.8.8h-2.8c-.3,0-.5-.3-.8-.5l.8-.5,5.7-.3Z"/>
      <path class="cls-1" d="M158.5,93.4l2.1-.6.7.2c.1.2,0,.7-.1.7s-1.9.9-2.6-.4Z"/>
      <path class="cls-2" d="M90.5,56.7c-.3-.1-.1-1.8.8-4.9A86.2,86.2,0,0,1,92,40.4c.2-1,2.2-1.9,3.5-2.3,6.8-2.2,13.9-2.4,20.9-2a21.8,21.8,0,0,1,6.1,1.5,2.7,2.7,0,0,1,1.3,1.9c.2,2.8.2,5.6.3,8.3,0,1,0,6.7.2,7.7s-7.2-1.3-16.4-1.4C100.6,54,91.3,56.7,90.5,56.7Z"/>
      <path class="cls-2" d="M121.4,124.8c4.6-2.3,3.2,4.9,3.2,5.6-.1,6.4-.9,13.3-1.5,19.5-.1,1.8.6,9-.5,9.7s-16.2,2.8-22.2,2.1c-1.7-.2-2.7.2-4.4-.9a14.3,14.3,0,0,1-2.5-4.8,60.4,60.4,0,0,1-1.6-14.1c-.1-1.7-.7-6.4-.8-8-.5-4.6-.2-10,.9-10s7.8,3.2,14.9,3.3C112.4,127.2,119.8,125.6,121.4,124.8Z"/>
      <path class="cls-1" d="M114.3,113.7c-1.9.1-3.8.4-5.7.4s-4.6-.3-6.9-.6c-.4,0-.7-.8-1.1-1.2s1.1-.7,1.6-.6c4.2.2,8.3.6,12.5,1a2.4,2.4,0,0,1,.8.6l-1.1.6Z"/>
      <path class="cls-1" d="M104.2,79.3l9.5-.5a4.5,4.5,0,0,1,1.6.3c.3.1.6.7.5.9s-.8.6-1,.5c-3.2-1.3-6.4-.2-9.6-.2l-4.2.3c-.3,0-.6-.4-.9-.7s.6-.6.9-.7,2.1,0,3.2,0Z"/>
      <path class="cls-1" d="M108.5,98l4.2.5c.2.1.4.5.6.7a1.9,1.9,0,0,1-.8.3,30,30,0,0,0-9.9.9c-.6.1-1.3-.4-2-.6s1-1.3,1.7-1.4A53.8,53.8,0,0,1,108.5,98Z"/>
      <path class="cls-1" d="M109.9,85.1h2.9c.3,0,.6.4.8.6s-.5.6-.8.6c-3.7-.4-7.3.5-10.9,1.5-.4.1-.8-.2-1.2-.3s.4-1.5.7-1.6l8.5-1Z"/>
      <path class="cls-1" d="M112,92.6l-8.9.7a8.8,8.8,0,0,1-2.3,0c-.4,0-.7-.5-1-.7s.7-.8,1-.8h12.3c.3,0,.6.3.9.4a2,2,0,0,1-.8.4H112Z"/>
      <path class="cls-1" d="M109.2,106.9l-4.3.5c-.4,0-.8-.5-1.2-.8s.6-1,.9-1H111c.2,0,.3.4.5.6s-.4.5-.6.5l-1.7.3Z"/>
    </g>
  </g>
</svg>
