<?xml version="1.0" standalone="no"?>
<!DOCTYPE svg PUBLIC "-//W3C//DTD SVG 20010904//EN"
 "http://www.w3.org/TR/2001/REC-SVG-20010904/DTD/svg10.dtd">
<svg version="1.0" xmlns="http://www.w3.org/2000/svg"
 width="384.000000pt" height="384.000000pt" viewBox="0 0 384.000000 384.000000"
 preserveAspectRatio="xMidYMid meet">
<metadata>
Created by potrace 1.11, written by Peter Selinger 2001-2013
</metadata>
<g transform="translate(0.000000,384.000000) scale(0.100000,-0.100000)"
fill="#000000" stroke="none">
<path d="M1710 3199 c-84 -20 -107 -29 -259 -101 -58 -27 -130 -61 -159 -75
-121 -56 -301 -168 -382 -238 -134 -116 -268 -300 -364 -499 -38 -80 -100
-272 -122 -381 -18 -94 -25 -315 -12 -410 21 -156 79 -305 177 -455 61 -94
221 -262 291 -305 25 -15 47 -31 50 -35 9 -13 143 -77 210 -99 143 -49 343
-79 491 -74 388 14 738 291 973 769 94 192 106 357 33 455 -24 33 -84 67 -150
85 -50 13 -262 13 -327 0 -14 -2 -61 -10 -105 -16 -44 -7 -89 -14 -100 -17
-57 -12 -264 -15 -301 -3 -97 31 -146 102 -150 217 -4 103 22 175 89 245 75
80 103 91 223 94 112 3 224 -16 289 -48 33 -17 101 -62 150 -100 72 -56 92
-68 115 -68 36 0 54 22 52 65 -1 28 2 35 18 35 22 0 49 35 45 58 -2 9 -4 22
-4 28 -2 26 -89 108 -164 154 -196 120 -426 168 -633 130 -123 -22 -212 -71
-315 -173 -132 -129 -344 -423 -411 -570 -39 -85 -38 -167 4 -243 26 -48 137
-144 222 -193 111 -63 186 -82 316 -77 95 3 236 30 295 55 49 22 314 120 350
130 91 25 145 7 171 -55 31 -74 3 -198 -62 -274 -99 -117 -247 -236 -339 -272
-144 -57 -327 -65 -488 -22 -139 37 -317 143 -433 258 -198 197 -284 455 -250
756 12 104 46 217 97 320 36 71 59 101 153 195 61 61 154 141 206 178 184 130
458 247 547 232 17 -2 77 -23 131 -45 122 -49 166 -51 240 -11 83 45 120 34
293 -84 140 -95 170 -110 243 -124 97 -18 179 -76 280 -200 66 -80 138 -203
162 -273 40 -121 6 -421 -82 -727 -26 -93 -35 -109 -108 -196 -28 -33 -62 -75
-76 -93 -14 -18 -33 -43 -44 -55 -10 -12 -24 -30 -31 -40 -10 -14 -17 -16 -38
-8 -22 9 -29 6 -47 -16 -11 -14 -20 -34 -20 -44 0 -10 -9 -26 -20 -37 -22 -21
-50 -82 -50 -112 l0 -20 42 21 c87 44 227 171 317 288 51 65 158 245 196 327
27 58 53 136 61 182 3 12 13 44 23 70 11 27 47 142 81 257 54 181 61 216 56
264 -6 62 -30 147 -47 167 -6 8 -8 14 -4 14 5 0 1 8 -7 18 -8 9 -28 44 -44 77
-15 33 -32 62 -36 63 -4 2 -8 8 -8 13 0 18 -78 126 -127 176 -27 27 -77 64
-113 82 -36 18 -99 58 -140 90 -98 75 -135 96 -196 114 -41 12 -291 111 -369
147 -40 18 -192 60 -250 69 -93 14 -222 10 -305 -10z"/>
</g>
</svg>
