<?xml version="1.0" standalone="no"?>
<!DOCTYPE svg PUBLIC "-//W3C//DTD SVG 20010904//EN"
 "http://www.w3.org/TR/2001/REC-SVG-20010904/DTD/svg10.dtd">
<svg version="1.0" xmlns="http://www.w3.org/2000/svg"
 width="857.000000pt" height="857.000000pt" viewBox="0 0 857.000000 857.000000"
 preserveAspectRatio="xMidYMid meet">
<metadata>
Created by potrace 1.14, written by Peter Selinger 2001-2017
</metadata>
<g transform="translate(0.000000,857.000000) scale(0.100000,-0.100000)"
fill="#000000" stroke="none">
<path d="M1085 8276 c-11 -8 -175 -106 -365 -219 -190 -113 -355 -216 -367
-229 -89 -96 -92 -266 -8 -366 8 -9 85 -111 171 -227 86 -115 168 -221 182
-234 69 -64 196 -83 282 -43 45 21 158 82 235 126 22 13 67 39 100 57 33 18
87 47 120 66 33 18 63 33 66 33 3 0 30 -37 58 -82 29 -46 57 -90 63 -99 9 -14
2 -28 -38 -75 -27 -33 -55 -66 -63 -74 -26 -27 -146 -194 -195 -270 -63 -99
-188 -355 -220 -451 -25 -74 -70 -245 -80 -303 -3 -16 -10 -52 -15 -80 -11
-57 -14 -77 -36 -251 -24 -193 -24 -700 0 -910 2 -16 6 -59 10 -95 4 -36 13
-108 21 -160 8 -52 17 -109 19 -125 2 -17 22 -114 45 -215 45 -202 43 -195 60
-260 6 -25 15 -63 20 -85 16 -69 113 -420 140 -505 6 -19 13 -44 15 -54 3 -11
11 -40 19 -65 60 -187 127 -405 196 -636 105 -350 293 -912 365 -1090 124
-310 293 -538 536 -727 227 -177 524 -304 782 -334 29 -4 56 -8 60 -11 8 -5
294 -4 342 1 17 2 66 6 110 10 44 4 96 9 115 11 19 2 62 7 95 10 33 3 71 8 85
10 14 2 52 6 85 10 57 6 100 12 155 20 14 2 86 13 160 25 74 11 146 22 160 25
14 3 41 8 60 11 19 3 87 17 150 30 63 14 126 27 140 30 374 72 1248 406 1870
715 845 420 1326 851 1459 1304 49 168 62 348 40 520 -11 77 -61 269 -86 324
-133 300 -219 426 -460 675 l-89 91 -23 110 c-13 61 -39 164 -58 230 -53 184
-55 195 -42 211 6 8 18 14 26 14 27 0 90 39 124 77 38 43 41 47 174 224 67 90
109 136 144 158 35 23 57 47 79 89 60 112 72 216 57 487 -3 66 -8 160 -10 208
-5 117 -12 157 -42 247 -58 171 -145 260 -255 260 -48 0 -68 -57 -87 -255 -19
-193 -5 -341 43 -456 6 -13 -11 -26 -77 -59 -101 -51 -218 -136 -312 -228 -71
-69 -142 -122 -162 -122 -6 0 -26 26 -44 58 -46 82 -172 275 -233 357 l-51 69
-1 206 c0 113 -4 219 -8 235 -4 17 -9 39 -11 50 -20 135 -112 369 -205 520
-277 451 -790 807 -1425 990 -125 36 -287 73 -390 89 -70 11 -101 17 -125 21
-14 2 -47 7 -75 9 -27 3 -70 8 -95 11 -254 27 -703 27 -960 0 -183 -20 -297
-37 -474 -71 -378 -72 -676 -183 -948 -351 -139 -86 -174 -111 -320 -232 -53
-45 -99 -81 -101 -81 -3 0 -28 37 -57 83 -29 45 -61 94 -71 109 -11 15 -19 29
-19 31 0 3 -30 56 -66 118 -37 63 -76 130 -87 149 -10 19 -41 72 -68 118 -27
45 -49 84 -49 86 0 2 -18 34 -41 71 -39 64 -51 84 -100 173 -45 79 -100 172
-102 171 -1 0 -11 -6 -22 -13z m-37 -308 c15 -29 51 -93 78 -138 12 -19 33
-55 46 -80 14 -25 49 -85 78 -135 69 -119 110 -193 110 -198 0 -3 -69 -43
-152 -90 -217 -120 -249 -138 -283 -159 -16 -10 -40 -18 -52 -18 -25 0 -27 3
-231 277 -173 234 -174 236 -83 285 13 7 124 73 245 145 122 73 224 133 227
133 3 0 11 -10 17 -22z m2872 -462 c0 -2 -26 -24 -57 -49 -298 -236 -484 -595
-528 -1021 -7 -65 -7 -302 0 -386 6 -86 16 -174 20 -190 2 -8 7 -35 10 -60 5
-36 32 -173 50 -250 12 -53 48 -188 70 -260 15 -47 28 -92 30 -100 8 -36 107
-307 160 -440 170 -426 484 -1079 648 -1345 134 -218 259 -395 390 -555 81
-98 301 -322 389 -395 33 -27 66 -55 73 -62 31 -30 253 -187 333 -236 176
-109 417 -232 587 -301 50 -20 99 -41 110 -46 23 -11 161 -54 220 -69 73 -19
215 -41 303 -47 48 -3 88 -7 90 -9 4 -3 -371 -191 -468 -235 -41 -18 -103 -46
-137 -62 -34 -15 -64 -28 -67 -28 -3 0 -35 -13 -71 -30 -36 -16 -68 -30 -71
-30 -3 0 -24 -8 -47 -19 -144 -64 -643 -250 -806 -300 -117 -36 -167 -49 -366
-96 -123 -29 -329 -67 -495 -91 -19 -3 -60 -9 -90 -14 -30 -6 -76 -12 -101
-15 -48 -4 -120 -13 -174 -20 -37 -5 -139 -16 -180 -20 -268 -24 -404 -24
-530 -1 -380 71 -704 315 -877 661 -69 136 -247 650 -388 1115 -34 113 -90
297 -125 410 -56 179 -169 557 -180 600 -2 8 -13 49 -24 90 -31 113 -72 272
-77 299 -3 14 -7 28 -9 31 -2 4 -7 22 -10 41 -3 19 -13 61 -22 94 -8 33 -17
74 -20 90 -2 17 -9 48 -15 70 -6 22 -12 51 -13 65 -1 14 -7 50 -13 80 -13 64
-19 103 -27 185 -3 33 -8 69 -10 80 -24 119 -25 779 -1 910 2 11 7 47 10 80
31 266 121 530 258 758 55 92 188 277 199 277 7 0 31 -37 264 -400 75 -118
157 -244 180 -280 23 -36 104 -162 180 -280 156 -243 182 -283 391 -607 82
-127 159 -249 172 -270 12 -21 76 -121 142 -223 65 -101 117 -186 116 -188 -2
-2 -31 8 -65 23 -236 99 -565 109 -781 23 -299 -118 -534 -474 -578 -873 -12
-113 -5 -322 14 -414 110 -536 458 -979 905 -1155 75 -29 108 -39 209 -62 57
-13 247 -13 303 0 32 7 59 13 60 13 5 -1 83 25 107 35 203 86 377 230 487 403
68 107 131 272 149 393 3 20 7 48 10 62 12 66 5 296 -12 400 -12 73 -15 87
-39 175 -52 190 -119 334 -249 530 -47 72 -90 135 -96 142 -5 7 -10 14 -10 16
0 2 -26 44 -58 93 -71 108 -681 1055 -702 1089 -22 36 -291 453 -419 650 -61
94 -124 193 -141 220 -17 28 -114 178 -215 335 -102 157 -185 290 -185 296 0
6 32 40 70 74 315 282 639 441 1085 534 113 23 151 30 235 42 19 3 46 7 60 9
14 2 52 7 85 10 33 4 71 8 85 11 14 2 72 7 130 10 58 4 106 7 107 8 4 3 53 5
53 2z m1014 -111 c39 -3 80 -8 91 -10 11 -2 40 -7 65 -10 207 -24 614 -211
835 -383 100 -78 107 -84 186 -165 73 -74 135 -149 174 -210 18 -28 16 -27
-56 15 -41 24 -81 47 -89 51 -8 4 -35 19 -60 33 -109 63 -287 148 -430 207
-115 47 -340 122 -357 119 -2 -1 -17 4 -35 9 -18 5 -46 12 -63 14 -16 3 -41 7
-55 10 -85 16 -139 20 -255 20 -71 0 -152 -4 -180 -8 -265 -40 -499 -190 -639
-409 -148 -232 -174 -561 -77 -940 48 -186 156 -487 244 -678 14 -30 45 -98
68 -150 46 -100 315 -636 414 -825 216 -412 252 -475 348 -620 58 -86 184
-257 223 -301 11 -12 35 -41 56 -65 92 -111 280 -287 398 -375 103 -76 125
-91 205 -139 298 -180 607 -275 909 -279 296 -5 525 71 669 221 113 118 197
270 265 476 l39 118 12 -42 c14 -45 14 -49 26 -119 8 -46 8 -199 1 -235 -40
-191 -148 -381 -272 -479 -114 -89 -270 -161 -441 -203 -92 -22 -134 -26 -278
-28 -170 -3 -222 3 -380 41 -74 19 -200 62 -271 94 -24 11 -45 20 -48 20 -15
0 -293 139 -386 192 -172 99 -384 249 -509 362 -400 359 -741 869 -1073 1606
-31 69 -68 152 -83 185 -223 492 -371 932 -435 1299 -18 102 -23 143 -36 266
-6 61 -5 278 1 332 20 158 55 295 105 405 81 178 242 362 390 446 82 46 232
101 308 113 20 3 40 8 44 10 3 2 53 7 110 10 56 4 104 7 105 8 4 4 145 -2 217
-9z m2982 -1162 c43 -43 104 -226 104 -311 0 -34 -3 -42 -19 -42 -41 0 -105
170 -118 313 -5 61 2 70 33 40z m-3358 -692 c142 -74 307 -368 376 -670 21
-90 17 -238 -7 -274 -39 -60 -102 -50 -182 28 -162 159 -311 507 -319 744 -4
98 6 136 41 169 30 27 43 27 91 3z m3369 -78 c-12 -98 -30 -149 -56 -158 -31
-10 -102 -89 -216 -240 -120 -161 -137 -179 -175 -190 -41 -12 -86 -51 -162
-142 -39 -47 -85 -93 -101 -102 -53 -29 -163 -105 -213 -148 -75 -63 -85 -73
-146 -145 -37 -42 -96 -92 -160 -136 -95 -64 -193 -121 -193 -111 0 2 -13 -5
-30 -17 -40 -28 -214 -111 -295 -140 -36 -13 -119 -36 -185 -51 -111 -24 -139
-26 -370 -28 -252 -1 -356 8 -426 38 -71 30 -233 230 -278 345 -25 64 -18 88
37 128 22 16 52 48 68 73 40 63 65 71 277 86 37 3 97 7 135 10 37 3 87 7 112
10 25 3 72 8 105 11 33 3 67 8 77 9 9 2 38 7 65 11 56 8 77 11 118 20 l30 6
-30 -23 c-78 -59 -121 -123 -110 -160 9 -27 29 -24 67 10 35 30 365 251 375
251 4 0 14 7 22 14 9 8 55 28 101 45 47 16 184 64 305 106 375 131 615 231
737 307 20 13 73 58 117 100 122 118 224 188 346 239 57 24 58 24 52 -28z
m-2853 -63 c87 -33 225 -255 276 -445 28 -102 36 -211 21 -258 -26 -79 -98
-62 -184 43 -68 83 -163 272 -181 362 -3 13 -8 34 -11 48 -12 50 -15 76 -15
130 0 63 6 88 28 113 17 19 30 21 66 7z m-2189 -1314 c138 -13 247 -52 358
-126 67 -45 217 -184 217 -201 0 -4 6 -14 14 -22 8 -8 32 -43 53 -78 161 -265
223 -583 163 -835 -11 -48 -24 -92 -29 -98 -5 -6 -12 -22 -16 -36 -9 -30 -84
-137 -117 -165 -103 -91 -235 -153 -330 -156 -269 -7 -593 227 -754 544 -31
61 -72 157 -79 182 -1 6 -4 17 -7 25 -32 89 -43 177 -42 330 1 115 6 148 28
225 26 87 90 221 121 251 8 8 20 23 27 32 51 69 143 115 253 128 28 4 52 8 53
9 2 2 9 2 15 0 7 -2 39 -6 72 -9z m3805 -176 c40 -79 40 -81 23 -104 -27 -37
-54 -51 -64 -35 -4 8 -30 48 -58 89 -27 41 -49 75 -48 76 5 4 102 54 104 54 2
0 21 -36 43 -80z m-189 -93 c45 -69 63 -104 55 -109 -7 -4 -35 -10 -63 -14
-48 -6 -52 -5 -69 22 -10 16 -38 53 -61 83 l-42 55 47 32 c26 18 52 33 57 33
6 1 40 -45 76 -102z m-272 -119 c-39 -74 -124 -178 -161 -199 -19 -10 -174
-44 -248 -54 -25 -3 -70 -10 -100 -15 -166 -27 -202 -28 -235 -2 -29 23 -111
117 -153 176 l-34 47 29 -6 c34 -7 416 -6 524 0 42 3 118 14 170 26 52 11 103
22 114 25 11 2 34 8 50 13 51 16 57 14 44 -11z"/>
<path d="M3059 3735 c-2 -2 -20 -5 -39 -7 -34 -5 -53 -11 -130 -45 -19 -8 -44
-19 -55 -23 -30 -12 -134 -59 -183 -82 -66 -31 -112 -106 -112 -183 0 -32 16
-86 44 -148 41 -91 66 -148 66 -152 0 -2 11 -28 24 -57 13 -29 38 -87 56 -128
42 -98 70 -133 125 -160 78 -38 127 -29 310 54 28 12 88 38 134 57 138 56 193
127 185 238 -2 29 -34 100 -105 239 -136 264 -164 314 -192 340 -23 22 -120
65 -128 57z m73 -345 c36 -69 87 -167 113 -218 29 -55 45 -96 39 -101 -5 -5
-54 -28 -109 -51 -55 -24 -129 -56 -164 -72 -35 -16 -67 -25 -72 -21 -4 4 -26
51 -49 103 -22 52 -45 104 -49 115 -5 11 -16 36 -24 55 -8 19 -27 62 -42 95
-50 113 -51 102 8 130 167 77 262 113 273 102 6 -7 41 -68 76 -137z"/>
</g>
</svg>
