<?xml version="1.0" standalone="no"?>
<!DOCTYPE svg PUBLIC "-//W3C//DTD SVG 20010904//EN"
 "http://www.w3.org/TR/2001/REC-SVG-20010904/DTD/svg10.dtd">
<svg version="1.0" xmlns="http://www.w3.org/2000/svg"
 width="384.000000pt" height="384.000000pt" viewBox="0 0 384.000000 384.000000"
 preserveAspectRatio="xMidYMid meet">
<metadata>
Created by potrace 1.11, written by Peter Selinger 2001-2013
</metadata>
<g transform="translate(0.000000,384.000000) scale(0.100000,-0.100000)"
fill="#000000" stroke="none">
<path d="M1770 3713 c-544 -74 -924 -282 -1265 -694 -34 -40 -131 -190 -168
-259 -96 -177 -176 -426 -201 -625 -16 -124 -14 -420 3 -500 6 -27 12 -63 15
-80 2 -16 13 -67 25 -112 152 -590 606 -1074 1187 -1269 106 -36 138 -43 289
-70 103 -18 367 -26 470 -14 140 17 162 21 255 45 505 127 939 471 1175 930
107 209 170 417 195 645 12 111 4 382 -14 485 -103 589 -473 1084 -1001 1340
-260 125 -475 176 -765 179 -96 1 -186 1 -200 -1z m326 -307 c403 -38 799
-260 1048 -591 152 -201 234 -389 290 -665 18 -91 25 -255 15 -367 -12 -126
-18 -162 -46 -268 -159 -605 -674 -1049 -1301 -1121 -121 -14 -340 -4 -462 21
-63 13 -117 28 -190 53 -507 174 -889 610 -996 1137 -26 128 -35 356 -19 462
4 26 9 62 11 78 28 231 165 526 338 730 259 306 640 505 1021 532 44 3 81 7
83 8 4 3 140 -3 208 -9z"/>
<path d="M1750 3120 c-124 -22 -257 -67 -357 -120 -90 -48 -173 -102 -173
-113 0 -4 10 -24 23 -45 186 -299 60 -708 -264 -859 -53 -25 -144 -50 -209
-57 -25 -3 -47 -5 -49 -5 -8 -2 10 -195 24 -266 45 -215 144 -413 292 -579
l41 -47 11 34 c43 129 236 151 301 34 45 -79 18 -188 -55 -227 -14 -7 -25 -16
-25 -20 0 -4 39 -27 88 -52 93 -48 249 -102 322 -113 24 -4 49 -9 54 -12 15
-10 298 -12 346 -3 25 4 63 11 85 14 22 4 58 12 80 18 22 6 45 12 50 14 39 9
163 62 225 96 262 143 489 406 575 668 10 30 20 60 22 67 3 7 -3 10 -16 6 -30
-8 -118 15 -175 45 -179 96 -231 343 -107 508 63 85 159 136 258 138 24 1 43
2 43 3 0 1 -12 35 -26 75 -107 299 -341 557 -634 696 -76 35 -189 76 -245 88
-11 2 -33 7 -50 10 -110 25 -326 26 -455 4z m920 -379 c49 -35 56 -116 14
-162 -26 -29 -81 -41 -118 -25 -50 21 -71 52 -70 102 2 93 97 140 174 85z
m-602 -118 c175 -100 101 -373 -101 -373 -125 0 -222 113 -203 235 8 49 52
114 94 138 70 41 138 41 210 0z m-43 -1207 c75 -49 62 -157 -22 -193 -31 -12
-41 -13 -72 -1 -50 19 -82 70 -75 117 7 41 18 57 57 81 33 21 77 19 112 -4z"/>
</g>
</svg>
