<svg id="Patrick_s_Business_Cards" data-name="Patrick&apos;s Business Cards" xmlns="http://www.w3.org/2000/svg" viewBox="0 0 320.98 320.98"><defs><style>.cls-1{fill:#fcd0a1;}</style></defs><title>cheese</title><g id="Cheese"><path class="cls-1" d="M310,204a43.48,43.48,0,0,1,0-87c1,0,1.93.08,2.89.15A155,155,0,0,0,70.5,36.85h0A75.65,75.65,0,0,1,85,81.48,76,76,0,0,1,9,157.5c0,1-.08,2-.08,3A154.52,154.52,0,0,0,53.9,269.61h0c1.58-15.25,19.59-25.62,36-13.09,11.25,14.81,4,30.81-8.69,35h0a155,155,0,0,0,231.62-87.72C311.89,203.89,310.94,204,310,204ZM164,246.23a13.9,13.9,0,1,1,13.9-13.9A13.9,13.9,0,0,1,164,246.23ZM164,117a25.48,25.48,0,1,1,25.48-25.48A25.48,25.48,0,0,1,164,117Zm82.65-37.42a13.93,13.93,0,0,1-16.73-16.73A13.79,13.79,0,0,1,240.29,52.5,13.93,13.93,0,0,1,257,69.23,13.79,13.79,0,0,1,246.65,79.59Z"/></g></svg>