<?xml version="1.0" encoding="utf-8"?>
<!-- Generator: Adobe Illustrator 20.1.0, SVG Export Plug-In . SVG Version: 6.00 Build 0)  -->
<svg version="1.1" id="Layer_1" xmlns="http://www.w3.org/2000/svg" xmlns:xlink="http://www.w3.org/1999/xlink" x="0px" y="0px"
	 viewBox="0 0 352.1 274" style="enable-background:new 0 0 352.1 274;" xml:space="preserve">
<style type="text/css">
	.st0{fill:#FFFFFF;}
</style>
<g>
	<path class="st0" d="M104.5,168.9c13,13.7,45.9,47.6,49.7,52.3c15.6,19.3,5.5,48-18.5,52.3c-10.9,1.9-19.9-2.1-27.4-10
		C84.9,239,18.6,169.7,8.9,159.4c-11.7-12.4-12-31.5-0.3-43.9C41.9,80.3,75.3,45.1,108.8,10.1c12-12.6,29.3-13.4,41.7-2.6
		c12.8,11.2,14.9,31.4,3.9,44.7c-7.3,8.8-40.6,43-50,52.8c2.9,0,145.7,0,215.2,0c14.4,0,25.5,7.4,30.3,20.2
		c4.9,12.9,1.4,27.4-8.9,36.5c-6.3,5.6-13.9,7.4-22.2,7.4C249.6,168.9,107.7,168.9,104.5,168.9z"/>
</g>
</svg>
