<svg xmlns="http://www.w3.org/2000/svg" viewBox="0 0 74.33 12.09"><defs>

	<style>
	.cls-1{fill:#70c1db;}
	.cls-2{font-size:4.99px;
	fill:#fcd0a1;font-family:RubikOne-Regular, Rubik One;}</style>

</defs><title>sky-button</title><g id="BUTTON_3" data-name="BUTTON 3"><path class="cls-1" d="M73.58,2.12H60.08l-.19,0A6,6,0,0,0,55.28,0H19.12a6,6,0,0,0-4.59,2.12H1a.75.75,0,1,0,0,1.5H13.59a6,6,0,0,0-.43,1.5H4.6a.75.75,0,0,0,0,1.5h8.5a6,6,0,0,0,.34,1.5H7.75a.75.75,0,0,0,0,1.5h6.48a6,6,0,0,0,4.88,2.49H55.28A6,6,0,0,0,60.16,9.6h6.67a.75.75,0,1,0,0-1.5H61a6,6,0,0,0,.34-1.5H70a.75.75,0,0,0,0-1.5H61.24a6,6,0,0,0-.43-1.5H73.58a.75.75,0,0,0,0-1.5ZM55.28,10.6H19.12a4.55,4.55,0,1,1,0-9.1H55.28a4.55,4.55,0,1,1,0,9.1Z"/><text class="cls-2" transform="translate(21.05 7.86)">Get Started</text></g></svg>