<svg id="Layer_1" data-name="Layer 1" xmlns="http://www.w3.org/2000/svg" viewBox="0 0 9.97 9.97"><defs><style>.cls-1{fill:none;}.cls-2{fill:#4d8993;}</style></defs><title>dots</title><path class="cls-1" d="M0,1.91V8.09A1.9,1.9,0,0,1,1.9,10H8.1A1.9,1.9,0,0,1,10,8.1V1.9A1.9,1.9,0,0,1,8.09,0H1.91A1.91,1.91,0,0,1,0,1.91Z"/><path class="cls-2" d="M0,1.91A1.91,1.91,0,0,0,1.91,0H0Z"/><path class="cls-2" d="M10,1.9V0H8.09A1.9,1.9,0,0,0,10,1.9Z"/><path class="cls-2" d="M8.1,10H10V8.1A1.9,1.9,0,0,0,8.1,10Z"/><path class="cls-2" d="M0,8.09V10H1.9A1.9,1.9,0,0,0,0,8.09Z"/></svg>