<svg id="Layer_1" data-name="Layer 1" xmlns="http://www.w3.org/2000/svg" viewBox="0 0 216 216"><defs><style>.cls-1{fill:#73cbcb;opacity:0.6;}.cls-2{fill:none;stroke:#576571;stroke-linecap:round;stroke-linejoin:round;stroke-width:4px;}</style></defs><title>icon-Sandwich</title><polygon class="cls-1" points="83.58 180.18 118.04 186.77 139.51 176.98 169.26 155.7 193.56 146.09 193.93 119.16 180.75 119.73 181.5 135.55 169.26 153.63 147.79 152.5 132.54 171.51 123.88 173.77 100.34 164.74 83.58 180.18"/><polygon class="cls-1" points="41.59 154.19 21.44 150.42 20.5 165.87 57.22 174.9 41.59 154.19"/><path class="cls-1" d="M20.82,107.25s0,3.11,0,6.92.05,3.83,5.65,5.08c9.46,2.12,73.87,14.41,82.06,16.24s16.31,2.26,22.17-1.69,36.23-27,38.84-29,3.74-1.34,8.47-2.26,15.32-3.74,16.81-8.9.33-18.8.33-18.8c-.82-6.62-8.23-18.71-55-25.69-48-7.16-74,3.34-75.89,8.94s.71,6.4.47,7.16-40,28.76-42.65,30.6-3.2,4.8,4.14,6.21,74,14.69,82.2,16.29,15.17,3.21,21.94-1.6c5.77-4.1,15.63-11.75,15.63-11.75"/><path class="cls-2" d="M145.16,106.76S167.24,91,169,89.69s1.79-1.69,6.4-2.07a42.87,42.87,0,0,0,13.14-3.75"/><path class="cls-2" d="M20,108.95s0,3.11,0,6.92.05,3.83,5.65,5.08c9.46,2.12,73.87,14.41,82.06,16.24s16.31,2.26,22.17-1.69,36.23-27,38.84-29,3.74-1.34,8.47-2.26,15.32-3.74,16.81-8.9.33-18.8.33-18.8c-.82-6.62-8.23-18.71-55-25.69-48-7.16-74,3.34-75.89,8.94s.71,6.4.47,7.16-40,28.76-42.65,30.6-3.2,4.8,4.14,6.21,74,14.69,82.2,16.29,15.17,3.21,21.94-1.6c5.77-4.1,15.63-11.75,15.63-11.75"/><path class="cls-2" d="M188.47,106.17c3.48,1.41,8.47,4.8-3,10s-4.14,9.7-4.9,15.82-5.65,5.37-6.4,10-.66,9.6-4.9,11.68-17-5.56-24.67.19-6.31,17.42-14.5,19.58-16.48-5-22-5.65"/><path class="cls-2" d="M122.94,150S99,163.4,86.59,176.79c-7.06,7.63-7.63,12-18.64,1.13s-29.28-27.78-39.55-36-7.53-8.76-4.14-15.07"/><path class="cls-2" d="M31.25,152.8s-8.16-3-9.89-3.53-1.27,1.88-1.48,6.92c-.37,8.84-.71,11.33,8.26,13.13,12.19,2.45,26.34,4.59,26.34,4.59"/><path class="cls-2" d="M90.64,181.5s11.35,2.35,18.83,4,13.65,2.45,23.82-5.08,28.53-20.81,28.53-20.81"/><path class="cls-2" d="M177.74,151.65c4-.85,15.07-4.24,16.29-7.81s.42-14,.28-17.23.55-6.16-2.37-8.09"/><path class="cls-2" d="M186.51,132c2.44-.88,6.57-3.25,7.8-5.4"/><path class="cls-2" d="M168.89,117.85s-1.91,13-3,17.23-3.46,7.27-5.79,6.78-5.34-6.54-20.81-6.4"/><path class="cls-2" d="M43,130.18c-.61,2.35,2.59,20.71,24.76,21.84s30.6-7.58,33.9-10.83"/><line class="cls-2" x1="57.88" y1="133.73" x2="55.47" y2="136.7"/><line class="cls-2" x1="69.67" y1="138.11" x2="68.4" y2="141.71"/><line class="cls-2" x1="82.03" y1="138.61" x2="82.45" y2="142.99"/></svg>