<svg id="Layer_1" data-name="Layer 1" xmlns="http://www.w3.org/2000/svg" viewBox="0 0 216 216"><defs><style>.cls-1{fill:#73cbcb;opacity:0.6;}.cls-2{fill:none;stroke:#576571;stroke-linecap:round;stroke-miterlimit:10;stroke-width:4px;}</style></defs><title>icon-</title><path class="cls-1" d="M122.67,200.18c-.87,1.21-26.38,1.08-27.92,0s-1.58-12.75,0-14,26.38-1,27.92,0S123.54,199,122.67,200.18Z"/><path class="cls-1" d="M91.52,157.38c-.33,6.23-10.07,5.59-10.66,0s-.6-65.77,0-72.22,10.07-5.37,10.66,0S91.86,151.14,91.52,157.38Z"/><path class="cls-1" d="M111.19,157.38c-.33,6.23-10.07,5.59-10.66,0s-.6-65.77,0-72.22,10.07-5.37,10.66,0S111.52,151.14,111.19,157.38Z"/><path class="cls-1" d="M130.86,157.38c-.33,6.23-10.07,5.59-10.66,0s-.6-65.77,0-72.22,10.07-5.37,10.66,0S131.19,151.14,130.86,157.38Z"/><path class="cls-2" d="M59.13,209.22h93.5c1.94,0,2.38-1.44,2.38-2.62s-.31-3.62-2.25-3.62H72c-1.44,0-2-.87-2-2.75s.13-18.5.13-19.87.5-2.12,2.25-2.12h61.5c.81,0,.75-1.06.75-2.12s.21-102.25.21-103.17-.25-1.58-1.58-1.58H132c-1.06,0-1.67-.1-1.67-3.29s-.73-2.54-2.79-2.54-1.75-1-1.75-2.37-.12-2-2.21-2-1.75-1.08-1.75-3.33.1-3.42-2.17-3.42-2-1.23-2-2.71.29-2.58-1.54-2.58h-4.94c-.91,0-1.19-.86-1.19-2.9s-.06-4.62-.06-5.94-3.77-.41-3.77-2.31V6.6"/><path class="cls-2" d="M138.75,178.85c1.13,0,2.83-.14,2.83,2.28v17.09"/><path class="cls-2" d="M122.67,198.6V185.85c0-1.21,0-2.08-2.08-2.08h-9.67c-1.58,0-2.73-.21-2.73,1.5V198.6"/><path class="cls-2" d="M103.63,183.76H93.13c-.73,0-1.54.28-1.54,1.88v13"/><path class="cls-2" d="M102.4,41c0,1.31-.06,3.16-.06,5.19s-.28,2.9-1.19,2.9H96.21c-1.83,0-1.54,1.1-1.54,2.58s.31,2.71-2,2.71-2.17,1.17-2.17,3.42.33,3.33-1.75,3.33-2.21.69-2.21,2,.31,2.38-1.75,2.38S82,64.87,82,68.06s-.6,3.29-1.67,3.29H79.08c-1.33,0-1.58.67-1.58,1.58v99.19"/><path class="cls-2" d="M125.48,161.81V82c0-2.92-2.42-2.33-5.5-2.33s-4.33.21-4.33,2.33v77.45c0,2.92-2.42,2.33-5.5,2.33s-4.33-.21-4.33-2.33V82c0-2.92-2.42-2.33-5.5-2.33S96,79.85,96,82v77.45c0,2.92-2.42,2.33-5.5,2.33s-4.33-.21-4.33-2.33V79.6"/></svg>