<svg id="Layer_1" data-name="Layer 1" xmlns="http://www.w3.org/2000/svg" viewBox="0 0 216 216"><defs><style>.cls-1{fill:#73cbcb;opacity:0.6;}.cls-2{fill:none;stroke:#576571;stroke-linecap:round;stroke-miterlimit:10;stroke-width:4px;}</style></defs><title>icon-</title><path class="cls-1" d="M99.7,194.15c-.67,8.41-20.25,7.54-21.43,0s-1.22-88.7,0-97.39,20.25-7.25,21.43,0S100.38,185.74,99.7,194.15Z"/><path class="cls-1" d="M143.51,194.15c-.67,8.41-20.25,7.54-21.43,0s-1.22-88.7,0-97.39,20.25-7.25,21.43,0S144.18,185.74,143.51,194.15Z"/><path class="cls-2" d="M120.63,79.43V18.35c0-3.78,2.68-5.08,4.6-5.08l70.53,0c6.63,0,6.63,1.94,6.63,6.25V210c0,2.44-1.06,3.52-3.87,3.52H71c-3.92,0-5.26-.57-5.26-3.4V89.35c0-2,.6-4.61,6-4.61h72.62c4.76,0,9.9-.83,9.9,6.11v117.5"/><path class="cls-2" d="M162.68,31.28h31.55c.87,0,1,1.65,1,5.71s.24,7.25-1,7.25H162.56c-.87,0-1,1.65-1,5.71s-.24,7.25,1,7.25H194.1c.87,0,1,1.65,1,5.71s.24,7.25-1,7.25H162.56c-.87,0-1,1.65-1,5.71s-.24,7.25,1,7.25H194.1c.87,0,1,1.65,1,5.71s.24,7.25-1,7.25H162.56c-.87,0-1,1.65-1,5.71s-.24,7.25,1,7.25H194.1c.87,0,1,1.65,1,5.71s.24,7.25-1,7.25H162.56c-.87,0-1,1.65-1,5.71s-.24,7.25,1,7.25H194.1c.87,0,1,1.65,1,5.71s.24,7.25-1,7.25H162.56c-.87,0-1,1.65-1,5.71s-.24,7.25,1,7.25H194.1c.87,0,1,1.65,1,5.71s.24,7.25-1,7.25H162.56"/><path class="cls-2" d="M78.24,198.9V93.9c0-2.88,2.71-3.16,9.39-3.16s11.91-.79,11.91,3.16v105c0,2.88,2.71,3.16,9.39,3.16s11.91.79,11.91-3.16V93.9c0-2.88,2.71-3.16,9.39-3.16s11.91-.79,11.91,3.16V202.13"/><path class="cls-1" d="M189,209.55c-.63,2.36-19,2.11-20.06,0s-1.14-24.88,0-27.32,19-2,20.06,0S189.67,207.19,189,209.55Z"/><path class="cls-2" d="M188.5,209V184c0-2-.05-3.4-2.71-3.4H173.22c-2.06,0-3.55-.34-3.55,2.45v26"/><path class="cls-2" d="M60.5,212.84H20.17c-2.5,0-5.92-.93-5.92-6.74V56.25c0-4,2.13-4.4,4-4.4H61.5c2.5,0,3.17-1.37,3.17-2.92V42.87c0-1.73-1.31-3.19-4-3.19H23.42c-1.87,0-3.5-.21-3.5-2a2.85,2.85,0,0,1,3.17-3.08H44.33c.58,0,1.25-.54,1.25-3.08V4.22"/><path class="cls-2" d="M69.16,51.43c1.25,0,4.17.31,4.17,3.95V80.43"/><path class="cls-2" d="M24,59.77v132.1c0,2.42-.25,7,3.75,7H42.33c3.67,0,3.33-2.62,3.33-4.35V181.75c0-2.06-1.5-3.76-4.21-3.76H30.84c-1.4,0-1.25-2.39-1.25-3.54s-.3-4,1.42-4v0H42.33c3.67,0,3.33-2.62,3.33-4.35V153.38c0-2.06-1.5-3.76-4.21-3.76H30.84c-1.4,0-1.25-2.39-1.25-3.54s-.3-4,1.42-4c4,0,7.67-.09,11.33-.09s3.33-2.62,3.33-4.35V124.88c0-2.06-1.5-3.76-4.21-3.76H30.84c-1.4,0-1.25-2.39-1.25-3.54s-.3-4,1.42-4v0H42.33c3.67,0,3.33-2.62,3.33-4.35V96.51c0-2.06-1.5-3.76-4.21-3.76H30.84c-1.4,0-1.25-2.39-1.25-3.54s-.3-4,1.42-4c0,0,7.67.14,11.33.14S45.67,82.7,45.67,81V68.22c0-2.06-1.5-3.76-4.21-3.76H29.08"/></svg>