<svg id="Layer_1" data-name="Layer 1" xmlns="http://www.w3.org/2000/svg" viewBox="0 0 216 216"><defs><style>.cls-1{fill:#73cbcb;opacity:0.6;}.cls-2,.cls-3{fill:none;stroke:#576571;stroke-linecap:round;}.cls-2{stroke-miterlimit:10;stroke-width:4px;}.cls-3{stroke-linejoin:round;stroke-width:4.03px;}</style></defs><title>icon-</title><path class="cls-1" d="M103.71,42.29c.92-1.67,11.5-25.17,36.67-24.83s27.69,12.41,64.33,10.92c.66,0-8.46,13.46-24.58,13.58-15.47.12-19.5-7.63-41.12-8s-28.69,4.87-28.69,4.87"/><path class="cls-2" d="M100.31,41.29c.92-1.67,11.5-25.17,36.67-24.83s27.69,12.41,64.33,10.92c.66,0-8.46,13.46-24.58,13.58-15.47.12-19.5-7.63-41.12-8s-28.29,5.67-28.29,5.67"/><path class="cls-2" d="M167.75,189.67l-147.64.21c-2.94,0-2.37-1.75-2.37-3.37s-.19-4.25,2.88-4.25H156.82a2.33,2.33,0,0,0,2.67-2.58c0-2.29-.33-61.67-.33-65s-.75-2.36-2.5-2.33c-2.92,0-36.67-.15-38.92-.15s-2.58-1.35-2.58-3.18S114,63.13,114,61.25s.46-2.67,2.08-2.67,1.75-1,1.75-2.92V51.5c0-1.25-.54-1.25-2.67-1.25H90.57c-1.67,0-2.67-.08-2.67,3.5s-.21,4.33,1.92,4.33,2.33.25,2.33,2.33-1,48.58-1,50.71-2.62,1.54-4.37,1.54-4.42.83-4.42-2,.17-81.48.17-83.67-.06-2.12-2.5-2.12H51c-1.87,0-2.44.63-2.44,2.44s-.06,149.94-.06,149.94"/><path class="cls-2" d="M22.32,177.56V146.5c0-6.17,5-15.87,13.17-15.87h8c.84,0,.53,8-.2,8-1.75.1-6.57-1.33-10.26,2.29-1.74,1.71-3.12,4.06-3.19,11.56s-.25,25.06-.25,25.06"/><rect class="cls-1" x="62.82" y="129.17" width="21.33" height="11.83"/><rect class="cls-1" x="91.23" y="129.17" width="21.33" height="11.83"/><rect class="cls-1" x="119.65" y="129.17" width="21.33" height="11.83"/><path class="cls-3" d="M74.55,113.56H56.32c-2.81,0-2.75-10,0-10H74.55c2.81,0,2.75-10,0-10H56.32c-2.81,0-2.75-10,0-10H74.55c2.81,0,2.75-10,0-10H56.32c-2.81,0-2.75-10,0-10H74.55c2.81,0,2.75-10,0-10H56.32c-2.81,0-2.75-10,0-10H73.48c2.75,0,2.81-10,0-10H54.23"/><path class="cls-3" d="M84.15,134.63c0-5.09-.68-6.37-4.43-6.37H67.25c-3.75,0-4.43,1.28-4.43,6.38S63.5,141,67.25,141H79.71C83.46,141,84.15,139.72,84.15,134.63Z"/><path class="cls-3" d="M112.57,134.63c0-5.09-.68-6.37-4.43-6.37H95.67c-3.75,0-4.43,1.28-4.43,6.38s.68,6.38,4.43,6.38h12.46C111.88,141,112.57,139.72,112.57,134.63Z"/><path class="cls-3" d="M141,134.63c0-5.09-.68-6.37-4.43-6.37H124.08c-3.75,0-4.43,1.28-4.43,6.38s.68,6.38,4.43,6.38h12.46C140.3,141,141,139.72,141,134.63Z"/></svg>