<svg id="Layer_1" data-name="Layer 1" xmlns="http://www.w3.org/2000/svg" viewBox="0 0 216 216"><defs><style>.cls-1{fill:#73cbcb;opacity:0.6;}.cls-2{fill:none;stroke:#576571;stroke-linecap:round;stroke-linejoin:round;stroke-width:4px;}</style></defs><title>icon-Indiana with Heart</title><path class="cls-1" d="M111.36,110.13s14.76-5.79,17.84-19.18c2.64-11.47-7.88-9.37-12.74-4.58-1.94,1.92-.93,2.86-2.59-.09C110,79.47,99.09,78.36,103.26,93a49.67,49.67,0,0,0,7.64,16.13"/><path class="cls-2" d="M111.55,109.45s14.76-5.79,17.84-19.18c2.64-11.47-7.88-9.37-12.74-4.58-1.94,1.92-.93,2.86-2.59-.09-3.84-6.81-14.77-7.93-10.59,6.75a49.67,49.67,0,0,0,7.64,16.13"/><path class="cls-2" d="M64,10.42s4.36,4.36,8.41,4.39c6.22.05,14.83-5.09,16-5.81a8.42,8.42,0,0,1,4.44-1h71.57c.3,0,.38.17.38.4s.94,108.83,1.1,128.3"/><path class="cls-2" d="M166,138.06c0,.89,0,1.38,0,1.4a1.06,1.06,0,0,1-.52.89c-.29.24-2.22,1.44-2.24,1.87s2.64,2.83,2.64,4.23c0,.59-2.11,2.41-2,2.84s2.27.1,3.32,1-.14,1.91-.6,2.35-.79.71-.45,1.42.6,1.62.3,1.78-.94.18-2-.28a2.41,2.41,0,0,0-2.4.58c-.3.27-1.79,0-2.49.18s-6.11,4.62-7.35,4.62a2.7,2.7,0,0,1-2.36-1.29c-.59-.74-.85-1.43-2-1.36s-2,.43-2.72.45-1.67-.45-2.3-.29a2.22,2.22,0,0,0-1.3,2.07c.14.76.86.7.86,2.66s1.07,2.74,1.07,4.13-.38,1.58-1.15,2-1.15.3-1.71,1.92-2.53,1.61-3.17,1.61-2.13,0-2.5,2.43-.37,3.72-1.77,5-2.39,1.81-3,1.81-1.24-1-2.1-1-1,.74-1,1.67-1,1.68-1.52,2.14a2.88,2.88,0,0,0-1.28,2.68,49.13,49.13,0,0,1-.3,5.34,2.64,2.64,0,0,1-2.24,2.29c-1.08.05-1.39,0-1.88,0s-.65.16-.65.64.07,1.41-.39,1.41c-1.32,0-1.91-2.91-3.5-2.79a10.11,10.11,0,0,1-1.53.28c-.76,0-1.61-.41-2.93-1.49s-1.91-1.75-1.91-2.48,0-1,0-1.32.42-.66.42-1-.4-1-1.51-1.8-.9-1.48-2-1.26c-.45.09-.05,1.15.9,1.22a1.19,1.19,0,0,1,1.15,1.53,1.14,1.14,0,0,1-1.18.79c-.61,0-.88-.48-1.17-.4s-.47,1.59-.9,1.59-1.26-1.87-2-1.2.93,1.17,1,1.56a2,2,0,0,1-.22,1.41,2.85,2.85,0,0,1-1.51.84h-1.4a.56.56,0,0,0-.55.61c0,.36,0,2.63,0,3.13s.87,1,.87,1.56a1.37,1.37,0,0,1-1.47,1.3c-1,0-1-.63-1.64-.63s-.87.53-.87,1.37a2.62,2.62,0,0,1-.77,2.39c-.82.6-1.93.53-2.16-.24s.48-1.46.6-1.75.09-1.27-.68-1.2-1.3,1.18-2,1.18-1.61-1.5-2.13-2.74-.69-2.22-1.16-2.46-1.39.13-2.36,1.11-1.62,1.93-2.25,1.94a6,6,0,0,0-2.51.29c-.88.4-1.84.58-2,3.12s-1.45,4-2.74,4-1.72-2.93-2.43-2.94A4.26,4.26,0,0,1,71,201.46a11,11,0,0,0-2.93-2.11,4,4,0,0,1-1.52-1,3.67,3.67,0,0,0-2.21-1c-.9,0-2.46,1.93-3.36,1.93a4,4,0,0,1-2.58-2c0-.47-.06-1.79-.56-1.79s-.18,1.39-.35,1.55-.94.57-.94.91,1.72,1.37,1.72,2.62a2.77,2.77,0,0,1-2.66,2.59,1.76,1.76,0,0,1-1.94-1.54c0-.5,1.27-1.85.87-2.17s-3.09.11-3.73.56-.88.69-1.58.69a2,2,0,0,1-1.56-.89c-.38-.48-1.34-2-1.71-2s-1.53,1.33-1.55,1.86,1.49,1.73,1.39,2.85-.87,1.27-1.18,1.65-.55,1.43-1.09,1.43-1.49-1.47-2-1.55a6.89,6.89,0,0,0-1.11,0c-.11,0-.4-.38-.51-.36s-.48.5-.82.5a2.77,2.77,0,0,1-1.4-1.45.89.89,0,0,1,1-.85c.74,0,1.08.36,1.28.22s-1.08-.91-1.57-1.67-1.12-1.84-.69-2.12a1.06,1.06,0,0,1,1.35.12c.38.36,1.08.63,1.23.43s-1.52-1-1.51-1.25.11-1.1,1.22-.59c.1,0,.19,0,0-.42s-.07-.84.13-.9.87-.25.86-.57-.47-.66-.56-1.44.1-1.17-.06-1.27-.69-.39-.61-.89.56-.77,1.35-.69a2,2,0,0,0,1.62-.49c.22-.24.5-.71.4-.81s-.53.4-1.22.42a.95.95,0,0,1-.3-1.87c.63-.14.78,0,.93-.12s0-.69.38-.94,1.09.07,1.26-.17.3-.81-.48-1.56-1.38-1.32-1.45-1.87-.2-2.6.3-2.82.64.75.85.64-.16-1.65.55-2.35a1,1,0,0,1,1.17-.28c.37.18.47,1.32.8,1.34s.16-1.87,1.11-1.78c.61.06.76.5.78,1,0,.28-.06,1.13.36.52s.2-1.13.25-1.79a2.37,2.37,0,0,1,.93-1.73c.64-.58,2.41-1.64,2.54-2.53s.13-1.48-.16-1.74a1.24,1.24,0,0,1-.17-1.2c.13-.3.36-.72,1.92-.78.72,0,1.11-1,1.37-1s.83,0,1-.13-1.09-.91-1-1.58,1.42-1.82,1.81-2.81-.19-1.85,1-3,2.47-1,2.93-1.24,0-1.24.54-1.69a2.14,2.14,0,0,0,.57-1.47,5.47,5.47,0,0,0-.62-2.81c-.41-.39-.18-1.81-.35-2s-.79-.27-.62-1.66.53-.52.94-2.16,0-2.2-1.15-2.68-.94-1.21-.87-2.12.35-1.67-.62-2.63c-1.61-1.57-2.41-1.79-2.39-3s.43-1.43,1.56-2.46,1.48-1.18,1.61-1.77-.51-1.61-.87-2.39c-.87-1.91-.43-2.27.47-2.91,1.2-.85,1.95-.81,2.22-1.47s1.77-83.13,2.23-108.83"/></svg>