<svg id="Layer_1" data-name="Layer 1" xmlns="http://www.w3.org/2000/svg" viewBox="0 0 216 216"><defs><style>.cls-1{fill:#73cbcb;opacity:0.6;}.cls-2,.cls-3{fill:none;stroke:#576571;stroke-linecap:round;stroke-width:4px;}.cls-2{stroke-miterlimit:10;}.cls-3{stroke-linejoin:round;}</style></defs><title>icon-Newspaper</title><polyline class="cls-1" points="67.87 109.06 63.13 109.06 63.13 84.68 120.02 84.68 120.02 109.06 72.79 109.06"/><path class="cls-2" d="M47.4,186.47h112a12,12,0,0,0,12-12v-139c0-7.89-4.5-11.1-10.58-11.1H56.14c-6.33,0-9.75,3.33-9.75,11.11v139a12,12,0,0,1-24,0h0v-124c0-10.87,11.86-11.37,11.86.75V174.39"/><polyline class="cls-3" points="67.87 108.19 63.13 108.19 63.13 81.22 120.02 81.22 120.02 108.19 72.79 108.19"/><path class="cls-3" d="M63.5,61.6V44.85c0-2.75.71-4.51,3.5-.12s7.54,12.4,9.29,14.46S79,60.16,79,56.6v-16"/><path class="cls-3" d="M99.17,41.47H90c-1.75,0-2.75.38-2.75,3.33v13c0,2,.17,3.08,3.17,3.08h9.25"/><line class="cls-3" x1="97.92" y1="51.06" x2="87.75" y2="51.06"/><path class="cls-3" d="M106.17,41.56s4.21,12.63,5.5,15.75,2.42,2.08,3.42-.75,3.29-10.29,3.83-12,1.63-1.5,2.75,2.25,3.17,9.75,3.83,11.42,1.88,1.54,3.08-1.67,5.17-14.75,5.17-14.75"/><path class="cls-3" d="M150.75,43.06c-1.12-.71-10.08-3.72-11.08,2.58-.58,3.67,2.71,4.67,6.58,5.67s6.25,2.46,5.75,5.33-3.29,4.5-6,4.5-6.46-2.33-7.67-3.17"/><line class="cls-3" x1="63.07" y1="118.64" x2="120.07" y2="118.64"/><line class="cls-3" x1="63.07" y1="128.22" x2="120.07" y2="128.22"/><line class="cls-3" x1="63.07" y1="137.81" x2="120.07" y2="137.81"/><line class="cls-3" x1="63.07" y1="147.39" x2="120.07" y2="147.39"/><line class="cls-3" x1="63.07" y1="156.97" x2="120.07" y2="156.97"/><line class="cls-3" x1="63.07" y1="166.56" x2="120.07" y2="166.56"/><line class="cls-3" x1="132.24" y1="109.06" x2="158.67" y2="109.06"/><line class="cls-3" x1="132.24" y1="118.64" x2="158.67" y2="118.64"/><line class="cls-3" x1="132.24" y1="128.22" x2="158.67" y2="128.22"/><line class="cls-3" x1="132.24" y1="137.81" x2="158.67" y2="137.81"/><line class="cls-3" x1="132.24" y1="80.39" x2="158.67" y2="80.39"/><line class="cls-3" x1="132.24" y1="89.97" x2="158.67" y2="89.97"/><line class="cls-3" x1="132.24" y1="99.56" x2="158.67" y2="99.56"/><line class="cls-3" x1="132.24" y1="147.39" x2="158.67" y2="147.39"/><line class="cls-3" x1="132.24" y1="156.97" x2="158.67" y2="156.97"/><line class="cls-3" x1="132.24" y1="166.56" x2="158.67" y2="166.56"/></svg>