<svg id="Layer_1" data-name="Layer 1" xmlns="http://www.w3.org/2000/svg" viewBox="0 0 216 216"><defs><style>.cls-1{fill:#73cbcb;opacity:0.6;}.cls-2{fill:none;stroke:#576571;stroke-linecap:round;stroke-miterlimit:10;stroke-width:4px;}</style></defs><title>icon-</title><path class="cls-1" d="M119.88,76.4a10.49,10.49,0,0,1,14.88-.5c5,4.71,4.16,11,.5,14.88s-10.86,4.26-14.88.5-4.33-8-3-10.75"/><path class="cls-1" d="M149.75,149c1.28,0,3.84-.48,3.84,2.91v39c0,1.42,0,2.28-2.35,2.28H136.53c-1.67,0-1.64-.93-1.64-2.58v-39c0-2-.23-2.62,2.06-2.62h8.85"/><path class="cls-2" d="M50.5,36.58V18.77c0-1.33.33-2.17,2.5-2.17h67.44c1.42,0,1.92.67,1.92,1.67s1.21,19.92,21.08,19.92c.66,0,.4-2.21.4-4.8s-.43-16.78.05-16.78h17.69c1.58,0,1.46.17,1.46,1.46V200.47c0,.94.5,1.4-1.4,1.4H51.88c-.81,0-.87-.55-.87-2.21V66.27c0-1.58.13-2.92-1.92-2.92S27.92,62.77,27.92,42.1c0-.65.85-.46,2.29-.46H50.5"/><path class="cls-2" d="M157.5,111.4H88.73c-1.42,0-1.92.67-1.92,1.67S85.6,133,65.73,133c-.66,0-.4-2.21-.4-4.8s.43-16.78-.05-16.78h-9"/><path class="cls-2" d="M99.19,164.34a15.49,15.49,0,0,1,1.37,6.38,16.47,16.47,0,0,1-1.37,6.5"/><path class="cls-2" d="M94.77,164.63a19.8,19.8,0,0,1,.75,5.88c0,3.69-.28,6.78-.75,6.94s-8.43.27-9-.23-1.09-2.78-1.25-6.44c-.1-2.31.22-5.28.94-5.87S93,163.38,94.77,164.63Z"/><path class="cls-2" d="M62.34,193.47c-1.5,0-4.5.5-4.5-3v-40c0-1.46,0-2.34,2.75-2.34H77.84c2,0,1.92,1,1.92,2.64v40.07c0,2,.27,2.69-2.42,2.69H67"/><path class="cls-2" d="M104.18,35c0,1,.52,2.09-3.13,2.09H58.94c-1.53,0-2.46,0-2.46-1.92v-12c0-1.37,1-1.34,2.78-1.34h42.12c2.13,0,2.82-.19,2.82,1.69v6.7"/><path class="cls-2" d="M154.29,95.54a15.49,15.49,0,0,1-3.38,5.58,16.47,16.47,0,0,1-5.47,3.78"/><path class="cls-2" d="M150.88,92.71a19.8,19.8,0,0,1-3.49,4.78c-2.53,2.68-4.87,4.73-5.31,4.52s-6.31-5.59-6.35-6.32,1.12-2.77,3.52-5.53c1.52-1.75,3.79-3.69,4.72-3.62S150.47,90.6,150.88,92.71Z"/><path class="cls-2" d="M124.88,50.11a15.49,15.49,0,0,1,6.52,0,16.47,16.47,0,0,1,6.08,2.69"/><path class="cls-2" d="M124.25,54.49a19.8,19.8,0,0,1,5.9.48c3.61.76,6.58,1.67,6.63,2.16s-1.47,8.3-2.07,8.72-2.95.5-6.56-.1c-2.28-.38-5.12-1.3-5.56-2.13S122.67,55.95,124.25,54.49Z"/><path class="cls-2" d="M96.05,93a15.49,15.49,0,0,1-2.22-6.13,16.47,16.47,0,0,1,.49-6.63"/><path class="cls-2" d="M100.39,92.14a19.8,19.8,0,0,1-1.53-5.72c-.5-3.65-.63-6.76-.19-7s8.31-1.41,8.91-1,1.46,2.61,2.1,6.21c.41,2.28.49,5.26-.14,5.95S102.29,93.15,100.39,92.14Z"/><path class="cls-2" d="M115.46,177.26a15.49,15.49,0,0,1-1.37-6.37,16.47,16.47,0,0,1,1.38-6.5"/><path class="cls-2" d="M119.88,177a19.8,19.8,0,0,1-.75-5.87c0-3.69.28-6.78.75-6.94s8.43-.27,9,.23,1.09,2.78,1.25,6.44c.1,2.31-.22,5.28-.94,5.88S121.63,178.22,119.88,177Z"/><path class="cls-2" d="M152.31,148.12c1.5,0,4.5-.5,4.5,3v40c0,1.46,0,2.34-2.75,2.34H136.81c-2,0-1.92-1-1.92-2.64V150.79c0-2-.27-2.69,2.42-2.69h10.38"/><path class="cls-2" d="M118,74.47a10.49,10.49,0,0,1,14.88-.5c5,4.71,4.16,11,.5,14.88s-10.86,4.26-14.88.5-4.33-8-3-10.75"/></svg>