<?xml version="1.0" encoding="UTF-8"?>
<svg width="1920px" height="1080px" viewBox="0 0 1920 1080" version="1.1" xmlns="http://www.w3.org/2000/svg" xmlns:xlink="http://www.w3.org/1999/xlink">
    <!-- Generator: Sketch 49.3 (51167) - http://www.bohemiancoding.com/sketch -->
    <title>Deep Space</title>
    <desc>Created with Sketch.</desc>
    <defs></defs>
    <g id="Artwork" stroke="none" stroke-width="1" fill="none" fill-rule="evenodd">
        <g id="Blog-Scene---Rocket-Shooting-at-the-Moon">
            <g id="Deep-Space" transform="translate(-92.000000, -67.000000)">
                <path d="M35.5,1208 C360.717793,1208 1793.94598,1198.15332 2068,1208 C2092.26271,1208.87175 2074.34172,36.0249812 2068,36.1953125 C1987.46638,38.3583526 116.651809,-4.99269149 35.5,1.5 C-11.5,805.833333 -11.5,1208 35.5,1208 Z" id="Path-4224" fill="#424C59"></path>
                <path d="M178.960938,896.757812 C202.000458,910.526152 190.005526,898.574568 183.039062,897.605469" id="Path-4105" stroke="#979797" stroke-width="5" stroke-linecap="round" stroke-linejoin="round"></path>
                <path d="M765.988281,996.175781 C764.137003,1001.44381 769.535128,1004.16144 772.777344,998.378906 C776.342715,992.02002 771.56436,989.591415 768.222656,993.46875" id="Path-4142" stroke="#979797" stroke-width="5" stroke-linecap="round" stroke-linejoin="round"></path>
                <path d="M754.824219,1053.23047 C753.372565,1064.68127 764.34409,1053.4233 757.101563,1051.17969" id="Path-4143" stroke="#979797" stroke-width="5" stroke-linecap="round" stroke-linejoin="round"></path>
                <path d="M788.96875,1082.64453 C787.009444,1093.63551 801.618744,1082.14686 789.226562,1079.20312" id="Path-4144" stroke="#979797" stroke-width="5" stroke-linecap="round" stroke-linejoin="round"></path>
                <path d="M653.464844,1098.10547 C651.681358,1107.96097 662.82034,1095.85531 654.664062,1098.60938" id="Path-4145" stroke="#979797" stroke-width="5" stroke-linecap="round" stroke-linejoin="round"></path>
                <path d="M496.828125,1125.16406 C499.120156,1133.335 509.370935,1128.48355 499.964844,1123.8125" id="Path-4146" stroke="#979797" stroke-width="5" stroke-linecap="round" stroke-linejoin="round"></path>
                <path d="M437.902344,936.570312 C437.558594,943.03776 435.898652,949.569501 436.871094,955.972656 C438.175274,964.560181 458.124487,941.358338 438.417969,939.546875" id="Path-4147" stroke="#979797" stroke-width="5" stroke-linecap="round" stroke-linejoin="round"></path>
                <path d="M465.777344,946.621094 C464.741812,952.904888 472.789861,952.644686 475.09375,947.625 C477.585738,942.195486 471.304742,939.205413 466.632813,946.503906" id="Path-4148" stroke="#979797" stroke-width="5" stroke-linecap="round" stroke-linejoin="round"></path>
                <path d="M496.785156,961.539062 C492.44806,963.880488 492.616294,972.912885 497.988281,969.15625 C499.383531,968.180551 500.591806,964.060389 498.890625,964.128906" id="Path-4149" stroke="#979797" stroke-width="5" stroke-linecap="round" stroke-linejoin="round"></path>
                <path d="M458.902344,995.054688 C453.021347,1008.35949 473.243571,995.549383 459.589844,994.125" id="Path-4150" stroke="#979797" stroke-width="5" stroke-linecap="round" stroke-linejoin="round"></path>
                <path d="M401.652344,985.003906 C411.972944,987.507677 408.676393,979.726437 405.347656,984.230469" id="Path-4151" stroke="#979797" stroke-width="5" stroke-linecap="round" stroke-linejoin="round"></path>
                <path d="M454.824219,1019.71484 C456.444465,1034.58429 460.289899,1024.34162 454.953125,1021.22266" id="Path-4152" stroke="#979797" stroke-width="5" stroke-linecap="round" stroke-linejoin="round"></path>
                <path d="M1071.91797,287.449219 C1039.17189,296.923579 1100.59598,311.533281 1072.82031,287.332031 L1071.91797,287.449219 Z" id="Path-4153" stroke="#979797" stroke-width="5" stroke-linecap="round" stroke-linejoin="round"></path>
                <path d="M1057.74219,286.636719 C1045.31839,293.813272 1043.06713,309.256128 1058.73047,315.859375 C1079.2397,324.505519 1101.95914,300.417084 1081.19531,282.425781" id="Path-4154" stroke="#979797" stroke-width="5" stroke-linecap="round" stroke-linejoin="round"></path>
                <path d="M1058.17188,282.074219 C1041.09352,277.967894 1040.73898,290.117784 1048.125,288.339844" id="Path-4155" stroke="#979797" stroke-width="5" stroke-linecap="round" stroke-linejoin="round"></path>
                <path d="M1027.12109,977.621094 C1013.78421,983.564482 1015.51613,987.814981 1013.89453,981.449219" id="Path-4156" stroke="#979797" stroke-width="5" stroke-linecap="round" stroke-linejoin="round"></path>
                <path d="M1022.01172,1071.08594 C1039.73487,1080.92477 1020.95455,1089.10537 1017.62891,1083.03125" id="Path-4157" stroke="#979797" stroke-width="5" stroke-linecap="round" stroke-linejoin="round"></path>
                <path d="M1088.88281,1082.02734 C1084.32007,1091.39544 1092.66602,1084.75571 1088.10937,1081.09766" id="Path-4158" stroke="#979797" stroke-width="5" stroke-linecap="round" stroke-linejoin="round"></path>
                <path d="M1097.08594,1083.07031 C1099.0612,1085.19661 1100.45275,1088.0801 1103.01172,1089.44922 C1109.03615,1092.67245 1107.27361,1076.29145 1100.13672,1085.54297" id="Path-4159" stroke="#979797" stroke-width="5" stroke-linecap="round" stroke-linejoin="round"></path>
                <path d="M1321.75391,1090.68359 C1320.37945,1101.71772 1336.59231,1097.99699 1324.32813,1091.65234" id="Path-4160" stroke="#979797" stroke-width="5" stroke-linecap="round" stroke-linejoin="round"></path>
                <path d="M558.460938,1010.08984 C558.688577,1016.43892 558.69904,1019.54181 563.226562,1013.53125" id="Path-4161" stroke="#979797" stroke-width="5" stroke-linecap="round" stroke-linejoin="round"></path>
                <path d="M500.90625,1083.92188 C504.405032,1088.92014 504.435908,1088.25113 510.011719,1085.50391" id="Path-4162" stroke="#979797" stroke-width="5" stroke-linecap="round" stroke-linejoin="round"></path>
                <path d="M246.820312,339.710938 C249.845473,347.802156 253.152335,348.976256 259.535156,343.074219" id="Path-4163" stroke="#979797" stroke-width="5" stroke-linecap="round" stroke-linejoin="round"></path>
                <path d="M262.28125,327.1875 C269.513345,327.474603 272.778177,329.176507 272.933594,321.695312" id="Path-4164" stroke="#979797" stroke-width="5" stroke-linecap="round" stroke-linejoin="round"></path>
                <path d="M286.71875,279.0625 C291.889664,279.188726 291.192253,280.714065 291.53125,277.59375" id="Path-4165" stroke="#979797" stroke-width="5" stroke-linecap="round" stroke-linejoin="round"></path>
                <path d="M198.246094,272.761719 C191.574837,284.760333 198.678153,280.172015 198.933594,274.886719" id="Path-4166" stroke="#979797" stroke-width="5" stroke-linecap="round" stroke-linejoin="round"></path>
                <path d="M788.789062,155.527344 C767.957588,161.774355 812.245269,162.999241 789.046875,153.671875" id="Path-4178" stroke="#979797" stroke-width="5" stroke-linecap="round" stroke-linejoin="round"></path>
                <path d="M782.003906,173.269531 C764.052198,181.395544 782.706406,175.400271 783.078125,173.34375" id="Path-4179" stroke="#979797" stroke-width="5" stroke-linecap="round" stroke-linejoin="round"></path>
                <path d="M751.8125,138.75 C745.17791,145.30082 758.921461,145.930482 752.972656,139.714844" id="Path-4180" stroke="#979797" stroke-width="5" stroke-linecap="round" stroke-linejoin="round"></path>
                <path d="M734.761719,186.371094 C732.641716,204.80869 742.488487,188.765385 736.5625,187.183594" id="Path-4181" stroke="#979797" stroke-width="5" stroke-linecap="round" stroke-linejoin="round"></path>
                <path d="M651.007812,158.039062 C649.496785,168.570468 661.840981,157.958393 653.328125,156.722656" id="Path-4182" stroke="#979797" stroke-width="5" stroke-linecap="round" stroke-linejoin="round"></path>
                <path d="M854.976562,245.085938 C848.924399,246.75271 838.030725,255.845118 853.988281,251.8125 C854.873096,251.588899 855.650072,250.774598 855.964844,249.917969 C856.432085,248.646406 856.105469,247.21224 856.175781,245.859375" id="Path-4183" stroke="#979797" stroke-width="5" stroke-linecap="round" stroke-linejoin="round"></path>
                <path d="M1112.80078,177.75 C1085.03507,193.746103 1134.47395,186.246119 1112.71484,179.183594" id="Path-4184" stroke="#979797" stroke-width="5" stroke-linecap="round" stroke-linejoin="round"></path>
                <path d="M970.636719,438.824219 C969.999817,440.222906 963.777078,450.483018 965.3125,454.863281 C966.980525,459.621836 972.246366,461.853927 976.21875,455.40625 C982.429828,445.324892 972.441406,447.118017 972.441406,439.945312" id="Path-4185" stroke="#979797" stroke-width="5" stroke-linecap="round" stroke-linejoin="round"></path>
                <path d="M761.605469,395.144531 C759.872396,398.622396 757.79333,401.948374 756.40625,405.578125 C751.342111,418.830114 786.869763,409.464209 770.28125,397.191406" id="Path-4186" stroke="#979797" stroke-width="5" stroke-linecap="round" stroke-linejoin="round"></path>
                <path d="M544.710938,318.917969 C510.610549,329.732865 566.042753,335.734183 547.246094,318.183594" id="Path-4187" stroke="#979797" stroke-width="5" stroke-linecap="round" stroke-linejoin="round"></path>
                <path d="M386.527344,470.289062 C394.427625,472.375033 412.32478,461.781886 404.050781,455.40625" id="Path-4188" stroke="#979797" stroke-width="5" stroke-linecap="round" stroke-linejoin="round"></path>
                <path d="M181.53125,549.875 C181.53125,575.363124 201.169626,550.214252 186.300781,548.175781" id="Path-4189" stroke="#979797" stroke-width="5" stroke-linecap="round" stroke-linejoin="round"></path>
                <path d="M218.339844,215.167969 C217.165365,208.6875 212.687568,201.959052 214.816406,195.726563 C221.654544,175.706907 248.50459,188.957747 256.09375,197.773438" id="Path-4167" stroke="#979797" stroke-width="5" stroke-linecap="round" stroke-linejoin="round"></path>
                <path d="M219.027344,212.039063 C186.623316,237.337888 213.188226,241.482322 238.65625,223.90625 C251.230837,215.228237 266.332558,203.319717 273.785156,188.960938 C285.468759,166.450364 253.088043,188.443039 250.378906,190.699219" id="Path-4168" stroke="#979797" stroke-width="5" stroke-linecap="round" stroke-linejoin="round"></path>
                <path d="M220.875,217.332031 C233.092182,214.802093 248.385519,211.232013 252.527344,197.8125" id="Path-4169" stroke="#979797" stroke-width="5" stroke-linecap="round" stroke-linejoin="round"></path>
                <path d="M231.136719,231.714844 C250.017962,227.468044 263.037151,243.027186 260.171875,210.648438" id="Path-4170" stroke="#979797" stroke-width="5" stroke-linecap="round" stroke-linejoin="round"></path>
                <path d="M183.9375,148.914062 C181.9557,161.840805 198.874133,155.595354 188.316406,149.6875" id="Path-4171" stroke="#979797" stroke-width="5" stroke-linecap="round" stroke-linejoin="round"></path>
                <path d="M433.34375,152.820312 C434.129767,153.886957 438.629873,159.725972 440.859375,156.296875 C441.854576,154.766201 444.265365,152.17461 442.75,151.15625 C439.222173,148.785468 434.359375,149.791667 430.164062,149.109375" id="Path-4172" stroke="#979797" stroke-width="5" stroke-linecap="round" stroke-linejoin="round"></path>
                <path d="M303.421875,132.023437 C286.298456,144.929355 309.824664,151.379943 312.828125,144.625 C317.493262,134.13286 307.934728,124.779961 300.886719,136.625" id="Path-4173" stroke="#979797" stroke-width="5" stroke-linecap="round" stroke-linejoin="round"></path>
                <path d="M727.332031,81.9648437 C712.668017,80.3999094 701.958843,112.277601 718.484375,113.585937 C726.348546,114.208549 735.435867,96.9128137 727.289063,93.6796875 C719.448709,90.568179 712.257073,94.7807906 719.382813,101.449219" id="Path-4174" stroke="#979797" stroke-width="5" stroke-linecap="round" stroke-linejoin="round"></path>
                <path d="M747.773438,104.269531 C745.691117,120.504422 766.134796,109.695778 750.953125,104.152344" id="Path-4175" stroke="#979797" stroke-width="5" stroke-linecap="round" stroke-linejoin="round"></path>
                <path d="M815.890625,92.2109375 C813.772135,94.1171875 810.611219,95.2907718 809.535156,97.9296875 C800.388751,120.360157 838.103742,102.065868 818.769531,92.9453125" id="Path-4176" stroke="#979797" stroke-width="5" stroke-linecap="round" stroke-linejoin="round"></path>
                <path d="M806.957031,125.917969 C805.841146,126.703125 804.244497,127.065841 803.609375,128.273438 C794.629083,145.348211 828.74523,135.049118 804.980469,128.042969" id="Path-4177" stroke="#979797" stroke-width="5" stroke-linecap="round" stroke-linejoin="round"></path>
                <path d="M930.25,131.28125 C933,138.135417 935.12899,145.272723 938.5,151.84375 C945.520986,165.529584 963.893288,131.87349 937.039062,130.664062" id="Path-4223" stroke="#979797" stroke-width="4"></path>
            </g>
        </g>
    </g>
</svg>