<?xml version="1.0" encoding="UTF-8"?>
<svg width="1697px" height="630px" viewBox="0 0 1697 630" version="1.1" xmlns="http://www.w3.org/2000/svg" xmlns:xlink="http://www.w3.org/1999/xlink">
    <!-- Generator: Sketch 49.3 (51167) - http://www.bohemiancoding.com/sketch -->
    <title>Front</title>
    <desc>Created with Sketch.</desc>
    <defs></defs>
    <g id="Artwork" stroke="none" stroke-width="1" fill="none" fill-rule="evenodd">
        <g id="Pricing-Scene---Craft-a-website-you-love" transform="translate(0.000000, -450.000000)">
            <g id="Front" transform="translate(-66.000000, 453.000000)">
                <path d="M1150.92691,453.079637 C1141.081,469.866353 1138.76316,491.653073 1129.81837,509.232049 C1121.26653,526.038785 1111.05315,541.952721 1101.21583,558.040837 C1096.05863,566.475005 1087.84014,564.670006 1079.93686,567.364483 C1066.10609,572.079833 1036.60375,611.171408 1026,627 C1013.34007,645.897928 1042.30687,643.182282 1044,644 C1055.42026,649.51555 1073.82592,640.445373 1086,644 C1118.00791,653.345772 1151.79623,645.899313 1183.5,644 C1203.13626,642.823629 1237.30534,637.448528 1260.93591,624.258777 C1266.17208,621.336133 1273.95316,610.159224 1276.25977,606.799497 C1287.82866,589.948726 1299.85349,573.366249 1310.32116,555.81018 C1316.70276,545.107143 1320.41021,511.813217 1320.84786,506.204371 C1321.42594,498.795693 1321.24908,491.232212 1319.85534,483.932886 C1317.56991,471.963619 1314.99707,459.82274 1309.88004,448.763691 C1284.07586,392.995059 1234.4998,423.190936 1194.35705,445.044258 C1184.93672,450.172595 1176.74335,457.333733 1167.45884,462.704046 C1161.63991,466.069808 1154.99049,467.835623 1149.16243,471.185557 C1148.57428,471.523622 1149.16243,472.542331 1149.16243,473.220718" id="Path-2413" fill="#F7F7F1"></path>
                <path d="M614,512.5 C666.666667,494.833333 702.166667,509.666667 720.5,557 C748,628 780.5,642.5 790,628 C799.5,613.5 830,532.36739 860.5,569.183695 C891,606 862.5,575 891,557 C919.5,539 969.5,543.36739 1002,569.183695 C1034.5,595 1034.5,613 1034.5,639.5 C1034.5,666 999.5,765.5 776.5,714 C627.833333,679.666667 573.666667,612.5 614,512.5 Z" id="Path-13" fill="#B4B4B4"></path>
                <path d="M1137.1926,487.781808 C1115.67677,464.395966 1147.87318,438.009518 1156.09554,419.082575 C1158.40129,413.775014 1157.73195,407.543704 1157.36376,401.768663 C1155.41699,371.233809 1105.15253,361.148785 1104.0686,333.415307 C1101.32559,263.232731 1175.58041,300.912003 1207.2954,315.61015 C1219.36196,321.202336 1244.82896,298.669228 1252.6003,310.948327 C1269.93295,338.334794 1254.30975,358.282681 1280.16019,389.417338 C1286.38744,396.917523 1295.58004,401.742227 1301.26873,409.658674 C1308.98254,420.393299 1296.22826,424.736247 1300.71733,436.095723 C1346.75518,552.593391 1298.37744,402.175387 1316.4773,453.60513 C1316.82309,454.58768 1317.18553,455.875151 1316.58758,456.72805 C1310.95789,464.758133 1294.76297,462.496034 1288.04018,457.028813 C1284.77128,454.370421 1284.46842,447.419086 1280.27047,447.058526 C1268.68395,446.063365 1280.02954,469.460754 1265.82885,471.71105 C1263.2525,472.119308 1260.28921,472.868599 1258.004,471.610795 C1253.78169,469.28679 1252.28633,460.847135 1247.53244,461.640509 C1242.43921,462.490517 1242.97288,471.148602 1239.26147,474.738728 C1236.82411,477.096433 1233.12788,477.687339 1229.89271,478.703784 C1229.20006,478.921405 1228.12502,478.974841 1227.74225,478.357907 C1224.28832,472.790986 1225.34372,461.387871 1218.81461,460.8485 C1214.50248,460.492274 1213.95943,480.701148 1207.73652,483.515989 C1205.86594,484.362117 1203.32402,483.151788 1201.84156,481.731463 C1197.96166,478.014166 1194.83339,463.991002 1192.30738,468.733498 L1188.06162,467.099354 C1179.72527,482.750594 1187.20122,502.509739 1158.19086,488.528702 C1156.82771,487.871755 1156.67303,485.617847 1155.26845,485.054892 L1151.79464,475.380356 C1149.11579,474.306676 1147.42355,479.149916 1145.23801,481.034696 L1137.1926,487.781808 Z" id="Path-2400" fill="#D8D8D8"></path>
                <path d="M1337.8064,499.341124 C1336.53015,476.823731 1333.32522,467.071564 1339.57087,447.058526 C1341.97939,439.340872 1347.49746,432.641867 1348.93963,424.686788 C1350.42974,416.467293 1345.63242,407.59772 1348.16767,399.63826 C1355.66922,376.087062 1374.8938,379.093546 1369.16593,340.758932 C1367.15883,327.326124 1352.48736,321.461586 1345.41569,312.086213 C1332.62265,295.125642 1313.52763,264.951949 1323.8109,241.251564 C1325.60907,237.107229 1327.68964,232.965244 1330.64323,229.546879 C1336.10119,223.230057 1349.83807,221.251126 1356.32837,223.10053 C1362.15357,224.760414 1365.41974,236.806344 1370.82012,234.063333 L1373.74254,234.013206 C1389.10776,226.208762 1373.20704,229.794896 1393.03146,224.438924 C1400.5898,222.396884 1442.21222,220.177179 1433.2685,241.056068 C1431.75071,244.599325 1423.52018,251.875632 1426.43116,257.723339 C1430.81913,266.538062 1436.77646,274.559562 1443.07838,282.125227 C1456.69214,298.468982 1481.76084,314.080898 1476.42295,339.966923 C1469.23259,374.836461 1459.27517,386.627543 1461.70563,419.679087 C1462.30418,427.818822 1481.3868,436.77421 1482.97958,438.226126 C1490.64337,445.212129 1501.77437,463.393171 1499.29596,474.638474 C1497.35844,483.429607 1484.5569,486.897694 1479.78147,491.400987 C1476.49783,494.497504 1475.98753,500.052867 1472.3426,502.71468 C1470.102,504.350947 1466.75886,503.362435 1464.0215,502.910176 C1457.08458,501.764077 1449.65814,501.380641 1443.5195,497.952603 C1437.90439,494.816923 1436.54455,484.941259 1430.18067,484.012248 C1425.67124,483.353951 1426.26547,495.384837 1421.74929,494.774543 L1415.68391,496.263318 C1400.7981,494.251723 1407.86109,487.682025 1390.11406,483.069858 C1388.38412,482.620275 1389.60705,487.586876 1387.85332,487.932189 L1383.49728,490.508724 C1378.23169,491.545532 1372.27008,489.564116 1367.46161,491.947372 C1354.89723,498.174733 1370.14978,504.227992 1344.75402,508.318893 L1337.8064,499.341124 Z" id="Path-2401" fill="#D8D8D8"></path>
                <path d="M97.1498737,314.271756 C82.6358332,322.104431 78.7375379,346.043537 77.4749747,360.895001 C72.811753,415.748225 89.1168411,429.190746 109.716745,474.53822 C118.530781,493.940944 117.734237,519.806094 113.631674,540.310029 C110.892078,554.002083 106.409629,558.92954 107.897131,571.017909 C108.057315,572.319669 108.144088,574.4418 109.441046,574.637088 C156.361596,581.702096 135.278361,572.133922 172.049833,581.484454 C220.300583,593.754024 222.551857,600.955302 266.574564,600.232001 C292.978115,599.798186 313.102941,585.704876 336.787637,576.772504 C341.362666,575.047091 346.264467,574.229043 351.118984,573.644571 C355.387685,573.130629 361.693329,577.111913 364.016695,573.494189 C366.318287,569.910368 361.276373,565.256979 358.66813,561.889759 C353.441626,555.142387 345.82774,550.444315 340.812846,543.538216 C332.920871,532.670039 327.938443,519.893833 320.200569,508.915406 C309.624879,493.91071 301.025483,492.048258 287.903659,479.25017 C279.773898,471.320984 272.934957,462.151396 264.975509,454.051261 C242.568949,431.248656 229.311234,422.000175 220.001447,390.660491 C212.249039,364.563439 234.744662,342.655237 230.307585,330.142006 C224.712902,314.364152 185.603006,308.738013 180.10025,307.274009 C153.214433,300.121052 131.675586,295.854686 104.704032,301.323918 L97.1498737,314.271756 Z" id="Path-2411" fill="#F7F7F1"></path>
                <path d="M636.227068,453.008617 C620.789129,482.246361 599.152643,530.849229 614.401715,564.767056 C622.198063,582.108123 636.704623,593.470841 649.400478,606.583109 C650.340221,607.553675 651.747947,609.309711 650.889253,610.352669 C624.644947,642.228675 610.819046,646.956857 571.136988,633.516416 C539.226144,622.708111 559.315536,628.558168 542.038188,614.317725 C540.699368,613.214235 538.865545,612.559105 537.130742,612.583326 C519.677421,612.827007 496.021987,617.454798 477.940626,613.330221 C449.470893,606.835931 446.44557,599.929924 421.612768,586.046023 C403.66436,576.011154 383.458827,573.83805 364.623233,565.508937 C363.769467,565.131402 320.504197,511.493363 315.072564,503.110685 C313.521464,500.716862 312.691987,496.855378 314.410886,494.579047 C333.296997,469.568236 397.337181,463.127866 421.612768,462 C445.888355,460.872134 487.947524,447.384283 520,434.902697 C546.817891,424.459516 558.28874,438.196266 585.137496,434.902697 C602.621652,432.757895 613.470784,432.358659 624.928412,445.274001 L636.227068,453.008617 Z" id="Path-2412" fill="#F7F7F1"></path>
                <path d="M1348.20276,489.415952 C1347.28376,498.146428 1343.8488,506.975146 1345.44577,515.607378 C1348.30337,531.053796 1354.77044,545.695006 1361.26088,559.999966 C1385.02112,612.367618 1385.87981,641.815049 1436,647.5 C1448.53099,648.921345 1521.95996,642.709074 1532.5,647.5 C1549,655 1561.7694,655 1585,655 C1587.6198,655 1615.64384,641.424542 1619.14492,634.057789 C1632.40712,606.15225 1579.13234,570.775498 1561.7694,557.27305 C1545.4276,544.564701 1523.63381,538.787636 1510.18357,522.499859 C1509.6356,521.836278 1487.73274,480.209464 1485.54609,479.149916 C1482.42763,477.638852 1478.97824,476.55441 1475.51565,476.417987 C1456.18491,475.656374 1436.80306,477.372093 1417.47846,476.468114 C1393.62139,475.352113 1370.30608,463.304469 1351.39586,480.834187 L1348.20276,489.415952 Z" id="Path-2415" fill="#F7F7F1"></path>
                <path d="M1559.17783,295.469069 C1511.24302,317.033678 1520.86281,403.435444 1513.60224,444.476979 C1508.47943,473.434499 1490.06324,503.778185 1496.29335,534.254671 C1497.64924,540.887452 1505.01074,552.214286 1510.73497,556.776791 C1535.92322,576.85312 1562.38774,595.296382 1587.50969,615.455611 C1625.69106,646.094441 1632.37894,660.009594 1688.20507,650.128548 C1694.96834,648.931469 1701.52151,646.560784 1707.82483,643.83258 C1748.90287,626.053167 1725.67027,569.054448 1708.32109,543.828953 C1702.85124,535.875864 1695.41867,529.429289 1689.69384,521.657723 C1682.13453,511.395794 1675.03215,500.77438 1668.53017,489.811957 C1663.8418,481.907308 1659.5271,473.720215 1656.18386,465.159434 C1643.5739,432.870122 1642.93278,398.393518 1645.32632,364.21843 C1646.60743,345.926679 1667.46698,326.357458 1661.14143,311.239065 C1659.98362,308.47184 1656.37846,307.388609 1653.53714,306.42686 C1646.10916,303.912586 1638.45824,301.787966 1630.66413,300.922901 C1590.3697,296.450636 1596.50293,296.400709 1570.64191,301.664783 L1559.17783,295.469069 Z" id="Path-2416" fill="#F7F7F1"></path>
                <path d="M1529.11158,308.963293 C1523.76468,308.318324 1517.96845,309.268742 1513.0709,307.028386 C1502.03535,301.980242 1532.80278,282.660669 1538.4252,280.440955 C1540.44837,279.642214 1544.48375,282.073203 1544.9317,279.944697 C1546.1873,273.978573 1540.99531,267.785426 1542.34013,261.838777 C1545.89237,246.131136 1576.07323,248.607277 1587.47961,241.998458 C1614.94876,226.08292 1642.62004,210.461254 1669.32218,193.289925 C1682.11803,185.061303 1729.03796,127.82852 1745.54549,158.662103 C1758.91215,183.629003 1724.33281,200.815163 1721.29399,225.777319 C1718.76832,246.524189 1728.49994,244.432064 1742.46267,257.422577 C1744.17084,259.011807 1746.08774,262.412014 1744.49784,264.119561 C1721.86623,288.425848 1707.13378,278.016177 1708.62185,314.221629 C1708.96203,322.498452 1711.74463,330.590355 1711.75981,338.874152 C1711.76363,340.962424 1710.35594,343.086202 1708.67699,344.327984 C1700.65513,350.261094 1680.56614,350.484225 1675.38756,340.413055 C1674.61232,338.905391 1671.22914,319.875254 1662.65527,323.545275 C1657.43529,325.779672 1652.21761,335.020372 1647.66224,331.630782 L1644.51927,331.926532 C1637.02471,326.349923 1643.30373,304.760808 1633.66174,309.359297 C1626.18991,312.922784 1628.57606,321.724442 1623.0799,327.615598 C1621.2255,329.603272 1617.56413,327.716204 1614.97935,328.557988 C1596.01752,334.733299 1584.34994,347.992301 1570.72211,329.59562 C1569.0055,327.27831 1567.26166,318.698629 1568.18568,315.760532 C1569.14725,312.703018 1572.55068,310.673597 1573.14826,307.524644 C1573.36082,306.404588 1570.70131,307.028679 1569.72959,307.624898 C1566.83892,309.398544 1564.98815,312.593537 1562.07017,314.321883 C1559.87727,315.620755 1557.26651,316.155133 1554.74158,316.502413 C1552.04667,316.873073 1549.1364,317.384642 1546.58088,316.452286 C1544.16166,315.569656 1542.68768,313.080401 1540.74107,311.394459 L1529.11158,308.963293 Z" id="Path-2402" fill="#D8D8D8"></path>
                <path d="M1205,640.238769 C1177.83528,617.122718 1194.04084,572.730999 1219.01429,555.914909 C1227.12442,550.453885 1247.22425,536.874834 1256.70989,542.22519 C1297.62748,565.304663 1259.21808,544.613382 1284.65577,567.123336 C1285.70195,568.049106 1287.54113,567.571011 1288.8464,567.073208 C1298.47104,563.40258 1307.37244,557.892314 1317.17324,554.721883 C1326.02591,551.858158 1335.28218,550.277128 1344.50756,549.067543 C1347.97777,548.612547 1351.82928,548.248979 1354.98413,549.76431 C1361.78603,553.03138 1367.58311,571.525374 1372.17774,576.401868 C1378.09075,582.67762 1403.59958,559.751783 1417.20694,565.489191 C1439.82933,575.027692 1442.45255,608.086776 1468.29651,613.104953 C1483.02804,615.965404 1478.58005,610.161124 1495.13959,605.565832 C1519.36525,598.843186 1543.99736,598.973194 1568.93676,600.803755 C1574.89592,601.24116 1595.01608,603.858767 1598.69723,613.054826 C1600.16547,616.722697 1608.76538,638.083183 1598.58695,640.138515 C1595.57969,640.745772 1592.443,640.46795 1589.38361,640.238769 C1568.16196,638.649044 1547.01264,636.154087 1525.78231,634.684683 C1506.8819,633.376539 1487.189,641.656691 1468.29651,640.238769 C1425.48831,637.025922 1379.83618,643.054132 1337,640.238769 C1295.96653,637.541888 1259.91343,638.737684 1219.01429,640.238769 L1205,640.238769 Z" id="Path-2414" fill="#B7B7B7"></path>
                <path d="M470.055628,468.954057 C447.757976,427.295392 492.338724,433.111626 513.982033,425.253224 C540.676032,415.560984 567.483051,393.920516 574.330086,364.343747 C582.015874,331.143861 552.753552,330.056228 556.419662,303.825262 C556.72701,301.626191 570.221132,224.970561 572.345052,222.378699 C573.080643,221.481043 580.576175,213.000638 585.297902,214.739324 C588.963191,216.088997 593.988794,223.474036 595.76946,219.99766 L599.629249,218.804635 C603.469262,211.30782 599.663858,189.540895 610.100807,187.10925 C618.799051,185.082695 630.824998,198.296343 634.903711,200.603473 C649.417058,208.81297 664.834222,215.324107 679.546934,223.170708 C683.205193,225.121734 686.713331,227.393705 689.963352,229.967947 C693.481707,232.754728 697.12224,235.56957 699.773232,239.191339 C704.851558,246.129318 709.898783,253.327961 712.946642,261.367582 C722.630419,286.911377 700.593682,284.782176 697.567638,309.133725 C694.641516,332.681171 712.596629,352.121539 709.031713,376.09856 C708.613095,378.914115 706.719277,381.335232 705.116784,383.687807 C698.932982,392.76607 691.808384,401.184444 685.717584,410.325365 C684.938868,411.494042 692.996632,429.709922 693.26673,432.646976 C694.954769,451.002763 695.976514,492.930947 666.924923,488.59888 C663.452971,488.081155 661.786323,481.280755 661.521218,479.570984 C660.570646,473.440343 661.462232,467.055823 660.032442,461.018933 C659.815271,460.101989 657.910066,460.964468 657.280463,461.665573 C654.594861,464.656164 653.113598,468.583628 650.498262,471.635859 C648.009317,474.540584 645.006648,476.97315 642.066878,479.420602 C640.823047,480.456132 639.542901,481.608262 637.98653,482.052277 C636.05998,482.601899 633.842735,483.038669 631.9813,482.2979 C628.688613,480.987556 625.685233,478.794693 623.274217,476.197428 C620.459373,473.165139 618.456346,469.429615 616.602296,465.730883 C615.127496,462.788735 615.171138,453.663245 613.354058,456.407236 C610.097001,461.325751 612.33494,468.188148 611.148464,473.96677 C610.595958,476.657698 609.464869,479.228032 608.170912,481.65126 C595.54745,505.291562 579.34849,475.210044 579.84407,461.961323 C579.934511,459.543502 583.898481,453.440019 582.104804,455.063829 C571.570281,464.600701 550.536704,498.17863 546.058384,460.572801" id="Path-2259" stroke="#979797" stroke-width="6"></path>
                <path d="M569.362487,386.5 C579.937988,375.16361 578.450375,374.792884 572.670878,357.23572 C569.42386,347.371813 561.151112,339.849993 556.850755,330.397654 C553.945044,324.010796 552.294054,317.047061 551.231504,310.111204 C550.367659,304.472404 550.482369,298.666502 551.121224,292.997802 C552.123863,284.101177 554.166816,275.345045 556.133937,266.61088 C556.889429,263.25644 557.8486,259.913735 559.276909,256.785962 C562.272961,250.225072 566.474515,244.251588 569.362487,237.642411 C571.600062,232.52168 571.274647,226.207625 574.600773,221.717021 C576.043782,219.768814 579.440195,220.357107 581.819079,220.824758 C586.768151,221.797667 593.123358,229.702979 599.233245,226.183348 C602.592737,224.248096 603.610553,219.530934 604.30611,215.716803 C605.379899,209.82862 585.598645,189 604.30611,189 C621.30611,189 656.553619,215.716803 701.362262,235.506995 C705.676366,237.412363 707.395664,241.623539 709.352527,245.377027 C721.533845,268.742208 711.556731,275.817445 703.016457,298.947892 C694.900764,320.928406 697.592453,333.580264 703.678135,357.035212 C704.774404,361.260361 711.060226,365.130732 709.021687,368.990532 L709.297387,372.955588 C694.322174,401.30989 697.855488,382.814862 685.652419,414.821768 C682.941755,421.931453 690.649522,435.642873 691.221543,439.474292 C693.044013,451.681264 694.560244,474.081282 683.451838,484.468404 C673.344189,493.919751 663.171825,487.64215 658.483514,477.225034 C656.953954,473.826453 660.273031,465.975711 656.553619,466.212103 C650.703298,466.583929 648.989709,475.735328 643.655908,478.167424 C620.561957,488.69776 628.19973,471.828854 614.943088,458.823364 C604.645413,448.720783 619.056869,481.36781 601.990237,486.152676 C600.363591,486.608729 598.584477,486.404886 596.922384,486.102549 C594.90326,485.735267 592.672587,485.459016 591.077561,484.167642 C562.801006,461.274217 604.399873,443.994293 568.25969,467.355002 C564.710088,469.649435 560.521524,470.888446 556.409637,471.866444 C554.033016,472.431714 551.517015,472.10077 549.08105,471.916571 C548.427901,471.867182 547.502744,471.783634 547.261435,471.174689 C545.818842,467.53429 545.893763,463.380444 544.283884,459.810869 C542.869692,456.67519 541.583683,450.25226 538.333793,451.379485 C533.758571,452.966403 534.197426,460.171144 531.551592,464.227069 C529.832778,466.861922 527.684675,469.238594 525.325803,471.320058 C521.133286,475.019527 516.689602,478.466196 511.986973,481.490853 C508.989925,483.418507 505.706188,484.926182 502.342513,486.102549 C500.451681,486.763824 497.645986,488.507089 496.392423,486.944685 C492.945944,482.649095 491.581495,476.890065 490.602739,471.470439 C489.31158,464.320961 495.208587,454.391465 489.665362,449.695214 C485.484289,446.152985 485.526463,459.994656 482.171355,464.327323 C480.294287,466.751303 448.5,451.379485 466.5,439.474292 C484.5,427.569098 502.643242,425.652593 511.986973,424.5 C515.716117,424.039992 538.545429,409.450848 542.524421,406.986898 C542.950941,406.72278 542.377382,407.979415 542.303862,408.475674" id="Path-2403" fill="#D8D8D8"></path>
                <path d="M543.577091,442.812758 C535.0169,460.367179 530.080397,476.051341 512.327838,485.521074 C500.753647,491.695085 490.688638,463.534593 491.715561,456.006219 C494.74921,433.766545 496.460471,449.842157 496.617995,451.048646" id="Path-2260" stroke="#979797" stroke-width="6"></path>
                <path d="M578.575854,279.964747 C577.511086,314.134131 611.974998,338.66519 604.752242,373.567139 C602.667481,383.641165 590.670243,400.556031 585.794161,407.247559 C580.42291,414.618615 565.274439,420.503702 560.389731,423.172948" id="Path-2261" stroke="#979797" stroke-width="6"></path>
                <path d="M626.853294,213.942303 C615.231823,233.36817 609.022007,262.190704 621.785441,282.496168" id="Path-2262" stroke="#979797" stroke-width="6"></path>
                <path d="M640.026704,256.700746 C658.292168,285.273256 665.648982,325.678221 660.473561,359.135538 C655.945766,388.406174 641.35108,411.649742 657.776721,438.351444" id="Path-2263" stroke="#979797" stroke-width="6"></path>
                <path d="M598.581592,217.912372 C588.427809,192.910714 572.956722,171.13906 563.472549,146.135333" id="Path-2264" stroke="#979797" stroke-width="6"></path>
                <path d="M133.958226,338.77891 C127.307525,339.67944 116.106576,343.761098 108.328224,340.122318 C94.7667436,333.77814 98.7850858,305.514995 104.799274,296.070595 C119.114094,273.591269 170.120538,260.248368 185.323497,252.720652 C193.716789,248.56473 201.479104,243.166077 208.968465,237.542156 C220.409647,228.950729 218.568301,214.923133 222.252155,202.668711 C224.460932,195.321164 227.472913,188.201987 230.904098,181.339617 C231.909366,179.32908 233.443084,177.400768 235.420552,176.331917 C239.625819,174.058905 249.546112,173.621061 253.06029,168.441906 C258.16111,160.924375 258.709713,149.621045 267.882882,144.681646 C278.965913,138.71386 301.810422,150.337561 309.057308,158.075615 C328.499592,178.835628 291.956283,235.362663 286.735696,248.900964 C279.281844,268.23069 273.564098,288.206966 268.048302,308.176297 C266.965856,312.095173 259.705727,361.028666 243.14013,348.704082 C238.555238,345.292983 238.11322,338.33383 234.543327,333.871464 C233.908829,333.078342 232.320888,333.554741 231.510636,334.167214 C227.932121,336.872234 225.910341,341.67417 221.811036,343.495874 C218.132702,345.130501 213.668023,344.722718 209.740423,343.841751 C207.028182,343.233391 205.339325,338.115795 202.792803,339.230055 L199.158586,332.878947 C191.849023,336.07733 192.248653,351.592495 179.152848,347.410802 C167.100605,343.562336 167.353722,331.0542 164.98692,321.815889 C164.825926,321.187484 163.520686,321.612838 163.057026,322.066525 C158.98996,326.04611 156.139379,331.25033 151.703231,334.813854 C149.930146,336.23816 147.295385,335.936702 145.091462,336.498126 L133.958226,338.77891 Z" id="Path-2404" fill="#D8D8D8"></path>
                <path d="M558.735536,128.229921 C554.289092,134.853269 550.225827,153.304892 565.953842,146.040091 C575.018562,141.85308 560.264689,118.517529 554.710327,131.999482" id="Path-2265" stroke="#979797" stroke-width="6"></path>
                <path d="M565.126745,170.542233 C592.14027,150.43954 580.078631,157.127115 599.574109,147.624108" id="Path-2266" stroke="#979797" stroke-width="6"></path>
                <path d="M566.78094,182.397299 C571.190457,179.155745 575.599973,175.91419 580.00949,172.672636" id="Path-2267" stroke="#979797" stroke-width="6"></path>
                <path d="M584.746504,182.397299 C597.921088,176.408852 588.250794,181.289101 610.927904,163.148481" id="Path-2268" stroke="#979797" stroke-width="6"></path>
                <path d="M588.385734,190.136928 C577.365278,201.43025 582.663606,198.113307 574.274946,202.488254" id="Path-2269" stroke="#979797" stroke-width="6"></path>
                <path d="M589.323111,158.040526 C582.042841,147.375403 584.72111,152.769436 580.781448,142.120149" id="Path-2270" stroke="#979797" stroke-width="6"></path>
                <path d="M577.197358,189.886293 C579.217481,193.624106 581.237605,197.361919 583.257728,201.099732" id="Path-2271" stroke="#979797" stroke-width="6"></path>
                <path d="M582.435643,179.815752 C573.662548,191.080084 579.56527,184.402791 563.086571,198.267549" id="Path-2272" stroke="#979797" stroke-width="6"></path>
                <path d="M885.84013,598.417399 C876.38387,582.700571 892.80878,547.426428 909.705657,543.758775 C932.722664,538.762681 971.322896,548.918624 989.728609,562.902327" id="Path-2364" stroke="#979797" stroke-width="6"></path>
                <path d="M792.142496,623.470939 C792.215756,608.179733 790.295146,608.811553 803.110313,593.259317 C819.818344,572.982777 827.856641,572.93108 851.061926,575.74991" id="Path-2368" stroke="#979797" stroke-width="6"></path>
                <path d="M611.479303,507.892813 C643.252045,496.933002 707.529318,502.004705 716.911698,544.350275 C717.015117,544.817039 715.992701,544.614278 715.533202,544.74628" id="Path-2369" stroke="#979797" stroke-width="6"></path>
                <path d="M625.86579,477.435568 C611.305434,492.870891 607.205118,511.57167 608.115772,532.695717 C609.812925,572.063815 618.473413,597.843554 659.596336,608.091935" id="Path-2273" stroke="#979797" stroke-width="6"></path>
                <path d="M458.426133,461.314683 C420.148103,469.752285 337.575579,474.659565 310.881936,499.065425 C306.511558,503.061239 304.783135,509.21784 301.733734,514.294048" id="Path-2274" stroke="#979797" stroke-width="6"></path>
                <path d="M236.919353,337.3553 C226.086303,346.834219 230.490719,342.049082 220.272133,367.617049 C203.324128,410.022725 252.468981,438.76266 278.199046,463.104221 C293.970997,478.025051 309.373415,493.348783 324.331045,509.085839 C345.353125,531.203358 354.752085,560.101316 366.106996,587.655104" id="Path-2275" stroke="#979797" stroke-width="6"></path>
                <path d="M257.090511,317.765617 C257.164031,326.726677 257.83854,335.702973 257.31107,344.648798 C257.206286,346.425929 256.33088,348.173569 255.215756,349.561256 C254.36132,350.624539 253.035264,351.405337 251.691819,351.641532 C249.60696,352.008078 247.242822,352.24487 245.350737,351.295655 C242.975638,350.104124 240.596844,348.153683 239.731486,345.641315 C237.863784,340.218879 239.145023,334.079814 237.525892,328.578039 C237.265755,327.694098 235.467222,328.177408 234.7689,328.778548 C231.937208,331.216167 230.775835,335.576383 227.440313,337.260058 C221.799424,340.107416 214.735425,344.484325 209.028618,341.7715 C202.83174,338.825713 202.378418,329.767723 199.053319,323.765835" id="Path-2276" stroke="#979797" stroke-width="6"></path>
                <path d="M163.61845,322.081563 C163.950118,323.065252 168.236047,343.291074 174.751685,346.1877 C183.411067,350.03736 202.009431,342.207662 198.66734,331.605718" id="Path-2277" stroke="#979797" stroke-width="6"></path>
                <path d="M163.61845,317.169104 C158.292775,342.497181 121.892323,349.078119 129.832763,320.492533" id="Path-2278" stroke="#979797" stroke-width="6"></path>
                <path d="M107.731711,304.171139 C100.992683,306.83519 95.7775975,326.113011 99.2953149,332.001722 C103.460191,338.973786 111.053132,343.85244 118.589248,346.879455 C125.336277,349.589519 133.233847,346.623397 132.750162,340.53336" id="Path-2279" stroke="#979797" stroke-width="6"></path>
                <path d="M100.287832,319.845893 C100.012133,311.827223 98.3942869,303.742101 99.4607344,295.789883 C101.180073,282.969231 124.208704,271.423475 130.163602,268.906702 C161.521362,255.653689 175.135728,261.884501 196.577038,243.311789 C201.617885,238.945349 219.668172,217.933923 222.202028,211.466023 C226.54119,200.389915 223.602406,187.057657 231.12967,177.038709 C249.233364,152.942309 228.940525,187.609122 256.980231,160.571946 C261.946931,155.782826 262.349206,147.552728 267.01067,142.466027 C268.673096,140.651948 271.995903,140.889237 274.34427,141.623891 C280.049051,143.408551 284.673407,147.812398 290.324799,149.759524 C294.592045,151.229758 299.354038,150.595602 303.718768,151.744559 C318.94788,155.753418 312.244628,187.1729 308.952041,196.583278 C208.367046,484.060158 327.18826,120.182314 289.387422,264.640883 C287.817972,270.638647 283.864641,275.776216 280.45978,280.957265 C277.24673,285.84644 270.934102,289.050408 269.602243,294.747238 C254.160018,360.799078 281.499369,306.665276 262.053097,341.671246" id="Path-2280" stroke="#979797" stroke-width="6"></path>
                <path d="M283.327052,158.040526 C289.046246,124.711961 293.477355,84.2444143 310.826796,54.0217165 C311.780307,52.360702 311.392415,58.5023885 313.142669,59.2800525 L317.167878,62.7538627 C318.56445,63.3743805 320.354891,63.7465722 321.739472,63.0997399 C323.149881,62.4408418 324.140342,60.8456255 324.496464,59.3301797 C325.338026,55.7489876 326.742115,51.6632666 325.213282,48.317249 C324.048076,45.7670682 320.404108,45.3055261 317.719276,44.4975616 C305.011442,40.6733071 309.336673,62.5754448 314.355746,57.0493952" id="Path-2281" stroke="#979797" stroke-width="6"></path>
                <path d="M291.537876,76.7894595 C297.250698,77.4678466 302.96352,78.1462338 308.676342,78.824621" id="Path-2282" stroke="#979797" stroke-width="6"></path>
                <path d="M289.718261,94.0532434 C293.466099,94.9137592 297.213938,95.7742749 300.961776,96.6347907" id="Path-2283" stroke="#979797" stroke-width="6"></path>
                <path d="M296.004203,107.993599 C306.783454,112.539809 301.038249,111.152023 313.308089,111.863413" id="Path-2284" stroke="#979797" stroke-width="6"></path>
                <path d="M297.708525,96.3340279 C303.478158,95.7893131 309.247791,95.2445982 315.017424,94.6998834" id="Path-2285" stroke="#979797" stroke-width="6"></path>
                <path d="M279.412123,121.18706 C286.6321,124.824618 293.852078,128.462177 301.072056,132.099736" id="Path-2286" stroke="#979797" stroke-width="6"></path>
                <path d="M282.996212,93.2111076 C288.139256,94.0382053 293.2823,94.865303 298.425343,95.6924006" id="Path-2287" stroke="#979797" stroke-width="6"></path>
                <path d="M277.868207,81.8021726 C284.023819,83.4062408 290.17943,85.010309 296.335042,86.6143772" id="Path-2288" stroke="#979797" stroke-width="6"></path>
                <path d="M98.6937893,309.183852 C77.4797666,339.843961 68.9691363,382.453857 82.6531073,418.857003 C89.6415128,437.448093 113.767419,482.477322 117.59673,511.662373 C121.159952,538.81942 115.009233,560.136964 102.658845,584.627425 C101.787722,586.354837 102.511806,580.760953 102.438286,578.827716" id="Path-2289" stroke="#979797" stroke-width="6"></path>
                <path d="M107.841991,413.348031 C107.276453,446.174937 167.767695,484.790108 181.363454,497.476395 C209.846625,524.054218 230.062868,550.477363 227.826292,590.532401 C227.774894,591.45289 227.164614,588.81137 226.833775,587.950854" id="Path-2290" stroke="#979797" stroke-width="6"></path>
                <path d="M556.750501,507.396554 C537.169297,531.883913 528.788758,572.51388 545.396706,600.502688 C551.990447,611.614895 560.956544,621.780219 574.826345,621.536032 C575.242292,621.528709 574.752825,620.707263 574.716065,620.292879" id="Path-2291" stroke="#979797" stroke-width="6"></path>
                <path d="M530.569101,532.94134 C524.0387,559.338363 520.168331,568.660059 539.221043,589.590011" id="Path-2292" stroke="#979797" stroke-width="6"></path>
                <path d="M352.768166,519.848134 C371.869989,481.892565 400.047674,511.1832 424.199328,510.028229 C428.440829,509.825393 430.445169,504.273634 433.568089,501.396337" id="Path-2293" stroke="#979797" stroke-width="6"></path>
                <path d="M279.301843,477.485695 C300.597106,516.78671 312.837359,556.399253 305.869222,601.049073" id="Path-2294" stroke="#979797" stroke-width="6"></path>
                <path d="M195.86022,363.050467 C196.223637,387.290813 196.220641,411.955557 218.236972,427.884899" id="Path-2295" stroke="#979797" stroke-width="6"></path>
                <path d="M1034.64753,627.090118 C1026.80465,597.475918 1087.41275,568.557294 1104.25908,555.809338 C1117.92107,545.471028 1118.00011,549.88189 1116.93623,542.415368" id="Path-2296" stroke="#979797" stroke-width="6"></path>
                <path d="M1073.45094,610.322593 C1099.60489,567.876303 1144.9295,513.159922 1147.19297,459.630411" id="Path-2297" stroke="#979797" stroke-width="6"></path>
                <path d="M1137.32795,449.409489 C1114.05151,475.181763 1131.65815,514.615264 1155.40379,473.219876" id="Path-2298" stroke="#979797" stroke-width="6"></path>
                <path d="M1133.74386,454.717952 C1141.29076,436.714414 1163.76746,402.965865 1146.03503,381.206514 C1135.57801,368.374776 1101.70001,346.393785 1107.23663,323.520212 C1108.75298,317.255686 1111.62849,311.378892 1114.3998,305.559661 C1134.25603,263.865245 1176.71744,301.682825 1203.3554,312.507281 C1218.07256,318.487666 1235.78416,301.535054 1248.27433,311.564891 C1270.15364,329.134389 1251.55403,343.058559 1263.59819,363.301103 C1267.46753,369.80428 1271.46687,376.339009 1276.54603,381.948396 C1281.74602,387.691223 1288.54091,391.775592 1294.18577,397.081777 C1296.44298,399.20357 1299.12362,401.266547 1300.191,404.174766 C1302.69475,410.996584 1292.59187,426.688998 1297.81998,431.654459 C1363.36747,493.908971 1281.9083,407.908691 1329.51537,440.331465 C1331.62865,441.770719 1326.75844,444.690918 1324.93876,446.487077 C1323.09723,448.304799 1321.02582,450.005602 1318.65783,451.048646 C1313.16046,453.470108 1295.99652,458.852905 1289.3886,456.998737 C1286.71445,456.248376 1286.08355,452.53408 1284.43103,450.301752" id="Path-2299" stroke="#979797" stroke-width="6"></path>
                <path d="M1283.38337,445.243924 C1283.25471,451.991036 1284.02062,458.814947 1282.99739,465.48526 C1282.28024,470.160251 1268.46199,473.324516 1265.57821,471.680973 C1262.33413,469.832083 1262.3338,460.857545 1262.10941,458.091508" id="Path-2300" stroke="#979797" stroke-width="6"></path>
                <path d="M1262.05427,450.602515 C1260.98824,455.942725 1260.62718,461.473603 1258.85616,466.623146 C1257.11801,471.677149 1244.02299,478.551222 1239.40182,475.355292 C1235.79859,472.863346 1235.56839,467.460499 1234.05326,463.349844 C1233.70319,462.400072 1236.30167,464.864083 1235.87287,465.78101 L1236.03829,471.234842 C1234.90846,473.650871 1232.64699,475.398623 1230.58446,477.089691 C1228.89475,478.475089 1227.04108,479.902685 1224.90506,480.362992 C1221.65441,481.0635 1218.19838,481.074404 1214.92976,480.463247 C1204.81264,478.571576 1211.36922,462.99496 1206.60865,459.825907 C1203.48326,457.745363 1207.36643,467.423966 1206.55352,471.089473 C1205.76665,474.637527 1204.81602,478.761518 1201.92177,480.959505 C1197.79457,484.093831 1192.31026,485.298376 1187.15432,485.821837 C1185.86364,485.952874 1185.23846,483.928008 1184.83844,482.693904 C1183.54221,478.694846 1182.89557,463.912303 1183.01883,461.861068 C1183.09216,460.640755 1185.06214,457.428833 1184.67302,458.587767 C1182.81534,464.120602 1171.98442,489.404199 1159.87012,480.017115 C1156.05778,477.063023 1163.26731,454.186894 1166.20619,451.1489" id="Path-2301" stroke="#979797" stroke-width="6"></path>
                <path d="M1130.99188,300.501833 C1125.51047,271.173704 1126.71889,271.9559 1113.24186,237.507067 C1112.41768,235.400371 1111.01234,233.08411 1108.89083,232.298858 C1105.00165,230.85933 1097.19834,235.392325 1096.48937,231.306341 C1086.5276,173.894071 1123.67466,226.265248 1116.82595,190.928937 C1116.40775,188.771201 1115.58975,186.340318 1113.79326,185.074088 C1106.62839,180.024043 1099.91467,197.187867 1106.96093,205.114915" id="Path-2302" stroke="#979797" stroke-width="6"></path>
                <path d="M1086.73463,220.839796 C1093.43997,220.112953 1100.14531,219.386109 1106.85065,218.659266" id="Path-2303" stroke="#979797" stroke-width="6"></path>
                <path d="M1082.21317,235.226283 C1088.27521,233.257958 1094.33725,231.289632 1100.39929,229.321307" id="Path-2304" stroke="#979797" stroke-width="6"></path>
                <path d="M1089.98287,243.903289 C1115.73079,236.946413 1101.67609,241.3797 1131.87412,229.767438" id="Path-2305" stroke="#979797" stroke-width="6"></path>
                <path d="M1095.22116,256.750873 C1123.70614,246.074193 1111.86299,251.977269 1131.54328,240.730242" id="Path-2306" stroke="#979797" stroke-width="6"></path>
                <path d="M1119.03154,263.152108 C1124.85465,260.869652 1130.67775,258.587197 1136.50085,256.304742" id="Path-2307" stroke="#979797" stroke-width="6"></path>
                <path d="M1113.13158,274.410661 C1120.51698,271.550073 1127.90238,268.689485 1135.28777,265.828896" id="Path-2308" stroke="#979797" stroke-width="6"></path>
                <path d="M1121.8938,245.392065 C1143.32186,240.361129 1146.18089,243.859369 1141.24288,222.624322" id="Path-2309" stroke="#979797" stroke-width="6"></path>
                <path d="M1102.7703,254.319707 C1082.90022,260.541387 1085.76456,254.082788 1092.5193,272.871758" id="Path-2310" stroke="#979797" stroke-width="6"></path>
                <path d="M1130.49562,254.319707 C1147.8912,245.800597 1142.79149,242.744167 1147.52381,259.62817" id="Path-2311" stroke="#979797" stroke-width="6"></path>
                <path d="M1345.4959,220.393665 C1322.45287,221.552326 1319.75084,243.912109 1323.00887,264.340121 C1327.01599,289.464982 1354.61151,310.223931 1366.49415,329.224679 C1369.19321,333.540563 1368.93735,339.14043 1369.4717,344.202666 C1372.72923,375.063213 1350.64788,383.824726 1346.21272,409.232593 C1316.69873,578.310159 1370.37531,285.287202 1345.82674,465.435133 C1344.7763,473.143649 1338.76647,479.396729 1336.56826,486.859469 C1335.17885,491.576361 1335.07921,496.630695 1335.18976,501.546718 C1335.29556,506.251406 1347.42377,508.173222 1349.85194,506.800041 C1353.48851,504.74349 1355.90582,500.96185 1358.28333,497.526522 C1361.34317,493.105275 1362.68335,487.580573 1366.05303,483.390671 C1369.6471,478.921781 1371.91367,491.849183 1386.11391,489.54127 C1387.799,489.267399 1389.41418,488.52062 1390.85594,487.606363 C1391.7178,487.059832 1392.64452,486.276904 1392.84097,485.275451 C1393.66782,481.060498 1393.50265,476.710395 1393.83349,472.427868" id="Path-2312" stroke="#979797" stroke-width="6"></path>
                <path d="M1391.68304,456.753114 C1391.11365,469.701166 1398.96406,504.810368 1419.12764,491.375923 C1421.69384,489.666135 1425.08166,482.246434 1425.46872,480.859251 C1426.98995,475.40734 1423.31182,461.759666 1428.44627,464.141853 C1434.63685,467.014038 1429.89934,477.929212 1432.63189,484.18268 C1439.04916,498.868663 1463.85785,506.9435 1474.73868,492.36844 C1475.01621,491.996681 1473.85978,492.071019 1473.42034,491.922309" id="Path-2313" stroke="#979797" stroke-width="6"></path>
                <path d="M1458.70301,467.66579 C1462.74271,474.997592 1467.95354,483.379931 1476.88913,485.225324 C1488.25122,487.571841 1501.72716,480.982316 1497.83225,466.377523 C1491.0839,441.073179 1466.46835,436.742686 1462.23196,415.433319 C1456.44491,386.324024 1480.31168,360.051683 1468.62317,331.405209 C1453.74204,294.934203 1457.43814,309.690892 1435.66458,271.683745 C1432.31315,265.833608 1430.73099,259.014661 1426.9575,253.427444 C1408.9245,226.726868 1419.5093,255.850557 1411.79905,229.521815" id="Path-2314" stroke="#979797" stroke-width="6"></path>
                <path d="M1432.57675,259.432675 C1441.09866,224.023449 1402.83635,208.980411 1376.24889,222.178191 C1368.5015,226.02393 1356.14496,233.165656 1349.46597,240.680115 C1349.15631,241.028504 1349.57625,241.605796 1349.63139,242.068636" id="Path-2315" stroke="#979797" stroke-width="6"></path>
                <path d="M1369.63712,221.932568 C1358.68769,221.601729 1347.61605,219.275536 1336.78881,220.940051 C1327.90939,222.305121 1324.34649,238.444369 1323.22943,243.557412 C1318.33707,265.950828 1345.78628,296.665154 1354.80952,310.722755" id="Path-2316" stroke="#979797" stroke-width="6"></path>
                <path d="M1366.93527,225.551747 C1356.13888,213.663233 1353.30172,184.00361 1349.79681,173.71528 C1341.53331,149.45859 1331.12611,125.977625 1322.51261,101.843 C1322.18314,100.919853 1322.91697,99.9248014 1323.11915,98.9657023" id="Path-2317" stroke="#979797" stroke-width="6"></path>
                <path d="M1320.91355,83.9827028 C1307.4151,88.8810782 1314.92468,107.131366 1329.62565,101.938241 C1344.77562,96.5865039 1325.25216,62.1726793 1318.93353,89.7874246" id="Path-2318" stroke="#979797" stroke-width="6"></path>
                <path d="M1312.09619,134.034643 C1328.14407,118.737998 1325.60126,122.999623 1347.64635,114.439948 C1354.50135,111.778285 1364.35462,111.806556 1367.70723,105.26167 C1370.14836,100.496146 1362.15983,96.1017722 1359.38613,91.5218233" id="Path-2319" stroke="#979797" stroke-width="6"></path>
                <path d="M1321.29953,141.127632 C1329.43682,128.37642 1330.59695,128.695199 1346.15758,123.467844" id="Path-2320" stroke="#979797" stroke-width="6"></path>
                <path d="M1358.17305,140.480992 C1347.58534,141.001699 1317.93678,147.043391 1315.18402,155.809869 C1314.36156,158.42909 1316.65442,161.099952 1317.38961,163.744994" id="Path-2321" stroke="#979797" stroke-width="6"></path>
                <path d="M1350.6239,142.616408 C1355.19795,152.493165 1354.81717,154.2823 1365.4465,147.724363 C1368.00315,146.146993 1371.20893,144.830562 1372.5044,142.120149 C1376.95613,132.806112 1368.11856,127.068934 1370.13338,118.460144" id="Path-2322" stroke="#979797" stroke-width="6"></path>
                <path d="M1327.25463,111.813286 C1322.36724,112.787423 1317.35722,113.275388 1312.59245,114.735698 C1307.97455,116.150994 1304.03988,121.042959 1299.25362,120.395051 C1294.71784,119.781049 1292.07153,114.695243 1288.78206,111.512523 C1287.86825,110.628363 1286.9264,109.547422 1286.74189,108.289349 C1286.65062,107.667084 1287.66088,107.430504 1288.12038,107.001081" id="Path-2323" stroke="#979797" stroke-width="6"></path>
                <path d="M1323.67054,148.566499 C1302.29391,162.145574 1306.49516,152.563966 1309.0635,176.346955" id="Path-2324" stroke="#979797" stroke-width="6"></path>
                <path d="M1317.72045,153.874962 C1322.00131,157.462393 1326.28217,161.049825 1330.56302,164.637257" id="Path-2325" stroke="#979797" stroke-width="6"></path>
                <path d="M1498.49393,501.842468 C1515.58058,464.056258 1512.92137,435.883022 1516.13366,393.658094 C1518.14523,367.216475 1524.33306,337.429263 1535.75342,313.549925 C1538.1829,308.470034 1542.03622,304.08773 1544.01939,298.817562 C1544.33099,297.989484 1542.25491,298.683889 1541.37267,298.617053" id="Path-2326" stroke="#979797" stroke-width="6"></path>
                <path d="M1544.46051,272.029623 C1533.54455,280.577966 1520.88882,289.663474 1514.92059,302.832745 C1512.38663,308.42408 1519.33992,311.092375 1523.02113,308.687594 C1526.16711,306.632458 1528.86261,303.958934 1531.78335,301.594605" id="Path-2327" stroke="#979797" stroke-width="6"></path>
                <path d="M1550.13991,280.065002 C1526.65995,250.902951 1568.9498,246.502019 1583.86544,238.795335" id="Path-2328" stroke="#979797" stroke-width="6"></path>
                <path d="M1577.30882,245.392065 C1601.59817,210.963866 1647.99793,218.811239 1676.95654,188.748407 C1773.72374,88.2913763 1631.43341,230.527683 1699.88469,166.672418 C1700.5499,166.051873 1699.95821,164.854474 1699.99497,163.945502" id="Path-2329" stroke="#979797" stroke-width="6"></path>
                <path d="M1699.60899,165.384151 C1708.28774,154.406353 1718.81718,142.053319 1735.21429,145.739328 C1803.79313,161.155593 1699.61665,147.732714 1749.70604,153.529085" id="Path-2330" stroke="#979797" stroke-width="6"></path>
                <path d="M1741.71578,151.940054 C1766.33812,181.88894 1724.03725,205.549766 1718.95305,233.090867 C1717.05083,243.39519 1726.22831,240.080379 1732.01618,249.161625 C1735.09692,253.995357 1729.46782,264.757796 1728.04611,268.360317" id="Path-2331" stroke="#979797" stroke-width="6"></path>
                <path d="M1735.71055,245.196569 C1769.30868,273.757088 1712.01228,280.625671 1706.77216,296.882654 C1702.17611,311.141435 1719.53849,319.530799 1714.65715,333.239862 C1713.31214,337.017283 1709.49561,339.459469 1706.33104,341.921882 C1693.04844,352.257335 1681.24088,346.494639 1670.17935,334.778765 C1666.13309,330.493147 1666.22655,322.424293 1661.02614,319.650397 C1658.304,318.19841 1657.82582,325.408438 1655.02091,326.693259 C1651.23913,328.425545 1646.7509,328.565328 1642.61945,328.081781 C1640.86427,327.876352 1639.59413,326.137308 1638.48898,324.758352 C1634.07708,319.253413 1642.67065,310.176369 1641.13068,310.176369" id="Path-2332" stroke="#979797" stroke-width="6"></path>
                <path d="M1624.48847,295.789883 C1623.20621,302.915661 1617.76934,320.265957 1623.60623,328.427658 C1624.98492,330.355465 1640.49037,336.352493 1640.79984,329.670811" id="Path-2333" stroke="#979797" stroke-width="6"></path>
                <path d="M1595.49494,330.116942 C1581.69226,332.685146 1575.84908,316.805863 1577.52937,305.063402 C1577.829,302.96949 1581.67729,298.275674 1579.73497,299.113312 C1571.27987,302.759624 1569.58526,313.743219 1558.51615,314.938447 C1554.38795,315.384205 1549.95452,316.377223 1546.05956,314.938447 C1543.90859,314.143887 1543.09803,311.255196 1542.53061,309.033471 C1541.75264,305.987313 1542.03231,302.751497 1542.14463,299.60957 C1542.21695,297.58653 1542.13183,295.396831 1543.08201,293.609353 C1543.86604,292.134439 1545.69196,291.524064 1546.99694,290.48142" id="Path-2334" stroke="#979797" stroke-width="6"></path>
                <path d="M1662.95603,332.397727 C1609.12628,389.923539 1649.32921,465.398023 1687.59352,519.597498 C1697.11071,533.078129 1724.97733,566.144147 1732.56758,581.755141 C1753.58031,624.972404 1730.41511,601.38008 1732.84328,632.548963 C1732.91818,633.510467 1734.57276,635.990135 1734.05635,635.175624 C1733.17423,633.784278 1732.51244,632.264909 1731.74048,630.809551" id="Path-2335" stroke="#979797" stroke-width="6"></path>
                <path d="M1557.41336,546.881695 C1573.12603,506.927088 1550.10377,461.972549 1569.86995,423.26819" id="Path-2336" stroke="#979797" stroke-width="6"></path>
                <path d="M1495.73693,489.390889 C1504.43555,506.52636 1510.35399,521.798237 1522.85571,536.1194 C1527.88584,541.881585 1537.09318,541.201255 1543.35771,542.911627 C1552.1865,545.322104 1570.16707,558.207183 1572.62694,560.325792 C1606.05018,589.112189 1604.83876,595.290517 1628.67409,635.521502" id="Path-2337" stroke="#979797" stroke-width="6"></path>
                <path d="M1706.05534,165.88041 C1705.66508,141.766973 1715.27994,113.809825 1722.26144,91.5218233 C1724.08101,85.7129628 1727.92327,80.5714361 1729.14891,74.6089292 C1761.04266,-80.5477613 1719.72297,59.7877038 1736.26195,44.40232 C1742.29013,38.7946049 1739.15151,27.3848639 1732.51244,23.9153615 C1721.5845,18.2045462 1710.62598,30.2607294 1720.16613,38.5474711 C1725.12181,42.852068 1728.18119,41.8134981 1734.60775,42.2167771" id="Path-2338" stroke="#979797" stroke-width="6"></path>
                <path d="M1712.89268,64.4381343 C1719.148,64.4063276 1760.91892,61.4190057 1739.89617,60.4730783" id="Path-2339" stroke="#979797" stroke-width="6"></path>
                <path d="M1706.8273,89.0956702 C1708.30152,88.2670973 1731.91993,80.7595282 1723.75022,80.7595282" id="Path-2340" stroke="#979797" stroke-width="6"></path>
                <path d="M1720.60725,96.3340279 C1733.16879,96.8614544 1725.44611,97.1905546 1743.53539,92.8652304" id="Path-2341" stroke="#979797" stroke-width="6"></path>
                <path d="M1708.97775,108.138967 C1719.55959,106.750446 1730.14143,105.361924 1740.72326,103.973403" id="Path-2342" stroke="#979797" stroke-width="6"></path>
                <path d="M1730.91338,73.2705348 C1690.21198,74.4937862 1690.61179,83.8851382 1691.61873,52.8838306" id="Path-2343" stroke="#979797" stroke-width="6"></path>
                <path d="M1729.09377,69.8969789 C1759.12398,69.4132132 1752.3215,77.5834222 1756.37797,53.3800892" id="Path-2344" stroke="#979797" stroke-width="6"></path>
                <path d="M1305.64984,458.738148 C1311.54646,474.27923 1318.64374,489.416386 1323.33971,505.361393 C1328.28766,522.161994 1315.95498,540.31014 1319.20923,557.05249 C1319.48516,558.47209 1319.82895,560.240197 1321.07897,560.967419 C1321.89354,561.441312 1321.07897,559.082639 1321.07897,558.140249" id="Path-2345" stroke="#979797" stroke-width="6"></path>
                <path d="M1201.48065,630.167924 C1183.01823,618.999546 1202.40474,580.774113 1209.47593,570.987833 C1213.77393,565.039546 1221.05054,561.848303 1227.49663,558.340758 C1263.30318,538.857143 1272.20582,547.568031 1299.14334,576.942936" id="Path-2346" stroke="#979797" stroke-width="6"></path>
                <path d="M1286.96245,585.123684 C1299.16446,562.99366 1330.24288,549.756658 1354.75438,552.982167 C1366.6186,554.543401 1374.9314,572.187443 1379.88812,580.166111" id="Path-2347" stroke="#979797" stroke-width="6"></path>
                <path d="M1371.07076,580.612242 C1386.4513,575.227405 1356.34981,586.257603 1387.87839,570.296078 C1430.54908,548.693789 1436.54439,591.283764 1461.84598,614.242534 C1463.15424,615.429649 1465.54275,614.663109 1467.13439,613.896657 C1474.06024,610.56153 1479.48456,603.870438 1486.97471,602.141845 C1537.37131,590.511215 1517.62104,604.056385 1564.4111,613.250017 C1606.90053,621.598631 1597.0839,600.287614 1611.03936,635.671883" id="Path-2348" stroke="#979797" stroke-width="6"></path>
                <path d="M1617.5208,468.232227 C1617.5208,447.93044 1637.64801,433.470526 1655.22142,428.546577 C1662.1873,426.594782 1685.75574,419.486659 1688.78654,433.408909 C1690.50679,441.310987 1693.68119,449.476997 1686.96693,455.08388 C1680.23999,460.701345 1660.48982,463.831442 1665.85839,470.758634 C1675.91205,483.73109 1702.30656,455.049314 1711.65955,482.122455 C1712.19643,483.676489 1712.76715,485.503625 1712.15581,487.029901 C1708.12886,497.083617 1687.02653,494.864818 1685.75385,496.849806 C1683.18051,500.863422 1689.40518,505.702737 1690.49588,510.34403 C1691.05945,512.742231 1691.4119,515.386372 1690.6613,517.732769 C1685.46481,533.977061 1648.95986,550.54401 1639.67699,534.254671 C1635.6958,527.268574 1637.17533,517.815031 1632.6241,511.186165 C1631.15544,509.047049 1630.06096,515.761812 1628.26806,517.637527 C1623.00899,523.139512 1617.74331,528.759096 1611.57071,533.212027 C1607.98411,535.799409 1602.57018,541.543396 1599.38982,538.470363 C1592.92756,532.226193 1592.83655,521.686099 1590.62759,512.975704 C1589.48919,508.48675 1593.10016,501.939654 1589.41452,499.135603 C1586.55917,496.96324 1583.76031,503.594129 1580.65229,505.386456 C1578.45196,506.655344 1576.06521,507.669999 1573.59439,508.258741 C1559.40367,511.640082 1544.63475,511.900253 1536.22963,498.193213 C1534.09697,494.715268 1532.29073,490.982643 1531.10163,487.080028 C1526.18894,470.956662 1541.87436,471.635467 1553.14754,472.498046 C1556.20155,472.731726 1561.61792,477.452726 1562.13032,474.432953 C1562.88579,469.980671 1556.46043,467.252221 1554.74659,463.074145 C1553.4337,459.873492 1552.85705,456.239265 1553.25782,452.803096 C1554.91707,438.576929 1580.52012,442.911328 1585.94071,445.910615 C1594.87602,450.85465 1600.82178,459.899427 1608.26232,466.893832 L1617.5208,468.232227 Z" id="Path-2399" fill="#B7B7B7"></path>
                <path d="M1558.51615,469.946575 C1548.67398,466.303214 1548.42466,465.284409 1536.35996,465.78101 C1524.03285,466.288412 1538.40519,485.452251 1543.41285,487.310613 C1554.86554,491.560746 1566.16211,488.244335 1577.52937,485.77171" id="Path-2349" stroke="#979797" stroke-width="6"></path>
                <path d="M1567.00268,472.37774 C1558.09342,456.803283 1557.87353,445.313367 1582.2714,447.925726 C1590.74458,448.832976 1609.09572,466.025323 1612.14216,468.162049 C1613.60221,469.186108 1609.86305,465.418424 1608.72349,464.046611" id="Path-2350" stroke="#979797" stroke-width="6"></path>
                <path d="M1615.89167,468.708434 C1616.40081,438.4837 1641.23702,418.036235 1669.18683,414.937061 C1672.14713,414.608813 1696.02379,410.695885 1698.06507,420.491147 C1704.45216,451.140052 1695.55144,454.530714 1669.68309,472.427868 C1668.70594,473.103913 1670.34477,470.145412 1670.67561,469.004185" id="Path-2351" stroke="#979797" stroke-width="6"></path>
                <path d="M1675.19206,481.455764 C1682.59584,479.47073 1689.77262,476.226925 1697.4034,475.500661 C1701.54223,475.106744 1705.68767,476.732808 1709.58429,478.182462 C1737.40401,488.532198 1704.31774,508.300897 1695.03238,496.784641" id="Path-2352" stroke="#979797" stroke-width="6"></path>
                <path d="M1641.73722,509.431716 C1642.72973,516.210575 1640.92387,524.061535 1644.71477,529.768293 C1658.20041,550.069341 1690.42848,519.686758 1690.68135,504.223507 C1690.70647,502.687343 1687.63028,504.587764 1686.10474,504.769893" id="Path-2353" stroke="#979797" stroke-width="6"></path>
                <path d="M1591.75044,490.433533 C1588.02098,494.020965 1583.19828,496.742861 1580.56207,501.195828 C1568.51572,521.543954 1596.69382,524.724776 1608.39265,525.602728 C1621.49625,526.586104 1626.47014,516.159067 1631.15538,506.35391" id="Path-2354" stroke="#979797" stroke-width="6"></path>
                <path d="M74.9335291,607.851325 C67.4697962,587.360828 94.9140344,577.332343 111.310788,576.702326 C126.016044,576.137302 140.7573,575.677863 155.457753,576.356449 C164.938903,576.794107 175.030882,584.49406 183.012637,587.314239 C207.424265,595.939558 219.51205,597.169056 244.082521,597.38478" id="Path-2396" stroke="#979797" stroke-width="6"></path>
                <path d="M222.808566,611.124627 C254.986227,611.531678 257.097085,614.129176 289.552841,602.988993 C298.022937,600.0817 305.413329,594.629209 313.638928,591.088812 C334.190575,582.243136 364.576121,574.621047 386.939832,578.587106 C442.843241,588.501213 476.335198,633.294374 537.125729,616.683726" id="Path-2397" stroke="#979797" stroke-width="6"></path>
                <path d="M707.984056,583.745188 C679.049853,582.722261 650.647418,607.784582 640.412683,632.899853" id="Path-2398" stroke="#979797" stroke-width="6"></path>
                <path d="M0.5,655 C58.8333333,589 113.333333,564.166667 164,580.5 C240,605 324.5,594 355.5,580.5 C376.166667,571.5 448.333333,592.833333 572,644.5 C555.333333,661.5 483.166667,670 355.5,670 C227.833333,670 109.5,665 0.5,655 Z" id="Path-14" fill="#B2B2B2"></path>
            </g>
        </g>
    </g>
</svg>