<?xml version="1.0" encoding="utf-8"?>
<svg version="1.1" xmlns="http://www.w3.org/2000/svg" xmlns:xlink="http://www.w3.org/1999/xlink" height="1154.5896268688757" width="2160.5506604104503">
  <defs>
    <path id="path-0" opacity="1" fill-rule="evenodd" d="M2024.9558515080316,46.02598005005062 C1786.7513463824544,65.68847576851165 1859.4943317267644,126.02703679166052 1849.8640031112518,137.37322800877882 C1838.0639637855486,151.27571336564307 1813.892322512475,147.88138172771795 1807.5983781112523,157.70916550877888 C1793.540981373916,179.6593205867762 1793.829301922829,209.90226225228417 1779.254628111252,228.5997905087788 C1766.3647985036453,245.13586921801115 1742.9200194482494,256.14682787519683 1738.7077531112518,276.68572800877905 C1729.9461337212992,319.407154258138 1709.902682305721,320.91050230545125 1686.996815611252,351.75604050877865 C1664.110591485469,382.5751276019647 1669.063230938827,427.1149443396615 1638.6374406112518,452.17791550877934 C1636.716462845882,453.76030366802274 1600.8806876643441,475.5660177532138 1593.7077531112518,486.03729050877905 C1583.421580648913,501.05336470640253 1576.0286190145086,517.9159292475229 1565.7936906112518,532.966978008779 C1553.8692909799568,550.5024910312459 1539.955345215685,556.8532967272413 1536.3327531112516,578.7326030087793 C1533.5923218023825,595.2839381361564 1531.715586200621,611.9753904927708 1530.0593156112516,628.6701030087794 C1529.6217392444676,633.0807420034869 1527.752493224493,638.1823010219873 1530.0593156112516,641.966978008779 C1537.8534254784138,654.7543466489036 1589.6796373983793,655.6879641285717 1600.2390031112518,653.8732280087792 C1617.6676428060687,650.8779361671037 1634.167127121559,643.8340118352413 1651.3483781112518,639.6466655087792 C1664.85431854249,636.3550512902284 1678.9661036211262,635.5835788279888 1692.239003111252,631.4513530087792 C1719.3781209576605,623.0021845690621 1757.6762735038858,604.3246368069391 1789.1296281112523,597.1310405087792 C1904.4926776204904,570.746725822684 1741.935421916765,611.653875723015 1885.160878111252,583.1388530087793 C1904.460484009971,579.2964585406445 2088.9461672060875,533.551931594579 2108.073843058804,528.9290753813673 C2129.9130905398865,523.6508752650973 2058.2926238819227,43.274209491708824 2024.9558515080316,46.02598005005062Z"/>
    <path id="path-1" opacity="1" fill-rule="evenodd" d="M1655.6278282618625,470.4408191254266 C1651.0900678451958,462.9291003754264 1650.660881302829,449.4083576238786 1642.0145470118625,447.9056628754261 L1639.9520470118625,445.7376941254261 C1627.5897367688333,443.58917915297707 1604.401402711932,463.0812192895469 1606.3661095118625,476.77675662542606 C1606.5023141538927,477.7262091138649 1607.2045677027277,478.57901338618916 1607.9559532618625,479.17519412542606 C1612.6872927862412,482.92923685479786 1627.1329181594567,485.63854555727295 1622.6864220118625,489.72597537542606 C1616.6165334915815,495.30570433664064 1606.1644025728308,487.2517441421561 1597.9911095118625,488.3353503754261 C1595.109010097071,488.7174559560624 1577.3430691744218,498.4663851142044 1575.2293907618625,501.94081912542606 C1573.7421377319677,504.3855441506024 1574.7283241905345,507.752277431887 1575.4442345118625,510.5228503754261 C1576.070157154184,512.9451710012107 1577.0120607314539,515.7351974091282 1579.1356407618625,517.0580066254261 C1581.6255195007393,518.6089886916009 1588.7771520894435,515.4687988729899 1587.8543907618625,518.2533191254261 L1594.2957970118625,516.7455066254261 C1590.6687772759894,527.6903843621219 1569.8195374694583,518.0835577133982 1568.6981407618625,529.0775378754261 C1568.5266746953967,530.7585616562322 1568.4745543940064,532.8058497078252 1569.6004845118625,534.0658191254261 C1575.9918640180467,541.2180771442512 1617.510937953316,536.6245764624889 1604.4754845118625,530.3548816254261 "/>
    <path id="path-2" opacity="1" fill-rule="evenodd" d="M1837.2819718612513,307.30291550877223 C1814.4612257012984,308.59559394048995 1823.4927816520524,307.1762291068948 1792.7429093612513,315.7286967587718 C1789.389213247497,316.6614608774601 1785.923616030248,317.504457164893 1782.9108781112513,319.2482280087718 C1776.5894294686475,322.90707857275316 1770.2400410477726,326.76639113002284 1764.9577531112513,331.8107280087718 C1756.4179215918914,339.9658660075117 1786.9242056368857,352.65947080889885 1791.5866593612513,353.5724467587718 C1800.1997386981416,355.25901240720583 1810.876990148243,351.92776700528293 1817.6140031112513,357.5529155087717 C1821.4355116199865,360.74372915081386 1815.892968157728,367.52592034426505 1813.5749406112513,371.9318217587717 C1806.9509598780412,384.52209754150465 1786.2372083419261,392.93639871262167 1773.3757218612513,384.92010300877183 C1763.9987436089605,379.07562845352675 1763.2728586659255,371.8294580389149 1751.1686906112513,375.4904155087717 C1748.7703264815407,376.21581101191083 1747.301289049454,378.73476506643846 1745.7585343612513,380.70916550877166 C1740.1244949081993,387.919547090038 1737.0478750989146,397.52272485636365 1729.6960343612513,402.9708842587717 C1720.7071079663635,409.63222331702616 1708.8742541440417,390.2208688229549 1702.7233781112513,410.2013530087717 C1701.1949677276114,415.16623595177924 1708.01319612484,419.1712092166679 1710.1100968612513,423.9240092587718 C1711.1536844558807,426.2893873987887 1709.5526497041296,430.9112872380358 1712.0866593612513,431.4240092587717 C1717.6917907150737,432.5581305381225 1723.1797606568382,428.55165724510425 1728.8366593612513,427.71307175877166 C1736.1606433207273,426.62735554367345 1743.5737129408872,426.2565497584943 1750.9538468612513,425.6622905087718 C1752.0674301199515,425.57262314514946 1753.686655377786,424.7321015934959 1754.3054093612513,425.6622905087718 C1755.283814946048,427.1331530065372 1754.8905533669952,429.2416316067524 1754.4772843612513,430.9591655087717 C1753.267892143371,435.98536419819123 1750.4509514878291,440.5658262541584 1749.4968156112513,445.6466655087717 C1747.8213821228844,454.5684642223065 1754.3005964192125,453.089696552159 1745.9733781112513,460.4904155087718 C1731.9677163215315,472.9377854315695 1707.0184040022887,468.40979271496724 1699.1569718612513,485.3458842587718 C1698.67369640115,486.3870173864655 1697.2394030237997,489.1981983381786 1698.2585343612513,488.6701030087718 C1699.7268775967482,487.909234241287 1700.003326027918,485.8602071754384 1700.8757218612513,484.4552592587718 "/>
    <path id="path-3" opacity="1" fill-rule="evenodd" d="M1915.4499406112511,63.396665508778256 C1889.1943106882773,64.44628223223346 1859.6927605379665,76.07912504181806 1854.0749406112511,105.295103008778 C1850.3757552805432,124.53304913868436 1857.4737198620571,138.52986463495273 1840.6335343612511,152.25994675877823 C1818.865180744805,170.00804596112815 1812.498925972602,154.58904502981204 1796.2663468612511,157.47869675877826 C1795.4173395079242,157.62983328179266 1794.5753777753991,158.51378038407097 1794.5046281112511,159.37322800877826 C1794.4311720880617,160.26555174502295 1795.4499406112511,160.8940613421116 1795.9225968612511,161.65447800877826 "/>
    <path id="path-4" opacity="1" fill-rule="evenodd" d="M1796.0944718612516,160.72479050877826 C1790.483560069125,188.73495056304432 1792.4175745550835,173.74300239000027 1791.1140031112516,205.79900925877826 "/>
    <path id="path-5" opacity="1" fill-rule="evenodd" d="M1828.3483781112511,176.72869675877826 C1816.1514613156198,187.66356546641347 1772.8995859782146,217.6961057482873 1767.5749406112511,239.50213425877777 C1765.2135266759021,249.1728364465288 1766.8327531112511,259.3979675921111 1766.4616593612511,269.3458842587778 "/>
    <path id="path-6" opacity="1" fill-rule="evenodd" d="M1770.8405656112516,259.45135300877223 C1760.0893355203264,267.58406128199607 1746.046350295605,276.74801908151 1747.4772843612516,292.6154155087718 C1747.954762978052,297.9100986672794 1756.4542545896722,306.0089566205894 1750.3952531112516,311.67010300877183 C1738.5553674583166,322.73254062977674 1719.822061354656,320.3781683727381 1709.7663468612516,333.2013530087718 C1702.9532474429172,341.88951055762186 1714.3977525424812,354.5284814506118 1706.1608781112516,361.72869675877183 C1703.2569482764934,364.26714993353096 1699.3812498877517,370.87512026891886 1696.5827531112516,368.22088425877183 C1689.8165078168543,361.8034346963187 1691.9320608168262,352.8897416762795 1693.3171281112516,345.4943217587718 "/>
    <path id="path-7" opacity="1" fill-rule="evenodd" d="M1715.7780656112516,327.32635300877274 C1709.0464297794285,324.36773205359145 1700.4390924938562,321.6283250221178 1695.0358781112518,316.0021342587723 C1690.5887719246555,311.37150775037446 1689.13912734555,302.96368729148304 1683.0515031112516,300.9240092587723 C1679.5683842725712,299.75697911578965 1682.3288217009285,308.31841882005824 1682.9225968612516,311.9435405087723 C1684.0166092702527,318.6227153490171 1687.652979500614,327.1453251223823 1691.7272843612516,332.7755717587723 C1696.301204202644,339.09623201444276 1708.7338674223276,343.6904756434385 1706.2897843612516,351.0997905087723 C1704.243612515796,357.30282497720293 1693.8040408803088,347.16179993460514 1687.3913468612516,345.9201030087723 C1684.0992293622967,345.2826467125909 1680.5680429950098,344.58449875741616 1677.3405656112516,345.4943217587723 C1671.5430669719517,347.1286314642129 1656.6198709038988,349.27521136243354 1661.0632218612516,353.3419780087723 C1678.1314091997392,368.963596838309 1744.1433216076807,325.86860130893575 1642.2936906112516,375.6427592587723 C1641.015863048657,376.2672366408796 1639.6752727990627,377.1223862162601 1639.0280656112516,378.38885300877234 C1638.4237237580066,379.571440135236 1637.6319938362203,381.8544590166126 1638.8561906112516,382.3693217587723 C1641.9316118462045,383.662757456872 1645.668082956267,383.4833222693332 1648.8640031112516,382.5255717587723 C1662.488237144965,378.44267341682286 1675.4655656112516,372.450050925439 1688.7663468612516,367.4122905087723 "/>
    <path id="path-8" opacity="1" fill-rule="evenodd" d="M1718.5656802879596,461.0479372407269 C1710.8559498705827,465.18867548094624 1694.6682064725533,474.0654104126903 1700.1438052879596,486.25106224072647 C1702.904318132712,492.3944356921063 1715.048347785263,502.2558459733148 1706.8859927879596,510.71981224072647 C1692.3620452094133,525.7804414849928 1678.3883156391196,538.3202749382223 1660.0266177879596,548.7940309907265 C1649.8311962493538,554.6096346954275 1634.8550869746819,557.1619844620817 1627.4289615379596,567.8135622407265 C1625.101785954043,571.1515198268014 1623.844249522642,576.3408130057827 1625.7961490379596,579.9112184907265 C1628.8080437805122,585.4205622988956 1635.590419871293,587.7705934907265 1640.4875552879596,591.7002809907265 "/>
    <path id="path-9" opacity="1" fill-rule="evenodd" d="M98.52224973672092,61.051882677004556 C109.03006223672095,60.27844517700441 119.67933449379946,56.84714455870885 130.045687236721,58.73157017700411 C170.491081698163,66.08385109540545 231.75163620755228,133.36176766695854 254.936312236721,169.98157017700413 C272.8896048417851,198.33849130781385 275.78251118643146,230.27635016162984 298.49099973672065,255.6378201770038 C327.99612285313094,288.58996023509815 368.803870988541,277.9076327073212 391.8581872367216,298.7784451770035 C412.470420931073,317.4384678549712 406.5506296565005,348.48466820804816 425.78787473672065,366.03625767700333 C442.3885713960676,381.1823251855522 466.5441164243803,367.70782477078325 481.10818723672145,383.0440701770042 C512.0251742747599,415.6002494585908 514.0100911705161,477.88011911315414 560.2253747367216,496.2237576770043 C583.1545397705744,505.3247364765682 622.8087174812008,485.8125349324234 640.6238122367207,494.0596951770045 C646.8997528190995,496.9650228431577 674.215879324546,524.3271135555091 682.8816247367221,530.395632677004 C698.3141078857736,541.2028182828246 694.6365362532467,531.0283705105429 709.1706872367217,546.2393826770032 C713.8804946063519,551.1685276461579 715.4535870435483,559.7351124306231 721.9675622367208,563.4034451770042 C729.9924028183359,567.9226188945946 739.1822623435719,570.393915462316 746.7097497367218,575.7003201770035 C777.3076988965867,597.2699480224683 757.5732831844463,598.5093539565058 793.9519372367203,602.8331326770045 C812.4985129134466,605.0374827646663 843.9347834748767,602.1981970621355 860.6941247367214,596.9581326770038 C888.0365869760049,588.4090936459734 908.1683592319789,547.9153615136088 936.8894372367222,540.9112576770038 C952.5628370186024,537.0890432208895 969.2122252752231,540.732354474874 985.2488122367201,538.973757677004 C1020.4347063176037,535.11521839995 978.7413436630609,530.6784088081142 1018.4909997367198,533.1768826770038 C1031.107128595432,533.9698723879492 1043.1163117894985,561.5935707930528 1046.7488122367204,566.8096951770036 C1059.2883502282286,584.815966843394 1078.91797239047,594.1999507954692 1095.2800622367215,607.6221951770035 C1100.5150779323924,611.916613595967 1103.7665297149335,618.5548530353904 1109.5456872367224,622.0831326770041 C1143.628669367845,642.8914064652425 1126.4097816490212,623.9088897960162 1164.8581872367215,629.8096951770036 C1179.3286372772743,632.0305235354085 1210.850830164183,658.9163710174422 1227.1394372367224,642.1846951770037 C1240.0452207418152,628.9278595794324 1214.7637588158918,603.1814153035554 1239.07693723672,598.4268826770041 C1255.5918281755685,595.1973342225155 1265.591953397582,605.9368614386697 1283.0534997367224,610.4112576770034 C1294.0776989851915,613.236129809744 1305.448996360653,614.8720007260235 1316.811312236721,615.5128201770037 C1354.5869783299536,617.643317328318 1397.0652940739017,612.2128485096912 1432.6941247367222,599.1221951770037 C1476.786318187867,582.9219548545211 1504.3317667433416,575.6757790190973 1537.319124736721,549.1768826770037 C1547.1593723103522,541.2721665585881 1556.9500624693685,533.1148547372403 1565.2331872367213,523.5909451770042 C1575.853503258424,511.379740814795 1569.258662713089,506.7930222868285 1582.0691247367217,499.16125767700333 C1589.8861215029879,494.5043234332704 1618.3850914303243,497.4282681784079 1618.8347497367215,497.23157017700396 C1643.2852675108593,486.53596440027513 1663.629744074075,468.14695071119365 1686.8659997367226,455.020632677004 C1700.134321300528,447.5252680556558 1714.680017713468,442.51567163748075 1728.186312236721,435.458132677004 C1748.246038427093,424.976183028912 1747.9513335795439,379.67344347842646 1757.6472497367208,376.70813267700385 C1779.8478826944192,369.9184930348386 1796.3527347700362,383.6341422748801 1818.3738122367236,380.2628201770041 C1834.9996873942362,377.7174778612229 1847.8457515991468,363.5353551505271 1864.0769372367226,358.6925076770041 C1922.2034784207879,341.34947560261276 1936.3187749661267,346.6401099470227 1996.0144372367238,343.07532017700396 C2001.9483946904197,342.7209676156607 2061.232805177383,342.5757285792499 2072.6863122367204,344.1456326770043 C2075.5032290571726,344.53174055091097 2088.0705068345833,851.2715532496874 2086.686312236721,894.1456326770042 C2086.5804997497976,897.4230713954416 5.117875587004526,909.6271260904504 2.686312236720855,882.1456326770041 C2.2754285310139855,877.5018310459427 -6.077944270598148,267.08559284225885 8.928858866376531,131.9498466856288 C11.117350990518675,112.2425503711203 98.52224973672092,61.051882677004556 98.52224973672092,61.051882677004556Z"/>
    <path id="path-10" opacity="1" fill-rule="evenodd" d="M118.52615598672105,539.5089139270035 C123.35519758288693,530.210912488012 135.72793205509004,504.3775835074389 148.07693723672105,502.3995389270035 C192.9029072217828,495.21938427587395 176.0946799259888,518.6546744052134 204.20974973672105,498.7276639270035 C221.66701426507097,486.35454532836076 210.12287806168825,460.78236482939207 237.11209348672102,459.9971951770035 C269.4935900795241,459.05515340130927 287.3838760619883,459.18972980038774 314.89334348672105,472.5596951770035 C315.3549651892615,472.7840494360217 315.9975344613959,473.23410002343076 316.39334348672105,472.9073514270035 C316.80102250498845,472.57080390411085 316.39334348672105,471.8500597603369 316.39334348672105,471.3214139270035 "/>
    <path id="path-11" opacity="1" fill-rule="evenodd" d="M154.94803098672105,463.2042264270042 C172.07694200432374,445.97234495634217 187.93760613031304,432.8220483473307 214.34646848672105,432.9386014270042 C257.30941947889477,433.1282144509361 255.2964776379352,425.2462910187272 257.20974973672105,442.4464139270042 "/>
    <path id="path-12" opacity="1" fill-rule="evenodd" d="M283.75271848672105,518.2862576770042 C319.1523814401684,485.00884205396335 345.19198212915455,499.21030005278385 383.69803098672105,527.4854764270042 C388.5217901645002,531.0275859288902 391.839343920626,536.4708789025078 396.92459348672105,539.6261014270042 C424.7658471112462,556.9006421166122 415.0769815443806,541.270460159212 422.17849973672105,554.2745389270042 "/>
    <path id="path-13" opacity="1" fill-rule="evenodd" d="M352.85818723672054,551.376101427004 C330.07412843473435,577.2366517847386 358.59659644278304,562.2663292628556 382.15115598672054,573.833132677004 C389.3212897938693,577.3541294524149 396.8029252222811,603.9231130059768 411.6120934867206,598.223757677004 C414.508754379517,597.1089685544285 415.0759810741834,592.792128266696 417.7566247367206,591.227663927004 C428.071440831323,585.2077806519503 416.84455826081603,599.9878658138039 424.1980309867206,588.833132677004 "/>
    <path id="path-14" opacity="1" fill-rule="evenodd" d="M355.04959348672105,554.0831326770037 C360.83191077987607,548.0048484323507 364.5087214247499,547.7281869342718 372.78787473672105,548.0909451770037 "/>
    <path id="path-15" opacity="1" fill-rule="evenodd" d="M412.21365598672105,528.840945177004 C429.0942896657305,528.840945177004 446.53711571397713,530.1377219701341 457.52615598672105,545.383913927004 C460.41612755324,549.393459816314 460.63064610583064,554.8681236811753 463.23709348672105,559.067507677004 C469.71243336575344,569.500267169839 482.46369569096976,575.6501643315635 475.13553098672105,591.305788927004 "/>
    <path id="path-16" opacity="1" fill-rule="evenodd" d="M263.95193723672065,591.809695177004 C255.1326638508952,603.3730008885443 248.37865516275065,605.6569539324661 252.18631223672062,620.141726427004 C257.4305086245676,640.0912623539464 312.5919496247615,658.026029647407 327.9050622367206,646.348757677004 "/>
    <path id="path-17" opacity="1" fill-rule="evenodd" d="M254.20584348672105,602.1690701770036 C280.7792272570532,575.9708400598996 323.6595408859471,552.2157144537621 353.84646848672105,589.4893826770036 "/>
    <path id="path-18" opacity="1" fill-rule="evenodd" d="M219.50271848672077,606.8839139270043 C196.3908328808154,601.2041441524708 121.37855718099107,611.4034984697672 146.44412473672077,655.5089139270043 "/>
    <path id="path-19" opacity="1" fill-rule="evenodd" d="M535.865999736721,641.0909451770038 C554.495374547677,638.6382335184759 562.0026321325695,639.8320341107246 579.803499736721,646.3878201770038 "/>
    <path id="path-20" opacity="1" fill-rule="evenodd" d="M337.39724973672105,603.6768826770043 C341.78783867445367,611.7242908943824 344.28512451992805,620.4232357421098 353.84646848672105,624.0089139270038 C391.4842269755788,638.1237590795809 442.41131234237787,612.3649707098804 474.31912473672105,603.2120389270038 C487.8716130741004,599.324432979369 501.5672289300992,595.7028519350981 515.5066247367212,593.5870389270038 C546.7242652389348,588.8486205068012 594.4330814072547,585.1276402715094 623.311312236721,602.4386014270038 C637.6970350894698,611.0620760078476 648.8114892869487,624.259007553187 662.135530986721,634.4464139270038 C665.7894840953752,637.2401837175447 669.6663927873274,640.1361519663805 674.1199059867209,641.2862576770038 C702.9826439503929,648.7399685497516 729.8230783554739,635.7753190610922 759.244905986721,636.1065701770038 C766.1485920810712,636.1842966102942 781.3846043271562,649.6548502150512 783.080843486721,650.5245389270038 C789.8117963439522,653.9756051800207 797.4613515038695,655.2746128712238 804.428499736721,658.2198514270038 C808.0988634307398,659.771432691543 811.0528013794077,662.958320827723 814.905062236721,663.9776639270038 C815.9981313932035,664.2668999219085 814.248812236721,661.8136014270038 813.920687236721,660.7315701770038 "/>
    <path id="path-21" opacity="1" fill-rule="evenodd" d="M853.819124736721,615.1964139270049 C804.8968964900328,605.352907237529 754.2420819835747,604.9247082994427 705.987093486721,591.8487576770043 C592.7598207735487,561.1668681308622 676.8832118990999,583.1614953137464 573.0613122367207,543.6456326770042 C551.9712515205048,535.6185021296662 524.5122811094354,535.251056528488 503.52615598672094,531.7042264270043 C482.11696558166847,528.0858947658228 452.53423921018094,516.2586738357295 435.02224973672116,509.1690701770043 C384.4763855918431,488.70593867969217 349.26777433681565,442.1403212521349 299.34646848672105,422.30969517700436 C260.4185341322569,406.8460510091476 219.30782705902098,400.29891254601137 179.85818723672105,386.28625767700436 C167.44645734857468,381.8775662913958 167.75125709999165,376.98583343991237 155.16287473672108,368.50500767700436 C136.9890455817222,356.2612519615671 116.69658022945976,364.8628568943521 102.80740598672105,377.20032017700436 "/>
    <path id="path-22" opacity="1" fill-rule="evenodd" d="M228.9519372367207,187.75891392700396 C228.4363122367207,193.72375767700385 226.31274743553487,199.76684357016387 227.4050622367207,205.6534451770036 C228.70426323423047,212.65497868295455 231.92584333212946,219.34821156950622 235.90896848672074,225.25110142700368 C239.12014881769642,230.00998875055726 251.91521475774098,205.95262210351746 256.68631223672077,209.14563267700396 C260.48231353505395,211.68606961754998 263.25744810618426,236.0282212849533 267.6863122367208,237.14563267700396 C307.89767914735654,247.29104200804835 270.44149877470096,242.82800336396696 306.6863122367211,263.14563267700396 C307.48671685502796,263.59431271648725 339.5456872367213,276.82401809367104 338.68631223672134,277.1456326770044 "/>
    <path id="path-23" opacity="1" fill-rule="evenodd" d="M259.18631223672105,252.20422642700396 C265.25662473672105,255.24459101033713 270.89352589887335,259.3774785796823 277.39724973672105,261.3253201770035 C343.14454242756585,281.016394830146 335.042031929773,266.21233387882864 384.12771848672094,305.6221951770035 C389.3190096058948,309.79017320309737 402.7164430761034,332.45629700168024 399.6863122367207,337.14563267700396 "/>
    <path id="path-24" opacity="1" fill-rule="evenodd" d="M346.03006223672105,321.30578892700396 C360.49149641836783,332.2540983524404 416.8767820151913,366.3676798298023 424.68631223672105,368.1456326770031 C461.73148641803834,376.57950399094506 487.68631223672105,368.14563267700356 501.68631223672105,424.1456326770036 "/>
    <path id="path-25" opacity="1" fill-rule="evenodd" d="M336.53787473672105,355.20813267700396 C362.86378347508463,370.92215615243873 355.8439976199928,368.82659357382204 387.8191247367211,378.2081326770034 C409.41235703581617,384.54361188990885 419.76794804680503,383.0850998106138 437.7683434867211,396.10266392700333 C449.25353278366697,404.4085474594464 460.4863643924783,413.33480082454844 469.9831872367211,423.8565701770032 C482.55079781902623,437.7805426494021 491.9450069549729,454.28421520660146 503.5691247367213,469.00500767700305 C505.69124852172035,471.69246701129555 508.17104726304063,474.23462979555956 511.12771848672116,475.96203892700305 C524.0060196490037,483.4860729985064 540.4096583832569,494.1228589051922 554.6863122367212,498.14563267700305 C588.3961144824151,507.6441405009498 651.059372342709,477.869629973165 650.6863122367209,509.1456326770043 "/>
    <path id="path-26" opacity="1" fill-rule="evenodd" d="M575.686312236721,514.1456326770032 C596.0443851533876,517.2250597603362 621.6863122367214,508.14563267700413 721.686312236721,568.145632677004 "/>
    <path id="path-27" opacity="1" fill-rule="evenodd" d="M343.28006223672105,356.4073514270042 C328.4569611048795,351.39616994410085 299.7990539243963,337.68486515870075 286.28787473672105,352.50110142700373 "/>
    <path id="path-28" opacity="1" fill-rule="evenodd" d="M164.52615598672105,374.26282017700464 C177.1763257961821,353.40920691534546 245.97001295058854,354.7412235168 262.666780986721,368.6964139270042 C271.54107581821467,376.1135663879946 279.8487527513983,384.1970848169886 288.049593486721,392.3526639270042 C297.84506864248266,402.0940764396157 301.5135965870306,420.6338901016221 313.99099973672105,425.4815701770042 "/>
    <path id="path-29" opacity="1" fill-rule="evenodd" d="M1371.108187236721,666.5011014270044 C1372.7982914033878,660.6638618436709 1372.3614574865644,653.7180195321599 1376.178499736721,648.989382677004 C1379.039499367475,645.4451126873241 1384.8660146727052,646.1858551670755 1389.018343486721,644.313601427004 C1399.3990013910006,639.6330410821466 1409.6568604514573,634.6641654311301 1419.729280986721,629.352663927004 C1429.5097463257052,624.1951195038739 1438.2962341428129,617.0710456163266 1448.545687236721,612.922976427004 C1460.7023429448677,608.0030408435008 1500.7812966331176,610.2548015046291 1506.315218486721,609.407351427004 C1526.3555156944954,606.338433600978 1545.467205421841,598.6619069396046 1565.4128747367213,595.028445177004 C1594.257937219351,589.7737991726069 1623.7410144955716,588.4082835092029 1652.514437236721,582.774538927004 C1666.679936075911,580.000979345394 1703.5131830501389,562.1208054218046 1724.3659997367208,566.305788927004 C1741.551848938439,569.7548431489363 1742.3785660674403,579.4293429350289 1757.694124736721,590.274538927004 C1771.104697377578,599.7707833536883 1785.4419534065216,607.9180827276699 1799.7839684867213,615.938601427004 C1825.171079625762,630.1358950760577 1864.4309339215336,629.6656195961198 1892.299593486721,624.946413927004 C1892.8111095294025,624.8597951428167 1892.5563636680158,623.6917970051595 1892.127718486721,623.399538927004 "/>
    <path id="path-30" opacity="1" fill-rule="evenodd" d="M1605.268343486721,584.2042264270041 C1610.6027570933845,562.9834266248105 1638.2086997960064,507.49463603183216 1663.1199059867213,505.8526639270036 C1683.5072875560036,504.50887063289423 1694.0277776716387,523.4666999795529 1712.557405986721,525.7979764270036 C1733.9684174481606,528.4917696260568 1752.3806288789467,518.0494065621926 1774.358187236721,519.4971951770036 C1794.8852406385868,520.8494306586273 1807.5712911109017,532.8351201925724 1827.1863122367208,537.3956326770036 C1852.612670981668,543.3072871048096 1880.3534176130252,544.1384179985255 1905.569124736721,536.7745389270036 C1906.342405178014,536.5487136653871 1908.1363099867365,535.9317500857538 1907.545687236721,535.3839139270036 C1906.3562838289974,534.2806746866008 1904.3946455700543,534.6104764270036 1902.819124736721,534.2237576770036 "/>
    <path id="path-31" opacity="1" fill-rule="evenodd" d="M1794.975374736721,526.3018826770042 C1833.550962931652,499.03235539461224 1900.0259036475259,460.7992095760431 1946.026155986721,446.28625767700373 C1948.1980649229954,445.60102643764407 1950.820480457689,446.1946931872838 1952.772249736721,447.36828892700373 C1973.2373854536456,459.6739422376658 1992.075186606032,474.60994651048327 2012.815218486721,486.44641392700373 C2018.762181533269,489.84038336411237 2025.7161992023532,491.1065945437894 2032.354280986721,492.78625767700373 C2034.8871361452034,493.4271571973279 2037.920427211286,494.69585710488815 2040.170687236721,493.36828892700373 C2041.53915189702,492.56094661320986 2037.709749736721,491.35787226033705 2036.479280986721,490.35266392700373 "/>
    <path id="path-32" opacity="1" fill-rule="evenodd" d="M1930.436312236721,454.86828892700436 C1933.488433597564,416.43005748559784 1893.923084958609,399.69365931074805 1882.635530986721,438.1300076770039 C1876.25358720577,459.86178544120526 1889.5517032446876,455.21895751024124 1895.475374736721,464.7237576770039 C1896.363155324054,466.1482419830429 1892.1264164033876,464.4919868436706 1890.451937236721,464.3761014270039 "/>
    <path id="path-33" opacity="1" fill-rule="evenodd" d="M1882.076937236721,444.77844517700424 C1870.7896635010063,442.6158898013969 1853.3233952925734,438.51415424732 1845.698030986721,452.2784451770038 C1838.8120994890396,464.70801059241865 1840.9074935808226,476.3285353909871 1853.471468486721,481.54016392700385 C1857.5660838787205,483.23864029143357 1856.8169949243213,479.39292544085356 1856.865999736721,477.82922642700385 "/>
    <path id="path-34" opacity="1" fill-rule="evenodd" d="M1845.2253747367206,470.1339139270047 C1838.028559660952,469.82592585288256 1827.1493438194634,467.5898692898018 1821.6042809867206,475.08313267700424 C1812.7854608243383,487.0003542188236 1811.6160008477832,498.5239755798463 1824.8699059867206,500.94250767700424 "/>
    <path id="path-35" opacity="1" fill-rule="evenodd" d="M1750.780062236721,509.36828892700464 C1748.1543825321583,504.4832352802341 1740.0017648368237,491.57412728036445 1740.514437236721,484.7471951770042 C1740.642113338929,483.0470137723295 1743.1857637897801,482.39083237353105 1744.854280986721,482.0401639270042 C1755.6445199211669,479.7724040670918 1774.8647169904573,490.46275619578876 1776.248812236721,488.9971951770042 C1777.9126666200036,487.23540881753564 1778.1758481856389,484.48294132125807 1778.483187236721,482.0792264270042 C1779.543295221949,473.78806607937946 1779.0916681349242,465.3377077336547 1780.330843486721,457.0714139270042 C1780.6818938858764,454.72962611129907 1781.8912709039985,452.5448646627384 1783.205843486721,450.5753201770042 C1784.156367607601,449.1512074536437 1785.455074274296,447.8632904009425 1786.987093486721,447.0987576770042 C1789.6017049074303,445.79397247894457 1792.4467384190364,444.70731282746726 1795.362093486721,444.5089139270042 C1808.6328975190077,443.6057947984111 1822.0908709028283,441.9454694459854 1835.260530986721,443.8136014270042 C1838.3910910532777,444.25767510404523 1839.3568851533878,448.63130976033756 1841.405062236721,451.0401639270042 "/>
    <path id="path-36" opacity="1" fill-rule="evenodd" d="M1749.619905986721,501.44641392700396 C1755.6817882662008,513.7024377356973 1752.0246386478664,509.56553272205485 1758.424593486721,515.477663927004 "/>
    <path id="path-37" opacity="1" fill-rule="evenodd" d="M1736.6941247367213,491.3565701770041 C1732.3269372367213,489.0115180936706 1727.5816292538482,487.2640216593685 1723.5925622367213,484.3214139270036 C1718.2193079722608,480.3577353328162 1712.1010542856195,476.60883997680065 1708.8191247367213,470.7940701770036 C1679.8369257847703,419.4447609713606 1804.6870407500965,427.6776366052892 1810.5652184867213,427.1534451770037 C1819.6957737789044,426.3392202532099 1830.5331092630302,427.87451314766923 1837.5808434867213,422.0128201770036 C1840.9979813163916,419.17074183519543 1832.0150099748516,415.01480182368016 1828.6472497367215,412.1143826770036 C1825.3184023519213,409.2474764816269 1821.7608124116566,406.4015294288613 1817.6511559867213,404.84875767700356 C1816.9013015036298,404.5654364601048 1768.1292705845988,395.06104459421084 1761.3464684867213,383.47375767700356 C1760.6518763616155,382.28716279661427 1760.1967546153535,380.57278793890754 1760.8738122367213,379.3761014270036 C1761.9488677998988,377.4759610971414 1763.9134292332053,375.97298066491516 1765.9831872367213,375.2784451770036 C1775.5489294863148,372.0685300810014 1785.3669837546897,369.47939503268293 1795.3191247367213,367.8175076770036 C1903.1232499595235,349.8155206752808 1836.4052607300137,376.61481595728844 1885.3386559867213,341.9971951770036 C1889.335923429637,339.16935362277866 1893.7948978847376,336.9419173016366 1898.3972497367215,335.2706326770036 C1899.8793351421436,334.73243250671305 1901.6418313863312,334.99104458847427 1903.1199059867215,335.5401639270036 C1911.3255865296856,338.58865543801807 1919.6152257687227,341.6381969213402 1927.2175622367215,345.9776639270036 C1929.1299521558524,347.06926951312363 1929.3304352739974,349.9370607603556 1930.9519372367213,351.4268826770036 C1933.534605420138,353.7998157671494 1937.0165463405015,355.03847689165246 1939.6277184867213,357.3800076770036 C1940.989784759573,358.60142087038025 1940.8547244193142,362.0871393201906 1942.6784997367213,361.9425076770036 C1952.3133581085838,361.1784303343089 1961.802326711295,358.4177441792121 1970.8074059867213,354.9073514270036 C1981.2063278072762,350.85360590482094 1990.3089919644312,343.98738168788447 2000.4870934867213,339.4073514270036 C2001.9357249420934,338.75548370020425 2003.7551026459525,338.87762374204243 2005.2527184867213,339.4073514270036 C2014.1621235366092,342.55873269780784 2022.6902184867213,346.69901809367025 2031.4089684867213,350.3448514270036 "/>
    <path id="path-38" opacity="1" fill-rule="evenodd" d="M108.14334348672105,197.3995389270042 C118.25436569465296,184.288603254022 115.82781684687814,184.36155789954086 137.34646848672105,178.30188267700373 C145.43011748179157,176.02551850963096 153.9052749497187,175.07558243412979 162.29959348672105,174.82532017700373 C200.90046330728063,173.6745012313396 169.39548490406574,211.87980884690018 182.44412473672105,234.04016392700373 C183.6385966903428,236.0687219196338 186.6699756674783,236.41714451016645 189.01443723672105,236.63000767700373 C195.0324611424665,237.17640845553868 201.0977705700544,236.39823684367042 207.13943723672105,236.28235142700373 "/>
    <path id="path-39" opacity="1" fill-rule="evenodd" d="M71.18631223672105,78.14563267700377 C111.68631223672105,50.145632677004585 133.13669500316996,56.11309573507285 137.68631223672105,71.14563267700464 C141.53465530378975,83.86106704241023 125.7550279211126,103.18373092742414 142.68631223672105,113.14563267700422 C148.4893215902722,116.55996368429103 166.12279294540986,113.64470353233747 172.68631223672077,115.14563267700477 C196.91041618344002,120.68514006676965 212.686312236721,97.14563267700471 266.6863122367208,191.14563267700504 "/>
    <path id="path-40" opacity="1" fill-rule="evenodd" d="M836.194124736721,611.348757677004 C838.4857914033877,606.477663927004 840.2461730614332,601.3191686364994 843.069124736721,596.735476427004 C852.2905153952926,581.7624902110432 867.1363250358893,601.9521366752507 879.573030986721,601.528445177004 C952.1306610156238,599.0565646728156 852.5592402020158,597.5049958411223 904.354280986721,598.708132677004 "/>
    <path id="path-41" opacity="1" fill-rule="evenodd" d="M902.166780986721,593.876101427004 C926.3558904384431,595.0142999342222 928.7603486414447,611.593683206694 948.850374736721,621.434695177004 "/>
    <path id="path-42" opacity="1" fill-rule="evenodd" d="M868.151155986721,603.422976427004 C874.8839030442929,593.3397379576909 884.9335461660041,567.9225233408713 902.424593486721,565.001101427004 C907.6183608280478,564.1336184542429 912.7740149303348,567.0364023625473 918.014437236721,567.551882677004 C920.5377056484404,567.8000869472489 924.2992086771071,569.4490424854313 925.615999736721,567.282351427004 C928.3718723439006,562.7477485433157 925.9896360717073,556.5096676666338 927.764437236721,551.508913927004 C934.1722027044945,533.4541268571581 969.6636310668364,534.1648961925342 983.252718486721,532.258913927004 "/>
    <path id="path-43" opacity="1" fill-rule="evenodd" d="M1007.905062236721,533.0323514270041 C1016.5609914095476,526.1419089735768 1033.958724878361,532.922632669803 1039.131624736721,542.0401639270041 C1040.6833747791975,544.7752119470765 1037.0413679355079,548.541021757651 1038.272249736721,551.4346951770041 C1074.562892617122,636.7501727238713 1033.1621411179503,521.0252230591711 1048.967562236721,566.1612576770041 "/>
    <path id="path-44" opacity="1" fill-rule="evenodd" d="M1047.1199059867215,556.883913927004 C1046.919385153388,563.3513618436706 1047.7804710178946,569.9399890682504 1046.5183434867215,576.286257677004 C1045.6621651839268,580.5913198456983 1041.9116504275758,583.9228879589602 1040.8933434867215,588.192507677004 C1038.262332694484,599.223970889361 1039.6398431787466,616.9324334860353 1055.1511559867215,607.403445177004 "/>
    <path id="path-45" opacity="1" fill-rule="evenodd" d="M1054.850374736721,590.821413927004 C1074.6080277679143,602.321047428367 1079.8148105708383,597.211657530428 1081.006624736721,614.321413927004 C1081.1343424880417,616.1549377054348 1078.5511424326946,618.9429434970075 1080.190218486721,619.774538927004 C1085.7369045161122,622.5886845807922 1092.6348706117603,621.2291477614654 1098.530062236721,623.212038927004 C1115.5520851150334,628.9375218175157 1112.7678790819925,637.2895850403324 1114.764437236721,628.856570177004 "/>
    <path id="path-46" opacity="1" fill-rule="evenodd" d="M1084.655062236721,605.665163927004 C1127.6690194154767,611.8005903344032 1120.1846770344416,617.4520228867763 1154.834749736721,643.430788927004 "/>
    <path id="path-47" opacity="1" fill-rule="evenodd" d="M1147.104280986721,635.3917264270041 C1185.35810578429,630.1321060803014 1178.6983989585312,635.4398818009282 1207.362093486721,655.1417264270041 "/>
    <path id="path-48" opacity="1" fill-rule="evenodd" d="M1018.170687236721,641.071413927004 C1028.8067062200641,635.3421544480907 1044.575581647307,628.4910370524542 1056.912874736721,635.969851427004 C1064.0800835709672,640.3145828090405 1067.5922482045014,649.271602853181 1074.651155986721,653.790163927004 C1077.2367344570632,655.4452491880454 1080.8382137718943,653.839332763748 1083.842562236721,653.208132677004 C1089.4755734413689,652.0246623829852 1094.6882223871146,648.895970561054 1100.420687236721,648.376101427004 C1104.604914466599,647.9966397741664 1108.694124736721,649.844851427004 1112.830843486721,650.579226427004 "/>
    <path id="path-49" opacity="1" fill-rule="evenodd" d="M1131.342562236721,648.3761014270035 C1149.8859318540792,643.0382419600696 1156.398116892105,648.9100650611634 1176.268343486721,655.8370389270035 C1176.7687556439937,656.0114879660756 1177.5406385417764,656.261311976723 1177.858187236721,655.8370389270035 C1178.2381469571467,655.3293792454431 1177.7436039033878,654.5740180936702 1177.686312236721,653.9425076770035 "/>
    <path id="path-50" opacity="1" fill-rule="evenodd" d="M1032.0456872367213,610.9620389270037 C1003.2996544462314,604.2672996326328 994.7799335896307,596.9005249821212 971.7449059867213,617.6846951770037 C971.139326796,618.2311004682587 971.5168516632011,619.4372673012255 971.9597497367213,620.1221951770037 C972.33156560922,620.6971966749944 973.2175622367213,620.6638618436705 973.8464684867213,620.9346951770037 "/>
    <path id="path-51" opacity="1" fill-rule="evenodd" d="M959.158968486721,633.3800076770037 C922.8360934296381,632.1106943587365 935.3933063192542,626.4213278943661 917.971468486721,637.1300076770037 "/>
    <path id="path-52" opacity="1" fill-rule="evenodd" d="M877.4714684867213,633.419070177004 C867.6658389540404,633.419070177004 850.3912070119953,648.9242404407663 862.2644372367213,649.149538927004 "/>
    <path id="path-53" opacity="1" fill-rule="evenodd" d="M984.541780986721,451.23938267700396 C985.5014164033877,447.85136184367065 985.5965590859572,444.0873198100738 987.420687236721,441.07532017700396 C990.6373491522623,435.76396937894566 993.3970293154342,425.03616111524735 999.358187236721,426.77453892700396 L1001.205843486721,421.70813267700396 C1012.6640486613946,425.0495455201496 1007.5415773672735,442.5538281009734 1000.432405986721,447.10657017700396 "/>
    <path id="path-54" opacity="1" fill-rule="evenodd" d="M1001.7214684867214,415.1768826770039 C1000.9193851533881,417.7927680936706 999.2430973269173,420.2893985786764 999.3152184867214,423.0245389270039 C999.4996626695015,430.019444828496 1010.9093121870902,422.32829480069705 1009.7097497367214,414.4815701770039 C1009.2118262557059,411.2244921999478 1000.9152092369263,410.56018187840107 1001.1628747367214,415.9112576770039 "/>
    <path id="path-55" opacity="1" fill-rule="evenodd" d="M990.2097497367215,478.72375767700396 C990.2548775387444,481.2872512620481 989.6503772881772,497.08444555563335 991.7136559867215,502.68860142700396 C991.8829217800462,503.1483511884648 992.3152184867215,501.91516392700396 992.6159997367215,501.52844517700396 "/>
    <path id="path-56" opacity="1" fill-rule="evenodd" d="M996.526155986721,477.60266392700396 C996.6407393200544,485.0375597603373 996.7553226533877,492.47245559367065 996.869905986721,499.90735142700396 "/>
    <path id="path-57" opacity="1" fill-rule="evenodd" d="M991.4988122367215,481.31360142700396 C991.7561442835982,488.32083104286716 993.8344830442901,498.3691131060026 990.3386559867215,505.66516392700396 C985.86577083801,515.000407582964 971.265097389567,535.5739903355703 988.0222497367215,542.930788927004 "/>
    <path id="path-58" opacity="1" fill-rule="evenodd" d="M998.158968486721,497.27844517700396 C1007.348299210805,509.41409511071623 1011.5038200934991,535.3287207119083 1004.256624736721,548.571413927004 C1003.2304561219564,550.4465167058435 999.990999736721,548.8552680936706 997.858187236721,548.997195177004 "/>
    <path id="path-59" opacity="1" fill-rule="evenodd" d="M982.186312236721,540.145632677004 C983.4668671068607,542.1860253877793 990.567237081888,553.0375113159217 993.268343486721,547.376101427004 "/>
    <path id="path-60" opacity="1" fill-rule="evenodd" d="M1454.647249736721,603.9190701770043 C1409.7163826402898,618.9388338562447 1339.9165904110982,636.9330617758143 1292.428499736721,624.3643826770041 C1265.6833451425257,617.2857391525154 1270.9060361034244,601.4027981213941 1255.686312236721,596.1456326770041 C1253.9242055288485,595.5369694334993 1236.0449440317748,599.8690706380138 1234.686312236721,601.1456326770046 C1216.699583019996,618.045852300357 1239.1495063133966,615.9480411565874 1230.686312236721,639.1456326770045 C1229.3440772929728,642.8246949397161 1207.978438822979,656.9116289004784 1205.971468486721,660.2745389270042 C1205.3631666035694,661.2938188162227 1204.3673018200543,658.5245389270042 1203.565218486721,657.6495389270042 "/>
    <path id="path-61" opacity="1" fill-rule="evenodd" d="M1170.838655986721,647.2901639270042 C1208.4501824517959,666.9511047859652 1225.6439228595632,638.6759483908376 1263.436312236721,632.5206326770037 C1269.1746990268646,631.5860111046833 1273.1408483244659,638.9540313582163 1278.252718486721,641.7237576770037 C1280.8265603816726,643.1183231511981 1283.5232966683063,644.5010086510551 1286.412874736721,644.9698514270037 C1305.678474014939,648.0957531441596 1325.2057902623535,649.4175501661801 1344.4831872367213,652.4698514270037 C1354.6513043009004,654.0798279490656 1355.2267406992146,658.029967651494 1364.795687236721,662.9034451770037 C1374.422171884639,667.8062269406395 1394.3343173385088,667.0420775805409 1406.069124736721,668.3917264270037 C1406.4929790260062,668.4404749435486 1406.155062236721,667.5427680936705 1406.198030986721,667.1182889270037 "/>
    <path id="path-62" opacity="1" fill-rule="evenodd" d="M992.3152184867213,502.76672642700464 C975.3534903335855,502.2797606832527 972.290751196937,503.77135590655905 980.7644372367213,522.7511014270042 "/>
    <path id="path-63" opacity="1" fill-rule="evenodd" d="M998.158968486721,502.536257677004 C1001.3360518200544,502.48417434367053 1004.5491160273699,501.90037602624074 1007.690218486721,502.38000767700356 C1027.7287888366757,505.4398036245264 1000.9912566155098,521.6739520846472 1006.705843486721,529.3214139270036 C1006.9709591382178,529.6762010488596 1007.5912601533877,529.3474555936702 1008.033968486721,529.3604764270036 "/>
    <path id="path-64" opacity="1" fill-rule="evenodd" d="M990.7683434867212,538.1339139270045 C989.4519372367212,543.9971951770043 989.8879797633214,550.5572190622883 986.8191247367212,555.723757677004 C986.0057386850434,557.0931252125308 970.0894609697723,569.1907797292332 968.0066247367212,577.255007677004 C963.4197046359608,595.0144304697205 998.9509066577679,582.6061896535598 1001.9363122367212,581.118288927004 C1022.4109554088316,570.9139010654276 1031.244815738282,539.7747314167252 1041.2800622367213,524.5675076770041 C1043.80187933858,520.7459934865367 1064.2774581606986,500.7579842584936 1071.600374736721,512.5479764270041 C1072.931814614714,514.6916121726001 1073.6591792556605,517.2104361414569 1074.092562236721,519.6964139270041 C1080.0402887710381,553.8138497400977 1036.565169757205,530.9353080015231 1064.299593486721,519.0011014270041 "/>
    <path id="path-65" opacity="1" fill-rule="evenodd" d="M996.397249736721,542.001101427004 C995.7240726533877,545.9438097603371 995.0508955700544,549.8865180936704 994.377718486721,553.8292264270035 "/>
    <path id="path-66" opacity="1" fill-rule="evenodd" d="M997.342562236721,540.571413927004 C995.9389164033878,545.0935493436705 995.651077966236,550.1287946375003 993.131624736721,554.1378201770036 C988.6610494211312,561.2515265981083 981.5079245647075,566.3723157075486 976.768343486721,573.3096951770038 C975.6854660141354,574.894715418802 975.5721110209128,577.1937273338248 976.123812236721,579.032351427004 C976.3729172337167,579.8625298570743 977.8139164033878,579.4177680936706 978.658968486721,579.610476427004 "/>
    <path id="path-67" opacity="1" fill-rule="evenodd" d="M978.1433434867208,574.4698514270044 C967.6593740732682,591.7684009591994 1003.7976584501845,580.6024564420003 1010.0964684867208,570.180788927004 "/>
    <path id="path-68" opacity="1" fill-rule="evenodd" d="M997.600374736721,576.2862576770046 C1024.3726239693656,572.5828917889141 1029.143208963645,541.0364580987741 1043.811312236721,522.1339139270042 C1047.1136692319205,517.8782206167933 1065.0764066670515,500.7663725415325 1071.815218486721,509.6846951770042 C1089.4538858351052,533.0281762656874 1049.8884971153377,543.1315526112342 1057.944124736721,524.4503201770042 C1059.445778656736,520.9679414929267 1063.0118330700543,518.8070910103374 1065.545687236721,515.9854764270042 "/>
    <path id="path-69" opacity="1" fill-rule="evenodd" d="M982.2214684867212,449.7706326770042 C975.8087080700544,443.2133410103375 969.7241654219123,436.31814536954107 962.9831872367212,430.0987576770042 C954.0866324148791,421.89058342619614 936.9187439261657,423.1361940396994 929.7409997367212,432.8409451770042 C916.9465892221394,450.1397742680615 938.6163328305955,477.8394044502277 956.2800622367212,480.0011014270042 C967.0853243162388,481.32345537806 969.8502875416532,477.61440291636393 980.2917809867212,472.5401639270042 "/>
    <path id="path-70" opacity="1" fill-rule="evenodd" d="M1007.131624736721,448.3800076770042 C1022.6141125832764,414.75777113875586 1096.6716529973642,400.33492464542155 1066.362093486721,456.8057889270042 C1061.3593306917699,466.12662180573466 1037.958178842469,471.6975920125915 1028.951937236721,473.0050076770042 C1003.6703240972639,476.67508210839105 1004.5059757749151,483.01623742951205 1004.299593486721,472.8096951770042 "/>
    <path id="path-71" opacity="1" fill-rule="evenodd" d="M996.3113122367209,444.70813267700396 C990.2457382348525,447.4569198015691 986.8155322770798,448.1467950634678 983.0378747367209,455.26282017700396 C980.4842714386341,460.0730775931564 978.8832451960606,465.44755100536025 978.1003747367209,470.83703892700396 C975.4691204263314,488.95129161777425 1024.5783157186197,470.2652694395796 1005.7605309867209,451.58703892700396 C999.9424835459148,445.8121385983661 999.3047911199142,446.47612013987026 992.1433434867209,444.24328892700396 "/>
    <path id="path-72" opacity="1" fill-rule="evenodd" d="M1077.537874736722,508.6085233020053 C1096.001612956616,509.450719840369 1104.668043927793,505.825451059069 1112.6863122367208,490.14563267700396 C1113.1484021319905,489.24201042904957 1114.8697680250716,482.6813401900584 1115.1863122367208,483.64563267700396 C1121.0348885148185,501.4622218192021 1094.6377141879093,519.2776149204283 1081.686312236721,518.145632677004 C1079.3819234817047,517.9442238131253 1077.537874736722,508.6085233020053 1077.537874736722,508.6085233020053Z"/>
    <path id="path-73" opacity="1" fill-rule="evenodd" d="M1006.7156091117213,450.8585233020044 C1013.5522477725785,435.829877382801 1026.258177983492,428.0415241027472 1042.0183434867213,422.66125767700396 C1072.96396938254,412.0969198851979 1084.753586639744,429.58997157625174 1068.1745934867213,453.79602330200396 C1055.5533872229184,472.22353387777684 1018.330996396969,476.1984196495388 999.4773278617213,478.65149205200396 C994.266337810179,479.32949993471715 988.9631813711077,479.23774996751933 983.7156091117213,478.96008580200396 C981.6063494219204,478.84847879543514 979.64429394366,477.2052568485717 977.5515466117213,477.49133580200396 C965.0503837049287,479.20024711990675 966.7881763940064,485.1792086293294 953.0925622367213,481.33703892700396 C936.6667220274163,476.7289311880852 923.457951316236,450.217732361406 928.1609216117213,433.61828892700396 C933.7548674921348,413.874088478583 964.3038636269393,419.66860037737024 971.186312236721,428.14563267700396 C974.2398339845643,431.9066200743253 976.1913528009279,440.8378460173663 979.186312236721,444.64563267700396 C980.3257112839434,446.0942628120789 983.6510914450596,448.9438906154721 984.686312236721,447.41907017700396 C989.0057518786774,441.0567850472647 986.6506565972697,437.91057279465105 990.3074059867213,431.14563267700396 C991.9165900734953,428.16866247043214 995.8034117881407,426.99685206882526 997.7175622367213,424.20617955200396 C999.7352265745113,421.264592374352 999.8837988616216,417.31359437037196 1001.8406091117213,414.33117955200396 C1002.5993483130708,413.1747695029119 1004.158251023478,411.98872572946726 1005.4909997367213,412.35852330200396 C1006.8794672144223,412.74378115121283 1007.476517986318,414.5966075077911 1007.8308434867213,415.99328892700396 C1008.408054148102,418.2685398045285 1005.547499846901,446.02807586218796 1005.2761559867213,447.41907017700396 L1006.7156091117213,450.8585233020044Z"/>
    <path id="path-74" opacity="1" fill-rule="evenodd" d="M988.186312236721,477.14563267700396 C987.4190837052124,522.1397665140078 995.8764754688996,493.3337221875465 974.8464684867208,502.86828892700396 C973.7298376615036,503.3745460640269 966.4181619801187,503.9902971292728 966.686312236721,505.1866483020044 C967.7446015470649,509.90820133559777 968.3654356954041,520.1547507438395 971.186312236721,524.1456326770044 C975.686312236721,530.5120824085684 973.6863122367213,541.4014920520049 974.846468486721,546.1456326770044 C975.3901216864227,548.3687532528891 986.6802039370588,550.7975425226035 985.4753747367208,552.751101427004 C979.7913970358597,561.9673332769764 958.6709203968497,569.2991612789813 965.0749841117208,578.0303983020041 L964.1081872367208,582.7862576770041 C965.3655893568981,584.5005872704191 967.9997033808144,585.0394805316985 970.1218591117208,584.9112576770041 C978.4446968092142,584.40838317388 986.9167918843237,583.5965927959415 994.8171716117208,580.9307889270041 C1023.5194182306786,571.2458670974017 1028.5725719382476,542.5841232888092 1042.7917809867208,519.778445177004 C1048.558479473699,510.529444827299 1063.4988332373507,504.6538348790969 1071.2019372367208,514.928835802004 C1076.2942651277249,521.721379922412 1071.8583099611028,538.1721971836859 1060.7878747367208,534.255007677004 C1048.2692507354739,529.8253875598313 1076.9974411231024,511.03042243863325 1064.5027184867208,514.463992052004 C1058.3262904371147,516.1612842838898 1048.6250018431388,530.740809665773 1053.9792809867208,536.786257677004 C1066.703396790805,551.1528938795037 1080.4498453919573,527.502092329787 1076.9792809867208,515.430788927004 C1075.9467710235926,511.83951685249315 1075.1933201524325,507.6982764814004 1072.4265466117208,505.18664830200396 C1065.6568793694557,499.0412638819851 1048.6575246865,510.74237503475683 1044.0378747367208,514.368288927004 C1021.7448046177293,531.8658814987438 1033.6660385307916,533.2926770007448 1010.686312236721,561.6456326770045 C1007.3284640023619,565.788629026833 989.7689128122593,575.8564650421899 983.7800622367208,574.9971951770041 C982.3960617104817,574.7986211884567 982.3036177296779,572.4715277568696 982.2976403617208,571.0733670520041 C982.2886714704799,568.9754618553872 982.243743563612,566.4199106735743 983.7370934867208,564.9464139270041 C994.012058832251,554.8080479797627 1006.9718767276203,553.6755064901463 1008.3249841117208,538.255007677004 C1008.7159030646253,533.7999545746917 1012.2748317259186,529.9969665148168 1013.307405986721,525.6456326770044 C1014.6409169013126,520.0261325732101 1013.8180097840966,514.7079876927908 1015.2409997367208,509.11047642700396 C1015.6980736927726,507.3125181114313 1014.7885988052722,505.00870383953725 1013.3074059867208,503.89172642700396 C1009.1029566871335,500.72112308558786 1001.2604117629504,502.5093720663013 999.9499841117208,495.42688267700396 C998.9219333228584,489.8705600544277 1000.6598753690363,484.0371738508723 999.6492028617208,478.47766392700396 C999.3758452966823,476.97397793119825 997.4161299450542,476.39042434367065 996.2995934867208,475.34680455200396 L988.186312236721,477.14563267700396Z"/>
    <path id="path-75" opacity="1" fill-rule="evenodd" d="M926.359652080471,453.18323033325396 C926.8609541638044,456.81604283325396 927.3622562471377,460.44885533325396 927.863558330471,464.08166783325396 "/>
    <path id="path-76" opacity="1" fill-rule="evenodd" d="M932.819124736721,462.14563267700396 C932.2748539033877,465.21203892700396 931.7305830700544,468.27844517700396 931.186312236721,471.34485142700396 "/>
    <path id="path-77" opacity="1" fill-rule="evenodd" d="M939.487093486721,467.14563267700396 C939.0001143200544,471.12610142700396 938.5131351533877,475.10657017700396 938.026155986721,479.08703892700396 "/>
    <path id="path-78" opacity="1" fill-rule="evenodd" d="M946.666780986721,474.14563267700396 C945.506624736721,477.40604934367065 944.346468486721,480.6664660103373 943.186312236721,483.92688267700396 "/>
    <path id="path-79" opacity="1" fill-rule="evenodd" d="M951.635530986721,478.14563267700396 C953.1524580700544,480.39953892700396 954.6693851533877,482.65344517700396 956.186312236721,484.90735142700396 "/>
    <path id="path-80" opacity="1" fill-rule="evenodd" d="M958.686312236721,478.95422642700396 C959.428069482318,485.0568655839615 957.6285008632128,483.99470142818456 962.768343486721,483.71203892700396 "/>
    <path id="path-81" opacity="1" fill-rule="evenodd" d="M966.373812236721,478.91907017700396 C970.501459288672,481.37689637612016 968.788773579292,481.82202405299114 971.658968486721,479.41907017700396 "/>
    <path id="path-82" opacity="1" fill-rule="evenodd" d="M974.233187236721,475.43860142700396 C978.0841397186341,479.07345107603754 976.5475120610898,479.8124305026806 978.830843486721,477.68078892700396 "/>
    <path id="path-83" opacity="1" fill-rule="evenodd" d="M1019.115999736721,436.61438267700396 C1020.0622291720395,425.84887232881266 1018.0385747138754,429.4738354104347 1021.737093486721,424.43860142700396 "/>
    <path id="path-84" opacity="1" fill-rule="evenodd" d="M1025.600374736721,428.30578892700396 C1028.420687236721,424.41386184367065 1031.240999736721,420.5219347603373 1034.061312236721,416.63000767700396 "/>
    <path id="path-85" opacity="1" fill-rule="evenodd" d="M1036.295687236721,420.26672642700396 C1039.3451664033878,417.94641392700396 1042.3946455700543,415.62610142700396 1045.444124736721,413.30578892700396 "/>
    <path id="path-86" opacity="1" fill-rule="evenodd" d="M1044.026155986721,420.72766392700396 C1048.2071455700543,418.34485142700396 1052.3881351533878,415.96203892700396 1056.569124736721,413.57922642700396 "/>
    <path id="path-87" opacity="1" fill-rule="evenodd" d="M1066.791780986721,456.31360142700396 C1066.8633955700543,458.7875597603373 1066.9350101533878,461.26151809367065 1067.006624736721,463.73547642700396 "/>
    <path id="path-88" opacity="1" fill-rule="evenodd" d="M1061.033968486721,465.59094517700396 C1060.346468486721,467.17558059367065 1059.658968486721,468.7602160103373 1058.971468486721,470.34485142700396 "/>
    <path id="path-89" opacity="1" fill-rule="evenodd" d="M1038.100374736721,470.91125767700396 C1036.3959476533878,472.7406847603373 1034.6915205700543,474.57011184367065 1032.987093486721,476.39953892700396 "/>
    <path id="path-90" opacity="1" fill-rule="evenodd" d="M1029.895296611721,439.13000767700396 C1032.2657393200543,436.0111925728373 1034.6361820283878,432.89237746867065 1037.006624736721,429.77356236450396 "/>
    <path id="path-91" opacity="1" fill-rule="evenodd" d="M1043.505648174221,434.94739048950396 C1047.2329306244148,430.28375301988797 1045.0607241668738,431.3738045698155 1049.113070049221,430.28723423950396 "/>
    <path id="path-92" opacity="1" fill-rule="evenodd" d="M1047.886507549221,441.83508580200396 C1050.666780986721,440.9193956978373 1053.447054424221,440.00370559367065 1056.227327861721,439.08801548950396 "/>
    <path id="path-93" opacity="1" fill-rule="evenodd" d="M1044.189241924221,451.83215611450396 C1053.236594206355,451.40703306153307 1050.6097587040665,449.3639083348718 1054.046663799221,453.41418736450396 "/>
    <path id="path-94" opacity="1" fill-rule="evenodd" d="M1035.541780986721,446.42785923950396 C1037.0316898408878,445.4184191353373 1038.5215986950543,444.40897903117065 1040.011507549221,443.39953892700396 "/>
    <path id="path-95" opacity="1" fill-rule="evenodd" d="M1065.719515361721,426.38977330200396 C1067.0346195283878,426.50468215617065 1068.3497236950543,426.6195910103373 1069.664827861721,426.73449986450396 "/>
    <path id="path-96" opacity="1" fill-rule="evenodd" d="M953.304476299221,431.75989048950396 C950.5600101533877,431.62707798950396 947.8155440075544,431.49426548950396 945.071077861721,431.36145298950396 "/>
    <path id="path-97" opacity="1" fill-rule="evenodd" d="M940.403109111721,442.76672642700396 L939.284945049221,442.76672642700396 L936.800570049221,442.76672642700396 L935.273226299221,442.76672642700396 L934.919710674221,442.76672642700396 "/>
    <path id="path-98" opacity="1" fill-rule="evenodd" d="M949.709749736721,422.31848423950396 C949.075960674221,421.4897081978373 948.442171611721,420.66093215617065 947.808382549221,419.83215611450396 "/>
    <path id="path-99" opacity="1" fill-rule="evenodd" d="M954.930452861721,425.42297642700396 L954.930452861721,423.21399205200396 L954.930452861721,422.00110142700396 "/>
    <path id="path-100" opacity="1" fill-rule="evenodd" d="M961.000765361721,427.82532017700396 L961.000765361721,426.51672642700396 L961.000765361721,426.23059361450396 L961.000765361721,424.96301548950396 L961.000765361721,424.79895298950396 "/>
    <path id="path-101" opacity="1" fill-rule="evenodd" d="M964.996859111721,432.27551548950396 C965.3783695283877,430.76282017700396 965.7598799450544,429.25012486450396 966.141390361721,427.73742955200396 "/>
    <path id="path-102" opacity="1" fill-rule="evenodd" d="M972.735140361721,504.38000767700396 C972.0508955700544,503.20715611450396 971.3666507783877,502.03430455200396 970.682405986721,500.86145298950396 "/>
    <path id="path-103" opacity="1" fill-rule="evenodd" d="M970.682405986721,507.24621861450396 C968.8852054658877,507.0600206978373 967.0880049450544,506.87382278117065 965.290804424221,506.68762486450396 "/>
    <path id="path-104" opacity="1" fill-rule="evenodd" d="M968.473421611721,512.171023302004 L965.827913799221,512.171023302004 L964.832796611721,512.171023302004 L964.656038799221,512.171023302004 L964.574007549221,512.171023302004 "/>
    <path id="path-105" opacity="1" fill-rule="evenodd" d="M1007.946077861721,500.80285923950396 C1009.7305830700544,500.18632278117065 1011.5150882783877,499.5697863228373 1013.299593486721,498.95324986450396 "/>
    <path id="path-106" opacity="1" fill-rule="evenodd" d="M1013.299593486721,503.46008580200396 L1015.764437236721,503.46008580200396 L1017.807405986721,503.46008580200396 L1018.092562236721,503.46008580200396 L1019.081820049221,503.46008580200396 "/>
    <path id="path-107" opacity="1" fill-rule="evenodd" d="M1017.156038799221,508.53821080200396 C1018.115023174221,508.8158800728373 1019.074007549221,509.09354934367065 1020.032991924221,509.37121861450396 "/>
    <path id="path-108" opacity="1" fill-rule="evenodd" d="M1015.327913799221,512.251101427004 C1015.8350752575544,513.705202989504 1016.3422367158877,515.159304552004 1016.849398174221,516.613406114504 "/>
    <path id="path-109" opacity="1" fill-rule="evenodd" d="M1011.722445049221,518.514773302004 C1012.9477054658877,519.136843614504 1014.1729658825544,519.758913927004 1015.398226299221,520.380984239504 "/>
    <path id="path-110" opacity="1" fill-rule="evenodd" d="M972.264437236721,523.591921739504 L969.948030986721,523.591921739504 L969.430452861721,523.591921739504 L969.184359111721,523.591921739504 L969.020296611721,523.591921739504 L968.938265361721,523.591921739504 "/>
    <path id="path-111" opacity="1" fill-rule="evenodd" d="M974.732210674221,526.904421739504 L973.490999736721,526.904421739504 L971.840609111721,526.904421739504 L970.283968486721,526.904421739504 L969.167757549221,526.904421739504 L969.085726299221,526.904421739504 "/>
    <path id="path-112" opacity="1" fill-rule="evenodd" d="M969.676546611721,515.546023302004 L968.818148174221,515.546023302004 L967.249788799221,515.546023302004 L966.963655986721,515.546023302004 L966.528109111721,515.546023302004 "/>
    <path id="path-113" opacity="1" fill-rule="evenodd" d="M989.091585674221,493.13391392700396 C988.1742679658877,493.10657017700396 987.2569502575544,493.07922642700396 986.339632549221,493.05188267700396 "/>
    <path id="path-114" opacity="1" fill-rule="evenodd" d="M991.018343486721,490.63489048950396 C989.410921611721,490.40051548950396 987.803499736721,490.16614048950396 986.196077861721,489.93176548950396 "/>
    <path id="path-115" opacity="1" fill-rule="evenodd" d="M999.741976299221,487.83410923950396 C1001.0512210908877,487.66321080200396 1002.3604658825544,487.49231236450396 1003.669710674221,487.32141392700396 "/>
    <path id="path-116" opacity="1" fill-rule="evenodd" d="M998.354280986721,485.17395298950396 L999.166780986721,485.17395298950396 L999.937288799221,485.17395298950396 L1000.018343486721,485.17395298950396 L1000.099398174221,485.17395298950396 L1000.180452861721,485.17395298950396 L1000.342562236721,485.17395298950396 "/>
    <path id="path-117" opacity="1" fill-rule="evenodd" d="M987.461702861721,438.60071080200396 C986.5567549450544,437.30090611450396 985.6518070283877,436.00110142700396 984.746859111721,434.70129673950396 "/>
    <path id="path-118" opacity="1" fill-rule="evenodd" d="M988.316195049221,434.52453892700396 C988.0932132783877,433.65735142700396 987.8702315075544,432.79016392700396 987.647249736721,431.92297642700396 "/>
    <path id="path-119" opacity="1" fill-rule="evenodd" d="M991.130648174221,429.07434361450396 C990.9805830700544,428.50696080200396 990.8305179658877,427.93957798950396 990.680452861721,427.37219517700396 "/>
    <path id="path-120" opacity="1" fill-rule="evenodd" d="M1010.483187236721,428.09778111450396 L1011.253695049221,428.09778111450396 L1011.334749736721,428.09778111450396 L1011.415804424221,428.09778111450396 L1011.577913799221,428.09778111450396 L1011.740023174221,428.09778111450396 "/>
    <path id="path-121" opacity="1" fill-rule="evenodd" d="M1008.506624736721,434.37219517700396 L1010.233187236721,434.37219517700396 L1011.060335674221,434.37219517700396 L1011.141390361721,434.37219517700396 "/>
    <path id="path-122" opacity="1" fill-rule="evenodd" d="M1008.357210674221,427.56457798950396 C1008.8135908825544,427.53495559367065 1009.2699710908877,427.5053331978373 1009.726351299221,427.47571080200396 "/>
    <path id="path-123" opacity="1" fill-rule="evenodd" d="M1026.115999736721,475.00891392700396 C1022.2545974685628,480.0039842969677 1024.6764424444789,478.533066994283 1019.201937236721,479.95422642700396 "/>
    <path id="path-124" opacity="1" fill-rule="evenodd" d="M1012.846468486721,476.86438267700396 C1011.385530986721,478.3969347603373 1009.924593486721,479.92948684367065 1008.463655986721,481.46203892700396 "/>
    <path id="path-125" opacity="1" fill-rule="evenodd" d="M940.365999736721,429.18469517700396 C939.3061039033877,426.50500767700396 938.2462080700544,423.82532017700396 937.186312236721,421.14563267700396 "/>
    <path id="path-126" opacity="1" fill-rule="evenodd" d="M928.6728447597169,431.14563267700396 C921.5050284218134,433.4082445812578 921.8713851745607,430.9482076911587 922.4892510097169,435.32141392700396 "/>
    <path id="path-127" opacity="1" fill-rule="evenodd" d="M924.385530986721,442.14563267700396 C922.6524580700544,444.55578892700396 920.9193851533877,446.96594517700396 919.186312236721,449.37610142700396 "/>
    <path id="path-128" opacity="1" fill-rule="evenodd" d="M927.721468486721,447.10657017700396 C927.635530986721,448.4203722603373 927.549593486721,449.73417434367065 927.463655986721,451.04797642700396 "/>
    <path id="path-129" opacity="1" fill-rule="evenodd" d="M1052.444124736721,419.14563267700396 C1056.1094893200543,418.48808059367065 1059.7748539033878,417.8305285103373 1063.440218486721,417.17297642700396 "/>
    <path id="path-130" opacity="1" fill-rule="evenodd" d="M1065.869905986721,421.2589139270042 C1074.8816403924623,422.1041642407592 1073.7046383921322,419.3024079583694 1074.459749736721,424.3136014270042 "/>
    <path id="path-131" opacity="1" fill-rule="evenodd" d="M1072.459749736721,429.21203892700396 C1074.807405986721,431.54407017700396 1077.155062236721,433.87610142700396 1079.502718486721,436.20813267700396 "/>
    <path id="path-132" opacity="1" fill-rule="evenodd" d="M1070.998812236721,445.33703892700396 C1071.9727705700543,447.9399035103373 1072.9467289033878,450.54276809367065 1073.920687236721,453.14563267700396 "/>
    <path id="path-133" opacity="1" fill-rule="evenodd" d="M1059.080843486721,503.14563267700396 C1056.3435185035648,510.2789928152289 1058.4798975981294,507.9799898703274 1054.186312236721,511.18860142700396 "/>
  </defs>
  <g opacity="1">
    <g transform="translate(1820.5362179250176, 350.2966899481948) rotate(10.00000357564167) translate(-1820.5362179250176, -350.2966899481948)" opacity="1">
      <g opacity="1">
        <use xlink:href="#path-0" fill="rgb(66,76,89)" fill-opacity="1"/>
      </g>
      <g opacity="1">
        <use xlink:href="#path-1" fill-opacity="0" stroke="rgb(66,76,89)" stroke-opacity="1" stroke-width="5" stroke-linecap="round" stroke-linejoin="round"/>
      </g>
      <g opacity="1">
        <use xlink:href="#path-2" fill-opacity="0" stroke="rgb(55,64,76)" stroke-opacity="1" stroke-width="5" stroke-linecap="round" stroke-linejoin="round"/>
      </g>
      <g opacity="1">
        <use xlink:href="#path-3" fill-opacity="0" stroke="rgb(55,64,76)" stroke-opacity="1" stroke-width="5" stroke-linecap="round" stroke-linejoin="round"/>
      </g>
      <g opacity="1">
        <use xlink:href="#path-4" fill-opacity="0" stroke="rgb(55,64,76)" stroke-opacity="1" stroke-width="5" stroke-linecap="round" stroke-linejoin="round"/>
      </g>
      <g opacity="1">
        <use xlink:href="#path-5" fill-opacity="0" stroke="rgb(55,64,76)" stroke-opacity="1" stroke-width="5" stroke-linecap="round" stroke-linejoin="round"/>
      </g>
      <g opacity="1">
        <use xlink:href="#path-6" fill-opacity="0" stroke="rgb(55,64,76)" stroke-opacity="1" stroke-width="5" stroke-linecap="round" stroke-linejoin="round"/>
      </g>
      <g opacity="1">
        <use xlink:href="#path-7" fill-opacity="0" stroke="rgb(55,64,76)" stroke-opacity="1" stroke-width="5" stroke-linecap="round" stroke-linejoin="round"/>
      </g>
      <g opacity="1">
        <use xlink:href="#path-8" fill-opacity="0" stroke="rgb(66,76,89)" stroke-opacity="1" stroke-width="5" stroke-linecap="round" stroke-linejoin="round"/>
      </g>
    </g>
    <g opacity="1">
      <use xlink:href="#path-9" fill="rgb(49,57,68)" fill-opacity="1"/>
      <use xlink:href="#path-9" fill-opacity="0" stroke="rgb(66,76,89)" stroke-opacity="1" stroke-width="1"/>
    </g>
    <g opacity="1">
      <use xlink:href="#path-10" fill-opacity="0" stroke="rgb(66,76,89)" stroke-opacity="1" stroke-width="5" stroke-linecap="round" stroke-linejoin="round"/>
    </g>
    <g opacity="1">
      <use xlink:href="#path-11" fill-opacity="0" stroke="rgb(66,76,89)" stroke-opacity="1" stroke-width="5" stroke-linecap="round" stroke-linejoin="round"/>
    </g>
    <g opacity="1">
      <use xlink:href="#path-12" fill-opacity="0" stroke="rgb(66,76,89)" stroke-opacity="1" stroke-width="5" stroke-linecap="round" stroke-linejoin="round"/>
    </g>
    <g opacity="1">
      <use xlink:href="#path-13" fill-opacity="0" stroke="rgb(66,76,89)" stroke-opacity="1" stroke-width="5" stroke-linecap="round" stroke-linejoin="round"/>
    </g>
    <g opacity="1">
      <use xlink:href="#path-14" fill-opacity="0" stroke="rgb(66,76,89)" stroke-opacity="1" stroke-width="5" stroke-linecap="round" stroke-linejoin="round"/>
    </g>
    <g opacity="1">
      <use xlink:href="#path-15" fill-opacity="0" stroke="rgb(66,76,89)" stroke-opacity="1" stroke-width="5" stroke-linecap="round" stroke-linejoin="round"/>
    </g>
    <g opacity="1">
      <use xlink:href="#path-16" fill-opacity="0" stroke="rgb(66,76,89)" stroke-opacity="1" stroke-width="5" stroke-linecap="round" stroke-linejoin="round"/>
    </g>
    <g opacity="1">
      <use xlink:href="#path-17" fill-opacity="0" stroke="rgb(66,76,89)" stroke-opacity="1" stroke-width="5" stroke-linecap="round" stroke-linejoin="round"/>
    </g>
    <g opacity="1">
      <use xlink:href="#path-18" fill-opacity="0" stroke="rgb(66,76,89)" stroke-opacity="1" stroke-width="5" stroke-linecap="round" stroke-linejoin="round"/>
    </g>
    <g opacity="1">
      <use xlink:href="#path-19" fill-opacity="0" stroke="rgb(66,76,89)" stroke-opacity="1" stroke-width="5" stroke-linecap="round" stroke-linejoin="round"/>
    </g>
    <g opacity="1">
      <use xlink:href="#path-20" fill-opacity="0" stroke="rgb(66,76,89)" stroke-opacity="1" stroke-width="5" stroke-linecap="round" stroke-linejoin="round"/>
    </g>
    <g opacity="1">
      <use xlink:href="#path-21" fill-opacity="0" stroke="rgb(66,76,89)" stroke-opacity="1" stroke-width="5" stroke-linecap="round" stroke-linejoin="round"/>
    </g>
    <g opacity="1">
      <use xlink:href="#path-22" fill-opacity="0" stroke="rgb(66,76,89)" stroke-opacity="1" stroke-width="5" stroke-linecap="round" stroke-linejoin="round"/>
    </g>
    <g opacity="1">
      <use xlink:href="#path-23" fill-opacity="0" stroke="rgb(66,76,89)" stroke-opacity="1" stroke-width="5" stroke-linecap="round" stroke-linejoin="round"/>
    </g>
    <g opacity="1">
      <use xlink:href="#path-24" fill-opacity="0" stroke="rgb(66,76,89)" stroke-opacity="1" stroke-width="5" stroke-linecap="round" stroke-linejoin="round"/>
    </g>
    <g opacity="1">
      <use xlink:href="#path-25" fill-opacity="0" stroke="rgb(66,76,89)" stroke-opacity="1" stroke-width="5" stroke-linecap="round" stroke-linejoin="round"/>
    </g>
    <g opacity="1">
      <use xlink:href="#path-26" fill-opacity="0" stroke="rgb(66,76,89)" stroke-opacity="1" stroke-width="5" stroke-linecap="round" stroke-linejoin="round"/>
    </g>
    <g opacity="1">
      <use xlink:href="#path-27" fill-opacity="0" stroke="rgb(66,76,89)" stroke-opacity="1" stroke-width="5" stroke-linecap="round" stroke-linejoin="round"/>
    </g>
    <g opacity="1">
      <use xlink:href="#path-28" fill-opacity="0" stroke="rgb(66,76,89)" stroke-opacity="1" stroke-width="5" stroke-linecap="round" stroke-linejoin="round"/>
    </g>
    <g opacity="1">
      <use xlink:href="#path-29" fill-opacity="0" stroke="rgb(66,76,89)" stroke-opacity="1" stroke-width="5" stroke-linecap="round" stroke-linejoin="round"/>
    </g>
    <g opacity="1">
      <use xlink:href="#path-30" fill-opacity="0" stroke="rgb(66,76,89)" stroke-opacity="1" stroke-width="5" stroke-linecap="round" stroke-linejoin="round"/>
    </g>
    <g opacity="1">
      <use xlink:href="#path-31" fill-opacity="0" stroke="rgb(66,76,89)" stroke-opacity="1" stroke-width="5" stroke-linecap="round" stroke-linejoin="round"/>
    </g>
    <g opacity="1">
      <use xlink:href="#path-32" fill-opacity="0" stroke="rgb(66,76,89)" stroke-opacity="1" stroke-width="5" stroke-linecap="round" stroke-linejoin="round"/>
    </g>
    <g opacity="1">
      <use xlink:href="#path-33" fill-opacity="0" stroke="rgb(66,76,89)" stroke-opacity="1" stroke-width="5" stroke-linecap="round" stroke-linejoin="round"/>
    </g>
    <g opacity="1">
      <use xlink:href="#path-34" fill-opacity="0" stroke="rgb(66,76,89)" stroke-opacity="1" stroke-width="5" stroke-linecap="round" stroke-linejoin="round"/>
    </g>
    <g opacity="1">
      <use xlink:href="#path-35" fill-opacity="0" stroke="rgb(66,76,89)" stroke-opacity="1" stroke-width="5" stroke-linecap="round" stroke-linejoin="round"/>
    </g>
    <g opacity="1">
      <use xlink:href="#path-36" fill-opacity="0" stroke="rgb(66,76,89)" stroke-opacity="1" stroke-width="5" stroke-linecap="round" stroke-linejoin="round"/>
    </g>
    <g opacity="1">
      <use xlink:href="#path-37" fill-opacity="0" stroke="rgb(66,76,89)" stroke-opacity="1" stroke-width="5" stroke-linecap="round" stroke-linejoin="round"/>
    </g>
    <g opacity="1">
      <use xlink:href="#path-38" fill-opacity="0" stroke="rgb(66,76,89)" stroke-opacity="1" stroke-width="5" stroke-linecap="round" stroke-linejoin="round"/>
    </g>
    <g opacity="1">
      <use xlink:href="#path-39" fill-opacity="0" stroke="rgb(66,76,89)" stroke-opacity="1" stroke-width="5" stroke-linecap="round" stroke-linejoin="round"/>
    </g>
    <g opacity="1">
      <use xlink:href="#path-40" fill-opacity="0" stroke="rgb(66,76,89)" stroke-opacity="1" stroke-width="5" stroke-linecap="round" stroke-linejoin="round"/>
    </g>
    <g opacity="1">
      <use xlink:href="#path-41" fill-opacity="0" stroke="rgb(66,76,89)" stroke-opacity="1" stroke-width="5" stroke-linecap="round" stroke-linejoin="round"/>
    </g>
    <g opacity="1">
      <use xlink:href="#path-42" fill-opacity="0" stroke="rgb(66,76,89)" stroke-opacity="1" stroke-width="5" stroke-linecap="round" stroke-linejoin="round"/>
    </g>
    <g opacity="1">
      <use xlink:href="#path-43" fill-opacity="0" stroke="rgb(66,76,89)" stroke-opacity="1" stroke-width="5" stroke-linecap="round" stroke-linejoin="round"/>
    </g>
    <g opacity="1">
      <use xlink:href="#path-44" fill-opacity="0" stroke="rgb(66,76,89)" stroke-opacity="1" stroke-width="5" stroke-linecap="round" stroke-linejoin="round"/>
    </g>
    <g opacity="1">
      <use xlink:href="#path-45" fill-opacity="0" stroke="rgb(66,76,89)" stroke-opacity="1" stroke-width="5" stroke-linecap="round" stroke-linejoin="round"/>
    </g>
    <g opacity="1">
      <use xlink:href="#path-46" fill-opacity="0" stroke="rgb(66,76,89)" stroke-opacity="1" stroke-width="5" stroke-linecap="round" stroke-linejoin="round"/>
    </g>
    <g opacity="1">
      <use xlink:href="#path-47" fill-opacity="0" stroke="rgb(66,76,89)" stroke-opacity="1" stroke-width="5" stroke-linecap="round" stroke-linejoin="round"/>
    </g>
    <g opacity="1">
      <use xlink:href="#path-48" fill-opacity="0" stroke="rgb(66,76,89)" stroke-opacity="1" stroke-width="5" stroke-linecap="round" stroke-linejoin="round"/>
    </g>
    <g opacity="1">
      <use xlink:href="#path-49" fill-opacity="0" stroke="rgb(66,76,89)" stroke-opacity="1" stroke-width="5" stroke-linecap="round" stroke-linejoin="round"/>
    </g>
    <g opacity="1">
      <use xlink:href="#path-50" fill-opacity="0" stroke="rgb(66,76,89)" stroke-opacity="1" stroke-width="5" stroke-linecap="round" stroke-linejoin="round"/>
    </g>
    <g opacity="1">
      <use xlink:href="#path-51" fill-opacity="0" stroke="rgb(66,76,89)" stroke-opacity="1" stroke-width="5" stroke-linecap="round" stroke-linejoin="round"/>
    </g>
    <g opacity="1">
      <use xlink:href="#path-52" fill-opacity="0" stroke="rgb(66,76,89)" stroke-opacity="1" stroke-width="5" stroke-linecap="round" stroke-linejoin="round"/>
    </g>
    <g opacity="1">
      <use xlink:href="#path-53" fill-opacity="0" stroke="rgb(66,76,89)" stroke-opacity="1" stroke-width="5" stroke-linecap="round" stroke-linejoin="round"/>
    </g>
    <g opacity="1">
      <use xlink:href="#path-54" fill-opacity="0" stroke="rgb(66,76,89)" stroke-opacity="1" stroke-width="5" stroke-linecap="round" stroke-linejoin="round"/>
    </g>
    <g opacity="1">
      <use xlink:href="#path-55" fill-opacity="0" stroke="rgb(66,76,89)" stroke-opacity="1" stroke-width="5" stroke-linecap="round" stroke-linejoin="round"/>
    </g>
    <g opacity="1">
      <use xlink:href="#path-56" fill-opacity="0" stroke="rgb(66,76,89)" stroke-opacity="1" stroke-width="5" stroke-linecap="round" stroke-linejoin="round"/>
    </g>
    <g opacity="1">
      <use xlink:href="#path-57" fill-opacity="0" stroke="rgb(66,76,89)" stroke-opacity="1" stroke-width="5" stroke-linecap="round" stroke-linejoin="round"/>
    </g>
    <g opacity="1">
      <use xlink:href="#path-58" fill-opacity="0" stroke="rgb(66,76,89)" stroke-opacity="1" stroke-width="5" stroke-linecap="round" stroke-linejoin="round"/>
    </g>
    <g opacity="1">
      <use xlink:href="#path-59" fill-opacity="0" stroke="rgb(66,76,89)" stroke-opacity="1" stroke-width="5" stroke-linecap="round" stroke-linejoin="round"/>
    </g>
    <g opacity="1">
      <use xlink:href="#path-60" fill-opacity="0" stroke="rgb(66,76,89)" stroke-opacity="1" stroke-width="5" stroke-linecap="round" stroke-linejoin="round"/>
    </g>
    <g opacity="1">
      <use xlink:href="#path-61" fill-opacity="0" stroke="rgb(66,76,89)" stroke-opacity="1" stroke-width="5" stroke-linecap="round" stroke-linejoin="round"/>
    </g>
    <g opacity="1">
      <g opacity="1">
        <use xlink:href="#path-62" fill-opacity="0" stroke="rgb(66,76,89)" stroke-opacity="1" stroke-width="5" stroke-linecap="round" stroke-linejoin="round"/>
      </g>
      <g opacity="1">
        <use xlink:href="#path-63" fill-opacity="0" stroke="rgb(66,76,89)" stroke-opacity="1" stroke-width="5" stroke-linecap="round" stroke-linejoin="round"/>
      </g>
      <g opacity="1">
        <use xlink:href="#path-64" fill-opacity="0" stroke="rgb(66,76,89)" stroke-opacity="1" stroke-width="5" stroke-linecap="round" stroke-linejoin="round"/>
      </g>
      <g opacity="1">
        <use xlink:href="#path-65" fill-opacity="0" stroke="rgb(66,76,89)" stroke-opacity="1" stroke-width="5" stroke-linecap="round" stroke-linejoin="round"/>
      </g>
      <g opacity="1">
        <use xlink:href="#path-66" fill-opacity="0" stroke="rgb(66,76,89)" stroke-opacity="1" stroke-width="5" stroke-linecap="round" stroke-linejoin="round"/>
      </g>
      <g opacity="1">
        <use xlink:href="#path-67" fill-opacity="0" stroke="rgb(66,76,89)" stroke-opacity="1" stroke-width="5" stroke-linecap="round" stroke-linejoin="round"/>
      </g>
      <g opacity="1">
        <use xlink:href="#path-68" fill-opacity="0" stroke="rgb(66,76,89)" stroke-opacity="1" stroke-width="5" stroke-linecap="round" stroke-linejoin="round"/>
      </g>
      <g opacity="1">
        <use xlink:href="#path-69" fill-opacity="0" stroke="rgb(66,76,89)" stroke-opacity="1" stroke-width="5" stroke-linecap="round" stroke-linejoin="round"/>
      </g>
      <g opacity="1">
        <use xlink:href="#path-70" fill-opacity="0" stroke="rgb(66,76,89)" stroke-opacity="1" stroke-width="5" stroke-linecap="round" stroke-linejoin="round"/>
      </g>
      <g opacity="1">
        <use xlink:href="#path-71" fill-opacity="0" stroke="rgb(66,76,89)" stroke-opacity="1" stroke-width="5" stroke-linecap="round" stroke-linejoin="round"/>
      </g>
      <g opacity="1">
        <use xlink:href="#path-72" fill="rgb(66,76,89)" fill-opacity="1"/>
      </g>
      <g opacity="1">
        <use xlink:href="#path-73" fill="rgb(66,76,89)" fill-opacity="1"/>
      </g>
      <g opacity="1">
        <use xlink:href="#path-74" fill="rgb(66,76,89)" fill-opacity="1"/>
      </g>
    </g>
    <g opacity="1">
      <g transform="translate(927.111605205471, 458.63244908325396) rotate(69.00002467192752) translate(-927.111605205471, -458.63244908325396)" opacity="1">
        <use xlink:href="#path-75" fill-opacity="0" stroke="rgb(59,68,80)" stroke-opacity="1" stroke-width="1" stroke-linecap="round" stroke-linejoin="round"/>
      </g>
      <g opacity="1">
        <use xlink:href="#path-76" fill-opacity="0" stroke="rgb(59,68,80)" stroke-opacity="1" stroke-width="1" stroke-linecap="round" stroke-linejoin="round"/>
      </g>
      <g opacity="1">
        <use xlink:href="#path-77" fill-opacity="0" stroke="rgb(59,68,80)" stroke-opacity="1" stroke-width="1" stroke-linecap="round" stroke-linejoin="round"/>
      </g>
      <g opacity="1">
        <use xlink:href="#path-78" fill-opacity="0" stroke="rgb(59,68,80)" stroke-opacity="1" stroke-width="1" stroke-linecap="round" stroke-linejoin="round"/>
      </g>
      <g opacity="1">
        <use xlink:href="#path-79" fill-opacity="0" stroke="rgb(59,68,80)" stroke-opacity="1" stroke-width="1" stroke-linecap="round" stroke-linejoin="round"/>
      </g>
      <g opacity="1">
        <use xlink:href="#path-80" fill-opacity="0" stroke="rgb(59,68,80)" stroke-opacity="1" stroke-width="1" stroke-linecap="round" stroke-linejoin="round"/>
      </g>
      <g opacity="1">
        <use xlink:href="#path-81" fill-opacity="0" stroke="rgb(59,68,80)" stroke-opacity="1" stroke-width="1" stroke-linecap="round" stroke-linejoin="round"/>
      </g>
      <g opacity="1">
        <use xlink:href="#path-82" fill-opacity="0" stroke="rgb(59,68,80)" stroke-opacity="1" stroke-width="1" stroke-linecap="round" stroke-linejoin="round"/>
      </g>
      <g opacity="1">
        <use xlink:href="#path-83" fill-opacity="0" stroke="rgb(59,68,80)" stroke-opacity="1" stroke-width="1" stroke-linecap="round" stroke-linejoin="round"/>
      </g>
      <g opacity="1">
        <use xlink:href="#path-84" fill-opacity="0" stroke="rgb(59,68,80)" stroke-opacity="1" stroke-width="1" stroke-linecap="round" stroke-linejoin="round"/>
      </g>
      <g opacity="1">
        <use xlink:href="#path-85" fill-opacity="0" stroke="rgb(59,68,80)" stroke-opacity="1" stroke-width="1" stroke-linecap="round" stroke-linejoin="round"/>
      </g>
      <g opacity="1">
        <use xlink:href="#path-86" fill-opacity="0" stroke="rgb(59,68,80)" stroke-opacity="1" stroke-width="1" stroke-linecap="round" stroke-linejoin="round"/>
      </g>
      <g opacity="1">
        <use xlink:href="#path-87" fill-opacity="0" stroke="rgb(59,68,80)" stroke-opacity="1" stroke-width="1" stroke-linecap="round" stroke-linejoin="round"/>
      </g>
      <g opacity="1">
        <use xlink:href="#path-88" fill-opacity="0" stroke="rgb(59,68,80)" stroke-opacity="1" stroke-width="1" stroke-linecap="round" stroke-linejoin="round"/>
      </g>
      <g opacity="1">
        <use xlink:href="#path-89" fill-opacity="0" stroke="rgb(59,68,80)" stroke-opacity="1" stroke-width="1" stroke-linecap="round" stroke-linejoin="round"/>
      </g>
      <g opacity="1">
        <use xlink:href="#path-90" fill-opacity="0" stroke="rgb(59,68,80)" stroke-opacity="1" stroke-width="1" stroke-linecap="round" stroke-linejoin="miter"/>
      </g>
      <g opacity="1">
        <use xlink:href="#path-91" fill-opacity="0" stroke="rgb(59,68,80)" stroke-opacity="1" stroke-width="1" stroke-linecap="round" stroke-linejoin="miter"/>
      </g>
      <g opacity="1">
        <use xlink:href="#path-92" fill-opacity="0" stroke="rgb(59,68,80)" stroke-opacity="1" stroke-width="1" stroke-linecap="round" stroke-linejoin="miter"/>
      </g>
      <g opacity="1">
        <use xlink:href="#path-93" fill-opacity="0" stroke="rgb(59,68,80)" stroke-opacity="1" stroke-width="1" stroke-linecap="round" stroke-linejoin="miter"/>
      </g>
      <g opacity="1">
        <use xlink:href="#path-94" fill-opacity="0" stroke="rgb(59,68,80)" stroke-opacity="1" stroke-width="1" stroke-linecap="round" stroke-linejoin="miter"/>
      </g>
      <g opacity="1">
        <use xlink:href="#path-95" fill-opacity="0" stroke="rgb(59,68,80)" stroke-opacity="1" stroke-width="1" stroke-linecap="round" stroke-linejoin="miter"/>
      </g>
      <g opacity="1">
        <use xlink:href="#path-96" fill-opacity="0" stroke="rgb(59,68,80)" stroke-opacity="1" stroke-width="1" stroke-linecap="round" stroke-linejoin="miter"/>
      </g>
      <g opacity="1">
        <use xlink:href="#path-97" fill-opacity="0" stroke="rgb(59,68,80)" stroke-opacity="1" stroke-width="1" stroke-linecap="round" stroke-linejoin="miter"/>
      </g>
      <g opacity="1">
        <use xlink:href="#path-98" fill-opacity="0" stroke="rgb(59,68,80)" stroke-opacity="1" stroke-width="1" stroke-linecap="round" stroke-linejoin="miter"/>
      </g>
      <g opacity="1">
        <use xlink:href="#path-99" fill-opacity="0" stroke="rgb(59,68,80)" stroke-opacity="1" stroke-width="1" stroke-linecap="round" stroke-linejoin="miter"/>
      </g>
      <g opacity="1">
        <use xlink:href="#path-100" fill-opacity="0" stroke="rgb(59,68,80)" stroke-opacity="1" stroke-width="1" stroke-linecap="round" stroke-linejoin="miter"/>
      </g>
      <g opacity="1">
        <use xlink:href="#path-101" fill-opacity="0" stroke="rgb(59,68,80)" stroke-opacity="1" stroke-width="1" stroke-linecap="round" stroke-linejoin="miter"/>
      </g>
      <g opacity="1">
        <use xlink:href="#path-102" fill-opacity="0" stroke="rgb(59,68,80)" stroke-opacity="1" stroke-width="1" stroke-linecap="round" stroke-linejoin="miter"/>
      </g>
      <g opacity="1">
        <use xlink:href="#path-103" fill-opacity="0" stroke="rgb(59,68,80)" stroke-opacity="1" stroke-width="1" stroke-linecap="round" stroke-linejoin="miter"/>
      </g>
      <g opacity="1">
        <use xlink:href="#path-104" fill-opacity="0" stroke="rgb(59,68,80)" stroke-opacity="1" stroke-width="1" stroke-linecap="round" stroke-linejoin="miter"/>
      </g>
      <g opacity="1">
        <use xlink:href="#path-105" fill-opacity="0" stroke="rgb(59,68,80)" stroke-opacity="1" stroke-width="1" stroke-linecap="round" stroke-linejoin="miter"/>
      </g>
      <g opacity="1">
        <use xlink:href="#path-106" fill-opacity="0" stroke="rgb(59,68,80)" stroke-opacity="1" stroke-width="1" stroke-linecap="round" stroke-linejoin="miter"/>
      </g>
      <g opacity="1">
        <use xlink:href="#path-107" fill-opacity="0" stroke="rgb(59,68,80)" stroke-opacity="1" stroke-width="1" stroke-linecap="round" stroke-linejoin="miter"/>
      </g>
      <g opacity="1">
        <use xlink:href="#path-108" fill-opacity="0" stroke="rgb(59,68,80)" stroke-opacity="1" stroke-width="1" stroke-linecap="round" stroke-linejoin="miter"/>
      </g>
      <g opacity="1">
        <use xlink:href="#path-109" fill-opacity="0" stroke="rgb(59,68,80)" stroke-opacity="1" stroke-width="1" stroke-linecap="round" stroke-linejoin="miter"/>
      </g>
      <g opacity="1">
        <use xlink:href="#path-110" fill-opacity="0" stroke="rgb(59,68,80)" stroke-opacity="1" stroke-width="1" stroke-linecap="round" stroke-linejoin="miter"/>
      </g>
      <g opacity="1">
        <use xlink:href="#path-111" fill-opacity="0" stroke="rgb(59,68,80)" stroke-opacity="1" stroke-width="1" stroke-linecap="round" stroke-linejoin="miter"/>
      </g>
      <g opacity="1">
        <use xlink:href="#path-112" fill-opacity="0" stroke="rgb(59,68,80)" stroke-opacity="1" stroke-width="1" stroke-linecap="round" stroke-linejoin="miter"/>
      </g>
      <g opacity="1">
        <use xlink:href="#path-113" fill-opacity="0" stroke="rgb(59,68,80)" stroke-opacity="1" stroke-width="1" stroke-linecap="round" stroke-linejoin="miter"/>
      </g>
      <g opacity="1">
        <use xlink:href="#path-114" fill-opacity="0" stroke="rgb(59,68,80)" stroke-opacity="1" stroke-width="1" stroke-linecap="round" stroke-linejoin="miter"/>
      </g>
      <g opacity="1">
        <use xlink:href="#path-115" fill-opacity="0" stroke="rgb(59,68,80)" stroke-opacity="1" stroke-width="1" stroke-linecap="round" stroke-linejoin="miter"/>
      </g>
      <g opacity="1">
        <use xlink:href="#path-116" fill-opacity="0" stroke="rgb(59,68,80)" stroke-opacity="1" stroke-width="1" stroke-linecap="round" stroke-linejoin="miter"/>
      </g>
      <g opacity="1">
        <use xlink:href="#path-117" fill-opacity="0" stroke="rgb(59,68,80)" stroke-opacity="1" stroke-width="1" stroke-linecap="round" stroke-linejoin="miter"/>
      </g>
      <g opacity="1">
        <use xlink:href="#path-118" fill-opacity="0" stroke="rgb(59,68,80)" stroke-opacity="1" stroke-width="1" stroke-linecap="round" stroke-linejoin="miter"/>
      </g>
      <g opacity="1">
        <use xlink:href="#path-119" fill-opacity="0" stroke="rgb(59,68,80)" stroke-opacity="1" stroke-width="1" stroke-linecap="round" stroke-linejoin="miter"/>
      </g>
      <g opacity="1">
        <use xlink:href="#path-120" fill-opacity="0" stroke="rgb(59,68,80)" stroke-opacity="1" stroke-width="1" stroke-linecap="round" stroke-linejoin="miter"/>
      </g>
      <g opacity="1">
        <use xlink:href="#path-121" fill-opacity="0" stroke="rgb(59,68,80)" stroke-opacity="1" stroke-width="1" stroke-linecap="round" stroke-linejoin="miter"/>
      </g>
      <g opacity="1">
        <use xlink:href="#path-122" fill-opacity="0" stroke="rgb(59,68,80)" stroke-opacity="1" stroke-width="1" stroke-linecap="round" stroke-linejoin="miter"/>
      </g>
      <g opacity="1">
        <use xlink:href="#path-123" fill-opacity="0" stroke="rgb(60,68,80)" stroke-opacity="1" stroke-width="1" stroke-linecap="round" stroke-linejoin="round"/>
      </g>
      <g opacity="1">
        <use xlink:href="#path-124" fill-opacity="0" stroke="rgb(60,68,80)" stroke-opacity="1" stroke-width="1" stroke-linecap="round" stroke-linejoin="round"/>
      </g>
      <g opacity="1">
        <use xlink:href="#path-125" fill-opacity="0" stroke="rgb(60,68,80)" stroke-opacity="1" stroke-width="1" stroke-linecap="round" stroke-linejoin="round"/>
      </g>
      <g opacity="1">
        <use xlink:href="#path-126" fill-opacity="0" stroke="rgb(60,68,80)" stroke-opacity="1" stroke-width="1" stroke-linecap="round" stroke-linejoin="round"/>
      </g>
      <g opacity="1">
        <use xlink:href="#path-127" fill-opacity="0" stroke="rgb(60,68,80)" stroke-opacity="1" stroke-width="1" stroke-linecap="round" stroke-linejoin="round"/>
      </g>
      <g opacity="1">
        <use xlink:href="#path-128" fill-opacity="0" stroke="rgb(60,68,80)" stroke-opacity="1" stroke-width="1" stroke-linecap="round" stroke-linejoin="round"/>
      </g>
      <g opacity="1">
        <use xlink:href="#path-129" fill-opacity="0" stroke="rgb(60,68,80)" stroke-opacity="1" stroke-width="1" stroke-linecap="round" stroke-linejoin="round"/>
      </g>
      <g opacity="1">
        <use xlink:href="#path-130" fill-opacity="0" stroke="rgb(60,68,80)" stroke-opacity="1" stroke-width="1" stroke-linecap="round" stroke-linejoin="round"/>
      </g>
      <g opacity="1">
        <use xlink:href="#path-131" fill-opacity="0" stroke="rgb(60,68,80)" stroke-opacity="1" stroke-width="1" stroke-linecap="round" stroke-linejoin="round"/>
      </g>
      <g opacity="1">
        <use xlink:href="#path-132" fill-opacity="0" stroke="rgb(60,68,80)" stroke-opacity="1" stroke-width="1" stroke-linecap="round" stroke-linejoin="round"/>
      </g>
      <g opacity="1">
        <use xlink:href="#path-133" fill-opacity="0" stroke="rgb(60,68,80)" stroke-opacity="1" stroke-width="1" stroke-linecap="round" stroke-linejoin="round"/>
      </g>
    </g>
  </g>
</svg>