<?xml version="1.0" encoding="UTF-8"?>
<svg width="1040px" height="367px" viewBox="0 0 1040 367" version="1.1" xmlns="http://www.w3.org/2000/svg" xmlns:xlink="http://www.w3.org/1999/xlink">
    <!-- Generator: Sketch 49.3 (51167) - http://www.bohemiancoding.com/sketch -->
    <title>Rocket</title>
    <desc>Created with Sketch.</desc>
    <defs></defs>
    <g id="Artwork" stroke="none" stroke-width="1" fill="none" fill-rule="evenodd">
        <g id="Blog-Scene---Rocket-Shooting-at-the-Moon" transform="translate(0.000000, -490.000000)">
            <g id="Rocket" transform="translate(-16.000000, 493.000000)">
                <path d="M16.7421875,83.453125 C69.7080071,94.7650233 87.0233981,58.3784759 135.195313,77.65625 C163.309549,88.9072022 164.583981,117.575415 176.945313,140.039063 C189.65012,163.126892 203.083728,172.618429 224.53125,188.046875 C228.870229,191.168154 233.081409,180.049321 237.929688,179.007813 C243.288862,177.856553 248.884195,175.872238 254.25,176.992187 C262.554493,178.725498 269.488685,184.574157 277.53125,187.273438 C280.970306,188.427668 284.909069,189.58144 288.351562,188.4375 C294.980857,186.234587 291.670272,174.108579 295.742188,171.429688 C308.148046,163.267939 311.929228,178.511971 322.710938,174.289063 C327.117371,172.56318 330.298411,168.520593 334.570313,166.484375 C335.835819,165.881167 337.433679,166.22 338.773438,166.632813 C342.592296,167.809497 346.569724,168.92673 349.859375,171.195313 C352.965516,173.337345 354.050506,181.075733 357.5,179.546875 C363.285308,176.982757 362.85046,167.716811 367.46875,163.390625 C381.761137,150.002221 403.507066,188.598503 412.132813,193.851563 C415.093095,195.654368 419.100327,196.178486 422.4375,195.242188 C433.060159,192.261828 457.24073,146.459641 461.609375,139.960938 C465.746995,133.805901 467.863907,142.013582 473.289062,137.414063 C478.461977,133.028397 482.032481,116.342705 493.046875,131.070313 C495.340369,134.136998 492.074708,141.79938 495.882813,142.203125 L497.773438,143.445313 C512.283936,144.983753 519.991587,130.55628 528.867188,133.3125 C539.924279,136.746158 533.048301,149.379414 536,156.429688 C538.577647,162.586521 562.035704,152.864403 570.445313,165.859375 C571.204551,167.03259 576.672949,188.408868 583.414062,192.226563 C596.902475,199.865455 608.060696,180.047578 621.210938,198.484375 C632.403145,214.175985 618.713309,238.71845 652.820313,240.46875 C673.751685,241.542904 694.775446,241.278808 715.695313,240 C719.4307,239.77166 722.834868,237.6629 726.179688,235.984375 C757.287267,220.373716 742.135215,165.57608 775.828125,153.109375 C784.972558,149.725846 798.900219,154.373041 804.257813,146.226563 C808.124409,140.347217 790.272572,143.758863 783.8125,140.96875 C778.698845,138.760156 775.105312,133.843402 770.070313,131.460938 C761.115437,127.223662 750.84589,126.01538 742.15625,121.257813 C740.00187,120.078292 739.6146,116.942746 739.148438,114.53125 C738.107374,109.145749 719.054275,114.81034 723,111 C727.902087,106.266112 751.76808,98.9301908 758.046875,96.28125 C760.160963,95.3893441 758.632257,91.6880212 758.390625,89.40625 C757.940286,85.1536146 743.147961,80.8427195 746,77.65625 C761.938563,59.8487263 775.632219,66.7818438 779.007812,71.390625 C783.419452,77.4139441 786.511996,84.6439241 808,89.40625 C814.626616,90.8748882 810.087461,61.9377484 812.679688,61 C816.590419,59.5852774 794.886739,38.6526811 796.875,35 C800.177833,28.9322882 789.31862,23.8654687 791.117188,17.1953125 C791.663562,15.1690336 810.639985,6.99390888 812.679688,6.5 C826.150065,3.23818096 851.996656,13.6882137 853.132813,31.734375 C853.963494,44.9285225 861.969115,58.4627908 864.734375,71.390625 C867.233905,83.076147 865.479046,92.4788277 868.59375,104.015625 C871.520758,114.857199 869.88798,126.472081 871.601563,137.570312 C871.916242,139.608374 872.817885,141.955149 874.609375,142.976563 C877.307282,144.514767 881.176797,142.856115 883.796875,144.523438 C885.976664,145.910576 877.514157,141.763601 876.070313,143.90625 C872.937546,148.55524 875.277261,155.303157 873.0625,160.453125 C871.367623,164.39421 866.888166,166.555377 864.734375,170.265625 C863.796781,171.88078 863.045629,174.317438 864.132813,175.835938 C872.621676,187.692571 870.770477,176.559086 880.28125,180.9375 C882.007373,181.732144 881.837262,184.478265 883.117188,185.882813 C890.942119,194.469629 893.857392,188.844675 890.757813,205.289063 C890.399289,207.191158 886.899547,207.53381 886.71875,209.460938 C886.272347,214.219189 891.566517,219.553243 889.039063,223.609375 C884.173992,231.416982 872.740273,233.195459 867.304688,240.617188 C861.450458,248.610532 863.55825,280.432654 841.28125,274.554688 C837.986429,273.685322 834.834011,267.681424 834.40625,265.59375 C830.403941,246.060597 835.850139,247.262526 847.984375,235.132813 C851.602414,231.516122 862.283046,226.376051 858.03125,223.53125 L857.34375,221.21875 C838.405416,208.547449 835.770977,228.834812 812.679688,233.351563 C801.654003,235.508231 790.215169,235.60268 779.007813,234.820313 C771.305849,234.282651 788.271943,208.519728 771.789063,215.109375 C753.906256,222.258695 764.922586,232.418913 758.046875,246.414063 C754.894569,252.830417 748.361645,257.095098 742.5,261.1875 C699.806908,290.994372 732.81186,263.518549 696.96875,283.140625 C692.331683,285.679157 689.65099,291.706122 684.515625,292.960938 C673.995356,295.531542 676.756926,300.745961 666,302 C664.849116,302.13417 658,302 650.070312,296.976563 C642.140625,291.953125 653.189342,303.837754 650.84375,305.40625 C646.339864,308.417995 640.110782,307.425984 634.695313,307.257813 C631.649197,307.163219 628.736004,305.839519 625.9375,304.632813 C617.65882,301.063071 608.41939,298.786801 601.539062,292.960938 C598.45975,290.353554 601.924486,283.170852 598.359375,281.28125 C593.961852,278.950448 588.124686,285.487518 583.585938,283.445313 C574.470619,279.343883 573.910076,261.320739 571.992188,254.609375 C569.436429,245.665882 561.065421,245.529657 555.5,239.695313 C538.823192,222.212674 531.84415,196.838402 503.359375,201.34375 C480.619641,204.940422 494.880434,206.230877 485.320313,218.664063 C476.48416,230.155708 471.537883,209.295293 463.757813,235.132813 C459.76053,248.40774 474.559304,258.872825 454.484375,265.359375 C444.295164,268.651682 433.510571,269.921684 423.382813,273.398438 C414.00423,276.618007 405.672694,282.597003 396.15625,285.382813 C388.852404,287.520914 376.441865,280.998916 373.476563,288.007813 C370.896568,294.10598 386.306242,292.006709 391.773438,295.742188 C392.963058,296.554999 389.471956,297.619554 388.078125,297.984375 C378.86895,300.394784 369.348581,301.512907 360.164063,304.015625 C356.164963,305.105352 352.321337,306.790733 348.65625,308.726563 C346.179248,310.034868 344.47574,312.658583 341.867188,313.679688 C337.098759,315.546265 332.041966,317.152623 326.921875,317.234375 C298.303756,317.69132 296.966995,312.304288 269.023438,306.484375 C264.269447,305.494243 259.209332,306.465113 254.507813,305.25 C244.850204,302.75398 245.020954,297.304087 235.179688,299.453125 C213.886126,304.103002 241.934829,320.289638 224.789063,320.945312 C208.337216,321.574451 191.842453,321.441153 175.398438,320.632813 C159.592612,319.855844 163.634683,283.896231 163.117188,282.601563 C158.716923,271.593002 150.307824,262.641795 143.53125,252.914063 C142.019891,250.744516 140.274554,248.707064 138.289063,246.960938 C131.462109,240.95702 123.80166,235.92301 117.15625,229.71875 C114.530474,227.267284 113.078924,223.77139 110.632813,221.140625 C107.331572,217.590178 103.33575,214.737858 99.9765625,211.242188 C98.19253,209.38567 96.5481786,207.356359 95.25,205.132813 C94.4871688,203.82622 95.105883,201.695302 93.8828125,200.804688 C92.5613577,199.842431 90.5010354,199.960459 88.984375,200.570313 C81.1731796,203.711217 70.8391988,204.711631 66.390625,211.859375 C60.2978858,221.648881 74.8922895,242.803677 54.5390625,245.335938 C34.3137951,247.852278 34.4627948,236.975637 23.53125,222.609375 C4.07782408,197.043637 20.7115549,195.639088 15.0234375,155.578125 C13.013384,141.421476 5.16560941,128.698946 1.3671875,114.914063 C0.689236638,112.453706 0.54087806,109.533649 1.7109375,107.265625 C3.30320466,104.1792 6.63802083,102.369792 9.1015625,99.921875 L16.7421875,83.453125 Z" id="Path-4226" fill="#D8D8D8"></path>
                <path d="M877.015625,149.242188 C879.276042,149.963542 881.433341,151.197579 883.796875,151.40625 C890.271897,151.977915 899.558844,156.880379 903.296875,151.5625 C919.196468,128.943079 891.683473,123.895417 911.890625,117.929688 C931.871645,112.030718 923.983339,135.164682 944.273438,147.539063 C956.311955,154.881027 970.763932,154.136884 978.03125,143.828125 C979.778797,141.349213 979.36053,137.154116 981.984375,135.632813 C995.572293,127.75455 998.272599,148.017215 1006.97656,149.703125 C1017.88506,151.816041 1029.20581,145.759592 1040.21875,147.234375 C1044.20762,147.768539 1046.90287,152.017092 1049.15625,155.351563 C1051.46956,158.774713 1052.43239,162.964783 1053.53906,166.945313 C1055.75743,174.924425 1025.12905,178.712339 1018.40625,177.765625 C1015.54067,177.36209 1012.40447,173.240443 1010.15625,175.0625 C981.282435,198.463135 1036.04829,178.892581 993.234375,193.460938 C970.599382,201.16298 975.624525,174.975963 973.046875,173.28125 C967.902282,169.898864 960.61161,178.494507 958.015625,180.007813 C936.325044,192.652133 945.503413,191.385948 936.96875,216.65625 C935.705847,220.395582 933.504557,223.922926 930.703125,226.703125 C927.522948,229.859199 923.621131,232.42303 919.445312,234.046875 C916.255248,235.287391 912.573959,235.769059 909.226562,235.054688 C907.594465,234.70638 906.397255,232.819154 906.046875,231.1875 C905.197031,227.229932 905.135992,223.041632 905.789062,219.046875 C907.157325,210.677371 917.961384,200.483564 912.0625,194.390625 C905.210335,187.313045 890.972416,200.060236 882.515625,195.007813 C874.647561,190.307118 874.125344,178.637341 871.171875,169.960938 C869.980105,166.459876 869.892415,162.589468 870.226562,158.90625 C870.368485,157.341876 871.773438,156.171875 872.546875,154.804688 L877.015625,149.242188 Z" id="Path-4227" fill="#F7F7F1"></path>
                <path d="M842.117188,23.2695312 C828.292568,7.92308753 810.680477,-4.9307991 810.203125,25.125" id="Path-4037" stroke="#979797" stroke-width="5" stroke-linecap="round" stroke-linejoin="round"></path>
                <path d="M779.882812,0.078125 C776.369787,22.0588361 799.804622,28.8339734 761.542969,22.4570312" id="Path-4038" stroke="#979797" stroke-width="5" stroke-linecap="round" stroke-linejoin="round"></path>
                <path d="M776.574219,38.0742187 C773.098298,34.9992298 764.620425,24.4464226 760.683594,32.2382812" id="Path-4039" stroke="#979797" stroke-width="5" stroke-linecap="round" stroke-linejoin="round"></path>
                <path d="M685.996094,14.7265625 C695.783456,17.8558552 689.648939,5.37346305 686.296875,15.65625" id="Path-4114" stroke="#979797" stroke-width="5" stroke-linecap="round" stroke-linejoin="round"></path>
                <path d="M1001.84375,151.101563 C998.450521,145.161458 995.497896,138.946986 991.664062,133.28125 C982.813205,120.201231 970.498638,145.280461 983.375,149.515625" id="Path-4025" stroke="#979797" stroke-width="5" stroke-linecap="round" stroke-linejoin="round"></path>
                <path d="M1007.85547,171.082031 C1001.75411,179.265661 988.618244,210.640268 986.125,174.601562" id="Path-4026" stroke="#979797" stroke-width="5" stroke-linecap="round" stroke-linejoin="round"></path>
                <path d="M949.273438,153.109375 C990.191439,147.279451 971.273562,149.11424 1038.99609,148.894531 C1044.30042,148.877323 1037.43104,151.241312 1041.61328,152.761719 C1044.84971,153.938287 1049.42704,151.503794 1051.87891,153.921875 C1055.73044,157.720328 1049.54601,162.284867 1046.89844,162.65625 C1040.38043,163.570551 1033.20063,167.121775 1027.22656,164.359375 C1024.08822,162.90821 1038.7322,151.729898 1028,149.207031 C1026.47465,148.84846 1024.90885,149.722656 1023.36328,149.980469" id="Path-4027" stroke="#979797" stroke-width="5" stroke-linecap="round" stroke-linejoin="round"></path>
                <path d="M1026.75391,164.011719 C973.067382,167.464567 997.433897,164.993574 953.570312,170.542969" id="Path-4028" stroke="#979797" stroke-width="5" stroke-linecap="round" stroke-linejoin="round"></path>
                <path d="M953.65625,156.355469 C927.527998,132.251023 928.68072,163.284746 915.214844,138.5" id="Path-4029" stroke="#979797" stroke-width="5" stroke-linecap="round" stroke-linejoin="round"></path>
                <path d="M966.453125,179.78125 C960.975017,175.621023 962.458503,175.776473 951.464844,177.65625 C946.128076,178.56877 940.113404,178.84591 935.875,182.214844 C933.785687,183.875553 936.348304,187.640061 935.660156,190.21875 C933.241803,199.281018 927.342117,223.927569 920.800781,227.054688 C918.361384,228.220853 913.260256,230.43889 912.722656,227.789062 C906.797688,198.584928 919.730704,192.206616 918.050781,168.609375 C909.556902,49.299087 923.405079,296.179717 910.0625,142.980469 C909.034674,131.178985 906.414558,118.287462 911.222656,107.460938 C913.318834,102.740918 918.046655,115.383962 920.242187,120.058594 C922.851831,125.614934 922.540105,132.3147 925.4375,137.726563 C928.009851,142.531294 932.653646,145.895833 936.261719,149.980469" id="Path-4030" stroke="#979797" stroke-width="5" stroke-linecap="round" stroke-linejoin="round"></path>
                <path d="M909.890625,143.910156 C903.433594,143.278646 896.990757,141.551628 890.519531,142.015625 C873.229047,143.25538 885.744756,149.310114 876.304688,143.679688" id="Path-4031" stroke="#979797" stroke-width="5" stroke-linecap="round" stroke-linejoin="round"></path>
                <path d="M878.492188,188.941406 C885.388192,188.761101 907.220717,196.959309 906.625,189.097656" id="Path-4032" stroke="#979797" stroke-width="5" stroke-linecap="round" stroke-linejoin="round"></path>
                <path d="M882.144531,153.652344 C904.435939,165.791229 865.121446,153.185355 868.917969,172.167969" id="Path-4033" stroke="#979797" stroke-width="5" stroke-linecap="round" stroke-linejoin="round"></path>
                <path d="M877.207031,175.066406 C874,178.390625 870.792969,181.714844 867.585938,185.039062" id="Path-4034" stroke="#979797" stroke-width="5" stroke-linecap="round" stroke-linejoin="round"></path>
                <path d="M876.347656,147.273438 C862.166058,118.654563 868.235324,134.731777 859.898438,98.4140625" id="Path-4035" stroke="#979797" stroke-width="5" stroke-linecap="round" stroke-linejoin="round"></path>
                <path d="M860.542969,92.2304688 C857.717974,65.1945699 867.94791,86.9486696 871.40625,88.7890625 C872.59719,89.422834 872.344248,86.0358096 871.878906,84.7695312 C869.236085,77.5779426 865.026276,71.038694 862.257812,63.8945312 C862.071441,63.4135901 863.975235,64.4203713 863.804688,63.9335938 L863.804688,61.8867188 C861.095999,54.155545 857.963542,46.5794271 855.042969,38.9257812" id="Path-4036" stroke="#979797" stroke-width="5" stroke-linecap="round" stroke-linejoin="round"></path>
                <path d="M772.152344,45.5742187 C770.01779,44.4086347 762.26898,39.3533077 757.980469,38.7695312 C757.347923,38.6834255 756.541764,38.7832466 756.132813,39.2734375 C755.893221,39.5606248 756.591146,39.8645833 756.820313,40.1601562" id="Path-4040" stroke="#979797" stroke-width="5" stroke-linecap="round" stroke-linejoin="round"></path>
                <path d="M765.496094,53.6132812 C759.234527,53.9759379 761.094535,55.440552 758.707031,51.5273438" id="Path-4041" stroke="#979797" stroke-width="5" stroke-linecap="round" stroke-linejoin="round"></path>
                <path d="M794.613281,36.9140625 C808.967174,51.214236 819.368165,68.8216988 810.332031,90.5664062" id="Path-4042" stroke="#979797" stroke-width="5" stroke-linecap="round" stroke-linejoin="round"></path>
                <path d="M770.304688,66.1757812 C813.333695,102.039861 799.381039,84.3273731 818.835938,113.296875" id="Path-4043" stroke="#979797" stroke-width="5" stroke-linecap="round" stroke-linejoin="round"></path>
                <path d="M825.882812,106.183594 C835.350233,113.09293 839.424788,125.30531 851.351562,124.503906" id="Path-4044" stroke="#979797" stroke-width="5" stroke-linecap="round" stroke-linejoin="round"></path>
                <path d="M828.113281,126.671875 C834.971354,130.485677 841.829427,134.299479 848.6875,138.113281" id="Path-4045" stroke="#979797" stroke-width="5" stroke-linecap="round" stroke-linejoin="round"></path>
                <path d="M831.292969,142.75 C835.859375,144.85026 840.425781,146.950521 844.992188,149.050781" id="Path-4046" stroke="#979797" stroke-width="5" stroke-linecap="round" stroke-linejoin="round"></path>
                <path d="M748.144531,80.015625 C768.04179,99.8189139 777.36395,109.503764 804.0625,115.382812" id="Path-4047" stroke="#979797" stroke-width="5" stroke-linecap="round" stroke-linejoin="round"></path>
                <path d="M724.820312,110.242188 C727.716271,109.223394 742.187886,102.752453 745.4375,107.613281 C747.787298,111.12815 733.811446,125.496336 734.441406,125.585938 C741.532683,126.594555 748.836333,125.210936 755.917969,126.285156 C804.269613,133.619662 744.667199,129.701042 780.011719,131.503906" id="Path-4048" stroke="#979797" stroke-width="5" stroke-linecap="round" stroke-linejoin="round"></path>
                <path d="M833.140625,148.625 C815.163931,143.67236 803.35628,145.209181 786.453125,153.457031" id="Path-4049" stroke="#979797" stroke-width="5" stroke-linecap="round" stroke-linejoin="round"></path>
                <path d="M784.949219,155.546875 C780.769531,157.002604 776.589844,158.458333 772.410156,159.914062" id="Path-4050" stroke="#979797" stroke-width="5" stroke-linecap="round" stroke-linejoin="round"></path>
                <path d="M768.113281,162.386719 C757.638757,168.279076 750.855674,178.783224 750.332031,190.644531" id="Path-4051" stroke="#979797" stroke-width="5" stroke-linecap="round" stroke-linejoin="round"></path>
                <path d="M749.433594,200.230469 C747.319044,211.645062 733.398447,217.915828 734.65625,228.792969" id="Path-4052" stroke="#979797" stroke-width="5" stroke-linecap="round" stroke-linejoin="round"></path>
                <path d="M730.40625,240.429688 C715.230469,243.561198 700.054688,246.692708 684.878906,249.824219" id="Path-4053" stroke="#979797" stroke-width="5" stroke-linecap="round" stroke-linejoin="round"></path>
                <path d="M666.796875,242.941406 C658.623991,242.941406 659.652663,245.358009 659.410156,240.199219" id="Path-4054" stroke="#979797" stroke-width="5" stroke-linecap="round" stroke-linejoin="round"></path>
                <path d="M647.46875,240.507812 C617.293024,234.267335 636.917193,243.445519 626.640625,228.523438 C617.886666,215.812259 621.437319,230.318091 619.425781,216.578125" id="Path-4055" stroke="#979797" stroke-width="5" stroke-linecap="round" stroke-linejoin="round"></path>
                <path d="M611.953125,216.347656 C601.853791,205.472445 608.320443,211.461906 591.292969,199.84375" id="Path-4056" stroke="#979797" stroke-width="5" stroke-linecap="round" stroke-linejoin="round"></path>
                <path d="M575.660156,182.0625 C567.987378,177.196311 555.486965,174.245151 550.105469,167.488281" id="Path-4057" stroke="#979797" stroke-width="5" stroke-linecap="round" stroke-linejoin="round"></path>
                <path d="M537.476562,159.679688 C522.263914,155.380558 509.584566,149.049401 494.140625,144.644531" id="Path-4058" stroke="#979797" stroke-width="5" stroke-linecap="round" stroke-linejoin="round"></path>
                <path d="M480.140625,141.164063 C469.139609,140.818948 450.172616,138.426962 446.296875,152.53125 C445.211056,156.482676 446.809395,160.971973 445.308594,164.785156 C444.298389,167.35185 440.833862,168.16477 439.253906,170.425781 C433.998948,177.945939 430.234427,185.819453 427.441406,194.894531" id="Path-4059" stroke="#979797" stroke-width="5" stroke-linecap="round" stroke-linejoin="round"></path>
                <path d="M419.710938,198.566406 C418.055654,198.850601 391.384738,205.1468 385.523438,201.390625 C382.893893,199.705499 385.242078,194.499184 382.945312,192.382813 C379.842549,189.523748 374.614669,190.313028 371.050781,188.054688 C366.677112,185.28321 364.158466,180.000172 359.582031,177.578125 C346.690365,170.755298 326.525435,166.844317 312.210938,170.15625" id="Path-4060" stroke="#979797" stroke-width="5" stroke-linecap="round" stroke-linejoin="round"></path>
                <path d="M364.863281,188.476562 C362.86923,182.553213 362.974935,150.593882 375.386719,157.902344 C383.604231,162.741082 390.517634,169.570265 397.421875,176.148437 C404.709546,183.091932 396.273684,189.232047 406.226563,192.421875" id="Path-4061" stroke="#979797" stroke-width="5" stroke-linecap="round" stroke-linejoin="round"></path>
                <path d="M313.882812,175.527344 C296.127134,173.740638 291.300762,173.225734 305.851562,186.238281" id="Path-4062" stroke="#979797" stroke-width="5" stroke-linecap="round" stroke-linejoin="round"></path>
                <path d="M284.507812,192.921875 C279.053385,192.278646 273.269564,192.966664 268.144531,190.992188 C266.732393,190.448146 268.464192,187.807086 267.757812,186.46875 C266.220716,183.556502 264.2475,180.731281 261.65625,178.699219 C248.345742,168.261101 236.170716,175.594142 227.640625,186.816406" id="Path-4063" stroke="#979797" stroke-width="5" stroke-linecap="round" stroke-linejoin="round"></path>
                <path d="M255.085938,191.03125 C237.375069,192.719663 221.412786,193.701511 209.734375,177.578125" id="Path-4064" stroke="#979797" stroke-width="5" stroke-linecap="round" stroke-linejoin="round"></path>
                <path d="M212.480469,184.496094 C194.778136,173.396253 185.315672,170.189221 182.503906,149.707031" id="Path-4065" stroke="#979797" stroke-width="5" stroke-linecap="round" stroke-linejoin="round"></path>
                <path d="M196.761719,188.476562 C172.444439,161.974849 174.150308,121.622998 159.996094,90.9140625 C157.947754,86.4699912 149.147706,89.0929709 147.199219,87.6679688 C145.369957,86.330161 147.019226,83.0586207 146.210938,80.9414062 C145.483691,79.0364719 136.114457,74.2482897 121.644531,67.8398438" id="Path-4066" stroke="#979797" stroke-width="5" stroke-linecap="round" stroke-linejoin="round"></path>
                <path d="M112.066406,66.7929688 C88.0018923,65.4979438 114.450648,65.4960401 80.5429688,72.9804688 C67.8076097,75.7915395 70.2354009,69.9784639 58.0351563,75.3359375 C53.0379882,77.5303358 49.4895562,82.8409247 44.1640625,84.0351563 C11.9881416,91.2505435 27.341937,73.3250523 10.75,94.703125 C10.3938426,95.1620201 9.86245052,96.1080625 10.3632813,96.4023438 C11.2883823,96.9459204 12.5091146,96.3789063 13.5820313,96.3671875" id="Path-4067" stroke="#979797" stroke-width="5" stroke-linecap="round" stroke-linejoin="round"></path>
                <path d="M21.3984375,211.515625 C23.203125,215.14974 25.4365121,218.600857 26.8125,222.417969 C27.8495955,225.294963 26.2003482,229.493818 28.5742188,231.421875 C30.854981,233.274309 34.8947048,229.430882 37.3789062,231 C43.8865286,235.110468 44.3273671,247.966888 53.1835938,240.816406" id="Path-4068" stroke="#979797" stroke-width="5" stroke-linecap="round" stroke-linejoin="round"></path>
                <path d="M58.0351562,235.09375 C67.3466768,218.064954 62.8424048,229.229478 65.7226562,199.804688" id="Path-4069" stroke="#979797" stroke-width="5" stroke-linecap="round" stroke-linejoin="round"></path>
                <path d="M72.640625,199.921875 C79.2243786,208.000141 88.2819043,210.545632 89.5195312,198.296875" id="Path-4070" stroke="#979797" stroke-width="5" stroke-linecap="round" stroke-linejoin="round"></path>
                <path d="M88.1875,180.980469 C92.8398438,186.018229 97.4921875,191.05599 102.144531,196.09375" id="Path-4071" stroke="#979797" stroke-width="5" stroke-linecap="round" stroke-linejoin="round"></path>
                <path d="M97.9804688,183.222656 C107.235851,190.452529 117.595259,207.194378 129.160156,196.789062" id="Path-4072" stroke="#979797" stroke-width="5" stroke-linecap="round" stroke-linejoin="round"></path>
                <path d="M98.1953125,192.652344 C108.394092,193.089122 109.93438,210.816787 112.625,216.890625 C120.407105,234.458045 140.968961,239.644743 150.375,253.921875" id="Path-4073" stroke="#979797" stroke-width="5" stroke-linecap="round" stroke-linejoin="round"></path>
                <path d="M129.417969,243.175781 C138.486749,262.065702 140.442725,254.991903 154.542969,265.515625 C158.942799,268.79944 160.95801,285.683144 161.585938,286.777344 C162.550303,288.457806 166.510956,286.088419 167.296875,287.859375 C178.35318,312.773186 146.834325,291.42594 179.625,324.15625 C185.839714,330.359523 191.971712,317.250734 195.472656,316.886719 C200.346361,316.379969 237.346948,329.54378 229.789062,314.878906" id="Path-4074" stroke="#979797" stroke-width="5" stroke-linecap="round" stroke-linejoin="round"></path>
                <path d="M227.769531,309.929688 C226.837637,303.036281 227.129405,274.673617 229.015625,309.542969" id="Path-4075" stroke="#979797" stroke-width="5" stroke-linecap="round" stroke-linejoin="round"></path>
                <path d="M182.933594,268.570312 C207.892685,273.220783 187.041433,267.586658 222.015625,289.25 C250.163473,306.685041 217.700778,285.531577 238.980469,293.308594 C242.511465,294.599055 244.820306,298.342166 248.386719,299.53125 C255.790441,301.999739 262.626064,292.736908 268.144531,291.722656 C298.033939,286.229214 262.761639,306.120652 291.421875,286.851562" id="Path-4076" stroke="#979797" stroke-width="5" stroke-linecap="round" stroke-linejoin="round"></path>
                <path d="M269.519531,302.082031 C275.646869,303.670405 285.316124,306.942915 291.550781,304.632812 C295.215638,303.274888 296.265735,297.630406 300.011719,296.515625 C301.761479,295.994907 301.372476,299.987207 302.589844,301.347656 C304.805177,303.823366 306.880809,307.244215 310.148438,307.84375 C412.087976,326.547326 299.734051,295.846379 335.1875,310.355469 C336.886429,311.050744 338.924178,311.226788 340.683594,310.703125 C400.867448,292.790344 320.929574,315.434511 366.066406,294.621094 C381.577439,287.468674 380.40329,298.152752 380.886719,291.648438" id="Path-4077" stroke="#979797" stroke-width="5" stroke-linecap="round" stroke-linejoin="round"></path>
                <path d="M359.925781,282.058594 C452.603045,285.504938 335.641698,284.21469 405.753906,277.113281 C412.368448,276.443319 419.321333,281.364198 425.59375,279.160156 C430.723323,277.357694 432.120309,270.425629 435.902344,266.519531 C442.301254,259.910716 445.022739,265.809405 448.101562,256.664062" id="Path-4078" stroke="#979797" stroke-width="5" stroke-linecap="round" stroke-linejoin="round"></path>
                <path d="M428.644531,228.058594 C424.391927,232.143229 419.775386,235.879988 415.886719,240.3125 C415.384043,240.885476 409.054995,247.516999 412.582031,250.285156 C425.909488,260.745073 439.113935,240.126698 420.871094,238.417969" id="Path-4079" stroke="#979797" stroke-width="5" stroke-linecap="round" stroke-linejoin="round"></path>
                <path d="M508.917969,149.398437 C519.688655,129.400143 532.800502,130.250071 527.597656,154.269531" id="Path-4080" stroke="#979797" stroke-width="5" stroke-linecap="round" stroke-linejoin="round"></path>
                <path d="M476.574219,142.09375 C478.639962,119.545844 487.229653,123.552742 493.410156,142.246094" id="Path-4081" stroke="#979797" stroke-width="5" stroke-linecap="round" stroke-linejoin="round"></path>
                <path d="M541.902344,166.328125 C567.578085,149.260977 558.263738,168.855858 579.136719,180.4375" id="Path-4082" stroke="#979797" stroke-width="5" stroke-linecap="round" stroke-linejoin="round"></path>
                <path d="M582.960938,190.21875 C607.804111,174.190289 605.894707,210.296895 615.988281,213.796875" id="Path-4083" stroke="#979797" stroke-width="5" stroke-linecap="round" stroke-linejoin="round"></path>
                <path d="M525.539062,172.9375 C502.720372,184.028766 544.211515,169.515915 522.746094,170.542969" id="Path-4084" stroke="#979797" stroke-width="5" stroke-linecap="round" stroke-linejoin="round"></path>
                <path d="M523.949219,164.320312 C521.257812,165.13151 518.566406,165.942708 515.875,166.753906" id="Path-4085" stroke="#979797" stroke-width="5" stroke-linecap="round" stroke-linejoin="round"></path>
                <path d="M491.566406,161.035156 C482.057014,165.972356 493.732454,164.300556 494.269531,160.53125" id="Path-4086" stroke="#979797" stroke-width="5" stroke-linecap="round" stroke-linejoin="round"></path>
                <path d="M498.695313,177.886719 C486.299533,178.479818 489.245319,203.791933 499.941406,193.582031" id="Path-4087" stroke="#979797" stroke-width="5" stroke-linecap="round" stroke-linejoin="round"></path>
                <path d="M472.96875,207.1875 C472.29753,218.259244 476.058908,224.598543 485.765625,217.199219" id="Path-4088" stroke="#979797" stroke-width="5" stroke-linecap="round" stroke-linejoin="round"></path>
                <path d="M481.988281,200.925781 C477.641311,203.769018 476.528263,206.108366 481.816406,208.425781" id="Path-4089" stroke="#979797" stroke-width="5" stroke-linecap="round" stroke-linejoin="round"></path>
                <path d="M458.921875,223.886719 C459.339376,239.177022 470.062718,259.732542 447.929688,262.695312" id="Path-4090" stroke="#979797" stroke-width="5" stroke-linecap="round" stroke-linejoin="round"></path>
                <path d="M379.554688,219.980469 C371.255927,222.486972 374.380258,220.127993 369.71875,226.398438" id="Path-4091" stroke="#979797" stroke-width="5" stroke-linecap="round" stroke-linejoin="round"></path>
                <path d="M332.09375,232.582031 C335.028646,231.950521 337.963542,231.31901 340.898438,230.6875" id="Path-4092" stroke="#979797" stroke-width="5" stroke-linecap="round" stroke-linejoin="round"></path>
                <path d="M332.867188,247.195312 C360.305836,223.133401 335.726607,261.290212 335.1875,247.273437" id="Path-4093" stroke="#979797" stroke-width="5" stroke-linecap="round" stroke-linejoin="round"></path>
                <path d="M325.78125,273.285156 C311.833848,277.067404 294.210865,273.161007 311.652344,267.449219 C322.509183,263.893788 322.006914,278.297137 335.359375,269.730469" id="Path-4094" stroke="#979797" stroke-width="5" stroke-linecap="round" stroke-linejoin="round"></path>
                <path d="M347.554688,276.109375 C349.602865,274.227865 351.050529,271.313109 353.699219,270.464844 C358.311267,268.987796 356.567208,284.379255 347.941406,277.5" id="Path-4095" stroke="#979797" stroke-width="5" stroke-linecap="round" stroke-linejoin="round"></path>
                <path d="M319.167969,297.832031 C325.002623,298.101968 338.786318,301.120665 339.523438,291.296875" id="Path-4096" stroke="#979797" stroke-width="5" stroke-linecap="round" stroke-linejoin="round"></path>
                <path d="M263.375,234.941406 C261.858073,235.933594 260.042205,236.575578 258.824219,237.917969 C243.266952,255.064256 274.714578,236.109381 262.386719,235.519531" id="Path-4097" stroke="#979797" stroke-width="5" stroke-linecap="round" stroke-linejoin="round"></path>
                <path d="M227.941406,236.214844 C231.345185,241.255186 234.818043,235.818908 227.082031,233.625" id="Path-4098" stroke="#979797" stroke-width="5" stroke-linecap="round" stroke-linejoin="round"></path>
                <path d="M216.820312,221.21875 C212.716077,231.375696 226.462203,224.636794 220.125,219.59375" id="Path-4099" stroke="#979797" stroke-width="5" stroke-linecap="round" stroke-linejoin="round"></path>
                <path d="M251.824219,207.535156 C280.504444,199.697764 227.797025,213.159878 286.011719,205.601563 C297.267887,204.140116 307.976412,199.830085 319.082031,197.484375 C319.555129,197.384448 318.623698,198.335938 318.394531,198.761719" id="Path-4100" stroke="#979797" stroke-width="5" stroke-linecap="round" stroke-linejoin="round"></path>
                <path d="M284.464844,209.855469 C271.432239,216.694894 283.736511,219.972505 291.9375,215.960938" id="Path-4101" stroke="#979797" stroke-width="5" stroke-linecap="round" stroke-linejoin="round"></path>
                <path d="M155.058594,174.292969 C182.633635,174.292969 179.15881,206.905118 204.363281,194.703125" id="Path-4102" stroke="#979797" stroke-width="5" stroke-linecap="round" stroke-linejoin="round"></path>
                <path d="M101.113281,162.617188 C131.528866,186.898731 98.9154391,141.833055 109.917969,134.207031" id="Path-4103" stroke="#979797" stroke-width="5" stroke-linecap="round" stroke-linejoin="round"></path>
                <path d="M123.621094,144.875 C113.528864,150.007544 126.869802,162.076477 132.039062,151.136719 C135.171217,144.508107 123.281286,136.70413 119.453125,143.097656" id="Path-4104" stroke="#979797" stroke-width="5" stroke-linecap="round" stroke-linejoin="round"></path>
                <path d="M155.875,279.78125 C141.750151,282.018326 147.599691,279.410599 137.75,286.15625" id="Path-4106" stroke="#979797" stroke-width="5" stroke-linecap="round" stroke-linejoin="round"></path>
                <path d="M138.523438,259.0625 C133.498698,261.484375 128.473958,263.90625 123.449219,266.328125" id="Path-4107" stroke="#979797" stroke-width="5" stroke-linecap="round" stroke-linejoin="round"></path>
                <path d="M118.980469,246.382812 C131.150922,253.770291 125.96946,254.715445 134.097656,250.980469" id="Path-4108" stroke="#979797" stroke-width="5" stroke-linecap="round" stroke-linejoin="round"></path>
                <path d="M579.179688,108.617187 C579.151042,111.967448 575.833061,119.438015 579.09375,118.667969 L582.53125,120.292969 C587.983834,119.005284 591.262646,106.689338 583.519531,107.109375 C582.186792,107.181672 581.141927,108.322917 579.953125,108.929687 L579.179688,108.617187 Z" id="Path-4109" stroke="#979797" stroke-width="5" stroke-linecap="round" stroke-linejoin="round"></path>
                <path d="M669.632812,169.074219 C669.990885,172.063802 669.912236,175.138812 670.707031,178.042969 C674.144855,190.604667 690.817634,180.023588 681.230469,176.457031" id="Path-4110" stroke="#979797" stroke-width="5" stroke-linecap="round" stroke-linejoin="round"></path>
                <path d="M678.910156,141.398438 C682.760417,139.645833 690.919373,131.935157 690.460938,136.140625 L700.554688,138.886719 C699.144715,151.821125 680.897971,139.555431 677.964844,139.929688" id="Path-4111" stroke="#979797" stroke-width="5" stroke-linecap="round" stroke-linejoin="round"></path>
                <path d="M650.5625,87.203125 C654.965952,95.6352675 661.319663,87.1120983 654.601562,84.6914062" id="Path-4112" stroke="#979797" stroke-width="5" stroke-linecap="round" stroke-linejoin="round"></path>
                <path d="M668.644531,45.0703125 C671.786119,46.134842 691.792151,54.3586492 699.351562,53.421875 C699.789288,53.3676314 699.894712,50.1096399 694.628906,47.234375 C691.505686,45.5290168 688.2208,44.0823069 684.835938,42.984375 C681.317954,41.8432632 677.507825,41.7533512 674.011719,40.546875 C673.447579,40.3521953 675.10026,40.0572917 675.644531,39.8125" id="Path-4113" stroke="#979797" stroke-width="5" stroke-linecap="round" stroke-linejoin="round"></path>
                <path d="M692.652344,209.96875 C695.643099,216.501803 688.552119,238.061841 683.890625,228.332031" id="Path-4115" stroke="#979797" stroke-width="5" stroke-linecap="round" stroke-linejoin="round"></path>
                <path d="M632.738281,236.175781 C643.527159,229.303553 651.736348,228.005212 650.476562,215.382812" id="Path-4116" stroke="#979797" stroke-width="5" stroke-linecap="round" stroke-linejoin="round"></path>
                <path d="M571.964844,286.195312 C552.46792,297.162934 576.527456,290.157909 574.628906,284.613281" id="Path-4117" stroke="#979797" stroke-width="5" stroke-linecap="round" stroke-linejoin="round"></path>
                <path d="M596.273437,291.296875 C590.317532,297.241125 591.791988,299.687062 599.882812,291.839844" id="Path-4118" stroke="#979797" stroke-width="5" stroke-linecap="round" stroke-linejoin="round"></path>
                <path d="M609.117188,287.972656 C610.619792,292.598958 609.374941,299.485661 613.625,301.851562 C616.902175,303.675884 619.862368,293.80517 623.074219,295.742188 L625.308594,292.496094 C627.211658,293.643802 626.087257,297.340374 627.886719,298.644531 L636.949219,299.570312 C638.607305,300.772008 635.719797,304.854084 637.59375,305.679688 C642.359924,307.77951 648.143267,308.03444 653.183594,306.722656 C689.318511,297.318269 652.278187,297.563972 674.527344,298.257812" id="Path-4119" stroke="#979797" stroke-width="5" stroke-linecap="round" stroke-linejoin="round"></path>
                <path d="M653.957031,288.167969 C661.628431,292.327487 669.9249,295.71157 678.953125,293.269531 C680.928238,292.735284 682.245763,290.458091 684.277344,290.214844 C688.721253,289.682761 693.572537,292.805758 697.679688,291.027344 C701.72671,289.274965 701.999331,282.518162 706.054688,280.785156 L707.082031,274.988281 C711.486238,273.106199 717.139244,276.343545 721.429688,274.214844 C725.780537,272.056172 726.879287,265.852225 730.921875,263.160156 C734.25707,260.939159 740.588133,263.633606 742.558594,260.144531 L746.167969,246.847656 C748.651249,242.450536 754.792665,240.580476 756.605469,235.867187 C758.781411,230.209737 756.616853,223.7126 757.378906,217.699219 C758.293664,210.480839 778.666489,194.034333 785.550781,195.164062" id="Path-4120" stroke="#979797" stroke-width="5" stroke-linecap="round" stroke-linejoin="round"></path>
                <path d="M775.585938,208.734375 C786.005233,220.822049 779.472924,218.690089 795.644531,213.488281" id="Path-4121" stroke="#979797" stroke-width="5" stroke-linecap="round" stroke-linejoin="round"></path>
                <path d="M503.074219,200.304688 C507.513021,199.235677 511.844866,196.671247 516.390625,197.097656 C517.882227,197.237574 515.678311,200.478359 516.691406,201.582031 C518.532863,203.588124 521.820353,203.634002 523.949219,205.332031 C527.796524,208.400725 530.936198,212.264323 534.429688,215.730469" id="Path-4122" stroke="#979797" stroke-width="5" stroke-linecap="round" stroke-linejoin="round"></path>
                <path d="M539.625,216.078125 C542.516927,217.44401 545.938945,218.019253 548.300781,220.175781 C550.079536,221.799913 549.833178,224.842171 551.308594,226.746094 L558.566406,227.171875 C564.151697,234.379309 562.920028,249.619693 572.996094,254.152344" id="Path-4123" stroke="#979797" stroke-width="5" stroke-linecap="round" stroke-linejoin="round"></path>
                <path d="M580.339844,249.011719 C573.933761,260.106724 574.829123,275.154004 591.636719,277.035156 C595.049041,277.417073 598.733867,274.860509 601.902344,276.183594 C605.367119,277.630406 606.323554,282.500274 609.503906,284.496094 C610.70061,285.247081 629.507249,290.720902 632.265625,291.414062 C639.292249,293.179805 645.624207,288.231133 653.527344,289.289062" id="Path-4124" stroke="#979797" stroke-width="5" stroke-linecap="round" stroke-linejoin="round"></path>
                <path d="M586.914063,277.769531 C578.345134,285.655746 588.250701,288.393832 590.175781,279.199219" id="Path-4125" stroke="#979797" stroke-width="5" stroke-linecap="round" stroke-linejoin="round"></path>
                <path d="M785.078125,222.84375 C760.976532,262.194511 796.580538,200.630881 792.554688,235.25" id="Path-4126" stroke="#979797" stroke-width="5" stroke-linecap="round" stroke-linejoin="round"></path>
                <path d="M802.988281,226.554688 C801.241532,242.698882 801.451083,226.974639 812.4375,223.265625 C814.66514,222.513574 814.912406,230.07008 816.863281,228.757812 L819.523438,229.527344 C821.442796,228.236276 822.699099,226.101408 823.820313,224.078125 C825.415373,221.199763 824.699714,216.516235 827.597656,214.957031 C842.142292,207.131461 836.440346,230.671604 839.109375,208.773438" id="Path-4127" stroke="#979797" stroke-width="5" stroke-linecap="round" stroke-linejoin="round"></path>
                <path d="M833.914063,202.78125 C816.354615,213.976602 827.552826,215.965173 847.054688,202.742188" id="Path-4128" stroke="#979797" stroke-width="5" stroke-linecap="round" stroke-linejoin="round"></path>
                <path d="M799.941406,180.324219 C809.721078,183.219444 815.358145,183.40976 822.917969,176.226562" id="Path-4129" stroke="#979797" stroke-width="5" stroke-linecap="round" stroke-linejoin="round"></path>
                <path d="M779.96875,195.28125 C798.796752,175.344427 792.378123,180.34478 816.046875,174.136719 C818.843904,173.403088 820.856868,170.402742 823.734375,170.117188 C827.205878,169.772687 830.470013,172.255866 833.957031,172.359375 C835.457583,172.403918 836.806934,169.7444 838.078125,170.542969 C856.064876,181.842338 838.961939,180.343526 852.296875,180.4375" id="Path-4130" stroke="#979797" stroke-width="5" stroke-linecap="round" stroke-linejoin="round"></path>
                <path d="M837.992188,182.949219 C820.667603,193.023178 825.89467,186.288252 819.351562,200.460938" id="Path-4131" stroke="#979797" stroke-width="5" stroke-linecap="round" stroke-linejoin="round"></path>
                <path d="M848.6875,210.125 C856.295541,208.741249 864.286253,204.539731 860.886719,215.148437 C860.19721,217.300141 855.826725,220.066523 857.792969,221.179687 C860.069129,222.468307 862.096873,218.06583 864.578125,217.238281 C865.093604,217.066358 865.086876,218.433006 864.75,218.859375 L859.683594,230.109375 C854.716941,236.395458 847.487429,240.654322 842.546875,246.960937 C841.226505,248.646389 841.322179,251.168482 841.515625,253.300781 C841.579423,254.004013 842.661458,254.126302 843.234375,254.539062" id="Path-4132" stroke="#979797" stroke-width="5" stroke-linecap="round" stroke-linejoin="round"></path>
                <path d="M877.851562,208.191406 C874.80761,210.774154 872.225727,211.657361 872.996094,216.578125 C873.095784,217.2149 874.394451,216.937211 874.929687,216.578125" id="Path-4133" stroke="#979797" stroke-width="5" stroke-linecap="round" stroke-linejoin="round"></path>
                <path d="M885.667969,201.003906 C885.385547,228.694092 881.336609,203.378751 871.019531,225.78125 C844.750964,282.820806 879.457922,229.872148 870.632812,243.097656" id="Path-4134" stroke="#979797" stroke-width="5" stroke-linecap="round" stroke-linejoin="round"></path>
                <path d="M855.945312,246.652344 C847.638545,257.573811 846.356799,265.810636 838.335938,276.457031" id="Path-4135" stroke="#979797" stroke-width="5" stroke-linecap="round" stroke-linejoin="round"></path>
                <path d="M818.367188,286.738281 C814.378979,288.820378 800.271605,294.457733 798.09375,300.921875 C788.450446,329.544386 811.394231,284.636787 802.472656,306.449219 C801.227304,309.493991 796.30011,311.698736 797.277344,314.839844 C798.016419,317.215442 802.592736,314.080791 804.277344,312.25 C806.955907,309.339003 807.74349,305.138021 809.476563,301.582031" id="Path-4136" stroke="#979797" stroke-width="5" stroke-linecap="round" stroke-linejoin="round"></path>
                <path d="M777.605469,276.03125 C775.93099,277.113281 773.942702,277.820207 772.582031,279.277344 C760.316959,292.411954 784.894787,280.630788 775.929687,276.917969" id="Path-4137" stroke="#979797" stroke-width="5" stroke-linecap="round" stroke-linejoin="round"></path>
                <path d="M56.3125,156.089844 C66.6898105,157.278802 66.1153147,162.287279 75.0820312,156.359375" id="Path-4190" stroke="#979797" stroke-width="5" stroke-linecap="round" stroke-linejoin="round"></path>
                <path d="M71.6015625,173.988281 C76.5595292,172.810899 85.0243484,170.324323 85.6054688,178.433594" id="Path-4191" stroke="#979797" stroke-width="5" stroke-linecap="round" stroke-linejoin="round"></path>
                <path d="M35.8242188,104.101562 C44.9450871,102.268939 41.0254189,104.441408 47.4648438,97.375" id="Path-4192" stroke="#979797" stroke-width="5" stroke-linecap="round" stroke-linejoin="round"></path>
                <path d="M107.25,102.128906 C125.998918,103.693514 106.844964,109.155101 125.160156,112.253906" id="Path-4193" stroke="#979797" stroke-width="5" stroke-linecap="round" stroke-linejoin="round"></path>
                <path d="M86.03125,117.667969 C84.9552898,131.690159 87.5574483,124.912839 75.5546875,136.761719" id="Path-4194" stroke="#979797" stroke-width="5" stroke-linecap="round" stroke-linejoin="round"></path>
                <path d="M156.941406,220.292969 C159.303385,221.56901 161.665365,222.845052 164.027344,224.121094" id="Path-4195" stroke="#979797" stroke-width="5" stroke-linecap="round" stroke-linejoin="round"></path>
                <path d="M171.03125,225.242188 C172.032552,225.460938 173.033854,225.679688 174.035156,225.898438" id="Path-4196" stroke="#979797" stroke-width="5" stroke-linecap="round" stroke-linejoin="round"></path>
                <path d="M184.515625,228.566406 C192.500719,224.198816 189.533891,226.927832 194.09375,221.183594" id="Path-4197" stroke="#979797" stroke-width="5" stroke-linecap="round" stroke-linejoin="round"></path>
                <path d="M195.082031,218.285156 C197.515625,215.861979 199.949219,213.438802 202.382812,211.015625" id="Path-4198" stroke="#979797" stroke-width="5" stroke-linecap="round" stroke-linejoin="round"></path>
                <path d="M190.914062,251.332031 C194.479167,251.191406 198.044271,251.050781 201.609375,250.910156" id="Path-4199" stroke="#979797" stroke-width="5" stroke-linecap="round" stroke-linejoin="round"></path>
                <path d="M209.253906,252.261719 C211.44401,251.875 213.634115,251.488281 215.824219,251.101562" id="Path-4200" stroke="#979797" stroke-width="5" stroke-linecap="round" stroke-linejoin="round"></path>
                <path d="M239.191406,272.089844 C243.15625,268.830729 247.121094,265.571615 251.085938,262.3125" id="Path-4201" stroke="#979797" stroke-width="5" stroke-linecap="round" stroke-linejoin="round"></path>
                <path d="M254.050781,259.722656 C254.738281,258.046875 255.425781,256.371094 256.113281,254.695312" id="Path-4202" stroke="#979797" stroke-width="5" stroke-linecap="round" stroke-linejoin="round"></path>
                <path d="M394.109375,266.136719 C393.951823,261.356771 393.794271,256.576823 393.636719,251.796875" id="Path-4203" stroke="#979797" stroke-width="5" stroke-linecap="round" stroke-linejoin="round"></path>
                <path d="M579.304688,239.3125 C584.801172,237.758186 582.841791,239.336073 585.617188,235.175781" id="Path-4204" stroke="#979797" stroke-width="5" stroke-linecap="round" stroke-linejoin="round"></path>
                <path d="M588.625,231.699219 C590.070312,230.036458 591.515625,228.373698 592.960938,226.710938" id="Path-4205" stroke="#979797" stroke-width="5" stroke-linecap="round" stroke-linejoin="round"></path>
                <path d="M642.054688,257.828125 C643.545484,267.005992 645.097911,263.532947 639.21875,268.882812" id="Path-4206" stroke="#979797" stroke-width="5" stroke-linecap="round" stroke-linejoin="round"></path>
                <path d="M691.746094,277.15625 C689.7501,283.260361 691.622793,279.790938 683.328125,285.464844" id="Path-4207" stroke="#979797" stroke-width="5" stroke-linecap="round" stroke-linejoin="round"></path>
                <path d="M682.339844,288.09375 C681.236979,288.802083 680.134115,289.510417 679.03125,290.21875" id="Path-4208" stroke="#979797" stroke-width="5" stroke-linecap="round" stroke-linejoin="round"></path>
                <path d="M769.488281,330.996094 C768.415365,333.148437 767.117457,335.202624 766.269531,337.453125 C763.839289,343.903295 783.854171,327.422681 767.253906,331.613281" id="Path-4138" stroke="#979797" stroke-width="5" stroke-linecap="round" stroke-linejoin="round"></path>
                <path d="M829.703125,333.160156 C827.541667,338.971354 824.185674,344.469456 823.21875,350.59375 C820.164635,369.937883 833.792913,339.662391 832.96875,337.839844 C832.35661,336.486163 830.447917,336.266927 829.1875,335.480469" id="Path-4139" stroke="#979797" stroke-width="5" stroke-linecap="round" stroke-linejoin="round"></path>
                <path d="M738.867188,358.867187 C760.852223,367.11945 754.872361,348.008171 740.242188,355.65625" id="Path-4140" stroke="#979797" stroke-width="5" stroke-linecap="round" stroke-linejoin="round"></path>
                <path d="M675.902344,352.953125 C659.20716,355.38362 689.164474,358.235214 681.398438,351.175781 C680.295159,350.172886 678.565104,350.246094 677.148438,349.78125" id="Path-4141" stroke="#979797" stroke-width="5" stroke-linecap="round" stroke-linejoin="round"></path>
            </g>
        </g>
    </g>
</svg>