<?xml version="1.0" encoding="UTF-8"?>
<svg width="1920px" height="312px" viewBox="0 0 1920 312" version="1.1" xmlns="http://www.w3.org/2000/svg" xmlns:xlink="http://www.w3.org/1999/xlink">
    <!-- Generator: Sketch 49.3 (51167) - http://www.bohemiancoding.com/sketch -->
    <title>front</title>
    <desc>Created with Sketch.</desc>
    <defs></defs>
    <g id="Artwork" stroke="none" stroke-width="1" fill="none" fill-rule="evenodd">
        <g id="Projects-Scene---Rocket-above-the-ocean" transform="translate(0.000000, -768.000000)">
            <g id="front" transform="translate(-49.000000, 770.000000)">
                <path d="M1981.91406,44.765625 C1981.77083,60.8723958 1980.04994,77.0425288 1981.48437,93.0859375 C1985.54276,138.47672 1992.57899,134.530275 1993.25781,170.390625 C1993.92649,205.715038 1994.28352,241.064572 1993.34375,276.382812 C1992.75259,298.599607 1984.97325,323.530761 1972.29687,341.789063 C1966.72574,349.813396 1955.97458,348.96622 1947.55469,348.515625 C1924.10665,347.260791 1895.25258,342.268717 1871.45312,345.578125 C1802.72516,355.135019 1736.64181,371.462475 1667.35937,376.882813 C1536.10912,387.151227 1471.64419,381.311553 1328.0625,384 C1255.36978,385.36111 1119.28468,396.088577 1028.70312,392.8125 C933.862102,389.38237 838.490394,379.826497 743.351562,382.835938 C642.270479,386.033343 574.413234,393.603615 473.367187,389.40625 C428.486735,387.541955 383.938784,380.650571 339.109375,377.8125 C259.92562,372.799515 166.711759,379.6271 84.765625,359.414063 C76.8807147,357.469151 40.9537982,346.852603 31.1640625,339.3125 C14.4691687,326.454011 13.3869079,310.559828 10.890625,290.21875 C4.1479697,235.275908 1.73246284,198.788949 2.6484375,145.65625 C3.08363194,120.412042 -3.39428566,93.571619 5.5703125,69.96875 C8.61983582,61.9396674 23.1057881,67.6693125 31.3359375,70.125 C60.509582,78.8297454 40.3717545,93.1986528 89.921875,87.3671875 C98.6890014,86.3354 107.155704,83.3977784 115.515625,80.5625 C147.312274,69.7786245 149.400978,62.1922872 185.09375,41.90625 C198.452986,34.3135095 230.817216,36.9116926 242.734375,37.578125 C257.313611,38.3934263 280.487215,45.6820656 291.78125,50.953125 C318.643783,63.4901864 328.745657,79.2942474 357.320312,75.0703125 C443.626852,62.3123915 504.511364,25.2656886 596.289062,34.5625 C626.942088,37.6675615 656.918418,45.6660786 687.429687,49.9453125 C695.374304,51.0595524 703.896768,53.3238783 711.484375,50.71875 C719.353124,48.0170943 724.060249,39.7733978 730.890625,35.0234375 C747.746052,23.3018845 769.2925,22.2955072 789.132812,23.3515625 C847.489414,26.4577535 903.369741,42.124408 961.875,44.4609375 C1046.53099,47.8418511 1036.78315,40.6763863 1146.125,32.6328125 C1177.66879,30.3123398 1218.37727,35.5416149 1248.42969,35.71875 C1297.56813,36.0083819 1346.77957,36.7208454 1395.83594,33.8671875 C1424.85663,32.1790248 1453.30337,24.7898447 1482.25,22.1171875 C1571.06326,13.9170131 1514.64077,27.6224488 1599.32812,14.6171875 C1674.88522,3.01404091 1667.27192,-4.22984636 1762.70312,2.8671875 C1804.14754,5.94932841 1857.26693,23.0997586 1896.78906,34.25 L1981.91406,44.765625 Z" id="Path-3914" fill="#525D6C" opacity="0.897361866"></path>
                <path d="M1558.76928,21.5776367 C1575.88383,23.6268033 1557.05117,22.2216999 1593.32432,13.0988349 C1627.25883,4.56414785 1664.20191,-1.06432498 1699.29123,0.5556809 C1779.44089,4.25603441 1858.96855,25.9012324 1938.4361,36.5513537 C1949.97485,38.0977599 1982.09938,40.2705435 1993.65495,39.0221579 C1994.80954,38.8974237 1992.50406,37.0047369 1991.92861,35.9960264" id="Path-3654" stroke="#979797" stroke-width="4" stroke-linecap="round" stroke-linejoin="round"></path>
                <path d="M444.53721,82.2048929 C474.57072,57.4838319 514.550705,59.8468179 551.695262,61.8952047 C563.605378,62.5520042 580.548139,70.7199231 590.588295,73.9594895 C612.313089,80.9692327 637.341128,82.2221917 659.963968,80.2934402 C692.349885,77.5323197 697.482797,70.2160635 725.094205,56.7604391 C746.902303,46.1328908 765.022138,42.5614265 789.560463,39.8752694 C809.362668,37.7075649 835.501449,38.409186 854.775205,44.8128536 C868.121648,49.2471828 880.367596,57.0025974 894.066625,60.1849576 C907.455058,63.2951646 921.439643,62.8321282 935.168895,63.4887527 C967.817112,65.0502085 1015.81176,50.5563355 1038.3471,46.9617289 C1063.31676,42.9788246 1102.29612,40.6816307 1127.05863,42.9014009 C1148.47272,44.8210108 1169.39607,50.8099106 1190.81664,52.6558459 C1232.29805,56.2305412 1279.15191,54.4449462 1320.85176,51.7021316 C1350.72491,49.7372207 1366.16761,47.9427694 1394.60969,41.348094 C1395.02417,41.2519925 1394.63921,40.4976652 1394.65396,40.0724508" id="Path-3657" stroke="#979797" stroke-width="4" stroke-linecap="round" stroke-linejoin="round"></path>
                <path d="M770.445312,238.085938 C788.523204,226.988726 805.048292,238.763703 823.917969,233.214844" id="Path-3774" stroke="#979797" stroke-width="4" stroke-linecap="round" stroke-linejoin="round"></path>
                <path d="M661.3125,113.078125 C676.144531,112.472656 690.981929,110.536626 705.808594,111.261719 C708.984639,111.417042 712.400743,113.095223 714.269531,115.667969 L720.066406,116.324219 C721.344433,118.083668 719.036617,120.688263 719.464844,122.820313 C719.58905,123.438708 720.72526,122.768229 721.355469,122.742188" id="Path-3779" stroke="#979797" stroke-width="4" stroke-linecap="round" stroke-linejoin="round"></path>
                <path d="M584.175781,240.136719 C618.386313,232.158516 608.639059,236.065009 646.835938,246.476563 C647.87686,246.760293 664.53125,247.963878 664.53125,244.308594" id="Path-3780" stroke="#979797" stroke-width="4" stroke-linecap="round" stroke-linejoin="round"></path>
                <path d="M51.614965,82.5388941 C68.3931924,86.4178634 86.2337958,88.4820781 102.805681,81.9030846 C120.840208,74.7434261 131.427064,56.9523282 148.777125,47.9355637 C164.371996,39.8309648 186.733371,34.3583843 202.712284,32.3662783 C262.222494,24.9470852 313.077372,65.2878676 370.71087,71.2673592 C421.040971,76.4891213 453.969654,47.3328315 502.16248,42.8370151 C534.448449,39.8251189 569.228123,44.0388297 600.34274,52.8731479 C628.120574,60.7600594 640.680927,69.4887334 668.478987,68.7603381 C672.465621,68.6558759 676.185717,66.5103943 679.718329,64.659769 C688.087567,60.2753865 695.698888,54.5394653 704.052128,50.1246801 C723.890661,39.6397835 746.984013,33.0653555 769.447956,32.4024953 C818.159333,30.9651326 865.108781,44.0050734 913.595636,47.8550815 C967.631698,52.145714 1021.66444,36.4726124 1075.84377,36.5473296 C1144.47964,36.6419835 1173.51028,36.6251122 1243.97515,41.8833008 C1297.98889,45.9138832 1276.69131,50.3252973 1334.45728,47.5774178 C1365.83501,46.0848055 1393.98779,26.3486995 1425.51084,22.3703866 C1438.88775,20.6821775 1478.37944,17.4327895 1494.31509,18.6279634 C1518.09703,20.4116088 1536.50174,27.2420819 1560.41514,22.1289399 C1563.01752,21.5725015 1555.25355,20.8304934 1552.67275,20.1812702" id="Path-3653" stroke="#979797" stroke-width="4" stroke-linecap="round" stroke-linejoin="round"></path>
                <path d="M1395.26562,40.9899481 C1504.0589,32.5085449 1384.08812,40.3384682 1556.89404,38.2414803 C1574.26735,38.0306564 1605.81283,24.8906588 1616.75672,21.9559032 C1655.3512,11.6062575 1698.91342,7.2325041 1738.73959,9.96807651 C1788.88183,13.4122363 1771.09323,16.3922518 1815.5478,26.4951004 C1870.66743,39.0217155 1927.90863,42.3606651 1984.1661,45.3681809" id="Path-3658" stroke="#979797" stroke-width="4" stroke-linecap="round" stroke-linejoin="round"></path>
                <path d="M1552.99468,111.488349 C1584.23354,98.1477147 1583.36452,108.108118 1614.58772,115.705617 C1634.22071,120.482887 1654.54222,109.579267 1673.95946,107.343514" id="Path-3761" stroke="#979797" stroke-width="4" stroke-linecap="round" stroke-linejoin="round"></path>
                <path d="M1825.99037,139.68127 C1834.78727,140.181628 1877.58141,141.268769 1890.40834,145.97498 C1917.05905,155.753148 1898.34818,159.508046 1935.09207,163.970804" id="Path-3762" stroke="#979797" stroke-width="4" stroke-linecap="round" stroke-linejoin="round"></path>
                <path d="M1801.03283,242.336342 C1779.10366,238.067006 1751.07919,226.943486 1731.4801,241.941979" id="Path-3763" stroke="#979797" stroke-width="4" stroke-linecap="round" stroke-linejoin="round"></path>
                <path d="M1629.98397,271.326037 C1602.46303,264.022588 1617.45973,268.983445 1585.46926,255.076677" id="Path-3764" stroke="#979797" stroke-width="4" stroke-linecap="round" stroke-linejoin="round"></path>
                <path d="M1787.82422,189.246094 C1789.20137,201.796945 1809.05489,190.851428 1787.00781,189.789062" id="Path-3803" stroke="#979797" stroke-width="4" stroke-linecap="round" stroke-linejoin="round"></path>
                <path d="M1914.05078,94.2734375 C1914.24638,102.195233 1923.89339,94.2754991 1915.25391,93.2695312" id="Path-3804" stroke="#979797" stroke-width="4" stroke-linecap="round" stroke-linejoin="round"></path>
                <path d="M1905.28906,207.839844 C1905.01584,213.000113 1907.37159,211.20465 1905.89062,206.449219" id="Path-3805" stroke="#979797" stroke-width="4" stroke-linecap="round" stroke-linejoin="round"></path>
                <path d="M1787.09375,96.5546875 C1787.79427,98.1653646 1788.49479,99.7760417 1789.19531,101.386719" id="Path-3806" stroke="#979797" stroke-width="4" stroke-linecap="round" stroke-linejoin="round"></path>
                <path d="M1796.97266,93.0742188 C1797.97396,93.8216146 1798.97526,94.5690104 1799.97656,95.3164062" id="Path-3807" stroke="#979797" stroke-width="4" stroke-linecap="round" stroke-linejoin="round"></path>
                <path d="M1807.10547,88.7460938 C1813.68271,89.7261611 1811.46276,90.9638374 1814.66406,87.7421875" id="Path-3808" stroke="#979797" stroke-width="4" stroke-linecap="round" stroke-linejoin="round"></path>
                <path d="M1697.45703,39.0351562 C1696.21224,40.0664062 1694.96745,41.0976562 1693.72266,42.1289062" id="Path-3809" stroke="#979797" stroke-width="4" stroke-linecap="round" stroke-linejoin="round"></path>
                <path d="M1705.96094,39.65625 C1704.83073,40.7252604 1703.70052,41.7942708 1702.57031,42.8632812" id="Path-3810" stroke="#979797" stroke-width="4" stroke-linecap="round" stroke-linejoin="round"></path>
                <path d="M1577.88672,259.25 C1586.68809,265.545313 1581.61549,263.351757 1593.39062,265.125" id="Path-3819" stroke="#979797" stroke-width="4" stroke-linecap="round" stroke-linejoin="round"></path>
                <path d="M1621.95312,264.3125 C1635.82386,267.6625 1630.35652,265.02845 1639.08984,270.460938" id="Path-3820" stroke="#979797" stroke-width="4" stroke-linecap="round" stroke-linejoin="round"></path>
                <path d="M1732.03125,248.15625 C1737.09896,246.867188 1742.16667,245.578125 1747.23438,244.289062" id="Path-3821" stroke="#979797" stroke-width="4" stroke-linecap="round" stroke-linejoin="round"></path>
                <path d="M1792.54688,231.03125 C1797.25651,233.660156 1801.96615,236.289062 1806.67578,238.917969" id="Path-3822" stroke="#979797" stroke-width="4" stroke-linecap="round" stroke-linejoin="round"></path>
                <path d="M1851.30078,150.554688 C1860.30286,151.11467 1866.0548,154.757962 1875.86719,154.804688" id="Path-3823" stroke="#979797" stroke-width="4" stroke-linecap="round" stroke-linejoin="round"></path>
                <path d="M1906.79297,147.269531 C1911.17095,157.407195 1915.15438,154.68776 1922.8125,161.957031" id="Path-3824" stroke="#979797" stroke-width="4" stroke-linecap="round" stroke-linejoin="round"></path>
                <path d="M1613.27734,103.085938 C1619.40396,110.722792 1628.1974,107.182186 1637.19922,106.410156" id="Path-3825" stroke="#979797" stroke-width="4" stroke-linecap="round" stroke-linejoin="round"></path>
                <path d="M1580.9375,58.6328125 C1587.42704,74.7876235 1593.74063,51.05059 1580.07812,60.4882812" id="Path-3826" stroke="#979797" stroke-width="4" stroke-linecap="round" stroke-linejoin="round"></path>
                <path d="M1796.80078,29.9921875 C1793.03792,39.9435489 1803.21987,31.15547 1798.38672,30.9179688" id="Path-3828" stroke="#979797" stroke-width="4" stroke-linecap="round" stroke-linejoin="round"></path>
                <path d="M1767.33594,37.0664062 C1768.01424,45.1708379 1759.33931,39.6934606 1760.59375,48.2382812" id="Path-3829" stroke="#979797" stroke-width="4" stroke-linecap="round" stroke-linejoin="round"></path>
                <path d="M1201.07008,190.095333 C1201.15498,197.273631 1206.94092,210.116757 1217.08604,200.606311 C1223.29575,194.785075 1208.04094,182.602316 1206.29337,190.731142" id="Path-3765" stroke="#979797" stroke-width="4" stroke-linecap="round" stroke-linejoin="round"></path>
                <path d="M1283.09756,201.24212 C1276.66144,224.191087 1302.10821,205.305891 1287.34702,198.457435" id="Path-3766" stroke="#979797" stroke-width="4" stroke-linecap="round" stroke-linejoin="round"></path>
                <path d="M1312.39308,164.445649 C1286.39471,182.553024 1340.59429,168.373623 1313.36692,164.606614" id="Path-3767" stroke="#979797" stroke-width="4" stroke-linecap="round" stroke-linejoin="round"></path>
                <path d="M1412.875,144.410156 C1412.875,153.54766 1420.332,142.44389 1412.83203,145.566406" id="Path-3799" stroke="#979797" stroke-width="4" stroke-linecap="round" stroke-linejoin="round"></path>
                <path d="M1415.96875,166.441406 C1412.93151,178.564479 1423.87458,171.384844 1417.08594,166.324219" id="Path-3800" stroke="#979797" stroke-width="4" stroke-linecap="round" stroke-linejoin="round"></path>
                <path d="M1376.11328,191.023438 C1373.58994,206.631822 1386.38861,192.878906 1375.89844,192.878906" id="Path-3801" stroke="#979797" stroke-width="4" stroke-linecap="round" stroke-linejoin="round"></path>
                <path d="M1310.95703,236.597656 C1294.38198,261.51243 1323.10082,240.353908 1308.72266,238.839844" id="Path-3802" stroke="#979797" stroke-width="4" stroke-linecap="round" stroke-linejoin="round"></path>
                <path d="M1172.83594,148.097656 C1168.114,172.83101 1198.6123,146.868714 1173.91016,147.789062" id="Path-3798" stroke="#979797" stroke-width="4" stroke-linecap="round" stroke-linejoin="round"></path>
                <path d="M890.144531,209.871094 C884.970674,212.771897 881.071021,219.809349 888.941406,221.117188" id="Path-3772" stroke="#979797" stroke-width="4" stroke-linecap="round" stroke-linejoin="round"></path>
                <path d="M921.96875,249.953125 C919.429358,263.903292 930.966603,251.466573 917.71875,250.070312" id="Path-3773" stroke="#979797" stroke-width="4" stroke-linecap="round" stroke-linejoin="round"></path>
                <path d="M834.871094,276.664062 C831.030288,288.633085 844.982203,280.189964 833.96875,276.855469" id="Path-3775" stroke="#979797" stroke-width="4" stroke-linecap="round" stroke-linejoin="round"></path>
                <path d="M735.742188,254.128906 C739.473364,260.301097 743.974773,255.446704 735.441406,252.699219" id="Path-3776" stroke="#979797" stroke-width="4" stroke-linecap="round" stroke-linejoin="round"></path>
                <path d="M744.976562,146.207031 C747.258283,162.426011 755.669474,151.080062 745.921875,147.828125" id="Path-3777" stroke="#979797" stroke-width="4" stroke-linecap="round" stroke-linejoin="round"></path>
                <path d="M680.722656,187.644531 C665.094679,193.074728 694.465444,190.449814 681.496094,187.644531" id="Path-3778" stroke="#979797" stroke-width="4" stroke-linecap="round" stroke-linejoin="round"></path>
                <path d="M993.949219,159.058594 C995.897135,157.576823 997.845052,156.095052 999.792969,154.613281" id="Path-3814" stroke="#979797" stroke-width="4" stroke-linecap="round" stroke-linejoin="round"></path>
                <path d="M787.835938,273.976562 C788.494792,275.084635 789.153646,276.192708 789.8125,277.300781" id="Path-3817" stroke="#979797" stroke-width="4" stroke-linecap="round" stroke-linejoin="round"></path>
                <path d="M787.835938,273.976563 C796.258341,269.06177 792.754384,268.278829 798.402344,276.066406" id="Path-3818" stroke="#979797" stroke-width="4" stroke-linecap="round" stroke-linejoin="round"></path>
                <path d="M852.992187,140.097656 C852.302954,149.646668 858.138802,147.480495 854.496094,143.035156" id="Path-3769" stroke="#979797" stroke-width="4" stroke-linecap="round" stroke-linejoin="round"></path>
                <path d="M921.324219,151.964844 C917.66044,163.067484 927.871053,153.211757 922.140625,150.882812" id="Path-3770" stroke="#979797" stroke-width="4" stroke-linecap="round" stroke-linejoin="round"></path>
                <path d="M968.785156,193.90625 C966.566406,195.335938 964.028626,196.362849 962.128906,198.195312 C952.91129,207.086597 980.909992,206.592352 972.476562,198.621094 C970.713572,196.95472 967.895833,197.022135 965.605469,196.222656" id="Path-3771" stroke="#979797" stroke-width="4" stroke-linecap="round" stroke-linejoin="round"></path>
                <path d="M1000.73438,164.082031 C1001.67969,163.41276 1002.625,162.74349 1003.57031,162.074219" id="Path-3815" stroke="#979797" stroke-width="4" stroke-linecap="round" stroke-linejoin="round"></path>
                <path d="M1004.17188,171.117188 C1005.58984,170.08724 1007.00781,169.057292 1008.42578,168.027344" id="Path-3816" stroke="#979797" stroke-width="4" stroke-linecap="round" stroke-linejoin="round"></path>
                <path d="M833.839844,110.335938 C830.663829,123.860596 843.302221,105.220893 834.3125,110.375" id="Path-3768" stroke="#979797" stroke-width="4" stroke-linecap="round" stroke-linejoin="round"></path>
                <path d="M1043.98828,246.625 C1049.69256,249.406867 1056.29957,247.166848 1047.55469,243.765625" id="Path-3796" stroke="#979797" stroke-width="4" stroke-linecap="round" stroke-linejoin="round"></path>
                <path d="M1043.94531,180.0625 C1048.62571,182.758922 1047.26452,183.562314 1048.54297,178.902344" id="Path-3797" stroke="#979797" stroke-width="4" stroke-linecap="round" stroke-linejoin="round"></path>
                <path d="M450.214844,162.09375 C465.83819,165.139704 427.967614,158.244642 479.722656,157.144531 C488.780555,156.951996 497.532081,160.55527 506.523438,161.667969 C509.436373,162.02845 512.393229,161.589844 515.328125,161.550781" id="Path-3781" stroke="#979797" stroke-width="4" stroke-linecap="round" stroke-linejoin="round"></path>
                <path d="M470.101562,193.75 C450.97346,184.48541 435.935619,198.767249 457.734375,199.316406" id="Path-3782" stroke="#979797" stroke-width="4" stroke-linecap="round" stroke-linejoin="round"></path>
                <path d="M475.898437,207.355469 C475.250224,207.893226 460.551925,217.103314 461.554687,222.507812" id="Path-3783" stroke="#979797" stroke-width="4" stroke-linecap="round" stroke-linejoin="round"></path>
                <path d="M427.582031,262.128906 C403.522009,260.187203 414.03868,257.069077 395.585938,269.820312" id="Path-3784" stroke="#979797" stroke-width="4" stroke-linecap="round" stroke-linejoin="round"></path>
                <path d="M319.78125,222.007812 C320.612155,219.608543 320.436966,216.870871 324.03125,217.40625 C341.452942,220.00126 358.734375,223.463542 376.085938,226.492187" id="Path-3785" stroke="#979797" stroke-width="4" stroke-linecap="round" stroke-linejoin="round"></path>
                <path d="M285.765625,243.5 C329.973552,251.417694 293.918,241.229831 290.617188,244.273438" id="Path-3786" stroke="#979797" stroke-width="4" stroke-linecap="round" stroke-linejoin="round"></path>
                <path d="M211.160156,246.476562 C221.980344,247.076187 223.083084,254.713723 234.527344,252.542969" id="Path-3787" stroke="#979797" stroke-width="4" stroke-linecap="round" stroke-linejoin="round"></path>
                <path d="M261.238281,257.21875 C265.877604,257.347656 270.516927,257.476562 275.15625,257.605469" id="Path-3788" stroke="#979797" stroke-width="4" stroke-linecap="round" stroke-linejoin="round"></path>
            </g>
        </g>
    </g>
</svg>