<?xml version="1.0" encoding="UTF-8"?>
<svg width="1920px" height="967px" viewBox="0 0 1920 967" version="1.1" xmlns="http://www.w3.org/2000/svg" xmlns:xlink="http://www.w3.org/1999/xlink">
    <!-- Generator: Sketch 48.2 (47327) - http://www.bohemiancoding.com/sketch -->
    <title>Z (+5)</title>
    <desc>Created with Sketch.</desc>
    <defs></defs>
    <g id="Contact-Scene---rocket-in-the-gully" stroke="none" stroke-width="1" fill="none" fill-rule="evenodd" transform="translate(0.000000, -113.000000)">
        <g id="Z-(+5)" transform="translate(-64.000000, 106.000000)">
            <g id="fill">
                <path d="M2003.04363,0.291119809 C1966.69567,1.00945879 1964.70417,56.3737992 1929.40687,72.7147989 C1899.588,86.5195429 1892.96619,48.3685925 1871.42983,52.6739719 C1856.29084,55.7004394 1842.06571,76.3244746 1834.60644,87.6025569 C1832.17678,91.276084 1832.29778,96.9176319 1828.66136,99.4024835 C1813.41967,109.8175 1775.51119,70.2446819 1767.37593,107.142113 C1765.91544,113.766181 1771.33574,124.326186 1765.28062,127.383448 C1762.57375,128.750157 1743.20944,98.7275117 1730.33198,106.450358 C1720.23742,112.504249 1724.27114,153.611885 1724.3869,154.963396 C1724.97242,161.799457 1731.73308,168.951184 1728.67779,175.094452 L1728.67779,177.681012 C1721.30803,192.499338 1705.54558,173.722766 1703.10292,168.056602 C1700.29473,161.542512 1699.79627,153.972726 1695.94477,148.015775 C1694.90675,146.410311 1691.96527,147.35786 1690.21023,148.11603 C1687.02058,149.493938 1684.39458,151.945044 1681.71869,154.161362 C1677.47543,157.675855 1673.17537,161.18593 1669.48767,165.279559 C1651.07518,185.718847 1660.93717,215.171594 1655.16134,239.878756 C1628.64297,353.315696 1655.85055,228.721466 1628.04256,317.856521 C1622.57708,335.375422 1636.18311,344.383874 1636.74463,355.45187 C1638.72386,394.464024 1630.84284,416.57891 1639.39134,452.277436 C1642.81437,466.572014 1663.99898,456.668558 1668.05403,467.756694 C1677.8518,494.547746 1661.6889,513.3194 1665.5176,540.872128 C1668.54725,562.674591 1693.97683,574.047442 1700.02512,594.538234 C1706.14304,615.264932 1705.54437,650.236589 1705.19824,667.36293 C1704.81704,686.224358 1678.38937,699.661059 1668.93627,708.727839 C1664.01524,713.447757 1660.7704,719.680215 1656.15385,724.698343 C1646.42464,735.27387 1635.40698,744.639106 1625.94724,755.456351 C1604.99359,779.416937 1600.63692,792.274743 1587.9208,819.739384 C1582.62914,831.168471 1570.37151,849.242962 1567.4188,863.891361 C1555.33674,923.830525 1565.69931,882.621276 1561.02258,942.260118 C1558.88795,969.481486 1541.94118,994.557473 1577.55451,1008.23745 C1583.90034,1010.67504 1590.82565,1011.57389 1597.61539,1011.90675 C1620.55391,1013.03132 1643.55767,1011.80777 1666.51012,1012.59851 C1914.50426,1021.14214 935.955656,1005.9482 1816.97171,1020.53865 C1826.53279,1020.69699 1835.96416,1017.97635 1845.52413,1017.7616 C1881.67018,1016.94966 1917.84677,1018.41993 1953.98921,1017.46084 C1973.45018,1016.94441 1993.34156,1015.79487 2011.1943,1007.24493 C2035.42845,995.638844 2036.31272,933.887055 2034.67385,916.865713 C2030.289,871.324726 2021.98158,826.244078 2016.26716,780.850755 C2015.21951,772.52858 2014.57761,764.142927 2014.39241,755.757114 C2012.02293,648.469894 2016.56588,770.372021 2022.22227,636.705177 C2023.15656,614.626743 2020.46407,592.534996 2020.34751,570.43711 C2020.16994,536.770571 2020.23434,503.089811 2021.34003,469.440966 C2023.01011,418.616344 2028.11383,438.483527 2035.11496,378.169485 C2045.20627,291.233919 2056.92551,208.819102 2053.53167,122.521116 C2052.25424,90.0387633 2048.49528,89.7402025 2041.29063,57.8370664 C2036.15989,35.1175097 2040.56461,33.9842379 2025.8615,21.5249726 L2003.04363,0.291119809 Z" id="Path-3152" fill="#424C59"></path>
                <path d="M1702.23071,994.943733 C1699.66742,956.061671 1729.94412,922.852168 1748.18727,891.471308 C1757.60887,875.264784 1756.74007,869.485527 1768.57898,856.843486 C1786.61764,837.58111 1814.07912,819.562893 1824.69129,794.144471 C1828.03523,786.135027 1827.27364,776.895002 1829.98472,768.649812 C1832.46858,761.095656 1843.66094,741.800087 1845.52413,728.768666 C1850.32051,695.222114 1846.53684,661.733845 1851.69979,627.973031 C1854.08702,612.36284 1867.58542,604.957847 1870.87843,589.385165 C1875.47959,567.626253 1872.80098,545.068433 1885.5356,525.894141 C1901.35226,502.07929 1924.11991,495.812078 1948.91635,481.250918 C1967.762,470.184227 1980.2701,454.036636 2003.26418,456.147251 C2005.34374,456.338132 2021.53823,497.455596 2022.44283,510.515137 C2024.38934,538.616915 2026.06553,566.770425 2026.19233,594.939251 C2026.5803,681.120078 2026.04159,767.317744 2023.98674,853.474943 C2023.32037,881.41495 2019.49994,909.197693 2018.03164,937.107049 C2017.70429,943.329191 2022.41088,1007.89096 2010.53262,1025.99248 C2004.81221,1034.70992 1932.2389,1035.85315 1922.45925,1035.01536 C1676.38291,1013.93496 2096.97165,1038.75274 1820.16983,1020.82938 C1802.75014,1019.70143 1785.27099,1019.26707 1767.81705,1019.54613 C1745.88156,1019.89684 1746.69753,1024.56983 1725.3694,1022.12266 C1720.98157,1021.61921 1716.9213,1019.54279 1712.69726,1018.25285 L1702.23071,994.943733 Z" id="Path-3151" fill="#313944"></path>
                <path d="M47.9050525,447.916376 C92.9681232,398.603454 128.361104,495.363007 140.27933,524.901624 C141.908822,528.940222 143.579205,532.989428 144.680492,537.202822 C147.845744,549.312704 146.694223,563.029628 153.061748,573.805653 C155.579941,578.067294 163.020454,574.633727 167.718921,576.191704 C170.848536,577.229462 173.873126,579.013635 176.100178,581.445028 C184.751885,590.890565 194.196379,604.260152 199.579726,616.564096 C214.255114,650.105529 216.959512,687.417589 232.092183,720.437537 C235.613355,728.12084 244.729281,703.074956 252.263341,709.820611 C258.117361,715.062034 261.461074,722.664904 264.835225,729.761183 C271.638937,744.070275 278.088194,758.651795 282.690509,773.812906 C288.151558,791.802886 289.904957,810.753595 294.921529,828.872547 C295.72237,831.765039 297.7881,834.276686 299.994395,836.311413 C305.217225,841.128102 311.06769,853.162819 316.967442,849.204111 L322.812265,849.40462 C348.93962,831.873278 325.148773,835.95927 355.775867,831.148319 C357.556883,830.868554 359.901142,830.268149 361.169546,831.549336 C373.724394,844.230705 394.214032,867.689262 405.261371,886.007451 C409.464238,892.976453 412.718109,900.491016 416.951018,907.441812 C417.999221,909.163052 419.193655,911.075954 421.031366,911.903127 C422.544474,912.584194 425.218189,912.978948 425.993952,911.512135 C430.506917,902.979027 435.95844,863.468636 457.624172,874.408033 C466.119466,878.697451 473.331356,885.202689 480.662601,891.2708 C482.119991,892.477089 483.12074,894.248891 483.750433,896.032877 C485.606944,901.292575 485.62664,907.180756 488.05134,912.20389 C491.06864,918.454682 495.67428,923.81648 499.841242,929.36742 C504.022787,934.937787 508.363369,940.408452 513.074804,945.538432 C520.977568,954.143245 530.502942,961.287516 537.647124,970.53182 C543.292935,977.837288 547.711365,986.155223 551.101246,994.743224 C552.798868,999.044019 553.706171,1004.02785 552.645162,1008.52819 C552.186919,1010.47185 549.17244,1010.60571 547.241457,1011.11475 C543.719136,1012.04328 540.079996,1012.57769 536.444073,1012.79902 C506.958033,1014.5939 477.371537,1014.7477 447.929585,1017.16008 C444.405726,1017.44881 386.581398,1027.76017 366.132132,1025.20047 C350.656083,1023.26328 335.549081,1018.84943 320.055273,1017.05982 C281.377004,1012.59231 228.625419,1013.05561 191.419029,1013.59103 C144.470042,1014.26664 77.1478152,1026.85747 38.9723978,985.710315 C6.70083407,950.926594 21.0674725,898.237698 17.1470449,855.459977 C5.74680718,731.066358 -4.37483645,797.698072 3.15154984,658.53053 C4.76148091,628.761908 9.82568579,599.253087 14.7208917,569.845609 C19.3004005,542.334653 30.210664,533.426578 38.7518384,504.359525 C41.2566449,495.835248 40.7368728,486.701408 41.72939,477.872349 L47.9050525,447.916376 Z" id="Path-3150" fill="#313944"></path>
            </g>
            <path d="M63.5597556,734.518248 C60.2920825,698.989729 64.5352952,664.841708 81.1393405,632.930604 C95.0501263,606.195642 108.317272,619.863013 116.413803,642.354505 C133.72476,690.44291 132.560126,749.277921 136.419541,798.305022" id="Path-3135" stroke="#979797" stroke-width="5"></path>
            <path d="M119.115655,661.30256 C123.339701,648.70227 126.895326,635.857808 131.787794,623.501691 C136.755887,610.954578 141.67714,598.248825 148.655573,586.698351 C172.652923,546.978724 186.629542,579.409054 193.574496,608.919708 C202.197202,645.559506 208.712889,682.663402 216.282086,719.535249" id="Path-3136" stroke="#979797" stroke-width="5"></path>
            <path d="M217.495163,849.595103 C220.103444,822.396122 222.226792,795.146266 225.320008,767.998159 C226.380918,758.686909 227.458726,749.30164 229.951755,740.26783 C233.873525,726.056793 238.67816,712.046489 244.498648,698.501904 C245.489749,696.195561 254.824542,681.388727 258.719715,695.083234 C268.717534,730.233193 274.592371,766.433114 283.30206,801.924201 C291.858534,836.790952 292.423314,836.598156 302.425561,862.643195" id="Path-3137" stroke="#979797" stroke-width="5"></path>
            <path d="M328.551822,892.649296 C329.340489,882.05075 328.932526,871.294432 330.917822,860.853657 C332.835088,850.77066 336.060375,840.889214 340.181316,831.489183 C354.619544,798.555016 363.528275,811.844597 379.475974,839.329067 C390.415038,858.181589 398.616522,878.533716 409.512151,897.411373 C411.194338,900.325912 419.979535,913.907018 426.71077,911.101093" id="Path-3138" stroke="#979797" stroke-width="5"></path>
            <path d="M446.385669,910.459466 C446.808408,907.136037 446.85578,903.742933 447.653885,900.489179 C450.297901,889.709928 451.827036,878.41873 456.691807,868.442904 C458.187323,865.37616 462.735537,861.802409 465.674589,863.535458 C473.081624,867.90311 477.634743,876.078056 482.10125,883.425904 C494.25165,903.414519 503.356073,925.141132 515.335538,945.232657 C517.502291,948.866657 530.717798,973.699429 542.504443,974.050744" id="Path-3139" stroke="#979797" stroke-width="5"></path>
            <path d="M58.8728688,437.885937 C103.360175,393.520514 116.394427,476.70762 120.985397,504.10889 C128.193273,547.129198 133.921539,590.384366 140.38961,633.522104" id="Path-3146" stroke="#979797" stroke-width="5"></path>
            <path d="M124.018088,496.865519 C142.905654,540.770763 155.92289,562.442925 163.758878,607.581314 C172.957748,660.570438 175.261218,776.291848 176.375877,812.094996 C177.081327,834.75425 174.562884,920.742802 176.375877,932.5" id="Path-3147" stroke="#979797" stroke-width="5"></path>
            <path d="M202.667557,930.695789 C209.858481,950.823112 205.352792,940.228536 216.833485,962.195678" id="Path-3149" stroke="#979797" stroke-width="5"></path>
            <path d="M1644.83515,300.517546 C1644.83515,259.491474 1661.40621,208.467156 1672.55545,172.096849 C1674.74177,164.964777 1678.28403,158.235617 1682.31019,151.955768 C1685.36799,147.186334 1688.90066,136.107284 1693.60884,139.258566 C1705.66133,147.325525 1706.04217,184.346835 1717.58465,175.565647 C1727.18161,168.264556 1700.16289,110.287999 1727.72537,99.67317 C1730.50563,98.6024384 1733.84677,97.5041073 1736.60289,98.6355384 C1749.93479,104.108502 1765.94768,131.054323 1766.08766,121.102519" id="Path-2881" stroke="#979797" stroke-width="5"></path>
            <path d="M1717.58465,318.688632 C1722.52049,285.292176 1726.73083,255.453988 1739.46514,224.193977 C1742.28123,217.281099 1745.62919,197.325482 1749.05446,203.957654 C1757.65468,220.609784 1754.82243,240.99492 1757.70641,259.513553" id="Path-2879" stroke="#979797" stroke-width="5"></path>
            <path d="M1761.45592,259.162663 C1760.97418,240.09769 1763.47854,221.325683 1768.67422,202.915009 C1769.75306,199.092189 1771.18508,195.347746 1772.97513,191.801824 C1773.62826,190.508047 1777.40976,188.004142 1778.76482,190.764193 C1782.70854,198.796958 1784.67171,207.665806 1788.0233,215.963102 C1788.79456,217.872463 1789.71399,219.79928 1791.10611,221.316679 C1791.52873,221.777328 1792.47771,221.737789 1792.98087,221.366806 C1810.9007,208.154511 1824.93924,178.171614 1834.37084,165.314648 C1837.15161,161.523963 1839.74898,156.48857 1844.29601,155.294235 C1874.4511,147.373627 1876.93872,195.357215 1882.43274,209.461613 C1883.78187,212.925145 1886.7029,220.668805 1889.43048,218.143632 C1898.32943,209.905062 1900.77732,196.677624 1907.29078,186.448247 C1909.03486,183.709177 1911.21148,180.99477 1914.06797,179.450499 C1918.67018,176.96246 1922.85587,178.961793 1925.91802,182.232555 C1933.49498,190.325705 1937.64835,202.821979 1947.79851,207.281083 C1952.11907,209.179163 1951.77191,198.695291 1954.24988,194.679122 C1961.36681,183.144355 1964.70741,185.639778 1973.15282,192.152714 C1973.64768,192.53434 1974.52205,192.520094 1975.02757,192.152714 C1978.54447,189.596883 1982.18374,187.021508 1984.89259,183.621077 C1986.4112,181.714767 1986.51003,179.022748 1987.31874,176.723583" id="Path-2880" stroke="#979797" stroke-width="5"></path>
            <path d="M1782.15842,329.019833 C1781.87309,303.093622 1781.41979,312.167763 1790.31411,266.220563 C1792.96755,252.513112 1804.32016,230.240849 1810.09928,259.428337 C1813.84679,278.355125 1816.05105,297.555033 1819.02693,316.618381" id="Path-2882" stroke="#979797" stroke-width="5"></path>
            <path d="M1849.4541,290.231459 C1851.47422,272.73709 1852.99082,255.17721 1855.51447,237.748353 C1855.97356,234.577773 1856.89337,231.412007 1858.38174,228.575088 C1859.75412,225.959241 1861.50594,223.3428 1863.94585,221.677595 C1864.88577,221.03611 1866.5156,221.654072 1867.25424,222.51973 C1870.20919,225.982798 1873.60916,229.620252 1874.52769,234.079047 C1877.65261,249.248416 1877.61552,264.900549 1879.15943,280.3113" id="Path-2883" stroke="#979797" stroke-width="5"></path>
            <path d="M1881.25475,325.00465 C1885.40695,308.056667 1888.92712,290.941229 1893.71134,274.160701 C1895.53437,267.766469 1897.96849,261.505761 1901.03993,255.60865 C1907.08271,244.00659 1913.06367,245.709433 1917.95783,257.343048 C1924.71859,273.413626 1930.0485,290.049331 1936.09383,306.402472" id="Path-2884" stroke="#979797" stroke-width="5"></path>
            <path d="M1956.20985,311.560553 C1931.37051,324.646491 1905.61502,329.722229 1877.11926,331.997385 C1852.9952,333.923495 1828.72891,334.217398 1804.53517,333.631529 C1744.64133,332.181157 1712.74029,319.308101 1658.09377,345.687104 C1642.77167,353.083399 1625.06258,363.883092 1620.94456,381.898944 C1616.97284,399.274729 1622.32127,386.826513 1623.42585,402.481144 C1624.06369,411.520897 1621.47613,420.738795 1623.03987,429.665087 C1628.21792,459.222979 1646.01149,447.513832 1664.37971,448.613143" id="Path-2885" stroke="#979797" stroke-width="5"></path>
            <path d="M1550.67634,984.231565 C1548.82011,924.229529 1561.08623,906.171162 1587.16388,855.560232 C1597.05081,836.371898 1606.16227,802.395567 1626.62396,790.279669 C1626.82813,790.158773 1632.3348,799.643224 1633.07031,803.47313 C1634.76944,812.320767 1635.65969,821.32247 1636.26842,830.311196 C1639.5991,879.493504 1624.42409,923.108795 1631.09029,974.607155" id="Path-2895" stroke="#979797" stroke-width="5"></path>
            <path d="M1627.34078,797.322531 C1628.99218,789.12174 1631.58488,752.338048 1643.65215,740.824241 C1661.26177,724.022269 1673.2175,752.692463 1674.07931,767.461799 C1675.80295,797.00049 1670.2435,863.715055 1669.83355,877.28533 C1669.04221,903.480366 1669.05512,929.699256 1669.33729,955.904723 C1669.368,958.757005 1669.71668,961.690642 1670.77092,964.341119 C1671.31537,965.709914 1670.8812,961.396986 1670.93634,959.924919" id="Path-2896" stroke="#979797" stroke-width="5"></path>
            <path d="M1654.23398,742.017267 C1655.87717,738.49029 1663.90674,717.189097 1670.77092,710.868268 C1685.48143,697.322218 1701.95109,714.454203 1704.17063,729.019302 C1710.79221,772.471444 1709.08748,811.402149 1709.07306,855.259469 C1709.03581,968.568187 1722.27288,1005.26109 1707.42388,961.01769" id="Path-2897" stroke="#979797" stroke-width="5"></path>
            <path d="M1686.26021,712.056281 C1691.45839,700.548762 1695.94411,688.692058 1701.85476,677.533725 C1715.04969,652.623838 1728.04031,673.499307 1729.41465,690.526678 C1731.6014,717.619366 1733.13362,744.768526 1734.20681,771.928126 C1736.82661,838.228708 1720.18353,902.402993 1727.65018,968.205921" id="Path-2898" stroke="#979797" stroke-width="5"></path>
            <path d="M1873.20934,574.753056 C1876.22245,557.718215 1874.62159,556.308628 1886.3226,540.927268 C1905.15245,516.174823 1902.01708,526.178673 1930.13873,509.723128 C1937.02719,505.692305 1933.27223,494.860431 1940.61028,490.975581 C1952.49366,484.684382 1965.56012,480.729576 1977.2081,474.01256 C1993.11613,464.838912 1985.06949,459.74061 2001.45961,467.165194" id="Path-2901" stroke="#979797" stroke-width="5"></path>
            <path d="M1898.33807,775.101173 C1898.58246,487.542613 1896.48065,844.977294 1901.31563,675.548691 C1902.21189,644.141376 1897.52794,616.118691 1908.97505,586.512881 C1915.47291,569.707378 1933.21133,554.201133 1946.62053,543.804565 C1949.02611,541.939441 1958.69748,535.686842 1963.64871,538.741725 C1973.28708,544.688541 1971.70784,561.275414 1972.08511,570.041105" id="Path-2902" stroke="#979797" stroke-width="5"></path>
            <path d="M1979.52398,629.266311 C1961.54074,653.682576 1939.84771,693.378867 1946.62053,725.645746 C1955.51112,768.002057 1955.15876,722.229533 1961.77396,778.820607 C1963.12555,790.383083 1961.7372,802.102988 1961.71882,813.744179" id="Path-2903" stroke="#979797" stroke-width="5"></path>
            <path d="M1966.07487,859.775923 C1961.75725,850.484024 1956.97763,841.393143 1953.12202,831.900226 C1949.25208,822.372048 1948.61724,811.347245 1942.92616,802.781375 C1940.2619,798.771303 1942.83132,812.433464 1943.36728,817.217989 C1944.50648,827.387727 1945.91323,837.545133 1947.94388,847.57498 C1949.9052,857.262385 1952.09575,866.952168 1955.32761,876.292813 C1958.09016,884.277071 1964.28739,884.461878 1961.77396,893.852347 C1960.09514,900.124593 1950.34547,905.279222 1944.19437,903.476756 C1941.14149,902.582165 1936.58435,896.052554 1935.70785,899.110683 C1932.16139,911.484334 1937.42155,925.195129 1934.38449,937.703562 C1932.02217,947.433025 1924.50318,955.127076 1919.94287,964.040356 C1919.05287,965.779887 1918.36727,967.663493 1918.06811,969.594442 C1917.93029,970.484051 1918.47247,971.348892 1918.67465,972.226117" id="Path-2904" stroke="#979797" stroke-width="5"></path>
            <path d="M1730.18661,365.677804 C1760.34843,368.777769 1778.08887,413.732426 1787.55711,436.758076 C1808.22998,487.03202 1832.46181,547.40969 1800.12399,599.059702 C1799.51604,600.030711 1799.42555,596.8775 1799.07633,595.7864" id="Path-2906" stroke="#979797" stroke-width="5"></path>
            <path d="M1731.17412,469.791856 C1738.04655,485.434862 1742.60864,502.312171 1751.79141,516.720876 C1757.80856,526.162415 1768.10905,512.265848 1773.61676,537.252949 C1776.87522,552.035762 1778.04188,577.430158 1777.19584,592.808848 C1777.07905,594.931631 1773.0336,609.610111 1775.10052,613.641684 C1784.61621,632.202229 1792.80944,636.208885 1798.46979,652.630567 C1808.21306,680.897523 1799.52905,715.266997 1799.18661,744.598814" id="Path-2907" stroke="#979797" stroke-width="5"></path>
            <path d="M1697.99497,979.915619 C1728.44822,954.424858 1754.92468,926.798348 1770.80463,889.340905 C1800.06932,820.311673 1775.46695,853.14787 1807.29217,795.387623 C1818.4658,775.108369 1842.91835,766.153888 1853.69485,745.836954 C1859.64036,734.627884 1850.08825,724.318224 1847.7999,714.387192 C1844.19838,698.757188 1853.29071,671.215076 1854.52195,660.615819 C1857.08193,638.577989 1852.48505,589.463348 1876.8987,576.637836 C1877.86144,576.132069 1879.19942,575.86748 1880.15195,576.392213 C1904.69272,589.911277 1891.96417,655.228449 1890.84407,673.814292 C1889.88416,689.741918 1890.89881,705.735682 1890.29267,721.68069 C1890.27661,722.103123 1889.44719,721.68069 1889.02445,721.68069" id="Path-2899" stroke="#979797" stroke-width="5"></path>
            <path d="M1851.8201,727.63078 C1856.58653,740.543473 1862.37363,755.892249 1859.76023,769.943092 C1856.58406,787.019672 1853.21813,789.083568 1858.16118,805.408037" id="Path-2900" stroke="#979797" stroke-width="5"></path>
            <path d="M1666.5803,444.051574 C1666.05528,475.170956 1658.43191,472.087167 1679.86399,480.905041" id="Path-2886" stroke="#979797" stroke-width="5"></path>
            <path d="M1680.13968,459.525819 C1679.0036,503.202394 1665.66949,500.258306 1689.28789,499.457092" id="Path-2887" stroke="#979797" stroke-width="5"></path>
            <path d="M1692.32058,484.328724 C1691.95298,491.222875 1692.03402,498.155655 1691.21778,505.011178 C1688.30153,529.504401 1680.39521,528.257885 1697.22802,536.75669" id="Path-2888" stroke="#979797" stroke-width="5"></path>
            <path d="M1677.10699,542.411031 C1677.08861,551.225051 1673.98001,560.591671 1677.05185,568.853092 C1717.56243,677.802303 1674.07069,509.255826 1694.52617,593.701111" id="Path-2889" stroke="#979797" stroke-width="5"></path>
            <path d="M1673.80362,496.875545 C1674.31313,529.420757 1666.34551,519.969055 1685.26769,532.144994" id="Path-2890" stroke="#979797" stroke-width="5"></path>
            <path d="M1687.35799,533.037257 C1687.35799,568.346575 1678.487,558.573051 1699.92486,570.587491" id="Path-2891" stroke="#979797" stroke-width="5"></path>
            <path d="M1698.60151,574.85331 C1698.54727,577.748523 1693.43929,607.240814 1700.91738,617.66188 C1712.85411,634.296257 1708.00619,620.544399 1711.16838,631.055849" id="Path-2892" stroke="#979797" stroke-width="5"></path>
            <path d="M1695.18785,618.554143 C1696.21546,637.106194 1696.95505,655.676443 1698.27067,674.210297 C1700.53734,706.142105 1697.40944,640.618869 1705.93511,683.188066 C1707.79232,692.461252 1705.97187,702.102703 1705.99025,711.560022" id="Path-2893" stroke="#979797" stroke-width="5"></path>
            <path d="M1727.98102,345.787359 C1713.87431,345.941734 1698.17681,350.360395 1696.01495,367.512457 C1692.36949,396.435338 1714.24501,419.107364 1716.4618,446.878744 C1717.92243,465.177006 1712.1483,462.564161 1703.95007,483.536715 C1697.02184,501.260379 1706.48722,517.751292 1708.63696,535.122546 C1711.09476,554.983162 1701.95583,572.02402 1710.01044,590.377682" id="Path-2905" stroke="#979797" stroke-width="5"></path>
            <path d="M1700.42112,694.747382 C1698.23707,722.490317 1701.71887,710.789235 1692.98226,730.608332" id="Path-2894" stroke="#979797" stroke-width="5"></path>
        </g>
    </g>
</svg>