<?xml version="1.0" encoding="UTF-8"?>
<svg width="1920px" height="1080px" viewBox="0 0 1920 1080" version="1.1" xmlns="http://www.w3.org/2000/svg" xmlns:xlink="http://www.w3.org/1999/xlink">
    <!-- Generator: Sketch 49.3 (51167) - http://www.bohemiancoding.com/sketch -->
    <title>Moon</title>
    <desc>Created with Sketch.</desc>
    <defs></defs>
    <g id="Artwork" stroke="none" stroke-width="1" fill="none" fill-rule="evenodd">
        <g id="Blog-Scene---Rocket-Shooting-at-the-Moon">
            <g id="Moon" transform="translate(-22.000000, -71.000000)">
                <path d="M1417.39062,31.53125 C1379.71806,48.012006 1352.04171,70.317664 1317.75,93.5390625 C1252.72449,137.572548 1300.37084,94.9281253 1216.98437,163.882813 C1151.89307,217.7087 1096.08747,252.283509 1084.96094,338.445312 C1083.19188,352.144536 1083.69483,366.100667 1084.61719,379.882813 C1084.88115,383.827051 1086.79105,387.52173 1088.48437,391.09375 C1093.13325,400.900393 1099.03514,410.08438 1103.60156,419.929688 C1110.94853,435.769906 1118.83854,480.173261 1107.8125,495.460937 C1097.41135,509.882194 1081.71332,519.721859 1070.10156,533.1875 C1068.445,535.108546 1067.42471,538.564136 1068.8125,540.6875 C1077.58614,554.111476 1124.90748,546.489471 1115.71094,569.835938 C1101.95306,604.761864 1066.99997,632.245313 1062.96875,671.335937 C1061.25474,687.956616 1063.27736,712.567612 1076.28906,723.835938 C1091.06278,736.630191 1104.59038,746.635011 1108.75781,767.664063 C1114.66088,797.451186 1089.63256,821.313557 1103.25781,851.703125 C1109.41234,865.430094 1126.22023,863.719168 1137.10156,871.796875 C1152.32063,883.094685 1172.70057,922.223426 1180.82812,933.257813 C1184.8123,938.666929 1191.38806,941.836567 1195.25781,947.328125 C1215.57544,976.160849 1205.47144,978.800377 1221.36719,1015.90625 C1229.41553,1034.69372 1257.7939,1051.10472 1269.89844,1061.4375 C1364.7629,1142.41658 1201.28512,1014.17759 1363.61719,1130.85938 C1381.91276,1144.00995 1387.39785,1169.86865 1407.42188,1180.33594 C1439.2955,1196.99745 1497.5909,1253.70454 1526,1253 C1590.2657,1251.40623 1711.0131,1255.46062 1759,1253 C1777.8927,1252.03124 1977.48816,1261.63169 2013,1253 C2082.9672,1235.99342 2127.34175,46.3443475 2071,2.5 C2056.13958,-9.06416351 1523.5556,25.1581312 1466.35156,23.109375 L1417.39062,31.53125 Z" id="Path-4225" fill="#D8D8D8"></path>
                <path d="M1538.26563,1152.82812 C1518.74951,1105.68269 1482.78867,1078.98789 1453.48438,1038.17969 C1415.71646,985.585336 1390.70535,919.897849 1414.57031,855.578125 C1424.32603,829.284983 1444.70608,811.259751 1460.96094,788.625 C1474.0371,770.41655 1450.56168,739.603381 1445.24219,726.929687 C1439.00027,712.058316 1434.62757,696.439778 1428.23438,681.632812 C1408.25293,635.354756 1397.4449,624.253671 1385.53906,581.75 C1374.33718,541.759451 1380.35039,484.10924 1413.79688,455.890625 C1450.35189,425.049357 1500.40287,414.389351 1547.28906,412.59375 C1558.36916,412.169415 1603.32939,413.282483 1623.39063,409.507812 C1655.18204,403.52602 1662.6691,396.702871 1698.125,384.148437 C1736.7764,370.462522 1770.56252,362.008961 1811.42188,360.101562 C1816.44862,359.866903 1846.97003,357.044083 1859.60938,362.117187 C1913.96984,383.93606 1896.99356,440.467593 1918.45313,481.789062 C1920.72773,486.168927 1924.08676,489.95719 1927.5625,493.460938 C1943.18694,509.211257 1960.43738,523.32577 1975.66406,539.460938 C1987.28313,551.773243 1997.74791,565.154782 2007.96094,578.65625 C2074.72588,666.918469 2065.81104,825.441746 2050.39063,924.84375 C2042.26456,977.225433 2030.33643,1028.95132 2021.1875,1081.16406 C2014.20084,1121.03678 2036.11118,1188.75998 1987.42969,1210.80469 C1927.83318,1237.7921 1840.77102,1210.52603 1781.78906,1200.99219 C1742.63863,1194.66391 1718.39075,1194.814 1682.83594,1187.07031 C1645.12125,1178.85621 1609.79107,1162.01979 1572.71094,1151.125 L1538.26563,1152.82812 Z" id="Path-4239" fill="#CCCCCC"></path>
                <path d="M1560.92188,250.703125 C1540.74474,250.812368 1530.27152,252.162701 1512.21875,264.15625 C1504.43567,269.327023 1492.52699,282.881529 1491.51562,292.453125 C1488.59751,320.070251 1486.68264,337.58646 1513.25,348.804688 C1519.86207,351.596672 1535.82969,357.687391 1544.6875,358.007812 C1553.12479,358.313022 1574.44704,360.36937 1585.92188,354.609375 C1609.26028,342.894249 1625.25994,307.772797 1609.79688,283.640625 C1594.90429,260.398772 1570.37157,249.902362 1544.42969,249.3125" id="Path-4228" fill="#C7C7C7"></path>
                <path d="M1478.375,161.101563 C1459.12204,156.741476 1441.48736,144.552404 1421.33594,153.523438 C1401.39965,162.398699 1383.63994,198.44275 1406.5625,214.523438 C1421.4576,224.972687 1448.32229,228.567155 1465.83594,224.882813 C1524.74809,212.489479 1498.29647,139.008473 1449.25781,154.6875" id="Path-4229" fill="#C7C7C7"></path>
                <path d="M1271.70313,266.9375 C1232.88749,246.371888 1201.12101,313.992379 1254.35156,330.484375 C1312.0646,348.365145 1293.07409,231.311901 1255.46875,260.601562" id="Path-4230" fill="#C7C7C7"></path>
                <path d="M1312.42187,418.15625 C1292.80697,426.615268 1271.66635,441.861347 1268.35156,465 C1262.74819,504.113966 1274.21356,529.451514 1317.23437,522.054688 C1327.0835,520.361268 1334.51753,502.600075 1335.10156,494.070312 C1337.23333,462.935678 1340.55683,431.902041 1302.88281,432.148438" id="Path-4231" fill="#C7C7C7"></path>
                <path d="M1624.0625,489.125 C1628.8151,488.041667 1633.47148,486.374662 1638.32031,485.875 C1644.30172,485.258629 1650.43864,484.747122 1656.35938,485.796875 C1683.20785,490.55714 1672.52258,516.546082 1684.78906,531.492187 C1688.71284,536.273119 1696.65121,537.731286 1698.96094,543.46875 C1702.01238,551.048671 1694.71054,561.33943 1699.47656,567.976562 L1700.85156,572 C1713.9542,590.246642 1734.2533,599.540852 1748.60938,616.914062 C1755.16678,624.849598 1762.00826,644.90851 1764.92969,650.546875 C1777.25654,674.337742 1781.78628,668.827964 1781.16406,689.351562 C1780.59758,708.036911 1722.76864,726.342679 1718.20312,728.390625 C1707.44099,733.218184 1698.96094,745.547163 1698.96094,733.1875" id="Path-4232" fill="#C7C7C7"></path>
                <path d="M1702.74219,737.132812 C1662.40424,695.527001 1654.79709,630.51658 1642.70312,576.09375 C1639.91196,563.533514 1634.47351,551.528631 1632.90625,538.757812 C1631.1143,524.156158 1643.86862,491.898032 1623.54688,484.171875" id="Path-4233" fill="#C7C7C7"></path>
                <path d="M1714.9375,963.953125 C1686.37817,963.748545 1691.02036,990.251807 1717,995.265625 C1729.65087,997.707119 1737.81126,983.531784 1733.83594,972.070312 C1732.32331,967.70917 1717.71612,961.840983 1716.82812,961.398438" id="Path-4234" fill="#C7C7C7"></path>
                <path d="M1247.57031,616.992188 C1238.55378,595.519649 1212.24474,593.696254 1199.80469,615.210938 C1198.03212,618.276543 1196.69666,621.739086 1196.375,625.265625 C1194.82638,642.244047 1197.89629,659.717919 1194.22656,676.367188 C1191.52162,688.639293 1182.76646,698.74932 1177.64844,710.226563 C1166.7397,734.689549 1170.0504,764.888643 1172.57813,789.773438 C1173.08874,794.800345 1187.41297,804.157127 1191.21875,805.3125 C1210.60458,811.197723 1235.3113,784.48661 1234.07813,771.148438 C1231.13743,739.341509 1219.17481,750.633519 1223.25781,722.90625 C1223.66783,720.121864 1232.57067,717.214466 1234.07813,717.03125 C1244.45684,715.76982 1255.05617,716.453212 1265.35156,714.632813 C1276.11119,712.730329 1278.58824,698.72278 1279.4375,690.203125 C1281.61047,668.40425 1249.42461,674.652845 1244.13281,655.726563 C1242.0945,648.436492 1242.1629,640.628148 1242.58594,633.070313 C1242.89345,627.576279 1253.1046,604.287889 1240.78125,604.007813" id="Path-4235" fill="#C7C7C7"></path>
                <path d="M1173.86719,842.960937 C1204.94034,839.779989 1216.32065,869.644956 1220.25,895.53125 C1221.97764,906.912792 1214.48295,923.428652 1224.03125,929.859375 L1225.92187,933.335937 C1246.82286,947.412624 1261.2864,949.700005 1278.83594,970.757812 C1287.93339,981.673912 1292.55618,995.670782 1300.22656,1007.63281 C1314.14401,1029.33719 1320.59774,1020.86055 1349.27344,1039.25 C1363.04616,1048.08231 1375.60112,1058.73205 1388.00781,1069.39844 C1392.91878,1073.62054 1396.36587,1079.33018 1401.07031,1083.78125 C1437.08254,1117.85394 1426.66684,1097.35302 1447.45312,1143.46094 C1457.8153,1166.44621 1438.97581,1170.50603 1418.76562,1166.11719 C1409.61089,1164.12915 1401.54859,1158.69694 1392.73437,1155.52344 C1384.92613,1152.71212 1375.75819,1152.91856 1368.94531,1148.17969 C1339.61912,1127.78109 1328.44865,1095.01784 1301.16406,1072.80469 C1282.15685,1057.33038 1260.0436,1051.58037 1247.05469,1029.74219 C1242.60609,1022.26278 1223.57194,993.780781 1219.99219,976.789062 C1217.8603,966.669808 1217.7339,947.66251 1210.54687,937.28125 C1204.08878,927.952885 1177.48933,915.963693 1174.03906,912.929687 C1154.51653,895.762493 1157.15972,877.874899 1163.89844,856.335937 L1173.86719,842.960937 Z" id="Path-4236" fill="#C7C7C7"></path>
                <path d="M1420.65625,84.796875 C1348.87081,82.3925778 1293.19444,135.616198 1246.88281,182.210937 C1226.27767,202.942046 1210.01112,227.853937 1188.46875,247.609375 C1164.56861,269.527008 1136.60609,286.564604 1111.16406,306.671875 C1106.03361,310.726559 1101.99675,316.061205 1096.8125,320.046875 C1093.48917,322.601866 1089.73351,324.65312 1085.82031,326.15625 C1083.97119,326.866532 1081.6505,327.45605 1079.89062,326.546875 C1072.71985,322.842352 1072.00525,304.304313 1073.36719,298.632812 C1078.58313,276.912041 1100.21957,255.33161 1116.74219,242.046875 C1165.21949,203.069497 1148.75609,233.998907 1201.5,182.210937 C1218.74219,165.28125 1294.35734,118.594005 1300.22656,110.3125 C1306.87513,100.931335 1324.10424,88.1132332 1330.89062,84.2578125 C1346.87713,75.1756944 1377.02924,60.2599411 1398.40625,62.0703125 C1418.37008,63.7610049 1410.52921,78.398175 1399.4375,86.5 C1386.49492,95.9537748 1374.87312,95.6599587 1361.89844,102.96875" id="Path-4237" fill="#C7C7C7"></path>
                <path d="M1715.97266,429 C1699.9503,431.768463 1683.08788,448.749161 1707.33984,446.316406 C1721.49449,444.89653 1724.33421,432.005795 1708.92578,429.578125" id="Path-3970" stroke="#979797" stroke-width="5" stroke-linecap="round" stroke-linejoin="round"></path>
                <path d="M1779.53516,421.074219 C1786.84505,417.972303 1807.16241,406.298952 1817.54688,413.5 C1825.74291,419.183493 1829.35218,434.360356 1839.32031,434.023438 L1842.54297,435.183594 C1842.96937,435.169181 1842.62891,434.334635 1842.67188,433.910156" id="Path-3971" stroke="#979797" stroke-width="5" stroke-linecap="round" stroke-linejoin="round"></path>
                <path d="M1789.58594,347.402344 C1787.65365,349.231771 1785.16538,350.613279 1783.78906,352.890625 C1773.48974,369.932567 1803.20877,356.75456 1788.38281,351.1875" id="Path-3972" stroke="#979797" stroke-width="5" stroke-linecap="round" stroke-linejoin="round"></path>
                <path d="M1820.29297,329.078125 C1830.57001,294.104658 1816.15937,320.216838 1808.48438,304.996094 C1797.60947,283.429425 1817.61584,289.940374 1795.64062,276.160156 C1790.09016,272.679573 1776.20844,283.906177 1775.71484,284.085937 C1758.75007,290.264224 1740.55565,260.116783 1729.19922,302.640625" id="Path-3973" stroke="#979797" stroke-width="5" stroke-linecap="round" stroke-linejoin="round"></path>
                <path d="M1666.70703,425.25 C1634.49489,425.116837 1652.0533,440.669586 1658.93359,458.917969 C1660.61759,463.384366 1659.76432,468.428385 1660.17969,473.183594" id="Path-3974" stroke="#979797" stroke-width="5" stroke-linecap="round" stroke-linejoin="round"></path>
                <path d="M1619.16406,487.253906 C1619.69401,493.553385 1621.32387,499.856359 1620.75391,506.152344 C1619.64325,518.420911 1606.41753,512.83169 1611.30469,526.835938 C1628.07649,574.895905 1630.03122,564.104085 1659.79297,610.132813 C1688.04021,653.819245 1696.59783,682.676291 1694.83984,733.789062" id="Path-3975" stroke="#979797" stroke-width="5" stroke-linecap="round" stroke-linejoin="round"></path>
                <path d="M1143.01172,342.910156 C1146.83248,309.446522 1158.36205,276.361868 1184.5,253.386719 C1195.94634,243.325432 1210.65981,237.154656 1221.26562,226.210937 C1229.2623,217.959489 1231.30007,205.079673 1239.30469,196.835937 C1248.22931,187.644724 1260.73707,182.760412 1270.95703,175.035156 C1278.64046,169.227262 1285.39428,162.268084 1292.94531,156.289063 C1337.93396,120.666358 1374.17549,85.6065944 1432.05859,83.1914062" id="Path-3981" stroke="#979797" stroke-width="5" stroke-linecap="round" stroke-linejoin="round"></path>
                <path d="M1485.05859,75.1914062 C1431.68959,102.892411 1367.25697,135.846152 1320.90625,165.292969 C1267.09024,199.48252 1272.44871,209.482675 1229.72656,250.988281 C1224.74061,255.832255 1174.61423,293.42943 1167.57812,311.328125 C1164.43723,319.31803 1169.04212,328.763091 1166.89062,337.074219 C1164.61233,345.875178 1158.09054,353.027627 1154.60938,361.425781 C1144.30987,386.272865 1144.11808,404.445437 1151.04297,429.765625" id="Path-3982" stroke="#979797" stroke-width="5" stroke-linecap="round" stroke-linejoin="round"></path>
                <path d="M1336.69467,62.9072771 C1246.62651,118.297829 1370.26191,39.4455611 1273.4714,111.934123 C1252.23256,127.840363 1228.23126,139.828725 1207.05968,155.824374 C1200.79422,160.558077 1197.42865,168.312062 1191.7173,173.701343 C1173.9173,190.49759 1154.06649,205.068889 1136.65057,222.263065 C1128.21571,230.590534 1122.24997,241.117815 1114.41896,250.015509 C1105.95218,259.635573 1092.70002,265.917315 1087.80573,277.761212 C1073.36907,312.697084 1093.4859,336.322888 1094.85001,369.080707 C1095.09632,374.995465 1086.6958,389.925575 1089.73364,394.433377 C1100.00433,409.673863 1123.38619,420.957915 1115.38291,444.727519 C1110.64666,458.794096 1101.20868,458.183817 1103.51886,475.142634 C1104.40023,481.612686 1111.26259,488.833382 1107.67128,494.286899 C1104.66939,498.845356 1081.89791,518.57907 1074.61372,523.30664 C1043.5,543.5 1074.61372,564.5 1089.73364,548.5 C1092.96508,545.080474 1116.33183,582.795096 1110.04409,605.283194 C1108.8006,609.730535 1105.21918,613.191873 1103.37056,617.423624 C1102.01497,620.526769 1102.70912,624.610388 1100.48544,627.16428 C1095.69967,632.660716 1087.15263,634.43925 1083.21515,640.572007 C1080.53112,644.752489 1084.32546,650.901729 1082.32535,655.449259 C1078.50419,664.137174 1070.9627,670.719742 1066.31562,678.995357 C1064.98038,681.373186 1066.09088,685.370988 1064.61016,686.996851 C1055.5,697 1063.15625,712.428275 1074.61372,731 C1082.32535,743.5 1087.43697,725.22373 1099.44733,753.037826 C1102.68375,760.532864 1110.02886,765.811339 1113.08425,773.381979 C1117.49262,784.305025 1100.59188,798.724019 1097.66773,803.466788 C1089.51392,816.691682 1092.50848,839.577431 1101.8134,851.691462 C1109.35907,861.515124 1117.99308,870.633253 1127.61097,878.439506 C1128.31114,879.007785 1144.33807,883.819866 1147.39563,889.049744 C1151.26084,895.661089 1153.01329,903.489976 1157.55422,909.656793 C1158.84522,911.410033 1161.87557,910.478827 1163.85026,911.395955 C1171.27819,914.845789 1184.01555,926.078912 1187.64577,930.000945 C1189.72244,932.24454 1190.85995,935.256973 1191.8656,938.143999 C1195.69041,949.12427 1197.97316,960.620435 1202.09835,971.491422 C1204.91307,978.908983 1208.67922,985.9548 1212.62095,992.839975 C1214.55788,996.223287 1218.32948,998.513625 1219.66523,1002.17617 C1223.55272,1012.83542 1216.5311,1016.85442 1226.25787,1025.39197 C1237.64282,1035.38496 1251.95921,1041.78121 1262.9488,1052.20742 C1284.67987,1072.82445 1268.79325,1068.45525 1283.03005,1079.62282 C1302.63194,1094.99883 1327.72231,1103.28726 1345.73426,1120.04823 C1359.51342,1132.87038 1375.67591,1181.35119 1402.284,1175.20933 C1403.79503,1174.86054 1401.04816,1172.36465 1400.43024,1170.94231" id="Path-3916" stroke="#979797" stroke-width="5" stroke-linecap="round" stroke-linejoin="round"></path>
                <path d="M1570.76953,277.867187 C1542.37984,272.0237 1530.37348,304.030826 1549.07813,312.617187 C1581.85867,327.665088 1618.93684,299.101018 1577.33984,281.503906" id="Path-3917" stroke="#979797" stroke-width="5" stroke-linecap="round" stroke-linejoin="round"></path>
                <path d="M1557.58203,248.605469 C1535.91495,248.790975 1522.07747,251.56986 1505.10156,266.660156 C1485.14602,284.399119 1494.63873,329.386165 1514.33203,343.347656 C1520.60734,347.796511 1527.727,351.101283 1534.99219,353.628906 C1565.87113,364.371966 1604.98665,353.942116 1615.4375,320.734375 C1617.17811,315.203557 1617.39668,308.827159 1615.52344,303.339844 C1603.918,269.343905 1593.95216,261.269005 1563.98438,250.269531 L1557.58203,248.605469 Z" id="Path-3918" stroke="#979797" stroke-width="5" stroke-linecap="round" stroke-linejoin="round"></path>
                <path d="M1430.23828,173 C1444.0146,166.481206 1444.92112,164.555386 1464.21094,165.695313 C1480.02904,166.630079 1489.58932,180.987428 1474.51953,191.863281 C1460.25277,202.159593 1400.75471,210.063812 1430.58203,178.332031" id="Path-3919" stroke="#979797" stroke-width="5" stroke-linecap="round" stroke-linejoin="round"></path>
                <path d="M1451.67188,148.53125 C1431.13045,153.533513 1427.82224,151.889722 1411.89844,163.683594 C1407.77774,166.735566 1404.08678,170.395573 1400.77734,174.3125 C1397.04706,178.727529 1392.98423,185.669793 1394.76172,191.980469 C1402.44388,219.254716 1433.62674,221.677671 1457.51172,219.734375 C1480.33163,217.877734 1532.45328,194.924324 1494.40625,168.980469 C1481.69264,160.311199 1474.03201,160.809283 1457.89844,157.34375" id="Path-3920" stroke="#979797" stroke-width="5" stroke-linecap="round" stroke-linejoin="round"></path>
                <path d="M1845.85938,160.628906 C1842.26563,161.454427 1838.32856,161.364439 1835.07813,163.105469 C1802.74628,180.423365 1840.42453,191.734859 1859.08594,180.960938 C1865.29109,177.378475 1866.58057,166.848517 1860.80469,163.179688" id="Path-3921" stroke="#979797" stroke-width="5" stroke-linecap="round" stroke-linejoin="round"></path>
                <path d="M1654.00391,117.453125 C1662.73698,111.255208 1671.47005,105.057292 1680.20312,98.859375" id="Path-3922" stroke="#979797" stroke-width="5" stroke-linecap="round" stroke-linejoin="round"></path>
                <path d="M1671.91406,116.757812 C1675.77995,114.644531 1679.64583,112.53125 1683.51172,110.417969" id="Path-3923" stroke="#979797" stroke-width="5" stroke-linecap="round" stroke-linejoin="round"></path>
                <path d="M1678.91406,130.828125 C1683.96745,129.436198 1689.02083,128.044271 1694.07422,126.652344" id="Path-3924" stroke="#979797" stroke-width="5" stroke-linecap="round" stroke-linejoin="round"></path>
                <path d="M1495.99609,484.515625 C1488.27426,490.261502 1488.73977,500.680903 1489.85156,509.445312" id="Path-3925" stroke="#979797" stroke-width="5" stroke-linecap="round" stroke-linejoin="round"></path>
                <path d="M1502.13672,489.578125 C1500.98324,513.491282 1503.23163,514.720688 1503.42578,511.84375" id="Path-3926" stroke="#979797" stroke-width="5" stroke-linecap="round" stroke-linejoin="round"></path>
                <path d="M1517.98437,487.144531 C1518.56746,507.760588 1512.5548,504.152843 1520.90625,507.976562" id="Path-3927" stroke="#979797" stroke-width="5" stroke-linecap="round" stroke-linejoin="round"></path>
                <path d="M1541.39062,481.886719 C1541.32063,485.142282 1539.07785,502.204992 1542.80859,508.710938 C1543.40022,509.742659 1544.85559,511.052892 1545.90234,510.488281 C1546.93444,509.931576 1545.98828,508.144531 1546.03125,506.972656" id="Path-3928" stroke="#979797" stroke-width="5" stroke-linecap="round" stroke-linejoin="round"></path>
                <path d="M1460.13281,360.316406 C1458.71484,365.753906 1454.91976,371.092022 1455.87891,376.628906 L1455.66406,381.421875 C1455.76093,381.981067 1456.49479,382.195312 1456.91016,382.582031" id="Path-3929" stroke="#979797" stroke-width="5" stroke-linecap="round" stroke-linejoin="round"></path>
                <path d="M1471.72656,368.9375 C1469.40971,372.226624 1456.22483,391.994182 1467.86328,391.628906" id="Path-3930" stroke="#979797" stroke-width="5" stroke-linecap="round" stroke-linejoin="round"></path>
                <path d="M1386.85938,616.285156 C1394.66827,611.825856 1404.21319,605.359963 1413.74609,606.429688 C1416.07979,606.691561 1413.0234,614.484686 1415.07812,613.347656 L1417.61328,614.238281 C1421.32144,612.186288 1441.62674,589.838595 1431.57031,621.390625 C1429.41924,628.139612 1420.1856,625.729755 1422.12109,618.683594" id="Path-3938" stroke="#979797" stroke-width="5" stroke-linecap="round" stroke-linejoin="round"></path>
                <path d="M1506.12891,683.894531 C1489.85394,676.654259 1513.72136,715.089373 1522.79297,691.160156" id="Path-3939" stroke="#979797" stroke-width="5" stroke-linecap="round" stroke-linejoin="round"></path>
                <path d="M1525.58594,620.34375 C1524.43497,621.51299 1515.87793,631.414432 1522.32422,632.597656 C1537.06606,635.303539 1522.90011,613.394078 1526.70312,625.371094" id="Path-3940" stroke="#979797" stroke-width="5" stroke-linecap="round" stroke-linejoin="round"></path>
                <path d="M1396.52344,707.203125 C1402.90882,709.231166 1405.85807,712.042891 1408.76562,705.886719" id="Path-3941" stroke="#979797" stroke-width="5" stroke-linecap="round" stroke-linejoin="round"></path>
                <path d="M1418.90234,697.5 C1425.2862,696.793118 1427.71306,695.829044 1429.59375,689.535156" id="Path-3942" stroke="#979797" stroke-width="5" stroke-linecap="round" stroke-linejoin="round"></path>
                <path d="M1461.375,1085.78906 C1462.91668,1095.86925 1461.38578,1101.37299 1469.01953,1106.77734" id="Path-3952" stroke="#979797" stroke-width="5" stroke-linecap="round" stroke-linejoin="round"></path>
                <path d="M1484.48047,1097.92578 C1482.52827,1104.86453 1481.21215,1108.58572 1487.96094,1112.42188" id="Path-3953" stroke="#979797" stroke-width="5" stroke-linecap="round" stroke-linejoin="round"></path>
                <path d="M1519.22656,1115.20312 C1517.20825,1121.33103 1512.64788,1127.04566 1519.82812,1129.00391" id="Path-3954" stroke="#979797" stroke-width="5" stroke-linecap="round" stroke-linejoin="round"></path>
                <path d="M1537.91016,1138.97656 C1535.80447,1143.99504 1530.87317,1151.70683 1538.64063,1153.58984" id="Path-3955" stroke="#979797" stroke-width="5" stroke-linecap="round" stroke-linejoin="round"></path>
                <path d="M1710.95313,962.675781 C1684.26892,965.406258 1702.3014,1003.7945 1718.125,997.542969 C1741.22469,988.416822 1732.20273,955.905307 1704.125,965.109375" id="Path-3956" stroke="#979797" stroke-width="5" stroke-linecap="round" stroke-linejoin="round"></path>
                <path d="M1765.32422,904 C1765.46745,909.914063 1761.06731,918.132138 1765.75391,921.742188 L1767,925.605469 C1776.32662,932.789689 1779.2239,908.52876 1778.89844,906.511719 C1778.01545,901.039445 1771.8366,898.879749 1768.93359,903.070313" id="Path-3957" stroke="#979797" stroke-width="5" stroke-linecap="round" stroke-linejoin="round"></path>
                <path d="M1807.97266,841.144531 C1807.40104,844.481771 1805.98675,847.781278 1806.25781,851.15625 C1806.99309,860.311067 1820.02664,843.508688 1807.28906,843.347656" id="Path-3958" stroke="#979797" stroke-width="5" stroke-linecap="round" stroke-linejoin="round"></path>
                <path d="M1791.86719,809.757812 C1779.5354,832.336387 1809.22136,820.042042 1791.73828,810.726562" id="Path-3959" stroke="#979797" stroke-width="5" stroke-linecap="round" stroke-linejoin="round"></path>
                <path d="M1627.07422,822.167969 C1644.92302,813.463435 1648.03061,813.713431 1662.58984,826.226562 C1663.08016,826.647973 1664.09722,826.86505 1664.52344,826.378906 C1673.40797,816.245282 1659.34054,800.664603 1667.61719,788.964844" id="Path-3960" stroke="#979797" stroke-width="5" stroke-linecap="round" stroke-linejoin="round"></path>
                <path d="M1540.61719,872.03125 C1546.82943,865.614583 1552.07583,858.095454 1559.25391,852.78125 C1561.01145,851.480074 1567.32388,851.84462 1565.78516,853.398438 L1570.25,857.691406 C1554.31348,873.784266 1560.22218,858.093557 1560.84375,856.066406" id="Path-3961" stroke="#979797" stroke-width="5" stroke-linecap="round" stroke-linejoin="round"></path>
                <path d="M1458.71094,818.1875 C1467.49857,811.38244 1481.08619,810.407454 1487.875,802.839844" id="Path-3962" stroke="#979797" stroke-width="5" stroke-linecap="round" stroke-linejoin="round"></path>
                <path d="M1449.90625,811.769531 C1453.55729,809.695312 1457.20833,807.621094 1460.85938,805.546875" id="Path-3963" stroke="#979797" stroke-width="5" stroke-linecap="round" stroke-linejoin="round"></path>
                <path d="M1418.42578,777.019531 C1423.88021,775.009115 1431.16342,775.532208 1434.78906,770.988281 L1437.88281,771.183594 C1447.18669,759.523273 1430.31299,767.314518 1448.74609,761.597656" id="Path-3964" stroke="#979797" stroke-width="5" stroke-linecap="round" stroke-linejoin="round"></path>
                <path d="M1547.23047,755.914062 C1542.11101,766.400535 1554.74262,761.616944 1546.88672,757.921875" id="Path-3965" stroke="#979797" stroke-width="5" stroke-linecap="round" stroke-linejoin="round"></path>
                <path d="M1582.75,734.5 C1570.05757,742.638379 1593.108,742.881395 1580.38672,736.664062" id="Path-3966" stroke="#979797" stroke-width="5" stroke-linecap="round" stroke-linejoin="round"></path>
                <path d="M1829.62109,531.0625 C1812.02266,542.672623 1794.69629,551.875771 1788.73438,574.046875 C1786.64634,581.811835 1790.34007,590.691946 1787.27344,598.125 C1783.64887,606.91042 1756.41295,626.19067 1760.12891,639.5625 C1760.34199,640.329297 1760.96499,641.088334 1761.71875,641.34375 L1770.86719,646.289062 C1777.16148,648.421934 1783.94956,648.858549 1790.23828,651.007812 C1793.19301,652.017636 1795.30047,655.037696 1798.35547,655.683594 C1820.77915,660.424486 1833.06955,650.072415 1815.62109,678.21875" id="Path-3967" stroke="#979797" stroke-width="5" stroke-linecap="round" stroke-linejoin="round"></path>
                <path d="M1764.98047,492.367188 C1760.35107,494.945558 1726.35641,513.544942 1727.66016,520.585938 C1729.54484,530.764328 1736.64987,539.272217 1740.19922,548.996094 C1740.95967,551.079455 1741.0311,553.502304 1740.45703,555.644531 C1735.04478,575.841322 1715.3678,589.68775 1711.46875,562.292969 C1710.29669,554.058017 1716.59764,549.002581 1717.69531,540.878906" id="Path-3968" stroke="#979797" stroke-width="5" stroke-linecap="round" stroke-linejoin="round"></path>
                <path d="M1822.96484,494.261719 C1824.63007,504.436327 1831.41027,497.975144 1824.98047,493.488281" id="Path-3969" stroke="#979797" stroke-width="5" stroke-linecap="round" stroke-linejoin="round"></path>
                <path d="M1208.26953,957.570312 C1237.86786,982.671682 1263.92349,1010.81501 1295.54297,1033.60547 C1311.07555,1044.80093 1319.7836,1044.09187 1331.01562,1059.11719 C1356.39512,1093.06787 1362.46531,1144.54723 1403.30078,1165.80078" id="Path-4005" stroke="#979797" stroke-width="5" stroke-linecap="round" stroke-linejoin="round"></path>
                <path d="M1316.37109,1035.46094 C1327.1784,1039.63583 1374.25456,1057.87131 1378.90625,1062.59375 C1384.04036,1067.80595 1383.63177,1083.26648 1385.60547,1087.10156 C1387.83677,1091.43719 1393.3168,1093.21234 1396.34375,1097.03516 C1400.75418,1102.60521 1385.29586,1108.07059 1389.6875,1115.70703 C1393.47847,1122.29899 1414.15607,1126.19476 1415.67188,1126.91406 C1432.18227,1134.74878 1434.50456,1149.81754 1428.46875,1164.83594" id="Path-4006" stroke="#979797" stroke-width="5" stroke-linecap="round" stroke-linejoin="round"></path>
                <path d="M1382.85547,1074.73047 C1409.26914,1080.24766 1425.43663,1095.49466 1442.38281,1117.25 C1464.82137,1146.05641 1450.22948,1131.6115 1461.06641,1155.13281 C1461.54335,1156.16801 1462.92839,1156.44792 1463.85938,1157.10547" id="Path-4007" stroke="#979797" stroke-width="5" stroke-linecap="round" stroke-linejoin="round"></path>
                <path d="M1534.33984,1050.84375 C1536.08335,1069.78661 1537.47698,1080.46646 1558.13281,1084.43359 C1566.65865,1086.07106 1576.66123,1082.23519 1584.07422,1086.75391 C1588.71691,1089.58394 1585.20213,1097.90248 1587.9375,1102.60156 C1593.97989,1112.98175 1613.92268,1112.98096 1617.78906,1101.25" id="Path-4008" stroke="#979797" stroke-width="5" stroke-linecap="round" stroke-linejoin="round"></path>
                <path d="M1614.86719,1013.07812 C1638.96925,1003.65172 1660.7218,1016.44496 1666.19141,1044.23437 C1669.23228,1059.68414 1663.50502,1067.39129 1658.24609,1082.96484" id="Path-4009" stroke="#979797" stroke-width="5" stroke-linecap="round" stroke-linejoin="round"></path>
                <path d="M1539.36328,964.066406 C1506.79321,954.091945 1481.14138,993.373019 1499.29297,1010.44922 C1520.19967,1030.11731 1546.44563,1019.45081 1551.90625,992.589844 C1552.33127,990.49917 1555.66809,971.562783 1547.60938,971.410156" id="Path-4010" stroke="#979797" stroke-width="5" stroke-linecap="round" stroke-linejoin="round"></path>
                <path d="M1533.82422,975.390625 C1531.04687,975.854167 1527.9516,975.410183 1525.49219,976.78125 C1520.36722,979.638308 1515.61908,983.353062 1511.70312,987.722656 C1484.05097,1018.57813 1572.05566,1008.38435 1534.72656,983.933594" id="Path-4011" stroke="#979797" stroke-width="5" stroke-linecap="round" stroke-linejoin="round"></path>
                <path d="M1556.80078,1008.05469 C1554.14982,1023.89163 1572.67883,1029.82933 1585.27734,1024.67578 C1598.23484,1019.37539 1613.16549,994.29858 1601.46875,981.421875 C1597.65304,977.221232 1592.10677,975.005208 1587.42578,971.796875" id="Path-4012" stroke="#979797" stroke-width="5" stroke-linecap="round" stroke-linejoin="round"></path>
                <path d="M1548.46875,1030.00781 C1542.73084,1035.70171 1536.85755,1040.64254 1533.56641,1048.44531 C1530.38042,1055.99878 1536.55239,1066.65497 1544.85937,1062.71094" id="Path-4013" stroke="#979797" stroke-width="5" stroke-linecap="round" stroke-linejoin="round"></path>
                <path d="M1386.12109,841.027344 C1396.37976,837.284668 1392.02809,840.256117 1399.21875,832.175781" id="Path-4015" stroke="#979797" stroke-width="5" stroke-linecap="round" stroke-linejoin="round"></path>
                <path d="M1412.10547,823.132812 C1414.03776,820.361979 1415.97005,817.591146 1417.90234,814.820312" id="Path-4016" stroke="#979797" stroke-width="5" stroke-linecap="round" stroke-linejoin="round"></path>
                <path d="M1779.07031,1086.80859 C1780.1781,1056.16821 1795.85719,1078.35615 1807.24219,1079.50391 C1809.326,1079.71398 1810.27865,1076.61849 1811.79688,1075.17578" id="Path-4020" stroke="#979797" stroke-width="5" stroke-linecap="round" stroke-linejoin="round"></path>
                <path d="M1831.03906,1049.12109 C1848.87329,1049.69707 1850.82165,1050.58626 1864.06641,1063.26953" id="Path-4021" stroke="#979797" stroke-width="5" stroke-linecap="round" stroke-linejoin="round"></path>
                <path d="M1795.08984,1107.33594 C1819.95771,1122.70633 1837.32128,1121.8213 1867.84375,1121.79297 C1871.40265,1121.78967 1870.6062,1120.92499 1870.33594,1118.73828" id="Path-4022" stroke="#979797" stroke-width="5" stroke-linecap="round" stroke-linejoin="round"></path>
                <path d="M1730.87891,1102 C1741.53817,1114.43069 1752.43837,1128.31136 1770.60938,1112.86328" id="Path-4023" stroke="#979797" stroke-width="5" stroke-linecap="round" stroke-linejoin="round"></path>
                <path d="M1879.14062,998.019531 C1899.4806,994.969981 1891.35782,999.100066 1904.60938,988.085938" id="Path-4024" stroke="#979797" stroke-width="5" stroke-linecap="round" stroke-linejoin="round"></path>
                <path d="M1364.66406,69.0390625 C1264.6282,146.435925 1368.94151,62.7100523 1274.82031,147.664062 C1263.63119,157.763389 1212.30025,188.189619 1210.82031,189.25 C1197.41036,198.8583 1185.62476,210.560978 1172.6875,220.796875 C1139.47794,247.072118 1093.17167,275.633483 1079.22656,319.054687 C1072.19583,340.946434 1095.39057,372.259507 1101.82031,387.859375 C1144.7466,492.007335 1053.75735,295.730751 1128.53125,445.53125 C1138.16432,464.829951 1135.79629,483.119125 1128.01562,502.742187 C1125.45011,509.212475 1121.91553,515.292846 1118.14062,521.140625 C1115.10157,525.848482 1104.63509,529.561885 1107.65625,534.28125 C1113.60129,543.568036 1127.60195,543.888117 1136.69531,550.125 C1148.04773,557.911308 1147.8136,578.287604 1147.08594,589.476562 C1146.16728,603.602463 1132.50378,610.707556 1123.89062,619.859375 C1114.8113,629.506511 1111.0463,637.908484 1106.19531,650.78125 C1094.05254,683.003778 1093.78061,729.78791 1111.78125,761.414062 C1126.15897,786.674949 1133.17112,783.855855 1139.60937,810.351562 C1143.72008,827.268565 1126.51321,851.090504 1134.80469,864.3125 C1143.34531,877.931786 1149.11458,876.614096 1160.39844,888.125 C1165.5419,893.371954 1169.06889,900.043055 1174.14062,905.359375 C1179.52949,911.00812 1186.85716,914.746866 1191.66406,920.898437 C1202.03566,934.17136 1208.82927,950.015003 1219.32812,963.1875 C1230.70933,977.467047 1244.94421,989.241535 1257.03906,1002.92187 C1290.48644,1040.75379 1285.12986,1043.07359 1322.66406,1074.51562 C1351.51557,1098.68425 1382.16937,1120.63374 1411.22656,1144.55469 C1413.12703,1146.11923 1414.56199,1148.38096 1415.25781,1150.74219 C1415.96375,1153.13773 1415.76081,1155.78816 1415.25781,1158.23438 C1414.65597,1161.1613 1414.11445,1164.47449 1412,1166.58594 C1408.33803,1170.2427 1403.66664,1173.04121 1398.76562,1174.70312 C1377.10888,1182.04686 1354.79418,1141.82631 1340.35937,1129.86719 C1326.54574,1118.42269 1311.23597,1108.79542 1297.92188,1096.77344 C1285.13665,1085.229 1275.66654,1070.1927 1262.27344,1059.35937 C1250.82945,1050.10264 1235.64218,1046.27887 1224.14062,1037.09375 C1207.71883,1023.97934 1213.34316,987.957608 1200.94531,969.0625 C1191.99055,955.414871 1168.6405,935.377397 1161.34375,927.703125 C1108.53823,872.165534 1174.1538,939.282923 1132.57031,889.976562 C1123.36767,879.064803 1111.93895,870.114218 1103.10938,858.898437 C1086.8249,838.213064 1107.74565,795.969494 1101.30469,773.476562 C1090.99161,737.461569 1062.69612,704.251023 1058.35156,666.867187 C1055.80241,644.932419 1071.53692,621.52955 1083.78125,604.320312 C1093.53012,590.618399 1099.54538,592.28985 1096.40625,576.023437 C1092.06113,553.507818 1052.19541,571.319555 1059.46875,543.25 C1066.69777,515.351493 1106.05156,507.796825 1109.46094,479.007812 C1112.01326,457.455845 1086.8622,409.691675 1079.3125,393.273437 C1072.61487,378.70818 1081.05319,368.972321 1083.4375,354.460937 C1089.74228,316.088867 1060.64389,293.874803 1087.13281,256.429687 C1114.09025,218.322266 1104.56846,234.472935 1144.76562,199.070312 C1179.8799,168.144312 1162.91057,174.940856 1212.10938,142.632812 C1229.92535,130.933358 1249.93167,122.806152 1267.6875,111.015625 C1279.41546,103.227826 1288.95341,92.5211706 1300.24219,84.109375 C1323.003,67.1492382 1343.08423,53.7905893 1370.76562,48.4765625 C1386.96232,45.3672645 1401.15282,43.4409048 1407.70312,60.53125 C1408.91558,63.6946566 1403.59561,65.7400412 1402.89062,67.4140625 C1400.84126,72.2803817 1400.36979,77.6692708 1399.10938,82.796875" id="Path-4238" fill="#E4E4E4"></path>
                <path d="M1155.50781,747.296875 C1159.53125,743.161458 1163.55469,739.026042 1167.57812,734.890625" id="Path-3943" stroke="#979797" stroke-width="5" stroke-linecap="round" stroke-linejoin="round"></path>
                <path d="M1171.14062,754.0625 C1173.74609,751.536458 1176.35156,749.010417 1178.95703,746.484375" id="Path-3944" stroke="#979797" stroke-width="5" stroke-linecap="round" stroke-linejoin="round"></path>
                <path d="M1194.67969,768.210938 C1197.39974,765.13151 1200.11979,762.052083 1202.83984,758.972656" id="Path-3945" stroke="#979797" stroke-width="5" stroke-linecap="round" stroke-linejoin="round"></path>
                <path d="M1216.19531,797.355469 C1221.5975,789.577253 1218.24187,791.793983 1225.08594,789.199219" id="Path-3946" stroke="#979797" stroke-width="5" stroke-linecap="round" stroke-linejoin="round"></path>
                <path d="M1239.30078,813.976562 C1241.63542,810.678385 1243.97005,807.380208 1246.30469,804.082031" id="Path-3947" stroke="#979797" stroke-width="5" stroke-linecap="round" stroke-linejoin="round"></path>
                <path d="M1279.84766,940.453125 C1279.60417,945.066406 1279.36068,949.679688 1279.11719,954.292969" id="Path-3948" stroke="#979797" stroke-width="5" stroke-linecap="round" stroke-linejoin="round"></path>
                <path d="M1299.85938,962.835938 C1299.54427,965.476562 1299.22917,968.117188 1298.91406,970.757812" id="Path-3949" stroke="#979797" stroke-width="5" stroke-linecap="round" stroke-linejoin="round"></path>
                <path d="M1334.00391,896.234375 C1331.85677,899.132812 1329.70964,902.03125 1327.5625,904.929688" id="Path-3950" stroke="#979797" stroke-width="5" stroke-linecap="round" stroke-linejoin="round"></path>
                <path d="M1346.80469,922.207031 C1355.22394,923.886505 1350.85042,923.963316 1359.90234,921.398438" id="Path-3951" stroke="#979797" stroke-width="5" stroke-linecap="round" stroke-linejoin="round"></path>
                <path d="M1379.875,71.7109375 C1229.64177,171.304353 1444.03359,28.0801304 1292.5625,132.980469 C1249.2851,162.951953 1204.77063,190.297067 1168.22266,229.1875 C1163.67359,234.02813 1135.0821,267.138645 1128.28125,285.703125 C1126.67411,290.090176 1127.01132,295.176753 1124.75781,299.269531 C1117.01504,313.331838 1103.07291,321.428957 1115.52344,339.507813" id="Path-3980" stroke="#979797" stroke-width="5" stroke-linecap="round" stroke-linejoin="round"></path>
                <path d="M1115.13672,251.300781 C1127.84712,254.095631 1121.71242,254.583745 1133.5625,250.140625" id="Path-3983" stroke="#979797" stroke-width="5" stroke-linecap="round" stroke-linejoin="round"></path>
                <path d="M1128.58203,225.015625 C1129.82206,232.627317 1142.32683,240.457261 1143.95703,231.664062" id="Path-3984" stroke="#979797" stroke-width="5" stroke-linecap="round" stroke-linejoin="round"></path>
                <path d="M1139.91797,210.710938 C1147.0221,212.98199 1156.58375,218.280087 1160.87891,209.359375" id="Path-3985" stroke="#979797" stroke-width="5" stroke-linecap="round" stroke-linejoin="round"></path>
                <path d="M1154.17969,179.132812 C1155.57224,198.104056 1166.6867,199.971346 1181.83594,192.96875" id="Path-3986" stroke="#979797" stroke-width="5" stroke-linecap="round" stroke-linejoin="round"></path>
                <path d="M1175.73828,164.714844 C1181.7486,174.515766 1183.51311,171.623539 1194.59375,167.148438" id="Path-3987" stroke="#979797" stroke-width="5" stroke-linecap="round" stroke-linejoin="round"></path>
                <path d="M1211.04297,142.679688 C1218.89769,142.846262 1242.8441,148.950573 1247.9375,136.496094" id="Path-3988" stroke="#979797" stroke-width="5" stroke-linecap="round" stroke-linejoin="round"></path>
                <path d="M1242.30859,116.667969 C1246.08657,123.347523 1258.80825,133.20759 1266.32031,124.824219" id="Path-3989" stroke="#979797" stroke-width="5" stroke-linecap="round" stroke-linejoin="round"></path>
                <path d="M1066.90625,375.300781 C1062.24969,386.892379 1089.54767,396.230501 1094.13672,382.839844" id="Path-3990" stroke="#979797" stroke-width="5" stroke-linecap="round" stroke-linejoin="round"></path>
                <path d="M1069.91406,331.273438 C1075.48307,329.483073 1081.05208,327.692708 1086.62109,325.902344" id="Path-3991" stroke="#979797" stroke-width="5" stroke-linecap="round" stroke-linejoin="round"></path>
                <path d="M1115.56641,302.515625 C1100.38594,317.673458 1087.48462,340.232306 1090.91406,362.082031" id="Path-3992" stroke="#979797" stroke-width="5" stroke-linecap="round" stroke-linejoin="round"></path>
                <path d="M1100.40625,273.988281 C1097.7314,292.911187 1100.75903,283.459302 1090.14062,301.9375" id="Path-3993" stroke="#979797" stroke-width="5" stroke-linecap="round" stroke-linejoin="round"></path>
                <path d="M1112.51953,276.117188 C1107.64523,295.668284 1085.98769,311.725212 1101.17969,330.347656" id="Path-3994" stroke="#979797" stroke-width="5" stroke-linecap="round" stroke-linejoin="round"></path>
                <path d="M1108.09375,393.972656 C1117.17717,400.876171 1127.64927,407.827934 1130.55469,419.871094 C1135.03119,438.426476 1121.79474,445.431995 1132.27344,466.449219 C1135.88285,473.688652 1153.84235,479.05666 1155.51172,468.691406" id="Path-3995" stroke="#979797" stroke-width="5" stroke-linecap="round" stroke-linejoin="round"></path>
                <path d="M1130.12891,732.886719 C1114.86229,778.063973 1143.39445,772.494298 1149.28125,814.0625" id="Path-3998" stroke="#979797" stroke-width="5" stroke-linecap="round" stroke-linejoin="round"></path>
                <path d="M1122.01172,780.585938 C1144.7121,798.932819 1151.95996,819.547632 1152.33203,848" id="Path-3999" stroke="#979797" stroke-width="5" stroke-linecap="round" stroke-linejoin="round"></path>
                <path d="M1159.20312,827.164062 C1159.5612,833.683594 1162.09966,840.452755 1160.27734,846.722656 C1158.18976,853.90524 1132.96976,881.415893 1149.92578,890.441406" id="Path-4000" stroke="#979797" stroke-width="5" stroke-linecap="round" stroke-linejoin="round"></path>
                <path d="M1167.92188,843.515625 C1203.86605,846.136003 1231.20656,890.178733 1220.19141,924.265625" id="Path-4001" stroke="#979797" stroke-width="5" stroke-linecap="round" stroke-linejoin="round"></path>
                <path d="M1275.80469,354.675781 C1275.08568,361.292145 1283.22288,369.552538 1288.26172,362.523438" id="Path-4017" stroke="#979797" stroke-width="5" stroke-linecap="round" stroke-linejoin="round"></path>
                <path d="M1289.375,345.089844 C1294.72149,348.318569 1297.99733,348.191135 1302.82031,344.394531" id="Path-4018" stroke="#979797" stroke-width="5" stroke-linecap="round" stroke-linejoin="round"></path>
                <path d="M1306,331.988281 C1310.17969,328.80599 1314.35938,325.623698 1318.53906,322.441406" id="Path-4019" stroke="#979797" stroke-width="5" stroke-linecap="round" stroke-linejoin="round"></path>
                <path d="M1215.10938,394.078125 C1206.28675,410.129462 1209.67927,401.060403 1206.17578,421.71875" id="Path-4220" stroke="#979797" stroke-width="5" stroke-linecap="round" stroke-linejoin="round"></path>
                <path d="M1217.73047,419.320312 C1214.6417,424.236104 1202.4311,449.438311 1216.95703,444.214844" id="Path-4221" stroke="#979797" stroke-width="5" stroke-linecap="round" stroke-linejoin="round"></path>
                <path d="M1222.07031,456.929688 C1216.92483,463.628844 1215.83958,482.948894 1227.22266,473.320312" id="Path-4222" stroke="#979797" stroke-width="5" stroke-linecap="round" stroke-linejoin="round"></path>
                <path d="M1167.82031,366.078125 C1167.1899,373.377997 1169.00841,376.146865 1176.06641,377.636719" id="Path-3931" stroke="#979797" stroke-width="5" stroke-linecap="round" stroke-linejoin="round"></path>
                <path d="M1180.66016,337.085938 C1182.80859,339.907552 1184.95703,342.729167 1187.10547,345.550781" id="Path-3932" stroke="#979797" stroke-width="5" stroke-linecap="round" stroke-linejoin="round"></path>
                <path d="M1273.34766,282.894531 C1257.09406,258.03802 1234.59011,293.785025 1253.50391,312.347656 C1259.28624,318.022634 1267.48709,319.926985 1269.78125,312.425781" id="Path-3933" stroke="#979797" stroke-width="5" stroke-linecap="round" stroke-linejoin="round"></path>
                <path d="M1277.85547,253.167969 C1261.44269,249.379143 1234.54507,255.349253 1230.14062,275.550781 C1226.19938,293.627761 1232.22049,330.039195 1256.25391,333.492187 C1281.05444,337.055396 1301.5401,320.687917 1297.95703,294.992187 C1295.89535,280.206996 1279.1814,258.837197 1264.07031,260.398437" id="Path-3934" stroke="#979797" stroke-width="5" stroke-linecap="round" stroke-linejoin="round"></path>
                <path d="M1303.66797,445.046875 C1286.0469,448.702527 1286.78881,494.492025 1305.60156,498.273438 C1328.89817,502.956117 1337.0227,469.905731 1311.18359,465.921875" id="Path-3935" stroke="#979797" stroke-width="5" stroke-linecap="round" stroke-linejoin="round"></path>
                <path d="M1306.97656,420.851562 C1267.59458,423.875408 1268.1649,497.191119 1293.35938,516.367188 C1308.36734,527.790078 1326.84617,516.014923 1333.51953,501.523438 C1346.61293,473.090546 1342.61481,440.802809 1317.28125,422.125" id="Path-3936" stroke="#979797" stroke-width="5" stroke-linecap="round" stroke-linejoin="round"></path>
                <path d="M1246.92969,612.683594 C1238.48512,623.075921 1243.4046,651.82016 1243.49609,658.449219" id="Path-3976" stroke="#979797" stroke-width="5" stroke-linecap="round" stroke-linejoin="round"></path>
                <path d="M1253.33203,665.214844 C1260.83679,671.545525 1265.27761,674.197908 1275.27734,673.058594" id="Path-3977" stroke="#979797" stroke-width="5" stroke-linecap="round" stroke-linejoin="round"></path>
                <path d="M1284.08203,673.949219 C1283.23698,682.234375 1283.45038,690.697 1281.54687,698.804688 C1280.51324,703.207275 1278.83674,707.95566 1275.40625,710.902344 C1274.77033,711.448578 1261.56723,719.009956 1255.77734,717.433594 C1251.36151,716.231332 1237.60168,708.728237 1232.58594,713.027344 C1217.53204,725.930384 1202.53671,763.576447 1228.54687,772.054688" id="Path-3978" stroke="#979797" stroke-width="5" stroke-linecap="round" stroke-linejoin="round"></path>
                <path d="M1254.05859,821.800781 C1271.0713,834.8556 1273.86929,856.248397 1298.59766,853.074219 C1300.16464,852.873077 1301.96055,849.679767 1302.85156,850.984375 C1305.6316,855.054865 1305.02258,860.647769 1306.88672,865.210938 C1310.63998,874.39845 1339.57465,873.565258 1342.44922,873.871094" id="Path-3979" stroke="#979797" stroke-width="5" stroke-linecap="round" stroke-linejoin="round"></path>
                <path d="M1135.94141,652.125 C1135.91276,667.484375 1137.16156,682.899356 1135.85547,698.203125 C1135.47052,702.713685 1129.45855,723.073058 1124.47266,728.160156 C1122.3186,730.357932 1118.98201,731.129073 1115.96875,731.753906 C1085.2505,738.123679 1079.92412,728.413321 1090.5,699.980469 C1092.84691,693.67089 1100.266,687.48602 1104.84766,683.050781" id="Path-3996" stroke="#979797" stroke-width="5" stroke-linecap="round" stroke-linejoin="round"></path>
                <path d="M1220.20703,923.902344 C1244.63256,927.914143 1257.86045,952.228396 1269.98828,972.375 C1275.24332,981.1046 1283.53753,1002.80468 1291.07422,1013.65625 C1291.33421,1014.03059 1291.96224,1013.45052 1292.40625,1013.34766" id="Path-4002" stroke="#979797" stroke-width="5" stroke-linecap="round" stroke-linejoin="round"></path>
                <path d="M1197.53125,931.480469 C1233.15004,938.937512 1229.43776,959.056534 1254.35156,993.480469 C1263.3633,1005.93218 1272.48367,1015.97062 1285.79297,1022.58594 C1286.3164,1022.8461 1286.9388,1022.35417 1287.51172,1022.23828" id="Path-4004" stroke="#979797" stroke-width="5" stroke-linecap="round" stroke-linejoin="round"></path>
                <path d="M1352.36328,862.015625 C1367.30815,862.058239 1362.5971,865.028442 1368.89844,859.621094" id="Path-4014" stroke="#979797" stroke-width="5" stroke-linecap="round" stroke-linejoin="round"></path>
                <path d="M1129.21094,568.449219 C1127.83724,571.657552 1122.30355,575.972544 1125.08984,578.074219 L1125.86328,582.441406 C1135.19785,589.482389 1145.9686,594.419028 1155.58203,601.074219 C1157.20526,602.197947 1158.66052,603.787888 1159.36328,605.632812 C1160.13577,607.660764 1160.60709,610.117308 1159.79297,612.128906 C1151.1874,633.392299 1117.97665,619.55822 1109.37109,637.5625 C1108.01666,640.396206 1107.79557,643.643229 1107.00781,646.683594" id="Path-4218" stroke="#979797" stroke-width="5" stroke-linecap="round" stroke-linejoin="round"></path>
                <path d="M1112.84766,621.945312 C1124.91976,604.110434 1117.39347,609.90926 1133.50781,602.308594" id="Path-4219" stroke="#979797" stroke-width="5" stroke-linecap="round" stroke-linejoin="round"></path>
                <path d="M1226.96094,534.109375 C1225.75781,536.723958 1223.73403,539.100535 1223.35156,541.953125 C1220.4967,563.245631 1243.21002,532.570839 1248.47656,544.15625 C1252.24145,552.438304 1243.25,564.043806 1242.25,572.570312 C1241.97546,574.911213 1241.37391,577.488954 1242.33594,579.640625 C1242.78401,580.642773 1244.51302,579.924479 1245.60156,580.066406" id="Path-3937" stroke="#979797" stroke-width="5" stroke-linecap="round" stroke-linejoin="round"></path>
                <path d="M1097.28906,675.007812 C1088.62698,683.642729 1061.68597,726.486879 1088.61328,727.539062" id="Path-3997" stroke="#979797" stroke-width="5" stroke-linecap="round" stroke-linejoin="round"></path>
                <path d="M1278.66406,994.757812 C1311.14952,992.612654 1321.8914,1022.75136 1341.83984,1041.875" id="Path-4003" stroke="#979797" stroke-width="5" stroke-linecap="round" stroke-linejoin="round"></path>
                <path d="M317.484375,1147.22656 C343.719968,1139.27146 374.344384,1134.56973 376.96875,1101.25 C377.444573,1095.20881 377.853421,1089.06528 376.96875,1083.07031 C375.864326,1075.58618 357.777191,1072.20287 356.8125,1071.71094 C338.547321,1062.3968 323.267893,1048.76693 319.914062,1027.3125 C314.592374,993.2697 335.424113,995.366434 364.265625,998.109375 C370.667918,998.718258 380.565854,1006.75188 387.742188,1004.38281 C391.528594,1003.13283 397.269948,987.408832 398.453125,985.664062 C402.390966,979.857131 406.707732,974.211794 411.8125,969.398437 C435.13717,947.405284 458.84876,940.007124 491.335938,944.867187 C496.519224,945.642604 501.608786,948.128837 505.554688,951.578125 C516.901213,961.496628 510.831134,978.667887 511.882813,990.539062 C513.619824,1010.14617 532.395055,1009.4655 541.640625,1017.94531 C553.275278,1028.61633 555.55232,1039.30403 556.78125,1053.8125 C557.281069,1059.71324 560.312088,1066.82399 556.78125,1071.57812 C553.074569,1076.56902 545.303824,1076.89987 539.125,1077.58594 C523.699973,1079.29866 485.423241,1074.69228 466.34375,1085.27344 C459.349681,1089.15223 452.354972,1138.08629 446.421875,1149.83594 C443.349756,1155.91983 430.341997,1165.0754 425.398438,1167.71094 C417.421243,1171.96378 409.080054,1175.54113 400.640625,1178.78125 C360.677512,1194.12415 354.551616,1169.13159 333.304688,1145.95312" id="Path-4240" fill="#3B444F" opacity="0.505887681"></path>
                <path d="M629.9375,83.828125 C628.809919,109.093379 621.050033,142.097861 594.109375,151.625 C571.61312,159.580446 564.518727,154.178931 543.835937,165.539063 C534.620312,170.600794 515.788076,205.447938 522.976562,218.3125 C542.649517,253.519347 600.284171,240.899469 629.382812,255.546875 C643.895296,262.852035 642.978577,279.041562 647.929687,292.1875 C653.737395,307.60783 668.953762,319.193011 684.671875,322.835938 C704.488204,327.428691 721.436666,300.154292 736.976562,290.09375 C759.264506,275.664517 820.636498,290.977135 828.71875,262.757813 C837.281085,232.862271 829.901869,216.306204 844.976562,191.007812 C847.362258,187.004132 874.029735,165.607411 872.007812,160.804688 C857.317417,125.910229 811.760068,122.713474 781.28125,113.921875 C765.398848,109.340605 749.886108,103.499972 734.539062,97.359375 C714.239918,89.2373648 741.093088,96.2606582 722.59375,82.75 C719.156755,80.239853 714.4211,80.0374136 710.171875,79.796875 C688.901573,78.5928135 667.572917,78.8854167 646.273437,78.4296875 L629.9375,83.828125 Z" id="Path-4241" fill="#3B444F" opacity="0.505887681"></path>
                <path d="M70.875,168.523438 C70.875,197.800055 60.2686764,221.676777 44.6328125,246.375 C27.145115,273.998357 -19.3986189,291.900976 9.3125,332.609375 C34.390725,368.166832 105.51864,373.054922 142.3125,363.078125 C158.10772,358.79519 172.386673,346.477319 188.703125,345.429688 C214.813457,343.753219 238.257409,353.306687 264.1875,349.601562 C266.895124,349.214673 270.067707,347.257726 270.6875,344.59375 C275.920953,322.099477 268.965943,316.666984 267.835937,295.140625 C267.041009,279.997413 267.16446,264.797626 267.835937,249.648438 C269.437697,213.511184 287.454448,183.644895 249.40625,166.84375 C240.648998,162.976764 231.621257,159.700397 222.484375,156.84375 C217.483891,155.280348 212.331072,153.935459 207.101562,153.617188 C194.580459,152.855146 181.905183,151.975887 169.46875,153.617188 C127.223998,159.192447 147.828231,160.874113 117.484375,174.070313 C103.430071,180.18237 95.8579056,145.349875 78.4921875,154.046875 C76.8482817,154.870167 78.4921875,157.723958 78.4921875,159.5625 L70.875,168.523438 Z" id="Path-4242" fill="#3B444F" opacity="0.505887681"></path>
            </g>
        </g>
    </g>
</svg>