<?xml version="1.0" encoding="UTF-8"?>
<svg width="1920px" height="284px" viewBox="0 0 1920 284" version="1.1" xmlns="http://www.w3.org/2000/svg" xmlns:xlink="http://www.w3.org/1999/xlink">
    <!-- Generator: Sketch 49.3 (51167) - http://www.bohemiancoding.com/sketch -->
    <title>Z (+5)</title>
    <desc>Created with Sketch.</desc>
    <defs></defs>
    <g id="Artwork" stroke="none" stroke-width="1" fill="none" fill-rule="evenodd">
        <g id="About-Scene---house-in-a-field" transform="translate(0.000000, -796.000000)">
            <g id="Z-(+5)" transform="translate(-33.000000, 799.000000)">
                <path d="M26.158521,173.257433 C26.158521,161.662879 25.4390703,160.288153 29.5771913,147.462011 C42.9592915,105.984076 79.6186782,162.002015 86.0103156,168.786093 C89.0892542,172.054075 92.5989143,174.927938 96.2663266,177.518239 C111.689987,188.412002 157.219791,182.036245 157.551757,181.979554 C169.835792,179.881769 179.62623,170.320032 191.167011,165.618058 C225.79386,151.5103 268.736787,174.431288 299.632098,181.688816 C324.429494,187.513901 343.77306,164.400408 372.717455,169.77861 C399.079724,174.677023 411.152733,199.900078 435.87764,206.391466 C460.560644,212.871854 478.185948,203.783266 505.985446,206.391466 C512.57716,207.009913 517.663539,212.663482 523.73045,215.314096 C543.689461,224.034124 565.409068,215.237965 586.780356,218.983402 C620.24005,224.847399 643.577137,242.465902 662.843265,269.481474 C665.69034,273.473733 673.6732,294.568227 670.452563,302.515253 C667.674123,309.371145 654.599298,310.977896 649.509448,310.956662 C613.78128,310.807608 578.042777,310.030225 542.357692,308.269848 C-148.660346,274.181317 1099.24431,328.277619 369.188505,300.730727 C349.206165,299.976742 290.218502,286.223087 282.548771,285.552232 C254.65564,283.112481 226.451132,282.145823 198.55575,284.559715 C151.887441,288.598098 83.11586,310.530901 29.2463522,304.80105 C3.76827816,302.091065 4.90865384,264.233055 4.44344773,247.956884 C2.37391208,175.550013 -12.3847375,169.970602 40.0437363,141.907925" id="Path-3168" fill="#424C59"></path>
                <path d="M1421.22666,309.362619 C1414.49309,298.414681 1399.37603,263.524863 1404.57442,250.533418 C1406.93161,244.642518 1412.28194,240.395603 1416.81547,235.956448 C1417.15627,235.622741 1432.59534,221.4834 1438.64082,220.276682 C1464.50784,215.113451 1488.78742,233.075514 1515.2451,225.439776 C1536.31488,219.359 1538.02431,207.837443 1549.20122,191.704217 C1553.3724,185.683362 1577.23757,187.381654 1581.6034,188.034911 C1592.30972,189.636893 1601.63458,193.022704 1609.93526,199.844863 C1618.27241,206.69701 1629.14964,224.207601 1643.88135,218.893173 C1676.32369,207.189672 1695.43645,178.133796 1728.21523,166.109304 C1754.73597,156.380499 1788.43336,151.636315 1816.2886,156.194157 C1834.82577,159.22732 1834.64895,164.74629 1852.55057,161.948752 C1878.4121,157.907295 1883.72565,129.764229 1915.60048,133.376287 C1930.1365,135.02351 1932.54907,147.177533 1942.05758,155.893394 C1947.37534,160.767855 1954.78337,162.954572 1960.13342,167.793575 C1965.59931,172.737359 1966.61703,193.410834 1966.7502,195.674286 C1968.08537,218.367047 1969.98388,241.109475 1969.17635,263.827133 C1968.76475,275.406513 1964.3033,286.528757 1963.11097,298.053938 C1962.27395,306.144719 1971.01494,320.535264 1963.11097,322.455826 C1933.32317,329.693872 1861.75221,321.201237 1821.79256,320.380563 C1787.49504,319.676175 1664.93003,320.950537 1647.07946,321.563563 C1546.44518,325.019555 1603.3979,329.650172 1502.57297,326.626403 C1492.43045,326.322226 1477.92991,316.098997 1470.82244,313.833959 C1464.01584,311.664804 1456.71332,311.58158 1449.65877,310.455391 L1421.22666,309.362619 Z" id="Path-3169" fill="#424C59"></path>
                <path d="M260.327414,82.3969947 C260.575282,64.8584559 257.188008,47.5310065 246.331919,33.2924571" id="Path-2531" stroke="#979797" stroke-width="5" stroke-linecap="round" stroke-linejoin="round"></path>
                <path d="M260.547974,38.2500303 C264.075253,44.5008836 267.222958,50.9816798 271.129811,57.0025901 C272.057881,58.4328521 274.138479,61.9290325 274.93446,60.4212604 C277.177086,56.1732099 276.683762,50.9403209 276.864355,46.1400408 C277.254774,35.7624513 276.717315,25.3706994 276.643795,14.9860288" id="Path-2532" stroke="#979797" stroke-width="5" stroke-linecap="round" stroke-linejoin="round"></path>
                <path d="M286.012556,60.1255104 C287.99592,49.857803 289.979283,39.5900956 291.962647,29.3223883" id="Path-2533" stroke="#979797" stroke-width="5" stroke-linecap="round" stroke-linejoin="round"></path>
                <path d="M293.727122,58.140476 C298.102647,44.2427031 296.33996,52.5564025 296.925233,32.8463256" id="Path-2534" stroke="#979797" stroke-width="5" stroke-linecap="round" stroke-linejoin="round"></path>
                <path d="M305.301476,59.4788704 C305.319856,51.2129065 305.338236,42.9469425 305.356616,34.6809786" id="Path-2535" stroke="#979797" stroke-width="5" stroke-linecap="round" stroke-linejoin="round"></path>
                <path d="M474.615887,38.5959075 C475.112146,27.5345206 475.608404,16.4731337 476.104663,5.41174671" id="Path-2536" stroke="#979797" stroke-width="5" stroke-linecap="round" stroke-linejoin="round"></path>
                <path d="M491.974913,21.4373905 C491.988297,20.1691703 489.373425,2.37346477 495.338443,0.253664912" id="Path-2537" stroke="#979797" stroke-width="5" stroke-linecap="round" stroke-linejoin="round"></path>
                <path d="M519.700229,38.1497761 C521.043095,28.5140451 519.450052,11.5299025 530.282066,6.40426391" id="Path-2538" stroke="#979797" stroke-width="5" stroke-linecap="round" stroke-linejoin="round"></path>
                <path d="M652.692521,145.842905 C650.192848,137.657144 647.084864,129.632945 645.193502,121.285623 C644.348015,117.554161 643.007291,113.335757 644.531824,109.826561 C645.348747,107.946151 646.810937,113.235206 647.950494,114.939528" id="Path-2539" stroke="#979797" stroke-width="5" stroke-linecap="round" stroke-linejoin="round"></path>
                <path d="M659.745408,126.844722 C659.396189,122.809488 656.581308,111.285654 658.697751,114.73902 C661.961075,120.063734 670.542578,162.80668 674.683293,135.621983 C676.246384,125.359954 676.959065,114.986314 678.096951,104.668479" id="Path-2540" stroke="#979797" stroke-width="5" stroke-linecap="round" stroke-linejoin="round"></path>
                <path d="M679.971705,146.880536 C684.98776,137.919476 690.003815,128.958416 695.01987,119.997356" id="Path-2541" stroke="#979797" stroke-width="5" stroke-linecap="round" stroke-linejoin="round"></path>
                <path d="M44.6454069,203.834983 C43.7294417,186.83285 46.0164525,169.401566 48.9964419,152.645156 C49.8682285,147.743121 47.7960589,136.988753 52.6356716,138.158415 L54.1795873,136.474144 C54.573904,136.569444 56.542112,154.73318 57.7636772,166.630626" id="Path-2721" stroke="#979797" stroke-width="5" stroke-linecap="round" stroke-linejoin="round"></path>
                <path d="M66.1950606,179.528337 C66.048021,174.12129 65.4983708,168.710202 65.7539419,163.307197 C67.5244078,125.877938 83.8036919,213.564743 85.9250994,220.647622" id="Path-2722" stroke="#979797" stroke-width="5" stroke-linecap="round" stroke-linejoin="round"></path>
                <path d="M96.451797,227.098984 C96.1065967,219.083891 92.1167639,178.35138 96.1760978,161.918676 C96.4396086,160.85195 97.8072361,163.51011 98.1611322,164.55035 C98.9357702,166.827317 99.0433697,169.279009 99.4844884,171.643339" id="Path-2723" stroke="#979797" stroke-width="5" stroke-linecap="round" stroke-linejoin="round"></path>
                <path d="M121.144422,223.87581 C120.501124,202.214205 119.857825,180.552601 119.214527,158.890997" id="Path-2724" stroke="#979797" stroke-width="5" stroke-linecap="round" stroke-linejoin="round"></path>
                <path d="M141.370719,233.991465 C140.506862,221.872395 139.351762,209.770574 138.779147,197.634257 C138.432327,190.283564 138.303349,182.910589 138.613727,175.558268 C139.708747,149.619103 151.693897,220.991276 158.950304,236.768508" id="Path-2725" stroke="#979797" stroke-width="5" stroke-linecap="round" stroke-linejoin="round"></path>
                <path d="M170.304099,228.337124 C173.053534,197.452024 169.973149,187.095547 180.885937,163.457579 C181.20177,162.773459 182.319573,162.993067 183.036391,162.760811" id="Path-2726" stroke="#979797" stroke-width="5" stroke-linecap="round" stroke-linejoin="round"></path>
                <path d="M194.114487,216.331676 C193.691748,205.701383 192.386077,195.069534 192.84627,184.440796 C192.932067,182.459208 193.720221,171.874703 199.077073,171.046826 C199.60042,170.965945 199.754443,171.914303 199.84903,172.435348" id="Path-2727" stroke="#979797" stroke-width="5" stroke-linecap="round" stroke-linejoin="round"></path>
                <path d="M208.004715,176.651039 C214.207376,204.878483 215.471383,213.305092 216.877217,211.374103 C218.277522,209.450709 217.649175,206.678862 218.035154,204.331241" id="Path-2728" stroke="#979797" stroke-width="5" stroke-linecap="round" stroke-linejoin="round"></path>
                <path d="M228.89269,204.677119 C234.146869,163.26789 227.537857,177.68599 238.371731,158.048861" id="Path-2729" stroke="#979797" stroke-width="5" stroke-linecap="round" stroke-linejoin="round"></path>
                <path d="M248.953568,184.937054 C248.806529,187.019001 248.360766,193.264508 248.512449,191.182895 L251.214302,186.225322 C253.432996,155.777279 244.019274,146.973193 256.227015,161.868548" id="Path-2730" stroke="#979797" stroke-width="5" stroke-linecap="round" stroke-linejoin="round"></path>
                <path d="M260.913902,206.612026 C272.02966,195.427757 263.473021,204.711547 279.265444,173.477992" id="Path-2731" stroke="#979797" stroke-width="5" stroke-linecap="round" stroke-linejoin="round"></path>
                <path d="M275.576087,206.461644 C279.544485,197.169745 282.930756,187.60705 287.481281,178.585947 C288.867037,175.838781 292.643788,168.379374 293.265952,171.392703 C295.693209,183.148643 292.998725,195.40793 293.431372,207.404034 C293.514696,209.714403 294.350369,211.935527 294.809868,214.201273" id="Path-2732" stroke="#979797" stroke-width="5" stroke-linecap="round" stroke-linejoin="round"></path>
                <path d="M318.068857,217.970834 C319.153273,211.918818 319.793497,205.770138 321.322107,199.814787 C327.213663,176.861733 331.533053,216.401934 334.931623,224.071306" id="Path-2733" stroke="#979797" stroke-width="5" stroke-linecap="round" stroke-linejoin="round"></path>
                <path d="M343.914405,230.272032 C361.46536,199.166875 359.9068,159.232389 366.180877,225.264331" id="Path-2734" stroke="#979797" stroke-width="5" stroke-linecap="round" stroke-linejoin="round"></path>
                <path d="M374.451854,229.134146 C383.921956,204.455436 371.196359,172.836659 391.976299,210.035709" id="Path-2735" stroke="#979797" stroke-width="5" stroke-linecap="round" stroke-linejoin="round"></path>
                <path d="M396.828605,227.740612 C404.679181,217.344347 406.71537,203.484132 416.117525,194.260701 C437.814664,172.975999 400.570707,247.445755 423.99751,213.359138" id="Path-2736" stroke="#979797" stroke-width="5" stroke-linecap="round" stroke-linejoin="round"></path>
                <path d="M429.732054,204.381368 C427.349838,212.877939 428.008254,208.240027 428.353558,218.366838" id="Path-2737" stroke="#979797" stroke-width="5" stroke-linecap="round" stroke-linejoin="round"></path>
                <path d="M471.011746,232.407447 C471.011746,222.908813 468.269248,186.961449 477.072117,221.394517" id="Path-2738" stroke="#979797" stroke-width="5" stroke-linecap="round" stroke-linejoin="round"></path>
                <path d="M488.97731,237.365021 C496.271966,219.919641 498.030463,166.848027 499.504008,224.617691" id="Path-2739" stroke="#979797" stroke-width="5" stroke-linecap="round" stroke-linejoin="round"></path>
                <path d="M511.298922,227.840866 C511.493993,227.075634 520.808954,179.814797 526.402226,201.504071" id="Path-2740" stroke="#979797" stroke-width="5" stroke-linecap="round" stroke-linejoin="round"></path>
                <path d="M524.858311,224.717946 C518.689619,264.048027 529.410988,219.85598 544.092091,207.208539" id="Path-2741" stroke="#979797" stroke-width="5" stroke-linecap="round" stroke-linejoin="round"></path>
                <path d="M534.392491,240.68845 C547.026199,234.822358 538.211097,239.662854 556.769242,220.452127" id="Path-2742" stroke="#979797" stroke-width="5" stroke-linecap="round" stroke-linejoin="round"></path>
                <path d="M556.162704,227.890993 C549.434529,244.565674 545.498287,243.883529 557.5412,239.796187" id="Path-2743" stroke="#979797" stroke-width="5" stroke-linecap="round" stroke-linejoin="round"></path>
                <path d="M573.361323,242.523103 C577.545103,257.062602 592.335909,232.403355 593.80818,233.891211 C597.334741,237.455101 593.931679,244.006121 595.131536,248.87421 C595.754624,251.402218 597.507194,253.552641 599.151732,255.571195 C599.982223,256.590564 601.090133,257.801852 602.404983,257.801852 C603.674739,257.801852 604.910833,256.699725 605.492814,255.571195 C607.379844,251.91202 608.209704,247.798148 609.56815,243.911624" id="Path-2744" stroke="#979797" stroke-width="5" stroke-linecap="round" stroke-linejoin="round"></path>
                <path d="M610.891506,263.21057 C616.632532,274.05328 611.496215,267.39515 626.21537,250.017109 C626.999954,249.090796 628.750548,247.126627 629.358341,248.177443 C643.903137,273.324012 625.371602,256.253002 641.86506,274.965382 C642.669288,275.877805 643.965623,276.361286 645.173451,276.504285 C646.453817,276.655871 648.431224,276.975097 648.9781,275.807518 C650.988119,271.516135 647.386717,262.975782 652.005779,261.91729 C656.548729,260.876239 658.155874,269.053078 660.221616,273.230983 C660.751707,274.303077 658.016022,272.305302 656.913225,271.842462" id="Path-2745" stroke="#979797" stroke-width="5" stroke-linecap="round" stroke-linejoin="round"></path>
                <path d="M439.762493,232.94882 C436.753042,253.285413 437.022152,244.072246 437.777458,260.528768" id="Path-2746" stroke="#979797" stroke-width="5" stroke-linecap="round" stroke-linejoin="round"></path>
                <path d="M60.8464957,233.445079 C59.2187331,246.370672 59.2109034,240.152264 60.5156567,252.097385" id="Path-2747" stroke="#979797" stroke-width="5" stroke-linecap="round" stroke-linejoin="round"></path>
                <path d="M71.7040323,274.173373 C59.1832036,244.016499 64.2492365,258.643044 55.9992021,230.47254" id="Path-2748" stroke="#979797" stroke-width="5" stroke-linecap="round" stroke-linejoin="round"></path>
                <path d="M88.0204135,270.849944 C87.2300758,262.615728 86.439738,254.381511 85.6494002,246.147294" id="Path-2749" stroke="#979797" stroke-width="5" stroke-linecap="round" stroke-linejoin="round"></path>
                <path d="M101.359243,283.893024 C101.469523,272.253504 101.579802,260.613984 101.690082,248.974464" id="Path-2750" stroke="#979797" stroke-width="5" stroke-linecap="round" stroke-linejoin="round"></path>
                <path d="M111.389682,274.815 C113.134106,266.300072 114.87853,257.785143 116.622955,249.270214" id="Path-2751" stroke="#979797" stroke-width="5" stroke-linecap="round" stroke-linejoin="round"></path>
                <path d="M124.999198,274.815 C132.858146,261.42537 128.627772,269.729 136.132434,249.16996" id="Path-2752" stroke="#979797" stroke-width="5" stroke-linecap="round" stroke-linejoin="round"></path>
                <path d="M139.716524,274.418996 C152.296514,261.152379 145.37253,269.402552 159.115724,248.57846" id="Path-2753" stroke="#979797" stroke-width="5" stroke-linecap="round" stroke-linejoin="round"></path>
                <path d="M160.604499,277.145912 C170.928772,257.275858 167.031308,266.758376 173.061092,249.024591" id="Path-2754" stroke="#979797" stroke-width="5" stroke-linecap="round" stroke-linejoin="round"></path>
                <path d="M185.683103,272.880093 C178.370633,255.553185 181.114698,265.08971 178.409656,244.011878" id="Path-2755" stroke="#979797" stroke-width="5" stroke-linecap="round" stroke-linejoin="round"></path>
                <path d="M201.332794,277.296293 C198.901975,259.447355 199.703737,269.52903 199.90417,246.98943" id="Path-2756" stroke="#979797" stroke-width="5" stroke-linecap="round" stroke-linejoin="round"></path>
                <path d="M213.127707,269.707046 C214.469444,259.439338 215.81118,249.171631 217.152916,238.903924" id="Path-2757" stroke="#979797" stroke-width="5" stroke-linecap="round" stroke-linejoin="round"></path>
                <path d="M227.789893,266.779621 C229.499229,259.868761 231.208564,252.9579 232.917899,246.04704" id="Path-2758" stroke="#979797" stroke-width="5" stroke-linecap="round" stroke-linejoin="round"></path>
                <path d="M244.051135,270.799817 C247.523274,261.457791 250.995413,252.115765 254.467553,242.773738" id="Path-2759" stroke="#979797" stroke-width="5" stroke-linecap="round" stroke-linejoin="round"></path>
                <path d="M271.550879,275.211005 C276.070675,266.465491 280.590471,257.719978 285.110268,248.974464" id="Path-2760" stroke="#979797" stroke-width="5" stroke-linecap="round" stroke-linejoin="round"></path>
                <path d="M292.438854,274.022992 C296.627812,268.747947 300.816769,263.472902 305.005726,258.197856" id="Path-2761" stroke="#979797" stroke-width="5" stroke-linecap="round" stroke-linejoin="round"></path>
                <path d="M312.885711,276.303776 C317.828246,269.524917 322.770781,262.746058 327.713317,255.967199" id="Path-2762" stroke="#979797" stroke-width="5" stroke-linecap="round" stroke-linejoin="round"></path>
                <path d="M345.89944,269.606791 C349.371579,262.580639 352.843718,255.554486 356.315858,248.528333" id="Path-2763" stroke="#979797" stroke-width="5" stroke-linecap="round" stroke-linejoin="round"></path>
                <path d="M385.640229,263.556447 C388.965329,257.075009 392.290429,250.593571 395.615528,244.112133" id="Path-2764" stroke="#979797" stroke-width="5" stroke-linecap="round" stroke-linejoin="round"></path>
                <path d="M402.833835,271.641953 C409.317047,250.836737 405.398909,260.733344 414.40819,241.881475" id="Path-2765" stroke="#979797" stroke-width="5" stroke-linecap="round" stroke-linejoin="round"></path>
                <path d="M427.47132,270.699563 C432.724644,261.738503 437.977967,252.777443 443.23129,243.816383" id="Path-2766" stroke="#979797" stroke-width="5" stroke-linecap="round" stroke-linejoin="round"></path>
                <path d="M682.342719,143.657362 C688.735599,138.216897 695.128479,132.776432 701.521359,127.335968" id="Path-2542" stroke="#979797" stroke-width="5" stroke-linecap="round" stroke-linejoin="round"></path>
                <path d="M691.049801,144.895502 C697.84704,140.646392 704.644279,136.397282 711.441518,132.148172" id="Path-2543" stroke="#979797" stroke-width="5" stroke-linecap="round" stroke-linejoin="round"></path>
                <path d="M701.411079,164.44007 C719.182012,145.18479 707.855928,155.768487 737.512639,135.125724" id="Path-2544" stroke="#979797" stroke-width="5" stroke-linecap="round" stroke-linejoin="round"></path>
                <path d="M1938.15768,255.160152 C1926.88953,232.467956 1936.05619,252.42777 1929.61602,191.619001 C1928.99262,185.732747 1929.46504,185.973525 1927.74127,189.784348" id="Path-2767" stroke="#979797" stroke-width="5" stroke-linecap="round" stroke-linejoin="round"></path>
                <path d="M1914.3473,256.849437 C1908.43544,241.860779 1917.82606,227.408784 1910.10153,212.005705 C1909.57827,210.962296 1908.55208,213.885168 1908.34207,215.033384 C1907.69196,218.587734 1907.54485,222.23258 1907.57011,225.845806 C1907.61848,232.764412 1907.61293,239.725101 1908.56263,246.578387 C1909.03805,250.009201 1910.72812,253.158409 1911.81086,256.44842" id="Path-2768" stroke="#979797" stroke-width="5" stroke-linecap="round" stroke-linejoin="round"></path>
                <path d="M1899.79539,234.427571 C1884.86672,221.329014 1882.22532,177.766498 1880.61675,213.344099 C1880.05065,225.864883 1880.72703,238.411007 1880.78217,250.944461" id="Path-2769" stroke="#979797" stroke-width="5" stroke-linecap="round" stroke-linejoin="round"></path>
                <path d="M1886.57185,194.050167 C1885.96532,196.117075 1884.13952,202.315979 1884.75224,200.250893 L1888.49674,191.122742 C1890.8746,183.108423 1892.11998,174.776543 1894.6724,166.816096 C1894.934,166.00022 1896.38603,164.560243 1896.76771,165.327321 C1901.81875,175.478562 1905.32608,186.327247 1909.60527,196.82721" id="Path-2770" stroke="#979797" stroke-width="5" stroke-linecap="round" stroke-linejoin="round"></path>
                <path d="M1847.82358,231.204396 C1848.33822,228.591102 1849.19855,226.022636 1849.3675,223.364513 C1849.99073,213.558854 1842.65003,200.194146 1850.1946,193.899785 C1856.71692,188.45827 1852.6733,210.725858 1854.60077,218.99844 C1856.097,225.420151 1858.49732,231.597059 1860.44559,237.896368" id="Path-2771" stroke="#979797" stroke-width="5" stroke-linecap="round" stroke-linejoin="round"></path>
                <path d="M1863.20259,237.40011 C1863.20259,188.369028 1857.92832,166.564204 1879.45881,242.808827" id="Path-2772" stroke="#979797" stroke-width="5" stroke-linecap="round" stroke-linejoin="round"></path>
                <path d="M1826.54963,264.238176 C1825.44683,259.260552 1823.86487,254.365341 1823.24124,249.305303 C1814.65588,179.645893 1823.49235,259.18654 1841.76321,270.093025" id="Path-2773" stroke="#979797" stroke-width="5" stroke-linecap="round" stroke-linejoin="round"></path>
                <path d="M1856.25497,263.942426 C1870.94706,217.896067 1854.43712,256.181937 1872.79191,253.375626" id="Path-2774" stroke="#979797" stroke-width="5" stroke-linecap="round" stroke-linejoin="round"></path>
                <path d="M1783.94658,251.591101 C1787.60022,237.471489 1782.95938,218.386996 1791.16489,205.804979 C1793.35719,202.443371 1798.43948,205.424793 1799.70655,207.639632 C1803.67748,214.580835 1807.27575,221.728698 1811.06034,228.77323" id="Path-2775" stroke="#979797" stroke-width="5" stroke-linecap="round" stroke-linejoin="round"></path>
                <path d="M1822.9104,213.890485 C1818.55134,207.822326 1809.31667,176.454128 1823.79264,187.799313" id="Path-2776" stroke="#979797" stroke-width="5" stroke-linecap="round" stroke-linejoin="round"></path>
                <path d="M1847.49274,189.087581 C1853.4926,156.023443 1845.21987,175.5815 1866.11998,177.979408" id="Path-2777" stroke="#979797" stroke-width="5" stroke-linecap="round" stroke-linejoin="round"></path>
                <path d="M1744.37622,237.054233 C1744.50321,233.037378 1744.6302,229.020524 1744.75719,225.00367" id="Path-2778" stroke="#979797" stroke-width="5" stroke-linecap="round" stroke-linejoin="round"></path>
                <path d="M1750.05061,249.606066 C1736.48248,221.34008 1741.2219,233.710578 1734.23049,213.148604" id="Path-2779" stroke="#979797" stroke-width="5" stroke-linecap="round" stroke-linejoin="round"></path>
                <path d="M1726.68134,270.28852 C1724.75312,268.619287 1722.27466,267.426874 1720.89667,265.28082 C1712.87704,252.791164 1706.4148,239.359228 1698.68534,226.687942 C1687.75282,208.765706 1689.44099,258.568036 1681.10074,254.714021 C1658.22191,244.141752 1653.42294,204.352038 1638.38742,239.139521" id="Path-2780" stroke="#979797" stroke-width="5" stroke-linecap="round" stroke-linejoin="round"></path>
                <path d="M1621.74521,249.210062 C1605.26683,252.538357 1600.71286,253.136921 1589.22774,240.974174" id="Path-2781" stroke="#979797" stroke-width="5" stroke-linecap="round" stroke-linejoin="round"></path>
                <path d="M1582.22498,240.277407 C1577.89191,259.787149 1582.29995,268.069759 1567.8435,259.872103" id="Path-2782" stroke="#979797" stroke-width="5" stroke-linecap="round" stroke-linejoin="round"></path>
                <path d="M1547.33649,245.836506 C1545.81263,250.845877 1544.28876,255.855249 1542.7649,260.86462" id="Path-2783" stroke="#979797" stroke-width="5" stroke-linecap="round" stroke-linejoin="round"></path>
                <path d="M1516.3078,267.310969 C1501.88728,257.287171 1488.96628,216.572499 1488.8632,218.802944" id="Path-2784" stroke="#979797" stroke-width="5" stroke-linecap="round" stroke-linejoin="round"></path>
                <path d="M1483.07351,280.308934 C1462.29151,256.738983 1477.14764,276.154299 1456.56628,232.392409 C1456.32012,231.869002 1455.53701,231.864404 1455.02237,231.600401" id="Path-2785" stroke="#979797" stroke-width="5" stroke-linecap="round" stroke-linejoin="round"></path>
                <path d="M1446.31529,286.559787 C1420.94094,274.998853 1453.77084,196.518821 1422.33948,262.10276" id="Path-2786" stroke="#979797" stroke-width="5" stroke-linecap="round" stroke-linejoin="round"></path>
                <path d="M1405.7474,280.805193 C1407.12678,268.736555 1410.12102,234.208649 1417.98343,230.211879 C1425.76566,226.25587 1425.53036,245.992889 1430.10919,253.425754 C1431.76611,256.115469 1434.05749,258.441008 1436.56055,260.368361 C1439.46827,262.607305 1442.95343,263.974173 1446.14987,265.777079" id="Path-2787" stroke="#979797" stroke-width="5" stroke-linecap="round" stroke-linejoin="round"></path>
                <path d="M1455.90461,261.461133 C1456.95455,234.633619 1455.57404,247.28176 1459.53882,223.464767" id="Path-2788" stroke="#979797" stroke-width="5" stroke-linecap="round" stroke-linejoin="round"></path>
                <path d="M1501.37493,248.362913 C1499.05905,242.245732 1496.26914,236.287581 1494.42731,230.011371 C1493.47791,226.776205 1493.04054,223.362543 1493.04881,219.990957 C1493.13273,185.788969 1516.1333,233.432618 1528.76439,239.881403 C1530.43656,240.735128 1533.79557,243.310603 1534.1681,241.470433 C1536.36386,230.624126 1524.41086,210.9143 1535.16061,208.286272 L1536.58924,206.596988 C1537.4112,206.396039 1538.20667,207.094917 1539.01539,207.343882" id="Path-2789" stroke="#979797" stroke-width="5" stroke-linecap="round" stroke-linejoin="round"></path>
                <path d="M1561.44728,230.708138 C1563.56098,231.914531 1565.67467,233.120924 1567.78836,234.327317" id="Path-2790" stroke="#979797" stroke-width="5" stroke-linecap="round" stroke-linejoin="round"></path>
                <path d="M1600.52639,223.11889 C1618.55211,237.052373 1609.33884,201.279052 1623.01342,193.604035 C1625.67003,192.112987 1626.47165,195.562268 1626.97848,196.726955" id="Path-2791" stroke="#979797" stroke-width="5" stroke-linecap="round" stroke-linejoin="round"></path>
                <path d="M1643.9014,230.903634 C1654.00982,220.850155 1647.14355,228.910144 1654.59352,200.992774" id="Path-2792" stroke="#979797" stroke-width="5" stroke-linecap="round" stroke-linejoin="round"></path>
                <path d="M1668.42359,215.083511 C1669.91237,219.0352 1671.40114,222.986889 1672.88992,226.938577" id="Path-2793" stroke="#979797" stroke-width="5" stroke-linecap="round" stroke-linejoin="round"></path>
                <path d="M1657.18008,268.453867 C1663.35828,248.500715 1660.70899,259.348715 1664.51368,235.765965" id="Path-2794" stroke="#979797" stroke-width="5" stroke-linecap="round" stroke-linejoin="round"></path>
                <path d="M1734.34077,227.334582 C1734.52962,224.357658 1735.81943,178.616677 1749.77491,180.951947 C1759.65975,182.606047 1758.20785,198.722003 1760.19133,204.215949 C1761.05524,206.60884 1762.85456,212.982405 1764.10626,210.767565 L1766.96852,211.805197 C1779.11385,190.314371 1769.36783,186.920739 1794.03216,181.448206" id="Path-2795" stroke="#979797" stroke-width="5" stroke-linecap="round" stroke-linejoin="round"></path>
                <path d="M1867.27792,172.274941 C1884.56702,168.227182 1873.49281,172.446026 1894.28642,149.156308" id="Path-2796" stroke="#979797" stroke-width="5" stroke-linecap="round" stroke-linejoin="round"></path>
                <path d="M1909.00375,181.202583 C1914.11003,173.100368 1918.93014,164.81057 1924.3226,156.895937 C1937.3353,137.796892 1927.2639,166.578656 1939.48104,169.643267 C1950.69489,172.456207 1956.01769,162.921204 1966.37425,162.450023" id="Path-2797" stroke="#979797" stroke-width="5" stroke-linecap="round" stroke-linejoin="round"></path>
                <path d="M1376.86916,93.6004086 C1374.44468,81.2657925 1372.02019,68.9311764 1369.59571,56.5965603" id="Path-2798" stroke="#979797" stroke-width="5" stroke-linecap="round" stroke-linejoin="round"></path>
                <path d="M1388.71921,89.9311026 C1391.26548,68.4035873 1390.22066,82.1865452 1389.16033,48.4659397" id="Path-2799" stroke="#979797" stroke-width="5" stroke-linecap="round" stroke-linejoin="round"></path>
                <path d="M1403.76236,89.0388396 C1416.78296,51.889167 1412.21876,53.100014 1416.16382,95.8862057" id="Path-2800" stroke="#979797" stroke-width="5" stroke-linecap="round" stroke-linejoin="round"></path>
                <path d="M1427.68303,95.0390572 C1432.80937,91.6337541 1437.9357,88.228451 1443.06204,84.8231479" id="Path-2801" stroke="#979797" stroke-width="5" stroke-linecap="round" stroke-linejoin="round"></path>
                <path d="M1444.60595,87.8006995 C1435.52376,102.38029 1442.93468,95.8846476 1463.83973,92.211887" id="Path-2802" stroke="#979797" stroke-width="5" stroke-linecap="round" stroke-linejoin="round"></path>
                <path d="M1219.90106,78.1762903 C1217.93608,68.9011001 1215.97109,59.62591 1214.00611,50.3507198" id="Path-2803" stroke="#979797" stroke-width="5" stroke-linecap="round" stroke-linejoin="round"></path>
                <path d="M1228.60814,78.2264174 C1227.47564,61.8626238 1226.69951,69.102199 1229.49038,56.4010645" id="Path-2804" stroke="#979797" stroke-width="5" stroke-linecap="round" stroke-linejoin="round"></path>
                <path d="M1236.93426,74.5571114 C1239.92852,69.1500649 1242.92278,63.7430183 1245.91704,58.3359718" id="Path-2805" stroke="#979797" stroke-width="5" stroke-linecap="round" stroke-linejoin="round"></path>
                <path d="M1244.31799,74.6022259 C1248.6356,72.0407294 1252.95322,69.479233 1257.27084,66.9177366" id="Path-2806" stroke="#979797" stroke-width="5" stroke-linecap="round" stroke-linejoin="round"></path>
                <path d="M1256.88486,78.1762903 C1254.15989,95.2004447 1263.0027,72.1717496 1267.35642,71.4793056 C1292.56965,67.4692243 1252.32248,90.1552796 1274.1336,83.9810121 C1275.60773,83.5637174 1275.67752,81.3342996 1276.44948,80.0109433" id="Path-2807" stroke="#979797" stroke-width="5" stroke-linecap="round" stroke-linejoin="round"></path>
                <path d="M1400.51413,170.685911 C1403.49001,166.817767 1406.46589,162.949624 1409.44177,159.08148" id="Path-2810" stroke="#979797" stroke-width="5" stroke-linecap="round" stroke-linejoin="round"></path>
                <path d="M1411.09596,168.455254 C1418.77544,163.709885 1426.45492,158.964517 1434.13439,154.219148" id="Path-2811" stroke="#979797" stroke-width="5" stroke-linecap="round" stroke-linejoin="round"></path>
                <path d="M1686.33903,53.9698987 C1686.68825,45.3547157 1687.03747,36.7395328 1687.38669,28.1243498" id="Path-2812" stroke="#979797" stroke-width="5" stroke-linecap="round" stroke-linejoin="round"></path>
                <path d="M1692.78538,50.2003384 C1693.81465,43.8509018 1689.74548,33.1079517 1695.87321,31.1520286 L1697.25171,26.9363368 C1698.3939,26.5717572 1697.9869,29.2187922 1698.3545,30.3600199" id="Path-2813" stroke="#979797" stroke-width="5" stroke-linecap="round" stroke-linejoin="round"></path>
                <path d="M1709.21204,61.6092735 C1713.05178,53.6891867 1716.89152,45.7691 1720.73125,37.8490133" id="Path-2814" stroke="#979797" stroke-width="5" stroke-linecap="round" stroke-linejoin="round"></path>
                <path d="M1722.10975,53.2731315 C1725.32457,50.5779628 1728.53939,47.882794 1731.75421,45.1876253" id="Path-2815" stroke="#979797" stroke-width="5" stroke-linecap="round" stroke-linejoin="round"></path>
                <path d="M1740.79213,104.267462 C1740.24073,97.8528602 1739.68933,91.4382583 1739.13794,85.0236564" id="Path-2816" stroke="#979797" stroke-width="5" stroke-linecap="round" stroke-linejoin="round"></path>
                <path d="M1748.89268,102.533063 C1749.77491,96.860343 1750.65715,91.1876226 1751.53939,85.5149023" id="Path-2817" stroke="#979797" stroke-width="5" stroke-linecap="round" stroke-linejoin="round"></path>
                <path d="M1756.38668,96.7283415 C1758.64742,93.8510442 1760.90815,90.9737469 1763.16888,88.0964496" id="Path-2818" stroke="#979797" stroke-width="5" stroke-linecap="round" stroke-linejoin="round"></path>
                <path d="M1763.22402,97.8662274 C1782.92373,88.8077611 1779.00399,85.4263868 1776.45257,106.001861" id="Path-2819" stroke="#979797" stroke-width="5" stroke-linecap="round" stroke-linejoin="round"></path>
                <path d="M1850.36001,86.0111609 C1850.63698,82.2391769 1851.99359,50.6831766 1856.75122,50.2504655 C1863.3337,49.6517838 1859.94207,63.125376 1862.43063,69.2486482 C1863.17058,71.0693572 1864.61036,72.6819828 1866.2854,73.7099629 C1867.61828,74.5279522 1869.37324,74.2078924 1870.91715,74.4568572" id="Path-2820" stroke="#979797" stroke-width="5" stroke-linecap="round" stroke-linejoin="round"></path>
                <path d="M1890.31635,66.0254737 C1902.1907,62.7031726 1901.01431,56.8946244 1902.77294,44.7916209" id="Path-2821" stroke="#979797" stroke-width="5" stroke-linecap="round" stroke-linejoin="round"></path>
                <path d="M1902.77294,42.2652135 C1904.24333,46.9785879 1902.88818,47.1585699 1905.69535,45.1425109" id="Path-2822" stroke="#979797" stroke-width="5" stroke-linecap="round" stroke-linejoin="round"></path>
                <path d="M1376.26262,187.057432 C1368.24276,177.725235 1367.50137,165.68448 1376.15234,158.234331" id="Path-2808" stroke="#979797" stroke-width="5" stroke-linecap="round" stroke-linejoin="round"></path>
                <path d="M1384.85942,179.613553 C1388.7486,166.727152 1386.83308,175.085184 1387.89212,154.068767" id="Path-2809" stroke="#979797" stroke-width="5" stroke-linecap="round" stroke-linejoin="round"></path>
                <path d="M1884.58682,12.5498502 C1893.58128,11.921716 1892.20389,14.6535821 1893.5696,10.6650701" id="Path-2823" stroke="#979797" stroke-width="5" stroke-linecap="round" stroke-linejoin="round"></path>
                <path d="M1895.38922,4.56459819 C1897.20643,5.31654933 1905.13119,10.4001263 1905.97105,5.406734" id="Path-2824" stroke="#979797" stroke-width="5" stroke-linecap="round" stroke-linejoin="round"></path>
            </g>
        </g>
    </g>
</svg>