<?xml version="1.0" encoding="utf-8"?>
<svg version="1.1" xmlns="http://www.w3.org/2000/svg" xmlns:xlink="http://www.w3.org/1999/xlink" height="648.7229157284196" width="2082.153607977567">
  <defs>
    <path id="path-0" opacity="1" fill-rule="evenodd" d="M194.8081404079182,68.72098349479808 C214.30581254247295,63.06036900412096 343.8603564017008,5.9773150708258775 397.26907790791853,2.5569209947984524 C428.44584671245656,0.5603026088611798 401.80946447293974,51.719226858395274 430.8550154079182,57.04910849479806 C444.7311158198948,59.595383927350106 442.4000719623886,33.8718920613012 454.26907790791887,32.55692099479892 C472.4250432741101,30.545415629435947 481.50923307643717,43.41930605351623 498.2690779079189,45.61160849479803 C514.5831015374121,47.74559447078302 529.4883442981251,47.18661754123446 543.8159529079182,45.61160849479808 C565.7933827396449,43.19566793241198 572.1729608404145,33.33525341002827 594.2690779079188,32.55692099479892 C606.4348304418961,32.12838418337975 623.1124236753352,45.998723453267246 631.940952907918,50.24442099479804 C682.2690779079189,74.44754599479802 699.2690779079192,16.056920994798915 687.0893904079179,68.72098349479808 C685.5359084643467,75.43812382937828 699.8638741952494,62.930619643754 713.5503279079182,62.61942099479806 C719.9763754706697,62.473307373136926 725.6900284195328,67.46522004473346 732.1050154079179,67.86942099479809 C739.0414737257481,68.30647925340828 733.4110178413698,53.33689909505794 743.1831404079192,56.35379599479806 C754.7184317603422,59.915026882123264 765.3427872191133,63.6998731929891 774.1050154079179,72.2756709947981 C776.8698104187478,74.98164057986587 777.7123195134862,79.33626027078944 780.6362654079178,81.86942099479809 C793.3198219868169,76.38461179634804 791.7748917033643,70.58167382486742 799.8784529079177,68.4162959947981 C808.6126809171147,70.3282252101648 829.3930280390306,89.02976503869778 830.800327907917,89.13504599479812 C840.8804035039949,89.88914255927726 856.6500264712109,70.53941658552439 861.3784529079186,74.44754599479812 C864.1369502109904,76.7274935798651 881.5828294456174,106.49898562147024 895.9097029079184,107.22098349479818 C913.7902723999481,108.12206866045601 931.7045289231736,106.28968749923486 949.5972029079185,105.67410849479822 C1069.2690779079185,101.55692099479832 1041.7690779079185,91.55692099479873 1123.2690779079185,95.55692099479838 C1140.5566369101966,96.40539014828433 1148.1184310497183,87.68551291017629 1155.4097029079187,78.85379599479806 C1169.9446169766632,61.248054645279026 1220.9826196648307,66.78529360565706 1234.7768904079196,67.17410849479809 C1260.8284267213683,67.90841517851625 1268.0736830802825,77.83562813891272 1292.1597029079192,87.19754599479809 C1298.3084230488357,89.587472320942 1304.9538595932852,90.5712937180785 1311.0581404079196,93.0725459947981 C1318.0575312834499,95.94057302283049 1350.9348219968235,113.92704249814753 1363.198765407919,114.02567099479803 C1374.5479319564197,114.11694271690196 1377.129911150352,85.52555932290693 1378.7456404079185,82.4866084947981 C1379.9746153748565,80.17508601910356 1383.4128110097413,79.97848482599727 1385.9643904079198,79.39285849479806 C1403.230160766498,75.43010124819159 1400.7505469364737,84.15372981728075 1413.9643904079169,93.4631709947981 C1419.7178916274008,97.51663820010535 1426.1986454896464,100.54709601234781 1432.7768904079185,103.04910849479815 C1456.9101621262325,112.22811411586734 1489.2504206787557,99.9257256896813 1511.2690779079185,87.5569209947987 C1523.7272182845284,80.55866022094797 1531.5675477398834,66.27531611690452 1545.128452907918,60.29910849479811 C1547.9133382143916,59.07182664384409 1551.7352790304813,57.058673676915454 1554.1518904079182,58.908483494798126 C1576.7103899705648,76.1760236368739 1565.7612116306848,84.32378029400914 1591.089390407918,93.4631709947981 C1611.7571958323938,100.92091797153542 1629.0441390947997,81.30298135726142 1650.5268904079182,82.71317099479822 C1660.6528743722324,83.37786973138972 1704.691860359132,86.28765488894433 1715.2690779079185,87.5569209947987 C1765.2690779079185,93.5569209947987 1817.245640407918,100.93973349479936 1825.2690779079185,109.55692099479869 C1837.7555586913584,122.96742567262964 1854.387635119007,102.92570510886043 1873.2690779079185,117.5569209947987 C1880.5352911045625,123.18750416272216 1999.2155709766016,118.44743907319142 2001.7690779079185,125.55692099479862 C2004.743515574376,133.83835957531656 2072.633267966049,153.16156451964633 2075.2690779079185,161.5569209947983 C2085.0165564756007,192.60375635636794 2078.0037897549237,641.4028564369846 2059.2690779079185,641.5569209947997 C1837.00288244418,643.3847229594672 135.88891949879542,647.9176008600164 81.76907790791853,645.5569209947992 C14.27453170170794,642.6128433412571 -13.107981785794216,361.06343934634833 11.26907790791845,129.5569209947987 C13.736304004171567,106.12591944226241 81.76907790791854,109.5569209947986 81.76907790791854,109.5569209947986 L194.8081404079182,68.72098349479808Z"/>
    <path id="path-1" opacity="1" fill-rule="evenodd" d="M1474.7182966579185,248.67020224479887 C1481.5227879457389,233.45460367064507 1487.2865200819715,219.84395045654122 1491.0386091579185,247.51004599479887 "/>
    <path id="path-2" opacity="1" fill-rule="evenodd" d="M1502.206577907919,250.6037959947987 C1501.4376662646555,228.2878830755382 1504.493930994653,227.62079794904056 1517.925327907919,243.6819209947987 "/>
    <path id="path-3" opacity="1" fill-rule="evenodd" d="M1529.0932966579185,243.68192099479808 C1540.605986458062,232.11518100779938 1539.631214647247,233.89710507718863 1556.5347029079185,240.66629599479808 "/>
    <path id="path-4" opacity="1" fill-rule="evenodd" d="M1412.6987654079185,188.7561397447984 C1414.3092585786505,178.2147299000071 1419.2415799403443,169.0046512053435 1424.8979841579185,182.9944209947984 "/>
    <path id="path-5" opacity="1" fill-rule="evenodd" d="M1428.7612654079185,185.62332724479813 C1436.5676162671875,173.02428526022456 1435.915351255953,182.99070141761013 1444.9995466579185,184.34988974479813 "/>
    <path id="path-6" opacity="1" fill-rule="evenodd" d="M1225.9136091579185,218.75223349479842 C1226.542791421196,218.08342645096127 1243.5452205634685,195.50199740951405 1251.5542341579185,200.58426474479842 C1256.087284491686,203.4607954646953 1252.509179950037,212.57806674237605 1256.7925154079185,215.81473349479842 C1260.0144766821843,218.24938168814037 1264.6547280308057,213.40144176053192 1268.6909529079185,213.53348349479842 C1275.1266019728985,213.7440203924052 1266.8715708880547,218.70927087791551 1273.5893904079185,216.43192099479842 C1277.6328800476992,215.06117255011165 1281.0857818555796,211.41845813592937 1285.3550154079185,211.36942099479842 C1287.657573140277,211.34297342590824 1287.9842491225515,215.84912521348633 1290.2534529079185,216.24051474479842 L1295.9643904079185,218.24832724479842 C1315.5373167427326,221.62424196607174 1317.624567385833,220.47159859246958 1338.5698591579185,219.98660849479842 "/>
    <path id="path-7" opacity="1" fill-rule="evenodd" d="M1037.6245466579185,217.67020224479867 C1042.6922549912517,209.80952516146533 1045.1894247084847,199.48530870840617 1052.8276716579185,194.08817099479867 C1055.7855247858365,191.99817039993937 1058.0264612888466,199.2697341537061 1061.2026716579185,201.01004599479867 C1064.0033659761975,202.544604767367 1067.225258577834,203.31650571500901 1070.3940779079185,203.71317099479867 C1077.3645685311803,204.58572046049315 1084.4167630683291,204.8943949687182 1091.4409529079185,204.79520224479867 C1095.3392220016776,204.74015248976474 1099.1475703233493,202.95267937136404 1103.0347029079185,203.25223349479867 C1107.1853102872337,203.57209177804012 1111.0529320745852,205.49442099479867 1115.0620466579185,206.61551474479867 "/>
    <path id="path-8" opacity="1" fill-rule="evenodd" d="M770.6089216579185,226.52176474479847 C771.0931976389945,219.7356117112787 770.6925754647405,208.1726199750601 778.3393904079185,205.10770224479847 "/>
    <path id="path-9" opacity="1" fill-rule="evenodd" d="M811.7104841579185,215.92801474479847 C806.4996444119495,206.714482279553 803.7779308348375,201.338407933751 814.8472029079185,196.95145224479847 "/>
    <path id="path-10" opacity="1" fill-rule="evenodd" d="M841.1323591579184,191.65457724479847 C839.2870034544254,180.29990052378432 829.7375275195907,175.25497568862545 837.6518904079184,165.75613974479847 "/>
    <path id="path-11" opacity="1" fill-rule="evenodd" d="M744.5386091579189,215.69754599479847 C745.9615986387304,182.0423842272207 736.2983711513024,188.5348481792401 751.7534529079189,181.52567099479847 "/>
    <path id="path-12" opacity="1" fill-rule="evenodd" d="M684.2378279079184,211.63895224479847 C681.6626348773107,202.35926663575117 671.632268037302,183.47186842361086 683.5932966579184,179.01395224479847 "/>
    <path id="path-13" opacity="1" fill-rule="evenodd" d="M695.0190779079187,219.59988974479893 C694.5873940798904,217.38986879113716 682.8723927340859,180.28017638815783 696.4800154079187,181.72098349479893 "/>
    <path id="path-14" opacity="1" fill-rule="evenodd" d="M655.5932966579187,167.41629599479847 C650.2134223694356,158.42242731300615 646.262644226261,150.4740352864269 654.4331404079187,142.44754599479847 "/>
    <path id="path-15" opacity="1" fill-rule="evenodd" d="M645.1557966579185,137.73270224479847 C645.8003279079185,132.87462932813182 646.4448591579185,128.01655641146513 647.0893904079185,123.15848349479847 "/>
    <path id="path-16" opacity="1" fill-rule="evenodd" d="M629.0503279079185,254.54520224479847 C624.3008252258702,267.7029154165973 644.4738854505,254.82892380695333 634.3315779079185,252.88113974479847 "/>
    <path id="path-17" opacity="1" fill-rule="evenodd" d="M728.8198591579185,411.7131709947985 C729.1206404079185,407.0100459947985 729.4214216579185,402.3069209947985 729.7222029079185,397.6037959947985 "/>
    <path id="path-18" opacity="1" fill-rule="evenodd" d="M731.7417341579185,410.97879599479813 C737.7670420824329,390.7020112428395 739.6132076983313,394.57593040061954 745.3550154079185,412.99051474479813 "/>
    <path id="path-19" opacity="1" fill-rule="evenodd" d="M754.8472029079185,414.5334834947983 C765.7641825922028,380.9057720863487 758.4446582513128,403.59358552079533 765.0698591579185,417.5491084947983 "/>
    <path id="path-20" opacity="1" fill-rule="evenodd" d="M801.2768904079185,380.98270224479825 C805.4099925577272,373.77678068448324 813.4046398269547,368.05774211567564 814.4175154079185,381.33035849479825 "/>
    <path id="path-21" opacity="1" fill-rule="evenodd" d="M1150.2807966579185,417.24051474479893 C1155.198449936419,408.3537569049918 1167.7882987029125,389.2082946215314 1171.8393904079185,409.20145224479893 "/>
    <path id="path-22" opacity="1" fill-rule="evenodd" d="M1213.5464216579185,377.5803584947985 C1228.1286028404177,353.8934921832462 1220.9597718046343,352.6027427344714 1234.8042341579185,372.5178584947985 "/>
    <path id="path-23" opacity="1" fill-rule="evenodd" d="M1258.6401716579185,401.8577022447987 C1262.4370721721134,392.49522374425106 1263.5203021264801,384.93248718840215 1270.6245466579185,378.3537959947987 C1271.7674009881305,377.29548702408886 1273.644058281513,374.92997362647145 1274.7026716579185,376.0725459947987 C1289.620508306151,392.17352141168396 1272.2389416025228,386.0354909568817 1284.0659529079185,389.3694209947987 "/>
    <path id="path-24" opacity="1" fill-rule="evenodd" d="M1365.4995466579185,320.5647334947985 C1380.0756012597737,305.2867822026452 1380.878800431877,299.15246492834325 1390.2378279079185,316.3147334947985 "/>
    <path id="path-25" opacity="1" fill-rule="evenodd" d="M1479.3159529079185,338.1545772447984 C1494.3326279253836,317.4183703750749 1490.0255814017132,313.8064007128276 1495.2065779079185,332.5100459947984 "/>
    <path id="path-26" opacity="1" fill-rule="evenodd" d="M1398.9995466579185,404.86942099479796 C1415.5478490501168,387.39616267620636 1417.3322104086833,399.54814089851095 1442.2925154079185,403.59598349479796 C1446.4942352325527,404.2773814378255 1482.6850678447258,395.06533099033334 1485.8862654079185,395.47879599479796 C1488.281992235694,395.78822681997775 1496.5433360777677,406.8566918928636 1496.1518904079185,410.55301474479796 "/>
    <path id="path-27" opacity="1" fill-rule="evenodd" d="M1770.4800154079185,48.689733494798475 C1771.806544285378,62.04546742013093 1778.597890877765,52.057805090775105 1772.1987654079185,48.845983494798475 "/>
    <path id="path-28" opacity="1" fill-rule="evenodd" d="M1837.5659529079185,60.830358494798475 C1832.2212072552309,71.34776518635627 1844.35576687153,66.17061213404115 1835.9761091579185,61.599889744798475 "/>
    <path id="path-29" opacity="1" fill-rule="evenodd" d="M1487.6167341579185,50.584264744798475 C1496.7080507078513,47.01723149758245 1493.7580137556465,49.56630318021315 1497.8823591579185,44.978795994798475 "/>
    <path id="path-30" opacity="1" fill-rule="evenodd" d="M1485.3823591579185,37.556920994798475 C1485.1531924912517,33.87202516146514 1484.9240258245852,30.18712932813181 1484.6948591579185,26.502233494798475 "/>
    <path id="path-31" opacity="1" fill-rule="evenodd" d="M1159.2690779079182,92.83426474479802 C1156.4564117931898,63.17342208038843 1188.9113903670054,69.70906011872373 1211.0659529079182,64.15457724479803 C1218.7374226617162,62.23122410764535 1225.7781944048986,58.25542626018502 1233.4018904079182,56.15067099479803 C1237.1386258998637,55.119030475696086 1242.3214520179502,51.9523282954038 1244.9526716579185,54.79910849479803 C1248.0100748558957,58.10698699849892 1243.3530970481534,79.18721641773044 1253.5425154079185,81.12332724479802 C1268.5228060877305,83.96976086384836 1284.0387691505284,80.3496116832313 1299.2847029079182,80.619420994798 C1314.4225506123737,80.88731749315194 1316.1915346645906,97.53334168567773 1329.9057966579182,102.76785849479802 C1359.714052504797,114.14519811080916 1326.1040920672776,97.05803681137988 1360.1870466579185,102.11160849479802 C1363.9524233056554,102.669911054918 1365.59613344103,107.786969827586 1369.1206404079182,109.22488974479802 "/>
    <path id="path-32" opacity="1" fill-rule="evenodd" d="M160.26907790791847,81.97488974479846 C171.23522374125173,78.27697307813166 389.7152116839423,3.261840980783183 400.48782790791824,7.490514744798502 C408.1710719864931,10.50648895032938 401.1248699445352,24.012726568681988 402.2495466579183,32.189733494798524 C405.6505095038349,56.91656958521016 408.03954874982065,68.30333710214869 435.2339216579187,62.146764744798546 C443.0870287443692,60.36888877865128 447.77476974097357,54.76197282024171 450.136265407918,47.42020224479851 C451.7407695623005,42.431879990512805 447.897700462354,33.880179248912896 452.75735915791824,31.920202244798517 C459.93262389281006,29.0263048005898 467.9207313622471,35.0827665522721 475.3472029079182,37.2522334947985 C486.5913154894713,40.536933421770314 508.71829665791813,48.26785849479851 508.71829665791813,48.26785849479851 L600.245640407918,31.06863974479851 C600.245640407918,31.06863974479851 604.3382370963352,44.873510569758544 613.9448591579186,48.58035849479852 C626.0842069085294,53.26449363951723 639.0940094047546,55.29380852345563 651.784702907918,58.16629599479856 C657.946495206474,59.560992917721315 664.327556385198,62.874037748171126 670.4643904079181,61.37332724479852 C675.8582332770553,60.05430890125416 678.0296260455108,48.231320426288534 683.0932966579184,50.510045994798524 C688.2341428494312,52.823501698586334 681.9521201954581,62.102254147048576 683.8667341579186,67.40457724479859 C684.6959970071684,69.70113396374882 687.958676373258,70.55367032142507 690.3940779079184,70.72879599479855 C704.6595331482147,71.7546011523386 720.4039473120287,77.14302225622262 733.3003279079186,70.95926474479853 C739.1385280201523,68.15987358781538 723.7922862016025,54.43808923439726 729.7339216579187,51.8655147447985 C744.8644903329605,45.31436981631583 765.4597249342779,88.9550728329396 783.5932966579184,81.97488974479855 C793.2002677147447,78.27686389963661 775.5661403851973,58.627570190485095 793.8589216579185,64.50223349479856 C807.5373475470368,68.89501256068112 795.9460302326827,90.10396409438813 804.1675154079185,90.7873897447985 C810.2111496395001,91.28977764279082 815.4446674677022,86.19122332561798 821.3472029079181,84.79910849479859 C825.3013340376149,83.86652543038353 829.7672574819144,85.47406477755892 833.4995466579186,83.86942099479853 C840.6032752136413,80.8152755832785 841.8006719791059,67.79993802002846 857.1675154079184,70.38113974479856 C865.9181790479255,71.85100752767178 843.9358452753105,95.98472066030853 858.5815779079179,101.22488974479856 C875.7093336228334,107.353114138583 882.256748756012,93.3222122180903 893.2417341579185,112.62723349479857 C893.2417341579185,112.62723349479857 1089.7690779079182,89.8889522447988 1139.769077907919,95.55692099479882 C1189.769077907919,101.22488974479879 1282.2690779079178,126.4866084947989 1322.2690779079185,119.55692099479882 C1362.269077907918,112.6272334947988 1366.2690779079182,112.6272334947988 1372.7690779079182,112.6272334947988 C1379.2690779079194,112.6272334947988 1371.2690779079185,55.96317099479872 1391.7690779079185,70.38113974479879 C1412.269077907919,84.79910849479879 1423.2690779079185,101.22488974479876 1458.2690779079187,101.22488974479876 C1493.269077907919,101.22488974479876 1489.2690779079182,101.60379599479876 1514.7690779079192,76.05692099479877 C1540.2690779079182,50.51004599479877 1534.769077907919,44.02176474479876 1551.7690779079182,67.40457724479879 C1568.769077907918,90.78738974479869 1600.269077907918,106.31473349479877 1627.7690779079182,95.55692099479882 C1655.2690779079178,84.79910849479879 1645.269077907918,62.72488974479878 1682.7690779079176,81.97488974479877 C1720.269077907918,101.22488974479876 1762.2690779079178,95.8928584947987 1787.2690779079194,101.22488974479876 C1812.2690779079178,106.55692099479877 1815.269077907918,97.19754599479872 1828.769077907918,112.6272334947988 C1842.2690779079178,128.05692099479887 1981.2690779079182,114.55692099479879 1994.2690779079182,137.0569209947988 C2007.2690779079182,159.5569209947988 2054.269077907918,163.0569209947988 2029.7690779079178,170.55692099479876 C2005.2690779079182,178.0569209947988 2038.7690779079173,165.05692099479876 2015.2690779079182,165.05692099479873 "/>
    <path id="path-33" opacity="1" fill-rule="evenodd" d="M875.7417341579185,118.5686397447987 C867.6448479083062,114.07073816574307 847.2245200870417,104.08829217406172 838.7612654079182,102.95145224479825 C822.0515223035964,100.70688985255605 810.6918432295813,108.62794820090954 794.3120466579185,110.45145224479825 C781.7717971251639,111.84751327854221 769.0512799643877,112.44210322424921 756.4722029079185,111.45535849479822 C747.5384471279287,110.75456491586283 739.132502749666,106.77413297855887 730.2729841579187,105.42801474479825 C684.5871024008254,98.48648650917366 706.6499092941013,106.44384576089884 665.7651716579187,96.65067099479825 C621.613202810415,86.07489205648918 682.0403528327273,98.99819560066541 645.3198591579185,86.17801474479825 C642.2637976060912,85.11105572872253 638.8399647699581,85.65258235554847 635.6128279079185,85.90457724479823 C627.2757522485531,86.55558789208789 618.7920590772379,91.00068134453781 610.7026716579185,88.88113974479823 C404.53729292435503,34.862698792365926 866.8170292263312,129.19477691213177 591.8042341579186,73.65457724479825 C571.7810863778802,69.61080311641557 555.3514031552373,89.80425654223646 536.1440779079185,91.39676474479825 C513.3607634393061,93.28576358798045 526.9689900288971,88.22686184720698 497.8745466579184,81.73270224479825 C475.2588352355087,76.68465792834819 477.7452293368498,82.94433579088684 456.6870466579185,90.11942099479825 C423.65224190163246,101.37526117981454 454.38687080922944,87.27675649107628 436.3276716579185,95.91629599479823 "/>
    <path id="path-34" opacity="1" fill-rule="evenodd" d="M427.3081404079185,100.7873897447992 C449.59980707458516,98.59728557813239 471.78601777173003,94.50665738597456 494.18314040791853,94.21707724479876 C521.7827336475143,93.8602325627143 549.2836613409905,97.64140019642193 576.8589216579187,98.85379599479876 C595.8732315158998,99.68979424525587 614.9043682808613,100.36673153898447 633.9370466579185,100.36160849479876 C658.4528580801447,100.35500955046331 682.9524912608205,98.83705082395072 707.4682966579187,98.81863974479876 C737.466908880426,98.79611114273442 766.2185807973583,108.17020224479876 796.1557966579185,108.17020224479876 C831.9070146133957,108.17020224479876 867.6549907249607,106.34111345439007 903.4018904079194,106.89676474479876 C914.9548495798485,107.07634442104636 926.3628898320808,109.58282854391793 937.8901716579185,110.37332724479876 C946.1049352573668,110.9366655973713 954.3515713031593,110.90667385133212 962.5854841579197,110.95535849479876 C987.165783664675,111.10069439267599 1011.7531640702583,111.50837132377565 1036.327671657919,110.95535849479876 C1103.2597674150152,109.44915099534228 1036.6588783449606,105.46394548938554 1121.1089216579185,108.51785849479876 C1218.7806502317953,112.04989886389097 1316.3210416744157,137.54457356551396 1414.452671657919,130.51395224479876 C1430.2134959658179,129.38477108853152 1445.7281297061163,125.92131107748803 1461.4409529079185,124.25223349479876 C1520.7859269808414,117.94837806422082 1580.1772175581889,119.70697524561115 1639.5073591579185,124.90848349479876 C1660.5696263018724,126.75502478632282 1681.4497400553062,130.61639169324053 1702.5581404079182,131.82645224479876 C1766.1104853044158,135.46965515139698 1762.3930076612965,152.97604611294204 1766.5073591579185,130.78348349479876 "/>
    <path id="path-35" opacity="1" fill-rule="evenodd" d="M1402.5151716579185,189.11160849479904 C1408.1076657475958,141.42737212428455 1442.6737336444598,172.80571508111137 1468.6987654079185,180.1467647447986 C1476.6145256889768,182.37961463628974 1483.3404221806707,179.9035281050549 1490.9448591579185,178.2522334947986 "/>
    <path id="path-36" opacity="1" fill-rule="evenodd" d="M1565.2065779079185,187.56863974479893 C1631.7069316777142,180.12325779172926 1542.9492000812345,189.1916692405734 1631.9057966579185,184.01004599479847 C1643.4362760260428,183.33840833971692 1659.9824509615464,180.91771287332114 1656.0425154079185,175.97098349479847 C1654.5451204265787,174.0909507773532 1652.0237167294663,172.98445369603726 1649.6440779079185,172.64676474479847 C1640.6873967648037,171.37574317866384 1631.5763695745852,171.69363974479847 1622.5425154079185,171.21707724479847 "/>
  </defs>
  <g opacity="1">
    <g opacity="1">
      <use xlink:href="#path-0" fill="rgb(165,165,165)" fill-opacity="1"/>
    </g>
    <g opacity="1">
      <use xlink:href="#path-1" fill-opacity="0" stroke="rgb(151,151,151)" stroke-opacity="1" stroke-width="5" stroke-linecap="round" stroke-linejoin="round"/>
    </g>
    <g opacity="1">
      <use xlink:href="#path-2" fill-opacity="0" stroke="rgb(151,151,151)" stroke-opacity="1" stroke-width="5" stroke-linecap="round" stroke-linejoin="round"/>
    </g>
    <g opacity="1">
      <use xlink:href="#path-3" fill-opacity="0" stroke="rgb(151,151,151)" stroke-opacity="1" stroke-width="5" stroke-linecap="round" stroke-linejoin="round"/>
    </g>
    <g opacity="1">
      <use xlink:href="#path-4" fill-opacity="0" stroke="rgb(151,151,151)" stroke-opacity="1" stroke-width="5" stroke-linecap="round" stroke-linejoin="round"/>
    </g>
    <g opacity="1">
      <use xlink:href="#path-5" fill-opacity="0" stroke="rgb(151,151,151)" stroke-opacity="1" stroke-width="5" stroke-linecap="round" stroke-linejoin="round"/>
    </g>
    <g opacity="1">
      <use xlink:href="#path-6" fill-opacity="0" stroke="rgb(151,151,151)" stroke-opacity="1" stroke-width="5" stroke-linecap="round" stroke-linejoin="round"/>
    </g>
    <g opacity="1">
      <use xlink:href="#path-7" fill-opacity="0" stroke="rgb(151,151,151)" stroke-opacity="1" stroke-width="5" stroke-linecap="round" stroke-linejoin="round"/>
    </g>
    <g opacity="1">
      <use xlink:href="#path-8" fill-opacity="0" stroke="rgb(151,151,151)" stroke-opacity="1" stroke-width="5" stroke-linecap="round" stroke-linejoin="round"/>
    </g>
    <g opacity="1">
      <use xlink:href="#path-9" fill-opacity="0" stroke="rgb(151,151,151)" stroke-opacity="1" stroke-width="5" stroke-linecap="round" stroke-linejoin="round"/>
    </g>
    <g opacity="1">
      <use xlink:href="#path-10" fill-opacity="0" stroke="rgb(151,151,151)" stroke-opacity="1" stroke-width="5" stroke-linecap="round" stroke-linejoin="round"/>
    </g>
    <g opacity="1">
      <use xlink:href="#path-11" fill-opacity="0" stroke="rgb(151,151,151)" stroke-opacity="1" stroke-width="5" stroke-linecap="round" stroke-linejoin="round"/>
    </g>
    <g opacity="1">
      <use xlink:href="#path-12" fill-opacity="0" stroke="rgb(151,151,151)" stroke-opacity="1" stroke-width="5" stroke-linecap="round" stroke-linejoin="round"/>
    </g>
    <g opacity="1">
      <use xlink:href="#path-13" fill-opacity="0" stroke="rgb(151,151,151)" stroke-opacity="1" stroke-width="5" stroke-linecap="round" stroke-linejoin="round"/>
    </g>
    <g opacity="1">
      <use xlink:href="#path-14" fill-opacity="0" stroke="rgb(151,151,151)" stroke-opacity="1" stroke-width="5" stroke-linecap="round" stroke-linejoin="round"/>
    </g>
    <g opacity="1">
      <use xlink:href="#path-15" fill-opacity="0" stroke="rgb(151,151,151)" stroke-opacity="1" stroke-width="5" stroke-linecap="round" stroke-linejoin="round"/>
    </g>
    <g opacity="1">
      <use xlink:href="#path-16" fill-opacity="0" stroke="rgb(151,151,151)" stroke-opacity="1" stroke-width="5" stroke-linecap="round" stroke-linejoin="round"/>
    </g>
    <g opacity="1">
      <use xlink:href="#path-17" fill-opacity="0" stroke="rgb(151,151,151)" stroke-opacity="1" stroke-width="5" stroke-linecap="round" stroke-linejoin="round"/>
    </g>
    <g opacity="1">
      <use xlink:href="#path-18" fill-opacity="0" stroke="rgb(151,151,151)" stroke-opacity="1" stroke-width="5" stroke-linecap="round" stroke-linejoin="round"/>
    </g>
    <g opacity="1">
      <use xlink:href="#path-19" fill-opacity="0" stroke="rgb(151,151,151)" stroke-opacity="1" stroke-width="5" stroke-linecap="round" stroke-linejoin="round"/>
    </g>
    <g opacity="1">
      <use xlink:href="#path-20" fill-opacity="0" stroke="rgb(151,151,151)" stroke-opacity="1" stroke-width="5" stroke-linecap="round" stroke-linejoin="round"/>
    </g>
    <g opacity="1">
      <use xlink:href="#path-21" fill-opacity="0" stroke="rgb(151,151,151)" stroke-opacity="1" stroke-width="5" stroke-linecap="round" stroke-linejoin="round"/>
    </g>
    <g opacity="1">
      <use xlink:href="#path-22" fill-opacity="0" stroke="rgb(151,151,151)" stroke-opacity="1" stroke-width="5" stroke-linecap="round" stroke-linejoin="round"/>
    </g>
    <g opacity="1">
      <use xlink:href="#path-23" fill-opacity="0" stroke="rgb(151,151,151)" stroke-opacity="1" stroke-width="5" stroke-linecap="round" stroke-linejoin="round"/>
    </g>
    <g opacity="1">
      <use xlink:href="#path-24" fill-opacity="0" stroke="rgb(151,151,151)" stroke-opacity="1" stroke-width="5" stroke-linecap="round" stroke-linejoin="round"/>
    </g>
    <g opacity="1">
      <use xlink:href="#path-25" fill-opacity="0" stroke="rgb(151,151,151)" stroke-opacity="1" stroke-width="5" stroke-linecap="round" stroke-linejoin="round"/>
    </g>
    <g opacity="1">
      <use xlink:href="#path-26" fill-opacity="0" stroke="rgb(151,151,151)" stroke-opacity="1" stroke-width="5" stroke-linecap="round" stroke-linejoin="round"/>
    </g>
    <g opacity="1">
      <use xlink:href="#path-27" fill-opacity="0" stroke="rgb(151,151,151)" stroke-opacity="1" stroke-width="5" stroke-linecap="round" stroke-linejoin="round"/>
    </g>
    <g opacity="1">
      <use xlink:href="#path-28" fill-opacity="0" stroke="rgb(151,151,151)" stroke-opacity="1" stroke-width="5" stroke-linecap="round" stroke-linejoin="round"/>
    </g>
    <g opacity="1">
      <use xlink:href="#path-29" fill-opacity="0" stroke="rgb(151,151,151)" stroke-opacity="1" stroke-width="5" stroke-linecap="round" stroke-linejoin="round"/>
    </g>
    <g opacity="1">
      <use xlink:href="#path-30" fill-opacity="0" stroke="rgb(151,151,151)" stroke-opacity="1" stroke-width="5" stroke-linecap="round" stroke-linejoin="round"/>
    </g>
    <g opacity="1">
      <use xlink:href="#path-31" fill-opacity="0" stroke="rgb(151,151,151)" stroke-opacity="1" stroke-width="5" stroke-linecap="round" stroke-linejoin="round"/>
    </g>
    <g opacity="1">
      <use xlink:href="#path-32" fill-opacity="0" stroke="rgb(151,151,151)" stroke-opacity="1" stroke-width="5" stroke-linecap="round" stroke-linejoin="round"/>
    </g>
    <g opacity="1">
      <use xlink:href="#path-33" fill-opacity="0" stroke="rgb(151,151,151)" stroke-opacity="1" stroke-width="5" stroke-linecap="round" stroke-linejoin="round"/>
    </g>
    <g opacity="1">
      <use xlink:href="#path-34" fill-opacity="0" stroke="rgb(151,151,151)" stroke-opacity="1" stroke-width="5" stroke-linecap="round" stroke-linejoin="round"/>
    </g>
    <g opacity="1">
      <use xlink:href="#path-35" fill-opacity="0" stroke="rgb(151,151,151)" stroke-opacity="1" stroke-width="5" stroke-linecap="round" stroke-linejoin="round"/>
    </g>
    <g opacity="1">
      <use xlink:href="#path-36" fill-opacity="0" stroke="rgb(151,151,151)" stroke-opacity="1" stroke-width="5" stroke-linecap="round" stroke-linejoin="round"/>
    </g>
  </g>
</svg>