<?xml version="1.0" encoding="UTF-8"?>
<svg width="1920px" height="684px" viewBox="0 0 1920 684" version="1.1" xmlns="http://www.w3.org/2000/svg" xmlns:xlink="http://www.w3.org/1999/xlink">
    <!-- Generator: Sketch 49.3 (51167) - http://www.bohemiancoding.com/sketch -->
    <title>mid</title>
    <desc>Created with Sketch.</desc>
    <defs></defs>
    <g id="Artwork" stroke="none" stroke-width="1" fill="none" fill-rule="evenodd">
        <g id="Projects-Scene---Rocket-above-the-ocean" transform="translate(0.000000, -396.000000)">
            <g id="mid" transform="translate(-40.000000, 396.000000)">
                <path d="M286,270.5 C230.666667,293.5 262.666667,354.5 382,453.5 L924,429.5 L1459,440 L1996,429.5 L1964.5,270.5 C1918.16667,281.166667 1872.5,283.833333 1827.5,278.5 C1760,270.5 1654.5,225 1584.5,270.5 C1514.5,316 1374.5,234 1334,270.5 C1307,294.833333 1170.33333,294.833333 924,270.5 C810,266.5 728.5,259.833333 679.5,250.5 C657.587345,246.326161 641.5,278.5 615,270.5 C588.5,262.5 369,236 286,270.5 Z" id="Path-4209" fill="#F5F3F3"></path>
                <path d="M877.71875,435.949219 C858,418.285156 890.17112,447.71748 897.648437,451.683594 C902.803266,454.417815 926.868184,459.081414 934.199219,465.40625 C936.688517,467.553887 949.545185,486.692382 957.046875,488.714844 C973.726253,493.211618 990.883719,495.905513 1008.02734,498.03125 C1029.39895,500.681238 1060.07004,492.10312 1072.36719,516.855469 C1080.33807,532.89968 1080.14968,553.665773 1070.43359,568.726563 C1065.4379,576.470327 1055.87928,575.476116 1058.32031,586.742188 C1061.57578,601.767093 1097.19103,580.873348 1090.23437,604.367188 C1088.75867,609.350894 1083.79755,612.848208 1082.41797,617.859375 C1081.39882,621.561318 1085.55009,626.186464 1083.35938,629.339844 C1060.57661,662.133991 1040.60143,650.190188 1014.72656,673.367188 C1002.60298,684.226693 982.628846,711.405806 1015.67187,706.261719 C1030.33704,703.978669 1044.59702,699.372008 1059.30859,697.410156 C1069.51884,696.048576 1079.91607,697.045673 1090.19141,696.324219 C1104.16524,695.343085 1118.02577,692.848646 1132.02344,692.304688 C1149.56266,691.623102 1167.43409,695.920135 1184.67969,692.652344 C1192.96592,691.082223 1179.05701,676.262397 1179.00781,676.226563 C1166.61101,667.197503 1125.98287,654.6162 1122.1875,639.8125 C1120.65813,633.847255 1120.34599,627.614697 1118.83594,621.644531 C1118.14559,618.915158 1116.92108,616.331118 1115.61719,613.835938 C1114.07658,610.887769 1112.37839,607.99361 1110.33203,605.371094 C1103.68802,596.856429 1095.96536,589.197989 1089.58984,580.480469 C1088.78676,579.382375 1088.75683,577.721139 1089.16016,576.421875 C1090.19013,573.103916 1092.75097,570.392638 1093.75391,567.066406 C1094.45804,564.731149 1095.07018,562.033987 1094.18359,559.761719 C1092.23367,554.764157 1087.87518,551.007536 1085.59375,546.152344 C1084.59583,544.028627 1083.51711,541.316909 1084.51953,539.195313 C1090.14562,527.287868 1097.77472,516.425155 1104.87891,505.335938 C1106.25341,503.190423 1107.80674,501.023681 1109.90234,499.574219 C1124.695,489.342595 1148.62379,497.641555 1164.40625,498.378906 C1213.62894,500.678574 1210.68853,491.373006 1252.96875,485.234375 C1261.3708,484.014487 1269.98219,484.873395 1278.39453,483.726563 C1289.6811,482.187892 1300.61472,478.439839 1311.9375,477.195313 C1320.27664,476.278728 1329.01573,479.495493 1337.10547,477.273438 C1356.52498,471.939369 1377.49863,453.972465 1381.12891,433.246094 C1381.5678,430.740294 1382.36765,427.511132 1380.65625,425.628906 C1376.21989,420.74972 1376.72412,410.999498 1370,411.5 C1340.23581,413.715461 1327.7723,412.396358 1298,414.5 C1253.72812,417.628149 1245.53934,416.686313 1201,411.5 C1184.40168,409.567235 1148.66113,403.557914 1132.02344,402 C1068.04254,396.00898 1093.20931,397.00546 1022,402 C871.297892,412.570075 972.65826,396.553162 850.5,409.5 L877.71875,435.949219 Z" id="Path-3738" fill="#7F7F7F"></path>
                <path d="M23.5898437,426.597656 C58.4247087,402.394458 100.472912,412.080006 139.894531,407.964844 C213.957314,400.233543 176.906351,397.056704 221.800781,394.667969 C262.143744,392.521407 310.843384,400.587954 348.628906,414.921875 C377.426765,425.84633 403.153953,432.181706 420.140625,456.515625 C424.04222,462.104778 428.315724,467.529059 431.261719,473.675781 C432.451708,476.158655 433.443045,479.369482 432.292969,481.871094 C430.120696,486.596156 425.853678,490.087948 422.074219,493.660156 C382.258149,531.292868 332.621838,551.077263 277.460937,543.679688 C261.249584,541.505598 231.223495,527.463741 212.867187,539.699219 C193.724119,552.459115 202.203846,552.360991 189.332031,575.375 C184.187258,584.573537 168.446593,583.194815 160.554687,595.785156 C160.012561,596.650037 159.97655,597.885938 160.339844,598.839844 C163.794773,607.911509 173.328693,613.106932 175.585937,622.226562 C176.062725,624.15286 176.017231,626.252766 175.542969,628.179687 C143.299252,759.185459 197.407606,520.31812 170.519531,658.714844 C168.828722,667.41768 157.382226,664.907579 153.511719,673.015625 C149.572691,681.267209 169.684228,672.235491 159.910156,688.519531 C153.987522,698.386906 136.990866,687.72643 135.644531,680.554688 C130.270802,651.929563 140.561601,676.126061 135.601562,629.300781 C134.406699,618.02066 129.237638,607.509374 126.753906,596.441406 C123.92703,583.844323 127.701213,582.628777 120.226562,572.941406 C113.787406,564.596066 103.949084,561.564712 95.5742187,555.625 C86.5351482,549.214213 78.7551651,541.046442 69.3320312,535.214844 C65.3712543,532.763678 60.5966088,531.678461 55.9726562,531.117187 C49.2227222,530.297854 42.3594411,531.557273 35.5742187,531.117187 C33.3674801,530.97406 31.198102,530.264674 29.171875,529.378906 C25.0951185,527.596746 20.8014997,525.9802 17.3632812,523.15625 C14.2826435,520.625996 11.4778056,517.410445 10.0625,513.683594 C8.29104527,509.018913 7.76743538,503.816453 8.12890625,498.839844 C8.73745971,490.461485 11.7003828,482.4104 12.9375,474.101562 C14.580103,463.069365 15.4869792,451.940104 16.7617187,440.859375 L23.5898437,426.597656 Z" id="Path-3913" fill="#7A7A7A"></path>
                <path d="M981.507813,69.03125 C932.976563,149.0625 965.897963,78.8434505 935.039062,90.75 C930.460909,92.5164276 926.447934,95.6325682 922.757812,98.8671875 C905.563021,113.939484 899.902666,145.5625 872.507812,145.5625 C859.015625,145.5625 863.304687,192.320312 842,173 C831.251211,163.252381 817.38796,197.763329 825.601562,220.164062 C834.025704,243.138994 862.446989,234.416813 879.632813,236.09375 C895.732011,237.664657 903.062737,248.860797 915.453125,256.421875 C925.521253,262.565824 933.319611,259.447799 934.695312,271.5 C936.923281,291.018713 919.629442,304.354511 912.273437,321.054687 C908.571018,329.460209 912.01205,341.166634 905.664062,347.804687 C898.573654,355.219087 886.059647,354.017399 876.710938,358.242187 C862.973073,364.450486 841.706265,387.935163 848.28125,404.546875 C849.791712,408.363059 855.708926,408.146974 859.015625,410.578125 C880.039934,426.035614 882.925707,413.976298 910.46875,411.664062 C927.38848,410.243653 944.465323,412.647908 961.40625,411.507812 C984.382582,409.961545 1007.07323,405.312238 1030.03906,403.617187 C1058.94634,401.483614 1093.71072,402.723602 1123.32812,404.78125 C1157.5437,407.158353 1148.73183,410.58907 1187.75,416.296875 C1222.91056,421.440367 1310.26757,422.787952 1328.96875,421.632812 C1333.59962,421.346772 1405.1552,411.723034 1430.84375,403.546875 C1432.61138,402.984274 1434.2075,401.867857 1435.57031,400.609375 C1436.44742,399.799414 1438.01473,398.523644 1437.375,397.515625 C1433.6178,391.595413 1427.38477,387.532284 1423.54687,381.664062 C1412.8956,365.378026 1409.33891,345.182404 1387.98437,339.6875 C1378.24525,337.181448 1325.37978,332.140813 1314.36719,314.40625 C1301.71593,294.032792 1318.65588,269.615269 1314.10938,248.851562 C1311.59415,237.364633 1300.87915,229.181713 1296.58594,218.234375 C1292.87674,208.776216 1293.87352,197.937285 1290.39844,188.390625 C1282.08857,165.562006 1265.00836,160.72213 1249.51562,145.101562 C1239.61058,135.11479 1230.70555,124.148972 1222.10938,113.015625 C1220.27801,110.643723 1218.90956,107.775699 1218.41406,104.820312 C1217.56608,99.7625823 1219.64051,94.3463362 1218.15625,89.4375 C1215.37718,80.2464193 1172.64415,78.3826791 1164.13281,86.2734375 C1160.16361,89.9532347 1159.45253,98.3821856 1154.07813,99.0234375 C1149.56676,99.5617152 1148.77948,91.5514115 1145.40625,88.5078125 C1113.82766,60.0150971 1127.13814,70.2687505 1097.98438,63.15625 C1097.10648,62.9420736 1097.55161,61.2385918 1097.98438,60.4453125 C1099.19782,58.2210003 1100.83669,56.1972455 1102.71094,54.4921875 C1109.33589,48.4652559 1125.59713,43.8963677 1121.26563,31.765625 C1120.24152,28.8975248 1118.33811,26.2177434 1115.9375,24.34375 C1108.33443,18.4085589 1089.02829,7.23864038 1078.57812,4.9375 C1041.67852,-3.18784262 1030.03906,-11 981.507813,69.03125 Z" id="Path-3684" fill="#D8D8D8"></path>
                <path d="M33.5546875,41.0976562 C60.2167327,27.2957807 109.10122,6.86955434 123.445312,46.9335937 C128.120949,59.9929689 129.756947,73.9671851 133.753906,87.25 C134.630813,90.1641633 135.762831,93.2735275 138.007812,95.328125 C147.644236,104.147339 154.15261,78.2501496 166.738281,82.6132812 C176.101899,85.8594088 177.405657,96.2653555 183.703125,102.671875 C187.943219,106.985394 194.072641,109.005934 198.652344,112.957031 C212.975671,125.314353 187.107821,137.550122 190.535156,152.539063 C191.00157,154.578855 191.897147,156.786592 193.582031,158.027344 C205.141611,166.539838 218.847433,172.070314 229.746094,181.414063 C231.310596,182.755357 270.774696,221.364712 276.476562,236.457031 C279.275595,243.865814 278.295144,252.263128 280.46875,259.878906 C281.292115,262.763774 282.922142,265.659694 285.324219,267.457031 C289.279113,270.416253 294.032419,272.342062 298.808594,273.601563 C302.828671,274.661676 308.008962,271.707582 311.261719,274.296875 C330.490096,289.603244 317.107423,293.34201 334.070312,301.085937 C340.850169,304.18109 366.37714,302.262459 366.753906,302.285156 C379.747585,303.067908 401.313082,334.011797 404.121094,336.957031 C406.636602,339.595467 412.252903,341.966461 413.3125,346.351562 C416.230385,358.427119 404.302448,367.840957 407.898437,379.863281 C415.391042,404.913003 443.675169,396.449791 421.515625,425.824219 C413.247125,436.784844 384.063759,427.39793 372.464844,427.292969 C356.011753,427.144081 339.496036,430.021462 323.117187,428.453125 C304.291346,426.650479 286.19949,420.069008 267.5,417.242187 C256.560826,415.588502 245.370768,416.329431 234.382812,415.039062 C217.916451,413.105338 201.655487,409.658663 185.207031,407.578125 C129.877291,400.579556 104.902457,477.050503 49.1875,465.484375 C10.631459,457.480346 23.1979316,416.528968 23.9765625,390.378906 C24.369369,377.186631 24.3535918,363.924189 22.9882812,350.796875 C15.3546474,277.400313 -14.3229708,185.796159 8.47265625,112.375 C13.7181782,95.479992 22.5299479,79.90625 29.5585937,63.671875 L33.5546875,41.0976562 Z" id="Path-3737" fill="#D8D8D8"></path>
                <path d="M263.776081,433.665847 C268.967184,438.418322 273.66485,443.773626 279.34939,447.923272 C322.553792,479.461969 421.149426,468.126112 465.665729,441.311658" id="Path-3656" stroke="#979797" stroke-width="4" stroke-linecap="round" stroke-linejoin="round"></path>
                <path d="M877.988214,433.013941 C902.217916,454.605604 896.028195,431.212368 926.611547,452.84476 C933.886553,457.990559 932.72886,470.1635 938.913254,476.578967 C963.764339,502.358582 950.670358,470.72111 977.4079,485.61712 C982.88666,488.669445 982.942103,497.132842 987.359527,501.584793 C989.931729,504.1771 994.124084,503.461211 996.518403,501.544551 C999.095747,499.48138 1000.93119,493.834434 1003.99923,495.05366 L1007.75775,489.23882 C1014.9692,492.104624 1019.88105,498.928879 1025.9427,503.773909" id="Path-3659" stroke="#979797" stroke-width="4" stroke-linecap="round" stroke-linejoin="round"></path>
                <path d="M1016.38544,486.212689 C1023.97062,498.176209 1027.63835,513.96012 1048.42139,500.34939 C1070.46853,485.910801 1042.96477,484.765239 1059.6567,480.639295" id="Path-3660" stroke="#979797" stroke-width="4" stroke-linecap="round" stroke-linejoin="round"></path>
                <path d="M1056.91629,500.232691 C1060.36629,499.63444 1065.97768,495.182189 1067.2663,498.437938 L1074.393,499.118013 C1076.03618,503.269593 1071.46425,508.157077 1072.79945,512.417699 C1073.41098,514.369087 1078.14589,511.455099 1078.85976,513.371414 C1081.27457,519.853681 1077.97737,525.448033 1075.49561,530.77167" id="Path-3661" stroke="#979797" stroke-width="4" stroke-linecap="round" stroke-linejoin="round"></path>
                <path d="M1110.40879,498.357456 C1103.21665,522.056991 1096.76073,510.088568 1091.64839,523.206341 C1085.44868,539.114181 1097.29738,541.434701 1084.74301,555.620555" id="Path-3662" stroke="#979797" stroke-width="4" stroke-linecap="round" stroke-linejoin="round"></path>
                <path d="M1076.86783,534.477876 C1077.38358,543.20723 1078.48233,553.711692 1075.14551,561.793541 C1070.59099,572.82468 1048.31644,569.069383 1063.68484,591.700734 C1069.29203,599.957821 1081.59694,581.476556 1083.28628,595.720821" id="Path-3663" stroke="#979797" stroke-width="4" stroke-linecap="round" stroke-linejoin="round"></path>
                <path d="M1090.27617,564.022899 C1107.73193,582.962595 1083.64799,582.078957 1088.68262,594.485419 C1090.55277,599.093905 1100.02005,594.407235 1103.10503,598.308324 C1184.02555,700.635614 1075.73237,575.99667 1102.75091,624.630034 C1121.84994,659.008284 1107.48697,613.170576 1125.71651,634.106816 C1128.41271,637.203344 1125.44784,642.629091 1127.22153,646.332065 C1127.24279,646.376447 1144.53475,663.519952 1146.28777,664.529095" id="Path-3664" stroke="#979797" stroke-width="4" stroke-linecap="round" stroke-linejoin="round"></path>
                <path d="M1084.34463,596.159449 C1086.84173,603.478685 1089.94056,609.859923 1087.3104,618.219626 C1083.75617,629.516343 1068.91065,610.522855 1082.00259,636.336173 C1110.54156,692.606336 1084.65359,631.459154 1103.85754,654.77465 C1111.26229,663.764752 1099.99274,666.766682 1096.29221,671.579337 C1077.24912,696.345502 1114.93221,659.766111 1087.93011,686.553054 C1087.59015,686.890309 1087.93011,685.595316 1087.93011,685.116447" id="Path-3665" stroke="#979797" stroke-width="4" stroke-linecap="round" stroke-linejoin="round"></path>
                <path d="M1081.69274,640.996094 C997.864724,682.282645 1124.24222,623.804602 1035.76556,652.106664 C1005.6605,661.736722 1031.14588,660.212184 1018.15605,669.390221 C1013.42702,672.731545 1007.89188,674.753019 1002.7598,677.434419" id="Path-3666" stroke="#979797" stroke-width="4" stroke-linecap="round" stroke-linejoin="round"></path>
                <path d="M1142.57351,654.855132 C1148.73845,655.55801 1155.19906,654.950767 1161.06833,656.963766 C1178.29032,662.870439 1172.3781,687.806305 1210.3999,686.870959" id="Path-3667" stroke="#979797" stroke-width="4" stroke-linecap="round" stroke-linejoin="round"></path>
                <path d="M48.8362406,505.170275 C49.0428116,512.217835 43.2189835,523.02495 49.4559537,526.312955 C79.5716096,542.189319 77.5393833,519.430146 85.5602775,508.832216 C89.9437195,503.040417 100.85553,522.943359 105.865942,510.425764" id="Path-3680" stroke="#979797" stroke-width="4" stroke-linecap="round" stroke-linejoin="round"></path>
                <path d="M93.1698714,521.097707 C92.7862394,525.968222 88.2299483,532.625041 92.0189756,535.709254 C107.918628,548.651338 113.51986,524.082359 114.626431,538.41748" id="Path-3681" stroke="#979797" stroke-width="4" stroke-linecap="round" stroke-linejoin="round"></path>
                <path d="M97.0611867,544.948613 C101.7612,563.616845 100.416759,565.402069 116.883957,558.529987" id="Path-3682" stroke="#979797" stroke-width="4" stroke-linecap="round" stroke-linejoin="round"></path>
                <path d="M128.344626,552.554182 C134.557551,528.212633 142.662087,550.365867 155.290073,537.942635 C157.229885,536.034276 158.825282,533.734455 160.022427,531.29078 C161.552313,528.167897 160.414137,523.220467 163.386584,521.415612 C168.799543,518.12889 175.834501,519.078944 182.058459,517.910611" id="Path-3683" stroke="#979797" stroke-width="4" stroke-linecap="round" stroke-linejoin="round"></path>
                <path d="M140.553778,561.197973 C145.187033,580.515965 113.43127,571.739033 113.43127,562.827738" id="Path-3685" stroke="#979797" stroke-width="4" stroke-linecap="round" stroke-linejoin="round"></path>
                <path d="M142.634244,611.849458 C141.89649,617.277984 138.969603,622.852359 140.420983,628.135035 C142.246968,634.781188 154.873812,621.997667 156.042581,630.525357 C156.609523,634.66193 156.082437,642.835672 152.589894,645.575532 C150.429615,647.270246 144.990829,643.26129 144.360587,645.933678 L143.076896,647.330044 C141.230756,655.158156 145.749624,647.057682 146.485318,656.883284 C147.605792,671.847837 145.508906,674.427696 147.105031,684.838783 C147.254992,685.816935 146.426298,686.697922 146.086931,687.627492" id="Path-3686" stroke="#979797" stroke-width="4" stroke-linecap="round" stroke-linejoin="round"></path>
                <path d="M161.970097,680.021922 C160.517534,675.950019 150.218049,657.676428 160.55361,653.937635 C163.585568,652.840852 167.482409,654.115259 170.066608,652.187146 C178.092467,646.198925 160.627043,634.520697 163.120993,626.581728 C163.818408,624.361652 167.232786,622.502184 166.304065,620.368501 C165.128355,617.667377 161.142471,617.527478 158.561675,616.106967" id="Path-3687" stroke="#979797" stroke-width="4" stroke-linecap="round" stroke-linejoin="round"></path>
                <path d="M158.561675,606.589945 C163.569015,607.429356 172.330678,608.12913 173.563561,615.072771 C174.104308,618.118277 168.653558,628.370521 164.980132,626.344306 C164.559571,626.112329 165.304744,625.440222 165.467049,624.98818" id="Path-3688" stroke="#979797" stroke-width="4" stroke-linecap="round" stroke-linejoin="round"></path>
                <path d="M166.127004,600.099054 C177.915155,597.698557 176.467212,604.156762 169.668221,611.052684" id="Path-3689" stroke="#979797" stroke-width="4" stroke-linecap="round" stroke-linejoin="round"></path>
                <path d="M1057.47161,21.097892 C1087.38944,5.66296921 1077.97737,6.51307123 1105.3867,24.325229 C1120.34018,34.0428586 1122.4821,26.1708903 1116.49325,36.7074185" id="Path-3693" stroke="#979797" stroke-width="4" stroke-linecap="round" stroke-linejoin="round"></path>
                <path d="M1111.00436,27.5485419 C1113.40944,31.9951845 1117.42276,35.8962675 1118.21959,40.8884698 C1120.67268,56.2572346 1094.12596,59.2422202 1085.69673,54.707267" id="Path-3694" stroke="#979797" stroke-width="4" stroke-linecap="round" stroke-linejoin="round"></path>
                <path d="M1047.56023,54.2686389 C1067.18995,50.9035428 999.132623,61.8042171 1027.73746,86.2442248 C1034.5463,92.0617076 1047.5123,92.3137542 1054.6829,87.6365672" id="Path-3695" stroke="#979797" stroke-width="4" stroke-linecap="round" stroke-linejoin="round"></path>
                <path d="M1059.19393,65.0613046 C1079.78587,62.3340816 1103.27409,57.7807455 1092.24798,87.6003502" id="Path-3696" stroke="#979797" stroke-width="4" stroke-linecap="round" stroke-linejoin="round"></path>
                <path d="M1063.88605,96.7954438 C1063.12436,115.034244 1099.6362,98.7940184 1104.3686,92.9725384" id="Path-3697" stroke="#979797" stroke-width="4" stroke-linecap="round" stroke-linejoin="round"></path>
                <path d="M1115.785,74.0994578 C1120.47444,73.9264211 1125.17148,73.2620181 1129.8533,73.5803475 C1132.658,73.7710472 1136.40187,73.3267588 1138.03834,75.6125236 C1139.69313,77.923882 1144.67015,104.884828 1157.02007,107.628351 C1157.66379,107.771353 1158.2595,107.17765 1158.87921,106.9523" id="Path-3698" stroke="#979797" stroke-width="4" stroke-linecap="round" stroke-linejoin="round"></path>
                <path d="M1171.5793,114.396905 C1173.0092,106.712195 1173.40785,98.7618113 1175.86901,91.3427734 C1177.27519,87.1038892 1179.68443,76.9935128 1182.99168,79.9947804 L1186.22304,79.3951879 C1187.56471,80.6127261 1187.83814,82.7289061 1187.99365,84.5339776 C1188.75857,93.41236 1187.97305,102.394439 1188.96749,111.250051 C1189.06021,112.075745 1190.35535,112.779512 1191.13246,112.485453 C1193.41884,111.620282 1204.73962,68.5038955 1216.22279,73.4636483 C1217.74514,74.121174 1218.09719,76.3862536 1218.16644,78.0430866 C1218.53714,86.9131166 1216.52825,91.9206061 1212.01759,99.3467302 C1208.47093,105.185783 1197.28396,110.287655 1200.51266,116.308358 C1203.38719,121.668615 1210.27865,108.974021 1215.64734,106.115285 C1221.99746,102.733958 1228.58805,99.6320714 1235.51035,97.6727 C1240.16958,96.3538971 1245.23492,95.4369515 1249.98106,96.3970568 C1251.56387,96.7172464 1251.91868,99.3457547 1251.66314,100.940278 C1249.41933,114.941296 1214.22802,136.594579 1216.13426,124.589978" id="Path-3699" stroke="#979797" stroke-width="4" stroke-linecap="round" stroke-linejoin="round"></path>
                <path d="M1196.44429,118.618198 C1179.81077,153.277988 1189.02068,128.016791 1215.47028,131.443039 C1217.814,131.746642 1213.84287,137.057294 1215.69161,138.529499 C1218.46334,140.736713 1222.70966,139.511382 1226.21868,140.002324" id="Path-3700" stroke="#979797" stroke-width="4" stroke-linecap="round" stroke-linejoin="round"></path>
                <path d="M1232.28302,134.348448 C1237.48888,133.459119 1242.65616,131.057754 1247.90059,131.680462 C1264.32554,133.630709 1224.04538,150.109775 1244.40364,144.344339" id="Path-3701" stroke="#979797" stroke-width="4" stroke-linecap="round" stroke-linejoin="round"></path>
                <path d="M1243.25677,147.768858 C1243.97004,147.561672 1267.35228,135.009023 1273.47382,144.50128 C1274.33071,145.830004 1272.2639,147.422784 1271.65894,148.883537" id="Path-3702" stroke="#979797" stroke-width="4" stroke-linecap="round" stroke-linejoin="round"></path>
                <path d="M1257.98904,155.929755 C1269.85199,153.953429 1290.29954,140.751918 1287.28054,158.002172 C1287.12235,158.906081 1285.86406,159.169164 1285.15581,159.75266" id="Path-3703" stroke="#979797" stroke-width="4" stroke-linecap="round" stroke-linejoin="round"></path>
                <path d="M1259.93671,163.776771 C1267.39875,163.896153 1275.11257,162.209217 1282.32284,164.134917 C1284.11863,164.614532 1283.27484,168.231787 1282.14578,169.708311 C1280.97497,171.239433 1278.4892,170.928958 1276.66091,171.539281" id="Path-3704" stroke="#979797" stroke-width="4" stroke-linecap="round" stroke-linejoin="round"></path>
                <path d="M1239.36143,164.291857 C1246.86842,181.00299 1262.94851,188.679024 1281.26047,182.851057 C1284.39827,181.852423 1286.41874,176.830986 1289.62258,177.591544 C1295.03762,178.877021 1298.3549,184.494236 1302.72106,187.945582" id="Path-3705" stroke="#979797" stroke-width="4" stroke-linecap="round" stroke-linejoin="round"></path>
                <path d="M1277.50195,191.728246 C1282.14712,195.339215 1287.89446,197.863934 1291.43745,202.561153 C1296.77984,209.643968 1276.21526,225.34883 1294.40322,223.824555" id="Path-3706" stroke="#979797" stroke-width="4" stroke-linecap="round" stroke-linejoin="round"></path>
                <path d="M1292.80967,196.625589 C1309.74631,217.571523 1301.9564,209.84176 1303.78342,232.26714 C1303.83788,232.935517 1305.07919,232.613214 1305.72707,232.786251" id="Path-3707" stroke="#979797" stroke-width="4" stroke-linecap="round" stroke-linejoin="round"></path>
                <path d="M1261.17211,229.478431 C1252.12933,229.576937 1233.5599,227.159489 1224.98328,235.21279 C1223.06691,237.012232 1226.6369,241.253458 1224.76195,243.096023 C1220.62278,247.163709 1213.42876,246.872025 1209.14036,250.782075 C1205.48364,254.116168 1209.89993,256.952594 1219.00748,259.305142 C1226.30361,261.189787 1233.79638,262.420404 1241.3091,263.007324 C1253.05375,263.924859 1277.6958,262.327601 1288.78154,260.021434 C1308.22976,255.975617 1295.63617,240.509473 1283.56226,237.643353" id="Path-3708" stroke="#979797" stroke-width="4" stroke-linecap="round" stroke-linejoin="round"></path>
                <path d="M295.4901,257.635136 C342.397546,235.966022 330.246146,246.568711 380.616144,250.544652 C396.788572,251.821219 413.142682,248.677402 429.283742,250.303206 C446.263944,252.013531 462.546259,258.197905 479.456358,260.500303 C487.816485,261.638578 496.346337,260.068226 504.768016,260.580785 C511.628844,260.998348 518.348001,262.895843 525.2105,263.284988 C535.222643,263.852736 545.318179,262.429428 555.294754,263.445952 C576.738438,265.630874 605.974467,278.076384 628.300175,272.524347 C647.0246,267.86789 656.781775,248.441241 675.816878,245.844491 C693.740388,243.399383 699.2743,252.022882 721.039837,256.677398 C734.206656,259.493095 747.847372,259.4343 761.119982,261.699488 C772.915856,263.712647 784.217074,268.780172 796.161941,269.498215 C803.579593,269.944114 810.592466,265.316411 818.020912,265.119982 C825.819832,264.913758 833.409268,268.526106 841.207839,268.307078 C891.311695,266.899884 806.529166,260.568871 858.286166,263.051589 C872.481866,263.732539 886.605177,265.492883 900.764682,266.71353" id="Path-3743" stroke="#979797" stroke-width="4" stroke-linecap="round" stroke-linejoin="round"></path>
                <path d="M1328.60816,265.836274 C1336.76505,262.856716 1368.45811,247.258193 1382.58759,250.866581 C1400.24648,255.376314 1415.82716,268.577333 1433.73404,269.264817 C1465.73031,270.493223 1444.10991,270.252045 1476.21255,261.458041 C1482.86682,259.635213 1502.13197,266.413587 1503.02118,266.552566 C1515.70395,268.534819 1526.58417,260.576242 1538.59432,263.051589 C1544.95555,264.362667 1550.8276,267.767388 1557.2662,268.620959 C1597.19968,273.914981 1580.14896,262.840861 1630.53721,255.719659 C1650.0266,252.96529 1669.88333,253.681758 1689.56287,254.053677 C1732.48639,254.864879 1773.63263,271.801745 1816.45919,273.723532 C1862.09729,275.771484 1905.16341,271.53742 1950.60695,272.685311 C1960.22937,272.928371 1969.73776,275.31708 1979.36325,275.31708 C1983.03755,275.31708 1972.22716,273.562567 1968.65911,272.685311" id="Path-3744" stroke="#979797" stroke-width="4" stroke-linecap="round" stroke-linejoin="round"></path>
                <path d="M608.565935,358.141332 C619.257154,343.287722 643.193164,342.999344 659.977977,342.455348 C741.143121,339.824781 655.434267,346.456148 725.19272,337.91615 C727.828951,337.593416 730.677509,336.973371 733.160459,337.91615 C741.301459,341.007298 748.399369,346.42588 756.435917,349.77923 C766.159104,353.836349 809.532145,364.616291 816.692955,355.670528 C817.212898,355.02098 817.65628,353.766403 817.047077,353.199724 C815.541026,351.7988 813.275144,351.557887 811.389177,350.736968" id="Path-3745" stroke="#979797" stroke-width="4" stroke-linecap="round" stroke-linejoin="round"></path>
                <path d="M402.740706,351.686658 C430.722039,325.742182 455.733125,345.326512 486.450263,352.966325 C513.546453,359.705555 535.945022,361.609121 563.528085,360.209725" id="Path-3746" stroke="#979797" stroke-width="4" stroke-linecap="round" stroke-linejoin="round"></path>
                <path d="M603.962352,403.855233 C635.907962,418.770355 665.22394,396.478127 693.95757,385.062635 C695.822985,384.32153 697.881875,384.028535 699.88911,384.024414 C710.98413,384.001636 722.070009,384.662906 733.160459,384.982152" id="Path-3747" stroke="#979797" stroke-width="4" stroke-linecap="round" stroke-linejoin="round"></path>
                <path d="M771.655105,315.453563 C800.800202,298.996073 827.217625,326.91891 858.197636,315.292598" id="Path-3748" stroke="#979797" stroke-width="4" stroke-linecap="round" stroke-linejoin="round"></path>
                <path d="M742.802229,297.457738 C767.371377,286.957709 792.878946,299.218146 818.640625,292.677095" id="Path-3749" stroke="#979797" stroke-width="4" stroke-linecap="round" stroke-linejoin="round"></path>
                <path d="M694.134631,298.326946 C671.351255,288.188344 644.875989,294.79399 620.952148,297.377256 C616.172386,297.893369 611.33169,297.689529 606.529735,297.457738 C588.75833,296.599911 571.015614,295.225698 553.258553,294.109678" id="Path-3750" stroke="#979797" stroke-width="4" stroke-linecap="round" stroke-linejoin="round"></path>
                <path d="M361.678677,278.262729 C376.735821,269.444909 375.902751,275.756839 396.986227,276.427734 C416.298713,277.042275 435.681956,274.339115 454.949522,275.791925 C461.340704,276.273832 466.887633,280.551363 473.090214,282.166117 C477.645186,283.351939 482.410055,283.491391 487.069976,284.154027" id="Path-3751" stroke="#979797" stroke-width="4" stroke-linecap="round" stroke-linejoin="round"></path>
                <path d="M489.99148,270.536436 C493.493069,270.911454 543.90278,278.135976 560.872171,276.26677 C584.620261,273.65088 597.184255,268.928857 620.420966,275.791925" id="Path-3752" stroke="#979797" stroke-width="4" stroke-linecap="round" stroke-linejoin="round"></path>
                <path d="M678.826913,276.347252 C714.522133,275.605948 741.715493,281.457831 778.28684,281.530307" id="Path-3753" stroke="#979797" stroke-width="4" stroke-linecap="round" stroke-linejoin="round"></path>
                <path d="M1372.06051,281.763706 C1390.07843,276.870097 1400.97425,282.071809 1419.13456,281.683223 C1428.66928,281.479204 1437.97211,278.628598 1447.45626,277.626919 C1456.92232,276.627151 1463.01083,281.127896 1471.96309,281.127896" id="Path-3754" stroke="#979797" stroke-width="4" stroke-linecap="round" stroke-linejoin="round"></path>
                <path d="M1524.08338,287.976933 C1534.2295,286.066822 1544.26778,283.450062 1554.52175,282.246599 C1567.62385,280.708865 1578.60391,288.422497 1591.95403,286.302903 C1615.67075,282.537409 1632.63243,275.61019 1656.8227,278.737574 C1736.57154,289.04772 1664.29316,286.785796 1736.54839,286.785796" id="Path-3755" stroke="#979797" stroke-width="4" stroke-linecap="round" stroke-linejoin="round"></path>
                <path d="M1772.29859,279.775795 C1778.6412,278.720136 1796.95672,274.709711 1804.41905,276.749663 C1810.75409,278.481453 1815.6415,284.057783 1822.02856,285.586611 C1832.43279,288.077005 1843.36958,287.245544 1853.98,288.612742 C1862.35023,289.691283 1870.50787,292.370445 1878.92949,292.918541 C1901.15881,294.36527 1923.47868,293.707822 1945.73778,294.584523 C1949.71778,294.74128 1953.73284,295.066618 1957.60086,296.017107 C1958.73077,296.294762 1959.43048,297.455056 1960.3453,298.17403" id="Path-3756" stroke="#979797" stroke-width="4" stroke-linecap="round" stroke-linejoin="round"></path>
                <path d="M1965.73761,330.664702 C1946.76913,326.536396 1927.99574,321.271745 1908.48256,320.395171 C1870.10338,318.671096 1881.27352,323.364357 1851.41261,316.966629 C1821.04775,310.460927 1809.81123,284.51814 1778.05307,306.053239" id="Path-3757" stroke="#979797" stroke-width="4" stroke-linecap="round" stroke-linejoin="round"></path>
                <path d="M1922.47037,369.368602 C1892.8502,368.191885 1861.93258,365.921358 1834.15723,354.559873 C1814.30008,346.437323 1816.99174,343.056206 1797.52172,340.298424 C1778.07033,337.543281 1758.46638,336.000673 1738.93871,333.851798" id="Path-3758" stroke="#979797" stroke-width="4" stroke-linecap="round" stroke-linejoin="round"></path>
                <path d="M1657.9736,334.648572 C1627.2667,333.605522 1599.49589,329.101097 1569.92605,337.038894 C1464.46863,365.348135 1572.41073,342.229317 1518.24842,353.441171" id="Path-3759" stroke="#979797" stroke-width="4" stroke-linecap="round" stroke-linejoin="round"></path>
                <path d="M1617.35422,357.819403 C1671.68524,354.644535 1640.95004,355.089032 1709.5627,358.938106" id="Path-3760" stroke="#979797" stroke-width="4" stroke-linecap="round" stroke-linejoin="round"></path>
                <path d="M257.050781,578.1875 C261.565058,584.24267 267.022842,579.089187 258.726562,577.105469" id="Path-3789" stroke="#979797" stroke-width="4" stroke-linecap="round" stroke-linejoin="round"></path>
                <path d="M1344.82031,501.015625 C1345.9375,501.105469 1347.05469,501.195312 1348.17188,501.285156" id="Path-3811" stroke="#979797" stroke-width="4" stroke-linecap="round" stroke-linejoin="round"></path>
                <path d="M1350.66406,495.871094 C1351.42188,496.580729 1352.17969,497.290365 1352.9375,498" id="Path-3812" stroke="#979797" stroke-width="4" stroke-linecap="round" stroke-linejoin="round"></path>
                <path d="M1359.64062,488.066406 C1360.39844,489.199219 1361.15625,490.332031 1361.91406,491.464844" id="Path-3813" stroke="#979797" stroke-width="4" stroke-linecap="round" stroke-linejoin="round"></path>
                <path d="M1723.24609,401.941406 C1729.61349,405.219614 1730.96171,399.088131 1723.89062,400.746094" id="Path-3827" stroke="#979797" stroke-width="4" stroke-linecap="round" stroke-linejoin="round"></path>
                <path d="M36.0742188,36.4726562 C47.9713542,33.7278646 59.7087845,30.1639782 71.765625,28.2382812 C84.5304709,26.199503 97.6514756,22.3229625 110.375,24.6054687 C115.889937,25.5948077 118.205865,32.6671839 121.542969,37.1679687 C137.223095,58.3159108 106.418775,85.0882776 138.59375,91.4765625" id="Path-3878" stroke="#979797" stroke-width="4" stroke-linecap="round" stroke-linejoin="round"></path>
                <path d="M62.9609375,107.207031 C51.5544721,94.5881304 64.3856213,79.0012863 79.7539062,82.3164062 C94.1512371,85.42208 108.062636,90.6964469 122.574219,93.2148437 C129.061895,94.3407406 135.777916,93.8483571 142.328125,93.1757812 C155.636501,91.8092763 141.250611,70.6406923 165.867187,85.40625" id="Path-3879" stroke="#979797" stroke-width="4" stroke-linecap="round" stroke-linejoin="round"></path>
                <path d="M164.277344,107.207031 C174.274756,91.7377847 180.377794,80.7923554 179.652344,104.773437" id="Path-3880" stroke="#979797" stroke-width="4" stroke-linecap="round" stroke-linejoin="round"></path>
                <path d="M183.988281,107.167969 C188.183594,104.4375 193.368549,95.1321136 196.574219,98.9765625 L203.144531,96.5 C207.737539,102.008235 194.815137,108.916208 191.550781,109.410156" id="Path-3881" stroke="#979797" stroke-width="4" stroke-linecap="round" stroke-linejoin="round"></path>
                <path d="M187.941406,116.757812 C191.864583,115.429687 195.572382,112.939553 199.710938,112.773437 C214.638098,112.174282 218.839421,114.207617 190.003906,122.246094 C186.873049,123.118883 183.503906,122.167969 180.253906,122.128906" id="Path-3882" stroke="#979797" stroke-width="4" stroke-linecap="round" stroke-linejoin="round"></path>
                <path d="M183.777344,136.546875 C163.323044,146.296121 173.5997,138.634325 180.296875,143.425781 C190.990606,151.07655 173.498974,153.974276 195.15625,145.050781" id="Path-3883" stroke="#979797" stroke-width="4" stroke-linecap="round" stroke-linejoin="round"></path>
                <path d="M187.425781,158.503906 C188.679805,175.328729 189.849564,156.963574 202.628906,158.851562 C206.090541,159.362976 205.040732,165.617456 207.398438,168.203125 C208.317758,169.211333 210.132196,168.787737 211.476562,168.554688 C230.476638,165.260978 211.479638,168.456965 220.367188,168.824219" id="Path-3884" stroke="#979797" stroke-width="4" stroke-linecap="round" stroke-linejoin="round"></path>
                <path d="M210.1875,183.9375 C214.955729,181.270833 219.416813,177.959305 224.492188,175.9375 C239.418856,169.991374 244.412305,191.12348 242.488281,201.988281 C212.916008,368.98041 246.468054,149.658979 235.613281,221.742188" id="Path-3885" stroke="#979797" stroke-width="4" stroke-linecap="round" stroke-linejoin="round"></path>
                <path d="M237.074219,209.835938 C243.780892,206.745264 256.891078,200.289332 263.617188,208.636719 C270.611318,217.31673 273.939014,239.321259 264.691406,247.097656" id="Path-3886" stroke="#979797" stroke-width="4" stroke-linecap="round" stroke-linejoin="round"></path>
                <path d="M229.042969,219.191406 C221.006723,219.528432 194.745892,221.559063 190.90625,230.207031 C186.331315,240.51109 192.332922,262.481676 201.984375,268.28125 C205.057829,270.128093 208.915084,270.240881 212.164063,271.757812 C212.562509,271.943845 212.471767,272.694499 212.25,273.074219 C199.039254,295.694284 193.025597,278.592244 171.964844,307.28125 C170.601336,309.138623 176.591082,303.524252 178.449219,304.886719 C181.685283,307.259542 181.200353,312.541291 183.5625,315.785156 C184.634171,317.25685 186.550053,318.062201 188.328125,318.453125 C190.901078,319.01881 193.631251,318.999443 196.230469,318.570312 C206.01024,316.955674 215.615885,314.421875 225.308594,312.347656" id="Path-3887" stroke="#979797" stroke-width="4" stroke-linecap="round" stroke-linejoin="round"></path>
                <path d="M173.511719,370.019531 C171.102983,362.992394 167.787364,345.367786 179.78125,344.082031 C182.803209,343.758075 185.593122,347.637267 188.5,346.75 C200.247164,343.16441 196.105693,335.733399 207.183594,335.65625 C213.919992,335.609336 220.770903,336.050168 227.28125,337.78125 C237.284187,340.441002 255.223191,355.184062 264.90625,338.671875 C285.99268,302.713913 263.144531,329.096184 263.144531,304.074219 C263.144531,283.23076 275.17754,308.283715 270.574219,288.652344 C269.498626,284.06536 264.362919,280.523057 264.648437,275.820312 C264.983988,270.293515 269.716146,265.973958 272.25,261.050781" id="Path-3888" stroke="#979797" stroke-width="4" stroke-linecap="round" stroke-linejoin="round"></path>
                <path d="M276.417969,268.9375 C286.727444,254.768244 283.715161,252.29322 297.503906,255.023438" id="Path-3889" stroke="#979797" stroke-width="4" stroke-linecap="round" stroke-linejoin="round"></path>
                <path d="M292.953125,278.023438 C294.111979,277.46875 295.168753,276.605678 296.429688,276.359375 L309.230469,263.023438 C322.913037,260.350773 298.830254,282.588262 306.394531,282.195312" id="Path-3890" stroke="#979797" stroke-width="4" stroke-linecap="round" stroke-linejoin="round"></path>
                <path d="M304.160156,292.285156 C346.170572,265.350096 291.774403,312.96065 313.695312,297.851562" id="Path-3891" stroke="#979797" stroke-width="4" stroke-linecap="round" stroke-linejoin="round"></path>
                <path d="M320.097656,299.746094 C312.940198,309.550629 325.270397,291.712289 337.019531,294.605469 C340.977836,295.580187 332.784259,308.668123 336.417969,306.820313 L338.648438,306.859375 C343.041419,304.62546 347.096354,301.78125 351.320312,299.242188" id="Path-3892" stroke="#979797" stroke-width="4" stroke-linecap="round" stroke-linejoin="round"></path>
                <path d="M348.269531,302.101562 C352.245441,302.19383 375.185881,300.260821 375.757812,311.921875 C375.931388,315.460892 368.59382,319.996962 371.679688,321.738281 C378.661576,325.678081 388.297375,320.060744 395.6875,323.167969 C398.466741,324.336518 396.73638,329.169846 396.503906,332.175781 C396.115299,337.200566 394.727865,342.097656 393.839844,347.058594" id="Path-3893" stroke="#979797" stroke-width="4" stroke-linecap="round" stroke-linejoin="round"></path>
                <path d="M401.011719,335.886719 C420.809752,339.688588 393.851776,370.997794 397.234375,374.929688 C400.61225,378.85609 427.292459,396.431227 420.167969,406.429688 C417.888456,409.62874 412.050781,411.044538 412.050781,414.972656 C412.050781,428.007744 438.858506,409.335753 410.503906,430.242188 C410.02833,430.59284 409.529948,429.572917 409.042969,429.238281" id="Path-3894" stroke="#979797" stroke-width="4" stroke-linecap="round" stroke-linejoin="round"></path>
                <path d="M407.410156,427.148438 C400.935417,429.893135 387.386918,437.18746 385.765625,426.800781" id="Path-3895" stroke="#979797" stroke-width="4" stroke-linecap="round" stroke-linejoin="round"></path>
                <path d="M374.339844,423.089844 C366.590194,427.51622 344.404566,422.032065 353.597656,419.652344" id="Path-3896" stroke="#979797" stroke-width="4" stroke-linecap="round" stroke-linejoin="round"></path>
                <path d="M118.234375,417.484375 C119.967448,410.03776 117.323127,399.739943 123.433594,395.144531 C130.408476,389.89903 141.122568,396.035957 149.585938,393.90625 C154.875873,392.5751 158.103088,386.49458 163.375,385.09375 C173.272441,382.463844 183.724411,382.616336 193.953125,382.117188 C195.939271,382.020266 197.989728,382.486713 199.796875,383.316406 C203.727055,385.120823 210.092446,385.689278 210.960938,389.925781 C211.925369,394.630277 206.122396,398.222656 203.703125,402.371094" id="Path-3897" stroke="#979797" stroke-width="4" stroke-linecap="round" stroke-linejoin="round"></path>
                <path d="M122.101562,412.113281 C123.160156,416.571615 124.21875,421.029948 125.277344,425.488281" id="Path-3898" stroke="#979797" stroke-width="4" stroke-linecap="round" stroke-linejoin="round"></path>
                <path d="M61.4140625,373.265625 C89.7034186,349.800602 84.4587517,351.092223 109.472656,363.796875 C111.221909,364.685327 114.265015,366.190167 115.3125,364.53125 C118.697746,359.169985 114.516769,348.181704 120.554688,346.246094 C127.365927,344.062576 132.69222,353.896659 139.195312,356.875 C142.363129,358.325823 145.953125,358.575521 149.332031,359.425781" id="Path-3899" stroke="#979797" stroke-width="4" stroke-linecap="round" stroke-linejoin="round"></path>
                <path d="M71.9804687,392.359375 C67.5422435,399.34958 65.4337932,411.491498 74.640625,416.789062 C77.78431,418.597923 82.2367329,416.522992 85.421875,418.257812 C86.9632981,419.097364 87.7968007,421.984248 86.7109375,423.363281 C82.7835144,428.351063 76.8619792,431.376302 71.9375,435.382812" id="Path-3900" stroke="#979797" stroke-width="4" stroke-linecap="round" stroke-linejoin="round"></path>
                <path d="M103.675781,340.757812 C106.238281,341.800781 109.68477,346.085989 111.363281,343.886719 C113.555855,341.013897 110.448566,336.686079 109.429688,333.21875 C106.302896,322.578017 101.523958,312.428245 98.9492188,301.640625 C93.7748723,279.961197 101.878699,277.54568 110.503906,260.242187 C112.071939,257.096472 112.676593,253.533916 113.296875,250.074219 C113.615126,248.299137 113.660222,246.430465 113.296875,244.664062 C113.040533,243.417861 112.511339,242.062397 111.492188,241.300781 C110.612847,240.643647 109.272182,240.540717 108.226563,240.875 C106.688113,241.36684 105.565104,242.705729 104.234375,243.621094" id="Path-3901" stroke="#979797" stroke-width="4" stroke-linecap="round" stroke-linejoin="round"></path>
                <path d="M69.8320312,257.03125 C77.1807836,222.933039 85.4941754,226.740292 103.632812,244.933594 C104.055267,245.357322 102.658854,245.628906 102.171875,245.976562" id="Path-3902" stroke="#979797" stroke-width="4" stroke-linecap="round" stroke-linejoin="round"></path>
                <path d="M108.570312,187.917969 C85.6965253,207.251254 102.033345,216.985883 112.523437,231.328125 C113.296003,232.384391 110.203125,230.117188 109.042969,229.511719" id="Path-3903" stroke="#979797" stroke-width="4" stroke-linecap="round" stroke-linejoin="round"></path>
                <path d="M110.332031,189.96875 C110.778579,230.807596 130.250518,224.739914 135.414062,253.4375 C137.853437,266.994884 117.468222,283.304485 114.242187,288.417969 C104.129005,304.448049 109.107038,317.041611 118.277344,331.441406" id="Path-3904" stroke="#979797" stroke-width="4" stroke-linecap="round" stroke-linejoin="round"></path>
                <path d="M114.972656,173.847656 C116.27474,169.325521 116.125963,164.097849 118.878906,160.28125 C126.583244,149.600185 150.580662,159.439202 147.957031,140.992188 C147.417649,137.199734 141.562763,137.946121 139.710938,137.824219" id="Path-3905" stroke="#979797" stroke-width="4" stroke-linecap="round" stroke-linejoin="round"></path>
                <path d="M108.957031,157.960938 C105.130112,157.969885 85.4894761,155.835789 80.5703125,161.554688 C72.4204383,171.029531 72.7744149,175.050664 86.5820312,178.0625 C91.1834879,179.066209 96.0013021,178.036458 100.710937,178.023438" id="Path-3906" stroke="#979797" stroke-width="4" stroke-linecap="round" stroke-linejoin="round"></path>
                <path d="M141.984375,159.507812 C153.282433,172.162977 156.630879,181.243834 149.03125,198.046875" id="Path-3907" stroke="#979797" stroke-width="4" stroke-linecap="round" stroke-linejoin="round"></path>
                <path d="M117.890625,149.03125 C107.264445,147.441176 94.9377514,133.090533 99.7226563,121.433594 C103.30801,112.69899 114.053101,110.598592 104.535156,103.808594" id="Path-3908" stroke="#979797" stroke-width="4" stroke-linecap="round" stroke-linejoin="round"></path>
                <path d="M334.226562,319.84375 C334.570312,325.359375 335.387816,330.865828 335.257812,336.390625 C335.143306,341.256862 331.344051,346.520704 333.496094,350.886719 C335.88058,355.724309 345.737374,347.662144 347.410156,355.253906 C348.869339,361.876269 345.225497,369.443006 348.097656,375.585938 C349.741441,379.10164 355.50814,378.028758 358.921875,379.875 C361.44864,381.241544 363.625484,383.199313 365.75,385.132812 C367.435964,386.66719 369.135015,388.27768 370.304687,390.234375 C371.905766,392.912751 370.960802,397.97051 373.953125,398.855469 C382.231581,401.303764 391.233737,398.462691 399.851562,398.972656 C402.838834,399.14943 393.895833,399.563802 390.917969,399.859375" id="Path-3909" stroke="#979797" stroke-width="4" stroke-linecap="round" stroke-linejoin="round"></path>
                <path d="M268.472656,363.796875 C268.544271,371.063802 265.846674,378.908631 268.6875,385.597656 C278.939651,409.737431 308.126462,384.185919 324.132813,388.03125 C340.587672,391.98433 332.380786,399.028003 348.527344,407.746094 C369.480978,419.059693 366.870714,403.681503 367.898438,415.59375" id="Path-3910" stroke="#979797" stroke-width="4" stroke-linecap="round" stroke-linejoin="round"></path>
                <path d="M40.6471747,475.834506 C62.7544205,477.305276 74.7317939,480.778623 95.4233735,473.287244 C134.536323,459.126415 154.353992,427.283238 198.77864,421.879226 C234.319293,417.555903 250.253736,436.819382 282.536486,445.01384" id="Path-3655" stroke="#979797" stroke-width="4" stroke-linecap="round" stroke-linejoin="round"></path>
                <path d="M943.025896,448.064116 C937.297218,479.631695 951.821016,462.361699 970.591056,452.643555 C973.702044,451.032848 978.083941,447.345102 980.679502,449.697905 C991.314054,459.337826 985.537919,484.738015 1013.68526,476.498485 C1017.64042,475.340697 1063.2017,454.951508 1068.2844,470.088076 C1068.80532,471.639422 1065.01145,470.088076 1063.37498,470.088076" id="Path-3668" stroke="#979797" stroke-width="4" stroke-linecap="round" stroke-linejoin="round"></path>
                <path d="M1076.73503,477.810345 C1105.84583,486.046914 1154.31149,505.151369 1184.20696,494.297128 C1194.7694,490.462193 1196.54868,486.176612 1201.68368,475.263083 C1203.00287,472.459372 1202.66892,463.213717 1208.45223,462.402024 C1236.24453,458.501351 1229.87156,458.206122 1240.53245,471.919046 C1240.85195,472.330025 1241.09314,471.04179 1241.37348,470.603162" id="Path-3669" stroke="#979797" stroke-width="4" stroke-linecap="round" stroke-linejoin="round"></path>
                <path d="M1201.41809,481.713732 C1221.60839,483.426662 1241.78407,488.383236 1261.98901,486.852522 C1270.60955,486.199435 1266.31855,456.69795 1283.40532,456.546942 C1316.47824,456.254655 1301.61146,457.457613 1319.68671,466.462352 C1320.84658,467.040178 1322.41643,467.678034 1323.53376,467.021703 C1324.38615,466.520999 1321.73632,466.198102 1320.8376,465.786301" id="Path-3670" stroke="#979797" stroke-width="4" stroke-linecap="round" stroke-linejoin="round"></path>
                <path d="M1288.09341,460.848717 C1288.74058,482.185727 1278.38263,473.639958 1315.30445,475.383806 C1325.52697,475.866624 1336.29415,481.753365 1345.87965,478.168491 C1385.52458,463.341703 1343.0936,465.119578 1356.01236,452.84476 C1366.77628,442.617367 1402.48911,441.948597 1373.31201,416.647882" id="Path-3671" stroke="#979797" stroke-width="4" stroke-linecap="round" stroke-linejoin="round"></path>
                <path d="M1207.39389,436.398219 C1222.87014,438.642127 1240.86721,450.419669 1248.93881,450.494679 C1258.64851,450.584913 1268.43214,450.226683 1278.00899,448.623468 C1281.92111,447.968557 1285.04414,444.776918 1288.89019,443.806607 C1311.76284,438.03612 1317.56494,435.854252 1335.17149,447.110402" id="Path-3672" stroke="#979797" stroke-width="4" stroke-linecap="round" stroke-linejoin="round"></path>
                <path d="M992.272966,440.977657 C1008.28649,442.090228 1021.14101,454.53305 1031.64889,453.959439" id="Path-3673" stroke="#979797" stroke-width="4" stroke-linecap="round" stroke-linejoin="round"></path>
                <path d="M1039.79369,435.404263 C1072.85032,434.952793 1061.52436,450.621528 1088.15143,448.583227 C1106.76292,447.158519 1107.5592,426.70546 1130.84725,434.76443" id="Path-3674" stroke="#979797" stroke-width="4" stroke-linecap="round" stroke-linejoin="round"></path>
                <path d="M1096.38074,453.798475 C1120.38411,440.356589 1134.38999,448.797602 1163.76448,446.233146 C1168.67113,445.804784 1172.6291,441.826971 1177.34988,440.42233 C1190.37529,436.546689 1198.41252,437.7942 1210.84255,441.537008" id="Path-3675" stroke="#979797" stroke-width="4" stroke-linecap="round" stroke-linejoin="round"></path>
                <path d="M441.287665,458.816541 C441.051584,465.214877 445.892557,474.438732 440.579421,478.01155 C428.98074,485.811084 379.63251,475.848546 362.354728,477.693646" id="Path-3676" stroke="#979797" stroke-width="4" stroke-linecap="round" stroke-linejoin="round"></path>
                <path d="M401.956004,481.834456 C411.058538,497.357163 412.761141,496.413111 390.982254,504.132055 C360.942685,514.778776 353.119119,501.42293 319.614645,496.486244 C309.597803,495.010321 299.353905,496.869913 289.2648,497.721646 C286.565369,497.949535 283.809734,498.504287 281.385591,499.713581 C280.583838,500.113539 283.126689,500.137454 283.997239,500.34939" id="Path-3677" stroke="#979797" stroke-width="4" stroke-linecap="round" stroke-linejoin="round"></path>
                <path d="M347.224071,504.771888 C339.530022,526.341251 308.040944,519.239814 291.783893,524.880371 C289.877678,525.541753 292.233768,529.169083 293.598768,530.65497 C295.817519,533.07022 299.330384,533.893593 301.916605,535.910459 C302.312216,536.218977 302.566105,537.01405 302.226461,537.383284 C286.667293,554.297986 251.905995,520.343292 236.609308,522.807954 C229.664103,523.926993 203.390895,537.347553 199.712234,540.328933 C184.473343,552.67933 202.18587,546.794199 192.80686,559.604425 C189.667052,563.892898 183.087338,564.9616 180.28785,569.479593 C180.174863,569.661939 181.90406,579.852558 178.650037,582.340652 C177.380288,583.311528 174.882606,583.044764 174.4046,584.570009 L158.296084,587.716864 C156.147484,594.572729 163.923241,600.956866 167.277899,607.310261 C169.154073,610.863549 169.497506,609.618865 170.597791,608.183493" id="Path-3678" stroke="#979797" stroke-width="4" stroke-linecap="round" stroke-linejoin="round"></path>
                <path d="M121.39901,586.879849 C127.518341,588.07501 135.990558,585.496578 139.757004,590.465332 C142.911199,594.626395 135.697027,600.336222 135.555832,605.555748 C135.474939,608.546148 145.891856,610.039894 145.954135,610.054704" id="Path-3679" stroke="#979797" stroke-width="4" stroke-linecap="round" stroke-linejoin="round"></path>
                <path d="M421.601714,484.94107 C419.742575,487.741851 417.26389,490.218644 416.024296,493.343413 C414.602128,496.928418 416.32804,501.807881 413.76677,504.691406 C396.452758,524.183841 376.840502,523.667262 354.258217,529.182146 C348.70056,530.539397 343.803946,534.010483 338.242255,535.351108 C321.044667,539.496521 317.181006,529.000926 295.192315,536.747474" id="Path-3690" stroke="#979797" stroke-width="4" stroke-linecap="round" stroke-linejoin="round"></path>
                <path d="M103.980469,597.085938 C107.237346,606.904583 112.951565,596.711666 105.355469,596.042969" id="Path-3790" stroke="#979797" stroke-width="4" stroke-linecap="round" stroke-linejoin="round"></path>
                <path d="M205.898438,553.988281 C206.829427,554.567708 207.760417,555.147135 208.691406,555.726562" id="Path-3791" stroke="#979797" stroke-width="4" stroke-linecap="round" stroke-linejoin="round"></path>
                <path d="M205.898438,553.675781 C212.724163,550.308194 209.829227,550.169424 214.1875,551.050781" id="Path-3792" stroke="#979797" stroke-width="4" stroke-linecap="round" stroke-linejoin="round"></path>
                <path d="M219.554688,542.855469 C220.901042,544.066406 222.247396,545.277344 223.59375,546.488281" id="Path-3793" stroke="#979797" stroke-width="4" stroke-linecap="round" stroke-linejoin="round"></path>
                <path d="M232.140625,540.265625 C232.3125,542.352865 232.484375,544.440104 232.65625,546.527344" id="Path-3794" stroke="#979797" stroke-width="4" stroke-linecap="round" stroke-linejoin="round"></path>
                <path d="M205.984375,583.171875 C207.606172,592.214622 218.548983,581.715674 207.1875,581.625" id="Path-3795" stroke="#979797" stroke-width="4" stroke-linecap="round" stroke-linejoin="round"></path>
                <path d="M1108.51563,401.714844 C1104.18595,370.563655 1133.34578,357.665813 1157.64844,345.820312 C1164.72676,342.370225 1172.59523,337.724946 1180.32813,339.210937 C1189.26081,340.927486 1195.19879,349.707714 1202.91797,354.519531 C1207.41069,357.320108 1211.89209,360.355697 1216.91797,362.019531 C1226.80591,365.292971 1241.679,340.740587 1250.80469,352.238281 C1275.98772,383.967036 1258.26946,376.457218 1272.88281,403.878906" id="Path-3848" stroke="#979797" stroke-width="4" stroke-linecap="round" stroke-linejoin="round"></path>
                <path d="M1265.92578,370.40625 C1309.80425,365.119785 1276.65912,367.653225 1313.94141,387.183594 C1327.47019,394.270663 1350.8328,387.733772 1350.57812,410.527344" id="Path-3849" stroke="#979797" stroke-width="4" stroke-linecap="round" stroke-linejoin="round"></path>
                <path d="M1070.07422,350.191406 C1060.45576,341.888738 1053.14137,334.043616 1039.92578,330.59375 C1025.85123,326.919657 1011.20482,325.904596 996.761719,324.175781 C993.733412,323.813298 990.606265,323.745447 987.613281,324.332031 C977.034019,326.405423 980.983426,333.725394 974.6875,339.558594 C970.287849,343.634887 962.643332,343.787037 959.179688,348.683594 C956.573828,352.367498 958.034331,357.742706 958.664063,362.210938 C962.013363,385.975744 983.988637,385.556788 1002.34375,391.355469 C1017.27041,396.071044 1001.62006,396.261398 1017.50781,394.488281" id="Path-3850" stroke="#979797" stroke-width="4" stroke-linecap="round" stroke-linejoin="round"></path>
                <path d="M1035.33203,376.4375 C1037.12038,375.42544 1072.66538,354.261716 1078.19531,358.925781 C1113.45153,388.661645 1089.04841,370.503701 1091.98047,392.941406 C1092.68414,398.326295 1108.30261,397.339916 1087.51172,407.28125" id="Path-3851" stroke="#979797" stroke-width="4" stroke-linecap="round" stroke-linejoin="round"></path>
                <path d="M878.910156,401.714844 C866.967121,383.440731 876.158319,359.120418 889.132812,343.851562 C894.608968,337.407024 912.822911,336.715279 915.160156,329.238281 C917.190107,322.744338 915.524117,315.433782 917.691406,308.984375 C931.057037,269.211003 930.669214,295.829134 935.257812,263.371094 C935.379604,262.509587 934.875632,261.342918 934.054688,261.054688 C923.886215,257.484577 913.065481,255.907993 903.003906,252.046875 C880.595058,243.447505 901.083785,246.785038 887.199219,227.886719 C885.578074,225.680174 881.703474,227.052229 878.996094,227.460938 C850.152475,231.815196 840.986858,245.78629 831.964844,221.433594 C812.798438,169.69862 877.482846,167.147532 884.191406,128.277344" id="Path-3852" stroke="#979797" stroke-width="4" stroke-linecap="round" stroke-linejoin="round"></path>
                <path d="M886.941406,114.011719 C913.75024,123.309929 920.14671,126.472033 902.058594,100.097656" id="Path-3853" stroke="#979797" stroke-width="4" stroke-linecap="round" stroke-linejoin="round"></path>
                <path d="M912.496094,102.339844 C919.741114,109.76263 926.22967,117.020906 930.878906,104.890625" id="Path-3854" stroke="#979797" stroke-width="4" stroke-linecap="round" stroke-linejoin="round"></path>
                <path d="M924.820312,96.9648438 C925.111416,97.461473 930.333251,108.754082 934.054688,105.507812 C938.960985,101.227968 930.503575,84.5400618 930.964844,82.8945312 C931.924175,79.4722141 932.782011,92.7100147 936.289062,92.1328125 L939.769531,92.8671875 C940.661542,92.7203773 941.469512,91.9941858 941.914062,91.2070312 C943.247194,88.8464859 944.478189,86.3349111 944.964844,83.6679688 C946.525256,75.1166702 946.998698,66.4023438 948.015625,57.7695312" id="Path-3855" stroke="#979797" stroke-width="4" stroke-linecap="round" stroke-linejoin="round"></path>
                <path d="M953.597656,84.90625 C966.238183,74.7026022 974.097948,78.2264289 987.914062,72.421875" id="Path-3856" stroke="#979797" stroke-width="4" stroke-linecap="round" stroke-linejoin="round"></path>
                <path d="M889.046875,346.324219 C877.879182,346.005669 879.828418,344.223955 870.320313,352.316406 C858.569291,362.317828 835.984027,378.335896 842.445313,397.65625 C846.277158,409.114128 846.214517,396.430652 853.484375,408.054688 C898.700586,480.352499 824.103746,373.559474 856.917969,419.882813" id="Path-3857" stroke="#979797" stroke-width="4" stroke-linecap="round" stroke-linejoin="round"></path>
                <path d="M948.359375,321.042969 C955.905164,269.994464 948.002159,282.421754 986.796875,261.828125 C995.295384,257.316811 997.055338,239.931516 1004.19141,232.292969 C1019.29335,216.127631 1039.62633,232.147771 1055.85938,236.238281 C1105.08758,248.643129 1063.31173,232.513102 1088.11328,242.613281" id="Path-3858" stroke="#979797" stroke-width="4" stroke-linecap="round" stroke-linejoin="round"></path>
                <path d="M1060.37109,240.023438 C1064.07429,235.884233 1064.32,236.37318 1065.56641,228.738281 C1070.44407,198.859953 1046.53173,212.001519 1039.41016,188.035156 C1032.03706,163.222314 1047.77569,169.364932 1052.85156,149.804688" id="Path-3859" stroke="#979797" stroke-width="4" stroke-linecap="round" stroke-linejoin="round"></path>
                <path d="M1062.98828,139.988281 C1047.68746,105.21053 1005.97759,124.096683 975.503906,122.285156 C968.157728,121.848458 964.624272,112.409638 957.207031,120.273437" id="Path-3860" stroke="#979797" stroke-width="4" stroke-linecap="round" stroke-linejoin="round"></path>
                <path d="M901.972656,193.097656 C900.331778,171.595754 907.801397,157.606294 927.570313,149.109375 C931.208619,147.545587 936.561026,148.863068 938.953125,145.707031 C942.963426,140.416006 939.931303,131.312571 944.621094,126.613281 C951.765257,119.454647 978.651469,140.778433 978.894531,142.695313" id="Path-3861" stroke="#979797" stroke-width="4" stroke-linecap="round" stroke-linejoin="round"></path>
                <path d="M917.648438,209.796875 C937.63001,172.671385 944.708816,167.190023 987.3125,162.214844 C993.787919,161.458656 1000.53782,159.831998 1006.85547,161.441406 C1009.24656,162.050532 1008.90377,171.725894 1008.14453,173.113281 C1005.29226,178.325355 973.581864,190.300694 981.128906,199.824219 C992.245337,213.851913 1034.69382,186.530425 1037.77734,217.257812" id="Path-3862" stroke="#979797" stroke-width="4" stroke-linecap="round" stroke-linejoin="round"></path>
                <path d="M1084.03516,174.390625 C1108.77545,149.630471 1097.14236,155.102119 1106.23828,121.742187 C1107.83497,115.886219 1108.78512,108.25218 1114.09766,105.316406 L1117.0625,102.453125 C1117.79095,102.050573 1118.78547,101.982991 1119.55469,102.300781 C1120.8125,102.820425 1121.60803,104.10968 1122.77344,104.8125 L1137.16406,120.660156 C1163.52258,136.556195 1151.71233,110.997896 1166.75391,139.5625 C1167.21132,140.431148 1165.98047,141.367187 1165.59375,142.269531" id="Path-3863" stroke="#979797" stroke-width="4" stroke-linecap="round" stroke-linejoin="round"></path>
                <path d="M1140.98438,171.183594 C1147.47005,170.796875 1154.32424,167.833965 1160.44141,170.023437 C1160.76803,170.140342 1191.88061,194.903807 1194.88672,199.671875" id="Path-3864" stroke="#979797" stroke-width="4" stroke-linecap="round" stroke-linejoin="round"></path>
                <path d="M1156.48828,174.082031 C1180.82906,153.903446 1184.53571,156.566614 1216.96094,157.5" id="Path-3865" stroke="#979797" stroke-width="4" stroke-linecap="round" stroke-linejoin="round"></path>
                <path d="M1130.375,202.414062 C1128.15634,208.294854 1105.19814,245.541116 1129.47656,246.363281 C1141.6527,246.775614 1153.85534,245.332629 1166.02344,245.9375 C1176.48218,246.4574 1165.87072,275.506383 1167.82813,276.554688 C1178.05374,282.031089 1197.73133,278.329718 1206.05469,279.453125 C1211.7582,280.222931 1216.60633,284.628617 1222.33203,285.210938 C1230.56679,286.048436 1238.86002,282.99939 1247.11328,283.628906 C1248.50884,283.735353 1248.99116,285.880731 1249.21875,287.261719 C1249.91294,291.473934 1248.54574,295.980364 1249.82031,300.054688 C1250.37897,301.840493 1252.79688,302.322917 1254.28516,303.457031" id="Path-3866" stroke="#979797" stroke-width="4" stroke-linecap="round" stroke-linejoin="round"></path>
                <path d="M1248.27344,327.191406 C1256.1901,318.738281 1263.69489,309.879659 1272.02344,301.832031 C1274.0555,299.868513 1276.45936,298.019059 1279.19531,297.3125 C1281.29934,296.769136 1283.7972,297.159542 1285.63672,298.316406 C1306.71563,311.572818 1285.22632,304.3901 1301.14453,308.90625" id="Path-3867" stroke="#979797" stroke-width="4" stroke-linecap="round" stroke-linejoin="round"></path>
                <path d="M1278.07812,311.457031 C1297.89879,323.264774 1312.70986,331.660227 1336.14453,322.011719" id="Path-3868" stroke="#979797" stroke-width="4" stroke-linecap="round" stroke-linejoin="round"></path>
                <path d="M1112.72266,302.605469 C1152.96306,292.160858 1133.56744,315.526928 1148.5,342.496094" id="Path-3869" stroke="#979797" stroke-width="4" stroke-linecap="round" stroke-linejoin="round"></path>
                <path d="M1083.90625,287.027344 C1071.68919,294.847314 1067.3362,305.864791 1077.46484,319.691406 C1080.08971,323.274612 1090.78466,320.870047 1092.10937,321.625 C1096.33888,324.035384 1097.52003,330.015888 1101.51562,332.796875 C1116.48226,343.213843 1121.55185,321.940172 1118.69531,312.8125" id="Path-3870" stroke="#979797" stroke-width="4" stroke-linecap="round" stroke-linejoin="round"></path>
                <path d="M1083.99219,291.628906 C1097.15411,274.323419 1113.06614,277.323874 1123.07422,296.074219" id="Path-3871" stroke="#979797" stroke-width="4" stroke-linecap="round" stroke-linejoin="round"></path>
                <path d="M1070.07422,282.234375 C1059.12747,265.911504 1024.2872,260.464195 1016.90625,280.960938" id="Path-3872" stroke="#979797" stroke-width="4" stroke-linecap="round" stroke-linejoin="round"></path>
                <path d="M1017.03516,39.6796875 C1023.30883,27.7144991 1035.65867,19.339296 1047.69922,29.515625" id="Path-3873" stroke="#979797" stroke-width="4" stroke-linecap="round" stroke-linejoin="round"></path>
                <path d="M941.015625,105.933594 C945.394133,102.746758 955.168939,93.7984124 962.617188,97.390625 C971.769547,101.804713 964.013744,106.914215 975.117188,107.867188 C986.39374,108.835018 993.144527,102.668826 1004.23438,102.839844" id="Path-3874" stroke="#979797" stroke-width="4" stroke-linecap="round" stroke-linejoin="round"></path>
                <path d="M881.230469,152.9375 C893.289893,148.766897 897.762919,153.073573 900.855469,165.5" id="Path-3875" stroke="#979797" stroke-width="4" stroke-linecap="round" stroke-linejoin="round"></path>
                <path d="M894.929688,168.980469 C881.212272,194.598187 887.707303,222.750214 911.507813,240.21875" id="Path-3876" stroke="#979797" stroke-width="4" stroke-linecap="round" stroke-linejoin="round"></path>
                <path d="M864.390625,182.042969 C864.134213,196.572966 871.219916,197.254562 883.933594,195.726562" id="Path-3877" stroke="#979797" stroke-width="4" stroke-linecap="round" stroke-linejoin="round"></path>
                <path d="M1428.03125,406.679688 C1455.96507,395.08344 1442.2551,383.532278 1416.77344,373.664062 C1413.0888,372.237122 1406.07503,377.208968 1404.92187,373.429688 L1401.05469,371.734375 C1398.99327,364.978379 1404.22045,343.909018 1401.74219,340.882812 C1400.32273,339.149517 1397.94059,338.41902 1395.8125,337.71875 C1389.36752,335.597965 1382.59977,334.562342 1376.14844,332.460938 C1288.51395,303.915575 1363.43387,332.181988 1322.03125,306.945312 C1315.29533,302.839479 1306.62132,301.964411 1300.64062,296.820312 C1291.55776,289.007987 1321.81853,268.393445 1325.125,264.890625 C1328.28879,261.538961 1318.34842,256.905841 1317.30469,252.367188" id="Path-3911" stroke="#979797" stroke-width="4" stroke-linecap="round" stroke-linejoin="round"></path>
                <path d="M1367.29688,358.515625 C1375.96778,362.625131 1404.83593,372.270028 1392.38281,389.359375" id="Path-3912" stroke="#979797" stroke-width="4" stroke-linecap="round" stroke-linejoin="round"></path>
            </g>
        </g>
    </g>
</svg>