<?xml version="1.0" encoding="UTF-8"?>
<svg width="1631px" height="867px" viewBox="0 0 1631 867" version="1.1" xmlns="http://www.w3.org/2000/svg" xmlns:xlink="http://www.w3.org/1999/xlink">
    <!-- Generator: Sketch 48.2 (47327) - http://www.bohemiancoding.com/sketch -->
    <title>Z (-10)</title>
    <desc>Created with Sketch.</desc>
    <defs></defs>
    <g id="Contact-Scene---rocket-in-the-gully" stroke="none" stroke-width="1" fill="none" fill-rule="evenodd">
        <g id="Z-(-10)" transform="translate(-52.000000, -23.000000)">
            <path d="M1462.38285,86.933694 C1467.0616,110.843924 1467.47331,133.768029 1449.03901,153.011278 C1442.26543,160.0821 1431.11261,163.107909 1426.34144,171.658571 C1411.42382,198.393213 1457.7244,223.905905 1434.60239,251.120099 C1416.6348,272.267646 1333.79586,263.189805 1320.84388,264.31356 C1295.49206,266.513166 1320.04373,295.341622 1295.04846,297.156857 C1086.47716,312.303959 1502.74608,277.797542 1213.37131,287.031176 C1204.54143,287.312928 1198.0011,295.783055 1190.00204,299.532883 C1185.55165,301.619153 1180.94664,303.583629 1176.11683,304.495469 C1146.1551,310.152067 1117.13695,286.430164 1083.19115,292.294525 C1048.93345,298.212769 1052.69285,307.390566 1026.31691,309.257546 C961.119769,313.872425 1016.2114,311.048533 985.754035,305.979232 C981.800422,305.321195 977.610909,304.673531 973.733549,305.688494 C965.258946,307.906862 968.980943,324.317484 958.635258,328.105347 C787.322409,390.828075 1294.49417,193.235557 901.089311,332.17567 C891.264684,335.645467 887.625816,348.60504 878.71256,354.001023 C864.796453,362.425675 845.011785,361.221087 833.738498,372.949079 C826.873925,380.090532 834.459817,393.023003 831.984048,402.614315 C831.114727,405.982131 818.849459,413.306346 815.883213,414.313988 C796.500745,420.898266 766.080082,424.409717 747.981002,411.937962 C746.275459,410.762702 744.67172,409.001465 744.241518,406.975376 C742.264775,397.665667 741.126685,367.030414 742.035924,358.562592 C744.957063,331.357753 755.79021,330.489691 746.657645,298.04912 C744.910492,291.842905 723.973194,277.639812 720.872249,263.220789 C716.060211,240.84539 737.02003,239.068665 750.076316,229.986501 C756.090095,225.803219 737.106697,220.001116 743.35928,204.692351 C745.226694,200.120191 750.530605,197.762256 753.164147,193.584178 C754.351306,191.700766 756.075845,188.597626 754.487503,187.037575 C745.095302,177.812665 723.48659,177.774126 728.471522,158.856102 C739.113159,118.470649 755.337717,155.815011 779.290408,137.923012 C787.012724,132.154655 780.536059,118.64208 782.267959,109.160064 C782.694937,106.822392 784.156736,104.722561 785.68663,102.904198 C798.313289,87.8967144 820.789544,90.0344826 837.598287,82.4723793 C849.134535,77.282324 877.310251,55.3185191 888.748011,54.6919232 C917.834926,53.0984521 922.998033,62.6725524 953.672672,70.3716898 C962.287491,72.5339543 971.603178,71.0522114 980.129771,73.5397245 C1053.33758,94.8970703 915.294263,77.7296308 1055.63126,95.4653317 C1074.622,97.8653703 1134.07983,91.8825843 1144.80742,90.3122626 C1153.43792,89.0489167 1153.28001,65.3145371 1169.94117,62.5318065 C1190.93065,59.0261626 1207.45422,76.0328534 1227.37683,79.3945735 C1249.8658,83.1893378 1266.59344,56.5530385 1287.89031,62.1307895 C1309.4607,67.7801772 1327.68365,81.9958921 1349.72713,85.2494224 C1366.58074,87.7369467 1385.05441,88.0234859 1401.64882,86.933694 C1426.12826,85.3260734 1452.29412,73.817564 1462.60341,104.498241 C1470.70828,128.618545 1436.91317,148.717939 1428.64729,164.710951 C1425.32798,171.133222 1427.54449,179.127514 1426.99309,186.335795" id="Path-3163" fill="#F7F7F1"></path>
            <path d="M620.668114,330.88239 C663.442018,349.946544 686.392489,340.796934 682.835782,293.186788 C680.404199,260.637569 650.745885,256.359004 628.718531,243.681233 C627.648021,243.065105 629.833782,241.283991 630.924125,240.703682 C638.405691,236.721796 646.649723,234.276834 654.072834,230.187009 C657.701708,228.187651 661.391777,225.8622 663.877701,222.547635 C667.562254,217.634897 670.415179,211.977056 672.148678,206.085885 C673.457638,201.637475 674.856006,196.352019 672.810356,192.190644 C663.283761,172.811116 641.681689,173.953107 631.144684,157.863585 C622.357522,144.445991 625.752948,119.956941 613.389654,110.94459 C584.511772,89.8937575 620.091391,118.757377 583.30335,99.635909 C580.155858,97.9999246 582.349134,93.5057343 591.343742,85.4499309 C596.074833,81.2126436 601.107897,77.2723613 606.452059,73.8404873 C614.736946,68.5201609 624.106994,64.9509471 632.137201,59.2534922 C652.95731,44.481565 621.611603,22.6287399 609.981009,19.4726009 C598.935958,16.4753575 587.790773,13.0002058 576.35573,12.5350059 C530.757707,10.6799893 485.074254,13.4900812 439.448509,12.5350059 C424.847031,12.2293559 410.386247,9.44382357 395.797803,8.75542022 C383.026219,8.15275134 370.196858,9.5326485 357.440523,8.66519138 C311.907351,5.56884178 259.932015,-8.94793543 214.808784,8.95592874 C206.146777,12.3928144 199.30223,19.4768898 190.777837,23.2421611 C169.517676,32.6328916 154.894196,26.4372882 147.237411,46.7517856 C141.504317,61.9624654 159.35916,83.2885817 166.636611,89.710737 C171.430799,93.9414796 183.006604,85.999282 185.704971,91.7960257 C330.494888,402.839691 72.0719429,-77.0527904 199.149068,160.841136 C205.770956,173.237599 246.84318,157.023561 248.754877,166.395222 C250.692248,175.892745 248.196055,193.909332 260.334244,199.338773 C266.578285,202.131747 274.43253,199.500636 278.961486,206.577131 C283.059966,212.981005 275.458481,222.610599 275.211977,227.710729 C274.787169,236.499933 278.366028,245.22809 277.63813,253.997397 C277.457597,256.172353 273.07145,256.122002 272.675544,258.268228 L268.815755,265.306078 C266.565187,277.506525 267.547803,300.88888 279.292325,308.465537 C306.337127,325.912752 342.120887,307.145316 370.884619,311.24258 C382.938516,312.959604 394.460034,317.527719 406.494933,319.373201 C410.965107,320.058676 416.087058,316.601587 420.049309,318.781701 C453.608658,337.246763 422.500533,336.390493 454.887666,343.283843 C470.398437,346.58519 506.551971,334.616587 512.423587,334.160705 C555.031676,330.852542 603.363148,332.239859 646.132696,337.228485" id="Path-3165" fill="#F7F7F1"></path>
            <path d="M68.7483489,502.116671 C75.1823285,538.445909 62.8563753,472.075546 86.9344721,561.537372 C93.3407553,585.339826 142.466716,864.537963 146.575733,872.455916 C153.716825,886.216585 217.323924,889.280465 219.320225,889.318682 C282.483022,890.527895 1682.75871,825.681392 1682.51113,823.541861 C1681.54042,815.153116 1679.30865,806.937417 1678.43078,798.538448 C1676.88022,783.703385 1675.85733,768.808041 1675.23267,753.90525 C1669.40959,614.979847 1682.14128,705.795395 1652.4148,494.768033 C1649.1115,471.317969 1652.33037,422.435216 1619.02011,415.607268 C1588.25902,409.301849 1565.72431,429.792741 1536.35044,436.540358 C1498.43167,445.250869 1501.24353,418.547909 1468.55851,415.807776 C1445.9374,413.911345 1423.23279,413.117446 1400.54602,412.328953 C1389.85869,411.957508 1378.89612,414.683033 1368.46466,412.328953 C1358.45606,410.070301 1350.76091,401.282751 1340.79448,398.844755 C1312.94109,392.031236 1303.98589,401.752169 1280.06045,390.313117 C1275.37316,388.072064 1239.69765,360.32368 1236.74058,357.670329 C1228.1731,349.982824 1223.03902,340.173345 1211.93768,336.045485 C1194.04251,329.39145 1152.78617,329.277828 1143.15323,330.581628 C1126.02606,332.899755 1110.31984,341.432626 1093.66772,346.060886 C1059.17752,355.647034 1037.57493,359.848565 1008.13079,381.280208 C995.301975,390.617973 985.882891,410.142675 971.417676,416.700039 C955.482883,423.923592 938.590209,428.875333 922.583825,435.938832 C915.69235,438.979989 909.933597,444.384358 902.853786,446.956775 C887.863741,452.403341 871.449028,453.596796 856.776927,459.849474 C831.380348,470.672506 843.573971,489.237414 833.297379,508.56302 C825.399294,523.415733 799.697088,526.564591 784.914672,527.711584 C759.511101,529.68269 732.235318,527.573853 718.556376,501.715653 C715.526614,495.988296 712.126516,472.164646 703.117219,463.428551 C688.076581,448.844011 664.946645,447.364124 648.669129,434.25456 C637.164587,424.989048 647.167064,408.092159 630.813845,403.005307 C618.328959,399.121743 615.667343,414.356863 615.264409,422.94588 C613.720354,455.859277 623.135326,466.209068 601.158634,487.038429 C598.378454,489.673466 588.059185,490.550577 585.398664,489.414455 C560.483858,478.775091 553.098661,429.419431 538.660127,408.559393 C532.227407,399.265735 511.130678,402.191998 501.295364,397.852238 C490.026289,392.879841 485.78275,379.465324 474.066306,376.317622 C468.539369,374.832773 457.878891,374.212171 452.682072,375.134622 C440.991798,377.20968 426.539986,383.916175 422.475463,396.157941 C414.856772,419.104352 445.247963,423.078214 411.0164,437.332366 C408.318216,438.455901 405.423405,439.142416 402.524864,439.517909 C381.780593,442.205235 373.9953,418.12024 349.720944,412.228699 C344.803326,411.035161 339.682244,410.734342 334.622653,410.644682 C309.863737,410.20593 285.093208,410.208668 260.334244,410.644682 C255.088516,410.737061 249.818508,411.196382 244.674528,412.228699 C236.108294,413.947809 227.341714,415.412691 219.320225,418.875557 C207.495148,423.980426 196.675472,431.16768 185.594692,437.733383 C180.646903,440.6651 175.74486,443.737157 171.268358,447.347767 C164.728046,452.622982 159.197229,459.077781 152.63109,464.320814 C144.511734,470.804083 135.734905,476.418161 127.286813,482.466835 L68.7483489,502.116671 Z" id="Path-3166" fill="#EEEEEE"></path>
            <path d="M42.9529272,192.09039 C73.7585334,175.659081 105.399051,185.938894 131.026297,208.461911 C160.100626,234.014466 150.61646,232.588429 170.27584,247.250285 C182.047946,256.029856 208.037087,255.240081 210.838715,273.346469 C213.78194,292.367975 191.601804,298.497132 189.013362,315.904404 C183.895416,350.322592 209.105019,353.316178 174.456443,376.818893 C149.858704,393.503957 127.230609,379.52589 102.925027,373.340071 C99.9437145,372.581321 72.6637495,368.592922 64.9988395,370.172036 C61.4342953,370.906398 42.4167964,380.721287 35.7947729,377.019402 C31.1205775,374.406404 28.803551,368.833573 26.0901603,364.216933 C7.30245973,332.251002 5.13367804,304.870247 3.49284953,267.190858 C2.70575854,249.116386 -1.14494899,230.620733 2.61061202,212.923225 C7.47258341,190.011927 41.596263,197.179171 53.2089382,194.376187 C59.9860568,192.740375 65.5535797,187.893078 71.7259005,184.651523" id="Path-3164" fill="#F7F7F1"></path>
            <path d="M1590.13686,430.986271 C1555.20487,440.229576 1532.17947,447.334685 1494.01307,451.518344 C1444.96844,456.894435 1443.5168,448.552924 1391.50309,445.663495 C1290.18901,440.035369 1327.24675,451.120002 1220.20865,426.514931 C1213.02237,424.863005 1206.1113,422.076859 1199.37582,419.076065 C1191.23133,415.447531 1184.40906,408.471187 1175.67571,406.674613 C1129.69134,397.214971 1121.34201,405.162184 1111.85385,445.071995 C1109.79657,453.725445 1109.77683,462.768066 1107.88378,471.458917 C1107.26084,474.318772 1106.43495,477.440201 1104.35483,479.499309 C1102.78172,481.056524 1100.16471,481.103044 1097.95861,481.283835 C1090.44876,481.899268 1082.5127,484.248904 1075.3613,481.875335 C1045.07308,471.822605 1071.72613,469.120264 1053.97706,466.997602 C1038.64039,465.163446 1013.79571,472.347999 1000.74205,480.682309 C993.071142,485.579917 974.711823,491.694367 980.350331,498.838356 L979.578373,504.201959 C982.274466,507.61791 993.686101,508.715814 990.375757,511.540571 L990.486037,514.21736 C971.422031,530.48491 961.448244,532.054239 965.462573,562.038643 C966.765229,571.768632 977.643357,580.174863 972.189634,591.403117 C967.801359,600.4378 961.902369,609.659203 953.341832,614.912741 C936.788703,625.071273 926.031358,607.980674 911.235042,613.418953 C892.759606,620.209466 887.863426,635.702036 877.389203,650.132063 C874.819509,653.672255 869.617348,655.607767 868.576854,659.856727 C866.127705,669.858065 867.9356,703.89352 871.664685,714.415096 C877.262708,730.209864 910.764459,722.403642 919.17518,722.25498 C940.556179,721.877063 961.989826,721.049324 983.327882,722.455488 C1021.35348,724.96135 1043.6545,754.186016 1078.44913,765.013423 C1083.61649,766.621405 1089.14559,766.815806 1094.54996,767.098711 C1121.97773,768.534486 1149.4296,769.586145 1176.88879,770.166492 C1238.33272,771.465101 1299.65073,760.325101 1358.99063,744.872341 C1415.48691,730.16009 1472.11924,715.897353 1528.18975,699.637618 C1538.11891,696.758286 1547.69701,692.533313 1556.74216,687.526903 C1649.2046,636.349765 1597.96471,529.713745 1591.01909,450.225064 L1590.13686,430.986271 Z" id="Path-3162" fill="#EFEAEA"></path>
            <path d="M866.762252,691.481934 C867.059214,664.79735 856.368529,649.625178 877.840348,637.214302 C883.878736,633.724067 891.362327,633.184237 897.2997,629.5248 C907.055788,623.511738 896.425741,598.327275 912.673691,597.087533 C951.377148,594.134403 917.659209,598.44765 949.933188,599.122695 C957.218504,599.275075 969.303996,604.740611 971.75854,597.879542 C976.760275,583.898436 967.58772,568.465326 966.189416,553.68245 C965.508728,546.486215 964.834509,539.202517 965.527738,532.007479 C966.042247,526.667377 966.168306,520.456007 969.773506,516.483106 C973.861917,511.977711 981.110961,511.967906 986.415714,508.9891 C989.182129,507.43566 994.306114,506.121704 993.804453,502.988883 C992.882019,497.228377 980.557385,494.238022 983.222615,489.048527 L983.388035,485.183726 C993.318978,465.847093 1044.69246,456.247939 1062.47862,455.022231 C1067.01544,454.709583 1071.18053,453.660901 1074.98534,456.410752 C1082.71633,461.998177 1088.53911,476.507275 1097.69293,473.824918 C1111.93038,469.652898 1095.78155,418.776497 1106.89627,409.090741 C1117.53957,399.815808 1149.75223,396.124679 1153.85537,395.300767 C1158.86334,394.295163 1164.75111,390.737152 1169.06895,393.466114 C1174.11038,396.652392 1172.44187,405.429619 1176.6181,409.687253 C1177.8677,410.96121 1203.98222,407.223919 1208.52903,407.306215" id="Path-3031" stroke="#979797" stroke-width="5" stroke-linecap="round" stroke-linejoin="round"></path>
            <path d="M1194.09242,337.017951 C1132.47085,317.681053 1037.76347,345.819629 989.889524,382.949442 C977.080385,392.883882 979.774693,419.832634 964.424941,426.25427 C939.367356,436.737222 914.077801,446.682724 888.587604,456.064875 C881.742178,458.584464 878.751767,447.171773 876.020733,444.901563 C874.601791,443.722048 872.169325,443.549553 870.511761,444.36019 C861.500647,448.767106 852.774669,453.939624 844.881759,460.130185 C828.503332,472.976102 837.099427,478.795854 834.79618,500.412348 C834.517598,503.026906 832.110229,505.032047 831.547942,507.600579 C830.231984,513.611886 833.72096,526.392713 825.20686,526.999778" id="Path-3032" stroke="#979797" stroke-width="5" stroke-linecap="round" stroke-linejoin="round"></path>
            <path d="M831.763489,523.02971 C817.556686,525.453152 762.516933,535.673039 754.442389,532.253102 C731.022443,522.333689 721.025173,481.244028 706.159936,461.568834 C693.886429,445.323978 701.218393,461.977703 678.103781,445.001817 C664.000213,434.643843 677.509888,399.982075 647.295646,395.150385 C641.835393,394.277213 632.208657,389.582492 630.708578,394.904762 C626.190063,410.936429 634.150177,428.171756 633.300151,444.806321 C632.823702,454.130182 595.862758,475.338991 592.621984,478.536868 C590.705378,480.428105 592.446129,483.959578 591.794886,486.572247 C591.020533,489.678814 589.519115,492.557427 588.381229,495.550016" id="Path-3033" stroke="#979797" stroke-width="5" stroke-linecap="round" stroke-linejoin="round"></path>
            <path d="M1155.0885,120.107829 C1141.64946,109.287596 1137.65101,104.283171 1121.46823,98.0819679 C1075.43401,80.441766 1010.26651,87.7096624 967.587963,111.42581 C948.619245,121.966583 915.192391,140.886881 906.026833,162.169505 C894.368705,189.239932 934.455922,174.308686 933.250878,189.548944 C932.168641,203.236065 896.480059,200.773691 890.64783,208.251377 C888.986928,210.380872 904.652534,229.312782 902.553023,239.550758 C902.119485,241.664849 900.009044,243.221746 899.685751,245.355479 C899.582421,246.037457 901.045867,245.124894 901.725926,245.009602" id="Path-3071" stroke="#979797" stroke-width="5" stroke-linecap="round" stroke-linejoin="round"></path>
            <path d="M775.510822,188.160423 C770.165599,187.548872 764.637288,187.841606 759.475153,186.32577 C754.904535,184.983629 750.834289,182.258915 746.798001,179.729039 C741.789726,176.589939 736.911473,173.19513 732.411515,169.362748 C721.983851,160.482046 744.320103,147.211235 750.71293,145.75287 C762.946985,142.961972 777.512262,147.283245 787.967414,140.344152 C792.490255,137.342339 782.831274,130.718203 781.135086,125.561661 C780.173423,122.638132 779.174562,119.327528 780.087429,116.388396 C781.136577,113.010487 783.946687,110.353638 786.588918,108.002127 C825.090961,73.736403 876.277764,61.5504884 926.914809,62.6671498 C933.809776,62.8191994 939.774325,67.692094 946.369149,69.7100117 C948.988819,70.5115917 951.769511,70.6356927 954.469693,71.0985332" id="Path-3072" stroke="#979797" stroke-width="5" stroke-linecap="round" stroke-linejoin="round"></path>
            <path d="M989.413316,234.543057 C988.976937,248.493022 982.234668,274.820831 990.626393,291.783228 C993.950206,298.501733 1018.29095,292.503041 1023.41956,292.179233 C1046.0245,290.752007 1069.95118,292.621405 1092.47971,294.610398 C1094.08558,294.752177 1089.35512,295.405749 1087.79282,295.803424" id="Path-3073" stroke="#979797" stroke-width="5" stroke-linecap="round" stroke-linejoin="round"></path>
            <path d="M906.523092,341.93041 C885.922183,337.865042 852.563162,341.936553 842.144817,361.775741 C838.536489,368.646919 848.85991,376.11047 843.082195,384.242722 C827.612992,406.015939 775.041486,427.830178 749.775553,417.822887" id="Path-3074" stroke="#979797" stroke-width="5" stroke-linecap="round" stroke-linejoin="round"></path>
            <path d="M723.483873,278.885517 C771.919399,308.004287 790.084878,318.664871 842.420517,296.991437" id="Path-3075" stroke="#979797" stroke-width="5" stroke-linecap="round" stroke-linejoin="round"></path>
            <path d="M764.653285,306.515592 C761.673013,309.890724 740.729132,328.763013 745.750344,338.606981 C747.948207,342.91584 759.957511,350.708793 756.497601,358.79819 C751.854821,369.653179 744.153055,378.9523 738.752597,389.450931 C737.894364,391.119358 737.156682,393.274841 737.870359,395.010029 C738.320747,396.105074 740.186233,395.504617 741.344169,395.751911" id="Path-3076" stroke="#979797" stroke-width="5" stroke-linecap="round" stroke-linejoin="round"></path>
            <path d="M590.436441,244.112326 C585.008592,222.729891 637.72817,240.33058 641.034767,241.686173 C654.208592,247.086999 666.716567,253.987371 679.557468,260.13797" id="Path-3077" stroke="#979797" stroke-width="5" stroke-linecap="round" stroke-linejoin="round"></path>
            <path d="M432.646258,206.31647 C415.174806,237.059165 471.501014,228.032816 485.224605,219.113926 C492.86766,214.146745 501.937536,196.760499 486.603102,193.86489 C469.042605,190.548932 456.9189,197.881081 441.849599,205.770084" id="Path-3078" stroke="#979797" stroke-width="5" stroke-linecap="round" stroke-linejoin="round"></path>
            <path d="M541.773022,183.699108 C552.465139,183.682399 563.396184,181.40121 573.849373,183.648981 C588.331886,186.763185 588.618444,208.807129 581.563939,218.071282 C576.840729,224.273919 570.724417,225.08067 563.818934,227.450068" id="Path-3079" stroke="#979797" stroke-width="5" stroke-linecap="round" stroke-linejoin="round"></path>
            <path d="M454.47161,225.760784 C442.176519,230.274937 417.435409,236.579388 414.785961,254.48363 C414.331068,257.557671 418.785749,259.496076 421.568162,260.879852 C443.617911,271.845844 449.153312,274.262564 468.136266,263.907531" id="Path-3080" stroke="#979797" stroke-width="5" stroke-linecap="round" stroke-linejoin="round"></path>
            <path d="M379.12552,233.695909 C363.922327,231.35138 316.561983,216.742066 295.518478,230.868738 C265.027894,251.33731 267.739869,250.026348 265.372021,281.467065 C264.033744,299.236944 256.889424,293.470201 273.472565,298.034081" id="Path-3081" stroke="#979797" stroke-width="5" stroke-linecap="round" stroke-linejoin="round"></path>
            <path d="M275.34732,236.477964 C275.090001,229.680725 273.951431,222.859679 274.575362,216.086247 C278.516723,173.29859 311.771342,177.75055 344.517748,169.51313 C348.769168,168.443677 352.587996,166.029332 356.367802,163.808662 C359.65186,161.879249 361.861811,157.691696 365.626283,157.111678 C475.730825,140.14712 306.536958,179.41631 416.936415,152.098964" id="Path-3083" stroke="#979797" stroke-width="5" stroke-linecap="round" stroke-linejoin="round"></path>
            <path d="M447.63427,153.983745 C481.098977,155.460286 500.48923,155.007981 536.148758,165.09693 C552.430747,169.703501 568.978861,172.508919 570.926962,187.964927" id="Path-3084" stroke="#979797" stroke-width="5" stroke-linecap="round" stroke-linejoin="round"></path>
            <path d="M297.558652,303.53804 C312.511619,311.302358 327.207969,315.990821 344.242049,318.024781 C357.314438,319.585695 371.840382,326.526336 383.646987,320.70157 L387.065657,320.305566 C387.70555,319.989876 387.800855,319.082464 388.168454,318.470913" id="Path-3085" stroke="#979797" stroke-width="5" stroke-linecap="round" stroke-linejoin="round"></path>
            <path d="M424.65098,316.536006 C444.327194,352.269358 440.215007,348.001188 475.139027,331.960124 C478.779187,330.28815 486.096677,337.161438 490.843857,337.915227" id="Path-3086" stroke="#979797" stroke-width="5" stroke-linecap="round" stroke-linejoin="round"></path>
            <path d="M499.611092,336.030447 C523.967959,341.009228 554.966649,339.937339 572.140038,320.501062 C575.454108,316.750306 599.66769,320.702752 604.16125,324.917262 C611.176206,331.49659 604.166636,329.05179 609.509814,330.521475" id="Path-3087" stroke="#979797" stroke-width="5" stroke-linecap="round" stroke-linejoin="round"></path>
            <path d="M623.39503,334.641925 C629.577576,351.461262 654.692012,336.459836 665.281261,334.987803 C677.372701,333.306946 684.144618,343.348915 696.425247,329.929975" id="Path-3088" stroke="#979797" stroke-width="5" stroke-linecap="round" stroke-linejoin="round"></path>
            <path d="M618.382317,237.61585 C642.849727,241.049264 661.671568,244.047497 676.469636,265.541675 C679.987192,270.650921 679.819807,269.359021 678.67523,273.130923" id="Path-3089" stroke="#979797" stroke-width="5" stroke-linecap="round" stroke-linejoin="round"></path>
            <path d="M230.207838,166.485451 C243.419784,168.870465 261.995315,157.46633 276.450117,155.026389 C280.971309,154.263221 279.857774,162.933236 284.109542,165.442807 C295.415941,172.116314 308.655216,165.736454 319.218585,161.623119" id="Path-3092" stroke="#979797" stroke-width="5" stroke-linecap="round" stroke-linejoin="round"></path>
            <path d="M506.774259,155.868525 C524.13209,155.509174 532.551092,157.220309 548.71563,149.422176 C550.166929,148.722036 567.880316,119.208035 568.169969,119.015058 C568.996865,118.464151 605.500933,117.223337 601.790236,109.145026 C601.544437,108.609914 600.650679,108.847605 600.080901,108.698894" id="Path-3093" stroke="#979797" stroke-width="5" stroke-linecap="round" stroke-linejoin="round"></path>
            <path d="M596.556964,101.901655 C608.545941,92.4222049 607.154244,87.436618 606.366843,69.6097574 C606.236908,66.6680066 601.947047,62.8356331 604.271529,61.0279926 L601.679957,58.3512038 C604.91221,55.8376324 612.233137,58.0643647 613.199171,54.0853849 C614.002744,50.7755649 606.17762,53.9336318 603.113592,52.4462277 C601.582791,51.7031142 602.146519,48.7612582 600.632299,47.9849131 C597.723118,46.4933662 586.556546,50.5390386 592.366336,39.9946484 C593.066842,38.7232749 595.013048,41.1876741 596.336404,41.7841869" id="Path-3094" stroke="#979797" stroke-width="5" stroke-linecap="round" stroke-linejoin="round"></path>
            <path d="M586.416245,119.907321 C598.301452,122.07307 623.927124,124.030361 635.520783,133.747422 C644.127543,140.961056 631.316192,150.051862 634.142287,158.249563 C635.639901,162.593719 642.295645,165.513208 645.551222,167.427841" id="Path-3096" stroke="#979797" stroke-width="5" stroke-linecap="round" stroke-linejoin="round"></path>
            <path d="M646.10262,173.132309 C655.116101,180.959062 672.261692,174.802204 676.855615,188.015054 C685.021583,211.501671 658.799571,230.253011 637.781516,226.206915 C626.270801,223.991037 631.123274,222.852634 636.5133,218.467286" id="Path-3097" stroke="#979797" stroke-width="5" stroke-linecap="round" stroke-linejoin="round"></path>
            <path d="M527.386535,88.6580673 C508.540966,93.6942678 536.296186,106.177095 543.482357,93.1243947" id="Path-3098" stroke="#979797" stroke-width="5" stroke-linecap="round" stroke-linejoin="round"></path>
            <path d="M574.400772,80.0261753 C589.584904,78.4638773 600.775899,83.9935109 615.625324,85.4850199" id="Path-3099" stroke="#979797" stroke-width="5" stroke-linecap="round" stroke-linejoin="round"></path>
            <path d="M616.452422,55.7696565 C628.442417,54.7433525 637.792159,55.2059629 643.621327,67.5745959 C644.128888,68.651564 647.886394,77.3304844 645.165243,79.630171 C641.816943,82.4598696 635.773676,88.964259 633.315189,85.3346385 L629.570692,85.9311514 C628.909154,84.9544805 631.148026,84.1767018 631.936693,83.299477" id="Path-3100" stroke="#979797" stroke-width="5" stroke-linecap="round" stroke-linejoin="round"></path>
            <path d="M591.870077,74.7678392 C575.746214,74.6165835 597.547991,75.3831829 561.227362,66.0407057 C533.215584,58.8354506 490.931002,60.1488791 468.577385,80.276811" id="Path-3101" stroke="#979797" stroke-width="5" stroke-linecap="round" stroke-linejoin="round"></path>
            <path d="M442.180438,91.6356189 C432.424027,91.4033632 422.66565,90.6350269 412.911206,90.9388518 C409.721693,91.0381965 389.564541,96.1614302 395.77274,103.686181 C398.795337,107.34977 408.341505,107.440342 407.291955,112.07245 C406.26394,116.609511 398.068562,113.295552 393.456866,113.907103" id="Path-3102" stroke="#979797" stroke-width="5" stroke-linecap="round" stroke-linejoin="round"></path>
            <path d="M312.661956,88.5076859 C327.661508,88.5076859 341.525396,84.7512561 356.422942,84.4423756" id="Path-3106" stroke="#979797" stroke-width="5" stroke-linecap="round" stroke-linejoin="round"></path>
            <path d="M842.971915,136.674846 C839.113797,136.476009 835.203943,135.417979 831.397561,136.078333 C823.654271,137.421686 811.583352,146.66923 817.071226,156.665546 C820.47285,162.861698 854.777633,159.990875 858.240639,154.976262" id="Path-3107" stroke="#979797" stroke-width="5" stroke-linecap="round" stroke-linejoin="round"></path>
            <path d="M881.058509,124.473903 C890.583135,116.006766 898.997496,107.042267 911.425525,102.498168 C912.632487,102.056863 912.421369,105.394022 913.686259,105.621088 L918.754112,108.102381 C923.266574,108.912434 927.942994,109.66088 932.47892,108.994644 C944.122909,107.284378 951.163202,99.5789488 960.093957,92.7233776" id="Path-3108" stroke="#979797" stroke-width="5" stroke-linecap="round" stroke-linejoin="round"></path>
            <path d="M980.761373,80.572561 C997.368492,81.1506939 1013.97561,81.7288269 1030.58273,82.3069598" id="Path-3109" stroke="#979797" stroke-width="5" stroke-linecap="round" stroke-linejoin="round"></path>
            <path d="M1022.59246,126.308556 C1032.51262,125.366165 1042.4003,123.973941 1052.35294,123.481385 C1068.51728,122.681414 1120.054,130.09284 1097.93354,154.680512" id="Path-3110" stroke="#979797" stroke-width="5" stroke-linecap="round" stroke-linejoin="round"></path>
            <path d="M1071.48146,243.866704 C1062.5889,236.625004 1054.7382,227.871124 1044.8038,222.141605 C1019.94326,207.803656 1008.24864,219.446854 1006.9929,200.561875" id="Path-3114" stroke="#979797" stroke-width="5" stroke-linecap="round" stroke-linejoin="round"></path>
            <path d="M969.572998,217.725405 C971.867147,232.363642 970.406586,231.70641 957.171545,236.573206" id="Path-3115" stroke="#979797" stroke-width="5" stroke-linecap="round" stroke-linejoin="round"></path>
            <path d="M787.526295,232.162018 C783.833597,235.881452 779.01204,238.749002 776.448199,243.320318 C771.778037,251.647194 779.259771,262.496843 787.250596,264.950175 C824.140981,276.276211 814.867153,274.160716 846.721425,275.562089" id="Path-3116" stroke="#979797" stroke-width="5" stroke-linecap="round" stroke-linejoin="round"></path>
            <path d="M933.361158,307.904114 C932.331881,310.203278 930.325401,312.283104 930.273327,314.801607 C930.240691,316.379976 931.646979,318.059879 933.140599,318.571167 C937.438527,320.042411 942.109414,320.663862 946.644848,320.40582 C961.093291,319.583781 1007.4546,310.731044 966.044048,298.430086" id="Path-3117" stroke="#979797" stroke-width="5" stroke-linecap="round" stroke-linejoin="round"></path>
            <path d="M957.336965,290.99122 C945.200357,303.793629 975.041406,293.169705 964.500132,287.316901 C962.396324,286.148809 959.687927,287.383737 957.281825,287.417155" id="Path-3118" stroke="#979797" stroke-width="5" stroke-linecap="round" stroke-linejoin="round"></path>
            <path d="M798.714671,210.431907 C777.800794,209.538363 768.219463,211.002063 772.979402,206.712474" id="Path-3119" stroke="#979797" stroke-width="5" stroke-linecap="round" stroke-linejoin="round"></path>
            <path d="M769.671011,207.704991 C756.410931,213.100255 757.260336,208.308746 756.88358,214.747853" id="Path-3120" stroke="#979797" stroke-width="5" stroke-linecap="round" stroke-linejoin="round"></path>
            <path d="M750.326951,217.128892 C746.762912,221.378002 741.689874,224.725093 739.634834,229.876221 C735.138538,241.146561 757.087775,252.598138 770.332689,246.448251" id="Path-3121" stroke="#979797" stroke-width="5" stroke-linecap="round" stroke-linejoin="round"></path>
            <path d="M751.319468,263.210763 C723.069326,279.818423 761.517348,275.986306 763.114382,276.108474" id="Path-3122" stroke="#979797" stroke-width="5" stroke-linecap="round" stroke-linejoin="round"></path>
            <path d="M777.992115,283.25159 C780.491788,283.483846 782.991461,283.716102 785.491134,283.948358" id="Path-3123" stroke="#979797" stroke-width="5" stroke-linecap="round" stroke-linejoin="round"></path>
            <path d="M803.952956,289.69794 C805.476821,290.227616 807.000686,290.757293 808.524551,291.28697" id="Path-3124" stroke="#979797" stroke-width="5" stroke-linecap="round" stroke-linejoin="round"></path>
            <path d="M869.263595,322.039965 C870.97126,321.759253 872.678924,321.478541 874.386588,321.197829" id="Path-3125" stroke="#979797" stroke-width="5" stroke-linecap="round" stroke-linejoin="round"></path>
            <path d="M784.057498,355.474761 C775.020822,359.197256 770.1814,375.859279 787.912274,373.279918 C793.022538,372.536514 796.878347,368.153583 801.361384,365.590416" id="Path-3126" stroke="#979797" stroke-width="5" stroke-linecap="round" stroke-linejoin="round"></path>
            <path d="M589.679521,498.587721 C569.534321,483.950732 551.295058,463.395403 544.705459,438.515367 C541.087174,424.853975 545.130642,413.640564 536.218936,402.353654 C532.612182,397.785605 518.906783,396.200414 513.787045,397.842212 C511.640655,398.530517 509.909688,403.566141 508.38334,401.907523 L504.804263,402.158158 C498.764598,395.595107 494.44292,370.364536 485.234631,369.615625 C470.905456,368.450231 438.221948,375.523538 430.06471,383.059721 C363.096913,444.928898 456.355913,383.240459 425.051997,424.976028 C420.931281,430.469924 412.623391,430.960244 406.038776,432.911153 C385.34562,439.042182 382.791411,405.736218 363.210155,407.812499 C345.041557,409.73899 271.742132,389.520011 254,397.842212 C242.405056,403.280987 149.336937,467.890417 136,468.5 L65.5,498.587721" id="Path-3034" stroke="#979797" stroke-width="5" stroke-linecap="round" stroke-linejoin="round"></path>
            <path d="M1093.88828,292.194271 C1126.25266,293.619013 1184.76328,295.735203 1218.11334,289.617736 C1218.62307,289.524235 1219.53009,289.534175 1219.54698,289.016211 C1219.90787,277.943445 1208.18146,256.768 1219.21614,255.781923 L1221.75257,251.811854 C1223.44153,251.660925 1250.79108,257.876073 1252.16971,252.904625" id="Path-49" stroke="#979797" stroke-width="5" stroke-linecap="round" stroke-linejoin="round"></path>
            <path d="M1259.44817,215.409531 C1264.82826,219.062908 1307.23914,254.966736 1303.20916,226.317195" id="Path-51" stroke="#979797" stroke-width="5" stroke-linecap="round" stroke-linejoin="round"></path>
            <path d="M1131.25305,101.219926 C1140.51869,86.9952817 1158.41771,48.8586645 1182.62333,57.8699833 C1220.94987,72.1382673 1214.02868,66.2825174 1228.03851,79.6953362" id="Path-52" stroke="#979797" stroke-width="5" stroke-linecap="round" stroke-linejoin="round"></path>
            <path d="M1252.50055,69.1786641 C1261.91773,66.1175865 1281.51252,57.3751789 1293.40429,60.7472807 C1297.86506,62.0122043 1300.29988,67.0549957 1304.31195,69.3791726 C1309.95887,72.6504088 1316.50486,74.16514 1322.16724,77.4095391 C1346.1833,91.17013 1347.01085,96.0569039 1376.73563,86.3421938" id="Path-56" stroke="#979797" stroke-width="5" stroke-linecap="round" stroke-linejoin="round"></path>
            <path d="M1347.08042,139.617309 C1361.18558,140.477024 1379.31986,131.829438 1392.4956,136.639757 C1394.63334,137.420223 1395.03877,140.619911 1395.2526,142.885598 C1396.04514,151.283328 1394.60189,159.799845 1395.47315,168.189774 C1396.30064,176.158107 1410.06269,169.914467 1411.45368,178.997183 C1415.0495,202.476587 1387.9563,218.414083 1369.34689,224.833432 C1360.73877,227.802822 1351.4827,228.374821 1342.55896,230.187009 C1338.85172,230.939856 1357.47455,228.216503 1353.6972,228.011492 C1332.34312,226.852524 1310.92874,227.543639 1289.5445,227.309712" id="Path-57" stroke="#979797" stroke-width="5" stroke-linecap="round" stroke-linejoin="round"></path>
            <path d="M1229.5724,271.561943 C1236.70048,276.852027 1243.35075,282.855627 1250.95664,287.432193 C1278.25398,303.857376 1321.88231,302.985531 1340.1328,275.130995" id="Path-58" stroke="#979797" stroke-width="5" stroke-linecap="round" stroke-linejoin="round"></path>
            <path d="M1373.6478,254.298159 C1397.86838,262.614041 1414.44512,256.75102 1438.68274,243.38047 C1440.69103,242.27261 1440.05879,238.75574 1439.4547,236.54313 C1437.4669,229.262373 1433.8672,222.5209 1431.07344,215.509785" id="Path-59" stroke="#979797" stroke-width="5" stroke-linecap="round" stroke-linejoin="round"></path>
            <path d="M1408.25557,82.372125 C1409.35837,79.8256668 1409.7576,76.8393231 1411.56396,74.7327503 C1412.56094,73.5700881 1451.18462,71.0595812 1455.43523,77.8105561 C1472.36285,104.695594 1461.64384,143.944203 1439.12386,163.327442 C1430.63064,170.637665 1408.33192,171.019227 1400.76658,171.959334" id="Path-60" stroke="#979797" stroke-width="5" stroke-linecap="round" stroke-linejoin="round"></path>
            <path d="M72.7184177,178.796675 C87.5827354,158.904258 111.243983,188.667012 121.883108,198.346256 C125.778712,201.890391 127.657312,207.393345 131.798254,210.647454 C133.796844,212.218021 136.950757,211.05377 139.297273,212.030963 C146.533403,215.044404 154.436899,224.052887 157.924515,229.796018 C164.022904,239.838364 157.169642,242.479955 171.268358,250.227836 C179.641832,254.829439 190.71322,254.106296 199.590187,253.506151 C200.943994,253.414624 203.282229,250.866382 203.449976,252.212871 C206.272341,274.867817 202.849728,302.3678 177.213435,306.580757" id="Path-61" stroke="#979797" stroke-width="5" stroke-linecap="round" stroke-linejoin="round"></path>
            <path d="M181.514343,346.852894 C179.347622,367.425804 157.587774,393.406985 133.893569,383.265243 C133.610429,383.144051 90.7663615,352.082074 79.9968771,355.885804 C44.5889379,368.391716 61.8787316,362.677023 40.5367995,378.803928 C39.7174017,379.423101 38.0231972,380.5122 37.5592479,379.595937 C23.8546888,352.530506 19.5252058,318.382308 17.6086497,288.42471 C17.422332,285.512388 15.0660706,265.83562 19.0322602,258.167974 C29.071538,238.759516 35.5471027,246.067481 57.8406851,225.03394 C59.4335584,223.531097 58.3306833,220.413804 57.2892867,218.487337 C52.2380002,209.143021 38.4605279,202.327267 39.8751213,191.799652 C40.9484339,183.8119 54.5054672,184.95369 62.141593,182.375752 C64.0194428,181.741794 66.1049782,182.308916 68.0866707,182.275497" id="Path-62" stroke="#979797" stroke-width="5" stroke-linecap="round" stroke-linejoin="round"></path>
            <path d="M113.501852,268.383883 C104.85807,283.369569 104.697999,279.349113 104.910061,298.04912 C104.965903,302.973375 116.137522,302.783189 116.479403,302.811197 C133.853347,304.234506 134.539752,305.440118 133.893569,290.900991" id="Path-63" stroke="#979797" stroke-width="5" stroke-linecap="round" stroke-linejoin="round"></path>
            <path d="M128.05877,273.246215 C153.957669,267.139753 154.295114,268.442538 154.946964,295.272077" id="Path-64" stroke="#979797" stroke-width="5" stroke-linecap="round" stroke-linejoin="round"></path>
            <path d="M1195.51603,331.874908 C1199.18868,334.819041 1202.61055,338.106723 1206.53397,340.707308 C1212.81571,344.871075 1220.2229,347.341144 1226.05348,352.116243 C1244.85323,367.512773 1241.18855,377.160179 1265.293,389.410829 C1285.35187,399.60539 1300.55099,392.972662 1320.62332,394.273161" id="Path-65" stroke="#979797" stroke-width="5" stroke-linecap="round" stroke-linejoin="round"></path>
            <path d="M1341.01504,412.629716 C1360.71921,371.705661 1400.34824,413.524654 1422.48165,417.883039 C1440.04253,421.341027 1434.70257,415.175296 1454.66327,411.045699 C1476.35785,406.557385 1492.06376,423.928677 1503.27656,439.618163 C1503.83228,440.395754 1501.36505,439.618163 1500.40929,439.618163" id="Path-66" stroke="#979797" stroke-width="5" stroke-linecap="round" stroke-linejoin="round"></path>
            <path d="M1506.03356,438.816129 C1551.57266,451.003919 1532.19924,438.643634 1568.20122,423.938397 C1647.74225,391.449363 1562.06468,436.673442 1612.40333,413.622233 C1613.15549,413.277802 1610.85941,413.027391 1610.08745,412.72997" id="Path-67" stroke="#979797" stroke-width="5" stroke-linecap="round" stroke-linejoin="round"></path>
            <path d="M1352.81497,402.514061 C1324.5754,397.172559 1355.00428,404.031217 1318.63829,390.704109 C1306.99237,386.436208 1309.62441,392.231069 1307.73062,387.135057" id="Path-68" stroke="#979797" stroke-width="5" stroke-linecap="round" stroke-linejoin="round"></path>
            <path d="M1218.22362,409.261173 C1239.81177,408.092983 1252.08241,414.683586 1267.16775,431.678026 C1273.26781,438.550071 1277.28439,447.043593 1282.92772,454.295387 C1284.19828,455.928086 1285.82749,457.481349 1287.78003,458.165202 C1289.55052,458.785299 1291.69428,458.736082 1293.40429,457.964693 C1307.45266,451.627443 1320.12998,442.256599 1334.62884,437.031603 C1339.91687,435.125943 1345.90422,437.644664 1351.49161,437.031603 L1354.68972,435.247078 C1367.61093,433.829334 1386.66782,439.644032 1396.46567,442.395206 C1404.54085,444.662665 1405.3488,455.065705 1413.43872,455.979659 C1429.74713,457.822092 1455.58737,445.797524 1464.2576,443.778715 C1471.03862,442.1998 1479.1234,449.106024 1483.76708,451.117327 C1494.86094,455.922376 1507.37725,455.500794 1518.59541,451.718853" id="Path-69" stroke="#979797" stroke-width="5" stroke-linecap="round" stroke-linejoin="round"></path>
            <path d="M412.560316,595.764177 C389.813866,594.965697 388.827768,605.752622 365.60122,617.990547 C350.599231,625.895002 331.87512,600.016361 315.554292,607.864866 C308.093336,611.452757 303.650769,619.374056 297.699008,625.12865" id="Path-70" stroke="#979797" stroke-width="5" stroke-linecap="round" stroke-linejoin="round"></path>
            <path d="M395.246405,687.436674 C407.808722,685.401797 422.845798,682.08446 435.709025,683.657089 C445.697414,684.878246 455.230477,692.189211 465.133651,690.404201 C471.470675,689.261975 473.249834,680.334893 478.036375,676.027739 C479.888396,674.361204 482.387808,673.53125 484.75341,672.749425 C515.027868,662.743796 513.378789,678.604274 528.404116,678.604274" id="Path-71" stroke="#979797" stroke-width="5" stroke-linecap="round" stroke-linejoin="round"></path>
            <path d="M391.396641,691.10598 C341.765235,691.10598 320.305874,700.100161 271.352188,707.667985" id="Path-72" stroke="#979797" stroke-width="5" stroke-linecap="round" stroke-linejoin="round"></path>
            <path d="M281.497919,630.983499 C272.274527,631.347756 263.05454,632.340586 253.827743,632.076271 C243.894582,631.79172 226.467562,622.835411 220.202463,620.667336 C205.358075,615.530346 189.960815,621.037439 175.55924,624.336642" id="Path-73" stroke="#979797" stroke-width="5" stroke-linecap="round" stroke-linejoin="round"></path>
            <path d="M604.577305,726.325303 C639.205361,743.085282 632.21326,726.431087 659.135674,720.069437 C686.996879,713.485954 684.121543,718.271538 698.716057,728.400566 C699.321353,728.820659 700.03273,727.738888 700.691066,727.408049" id="Path-74" stroke="#979797" stroke-width="5" stroke-linecap="round" stroke-linejoin="round"></path>
            <path d="M741.00875,738.684633 C757.911619,737.525025 813.072462,725.860622 823,727.00529 C905,736.460078 994.145922,753.646422 981.5,738.684633" id="Path-75" stroke="#979797" stroke-width="5" stroke-linecap="round" stroke-linejoin="round"></path>
            <path d="M490.708514,761.935617 C516.184034,769.640625 538.929832,769.083746 565.668626,769.083746" id="Path-76" stroke="#979797" stroke-width="5" stroke-linecap="round" stroke-linejoin="round"></path>
            <path d="M338.151603,505.785977 C370.765239,499.714184 401.269542,504.592951 433.834271,504.592951" id="Path-77" stroke="#979797" stroke-width="5" stroke-linecap="round" stroke-linejoin="round"></path>
            <path d="M455.218505,525.726549 C473.514908,526.157643 491.81131,526.588736 510.107713,527.019829" id="Path-78" stroke="#979797" stroke-width="5" stroke-linecap="round" stroke-linejoin="round"></path>
            <path d="M467.339245,480.682309 C481.338082,480.648891 495.336919,480.615473 509.335756,480.582055" id="Path-79" stroke="#979797" stroke-width="5" stroke-linecap="round" stroke-linejoin="round"></path>
            <path d="M631.475523,552.514488 C641.026413,552.514488 650.577302,552.514488 660.128191,552.514488" id="Path-80" stroke="#979797" stroke-width="5" stroke-linecap="round" stroke-linejoin="round"></path>
            <path d="M654.403673,497.354593 C659.546717,496.890082 664.68976,496.42557 669.832804,495.961059" id="Path-81" stroke="#979797" stroke-width="5" stroke-linecap="round" stroke-linejoin="round"></path>
            <path d="M659.245954,477.313766 C663.179263,477.510933 667.112572,477.708099 671.045881,477.905266" id="Path-82" stroke="#979797" stroke-width="5" stroke-linecap="round" stroke-linejoin="round"></path>
            <path d="M700.370252,545.165851 C709.884382,545.232687 719.398511,545.299523 728.912641,545.366359" id="Path-83" stroke="#979797" stroke-width="5" stroke-linecap="round" stroke-linejoin="round"></path>
            <path d="M851.714087,577.708384 C876.849713,578.918002 866.983364,580.249231 881.579832,577.407622" id="Path-84" stroke="#979797" stroke-width="5" stroke-linecap="round" stroke-linejoin="round"></path>
            <path d="M903.074345,539.321027 C907.007654,538.295092 910.940963,537.269157 914.874272,536.243221" id="Path-85" stroke="#979797" stroke-width="5" stroke-linecap="round" stroke-linejoin="round"></path>
            <path d="M916.528467,490.607481 C932.883078,486.526195 923.849895,488.183842 943.7475,486.33665" id="Path-86" stroke="#979797" stroke-width="5" stroke-linecap="round" stroke-linejoin="round"></path>
            <path d="M857.548885,486.737667 C867.764794,486.243079 877.980703,485.748491 888.196613,485.253904" id="Path-87" stroke="#979797" stroke-width="5" stroke-linecap="round" stroke-linejoin="round"></path>
            <path d="M1042.95912,418.083548 C1055.78367,422.937514 1049.2,421.649346 1062.68916,422.053617" id="Path-88" stroke="#979797" stroke-width="5" stroke-linecap="round" stroke-linejoin="round"></path>
            <path d="M1056.95461,383.756488 C1071.74937,384.015138 1064.75114,385.021116 1078.00801,381.179954" id="Path-89" stroke="#979797" stroke-width="5" stroke-linecap="round" stroke-linejoin="round"></path>
            <path d="M1106.1193,363.525178 C1112.14458,363.525178 1118.16987,363.525178 1124.19515,363.525178" id="Path-90" stroke="#979797" stroke-width="5" stroke-linecap="round" stroke-linejoin="round"></path>
            <path d="M974.615787,671.481209 C975.410023,663.1566 987.932594,628.279043 1002.12054,638.292035 C1009.79383,643.707373 1014.42843,652.481355 1020.58237,659.576015" id="Path-3060" stroke="#979797" stroke-width="5" stroke-linecap="round" stroke-linejoin="round"></path>
            <path d="M1062.52374,663.09494 C1063.75421,659.774847 1066.10292,647.43232 1071.94764,644.492761 C1080.85513,640.012803 1079.20384,653.720162 1091.13129,655.260069" id="Path-3061" stroke="#979797" stroke-width="5" stroke-linecap="round" stroke-linejoin="round"></path>
            <path d="M1108.93143,673.411103 C1111.11698,666.881209 1112.16712,659.853622 1115.48806,653.82142 C1123.42806,639.399112 1128.45132,682.103315 1149.43917,666.56875" id="Path-3062" stroke="#979797" stroke-width="5" stroke-linecap="round" stroke-linejoin="round"></path>
            <path d="M1155.89053,670.98495 C1160.8314,667.51114 1164.77436,661.663766 1170.71312,660.563519 C1173.63939,660.021384 1174.14279,665.733128 1176.77851,667.115135 C1180.55605,669.095846 1191.75259,662.294291 1192.7039,662.252804 C1194.68906,662.16623 1195.29362,666.098128 1197.2805,666.072491" id="Path-3063" stroke="#979797" stroke-width="5" stroke-linecap="round" stroke-linejoin="round"></path>
            <path d="M407.873429,597.568754 C411.850617,594.567905 424.033886,582.685563 432.290355,583.382776 C443.771595,584.352302 440.579503,606.0482 449.75966,610.566719 C455.863772,613.571193 467.912881,610.267894 473.073789,609.42382" id="Path-3064" stroke="#979797" stroke-width="5" stroke-linecap="round" stroke-linejoin="round"></path>
            <path d="M501.235211,620.832755 C515.970551,599.420142 511.916155,610.182932 543.397141,616.717318 C561.521887,620.479401 555.128716,615.937685 571.508436,612.301118 C583.461357,609.647372 597.169396,614.843775 607.995975,617.163449" id="Path-3065" stroke="#979797" stroke-width="5" stroke-linecap="round" stroke-linejoin="round"></path>
            <path d="M617.419876,637.104022 C633.031964,625.905245 641.067493,636.82863 660.353764,638.146666 C706.187148,641.27895 681.733229,633.842802 724.506466,623.213794 C736.129656,620.32547 748.316853,620.6005 760.222047,619.293852" id="Path-3066" stroke="#979797" stroke-width="5" stroke-linecap="round" stroke-linejoin="round"></path>
            <path d="M760.552886,620.587132 C777.393966,620.587132 780.081182,621.088639 794.393712,629.810524" id="Path-3067" stroke="#979797" stroke-width="5" stroke-linecap="round" stroke-linejoin="round"></path>
            <path d="M661.401421,674.10787 C683.602436,652.433026 703.465155,665.926113 732.82757,662.944558 C740.052591,662.210906 746.164728,657.193305 752.833308,654.317679" id="Path-3068" stroke="#979797" stroke-width="5" stroke-linecap="round" stroke-linejoin="round"></path>
            <path d="M841.899194,632.191563 C857.762394,629.367667 849.013504,631.766893 867.694616,623.514557" id="Path-3069" stroke="#979797" stroke-width="5" stroke-linecap="round" stroke-linejoin="round"></path>
            <path d="M868.246015,625.895596 C874.308056,626.986696 880.370097,628.077797 886.432138,629.168897" id="Path-3070" stroke="#979797" stroke-width="5" stroke-linecap="round" stroke-linejoin="round"></path>
            <path d="M1136.52141,793.05454 C1134.29911,787.565619 1132.83188,781.706577 1129.8545,776.587777 C1115.92412,752.638218 1092.10523,766.487422 1070.43881,756.150946 C1060.04537,751.192513 1054.89226,738.852078 1045.36021,732.390686 C1027.02343,719.960923 963.494539,692.155548 942.464245,714.485274" id="Path-3131" stroke="#979797" stroke-width="5" stroke-linecap="round" stroke-linejoin="round"></path>
            <path d="M186.667412,32.5557821 C177.026104,31.8952665 155.670353,35.0515229 152.109768,46.6916331 C151.136805,49.8724014 156.160209,52.3572205 156.465816,55.6694023 C159.05432,83.7237832 147.382942,87.6246315 172.611765,92.9238862" id="Path-3090" stroke="#979797" stroke-width="5" stroke-linecap="round" stroke-linejoin="round"></path>
            <path d="M190.416922,113.410845 C186.275486,124.291526 185.562358,155.930606 197.02869,160.680729 C200.170352,161.982216 203.87713,161.625518 207.224549,161.026607 C216.911201,159.293495 226.837916,149.74569 235.832102,153.738122 L239.852298,153.687995 C240.411256,153.93611 239.852298,154.911097 239.852298,155.522648" id="Path-3091" stroke="#979797" stroke-width="5" stroke-linecap="round" stroke-linejoin="round"></path>
            <path d="M250.764975,159.046585 C252.157135,170.605041 249.552559,200.296285 271.542671,199.87012" id="Path-3095" stroke="#979797" stroke-width="5" stroke-linecap="round" stroke-linejoin="round"></path>
            <path d="M275.953858,118.022541 C268.117681,118.282317 247.428257,114.350538 240.403697,116.929769 C208.517043,128.637701 253.667658,130.370747 263.111287,127.446441" id="Path-3103" stroke="#979797" stroke-width="5" stroke-linecap="round" stroke-linejoin="round"></path>
            <path d="M180.496762,90.392466 C201.958197,83.6143952 223.449688,81.1084643 246.138241,81.8608283 C294.414491,83.4616934 240.409377,85.7964465 270.991272,84.0964984" id="Path-3104" stroke="#979797" stroke-width="5" stroke-linecap="round" stroke-linejoin="round"></path>
            <path d="M289.182408,86.6229058 C303.300847,95.0162205 296.790417,95.2776073 308.140489,91.3849832" id="Path-3105" stroke="#979797" stroke-width="5" stroke-linecap="round" stroke-linejoin="round"></path>
            <path d="M284.385242,303.638295 C287.287603,304.03597 290.189963,304.433645 293.092324,304.83132" id="Path-3082" stroke="#979797" stroke-width="5" stroke-linecap="round" stroke-linejoin="round"></path>
            <path d="M1126.15512,161.522865 C1156.7475,180.99275 1151.24874,174.187742 1130.61643,204.381562" id="Path-3111" stroke="#979797" stroke-width="5" stroke-linecap="round" stroke-linejoin="round"></path>
            <path d="M1146.10572,201.158388 C1143.24011,206.481889 1140.37451,211.80539 1137.50891,217.128892" id="Path-3112" stroke="#979797" stroke-width="5" stroke-linecap="round" stroke-linejoin="round"></path>
            <path d="M1146.216,218.27179 C1137.4521,221.660384 1128.68821,225.048978 1119.92431,228.437573" id="Path-3113" stroke="#979797" stroke-width="5" stroke-linecap="round" stroke-linejoin="round"></path>
        </g>
    </g>
</svg>