<?xml version="1.0" encoding="UTF-8"?>
<svg width="1920px" height="1080px" viewBox="0 0 1920 1080" version="1.1" xmlns="http://www.w3.org/2000/svg" xmlns:xlink="http://www.w3.org/1999/xlink">
    <!-- Generator: Sketch 49.3 (51167) - http://www.bohemiancoding.com/sketch -->
    <title>Z (0)</title>
    <desc>Created with Sketch.</desc>
    <defs></defs>
    <g id="Artwork" stroke="none" stroke-width="1" fill="none" fill-rule="evenodd">
        <g id="Contact-Scene---rocket-in-the-gully">
            <g id="Z-(0)" transform="translate(-76.000000, -22.000000)">
                <path d="M67.2837662,106.866784 C85.1781318,105.339592 88.3068653,103.357475 103.555758,106.666275 C105.418282,107.070417 107.186104,107.903274 108.839158,108.851818 C114.809507,112.277687 121.062337,115.380917 126.373628,119.759482 C175.019409,159.862483 160.196763,166.096055 193.614162,238.320173 C206.969712,267.18516 218.398184,270.297286 226.126619,298.9339 C229.725924,312.27061 227.339923,327.19039 232.96396,339.807562 C247.916868,373.353465 279.906334,393.505087 294.690509,426.607703 C307.856921,456.088052 305.884649,491.100245 321.809287,519.372972 C332.10125,537.645402 354.773941,541.634602 365.129154,560.73788 C374.6168,578.240673 370.821962,603.789443 374.934021,609.050409 C384.099716,620.776995 401.440218,621.019371 412.41909,630.976017 C413.942905,632.357952 415.071672,634.177744 415.94804,636.038857 C419.788848,644.195456 422.20402,653.019201 426.524864,660.93199 C430.101084,667.481143 466.453243,693.868195 469.844731,694.667549 C506.054009,703.201874 482.059816,684.993554 520.001939,699.02861 C552.63909,711.101319 575.810068,735.852875 608.185588,748.233402 C623.672629,754.155708 626.863981,751.329887 644.998953,753.396496 C662.221288,755.359104 688.447007,765.306571 704.519908,772.244298 C777.446756,803.722532 686.611827,765.398153 719.848785,786.229767 C782.994894,825.807258 636.703784,711.901444 763.609771,810.832163 C775.890497,820.405715 786.220216,832.3707 798.76894,841.590171 C838.125277,870.505031 882.381951,865.207121 891.915176,927.307565 C895.653681,951.660589 857.772678,979.775795 844.62524,996.051913 C835.96842,1006.76879 842.962449,1018.57069 831.181143,1028.00295 C814.276008,1041.5374 813.192768,1113.66005 798.76894,1119.07392 C787.502134,1123.30282 731.16885,1116.97475 719.848785,1121.05895 C629.826024,1153.53853 672.948112,1111.69727 579.5,1121.05895 C552.124359,1123.80146 527.701518,1118.0038 501.043858,1121.05895 C477.631253,1123.74219 454.036484,1124.58925 430.605213,1127.10428 C364.966164,1134.14975 333.457984,1143.32377 272.093199,1139.8065 C260.979157,1139.16947 250.282389,1135.23841 239.249902,1133.75114 C223.512647,1131.62964 207.701065,1129.93553 191.849687,1128.98906 C169.033173,1127.62672 112.434167,1135.5084 80.8481679,1119.07392 C40.5096069,1098.0854 6.91688807,1060.14598 1.47686846,1013.91722 C-2.20220596,982.652808 5.39176048,953.262718 8.20392946,922.044216 C9.96342442,902.511679 9.72482525,882.823821 11.7328795,863.315269 C13.0378329,850.63745 16.737578,838.288277 18.1291014,825.619667 C26.1842378,752.284658 38.3827296,665.982444 34.8815887,588.70882 C33.2049732,551.704268 27.9583686,514.911592 26.5003323,477.897783 C23.5881229,403.968235 31.1061204,330.983629 27.1620105,257.167974 C25.1405876,219.336207 13.9385914,176.859044 32.3451558,141.685089 L67.2837662,106.866784 Z" id="Path-35" fill="#D8D8D8"></path>
                <path d="M1504.45869,22.1419069 C1476.11687,20.3491405 1477.41719,18.6873398 1437.10788,38.6136822 C1124.52839,193.132963 1654.38466,-49.6053744 1357.41577,88.9112456 C1342.95837,95.6546773 1314.1632,97.1821399 1302.29597,100.119672 C1291.12408,102.885088 1280.68985,108.097747 1269.67324,111.428353 C1245.63114,118.696894 1215.95996,118.840133 1205.96165,146.346912 C1179.5814,218.922778 1203.59697,260.425472 1225.36085,327.696848 C1430.55918,961.95747 1127.51297,31.0244005 1246.08341,412.030733 C1249.9735,424.530891 1254.94457,436.763514 1261.07142,448.332801 C1265.69093,457.055793 1276.33811,463.545398 1278.15475,474.228477 C1281.65015,494.783892 1269.8347,511.585188 1273.31247,532.165416 C1302.32634,703.859673 1265.06679,396.206618 1282.01454,608.458909 C1282.35068,612.668755 1298.39679,626.959987 1297.66423,628.198973 C1290.06515,641.051354 1270.26809,641.227315 1259.19667,645.563012 C1240.68653,652.811792 1223.44605,665.223541 1208.8189,678.296028 C1189.73938,695.34765 1177.31789,714.774267 1169.13826,739.802018 C1126.09129,871.515681 1212.15016,663.694091 1156.5764,799.332999 C1150.94184,813.085278 1135.56774,813.301801 1131.88378,830.080981 C1130.12507,838.091315 1137.87146,849.324624 1131.66322,854.683377 L1129.34735,858.753701 C1107.10271,877.95455 1079.53058,861.447781 1054.06642,863.816541 C1050.59825,864.139161 1047.57886,866.523499 1044.14125,867.08483 C1025.83185,870.074583 1001.76025,873.971171 984.399733,875.125222 C946.093331,877.671662 912.459804,873.459028 877.588841,892.088243 C863.816123,899.446082 871.457466,917.252795 869.758984,929.583337 C867.209845,948.089419 859.242671,977.327943 846.499995,992.382607 C835.303078,1005.61105 823.788513,1018.6712 811.009986,1030.37897 C794.017634,1045.94748 766.934953,1044.16937 749.052852,1060.53545 C745.77418,1063.53617 743.403304,1067.63532 742.004977,1071.85416 C740.393056,1076.71743 739.584702,1082.04158 740.240502,1087.12288 C740.596768,1089.88332 742.966315,1092.04212 744.872249,1094.07051 C748.260644,1097.6766 751.820516,1101.24719 756.000472,1103.89542 C759.504845,1106.11563 763.585324,1107.33726 767.579839,1108.45699 C789.825411,1114.69283 841.528911,1117.03458 868.656187,1113.21907 C897.790344,1109.12128 906.973794,1123.37581 936,1118.57265 C941.187833,1117.71418 979.195557,1119.2131 984.399733,1119.96618 C1026.8513,1126.10926 967.433862,1105.16451 1023.85981,1108.45699 C1052.1776,1110.10935 1080.59004,1109.19416 1108.95563,1109.04849 C1125.49621,1108.96355 1142.06761,1106.51948 1158.56144,1107.76524 C1184.23953,1109.70467 1209.42478,1116.08364 1235.05544,1118.57265 C1292.97751,1124.19748 1361.92039,1122.32416 1418.26008,1119.96618 C1523.7718,1115.55021 1429.26191,1117.02973 1507.6568,1109.94075 C1562.24928,1105.00415 1666.31851,1120.62334 1711,1119.96618 C1759.70649,1119.24982 1930.83913,1183.80388 1995.42387,1119.96618 C2026.36321,1089.3847 2030.25157,993.626747 2023.30458,956.872547 C2016.52985,921.029791 2007.26672,883.997613 2003.7951,847.645528 C1999.47875,802.448258 1994.92528,757.209648 1993.43883,711.831079 C1992.13189,671.932431 1995.91993,632.004354 1995.42387,592.087388 C1994.0872,484.528299 1983.38997,584.376811 1990.68184,443.179732 C2031.68436,-350.778128 1961.14908,1353.94621 2002.25118,237.327656 C2006.55566,120.388075 2006.29746,260.909971 2007.10349,168.372774 C2007.3123,144.399547 2008.69111,120.371877 2007.10349,96.4503661 C2006.4039,85.9093533 2014.92508,28.1527204 2011.73523,18.0816092 C1998.19157,-24.679048 1942.94676,23.0582461 1904.92434,20.9589066 C1875.10764,19.3126307 1845.22274,19.0289673 1815.41734,17.1893463 C1765.83666,14.1291737 1777.94478,11.0935672 1731.97572,10.7329718 C1677.84585,10.3083606 1624.93609,16.9400907 1570.92727,18.0816092 L1504.45869,22.1419069 Z" id="Path-40" fill="#D8D8D8"></path>
                <path d="M840.765451,673.533951 C800.483301,716.059263 778.403313,778.105472 767.138721,835.043567 C764.205206,849.871333 763.931146,889.846253 764.050889,895.166049 C764.193773,901.513899 771.1859,909.415091 766.807882,914.01385 C762.977008,918.037877 756.377773,910.029933 750.927606,908.95101 C747.757595,908.323469 744.362631,908.145834 741.233019,908.95101 C725.390807,913.026839 718.791664,932.609599 716.430115,947.147884 C715.883839,950.510893 713.786131,954.862271 716.099276,957.363793 C719.430542,960.966351 725.275705,961.00213 730.094771,961.925362 C758.605526,967.387422 757.226858,930.14828 774.627714,927.508074 C780.631261,926.597164 819.721417,940.577432 822.910167,942.48606 C833.883137,949.05394 825.248831,971.560994 841.647688,972.051042 C881.712192,973.248293 856.294141,959.201012 864.686118,946.847121 C870.889666,937.714831 894.229678,940.87255 898.862796,941.593797 C916.095921,944.276515 950.233219,978.542532 963.236058,947.939892 C978.623397,911.725245 912.210369,917.334576 905.690111,892.479234 C900.882969,874.154319 908.563506,868.420508 912.306893,849.029037 C914.682179,836.724589 916.215328,824.238313 917.048919,811.734451 C918.945759,783.281854 915.618821,744.006985 895.774965,720.853963 C882.620799,705.506206 867.042093,692.41517 852.675657,678.195774 L840.765451,673.533951 Z" id="Path-48" fill="#B3B1B3"></path>
                <path d="M613.438911,902.203898 C649.189581,865.20005 683.955542,827.218831 720.690921,791.192353 C738.891759,773.342745 759.403822,757.995641 778.126588,740.694281 C781.451159,737.622107 782.313814,729.133174 786.718378,730.177609 C790.773806,731.139255 786.946509,738.535654 786.497819,742.679316 C784.043661,765.343521 779.808307,787.815277 778.016308,810.541426 C776.682681,827.454498 778.670299,844.534615 777.134071,861.430489 C776.70294,866.172182 776.314739,872.47862 772.171485,874.824459 C766.800235,877.865567 759.798165,874.128965 753.654522,874.724205 C750.155627,875.063202 746.837302,876.470926 743.508791,877.601502 C700.94375,892.059313 759.352242,873.989476 691.045736,901.512143 C688.891709,902.380063 633.229376,924.554879 621.820167,919.768445 C618.870763,918.531099 619.320494,913.880178 618.070658,910.936044 L613.438911,902.203898 Z" id="Path-91" fill="#F7F7F1"></path>
                <path d="M913.931012,713.615605 C1071.84428,911.244963 846.58604,625.470685 1009.05226,845.459985 C1020.09331,860.410255 1034.5796,872.567614 1045.87565,887.326165 C1051.81597,895.087335 1054.91723,904.721302 1060.53282,912.72057 C1067.19218,922.20666 1075.57767,930.371977 1082.57873,939.608763 C1083.73471,941.133891 1086.38234,943.658371 1084.89461,944.862086 C1082.57968,946.735069 1078.87352,945.586611 1075.96195,944.962341 C1069.2169,943.51613 1062.94462,940.306084 1056.23191,938.7165 C987.014811,922.325744 1048.08682,942.511949 1008.72142,924.229759 C984.791164,913.116005 963.159336,899.787759 940.378086,886.634411 C939.113232,885.904115 909.04883,875.301618 908.306747,865.801575 C902.125434,786.669241 911.382992,843.969173 903.013322,776.515129 C899.704615,749.849118 893.651981,738.498762 895.734863,708.45251 C895.908075,705.953867 916.196152,704.675069 922.412522,711.730825 C926.435574,716.297103 929.176343,721.849822 932.558254,726.90932" id="Path-3167" fill="#F7F7F1"></path>
                <path d="M1493.39564,891.351374 C1487.85748,903.309657 1487.30414,902.411824 1485.40537,917.091656 C1484.80006,921.77145 1484.34708,926.530438 1484.74369,931.232519 C1486.78397,955.421285 1514.14057,929.238929 1525.80283,930.736261 C1527.80399,930.993193 1529.20213,933.232851 1531.20653,933.463177 C1544.89512,935.036134 1537.42607,925.741596 1544.0491,942.641455" id="Path-2966" stroke="#979797" stroke-width="5"></path>
                <path d="M1564.99222,940.355657 C1587.66268,924.339246 1579.89888,933.226291 1603.9009,932.671168" id="Path-2967" stroke="#979797" stroke-width="5"></path>
                <path d="M1339.34995,917.442546 C1321.92044,918.579479 1309.15703,931.109361 1291.51363,932.816537 C1278.45366,934.080219 1265.25454,932.800207 1252.15882,933.613558 C1225.32289,935.280288 1198.39669,939.203701 1171.52431,940.902043 C1153.31065,942.053152 1117.65675,934.488047 1118.78055,963.970549 C1118.83831,965.485926 1121.02731,966.34348 1122.53006,966.547083 C1133.77576,968.070733 1145.13295,969.004439 1156.48116,969.078503 C1202.69004,969.380088 1198.27254,961.350264 1235.18577,974.532335 C1240.78781,976.532877 1265.56787,984.083723 1267.59296,996.50807 C1274.52463,1039.03523 1176.99011,1030.18106 1160.11538,1030.63462 C1141.98288,1031.12198 1147.874,1037.56637 1128.42501,1033.81268 C1125.75347,1033.29707 1106.85736,1023.62102 1097.83743,1025.67705 C1040.07222,1038.84419 1114.81961,1028.05138 1042.39181,1031.67726 C959.474106,1035.8283 1092.21262,1033.86069 999.127084,1041.30167 C983.467385,1042.55346 967.706597,1040.23482 952.002568,1040.65503 C942.320233,1040.91411 932.742922,1042.85353 923.069188,1043.33684 C912.825586,1043.84861 857.519197,1043.32634 853.071662,1043.03607 C832.250686,1041.67719 838.356527,1034.39076 812.839626,1039.86303 C801.666041,1042.25927 791.272595,1047.47538 780.763275,1051.96371 C779.631725,1052.44698 778.429721,1053.43193 778.226842,1054.64552 C777.997697,1056.01622 779.182599,1057.25547 779.660478,1058.56045" id="Path-2968" stroke="#979797" stroke-width="5"></path>
                <path d="M909.19901,891.722315 C911.000245,894.94716 912.80148,898.172006 914.602715,901.396851" id="Path-3006" stroke="#979797" stroke-width="5"></path>
                <path d="M906.66759,895.491875 C906.299991,898.138587 905.932392,900.7853 905.564793,903.432013" id="Path-3007" stroke="#979797" stroke-width="5"></path>
                <path d="M901.153606,905.863178 C902.532102,907.945125 903.910598,910.027072 905.289094,912.109019" id="Path-3008" stroke="#979797" stroke-width="5"></path>
                <path d="M896.632139,916.079088 C895.910257,924.892058 897.224805,921.276506 893.880159,927.287514" id="Path-3009" stroke="#979797" stroke-width="5"></path>
                <path d="M895.975473,925.803751 C894.854296,928.894924 893.73312,931.986097 892.611943,935.07727" id="Path-3010" stroke="#979797" stroke-width="5"></path>
                <path d="M886.656839,935.673783 C882.33041,941.819531 884.98991,941.536345 880.596469,940.932119" id="Path-3011" stroke="#979797" stroke-width="5"></path>
                <path d="M874.861926,938.796704 C872.749902,940.681484 870.637879,942.566264 868.525856,944.451044" id="Path-3012" stroke="#979797" stroke-width="5"></path>
                <path d="M863.50813,940.581229 C862.223205,942.302261 860.938279,944.023292 859.653354,945.744324" id="Path-3013" stroke="#979797" stroke-width="5"></path>
                <path d="M830.659821,912.058892 C827.613701,932.453176 825.354605,942.746106 826.860185,966.030774 C827.197138,971.241948 851.766907,975.361974 852.154335,967.51955 C853.018494,950.027017 853.589315,932.493111 853.091712,914.986316 C852.981487,911.108311 853.313639,906.169012 850.339733,903.677635 C829.802752,886.472867 831.398587,907.15357 831.0458,918.705749" id="Path-3014" stroke="#979797" stroke-width="5"></path>
                <path d="M911.349464,886.514106 C923.413364,894.143012 945.504097,906.127228 953.897373,918.956385 C956.002602,922.174236 976.567387,952.404879 957.591743,955.564229 C954.311628,956.110352 950.682723,956.951082 947.616444,955.664483 C935.39833,950.537811 924.641148,942.401867 912.672821,936.716428 C892.578838,927.170974 902.42398,936.624795 896.030613,930.06957" id="Path-3015" stroke="#979797" stroke-width="5"></path>
                <path d="M865.382885,939.047339 C873.172502,945.684896 870.174399,947.273261 874.039841,944.400917" id="Path-3016" stroke="#979797" stroke-width="5"></path>
                <path d="M875.854443,930.560816 C882.42741,938.344593 879.725223,940.175901 883.132902,937.112432" id="Path-3017" stroke="#979797" stroke-width="5"></path>
                <path d="M886.050301,930.515701 C891.351308,937.013539 888.572052,937.544331 892.336243,936.220169" id="Path-3018" stroke="#979797" stroke-width="5"></path>
                <path d="M609.268334,932.796486 C608.643416,924.39685 605.89636,915.886289 607.393579,907.597577 C607.77245,905.500121 611.727182,907.237088 613.784788,907.793073 C616.293126,908.47085 619.143585,909.204662 620.787549,911.216756 C623.515636,914.55574 624.386677,919.053297 626.186241,922.971568" id="Path-3019" stroke="#979797" stroke-width="5"></path>
                <path d="M615.108145,899.311562 C678.712802,827.896199 750.49538,763.2552 817.601704,695.048516" id="Path-3020" stroke="#979797" stroke-width="5"></path>
                <path d="M626.737639,917.517736 C651.299933,910.242619 675.862228,902.967501 700.424522,895.692383" id="Path-3021" stroke="#979797" stroke-width="5"></path>
                <path d="M626.131101,905.908293 C653.27799,877.965339 641.119862,886.204485 658.207452,875.701684" id="Path-3022" stroke="#979797" stroke-width="5"></path>
                <path d="M650.162047,894.203608 C647.734617,898.629377 646.912457,898.365096 650.713446,896.735028" id="Path-3023" stroke="#979797" stroke-width="5"></path>
                <path d="M650.162047,894.203608 C669.850217,893.762693 691.060971,880.243858 709.462444,873.471026" id="Path-3024" stroke="#979797" stroke-width="5"></path>
                <path d="M1101.55185,941.328124 C1099.18084,945.874654 1091.05381,951.116165 1094.43881,954.967716 L1093.01019,960.872692 C1105.15952,974.696566 1115.09101,949.821398 1113.6776,948.270731 C1110.72295,945.029146 1105.74081,944.534589 1101.77241,942.666518 L1101.55185,941.328124 Z" id="Path-3025" stroke="#979797" stroke-width="5"></path>
                <path d="M935.214991,732.398241 C969.368277,777.206884 1003.52156,822.015526 1037.67485,866.824169" id="Path-3026" stroke="#979797" stroke-width="5"></path>
                <path d="M1028.35621,852.041678 C1073.63231,905.025947 1054.0479,879.035192 1088.26816,929.12718" id="Path-3027" stroke="#979797" stroke-width="5"></path>
                <path d="M1056.35723,922.625691 C1032.91431,902.462163 1028.62393,895.015101 1036.07579,906.705314" id="Path-3028" stroke="#979797" stroke-width="5"></path>
                <path d="M1069.80634,942.320641 C1053.89393,931.770106 1047.70172,926.750617 1031.00293,918.856131 C1029.17949,917.994085 1025.55397,915.293405 1025.16312,917.272113 C1024.65785,919.830032 1028.46816,921.305677 1030.12069,923.322458" id="Path-3029" stroke="#979797" stroke-width="5"></path>
                <path d="M1065.89141,945.543815 C1023.82401,927.040184 968.610853,908.711645 929.149609,879.621625" id="Path-3030" stroke="#979797" stroke-width="5"></path>
                <path d="M89.705632,103.688724 C99.8647306,103.605179 110.025811,103.220713 120.182928,103.438088 C123.162094,103.501846 126.159438,103.828917 129.05543,104.53086 C165.789945,113.434722 133.994662,123.008392 140.684924,144.061115 C143.830046,153.958094 149.479422,147.13199 146.800434,158.547856 C145.487375,164.143145 136.736279,170.49267 140.684924,174.668742 L140.354085,180.272955 C148.774622,189.178481 172.455495,157.686096 176.951904,183.847019" id="Path-3035" stroke="#979797" stroke-width="5"></path>
                <path d="M164.771011,197.235976 C167.039278,195.804967 185.108547,182.259546 191.278238,185.235541 C194.195323,186.642618 192.814227,191.57327 192.932433,194.809823 C193.697698,215.7633 193.594111,236.739497 193.92495,257.704334" id="Path-3036" stroke="#979797" stroke-width="5"></path>
                <path d="M192.381035,241.38294 C203.591037,250.195926 184.509773,236.700266 209.083395,242.821589 C210.77906,243.243982 210.436668,246.198026 210.241332,247.934556 C209.027253,258.727653 205.898764,269.261597 204.892767,280.076073 C204.055009,289.081965 204.457758,298.169134 204.727347,307.209889 C204.789529,309.295178 204.96816,311.486673 205.885284,313.360488 C206.200819,314.005172 207.28216,313.691327 207.980598,313.856747" id="Path-3037" stroke="#979797" stroke-width="5"></path>
                <path d="M215.198905,332.654421 C213.050122,315.145014 205.535096,297.471071 208.752556,280.1262 C209.848358,274.218886 220.097695,273.34177 225.946162,274.717483 C229.660599,275.591216 228.454369,281.992668 230.467629,285.234155 C240.496869,301.381915 251.484264,316.914502 261.992582,332.754675" id="Path-3038" stroke="#979797" stroke-width="5"></path>
                <path d="M260.889785,338.113265 C264.288079,349.282485 279.850643,338.95085 284.589893,355.026159 C287.966753,366.48031 282.610657,378.07857 281.88804,389.202838 C279.858384,420.448238 282.025595,423.033511 286.960906,453.586125" id="Path-3039" stroke="#979797" stroke-width="5"></path>
                <path d="M293.793234,450.262696 C301.885994,467.265667 322.845852,472.733095 330.060213,491.136359 C336.244572,506.912167 321.808422,524.230506 325.924725,539.995273 C326.097825,540.658218 327.284841,540.162364 327.964899,540.245909" id="Path-3040" stroke="#979797" stroke-width="5"></path>
                <path d="M328.791997,536.972607 C331.418658,535.963381 333.890127,534.368215 336.671982,533.944929 C352.742363,531.499665 337.288851,540.810062 345.654764,552.100976 C347.526334,554.626909 351.269161,549.041064 354.361846,548.476784 C357.13309,547.971154 360.154936,547.999193 362.798243,548.973043 C367.889866,550.848904 372.948884,560.557735 375.034275,563.705407" id="Path-3041" stroke="#979797" stroke-width="5"></path>
                <path d="M377.565695,565.590187 C391.814341,574.282824 384.878652,583.35143 388.588652,598.278089 C390.047523,604.147653 393.661517,609.259272 396.19795,614.749864" id="Path-3042" stroke="#979797" stroke-width="5"></path>
                <path d="M199.218375,543.714707 C193.886057,536.943509 193.910847,538.011739 191.443657,526.2053 C187.321652,506.479939 197.943813,508.141202 216.632541,506.2146 C219.817251,505.886291 238.948114,504.025858 245.290222,507.15699 C256.870103,512.874037 267.477177,520.397424 278.855349,526.506062 C282.069434,528.231619 285.402749,529.99225 288.996067,530.6215 C305.566669,533.523289 307.308098,532.402221 320.856872,530.175368" id="Path-3043" stroke="#979797" stroke-width="5"></path>
                <path d="M230.19193,462.468652 C261.711516,454.122044 249.2942,476.126445 276.930467,485.186268" id="Path-3044" stroke="#979797" stroke-width="5"></path>
                <path d="M212.552192,447.485653 C218.631634,426.582201 219.711219,433.007299 212.276493,418.171307 C211.69711,417.015148 211.22974,415.339694 212.000794,414.301492 C219.553728,404.13168 220.39644,409.789072 230.633049,404.085583 C231.869359,403.396753 227.802537,404.085583 226.387281,404.085583" id="Path-3045" stroke="#979797" stroke-width="5"></path>
                <path d="M200.31616,388.460956 C178.01898,367.344831 194.260937,382.397665 185.548707,348.825433 C184.921159,346.407204 181.5789,345.722669 179.317904,344.659869 C174.120413,342.216743 168.07274,341.526512 163.282235,338.358888 C158.427203,335.148597 174.606853,325.648973 167.964109,311.375454 C165.301351,305.653883 150.518403,299.345462 147.406973,297.685734" id="Path-3046" stroke="#979797" stroke-width="5"></path>
                <path d="M167.853829,285.033646 C145.314927,274.161397 125.875577,286.724847 142.780238,268.566884" id="Path-3047" stroke="#979797" stroke-width="5"></path>
                <path d="M345.765043,640.194396 C348.549153,627.644086 350.604594,603.92014 367.645536,599.766865 C370.997108,598.950008 375.481117,600.105234 377.510556,602.894798 C386.379043,615.084972 379.408548,626.797207 393.110119,627.396939" id="Path-3048" stroke="#979797" stroke-width="5"></path>
                <path d="M394.212916,695.700168 C390.743511,678.618745 390.013777,682.749687 399.060209,658.545939 C408.253042,633.950494 412.91463,631.479951 414.880332,635.828323 C416.396401,639.182053 417.309211,642.785164 418.243862,646.344995 C422.290108,661.756032 425.960099,677.263409 429.818217,692.722617" id="Path-3049" stroke="#979797" stroke-width="5"></path>
                <path d="M430.590175,690.296464 C443.140128,661.462369 443.396952,659.817299 453.237613,694.066024" id="Path-3050" stroke="#979797" stroke-width="5"></path>
                <path d="M456.656283,692.923125 C457.63042,687.582915 458.141723,682.137177 459.578695,676.902494 C473.288023,626.961371 488.17866,703.623391 489.118613,718.518038" id="Path-3051" stroke="#979797" stroke-width="5"></path>
                <path d="M488.291515,687.765043 C489.541352,683.714771 490.26642,679.463587 492.041025,675.614227 C505.833317,645.696864 513.73755,685.589955 521.801503,696.396935" id="Path-3052" stroke="#979797" stroke-width="5"></path>
                <path d="M536.573968,700.216623 C537.608881,694.137815 537.498553,682.991226 546.714687,682.707216 C547.627743,682.679079 548.912786,682.896323 549.25112,683.744847 C552.387466,691.610655 554.283884,699.91586 556.800266,708.001366" id="Path-3053" stroke="#979797" stroke-width="5"></path>
                <path d="M580.390094,714.999114 C589.988363,705.202137 601.212801,689.304369 615.388857,703.289416 C628.655102,716.376911 627.375953,714.483932 628.396847,726.057159" id="Path-3054" stroke="#979797" stroke-width="5"></path>
                <path d="M636.387112,759.542083 C640.565827,744.706538 640.588014,740.947005 648.347445,727.646189 C649.058243,726.427777 650.870069,723.628088 651.540543,724.869146 C657.253793,735.444441 660.469856,747.189087 664.934513,758.349057" id="Path-3055" stroke="#979797" stroke-width="5"></path>
                <path d="M675.350931,773.427298 C676.600767,767.789667 677.003875,761.894868 679.10044,756.514404 C688.144845,733.303533 700.593448,763.64063 705.943519,769.116365 C707.037613,770.236157 706.675375,766.071977 707.041303,764.549783" id="Path-3056" stroke="#979797" stroke-width="5"></path>
                <path d="M716.194517,763.36177 C718.45358,759.839504 720.145831,755.881095 722.971705,752.794971 C737.47429,736.956764 731.559253,772.261481 744.797058,759.737578" id="Path-3057" stroke="#979797" stroke-width="5"></path>
                <path d="M591.408037,798.701397 C582.465289,787.670415 596.94859,779.729888 606.506329,777.868562 C613.922776,776.424242 625.502058,797.653185 625.579702,797.759007" id="Path-3132" stroke="#979797" stroke-width="5"></path>
                <path d="M547.205933,767.306775 C556.019087,754.012428 554.597583,750.702427 568.645307,745.877427 C574.981861,743.700997 597.046816,749.359582 590.029541,756.539467" id="Path-3133" stroke="#979797" stroke-width="5"></path>
                <path d="M503.389807,764.524719 C512.812874,740.549037 516.427767,738.522921 535.521298,755.797586" id="Path-3134" stroke="#979797" stroke-width="5"></path>
                <path d="M1213.33535,164.412731 C1213.1851,149.613065 1215.50965,134.671844 1223.42093,121.754542 C1224.2036,120.476625 1232.46088,108.038623 1237.69714,112.877027 C1243.67236,118.398248 1248.57473,124.977716 1254.01352,131.028061" id="Path-2908" stroke="#979797" stroke-width="5"></path>
                <path d="M1254.44963,117.984982 C1277.48636,92.8666902 1273.47281,111.483459 1294.52125,111.338124 C1297.46676,111.317786 1298.51783,106.530735 1301.35358,105.733911" id="Path-2909" stroke="#979797" stroke-width="5"></path>
                <path d="M1314.14101,111.734128 C1322.60542,94.5065013 1323.64482,85.0523782 1337.01402,100.971833" id="Path-2910" stroke="#979797" stroke-width="5"></path>
                <path d="M1341.14951,100.174812 C1343.94159,97.1822222 1345.68185,92.6026487 1349.52576,91.1970427 C1350.83415,90.7185995 1355.84868,97.839647 1358.89452,94.7209801 C1364.68754,88.7894336 1372.88581,79.3646 1379.34137,72.6449915" id="Path-2911" stroke="#979797" stroke-width="5"></path>
                <path d="M1388.87555,75.7227974 C1391.59579,70.6632989 1392.61868,64.216252 1397.03625,60.544302 C1398.70854,59.1542682 1400.03446,66.0547732 1401.88354,64.9103752 L1407.83865,65.2562524 C1410.4117,63.6637911 1410.52171,59.3592758 1413.1822,57.9176404 C1415.27257,56.7849367 1418.17278,59.5903737 1420.29023,58.5091405 C1422.97756,57.1369095 1423.08068,52.452634 1425.91449,51.4161515 C1456.36893,40.2772536 1418.68471,62.7184458 1442.17072,52.3585415 C1453.63322,47.3023219 1441.97963,39.1203852 1463.06371,31.1297015 C1465.81721,30.0861482 1468.2941,35.3116822 1471.16425,34.6536388 L1476.83864,34.6536388 C1480.04584,33.9183204 1483.01096,32.3711834 1486.09712,31.2299557" id="Path-2912" stroke="#979797" stroke-width="5"></path>
                <path d="M1290.9923,154.743207 C1290.95554,148.377061 1289.61432,141.883527 1290.88203,135.64477 C1291.86336,130.815292 1294.65374,126.435739 1297.55395,122.451309 C1307.23988,109.144356 1313.86351,135.491165 1318.93818,141.349237" id="Path-2913" stroke="#979797" stroke-width="5"></path>
                <path d="M1327.59012,140.010843 C1327.48179,128.996524 1324.61221,120.856934 1333.42993,112.481023 C1334.8631,111.119664 1338.06632,110.364432 1339.3299,111.88451 C1346.07296,119.996377 1350.13062,130.007139 1355.53099,139.068453" id="Path-2914" stroke="#979797" stroke-width="5"></path>
                <path d="M1382.09837,144.026026 C1378.53376,127.214661 1378.90398,118.087728 1387.38678,101.663588 C1391.07382,94.5248547 1401.78014,96.5118607 1405.52277,102.260101 C1412.80534,113.445237 1418.34529,125.672813 1424.75655,137.379169" id="Path-2915" stroke="#979797" stroke-width="5"></path>
                <path d="M1444.70715,150.176625 C1444.74158,148.566033 1440.58146,104.078587 1457.1086,108.661335 C1461.55024,109.892939 1464.73262,114.618297 1466.58765,118.330859 C1469.14275,123.444536 1470.28679,138.954576 1473.31471,134.105867 C1480.02557,123.359511 1477.10205,109.017828 1480.09189,96.7060145 C1481.34376,91.5509949 1483.47787,86.59754 1485.98685,81.9235235 C1486.30848,81.324335 1487.65503,81.3542255 1488.02702,81.9235235 L1492.82419,87.9237411 C1497.6976,95.3820158 1500.58239,117.048343 1506.82469,110.691484 C1516.68994,100.645203 1508.97872,82.5502326 1511.67199,68.7300626 C1513.0975,61.4152316 1512.01549,45.3674101 1519.11085,47.6465912 C1529.48432,50.9787686 1524.32708,73.961376 1534.98612,76.219056 C1541.45247,77.5886884 1542.10492,38.1381406 1557.30773,40.7039835 C1561.09772,41.3436368 1564.20163,46.9012421 1568.99236,44.0775395 C1577.94675,38.7997422 1585.18811,30.9855806 1593.90555,25.3249797 C1595.60753,24.2198118 1597.95352,23.3295329 1599.85564,24.0367124 C1601.24144,24.5519358 1600.95843,26.7803374 1601.50983,28.1521499" id="Path-2916" stroke="#979797" stroke-width="5"></path>
                <path d="M1237.3663,159.05414 C1206.40416,163.502447 1189.79919,189.945162 1194.87353,221.161656 C1195.79963,226.858862 1201.30317,230.749305 1204.51799,235.54313" id="Path-2917" stroke="#979797" stroke-width="5"></path>
                <path d="M1241.88777,166.498019 C1207.25271,197.999999 1228.87228,227.224868 1237.14574,269.273676 C1239.50288,281.253512 1235.45422,291.887022 1235.32613,303.70099" id="Path-2918" stroke="#979797" stroke-width="5"></path>
                <path d="M1203.80117,238.816431 C1211.63703,263.975723 1218.06031,276.345812 1219.40074,299.981557 C1221.95269,344.980016 1206.38119,352.871399 1233.28595,368.134404" id="Path-2919" stroke="#979797" stroke-width="5"></path>
                <path d="M1234.11305,352.905782 C1234.00277,368.017441 1232.42227,383.190013 1233.78221,398.240759 C1236.26459,425.713816 1262.51409,417.745748 1280.85159,420.366875 C1290.36158,421.726215 1288.78884,439.722067 1296.01003,445.911661" id="Path-2920" stroke="#979797" stroke-width="5"></path>
                <path d="M1284.0497,431.475047 C1285.48166,443.000946 1287.2487,454.490144 1288.34559,466.052742 C1288.60953,468.83497 1288.62789,471.684892 1288.12503,474.433999 C1283.65034,498.896967 1279.42753,518.202921 1311.71486,521.653756" id="Path-2921" stroke="#979797" stroke-width="5"></path>
                <path d="M1280.79645,463.225572 C1270.49104,463.440268 1268.19155,475.076292 1270.32489,483.707518 C1289.60939,561.730115 1278.48512,498.289225 1285.04221,538.075404" id="Path-2922" stroke="#979797" stroke-width="5"></path>
                <path d="M1271.48283,420.963388 C1271.42501,433.010845 1264.21902,455.825704 1277.5432,463.967454" id="Path-2923" stroke="#979797" stroke-width="5"></path>
                <path d="M1285.70389,527.212855 C1295.34547,555.615639 1294.00315,545.716651 1283.33288,576.36752 C1283.12075,576.976882 1282.74122,577.944006 1283.27774,578.302427 C1284.31092,578.992637 1285.74065,578.633266 1286.97211,578.798686" id="Path-2924" stroke="#979797" stroke-width="5"></path>
                <path d="M1305.98533,536.240751 C1304.49539,538.436927 1281.82178,565.545067 1278.86655,579.991711 C1267.96667,633.275856 1309.07702,630.151842 1331.55518,649.783716 C1344.80807,661.358472 1340.80249,684.295262 1338.99906,699.334385" id="Path-2925" stroke="#979797" stroke-width="5"></path>
                <path d="M1372.39877,691.644883 C1352.71057,695.906229 1339.61164,697.50927 1321.52474,715.109393 C1317.33435,719.187008 1321.90962,726.950101 1320.47708,732.6188 C1318.94026,738.700146 1314.87253,743.875349 1312.76252,749.78233 C1308.32853,762.195282 1311.46031,764.691475 1297.66423,767.492246" id="Path-2926" stroke="#979797" stroke-width="5"></path>
                <path d="M1281.34784,643.181973 C1311.83802,648.634333 1346.17905,672.827655 1332.60284,708.116659" id="Path-2927" stroke="#979797" stroke-width="5"></path>
                <path d="M1241.44665,658.761485 C1273.55719,657.711429 1276.54494,668.44612 1294.52125,697.254109 C1297.58216,702.159379 1305.9705,708.758798 1301.96012,712.923851 L1302.56666,718.728572 C1301.5018,719.834497 1300.94922,716.11862 1300.14051,714.813643" id="Path-2928" stroke="#979797" stroke-width="5"></path>
                <path d="M1185.17393,842.838336 C1183.8641,828.430151 1178.80762,801.03026 1194.76325,789.858971 C1217.51747,773.927669 1239.42544,761.058331 1259.13651,784.455267 C1262.67573,788.656297 1269.15762,798.800837 1270.32489,804.496094 C1275.95627,831.972423 1277.02291,853.90424 1270.87629,880.834702 C1270.48624,882.54363 1270.83953,877.329144 1270.82115,875.576366" id="Path-2930" stroke="#979797" stroke-width="5"></path>
                <path d="M1227.61156,770.910916 C1236.88932,760.091255 1253.66188,760.956417 1263.98882,770.06878 C1272.50568,777.583957 1281.32517,784.93228 1288.51101,793.728786 C1308.13906,817.756343 1293.46947,852.814172 1295.89975,879.396053 C1295.96255,880.082964 1296.27367,881.032686 1296.94741,881.180579 C1297.52353,881.307045 1297.75613,880.321734 1298.16048,879.892312" id="Path-2931" stroke="#979797" stroke-width="5"></path>
                <path d="M1188.64273,849.284685 C1171.88857,847.284613 1155.06236,840.75277 1138.38025,843.284468 C1118.38919,846.318339 1118.12993,885.645326 1108.39922,887.035428 C1106.57999,887.295318 1104.43217,887.088585 1102.99551,885.942656 C1096.32324,880.62061 1091.06934,873.705021 1084.64397,868.087372 C1069.7598,855.074265 1061.727,853.13784 1042.59232,852.011601" id="Path-2932" stroke="#979797" stroke-width="5"></path>
                <path d="M1165.60931,884.849885 C1173.83429,892.300016 1181.78133,901.285728 1194.37727,901.767792 C1197.21998,901.876586 1196.49858,896.421706 1198.18192,894.128417 C1199.94524,891.726173 1202.44273,889.961181 1204.57313,887.877564" id="Path-2933" stroke="#979797" stroke-width="5"></path>
                <path d="M1271.70338,208.509568 C1277.78358,196.338752 1301.19184,190.903842 1313.6999,194.819848 C1346.44557,205.071821 1375.87088,232.522414 1406.12931,247.648832 C1410.71647,249.941986 1416.29018,249.710904 1420.89677,251.964778 C1422.13311,252.569685 1418.21663,252.593038 1416.87657,252.907168" id="Path-2934" stroke="#979797" stroke-width="5"></path>
                <path d="M1245.19115,174.583525 C1274.05969,151.281361 1312.49666,148.878472 1348.69866,150.723011 C1350.15106,150.797013 1351.66364,151.729137 1352.44817,152.953668 C1359.36159,163.744505 1365.61819,174.960851 1371.51653,186.338338 C1372.95508,189.113207 1372.08898,197.38804 1374.3838,195.26598 C1378.56918,191.395684 1373.90572,180.010045 1379.50679,178.949599 C1382.27585,178.425335 1404.8308,203.105013 1411.36258,194.524098 C1414.04725,190.997209 1414.06569,185.541856 1417.48311,182.719159 C1423.3544,177.869632 1446.16135,199.740303 1455.12357,191.396165" id="Path-2935" stroke="#979797" stroke-width="5"></path>
                <path d="M1460.30672,238.570808 C1472.39404,227.972262 1483.86165,216.622192 1496.56868,206.775169 C1503.09871,201.714873 1515.40565,215.422725 1524.45942,213.321772 C1541.11661,209.456427 1556.81359,201.537322 1573.72938,199.03554 C1579.7745,198.141488 1585.50073,202.434099 1591.53453,203.401613 C1594.94509,203.948492 1598.46997,203.993097 1601.89581,203.551995 C1626.68855,200.359747 1621.43667,196.606 1647.20071,198.935286 C1663.9644,200.450864 1671.8106,210.24272 1687.87387,217.291841 C1732.73625,236.979025 1718.19117,217.71177 1732.79279,243.282759" id="Path-2936" stroke="#979797" stroke-width="5"></path>
                <path d="M1485.54573,192.388682 C1500.7944,187.974153 1515.88577,182.974719 1531.29175,179.145094 C1540.84506,176.770327 1540.00553,188.108581 1547.93897,187.776986 C1558.84335,187.321214 1569.62096,183.740924 1580.51158,184.453558 C1585.74847,184.796237 1589.84291,189.439839 1594.89806,190.849779 C1598.56855,191.873521 1602.50068,191.381127 1606.30199,191.646801" id="Path-2937" stroke="#979797" stroke-width="5"></path>
                <path d="M1430.87206,215.106298 C1429.4401,231.145309 1428.43661,247.228358 1426.57617,263.223331 C1424.15624,284.028452 1419.7806,304.60374 1418.03451,325.476216 C1415.10986,360.436841 1414.97141,395.581938 1412.57566,430.582784 C1393.20748,713.543172 1435.9522,-50.4884852 1402.76578,570.216921" id="Path-2938" stroke="#979797" stroke-width="5"></path>
                <path d="M1428.89204,221.753156 C1432.83631,205.191024 1426.30356,190.976031 1447.6847,188.919885" id="Path-2939" stroke="#979797" stroke-width="5"></path>
                <path d="M1477.99658,198.639536 C1450.86032,237.982257 1460.80179,269.821185 1456.99833,321.756783 C1451.12034,402.019598 1443.39308,473.167406 1444.21089,554.096035 C1444.2294,555.927308 1444.87257,550.493566 1445.20341,548.692331" id="Path-2940" stroke="#979797" stroke-width="5"></path>
                <path d="M1440.4664,325.426089 C1432.5163,401.202187 1438.13796,343.611493 1429.00232,498.64039" id="Path-2941" stroke="#979797" stroke-width="5"></path>
                <path d="M1426.46589,380.485729 C1424.00465,427.707158 1421.54341,474.928586 1419.08216,522.150015" id="Path-2942" stroke="#979797" stroke-width="5"></path>
                <path d="M1391.35685,590.307875 C1373.17407,595.009187 1407.49226,611.365 1417.48311,600.177907" id="Path-2943" stroke="#979797" stroke-width="5"></path>
                <path d="M1447.02303,603.205586 C1458.01713,612.613238 1452.45429,597.387731 1466.97362,599.085136 C1471.00514,599.556446 1470.98288,606.473711 1474.30221,608.809799 C1486.87933,617.661362 1485.07265,607.513637 1485.87657,614.018008" id="Path-2944" stroke="#979797" stroke-width="5"></path>
                <path d="M1490.12233,581.029343 C1490.66112,577.636843 1498.05209,527.643507 1512.60936,552.211255 C1515.76187,557.53161 1518.55007,563.113615 1520.65477,568.928654 C1521.75959,571.981156 1521.64729,575.344926 1522.14354,578.553063" id="Path-2945" stroke="#979797" stroke-width="5"></path>
                <path d="M1493.98212,606.328506 C1498.09756,608.148121 1504.39733,607.723033 1506.32843,611.787351 L1512.44394,612.529232 C1515.56151,619.090656 1496.73862,637.43964 1501.09015,655.884188" id="Path-2946" stroke="#979797" stroke-width="5"></path>
                <path d="M1404.3097,605.386116 C1395.39912,697.24823 1382.61392,788.478366 1375.70214,880.483812" id="Path-2947" stroke="#979797" stroke-width="5"></path>
                <path d="M1378.95539,609.702062 C1366.62288,791.580517 1380.6202,615.988833 1355.25529,834.256572 C1345.3923,919.128576 1356.52943,866.490808 1347.20988,907.517374" id="Path-2948" stroke="#979797" stroke-width="5"></path>
                <path d="M1479.87134,605.48637 C1461.71659,697.180544 1456.66342,795.471303 1447.79498,888.7197" id="Path-2949" stroke="#979797" stroke-width="5"></path>
                <path d="M1502.13781,626.168825 C1499.89573,741.135974 1503.58935,629.784627 1490.72887,791.498129 C1489.59037,805.814222 1490.5422,820.260649 1489.12982,834.552322 C1480.9349,917.475555 1484.05492,829.042211 1482.68347,889.912725" id="Path-2950" stroke="#979797" stroke-width="5"></path>
                <path d="M1531.01605,620.068353 C1521.1742,683.913446 1531.87609,610.934227 1518.72487,756.579569 C1514.48684,803.51436 1509.32102,850.360748 1504.6191,897.251337" id="Path-2951" stroke="#979797" stroke-width="5"></path>
                <path d="M1611.20943,604.393599 C1610.64061,652.87087 1617.12893,717.752661 1603.05375,764.564821 C1593.82066,795.272804 1594.80562,758.187309 1591.58967,768.284254 C1588.55314,777.817903 1585.70966,787.434173 1583.54427,797.202596 C1579.95512,813.39381 1590.53953,825.074947 1588.06072,842.041315 C1573.5815,941.145478 1579.00043,850.892725 1578.03028,926.916573 C1578.01001,928.505165 1578.49569,930.567211 1577.31347,931.628524 C1576.42652,932.424761 1576.90911,929.279232 1576.70693,928.104586" id="Path-2952" stroke="#979797" stroke-width="5"></path>
                <path d="M1621.90155,601.766937 C1625.98761,656.209058 1599.62483,710.254455 1606.25186,764.068562 C1615.79142,841.533557 1597.79047,641.141793 1609.05898,774.78073" id="Path-2953" stroke="#979797" stroke-width="5" stroke-linecap="round" stroke-linejoin="round"></path>
                <path d="M1605.42476,772.204196 C1598.42006,775.860608 1595.86421,782.839247 1597.0435,790.70612 C1597.16772,791.534738 1598.66806,791.401514 1599.13882,792.094642 L1604.76308,790.951743 C1608.62566,796.638891 1598.39122,806.123238 1612.64307,799.433254 C1614.76849,798.435554 1615.91136,796.061368 1617.5455,794.375426" id="Path-2954" stroke="#979797" stroke-width="5" stroke-linecap="round" stroke-linejoin="round"></path>
                <path d="M1613.47017,795.317816 C1612.33061,799.516799 1611.70537,803.890493 1610.05149,807.914764 C1606.78021,815.874605 1600.39678,822.68128 1598.75284,831.128639 C1595.88185,845.881193 1598.34498,861.226543 1596.7678,876.172879 C1582.67436,1009.73131 1595.47729,840.323006 1589.38408,925.974183" id="Path-2955" stroke="#979797" stroke-width="5" stroke-linecap="round" stroke-linejoin="round"></path>
                <path d="M1536.53003,593.581177 C1558.8606,587.938042 1582.31463,589.195994 1601.50983,605.832248 C1617.08412,619.330298 1592.64721,621.127135 1608.83842,618.629704" id="Path-2956" stroke="#979797" stroke-width="5" stroke-linecap="round" stroke-linejoin="round"></path>
                <path d="M1626.91927,620.268861 C1626.37691,612.188233 1636.24087,589.870209 1643.06522,601.71681" id="Path-2957" stroke="#979797" stroke-width="5" stroke-linecap="round" stroke-linejoin="round"></path>
                <path d="M1571.58393,563.073805 C1587.64894,559.362253 1597.45361,557.858506 1613.35989,562.432177" id="Path-2958" stroke="#979797" stroke-width="5" stroke-linecap="round" stroke-linejoin="round"></path>
                <path d="M1568.33068,566.743111 C1392.85291,566.743111 1556.62247,576.153673 1539.17674,561.835665 C1536.57102,559.697101 1532.48978,560.97682 1529.14631,560.547397" id="Path-2959" stroke="#979797" stroke-width="5" stroke-linecap="round" stroke-linejoin="round"></path>
                <path d="M1528.70519,572.698214 C1519.83564,567.247023 1521.70584,570.83476 1519.88281,564.362072" id="Path-2960" stroke="#979797" stroke-width="5" stroke-linecap="round" stroke-linejoin="round"></path>
                <path d="M1493.09989,554.542167 C1470.47961,540.709739 1461.65801,537.104752 1442.0053,556.426947 C1434.57149,563.735736 1435.39541,562.695473 1434.07018,569.424912" id="Path-2961" stroke="#979797" stroke-width="5" stroke-linecap="round" stroke-linejoin="round"></path>
                <path d="M1436.11035,557.619973 C1413.70612,566.545567 1410.07261,566.839068 1426.63131,563.073805" id="Path-2962" stroke="#979797" stroke-width="5" stroke-linecap="round" stroke-linejoin="round"></path>
                <path d="M1359.50106,913.818354 C1359.44011,861.236928 1357.17751,881.941505 1361.59637,851.369974" id="Path-2963" stroke="#979797" stroke-width="5" stroke-linecap="round" stroke-linejoin="round"></path>
                <path d="M1374.32866,867.540987 C1373.04852,905.072356 1364.81398,894.633315 1377.24606,907.321878" id="Path-2964" stroke="#979797" stroke-width="5" stroke-linecap="round" stroke-linejoin="round"></path>
                <path d="M1384.74508,905.933356 C1393.61758,906.595034 1402.74914,910.147227 1411.36258,907.918391 C1436.26496,901.474588 1420.2494,886.895106 1450.33142,895.070807" id="Path-2965" stroke="#979797" stroke-width="5" stroke-linecap="round" stroke-linejoin="round"></path>
                <path d="M809.826986,936.6663 C802.927884,945.44304 805.286091,947.70556 802.11242,942.716645" id="Path-2970" stroke="#979797" stroke-width="5" stroke-linecap="round" stroke-linejoin="round"></path>
                <path d="M801.175043,937.508436 C794.298108,942.780753 796.182193,944.040419 794.397855,936.962051" id="Path-2971" stroke="#979797" stroke-width="5" stroke-linecap="round" stroke-linejoin="round"></path>
                <path d="M786.457717,926.89151 C779.171643,934.753945 781.068362,920.820706 778.136613,931.703714" id="Path-2972" stroke="#979797" stroke-width="5" stroke-linecap="round" stroke-linejoin="round"></path>
                <path d="M776.427278,914.740693 C776.408898,917.385735 776.390518,920.030777 776.372138,922.675818" id="Path-2973" stroke="#979797" stroke-width="5" stroke-linecap="round" stroke-linejoin="round"></path>
                <path d="M761.494406,876.543819 C742.708144,896.928413 710.369689,917.46979 717.126882,950.35602 C717.532977,952.332422 718.997481,954.476451 720.926518,955.06797 C727.719503,957.15097 735.787387,961.369936 742.040066,957.995395 C748.564369,954.474259 748.474897,944.621352 752.180785,938.200191 C758.861456,926.624646 766.575979,924.759333 779.018851,922.480322" id="Path-2974" stroke="#979797" stroke-width="5" stroke-linecap="round" stroke-linejoin="round"></path>
                <path d="M782.87864,925.307493 C779.64544,918.89122 776.066348,912.637853 773.17904,906.058674 C771.187314,901.520218 770.553913,896.422575 768.271594,892.023077 C767.710862,890.942186 768.758787,894.924225 767.775335,895.642256" id="Path-2975" stroke="#979797" stroke-width="5" stroke-linecap="round" stroke-linejoin="round"></path>
                <path d="M790.482926,731.255342 C801.825341,707.811049 816.944903,685.556814 836.284085,667.814445 C837.492165,666.706115 839.762026,666.606855 841.186519,667.418441 C850.204486,672.556309 858.743047,678.588512 866.761381,685.178483 C882.720037,698.29431 891.452951,718.012707 897.845215,737.110191 C898.081598,737.816406 896.705658,736.151092 896.13588,735.671543" id="Path-2976" stroke="#979797" stroke-width="5" stroke-linecap="round" stroke-linejoin="round"></path>
                <path d="M793.405337,727.390541 C820.249705,746.216211 864.072483,735.900722 893.880159,732.052364" id="Path-2977" stroke="#979797" stroke-width="5" stroke-linecap="round" stroke-linejoin="round"></path>
                <path d="M793.515617,727.982041 C784.358197,743.641949 789.897282,738.038762 778.743152,746.433838" id="Path-2978" stroke="#979797" stroke-width="5" stroke-linecap="round" stroke-linejoin="round"></path>
                <path d="M788.222192,743.757049 C785.448491,744.716148 782.67479,745.675247 779.901088,746.634346" id="Path-2979" stroke="#979797" stroke-width="5" stroke-linecap="round" stroke-linejoin="round"></path>
                <path d="M785.690772,751.596932 C776.893797,754.138915 779.902689,751.971918 775.545041,756.158501" id="Path-2980" stroke="#979797" stroke-width="5" stroke-linecap="round" stroke-linejoin="round"></path>
                <path d="M785.194513,753.080695 C781.941263,755.197731 778.688012,757.314767 775.434761,759.431803" id="Path-2981" stroke="#979797" stroke-width="5" stroke-linecap="round" stroke-linejoin="round"></path>
                <path d="M782.76836,760.72007 C780.196838,762.820397 777.625317,764.920724 775.053795,767.02105" id="Path-2982" stroke="#979797" stroke-width="5" stroke-linecap="round" stroke-linejoin="round"></path>
                <path d="M782.437521,761.07096 C771.705736,771.977491 774.813518,766.106273 771.138866,777.487595" id="Path-2983" stroke="#979797" stroke-width="5" stroke-linecap="round" stroke-linejoin="round"></path>
                <path d="M769.870649,779.372376 C768.951652,781.372448 768.032655,783.372521 767.113657,785.372593" id="Path-2984" stroke="#979797" stroke-width="5" stroke-linecap="round" stroke-linejoin="round"></path>
                <path d="M769.870649,779.372376 C772.278531,792.034802 772.809067,784.842832 762.100944,799.563584" id="Path-2985" stroke="#979797" stroke-width="5" stroke-linecap="round" stroke-linejoin="round"></path>
                <path d="M770.366908,790.335179 C767.611587,795.658681 764.856265,800.982182 762.100944,806.305683" id="Path-2986" stroke="#979797" stroke-width="5" stroke-linecap="round" stroke-linejoin="round"></path>
                <path d="M766.837958,804.420903 C764.156156,808.274009 761.474355,812.127114 758.792553,815.980219" id="Path-2987" stroke="#979797" stroke-width="5" stroke-linecap="round" stroke-linejoin="round"></path>
                <path d="M764.191245,813.398672 C763.169169,815.403245 758.825018,821.944177 763.148601,823.123336" id="Path-2988" stroke="#979797" stroke-width="5" stroke-linecap="round" stroke-linejoin="round"></path>
                <path d="M765.238902,827.138519 C761.078384,834.755286 761.477557,831.151053 762.100944,837.554937" id="Path-2989" stroke="#979797" stroke-width="5" stroke-linecap="round" stroke-linejoin="round"></path>
                <path d="M762.707482,847.329727 C762.505303,849.694057 762.303123,852.058387 762.100944,854.422716" id="Path-2990" stroke="#979797" stroke-width="5" stroke-linecap="round" stroke-linejoin="round"></path>
                <path d="M893.6596,736.268056 C897.039839,740.136199 900.420079,744.004343 903.800318,747.872486" id="Path-2991" stroke="#979797" stroke-width="5" stroke-linecap="round" stroke-linejoin="round"></path>
                <path d="M900.050809,752.489195 C906.377453,755.875468 904.301509,753.380584 906.66759,759.632311" id="Path-2992" stroke="#979797" stroke-width="5" stroke-linecap="round" stroke-linejoin="round"></path>
                <path d="M901.980703,760.920579 C904.901444,763.56562 907.822185,766.210662 910.742926,768.855703" id="Path-2993" stroke="#979797" stroke-width="5" stroke-linecap="round" stroke-linejoin="round"></path>
                <path d="M905.840493,767.366928 C914.548242,770.323765 913.5138,767.291211 914.161596,772.179132" id="Path-2994" stroke="#979797" stroke-width="5" stroke-linecap="round" stroke-linejoin="round"></path>
                <path d="M904.903115,777.688104 C908.301735,780.217853 911.700354,782.747602 915.098974,785.277352" id="Path-2995" stroke="#979797" stroke-width="5" stroke-linecap="round" stroke-linejoin="round"></path>
                <path d="M907.434535,787.01175 C910.301807,789.028532 913.169079,791.045314 916.036351,793.062095" id="Path-2996" stroke="#979797" stroke-width="5" stroke-linecap="round" stroke-linejoin="round"></path>
                <path d="M909.640129,799.46333 C911.625164,803.149345 913.610198,806.83536 915.595232,810.521375" id="Path-2997" stroke="#979797" stroke-width="5" stroke-linecap="round" stroke-linejoin="round"></path>
                <path d="M913.885897,816.080474 C916.383899,818.941062 918.881901,821.80165 921.379903,824.662239" id="Path-2998" stroke="#979797" stroke-width="5" stroke-linecap="round" stroke-linejoin="round"></path>
                <path d="M914.933554,827.684905 C915.22614,836.257298 912.751333,838.479705 919.11917,842.8634 C919.680847,843.250065 920.558992,843.337153 921.159344,843.013781 C921.55511,842.800607 921.269624,842.121518 921.324763,841.675387" id="Path-2999" stroke="#979797" stroke-width="5" stroke-linecap="round" stroke-linejoin="round"></path>
                <path d="M916.31205,837.8557 C917.982955,839.194094 919.653859,840.532488 921.324763,841.870883" id="Path-3000" stroke="#979797" stroke-width="5" stroke-linecap="round" stroke-linejoin="round"></path>
                <path d="M911.404604,846.236956 C913.755567,848.039862 916.106529,849.842768 918.457492,851.645673" id="Path-3001" stroke="#979797" stroke-width="5" stroke-linecap="round" stroke-linejoin="round"></path>
                <path d="M911.459744,849.410003 C913.737187,850.41923 916.014629,851.428456 918.292072,852.437682" id="Path-3002" stroke="#979797" stroke-width="5" stroke-linecap="round" stroke-linejoin="round"></path>
                <path d="M911.459744,849.510258 C913.579905,859.11412 910.729291,855.924713 919.891127,859.184794" id="Path-3003" stroke="#979797" stroke-width="5" stroke-linecap="round" stroke-linejoin="round"></path>
                <path d="M913.444778,860.869065 C915.391382,863.233395 917.337986,865.597725 919.284589,867.962055 C910.76153,872.987352 906.666667,877.5 907,881.5" id="Path-3004" stroke="#979797" stroke-width="5" stroke-linecap="round" stroke-linejoin="round"></path>
                <path d="M913.444778,861.91171 C914.155521,871.791624 912.268264,868.161285 916.808309,873.716649" id="Path-3005" stroke="#979797" stroke-width="5" stroke-linecap="round" stroke-linejoin="round"></path>
                <path d="M436.745786,930.696159 C436.817635,926.032665 435.786869,921.219431 436.961333,916.705677 C447.082845,877.806207 477.708573,911.38435 493.950869,923.106912" id="Path-3058" stroke="#979797" stroke-width="5" stroke-linecap="round" stroke-linejoin="round"></path>
                <path d="M438.670668,844.236883 C441.471227,836.381839 453.250445,809.718894 463.804412,816.707063 C470.201313,820.942686 474.078775,828.123008 479.624534,833.424461 C479.984237,833.768318 479.698054,832.431944 479.734814,831.935685" id="Path-3059" stroke="#979797" stroke-width="5" stroke-linecap="round" stroke-linejoin="round"></path>
                <path d="M842.394583,770.940992 C835.403482,773.777736 834.584527,785.219312 843.657786,782.154431 C850.484913,779.848278 850.029398,773.668741 842.780562,772.875899" id="Path-3127" stroke="#979797" stroke-width="5" stroke-linecap="round" stroke-linejoin="round"></path>
                <path d="M844.319465,806.907209 C817.350576,819.311297 859.494072,828.44051 843.933486,808.145349" id="Path-3128" stroke="#979797" stroke-width="5" stroke-linecap="round" stroke-linejoin="round"></path>
                <path d="M846.469918,839.098852 C844.008676,841.611893 840.992304,843.681654 839.086192,846.637973 C834.144304,854.302681 855.023366,857.080926 849.668029,844.552684 C848.837791,842.61043 845.624441,843.329582 843.602647,842.718031" id="Path-3129" stroke="#979797" stroke-width="5" stroke-linecap="round" stroke-linejoin="round"></path>
                <path d="M840.188989,874.909675 C824.253625,897.807301 858.379224,885.780757 839.80301,873.471026" id="Path-3130" stroke="#979797" stroke-width="5" stroke-linecap="round" stroke-linejoin="round"></path>
                <path d="M545.79736,1021.44632 C549.820898,1004.54679 552.049412,987.116219 557.867973,970.747737 C570.878262,934.147851 577.98988,922.596417 601.077561,966.978177 C623.405291,1009.89907 625.420908,1049.50203 655.034405,1083.8947" id="Path-3140" stroke="#979797" stroke-width="5" stroke-linecap="round" stroke-linejoin="round"></path>
                <path d="M327.92981,900.860491 C330.892597,883.240973 333.497956,813.734495 360.722979,801.207754 C362.51861,800.381551 365.123407,800.555819 366.61793,801.849381 C369.36336,804.225647 371.19268,807.702045 372.242194,811.17804 C379.846395,836.363178 385.726392,862.037028 392.468492,887.466521" id="Path-3141" stroke="#979797" stroke-width="5" stroke-linecap="round" stroke-linejoin="round"></path>
                <path d="M422.339249,818.616907 C423.461818,813.903973 434.791581,781.304465 442.234707,784.540483 C451.039841,788.368655 446.990199,807.980237 456.455774,809.58901 L459.157627,811.624172 C459.740329,811.723208 459.892825,810.698491 460.260424,810.23565" id="Path-3142" stroke="#979797" stroke-width="5" stroke-linecap="round" stroke-linejoin="round"></path>
                <path d="M379.79134,799.272847 C379.897586,781.82927 379.201448,774.482595 383.154871,756.118399 C383.490408,754.559781 389.386879,739.040111 395.666602,743.416184 C403.77655,749.067663 408.048004,758.828606 414.238705,766.534817" id="Path-3143" stroke="#979797" stroke-width="5" stroke-linecap="round" stroke-linejoin="round"></path>
                <path d="M310.620912,743.270816 C313.127694,728.189906 312.405869,723.868296 320.485931,710.382405 C322.494734,707.029646 324.642597,700.126638 328.260649,701.605144 C340.68868,706.683824 337.233195,724.999178 338.732207,716.086873" id="Path-3144" stroke="#979797" stroke-width="5" stroke-linecap="round" stroke-linejoin="round"></path>
                <path d="M268.458982,684.988 C270.53473,678.086481 282.493771,646.291185 289.016118,649.071911 C291.917491,650.308877 291.631558,655.517833 294.530103,656.761413" id="Path-3145" stroke="#979797" stroke-width="5" stroke-linecap="round" stroke-linejoin="round"></path>
                <path d="M206.456733,1072.48576 C206.658913,1074.9988 206.861092,1077.51184 207.063271,1080.02488" id="Path-3148" stroke="#979797" stroke-width="5" stroke-linecap="round" stroke-linejoin="round"></path>
                <path d="M1259.81824,1064.9632 C1269.7687,1065.06886 1308.99063,1054.06061 1311.07825,1043.4327 C1312.61382,1035.61516 1313.90204,1008.56079 1323.25914,1005.787 C1331.63242,1003.30484 1359.68784,1011.22254 1374.78983,1005.53636 C1378.42439,1004.16788 1381.38499,1000.66565 1385.26139,1000.42837 C1391.5748,1000.04192 1398.28258,1006.57308 1403.94377,1003.75182 C1410.8902,1000.29006 1409.57991,986.403986 1417.11718,984.553014 C1419.38487,983.996123 1437.08823,1003.94347 1449.02811,999.932111 C1461.59729,995.709328 1459.90298,978.349258 1470.6329,973.048767 C1482.2121,967.328742 1510.77914,982.795891 1513.29109,964.812829 C1514.05753,959.325921 1512.97287,953.69761 1513.62193,948.195584 C1513.81376,946.569532 1514.13508,943.785975 1515.77239,943.779357 C1669.93522,943.156221 1174.50615,970.280125 1554.5758,950.872389 C1559.24827,950.633796 1563.16443,946.971446 1567.7442,946.01504 C1572.75698,944.968205 1577.99539,945.623616 1583.06806,944.922262 C1589.38759,944.048516 1595.56424,942.324787 1601.86072,941.298048 C1609.44204,940.061797 1613.85805,945.787035 1621.97674,944.175363 C1622.58741,944.054136 1622.34434,942.985672 1622.52814,942.390827" id="Path-2969" stroke="#979797" stroke-width="5" stroke-linecap="round" stroke-linejoin="round"></path>
                <path d="M166.605664,538.411256 C142.258705,538.411256 151.73031,539.874728 145.552269,561.32938 C142.3233,572.542709 131.250807,583.236768 119.536288,583.756259" id="Path-2" stroke="#979797" stroke-width="5" stroke-linecap="round" stroke-linejoin="round"></path>
                <path d="M191.849687,538.020264 C200.656808,563.511748 208.937604,571.857421 189.533814,590.5936" id="Path-3" stroke="#979797" stroke-width="5" stroke-linecap="round" stroke-linejoin="round"></path>
                <path d="M199.55924,717.084402 C217.414459,683.841231 220.353063,673.994128 236.051791,711.530316" id="Path-4" stroke="#979797" stroke-width="5"></path>
                <path d="M261.626654,765.898203 C270.289142,730.19506 280.203926,755.55595 293.367153,773.738086" id="Path-5" stroke="#979797" stroke-width="5"></path>
                <path d="M149.081219,771.753052 C167.589444,736.996207 165.770865,761.92116 189.864653,778.199401" id="Path-6" stroke="#979797" stroke-width="5"></path>
                <path d="M208.161056,854.683377 C217.508249,841.846565 222.632136,828.57249 240.13214,839.404628 C270.663194,858.302714 246.798438,850.743658 257.987424,854.091877" id="Path-7" stroke="#979797" stroke-width="5"></path>
                <path d="M269.446486,833.158787 C269.8589,822.539133 266.170227,782.022213 284.985897,808.05512 C289.052093,813.68101 292.337876,819.831654 296.013866,825.719921" id="Path-8" stroke="#979797" stroke-width="5"></path>
                <path d="M310.891598,965.504439 C310.591625,951.869291 324.808006,927.927145 343.524361,936.83172 C352.73829,941.215379 351.511599,965.98188 361.820764,963.709888" id="Path-9" stroke="#979797" stroke-width="5"></path>
                <path d="M414.183565,983.951223 C415.09922,978.694558 415.16793,973.217515 416.930532,968.181228 C433.095771,921.992234 458.619658,998.323098 465.984942,976.81312" id="Path-10" stroke="#979797" stroke-width="5"></path>
                <path d="M536.092748,886.534157 C537.666913,873.622824 551.62534,858.550895 565.858238,869.962127 C600.538821,897.767297 566.931188,882.734724 584.70604,890.103208" id="Path-11" stroke="#979797" stroke-width="5"></path>
                <path d="M203.419029,643.076706 C206.216146,634.554113 215.974983,602.548984 231.199485,609.742164 C238.551098,613.215609 244.132285,619.6005 250.598685,624.529667" id="Path-12" stroke="#979797" stroke-width="5"></path>
                <path d="M161.643078,449.926844 C127.105458,430.64592 137.148159,381.101284 133.090664,350.81548 C131.595514,339.655436 107.832545,340.389292 104.768835,335.937748 C102.095115,332.052855 108.794892,327.288917 109.611116,322.644033 C110.579077,317.135654 109.905195,311.462341 110.052235,305.871495" id="Path-13" stroke="#979797" stroke-width="5"></path>
                <path d="M101.239885,213.717777 C117.677789,209.032482 100.958989,212.620354 120.859644,212.72526 C145.640161,212.85589 163.985907,207.870043 167.708461,240.696199" id="Path-14" stroke="#979797" stroke-width="5"></path>
                <path d="M1565.74412,150.417236 C1567.07499,143.361727 1581.75606,93.7028635 1600.14136,110.245353 C1601.97523,111.89541 1603.1033,114.239648 1604.11143,116.491193 C1610.05998,129.776681 1615.35327,143.345968 1620.9742,156.773356" id="Path-15" stroke="#979797" stroke-width="5"></path>
                <path d="M1652.38386,175.621157 C1652.75146,172.048764 1652.70424,168.408965 1653.48665,164.903976 C1663.18227,121.470602 1671.53192,163.658832 1675.75313,176.212657" id="Path-16" stroke="#979797" stroke-width="5"></path>
                <path d="M1697.13736,198.930273 C1708.07443,168.686373 1709.21637,157.543008 1731.5346,189.907389" id="Path-17" stroke="#979797" stroke-width="5"></path>
                <path d="M1669.69777,116.691702 C1684.21976,84.9678446 1695.12006,65.9138509 1712.1354,104.781495" id="Path-18" stroke="#979797" stroke-width="5"></path>
                <path d="M1743.98618,91.4877801 C1747.70756,79.1448404 1750.39087,52.9178189 1770.333,60.930281 C1778.34414,64.1490453 1774.13584,68.1048486 1782.23318,73.8330045 C1783.28026,74.5737256 1782.74782,71.3199643 1783.00514,70.0634443" id="Path-19" stroke="#979797" stroke-width="5"></path>
                <path d="M1805.71273,43.9672598 C1808.19574,38.7755073 1823.41891,13.2927059 1832.28011,21.650661 C1858.00597,45.9155296 1839.75679,45.5613025 1851.34847,45.5613025" id="Path-20" stroke="#979797" stroke-width="5"></path>
                <path d="M1640.81452,144.963404 C1642.75722,139.074872 1656.46818,104.29479 1666.8305,111.82937 C1671.72509,115.388295 1675.79323,119.963332 1680.27459,124.030314" id="Path-21" stroke="#979797" stroke-width="5"></path>
                <path d="M1527.82796,167.981782 C1529.06975,143.766879 1537.55191,102.320193 1568.06,119.468745" id="Path-22" stroke="#979797" stroke-width="5"></path>
                <path d="M1609.28455,110.435836 C1606.49294,99.3177209 1603.81903,78.9152344 1618.98916,75.4170219 C1619.99788,75.184413 1621.29352,75.7412868 1621.85643,76.6100476 C1625.26371,81.8685953 1627.2482,87.952177 1630.5585,93.272306 C1631.23505,94.3596132 1632.61995,96.323921 1633.64634,95.5581032 C1639.59785,91.1175109 1646.37032,77.2633225 1655.58197,75.3167676 C1664.07053,73.5230124 1673.0452,75.9820551 1681.59795,74.5247589 C1717.79466,68.3572273 1667.92032,70.4450419 1690.97172,69.8629357" id="Path-23" stroke="#979797" stroke-width="5"></path>
                <path d="M1795.90786,203.892859 C1796.45376,192.595929 1797.01046,147.168727 1817.95377,145.855667 C1831.163,145.027502 1841.6067,174.182025 1848.92231,163.420213" id="Path-24" stroke="#979797" stroke-width="5"></path>
                <path d="M1860.17084,209.045928 C1868.03594,197.164773 1878.06545,179.332809 1894.55805,177.796675 C1904.52337,176.868497 1915.48262,190.695287 1911.21029,199.822536" id="Path-25" stroke="#979797" stroke-width="5"></path>
                <path d="M1763.38538,252.696634 C1768.2625,237.717391 1771.40994,215.511572 1794.5845,220.364634 C1804.11886,222.361255 1812.00201,229.093439 1820.71076,233.457841" id="Path-26" stroke="#979797" stroke-width="5"></path>
                <path d="M1717.63936,241.78897 C1729.33152,255.770513 1741.53272,264.120797 1760.29754,265.599357 C1773.49757,266.639444 1786.50438,256.108638 1797.34149,267.684646 C1797.83964,268.216751 1797.65373,269.362762 1797.12094,269.860164 C1796.46458,270.472913 1795.35646,270.194345 1794.47422,270.361435" id="Path-27" stroke="#979797" stroke-width="5"></path>
                <path d="M1283.22761,268.576909 C1292.03033,278.605875 1300.15349,283.999849 1302.07541,297.440111 C1303.40147,306.713401 1296.16632,319.30959 1303.17821,325.52133 C1318.22911,338.854718 1348.13439,331.645119 1366.55896,335.837494 C1375.59607,337.893823 1377.22788,368.842067 1377.47664,369.372544 C1378.92783,372.467177 1383.42506,372.741088 1386.39927,374.425359" id="Path-28" stroke="#979797" stroke-width="5"></path>
                <path d="M1329.63531,282.863141 C1348.57965,281.5035 1384.99056,290.402783 1389.81794,312.518352 C1391.52594,320.343144 1386.68539,329.599166 1390.70018,336.529248 C1411.2114,371.934426 1410.13168,333.261982 1409.76854,353.201532" id="Path-29" stroke="#979797" stroke-width="5"></path>
                <path d="M1328.31195,374.525614 C1339.11195,391.014723 1346.26477,399.551731 1353.22514,416.391793 C1355.91845,422.908055 1356.40363,430.444597 1360.28304,436.332366 C1362.63466,439.901414 1376.76157,446.846521 1378.02804,454.287905 C1382.8584,482.669615 1357.60067,525.828286 1384.20371,545.659639" id="Path-30" stroke="#979797" stroke-width="5"></path>
                <path d="M1488.47816,545.759894 C1488.0738,534.514707 1486.88077,523.270223 1487.26509,512.024334 C1488.74624,468.682838 1513.91958,487.863402 1546.23464,493.677804 C1561.34686,496.396924 1561.50608,492.727204 1576.33097,485.045912" id="Path-31" stroke="#979797" stroke-width="5"></path>
                <path d="M1566.18524,552.897997 C1566.84107,532.149906 1568.52583,519.500182 1576.44125,500.023899 C1577.4412,497.563492 1580.77187,489.360221 1585.47416,489.015981 C1597.53297,488.133194 1609.69611,489.710508 1621.74615,488.715218 C1647.38517,486.597529 1643.15495,475.948025 1646.43878,487.030947" id="Path-32" stroke="#979797" stroke-width="5"></path>
                <path d="M1503.79701,478.790046 C1507.86946,466.610378 1509.75444,442.978437 1523.30649,432.963823 C1546.39175,415.904422 1585.96187,449.277334 1593.9657,469.165637" id="Path-33" stroke="#979797" stroke-width="5"></path>
                <path d="M1541.82346,429.785763 C1561.26145,396.896783 1555.65027,400.183546 1590.43675,408.652164" id="Path-34" stroke="#979797" stroke-width="5"></path>
                <path d="M1514.49414,366.194484 C1498.98181,312.025753 1549.49447,310.559471 1593.08346,312.718861 C1598.60974,312.992632 1601.76041,319.747446 1606.74812,322.142761 C1614.462,325.847308 1622.84227,327.964192 1630.88934,330.874908" id="Path-36" stroke="#979797" stroke-width="5"></path>
                <path d="M1606.52756,281.870624 C1612.06973,273.645536 1635.47877,254.867008 1647.98269,262.421297 C1655.84698,267.172535 1660.7415,275.684872 1667.71273,281.670116 C1673.5157,286.652325 1695.26075,283.752176 1691.19228,293.570297 C1690.75208,294.632604 1689.06021,294.432483 1687.99417,294.863577" id="Path-37" stroke="#979797" stroke-width="5"></path>
                <path d="M1661.09595,360.239381 C1672.39805,338.121879 1692.29326,323.703901 1719.18327,333.852459 C1819.88929,371.859906 1719.75417,342.534136 1749.2796,351.015989" id="Path-38" stroke="#979797" stroke-width="5"></path>
                <path d="M1677.73816,468.082891 C1689.57186,448.492867 1695.27402,434.86397 1720.39635,441.094444 C1730.2935,443.548992 1741.06508,444.216238 1749.831,449.425573 C1754.03478,451.923757 1753.78748,458.415679 1756.44778,462.51878 C1757.54965,464.218242 1759.45541,465.232328 1760.95922,466.589103" id="Path-39" stroke="#979797" stroke-width="5"></path>
                <path d="M1742.66282,242.781487 C1754.76209,251.959057 1770.6668,266.773441 1786.53409,263.113052 C1787.56904,262.8743 1787.57052,261.188708 1788.40884,260.536517 L1788.96024,253.789405 C1790.4506,252.629943 1792.99916,254.573108 1794.14338,256.075203 C1797.19899,260.086477 1799.84955,264.655418 1800.98072,269.569426 C1803.60467,280.968245 1803.01448,299.217182 1794.69478,309.049555 C1794.28882,309.529329 1793.44495,308.915882 1792.82003,308.849046" id="Path-41" stroke="#979797" stroke-width="5"></path>
                <path d="M1809.90335,256.375965 C1831.33333,340.896974 1802.4216,218.490481 1815.19678,301.510434 C1815.39305,302.785918 1817.88106,301.742178 1819.05657,301.209671 C1828.98072,296.714011 1838.2604,290.856235 1848.26063,286.532447 C1849.7115,285.905138 1851.49215,286.066716 1853.00266,286.532447 C1856.84176,287.716149 1860.33377,292.96736 1864.03063,291.394779 C1870.20544,288.768123 1872.48751,280.939269 1877.25417,276.216284 C1877.75031,275.724692 1878.76068,275.840617 1879.34948,276.216284 C1880.90743,277.210278 1882.30557,278.541086 1883.31955,280.086098 C1887.47824,286.422764 1889.19669,294.598514 1894.77861,299.725908 C1897.13503,301.89045 1901.28601,300.267038 1904.37295,299.425146 C1906.70419,298.789352 1908.81094,297.241285 1910.43833,295.455077 C1911.44754,294.347369 1911.39409,292.614539 1911.87196,291.194271" id="Path-42" stroke="#979797" stroke-width="5"></path>
                <path d="M1891.0291,280.978361 C1896.69013,278.134482 1901.9924,274.420839 1908.01218,272.446724 C1910.87323,271.508474 1914.76661,270.478349 1917.04508,272.446724 C1929.39811,283.118516 1920.71385,285.027142 1913.95725,289.309491" id="Path-43" stroke="#979797" stroke-width="5"></path>
                <path d="M1767.35545,367.778502 C1783.63731,376.867994 1792.21403,391.660211 1813.65286,389.904617 C1825.37569,388.944653 1849.84078,379.078566 1861.93532,387.227829 C1862.91342,387.886874 1861.9046,390.005312 1853.99518,394.365932" id="Path-44" stroke="#979797" stroke-width="5"></path>
                <path d="M1639.05004,621.65237 C1646.29616,615.234985 1667.28432,609.054443 1674.20921,619.06581 C1678.48725,625.250602 1677.78293,633.73026 1680.60543,640.70068 C1683.14133,646.963315 1687.00165,652.604203 1690.19976,658.555964" id="Path-45" stroke="#979797" stroke-width="5"></path>
                <path d="M1665.1763,673.934968 C1690.24022,676.471558 1698.73254,684.775575 1715.2132,665.202822 C1718.13326,661.734911 1718.54792,656.7295 1719.51411,652.300098 C1720.10642,649.584716 1717.467,645.407533 1719.84495,643.968969 C1721.95272,642.693854 1723.30665,647.680623 1725.57949,648.630792 C1728.68644,649.929662 1732.14168,650.34105 1735.50467,650.515572 C1737.94668,650.6423 1740.77238,650.928967 1742.7731,649.523055 C1743.8548,648.762942 1743.08584,646.772739 1742.55254,645.563012 C1742.22146,644.811985 1741.15566,644.700825 1740.45723,644.269732" id="Path-46" stroke="#979797" stroke-width="5"></path>
                <path d="M1723.15334,631.968534 C1726.831,627.424828 1740.42955,607.150779 1749.05904,609.942672 C1753.77712,611.469108 1756.98397,616.058557 1761.51062,618.083318 C1789.11049,630.428684 1799.62991,621.66254 1771.76663,645.753495" id="Path-47" stroke="#979797" stroke-width="5"></path>
                <path d="M1723.81502,883.947597 C1737.48495,867.000955 1751.53537,841.30063 1772.64887,866.092313 C1777.39475,871.664973 1778.1815,884.9568 1785.43129,883.947597 L1788.96024,885.140622 C1789.5163,885.063216 1788.96024,884.017775 1788.96024,883.456351" id="Path-50" stroke="#979797" stroke-width="5"></path>
                <path d="M1673.65781,842.883451 C1673.73133,836.630927 1672.66445,830.25987 1673.87837,824.125878 C1676.53673,810.693117 1681.00617,805.288302 1693.82897,804.686577 C1699.49157,804.420853 1706.34224,809.065458 1710.81204,805.57884 C1720.54441,797.987217 1695.1668,775.562392 1693.49813,774.129078 C1671.67025,755.379872 1664.11135,760.461089 1682.36991,734.548695" id="Path-53" stroke="#979797" stroke-width="5"></path>
                <path d="M1738.47219,442.578207 C1748.20024,444.501622 1769.85245,446.346915 1781.0201,453.696404 C1839.11366,491.928084 1788.68432,577.917731 1794.91534,626.905693 C1796.86931,642.267667 1840.53588,645.810971 1850.13539,664.009796 C1863.09134,688.571805 1844.01863,725.506623 1838.45577,746.258393 C1825.10428,796.064914 1846.67936,850.7745 1831.28759,899.426855 C1829.48412,905.127484 1826.50011,910.40675 1824.67081,916.099139 C1824.23613,917.451755 1824.93725,921.729834 1824.56053,920.359945 C1824.14849,918.861626 1824.56053,917.252063 1824.56053,915.698122" id="Path-54" stroke="#979797" stroke-width="5"></path>
                <path d="M1850.90735,545.258622 C1874.50675,550.101705 1866.49071,547.331129 1900.95427,568.678018 C1946.33444,596.786695 1912.48196,690.15443 1909.22525,722.046988 C1890.93889,901.123072 1914.63269,744.427199 1904.70378,895.266303 C1904.36705,900.381887 1902.13059,885.341131 1900.844,880.378545" id="Path-55" stroke="#979797" stroke-width="5"></path>
                <path d="M1433.24809,1015.20048 C1460.98704,1016.73683 1514.19437,1034.00432 1536.3195,1027.70218 C1548.47438,1024.23998 1571.55493,1009.52216 1587.34892,1014.20796 C1614.05938,1022.13249 1607.18522,1026.36808 1630.00711,1028.99546 C1651.63003,1031.48481 1667.65273,1011.95082 1684.5755,1023.04036" id="Path-3153" stroke="#979797" stroke-width="5"></path>
                <path d="M1378.8,1050.82082 C1415.27397,1058.37184 1427.62697,1061.87445 1464.5575,1065.7988 C1469.30621,1066.30342 1474.12051,1066.13882 1478.88383,1065.7988 C1494.96901,1064.6506 1510.95582,1062.25152 1527.056,1061.33749 C1566.89024,1059.07603 1562.20129,1073.51717 1565.63384,1054.98137" id="Path-3154" stroke="#979797" stroke-width="5"></path>
                <path d="M1532.45971,984.452495 C1557.37752,981.643766 1580.75338,996.868881 1605.7556,1000.12224 C1637.07521,1004.19763 1653.3691,973.105323 1693.71869,991.991615" id="Path-3155" stroke="#979797" stroke-width="5"></path>
                <path d="M1166.16071,994.367641 C1129.2954,995.726506 1130.48092,997.66261 1095.62181,991.791107 C1079.2701,989.036902 1065.78112,982.522761 1048.99355,985.244503 C1036.57558,987.257811 1024.84896,992.463184 1012.501,994.868912 C1002.04693,996.905659 990.986161,995.559659 980.760503,998.538218 C959.970537,1004.59398 958.527482,1012.32508 942.292942,1015.40099 C934.134305,1016.94677 931.298792,1011.55484 922.232064,1009.64639 C846.458063,993.696796 923.49572,1014.6252 882.100283,1002.99953" id="Path-3156" stroke="#979797" stroke-width="5"></path>
                <path d="M684.78987,1004.98457 C704.74381,1005.61283 724.699749,1007.55817 744.65169,1006.86935 C766.942615,1006.09977 764.583811,998.75103 784.442606,1001.90676 C833.374214,1009.68241 776.182619,1009.01895 829.968067,1007.27036" id="Path-3157" stroke="#979797" stroke-width="5"></path>
                <path d="M644.116715,961.233607 C665.39067,962.75413 686.664624,964.274653 707.938579,965.795176" id="Path-3158" stroke="#979797" stroke-width="5"></path>
                <path d="M769.11373,968.572219 C781.866072,967.877123 794.618414,967.182027 807.370756,966.486931" id="Path-3159" stroke="#979797" stroke-width="5"></path>
                <path d="M925.089311,975.620094 C949.229216,979.831975 939.384326,979.484587 954.413683,979.2894" id="Path-3160" stroke="#979797" stroke-width="5"></path>
                <path d="M1000.04942,948.340909 C1013.84736,953.073056 1027.81337,957.161294 1042.59733,953.894995 C1046.43487,953.047148 1049.69778,949.866218 1053.6253,949.724418 C1061.93964,949.424236 1070.15389,951.642616 1078.41818,952.601715" id="Path-3161" stroke="#979797" stroke-width="5"></path>
                <path d="M1274.6258,614.46414 C1154.75168,730.546522 1549.06103,347.836931 1214.71385,680.932715 C1210.7304,684.901257 1189.2751,695.332203 1184.18141,704.296971 C1179.07428,713.285403 1201.4208,750.66407 1193.88101,759.802744 C1184.05728,771.709707 1145.36429,792.11581 1147.47332,817.539173 C1147.52723,818.189137 1148.39231,818.464854 1148.85181,818.927695" id="Path-2929" stroke="#979797" stroke-width="5" stroke-linecap="round" stroke-linejoin="round"></path>
            </g>
        </g>
    </g>
</svg>