<?xml version="1.0" encoding="utf-8"?>
<svg version="1.1" xmlns="http://www.w3.org/2000/svg" xmlns:xlink="http://www.w3.org/1999/xlink" height="971.0536845236193" width="2138.1250087781027">
  <defs>
    <path id="path-0" opacity="1" fill-rule="evenodd" d="M14.130570342357537,14.11389032843536 C13.780891738133477,16.98125488307265 18.92311509526087,917.4543363514737 30.130570342357817,918.113890328436 C105.47453315101863,922.5478505107393 2062.871204137106,971.1295752501443 2119.2477578423564,952.841156364557 C2129.8106977546377,949.4145639767165 2123.941398755676,29.404290378729744 2090.1305703423586,30.113890328435378 C2027.483997692878,31.42867635668283 14.130570342357537,14.11389032843536 14.130570342357537,14.11389032843536Z"/>
    <path id="path-1" opacity="1" fill-rule="evenodd" d="M1438.5055703423573,180.81701532843582 C1441.491645682749,193.76960186987483 1442.0883175764613,220.22365994276683 1423.7321328423573,223.41857782843582 C1417.0752358871168,224.57721942272303 1381.949627334681,218.6561595905537 1379.1461953423573,235.48107782843542 C1369.7899519673363,291.63297672574697 1421.503614223645,274.36487300294937 1438.7633828423573,312.2467028284358 C1442.8871203374126,321.2975033045964 1443.7202987537103,335.2311056841844 1442.2868203423573,343.8638903284358 C1440.6677118790476,353.6145880499636 1435.4543920107033,362.46426561427137 1433.1774453423573,372.0826403284358 C1432.4173420251507,375.2935010077874 1431.8981235601993,378.97717196314704 1433.2633828423573,381.9810778284358 C1434.5648943860097,384.8447230061769 1443.902027243401,387.8488109804137 1446.4977578423573,388.0826403284358 C1468.6861766553536,390.08142383346103 1495.7630424531903,390.9577204597921 1511.9508828423573,371.54357782843573 C1529.7574236761789,350.1881211888815 1544.5408031481904,326.4699100242685 1561.5993203423573,304.51232782843573 C1564.2154618363975,301.1448521423921 1567.3358849442639,298.08197369207755 1570.8727578423573,295.6998278284358 C1590.6694805146342,282.3663882658074 1617.225795340138,286.07503331774717 1636.7555703423573,272.8170153284358 C1657.873178631368,258.48107799402635 1672.2641044134684,196.8759320095599 1667.5133828423573,173.70764032843582 C1665.3741466136808,163.27502537112255 1647.993759869978,153.83539470686574 1641.3961953423573,150.59045282843582 C1624.3362703893529,142.1997103520086 1593.4542297761132,132.01936112962562 1574.0524453423573,139.07482782843582 C1549.1975020125033,148.11333794915947 1536.1580649106304,166.24410840503845 1508.2555703423573,163.27014032843582 C1495.4560648168597,161.90591388853852 1446.7846680865407,143.07307015757385 1438.5055703423573,166.75451532843582 L1438.5055703423573,180.81701532843582Z"/>
    <path id="path-2" opacity="1" fill-rule="evenodd" d="M231.88838284235786,393.4185778284363 C244.1276590473584,375.8406662857644 285.3103038954996,338.62600284977503 311.6071328423578,348.34826532843584 C355.23404877207065,364.47767502495407 330.8096983541635,367.3599313197957 354.8961953423577,387.69982782843584 C375.4728277045524,405.0758112663144 419.6062565679881,372.9338382041318 424.5602578423578,409.4967028284359 C425.6129260310433,417.2658902681616 426.14625869222965,425.206558891554 425.3336953423578,433.00451532843584 C422.34884519592197,461.6493359645106 362.070849641228,461.45262921379947 343.3883828423578,477.52795282843584 C330.7719425264553,488.38376556057165 341.77618068513175,506.9230122915218 331.8805703423578,519.5904528284359 C312.41170730641113,544.5126816032653 245.116850931045,532.232523036273 225.19307034235786,513.4810778284359 C220.48012177970818,509.04544392118135 216.746236120658,503.5293982061103 213.76338284235786,497.7857653284359 C210.525300824532,491.5506767729606 208.01193877040023,484.8253529972502 206.72432034235786,477.9185778284359 C197.75038784310723,429.78247414850244 240.96868161523156,433.54509630154956 242.54463284235786,396.19982782843584 L231.88838284235786,393.4185778284363Z"/>
    <path id="path-3" opacity="1" fill-rule="evenodd" d="M481.77119534235777,94.62170282843606 C478.370918052319,112.00541710789187 476.13119021055195,119.60837337172873 466.13838284235777,134.82482782843556 C460.2062902805249,143.8578665906358 443.3645379938487,156.8158644393215 448.87275784235777,171.38732782843545 C455.6211006741079,189.23941674544804 499.07660492924526,204.30477544872613 515.7868203423577,202.23889032843556 C530.5230815150674,200.41704531131344 537.3368355192011,193.5479015708964 551.6071328423578,197.1295153284355 C553.4296706002892,197.58694281993206 554.5530877998523,199.5933310862036 555.4743203423577,201.23107782843553 C559.1105206926346,207.69543400670563 561.4378217542834,214.84943381401203 565.1774453423578,221.25451532843553 C569.6209178828911,228.86512189321903 574.6219445613158,232.6036808529464 582.4430703423578,236.48107782843604 C602.0014238732515,246.1773163175376 636.8662730907131,244.85376918950885 644.0290078423577,218.62170282843553 C648.1044103866288,203.69636583129778 646.6309894865177,189.70828750939648 653.3102578423578,175.8717028284356 C661.6394788767869,158.61712253169534 682.6383812257613,153.2137451882041 687.2399453423578,133.43420282843556 C698.361134037514,85.63045233988943 649.3370264844924,81.54471444687113 613.7946328423577,75.1373278284356 C573.6035397589039,67.89189932420749 519.015277084661,49.70612049643318 489.06807034235777,86.88732782843559 L481.77119534235777,94.62170282843606Z"/>
    <path id="path-4" opacity="1" fill-rule="evenodd" d="M714.6793129476621,248.98292680037991 C676.9427890570986,313.4838739473221 669.4041632738695,410.2754853205719 680.1364809610601,484.11889001341376 C681.8510006607271,495.91559373822685 684.7650034415485,507.5234603174362 687.8272316626943,519.0440746627385 C688.7429171663017,522.4890365619849 689.9591470395908,525.9768769398366 692.0331109526506,528.8760002756235 C724.1903091180797,573.8274495404082 792.0088999366119,596.5270316805901 838.0918281129489,617.0902217467832 C861.7336766019457,627.6397211652038 884.8543845370676,639.9980248246272 909.7993389162546,646.9246538009922 C993.8802006803137,670.2719377687094 1099.234110252291,672.9812097423143 1175.6109100414888,624.8683673427543 C1198.9123991130805,610.1898147656516 1257.3955606539148,550.3357306225008 1269.178068790775,533.7373412731056 C1290.0206648481742,504.37572145545266 1306.947244350946,451.72844935745997 1314.219212459579,418.8349039438591 C1322.4255424827616,381.71492689443676 1324.3815655609988,340.09901615091206 1315.4208922567093,302.73078681748314 C1306.9616981657132,267.453850137181 1245.8293381947674,224.7768580063875 1216.2058384609104,208.35522529558222 C1093.8977148593863,140.55435431893437 1071.6228830246325,109.462534315362 932.8169692121971,142.0115761321963 C914.2132161553919,146.37402957214306 789.9923138715498,167.48172038844254 779.0019551795122,183.96112541383596 C754.836299223642,220.19612404855854 732.6056298163517,218.34246769927495 714.6793129476621,248.98292680037991Z"/>
    <path id="path-5" opacity="1" fill-rule="evenodd" d="M761.5558103760337,273.28419452213296 C730.0520983059823,327.1317421408737 723.7586014071303,407.93661606996614 732.7182991058927,469.58355966397596 C734.149637485479,479.43184242048983 736.582344452463,489.12247761305537 739.1387949737544,498.74027172300157 C739.903239853098,501.61624111755657 740.9185892225897,504.52800689992694 742.6500036514914,506.94829200862057 C769.495908031057,544.4752650513979 826.1131355303269,563.4256353061843 864.584705005628,580.5924740157 C884.3217107182126,589.3995489101685 903.6236508692496,599.7166740722478 924.4485329554076,605.4992555712831 C994.642048057605,624.9903489711344 1082.5950148500701,627.2521398139642 1146.3569213883811,587.0859300638784 C1165.809783677545,574.8317835151606 1214.633482634869,524.8635925251588 1224.4699144398533,511.0067020387322 C1241.8700106142887,486.4946399492784 1256.0008852155793,442.54293665358716 1262.0717673705267,415.08230496746705 C1268.9226860972199,384.093306818002 1270.5556395732174,349.35095287467004 1263.07496984988,318.1547054168491 C1256.012951743489,288.70433899961847 1204.9776133463292,253.07615883115915 1180.2469251454472,239.3668306974485 C1078.1400135246288,182.7643963147431 1059.5442390286537,156.8079052514169 943.6644204462954,183.98093381460228 C928.1333852766652,187.6228558286608 824.4296220476746,205.24426197271345 815.2545030890595,219.00182036657426 C795.0802053867735,249.2520089413746 776.5212991620562,247.70451463389668 761.5558103760337,273.28419452213296Z"/>
    <path id="path-6" opacity="1" fill-rule="evenodd" d="M807.5250746806632,272.89421727264175 C780.5379976773747,319.0217310968511 775.146789014357,388.24174396760395 782.8219496806629,441.05046727264204 C784.0480794453639,449.48681802741095 786.1320132401639,457.7881228885977 788.3219496806629,466.0270297726419 C788.9767973626675,468.49067619428826 789.8465777732675,470.98498693486505 791.329762180663,473.05827977264215 C814.3268136742547,505.20507279036144 862.8269229578212,521.4385598210191 895.782887180663,536.144217272642 C912.690231045268,543.6886364135437 929.2248839779329,552.5266124140381 947.064137180663,557.480154772642 C1007.194124179729,574.1768423658516 1082.5374196687826,576.1143639983836 1137.1578871806635,541.7067172726421 C1153.8218247942596,531.2094274363053 1195.6457508261146,488.40509330057836 1204.0719496806635,476.53484227264227 C1218.977422860458,455.5370339620992 1231.0823773541024,417.88661363610555 1236.2828871806635,394.3629672726418 C1242.1516010264932,367.81681050689986 1243.550440664868,338.0554103563595 1237.1422621806635,311.3317172726419 C1231.0927139238734,286.1036011538302 1187.3742275388245,255.5833742181831 1166.1891371806632,243.83952977264195 C1078.7211245111798,195.35209274099788 1062.791395432182,173.1169408483081 963.5250746806632,196.3942172726431 C950.2206983223598,199.51400295424224 861.3847720172785,214.60905725953626 853.5250746806632,226.39421727264187 C836.2431326552842,252.30748636984788 820.3449861045041,250.9818537604209 807.5250746806632,272.89421727264175Z"/>
    <path id="path-7" opacity="1" fill-rule="evenodd" d="M926.5876015923578,219.59826532843547 C967.008010815124,208.92177922293615 1009.8052719966148,203.48976877398528 1050.884476592358,213.25842157843547 C1056.9601400812985,214.70321701116606 1062.5658970175523,217.8157086764714 1068.661820342358,219.17248407843545 C1107.039220113424,227.71417812974377 1137.2310153911408,230.7140425928535 1168.8649453423582,257.40295282843545 C1181.1660865067217,267.78117813389713 1199.3985523042263,295.7584989185213 1207.216507842358,309.66467157843545 C1211.5270723193094,317.33207945582865 1221.8830959415716,337.4501739551244 1223.450882842358,348.82092157843556 C1230.4249810749666,399.40222881055695 1182.4538954179015,479.2153437153913 1169.423539092358,506.21935907843545 C1163.4245113809338,518.6517003310729 1140.6228469752516,560.8818096878697 1118.357132842358,561.8443590784354 C1100.4464734672465,562.6186389494178 1082.5084869843377,560.5705301353801 1064.583695342358,560.8756090784354 C1025.744790177691,561.5366450544029 989.9221111733412,564.0253207353446 950.9391640923578,558.0162340784354 C917.2389487768262,552.8214622781702 876.6019505622605,546.6870504371946 847.4743203423578,526.6685778284354 C833.4248998425738,517.0128682042557 820.9730532774563,499.3426529591397 812.2126015923578,485.8873278284355 C805.4313894780233,475.47195005358327 793.5995951178392,457.4440126618075 790.0954140923578,442.82873407843545 C786.8461208453995,429.27654437760714 788.1663944643406,400.96851677739477 789.4938515923578,392.80920282843545 C792.9803948741118,371.37890528281605 796.9680467301853,349.74968392721087 804.7829140923578,329.4927965784355 C821.738859603921,285.5413560482641 864.177598545425,245.24401013644925 908.4626015923579,230.15295282843547 L926.5876015923578,219.59826532843547Z"/>
    <path id="path-8" opacity="1" fill-rule="evenodd" d="M913.3180703423578,237.14904657843545 C900.166083297304,216.8394056501398 898.909143958048,210.71720701364112 903.0954140923578,187.05139032843545 "/>
    <path id="path-9" opacity="1" fill-rule="evenodd" d="M811.5680703423577,364.47326532843545 C765.853738411691,361.76186274274977 783.0217997590556,365.0406531907842 759.3454140923577,359.75842157843545 "/>
    <path id="path-10" opacity="1" fill-rule="evenodd" d="M821.7907265923577,479.12170282843545 C814.8623411756911,479.77925491176876 807.9339557590243,480.43680699510213 801.0055703423577,481.09435907843545 "/>
    <path id="path-11" opacity="1" fill-rule="evenodd" d="M832.3141640923577,506.14123407843545 C822.7494733338974,516.2327319580035 827.7208474644635,512.2505609153822 817.8844765923577,518.6685778284354 "/>
    <path id="path-12" opacity="1" fill-rule="evenodd" d="M863.1071328423577,527.1724840784354 C862.2204140923577,531.4758694951021 861.3336953423577,535.7792549117688 860.4469765923577,540.0826403284354 "/>
    <path id="path-13" opacity="1" fill-rule="evenodd" d="M880.5446328423577,540.7779528284354 C876.7834825240714,546.2757820535824 877.8133510794656,543.3732209029852 877.0251015923577,549.3209215784354 "/>
    <path id="path-14" opacity="1" fill-rule="evenodd" d="M893.7751015923577,544.1802965784354 C893.4170286756911,547.3365465784354 893.0589557590243,550.4927965784354 892.7008828423577,553.6490465784354 "/>
    <path id="path-15" opacity="1" fill-rule="evenodd" d="M908.3336953423574,544.5279528284354 C906.8496327270044,557.2752237972584 903.2787635433587,555.0300777346125 910.8258828423573,556.9342028284354 "/>
    <path id="path-16" opacity="1" fill-rule="evenodd" d="M1153.4899453423577,506.29748407843545 C1154.1865323780746,516.9690560266251 1153.9447453752935,526.9444234767723 1168.6071328423577,524.1568590784354 C1169.6941483515398,523.9501993007804 1169.409216175691,522.0943590784354 1169.8102578423577,521.0631090784354 "/>
    <path id="path-17" opacity="1" fill-rule="evenodd" d="M1160.5758828423577,469.1490465784356 C1168.233867299668,478.4008879634463 1172.6346829674262,464.03809896346905 1161.9938515923577,468.0670153284356 "/>
    <path id="path-18" opacity="1" fill-rule="evenodd" d="M1163.3219765923577,451.94982782843545 C1175.2887324656133,452.4006302757156 1170.965803326995,454.5392761899938 1177.4977578423577,449.05139032843545 "/>
    <path id="path-19" opacity="1" fill-rule="evenodd" d="M1856.7399453423577,452.28185907843545 C1858.531046759806,462.64617716201013 1866.4364360101138,456.4900872273632 1857.2555703423577,451.35217157843545 "/>
    <path id="path-20" opacity="1" fill-rule="evenodd" d="M1867.3493203423577,442.27014032843545 C1868.3208402899986,451.4072452905466 1877.0451030274708,442.7659247849024 1865.4157265923577,441.03185907843545 "/>
    <path id="path-21" opacity="1" fill-rule="evenodd" d="M1884.6149453423577,335.27404657843545 C1877.9813886117308,337.81101811804825 1878.2228400863632,341.9670419261539 1887.8766640923577,341.34435907843545 C1888.423483680042,341.30908858066834 1888.9041773596043,340.3321593673853 1888.6071328423577,339.87170282843545 L1888.3493203423577,336.04748407843545 C1887.351601154867,334.50089325705136 1885.4300495090245,333.80529657843545 1883.9704140923577,332.68420282843545 "/>
    <path id="path-22" opacity="1" fill-rule="evenodd" d="M1911.6735390923582,262.87560907843545 C1907.4946997761595,271.96657241113826 1920.5710005385608,266.70261457012214 1911.8024453423582,262.10217157843545 "/>
    <path id="path-23" opacity="1" fill-rule="evenodd" d="M1679.532914092358,282.08654657843545 C1674.313904841531,272.69232992694674 1675.720388285846,287.2739355123555 1679.103226592358,285.56310907843545 C1684.1934439046697,282.9887979399053 1680.2043986109077,278.7357983907899 1677.212601592358,278.14123407843545 "/>
    <path id="path-24" opacity="1" fill-rule="evenodd" d="M1660.2477578423577,366.15685907843545 C1661.761938775439,389.32186088583444 1674.7951791127637,371.0869490795781 1662.0524453423577,365.88732782843545 "/>
    <path id="path-25" opacity="1" fill-rule="evenodd" d="M1705.3024453423577,519.1920153284354 C1705.8865045244738,530.2208731309927 1710.4941284114077,522.1636338176764 1705.0446328423577,517.8756090784354 "/>
    <path id="path-26" opacity="1" fill-rule="evenodd" d="M1654.536820342357,532.7974840784354 C1654.3076536756903,534.8079007451021 1653.3610603770799,536.86509084683 1653.849320342357,538.8287340784354 C1659.201666191732,560.3543524943818 1665.3224706687363,538.4674838565635 1657.196976592357,534.2662340784354 "/>
    <path id="path-27" opacity="1" fill-rule="evenodd" d="M1675.4938515923575,557.1099840784354 C1657.520738621705,571.6484673328771 1680.5772318519366,565.0998923434839 1674.8063515923575,557.6138903284354 "/>
    <path id="path-28" opacity="1" fill-rule="evenodd" d="M1696.4977578423577,547.4459215784354 C1698.8325355209622,554.4247843123007 1703.4898967679262,548.0611619741738 1699.0290078423577,544.8951403284354 "/>
    <path id="path-29" opacity="1" fill-rule="evenodd" d="M1640.5329140923577,533.8795153284354 C1642.0368203423577,535.1555569951021 1643.5407265923577,536.4315986617688 1645.0446328423577,537.7076403284354 "/>
    <path id="path-30" opacity="1" fill-rule="evenodd" d="M976.9313515923576,410.75060907843624 C973.795934925691,410.6724840784361 970.4202076871077,409.3098751395717 967.5251015923576,410.5162340784358 C944.8269894097608,419.9742883364369 992.4780619574484,433.51267016258004 973.4547890923576,413.1451403284358 "/>
    <path id="path-31" opacity="1" fill-rule="evenodd" d="M910.1032265923578,447.08264032843545 C909.8454140923578,453.3326403284353 908.2398534907904,459.6730130938054 909.3297890923578,465.832640328435 C912.6541607215502,484.6198879380717 929.5133751897743,456.43857970984584 911.7360390923578,458.680296578435 "/>
    <path id="path-32" opacity="1" fill-rule="evenodd" d="M970.1461953423577,525.2037340784354 C970.8480182590243,530.757119495102 970.9713500363623,536.414721500951 972.2516640923577,541.863890328435 C974.1944126283514,550.1324590537436 988.3409242097119,539.0718485435574 984.4508828423577,533.207640328435 C982.3813164869498,530.087784553899 979.0941120090243,527.9758694951016 976.4157265923577,525.359984078435 "/>
    <path id="path-33" opacity="1" fill-rule="evenodd" d="M1100.282914092357,528.7623278284354 C1100.2676404903941,528.826348023676 1093.726412269288,556.2568075607941 1106.079789092357,537.418577828435 "/>
    <path id="path-34" opacity="1" fill-rule="evenodd" d="M1113.251664092358,460.10998407843545 C1111.9686035811733,470.58155863638325 1109.1984453136695,470.01272900412096 1116.173539092358,468.074827828435 "/>
    <path id="path-35" opacity="1" fill-rule="evenodd" d="M1081.9430703423575,410.09045282843545 C1078.776797105793,415.31894387661 1078.4665341089762,418.7102110067531 1085.2946328423575,416.391234078435 "/>
    <path id="path-36" opacity="1" fill-rule="evenodd" d="M1135.0719765923577,354.23498407843545 C1139.4479089223728,355.6248656275875 1148.0833169051589,361.33398986096955 1151.3922890923577,355.938109078435 "/>
    <path id="path-37" opacity="1" fill-rule="evenodd" d="M1076.3610390923577,251.3404528284362 C1077.0421364993772,250.957190361811 1088.7440511522366,241.6013296012257 1091.5211953423577,246.12170282843576 "/>
    <path id="path-38" opacity="1" fill-rule="evenodd" d="M1018.3376015923577,239.1646715784359 C1029.3575504345497,218.94458195973456 1021.8581169520538,222.82271461028026 1033.2829140923577,218.71545282843545 "/>
    <path id="path-39" opacity="1" fill-rule="evenodd" d="M1052.0954140923577,222.3873278284359 C1064.222844457068,215.2432691526356 1058.4324186149424,216.70470482159044 1068.7165078423577,215.69982782843545 "/>
    <path id="path-40" opacity="1" fill-rule="evenodd" d="M886.5680703423577,242.2545153284359 C885.2360390923577,239.87040074510242 883.9040078423577,237.48628616176893 882.5719765923577,235.10217157843545 "/>
    <path id="path-41" opacity="1" fill-rule="evenodd" d="M863.2477578423577,254.2779528284359 C860.8558307590243,253.14383824510242 858.4639036756911,252.00972366176893 856.0719765923577,250.87560907843545 "/>
    <path id="path-42" opacity="1" fill-rule="evenodd" d="M852.2086953423577,270.0084215784361 C842.7571270995855,265.91900132328476 846.2288377296375,264.7305003715625 841.5993203423577,267.0709215784357 "/>
    <path id="path-43" opacity="1" fill-rule="evenodd" d="M834.0836953423577,285.77795282843545 C831.7933307590243,285.9068590784353 829.5029661756911,286.03576532843516 827.2126015923577,286.164671578435 "/>
    <path id="path-44" opacity="1" fill-rule="evenodd" d="M826.6540078423577,297.7623278284359 C823.9053099256911,297.72326532843573 821.1566120090243,297.6842028284356 818.4079140923577,297.64514032843545 "/>
    <path id="path-45" opacity="1" fill-rule="evenodd" d="M802.4313515923577,205.68810907843596 C805.9410559570581,219.8545521504981 814.5392950171208,206.9145905197693 804.4079140923577,205.9576403284355 "/>
    <path id="path-46" opacity="1" fill-rule="evenodd" d="M1484.7633828423582,177.12170282843596 C1467.3116740285116,185.69415545157455 1502.5465124440896,185.82679109698498 1488.8454140923582,175.80920282843596 "/>
    <path id="path-47" opacity="1" fill-rule="evenodd" d="M1516.4157265923577,194.5943590784359 C1516.9257194796396,203.69695939992224 1522.5394759869125,197.4899520849284 1519.8102578423577,193.85998407843545 "/>
    <path id="path-48" opacity="1" fill-rule="evenodd" d="M1533.208695342357,179.09435907843596 C1528.4482665716364,198.61108440741953 1553.0947829775575,184.25474937384553 1536.044632842357,180.52404657843596 "/>
    <path id="path-49" opacity="1" fill-rule="evenodd" d="M1536.5172890923577,206.34435907843596 C1526.7579748558685,236.6632953064609 1549.8889824244022,210.103867874899 1538.5797890923577,208.31701532843596 "/>
    <path id="path-50" opacity="1" fill-rule="evenodd" d="M1384.220414092358,352.10998407843545 C1374.3030327984293,379.98105339380686 1398.4654539988749,348.2840844445175 1382.071976592358,352.922484078435 "/>
    <path id="path-51" opacity="1" fill-rule="evenodd" d="M1482.4860390923568,455.35607782843545 C1481.1696328423568,459.18290074510196 1478.1263923157023,462.8105003932181 1478.5368203423568,466.836546578435 C1478.7232338237418,468.6651480307303 1481.9807668853662,468.4758625788697 1483.8180703423568,468.422484078435 C1496.5236227772666,468.05335434453656 1486.6853799774883,460.8445889688416 1479.4821328423568,459.027952828435 "/>
    <path id="path-52" opacity="1" fill-rule="evenodd" d="M542.5016640923577,305.9185778284359 C550.691571023649,338.709664863195 565.2439343078249,305.7477934870138 543.8766640923577,305.02795282843545 "/>
    <path id="path-53" opacity="1" fill-rule="evenodd" d="M625.6071328423577,354.0435778284361 C636.3573547700719,372.1298425828534 641.2112366498627,341.4689904066903 628.1852578423577,351.9185778284357 "/>
    <path id="path-54" opacity="1" fill-rule="evenodd" d="M681.4430703423574,456.09045282843545 C679.7672890923574,459.01493199510196 673.1012460882015,464.25148508540667 676.4157265923574,464.863890328435 L676.7165078423574,466.953734078435 C679.2318050456477,467.41847695235987 682.1732576004725,467.65143174553464 684.3649453423574,466.332640328435 C685.8029206140835,465.46737589768946 687.0555525021384,462.59005350051154 685.7790078423574,461.500609078435 C684.3186408378052,460.25428473317714 682.0290078423574,462.3261299117683 680.1540078423574,462.738890328435 "/>
    <path id="path-55" opacity="1" fill-rule="evenodd" d="M289.8766640923577,415.03967157843556 C289.9626015923577,417.7063382451021 289.59031623206596,420.42770184903475 290.1344765923577,423.0396715784351 C290.68057479115555,425.6609429326647 296.69201217702386,424.45900899437413 296.9626015923577,424.1998278284351 C298.27039354321965,422.9471733511273 296.01449641002887,418.42134920949724 297.7790078423577,418.8287340784351 C301.1930187891602,419.61695022520155 302.42651937193097,428.0833845895781 305.3376015923577,426.1334215784351 L307.5251015923577,426.0162340784351 C314.482497117644,421.3558834249894 305.5247814583849,409.8756901792142 298.9352578423577,413.0670153284351 C285.35013762844227,419.6463279343434 304.26043056732055,416.0542890870617 288.8883828423577,418.0162340784351 "/>
    <path id="path-56" opacity="1" fill-rule="evenodd" d="M312.5954140923577,396.25451532843545 C312.18139614881943,399.95110411002713 310.03509807173884,404.2233211536651 316.7165078423577,404.293577828435 C321.8548419295222,404.34760868108657 319.75430283623376,390.6025858655577 308.7711953423577,397.801390328435 "/>
    <path id="path-57" opacity="1" fill-rule="evenodd" d="M284.3336953423579,405.87951532843607 C277.09911287104677,412.2073889148192 286.68611824206573,413.28364742064065 289.7047890923579,408.8951403284356 C294.29108173309515,402.2276436787578 285.8816529653032,401.7964776015222 282.6149453423579,403.3287340784356 "/>
    <path id="path-58" opacity="1" fill-rule="evenodd" d="M348.5876015923577,433.2857653284359 C348.5876015923577,454.4197411210786 372.1885535883716,435.4175209637661 349.5758828423577,431.69982782843545 "/>
    <path id="path-59" opacity="1" fill-rule="evenodd" d="M298.5524453423578,447.3170153284359 C297.3493203423578,448.43810907843573 295.6100742217783,449.1771442951482 294.9430703423578,450.68029657843545 C289.24357810787126,463.5246068293591 312.0631967868442,446.84420938760616 295.9313515923578,445.03576532843545 "/>
    <path id="path-60" opacity="1" fill-rule="evenodd" d="M273.5954140923577,429.7662340784359 C274.29901539221936,439.6422377783104 283.54885913947385,430.1531356169424 275.9586953423577,425.94201532843545 "/>
    <path id="path-61" opacity="1" fill-rule="evenodd" d="M259.98213284235766,320.10607782843545 C258.15010159235766,320.3638903284353 255.82403294027995,319.60179147366244 254.48603909235766,320.879515328435 C237.89593743047982,336.72231511365084 271.4073492943028,328.025701046051 258.52119534235766,321.535765328435 "/>
    <path id="path-62" opacity="1" fill-rule="evenodd" d="M324.7477578423577,162.5123278284359 C330.035350447402,169.75369365411197 329.8819384709663,172.16210481099114 337.5915078423577,175.15295282843545 C338.1098033177835,175.35402021890212 339.5529379639577,175.06254611144254 339.1813515923577,174.64904657843545 L338.8805703423577,170.82092157843545 C335.82118888237426,167.41645655581726 331.6930703423577,165.1516507451021 328.0993203423577,162.31701532843545 "/>
    <path id="path-63" opacity="1" fill-rule="evenodd" d="M557.3610390923573,162.04748407843545 C555.7213038736295,174.6808986045414 565.341273862337,163.43280292276344 559.7672890923573,160.46154657843545 "/>
    <path id="path-64" opacity="1" fill-rule="evenodd" d="M588.1579140923576,166.10607782843596 C579.521684673433,183.2193923895225 599.3761281154167,171.56049405319587 587.9860390923576,168.4263903284355 "/>
    <path id="path-65" opacity="1" fill-rule="evenodd" d="M562.5172890923574,181.29748407843596 C561.1422890923574,183.15295282843582 558.9957812541377,184.63472310884524 558.3922890923574,186.8638903284355 C556.1873137261248,195.0085840257152 574.4533824458401,184.3131090784355 560.5836953423574,184.3131090784355 "/>
    <path id="path-66" opacity="1" fill-rule="evenodd" d="M539.5368203423577,212.3365465784359 C544.3496811454653,222.21908091525054 538.5443546628504,212.36260947608875 542.7165078423577,210.17248407843545 C547.1232723356883,207.85920208156978 552.5654661756911,208.7297757451021 557.4899453423577,208.00842157843545 "/>
    <path id="path-67" opacity="1" fill-rule="evenodd" d="M494.5290078423579,159.22717157843564 C491.12145575902457,159.61389032843547 487.6146482760488,159.48392556758438 484.3063515923579,160.3873278284352 C472.1129110881425,163.71701158181867 489.9334845510951,172.34777840643952 490.7047890923579,174.30139032843516 C491.6183921598504,176.61542551057354 485.96194208613986,178.1151355635805 486.5836953423579,180.5240465784352 L484.9508828423579,186.8248278284352 C485.80384080108286,190.12951469807643 488.24985917183824,190.49045711564438 493.5407265923579,183.0748278284352 C495.05620813355404,180.95074336214643 493.42705875986144,175.84860582159305 496.0290078423579,175.65295282843564 C502.654647697034,175.15473928618346 508.758852159984,183.44013369730905 515.0993203423578,181.45373407843564 C518.7727409389852,180.30289141773324 512.0677417187012,173.0824513993726 514.2829140923578,169.93420282843564 C516.369315929593,166.96896559426384 521.8861222155926,169.56274958845745 524.8922890923579,167.53576532843564 C528.5493837361926,165.06987651242972 524.2602177257129,161.3884849358228 522.4860390923579,161.00451532843564 C520.3005574537381,160.53153109169855 518.0002097554025,160.339130598176 515.7868203423579,160.65685907843564 C513.8736462471761,160.93149213403433 511.8268642339872,164.02052032906434 510.3766640923579,162.74279657843564 C506.7599187941453,159.55620099425028 506.8199598935343,153.56755281898134 503.6344765923579,149.94982782843564 C501.1376197307602,147.11416974707586 486.6703542430045,160.37384334028215 497.4899453423579,161.96935907843564 "/>
    <path id="path-68" opacity="1" fill-rule="evenodd" d="M1503.5329140923577,282.76623407843624 C1521.4031404410991,253.1681947928811 1505.4250367302795,271.504571521495 1517.2751015923577,285.6646715784358 C1519.6307101863758,288.4794792418967 1524.9986510154656,284.58072327709897 1528.2711953423577,286.2427965784358 C1529.7109006847538,286.9740000618309 1529.3611362399117,290.3319009024707 1527.9274453423577,291.0748278284358 C1509.7238018583116,300.5078073626162 1512.296845055487,296.82280902531727 1514.9586953423577,292.0435778284358 "/>
    <path id="path-69" opacity="1" fill-rule="evenodd" d="M1502.5876015923575,282.49279657843596 C1478.7570561466675,282.0621680389877 1494.330351301431,279.07330725049076 1499.2790078423575,294.0513903284355 C1500.7809500465207,298.59731404049273 1494.1173083618417,306.3898054239063 1498.4665078423575,308.3912340784355 C1502.5220471664263,310.25752525434586 1500.5407138970322,297.8675694194183 1504.8219765923575,296.6021715784355 C1515.090735712647,293.56707036061596 1512.3197110157028,331.6930985512726 1515.9860390923575,292.9302965784355 "/>
    <path id="path-70" opacity="1" fill-rule="evenodd" d="M1472.5251015923584,220.7623278284359 C1454.9351324013212,241.20158128512537 1498.0416319899366,229.6465264268616 1471.7516640923584,219.29357782843545 "/>
    <path id="path-71" opacity="1" fill-rule="evenodd" d="M1494.4274453423575,209.51623407843596 C1487.6328593253995,222.7238919242332 1506.9890903918522,219.87125030270442 1499.8376015923575,208.12170282843596 "/>
    <path id="path-72" opacity="1" fill-rule="evenodd" d="M345.77900784235777,313.21545282843596 C348.29984117569114,305.0227444951025 344.9025577852704,287.1342667972392 353.34150784235777,288.6373278284355 C365.82001891634064,290.8598748983644 384.0252554409344,308.4246320942418 376.61494534235777,318.7076403284355 C369.2575231646298,328.91725798675026 343.9548794625201,317.6360516568625 341.31025784235777,305.3326403284355 C339.0678798059702,294.9005622098981 360.73010485851455,295.0073059810854 371.38057034235777,294.3560778284355 C375.9977227643146,294.0737596849877 364.4591072261402,300.5446460678966 361.49775784235777,304.0982653284355 C356.9617597009823,309.54146309808607 353.5016030140115,315.8248954394379 348.95869534235777,321.2623278284355 C347.89543150314864,322.5349544489235 346.20869534235777,323.1164944951022 344.83369534235777,324.0435778284355 "/>
    <path id="path-73" opacity="1" fill-rule="evenodd" d="M1656.7089624443752,411.878394310802 C1656.9259971285708,410.7874178234025 1659.916777769483,393.7662894546675 1661.9775500093542,397.6604964452312 C1664.9355640016217,403.2502062365438 1663.1107943757122,405.74925477262343 1664.6691110479849,411.878394310802 C1665.0467973902425,413.36390257401376 1679.1564893307254,410.8625545145549 1674.2275367093496,415.27798687990366 C1662.0348172654953,426.200414460265 1670.5988751156833,410.4310945646909 1668.38627658296,436.6594978773031 C1668.222498579015,438.6009416040649 1665.6835851735796,433.79552857632655 1664.6691110479846,432.12497241376894 C1663.5472899000713,430.2776456218361 1664.1008186294105,425.56579856982466 1662.0348172654951,426.200414460265 C1658.543547115066,427.2728317170879 1652.6790224565827,438.5786337400333 1651.6069705336238,435.0872513905208 C1651.6069705336238,435.0872513905208 1656.4147411184101,421.42640774377736 1653.2729270759096,421.42640774377725 C1652.9902660082682,421.4264077437772 1647.560421040795,419.86457348538426 1647.2650712952925,419.86457348538426 C1645.942718289852,419.86457348538426 1643.2061268028672,418.64029896292396 1643.6103791306516,416.09534680846264 C1644.0005217258147,413.63922183436847 1648.1597842783483,414.20341089111275 1650.6073966082522,413.76300764926253 C1654.286240374872,413.10106674412594 1653.0837715935056,414.00769501641076 1656.7089624443754,413.0966250323482 "/>
    <path id="path-74" opacity="1" fill-rule="evenodd" d="M1785.3493203423577,185.12170282843573 C1788.4961985656698,172.84751547257267 1810.5617154378692,141.85667385752768 1807.3415078423577,192.54357782843528 C1807.1256500146594,195.94123610337454 1785.3151906796495,180.5361911619123 1784.3180703423577,179.86389032843528 "/>
    <path id="path-75" opacity="1" fill-rule="evenodd" d="M1341.8571328423577,577.1529528284359 C1344.6930703423577,568.5461819951024 1341.3706756068125,550.2271279559671 1350.3649453423577,551.3326403284354 C1360.8031249458918,552.615627945779 1365.2622445548127,569.4346913644495 1363.8493203423577,579.8560778284354 C1363.0134144619244,586.0215169586612 1354.000085826919,570.674930796185 1347.7868203423577,570.3482653284354 C1344.3773466185162,570.169010582031 1343.8336953423577,575.9159736617688 1341.8571328423577,578.6998278284354 L1341.8571328423577,577.1529528284359Z"/>
    <path id="path-76" opacity="1" fill-rule="evenodd" d="M990.1071328423575,248.97326532843545 C989.9145294630865,249.63161869757974 982.4169154326501,268.1183677705476 984.0915078423575,275.184202828435 C989.200623382593,296.74178752171747 1045.0772666357923,285.11013392825765 1039.4977578423575,264.590452828435 "/>
    <path id="path-77" opacity="1" fill-rule="evenodd" d="M971.4665078423578,326.82482782843545 C966.2234056398946,344.21558500387755 973.4781062712179,342.5594346658195 981.4274453423578,331.770140328435 "/>
    <path id="path-78" opacity="1" fill-rule="evenodd" d="M849.5758828423577,303.24670282843607 C849.5758828423577,325.95033819789546 866.4935368663746,304.7470542279222 870.7868203423577,297.8326403284356 C873.4445285112275,293.5523512661336 865.066828762332,282.77865145548407 861.5133828423577,296.1373278284356 "/>
    <path id="path-79" opacity="1" fill-rule="evenodd" d="M814.0993203423577,432.58264032843545 C814.3857786756911,437.19461949510196 813.6348355982734,441.9914110607951 814.9586953423577,446.418577828435 C819.4309727195085,461.37448072393744 833.748838748792,417.190072298131 813.3258828423577,430.418577828435 "/>
    <path id="path-80" opacity="1" fill-rule="evenodd" d="M1068.1852578423575,443.17639032843545 C1064.6579862991225,459.8347318439859 1072.1052093055996,447.7157363457117 1068.5290078423575,443.254515328435 "/>
    <path id="path-81" opacity="1" fill-rule="evenodd" d="M1119.2086953423577,263.1998278284355 C1125.261409425318,286.03506732323945 1134.402597341856,262.50850920793823 1119.8102578423577,262.81701532843505 "/>
    <path id="path-82" opacity="1" fill-rule="evenodd" d="M1099.4508828423561,275.6451403284357 C1096.9326536756894,276.9081611617689 1099.450882842358,265.11389032843533 1088.1305703423561,274.7935778284352 C1069.6938798123474,290.5582842236571 1113.782172308555,285.13502812720617 1099.4508828423564,284.6138903284353 "/>
    <path id="path-83" opacity="1" fill-rule="evenodd" d="M1039.3258828423582,323.50451532843596 C1037.3493203423582,325.12691116176916 1034.9459817864984,326.3377093343499 1033.3961953423582,328.3717028284355 C1020.5812680795752,345.19045794030023 1062.4430495947108,320.98292273465285 1037.2633828423582,321.3326403284355 "/>
    <path id="path-84" opacity="1" fill-rule="evenodd" d="M1239.3805703423577,431.11389032843584 C1239.588079257846,386.68811796708593 1250.5558595140421,345.0788090503248 1247.2868203423577,301.4654528284354 C1246.74243879376,294.2026746380506 1243.3873770168698,268.4188403260873 1237.3180703423577,259.64514032843545 C1226.2618071871052,243.6623697713557 1207.2753296314768,227.31064617034386 1191.4508828423577,216.42639032843545 C1169.22643094066,201.14012954043787 1176.2041772607051,213.51693572960056 1170.7477578423577,202.35607782843545 "/>
    <path id="path-85" opacity="1" fill-rule="evenodd" d="M767.5446328423573,257.16857782843545 C694.7509873583755,277.2469903741161 737.0477493777639,409.52538207290024 741.5133828423573,445.4967028284353 C743.5194531318494,461.6558879504596 743.1231697275234,478.0620358557039 745.2946328423573,494.1998278284352 C750.7833993725308,534.9910214921621 770.2181913991835,545.0665747379946 807.1383828423573,558.981077828435 C825.530151924472,565.9125783902792 845.0682846364055,569.6444584147844 863.2321328423573,577.152952828435 C919.6118504687211,600.4589610069241 964.5823413447109,643.2789002136578 1027.9821328423575,644.559202828435 C1084.2510403697756,645.6955035596555 1118.0613017394628,626.8671405717935 1164.3883828423573,594.934202828435 C1175.945914188636,586.9676761196203 1186.8900101483873,576.5710113640923 1191.0211953423573,562.613890328435 C1191.265807131072,561.7874746192522 1189.8180703423573,561.379515328435 1189.2165078423573,560.762327828435 "/>
    <path id="path-86" opacity="1" fill-rule="evenodd" d="M1103.4040078423577,667.2935778284359 C1143.014117553639,637.9158641921458 1172.731416464184,619.8837465954197 1193.7711953423577,574.3638903284354 C1201.8767114905609,556.8274926232922 1204.8033911368739,537.1501233194274 1213.2711953423577,519.7857653284354 C1238.9006592719932,467.22914309298034 1235.9072793602581,501.1290635556262 1237.2321328423577,482.05920282843545 "/>
    <path id="path-87" opacity="1" fill-rule="evenodd" d="M1281.6461953423573,469.5357653284366 C1295.0532592780303,423.34703764500773 1306.3812318200323,369.33481488919455 1281.9040078423573,324.2701403284359 C1274.4386862239742,310.5258411574728 1260.4461936887114,300.9663148319522 1253.380570342358,287.012327828436 C1235.4265087412898,251.55462934088058 1243.742970253929,235.4778459794988 1219.2790078423577,206.61389032843593 C1181.6967435296524,162.27222595948848 1075.8735932281834,167.9070058248549 1029.2711953423577,169.34826532843593 C1006.9695657196132,170.03798167560487 984.5731241604935,171.00086737315323 962.5290078423574,174.44982782843593 C893.2788544767036,185.2845121057958 876.5406327575424,198.22268150264716 817.5368203423576,226.48107782843593 C784.1738771058735,242.459422853625 758.5345433578977,250.22622830367396 747.2711953423576,291.4185778284359 C742.8842743455274,307.4624382143195 749.2005960104917,337.4328811287828 750.0211953423576,352.4107653284359 C755.131482313604,445.68562372771373 746.4645539020408,372.2715743953718 752.2477578423576,401.6607653284359 C752.3473133071044,402.1666880992854 752.7213718823022,403.003780372112 752.2477578423576,403.2076403284359 C751.6487995090242,403.4654528284359 751.0498411756909,402.6920153284359 750.4508828423576,402.4342028284359 "/>
    <path id="path-88" opacity="1" fill-rule="evenodd" d="M798.1227578423579,291.18420282843545 C770.2186850689919,313.928081879919 764.6558836634491,371.6243856271948 769.8571328423579,405.293577828435 C777.9998489329929,458.0037371892738 778.5564562353541,406.57891907311574 780.0836953423579,442.012327828435 C780.7631923746126,457.777309213135 777.1511584975248,487.3405729870744 799.0680703423579,492.80920282843493 "/>
    <path id="path-89" opacity="1" fill-rule="evenodd" d="M980.1383828423577,573.8248278284354 C1004.0971548844961,590.8642089627289 1041.1436801838533,610.7810372749835 1070.8493203423577,597.246702828435 "/>
    <path id="path-90" opacity="1" fill-rule="evenodd" d="M1067.0680703423577,628.8717028284359 C1128.9111996801676,607.4897698127031 1121.4619721582317,615.1782013533467 1152.5368203423577,565.3248278284354 C1165.5898631772945,544.3838334837169 1179.4525018008158,534.4994228255534 1177.7946328423577,509.89514032843545 "/>
    <path id="path-91" opacity="1" fill-rule="evenodd" d="M1123.6774453423573,583.4888903284357 C1123.4196328423573,588.6685778284356 1122.305722027925,593.8764788678042 1122.9040078423573,599.0279528284352 C1123.0031482182815,599.8815900912622 1125.3715054166694,599.8801775425281 1125.4821328423573,599.0279528284352 L1127.1149453423573,596.4810778284352 C1127.6592310420126,592.2881417469007 1128.7863250483942,587.8156597850527 1127.4586953423573,583.8013903284352 C1126.9718760091332,582.3294256899779 1124.3649453423573,583.5930569951018 1122.8180703423573,583.4888903284352 "/>
    <path id="path-92" opacity="1" fill-rule="evenodd" d="M1081.7555703423575,577.0748278284359 C1073.8765391541358,576.2849333790687 1047.7448042141973,581.3775757210311 1080.1227578423575,581.2467028284354 C1089.385050936161,581.2092642953157 1089.3476101724789,575.3031698154938 1076.5133828423575,572.8170153284354 "/>
    <path id="path-93" opacity="1" fill-rule="evenodd" d="M1123.5055703423577,208.69982782843596 C1159.2624096053883,209.24413568606911 1166.3352709110034,216.12411047440742 1191.3649453423577,242.3248278284355 "/>
    <path id="path-94" opacity="1" fill-rule="evenodd" d="M752.1618203423577,542.9029528284354 C760.3787628348904,557.8615231387041 754.9684008646818,572.4058916591807 774.4977578423577,581.6373278284351 C794.8322601804831,591.2493524630679 819.5146776844897,584.9567858267319 840.8102578423577,592.6138903284352 C869.0597374494347,602.7713603699456 884.4153991017212,623.1250419955659 908.6696328423577,640.0045153284354 C918.4464444306049,646.8085822904774 938.2256995761621,645.9085286252607 947.9274453423577,646.4967028284354 "/>
    <path id="path-95" opacity="1" fill-rule="evenodd" d="M695.216507842358,178.8560778284359 C686.3389213168881,177.18218945999652 681.3798494241183,184.4120794577229 686.279007842358,188.75451532843545 C689.4449033895933,191.5606500180302 703.8487978199863,181.13846762029095 688.427445342358,177.38732782843545 "/>
    <path id="path-96" opacity="1" fill-rule="evenodd" d="M789.7868203423578,132.16076532843587 C786.4870403548464,144.92491428012707 796.1137881392215,147.6568841531652 801.0446328423578,137.80920282843542 C805.3850463438733,129.14070654557912 795.1391904773967,124.8108927271304 790.4743203423578,131.85607782843542 L789.7868203423578,132.16076532843587Z"/>
  </defs>
  <g opacity="1">
    <g opacity="1">
      <use xlink:href="#path-0" fill="rgb(216,216,216)" fill-opacity="1"/>
    </g>
    <g opacity="1">
      <use xlink:href="#path-1" fill="rgb(238,238,238)" fill-opacity="1"/>
    </g>
    <g opacity="1">
      <use xlink:href="#path-2" fill="rgb(238,238,238)" fill-opacity="1"/>
    </g>
    <g opacity="1">
      <use xlink:href="#path-3" fill="rgb(238,238,238)" fill-opacity="1"/>
    </g>
    <g opacity="1">
      <use xlink:href="#path-4" fill="rgb(225,225,225)" fill-opacity="1"/>
    </g>
    <g opacity="1">
      <use xlink:href="#path-5" fill="rgb(232,232,232)" fill-opacity="1"/>
    </g>
    <g opacity="1">
      <use xlink:href="#path-6" fill="rgb(247,247,241)" fill-opacity="1"/>
    </g>
    <g opacity="1">
      <use xlink:href="#path-7" fill-opacity="0" stroke="rgb(210,210,210)" stroke-opacity="1" stroke-width="5" stroke-linecap="round" stroke-linejoin="round"/>
    </g>
    <g opacity="1">
      <use xlink:href="#path-8" fill-opacity="0" stroke="rgb(190,189,189)" stroke-opacity="1" stroke-width="5" stroke-linecap="round" stroke-linejoin="round"/>
    </g>
    <g opacity="1">
      <use xlink:href="#path-9" fill-opacity="0" stroke="rgb(190,189,189)" stroke-opacity="1" stroke-width="5" stroke-linecap="round" stroke-linejoin="round"/>
    </g>
    <g opacity="1">
      <use xlink:href="#path-10" fill-opacity="0" stroke="rgb(190,189,189)" stroke-opacity="1" stroke-width="5" stroke-linecap="round" stroke-linejoin="round"/>
    </g>
    <g opacity="1">
      <use xlink:href="#path-11" fill-opacity="0" stroke="rgb(190,189,189)" stroke-opacity="1" stroke-width="5" stroke-linecap="round" stroke-linejoin="round"/>
    </g>
    <g opacity="1">
      <use xlink:href="#path-12" fill-opacity="0" stroke="rgb(190,189,189)" stroke-opacity="1" stroke-width="5" stroke-linecap="round" stroke-linejoin="round"/>
    </g>
    <g opacity="1">
      <use xlink:href="#path-13" fill-opacity="0" stroke="rgb(190,189,189)" stroke-opacity="1" stroke-width="5" stroke-linecap="round" stroke-linejoin="round"/>
    </g>
    <g opacity="1">
      <use xlink:href="#path-14" fill-opacity="0" stroke="rgb(190,189,189)" stroke-opacity="1" stroke-width="5" stroke-linecap="round" stroke-linejoin="round"/>
    </g>
    <g opacity="1">
      <use xlink:href="#path-15" fill-opacity="0" stroke="rgb(190,189,189)" stroke-opacity="1" stroke-width="5" stroke-linecap="round" stroke-linejoin="round"/>
    </g>
    <g opacity="1">
      <use xlink:href="#path-16" fill-opacity="0" stroke="rgb(190,189,189)" stroke-opacity="1" stroke-width="5" stroke-linecap="round" stroke-linejoin="round"/>
    </g>
    <g opacity="1">
      <use xlink:href="#path-17" fill-opacity="0" stroke="rgb(210,210,210)" stroke-opacity="1" stroke-width="5" stroke-linecap="round" stroke-linejoin="round"/>
    </g>
    <g opacity="1">
      <use xlink:href="#path-18" fill-opacity="0" stroke="rgb(210,210,210)" stroke-opacity="1" stroke-width="5" stroke-linecap="round" stroke-linejoin="round"/>
    </g>
    <g opacity="1">
      <use xlink:href="#path-19" fill-opacity="0" stroke="rgb(151,151,151)" stroke-opacity="1" stroke-width="5" stroke-linecap="round" stroke-linejoin="round"/>
    </g>
    <g opacity="1">
      <use xlink:href="#path-20" fill-opacity="0" stroke="rgb(151,151,151)" stroke-opacity="1" stroke-width="5" stroke-linecap="round" stroke-linejoin="round"/>
    </g>
    <g opacity="1">
      <use xlink:href="#path-21" fill-opacity="0" stroke="rgb(151,151,151)" stroke-opacity="1" stroke-width="5" stroke-linecap="round" stroke-linejoin="round"/>
    </g>
    <g opacity="1">
      <use xlink:href="#path-22" fill-opacity="0" stroke="rgb(151,151,151)" stroke-opacity="1" stroke-width="5" stroke-linecap="round" stroke-linejoin="round"/>
    </g>
    <g opacity="1">
      <use xlink:href="#path-23" fill-opacity="0" stroke="rgb(151,151,151)" stroke-opacity="1" stroke-width="5" stroke-linecap="round" stroke-linejoin="round"/>
    </g>
    <g opacity="1">
      <use xlink:href="#path-24" fill-opacity="0" stroke="rgb(151,151,151)" stroke-opacity="1" stroke-width="5" stroke-linecap="round" stroke-linejoin="round"/>
    </g>
    <g opacity="1">
      <use xlink:href="#path-25" fill-opacity="0" stroke="rgb(151,151,151)" stroke-opacity="1" stroke-width="5" stroke-linecap="round" stroke-linejoin="round"/>
    </g>
    <g opacity="1">
      <use xlink:href="#path-26" fill-opacity="0" stroke="rgb(151,151,151)" stroke-opacity="1" stroke-width="5" stroke-linecap="round" stroke-linejoin="round"/>
    </g>
    <g opacity="1">
      <use xlink:href="#path-27" fill-opacity="0" stroke="rgb(151,151,151)" stroke-opacity="1" stroke-width="5" stroke-linecap="round" stroke-linejoin="round"/>
    </g>
    <g opacity="1">
      <use xlink:href="#path-28" fill-opacity="0" stroke="rgb(151,151,151)" stroke-opacity="1" stroke-width="5" stroke-linecap="round" stroke-linejoin="round"/>
    </g>
    <g opacity="1">
      <use xlink:href="#path-29" fill-opacity="0" stroke="rgb(151,151,151)" stroke-opacity="1" stroke-width="5" stroke-linecap="round" stroke-linejoin="round"/>
    </g>
    <g opacity="1">
      <use xlink:href="#path-30" fill-opacity="0" stroke="rgb(187,187,187)" stroke-opacity="1" stroke-width="5" stroke-linecap="round" stroke-linejoin="round"/>
    </g>
    <g opacity="1">
      <use xlink:href="#path-31" fill-opacity="0" stroke="rgb(187,187,187)" stroke-opacity="1" stroke-width="5" stroke-linecap="round" stroke-linejoin="round"/>
    </g>
    <g opacity="1">
      <use xlink:href="#path-32" fill-opacity="0" stroke="rgb(187,187,187)" stroke-opacity="1" stroke-width="5" stroke-linecap="round" stroke-linejoin="round"/>
    </g>
    <g opacity="1">
      <use xlink:href="#path-33" fill-opacity="0" stroke="rgb(187,187,187)" stroke-opacity="1" stroke-width="5" stroke-linecap="round" stroke-linejoin="round"/>
    </g>
    <g opacity="1">
      <use xlink:href="#path-34" fill-opacity="0" stroke="rgb(187,187,187)" stroke-opacity="1" stroke-width="5" stroke-linecap="round" stroke-linejoin="round"/>
    </g>
    <g opacity="1">
      <use xlink:href="#path-35" fill-opacity="0" stroke="rgb(187,187,187)" stroke-opacity="1" stroke-width="5" stroke-linecap="round" stroke-linejoin="round"/>
    </g>
    <g opacity="1">
      <use xlink:href="#path-36" fill-opacity="0" stroke="rgb(187,187,187)" stroke-opacity="1" stroke-width="5" stroke-linecap="round" stroke-linejoin="round"/>
    </g>
    <g opacity="1">
      <use xlink:href="#path-37" fill-opacity="0" stroke="rgb(187,187,187)" stroke-opacity="1" stroke-width="5" stroke-linecap="round" stroke-linejoin="round"/>
    </g>
    <g opacity="1">
      <use xlink:href="#path-38" fill-opacity="0" stroke="rgb(187,187,187)" stroke-opacity="1" stroke-width="5" stroke-linecap="round" stroke-linejoin="round"/>
    </g>
    <g opacity="1">
      <use xlink:href="#path-39" fill-opacity="0" stroke="rgb(187,187,187)" stroke-opacity="1" stroke-width="5" stroke-linecap="round" stroke-linejoin="round"/>
    </g>
    <g opacity="1">
      <use xlink:href="#path-40" fill-opacity="0" stroke="rgb(187,187,187)" stroke-opacity="1" stroke-width="5" stroke-linecap="round" stroke-linejoin="round"/>
    </g>
    <g opacity="1">
      <use xlink:href="#path-41" fill-opacity="0" stroke="rgb(187,187,187)" stroke-opacity="1" stroke-width="5" stroke-linecap="round" stroke-linejoin="round"/>
    </g>
    <g opacity="1">
      <use xlink:href="#path-42" fill-opacity="0" stroke="rgb(187,187,187)" stroke-opacity="1" stroke-width="5" stroke-linecap="round" stroke-linejoin="round"/>
    </g>
    <g opacity="1">
      <use xlink:href="#path-43" fill-opacity="0" stroke="rgb(187,187,187)" stroke-opacity="1" stroke-width="5" stroke-linecap="round" stroke-linejoin="round"/>
    </g>
    <g opacity="1">
      <use xlink:href="#path-44" fill-opacity="0" stroke="rgb(187,187,187)" stroke-opacity="1" stroke-width="5" stroke-linecap="round" stroke-linejoin="round"/>
    </g>
    <g opacity="1">
      <use xlink:href="#path-45" fill-opacity="0" stroke="rgb(151,151,151)" stroke-opacity="1" stroke-width="5" stroke-linecap="round" stroke-linejoin="round"/>
    </g>
    <g opacity="1">
      <use xlink:href="#path-46" fill-opacity="0" stroke="rgb(151,151,151)" stroke-opacity="1" stroke-width="5" stroke-linecap="round" stroke-linejoin="round"/>
    </g>
    <g opacity="1">
      <use xlink:href="#path-47" fill-opacity="0" stroke="rgb(151,151,151)" stroke-opacity="1" stroke-width="5" stroke-linecap="round" stroke-linejoin="round"/>
    </g>
    <g opacity="1">
      <use xlink:href="#path-48" fill-opacity="0" stroke="rgb(151,151,151)" stroke-opacity="1" stroke-width="5" stroke-linecap="round" stroke-linejoin="round"/>
    </g>
    <g opacity="1">
      <use xlink:href="#path-49" fill-opacity="0" stroke="rgb(151,151,151)" stroke-opacity="1" stroke-width="5" stroke-linecap="round" stroke-linejoin="round"/>
    </g>
    <g opacity="1">
      <use xlink:href="#path-50" fill-opacity="0" stroke="rgb(151,151,151)" stroke-opacity="1" stroke-width="5" stroke-linecap="round" stroke-linejoin="round"/>
    </g>
    <g opacity="1">
      <use xlink:href="#path-51" fill-opacity="0" stroke="rgb(151,151,151)" stroke-opacity="1" stroke-width="5" stroke-linecap="round" stroke-linejoin="round"/>
    </g>
    <g opacity="1">
      <use xlink:href="#path-52" fill-opacity="0" stroke="rgb(151,151,151)" stroke-opacity="1" stroke-width="5" stroke-linecap="round" stroke-linejoin="round"/>
    </g>
    <g opacity="1">
      <use xlink:href="#path-53" fill-opacity="0" stroke="rgb(151,151,151)" stroke-opacity="1" stroke-width="5" stroke-linecap="round" stroke-linejoin="round"/>
    </g>
    <g opacity="1">
      <use xlink:href="#path-54" fill-opacity="0" stroke="rgb(151,151,151)" stroke-opacity="1" stroke-width="5" stroke-linecap="round" stroke-linejoin="round"/>
    </g>
    <g opacity="1">
      <use xlink:href="#path-55" fill-opacity="0" stroke="rgb(151,151,151)" stroke-opacity="1" stroke-width="5" stroke-linecap="round" stroke-linejoin="round"/>
    </g>
    <g opacity="1">
      <use xlink:href="#path-56" fill-opacity="0" stroke="rgb(151,151,151)" stroke-opacity="1" stroke-width="5" stroke-linecap="round" stroke-linejoin="round"/>
    </g>
    <g opacity="1">
      <use xlink:href="#path-57" fill-opacity="0" stroke="rgb(151,151,151)" stroke-opacity="1" stroke-width="5" stroke-linecap="round" stroke-linejoin="round"/>
    </g>
    <g opacity="1">
      <use xlink:href="#path-58" fill-opacity="0" stroke="rgb(151,151,151)" stroke-opacity="1" stroke-width="5" stroke-linecap="round" stroke-linejoin="round"/>
    </g>
    <g opacity="1">
      <use xlink:href="#path-59" fill-opacity="0" stroke="rgb(151,151,151)" stroke-opacity="1" stroke-width="5" stroke-linecap="round" stroke-linejoin="round"/>
    </g>
    <g opacity="1">
      <use xlink:href="#path-60" fill-opacity="0" stroke="rgb(151,151,151)" stroke-opacity="1" stroke-width="5" stroke-linecap="round" stroke-linejoin="round"/>
    </g>
    <g opacity="1">
      <use xlink:href="#path-61" fill-opacity="0" stroke="rgb(151,151,151)" stroke-opacity="1" stroke-width="5" stroke-linecap="round" stroke-linejoin="round"/>
    </g>
    <g opacity="1">
      <use xlink:href="#path-62" fill-opacity="0" stroke="rgb(151,151,151)" stroke-opacity="1" stroke-width="5" stroke-linecap="round" stroke-linejoin="round"/>
    </g>
    <g opacity="1">
      <use xlink:href="#path-63" fill-opacity="0" stroke="rgb(151,151,151)" stroke-opacity="1" stroke-width="5" stroke-linecap="round" stroke-linejoin="round"/>
    </g>
    <g opacity="1">
      <use xlink:href="#path-64" fill-opacity="0" stroke="rgb(151,151,151)" stroke-opacity="1" stroke-width="5" stroke-linecap="round" stroke-linejoin="round"/>
    </g>
    <g opacity="1">
      <use xlink:href="#path-65" fill-opacity="0" stroke="rgb(151,151,151)" stroke-opacity="1" stroke-width="5" stroke-linecap="round" stroke-linejoin="round"/>
    </g>
    <g opacity="1">
      <use xlink:href="#path-66" fill-opacity="0" stroke="rgb(151,151,151)" stroke-opacity="1" stroke-width="5" stroke-linecap="round" stroke-linejoin="round"/>
    </g>
    <g opacity="1">
      <use xlink:href="#path-67" fill-opacity="0" stroke="rgb(151,151,151)" stroke-opacity="1" stroke-width="5" stroke-linecap="round" stroke-linejoin="round"/>
    </g>
    <g opacity="1">
      <use xlink:href="#path-68" fill-opacity="0" stroke="rgb(151,151,151)" stroke-opacity="1" stroke-width="5" stroke-linecap="round" stroke-linejoin="round"/>
    </g>
    <g opacity="1">
      <use xlink:href="#path-69" fill-opacity="0" stroke="rgb(151,151,151)" stroke-opacity="1" stroke-width="5" stroke-linecap="round" stroke-linejoin="round"/>
    </g>
    <g opacity="1">
      <use xlink:href="#path-70" fill-opacity="0" stroke="rgb(151,151,151)" stroke-opacity="1" stroke-width="5" stroke-linecap="round" stroke-linejoin="round"/>
    </g>
    <g opacity="1">
      <use xlink:href="#path-71" fill-opacity="0" stroke="rgb(151,151,151)" stroke-opacity="1" stroke-width="5" stroke-linecap="round" stroke-linejoin="round"/>
    </g>
    <g opacity="1">
      <use xlink:href="#path-72" fill-opacity="0" stroke="rgb(155,155,155)" stroke-opacity="1" stroke-width="6"/>
    </g>
    <g opacity="1">
      <use xlink:href="#path-73" fill-opacity="0" stroke="rgb(155,155,155)" stroke-opacity="1" stroke-width="4" stroke-linecap="round" stroke-linejoin="miter"/>
    </g>
    <g opacity="1">
      <use xlink:href="#path-74" fill-opacity="0" stroke="rgb(155,155,155)" stroke-opacity="1" stroke-width="6" stroke-linecap="round" stroke-linejoin="miter"/>
    </g>
    <g opacity="1">
      <use xlink:href="#path-75" fill-opacity="0" stroke="rgb(155,155,155)" stroke-opacity="1" stroke-width="6" stroke-linecap="round" stroke-linejoin="miter"/>
    </g>
    <g opacity="1">
      <use xlink:href="#path-76" fill-opacity="0" stroke="rgb(187,187,187)" stroke-opacity="1" stroke-width="6" stroke-linecap="round" stroke-linejoin="miter"/>
    </g>
    <g opacity="1">
      <use xlink:href="#path-77" fill-opacity="0" stroke="rgb(187,187,187)" stroke-opacity="1" stroke-width="6" stroke-linecap="round" stroke-linejoin="miter"/>
    </g>
    <g opacity="1">
      <use xlink:href="#path-78" fill-opacity="0" stroke="rgb(187,187,187)" stroke-opacity="1" stroke-width="6" stroke-linecap="round" stroke-linejoin="miter"/>
    </g>
    <g opacity="1">
      <use xlink:href="#path-79" fill-opacity="0" stroke="rgb(187,187,187)" stroke-opacity="1" stroke-width="6" stroke-linecap="round" stroke-linejoin="miter"/>
    </g>
    <g opacity="1">
      <use xlink:href="#path-80" fill-opacity="0" stroke="rgb(187,187,187)" stroke-opacity="1" stroke-width="6" stroke-linecap="round" stroke-linejoin="miter"/>
    </g>
    <g opacity="1">
      <use xlink:href="#path-81" fill-opacity="0" stroke="rgb(187,187,187)" stroke-opacity="1" stroke-width="6" stroke-linecap="round" stroke-linejoin="miter"/>
    </g>
    <g opacity="1">
      <use xlink:href="#path-82" fill-opacity="0" stroke="rgb(187,187,187)" stroke-opacity="1" stroke-width="6" stroke-linecap="round" stroke-linejoin="miter"/>
    </g>
    <g opacity="1">
      <use xlink:href="#path-83" fill-opacity="0" stroke="rgb(187,187,187)" stroke-opacity="1" stroke-width="6" stroke-linecap="round" stroke-linejoin="miter"/>
    </g>
    <g opacity="1">
      <use xlink:href="#path-84" fill-opacity="0" stroke="rgb(187,187,187)" stroke-opacity="1" stroke-width="6" stroke-linecap="round" stroke-linejoin="miter"/>
    </g>
    <g opacity="1">
      <use xlink:href="#path-85" fill-opacity="0" stroke="rgb(187,187,187)" stroke-opacity="1" stroke-width="6" stroke-linecap="round" stroke-linejoin="miter"/>
    </g>
    <g opacity="1">
      <use xlink:href="#path-86" fill-opacity="0" stroke="rgb(187,187,187)" stroke-opacity="1" stroke-width="6" stroke-linecap="round" stroke-linejoin="miter"/>
    </g>
    <g opacity="1">
      <use xlink:href="#path-87" fill-opacity="0" stroke="rgb(187,187,187)" stroke-opacity="1" stroke-width="6" stroke-linecap="round" stroke-linejoin="miter"/>
    </g>
    <g opacity="1">
      <use xlink:href="#path-88" fill-opacity="0" stroke="rgb(187,187,187)" stroke-opacity="1" stroke-width="6" stroke-linecap="round" stroke-linejoin="miter"/>
    </g>
    <g opacity="1">
      <use xlink:href="#path-89" fill-opacity="0" stroke="rgb(187,187,187)" stroke-opacity="1" stroke-width="6" stroke-linecap="round" stroke-linejoin="miter"/>
    </g>
    <g opacity="1">
      <use xlink:href="#path-90" fill-opacity="0" stroke="rgb(187,187,187)" stroke-opacity="1" stroke-width="6" stroke-linecap="round" stroke-linejoin="miter"/>
    </g>
    <g opacity="1">
      <use xlink:href="#path-91" fill-opacity="0" stroke="rgb(187,187,187)" stroke-opacity="1" stroke-width="6" stroke-linecap="round" stroke-linejoin="miter"/>
    </g>
    <g opacity="1">
      <use xlink:href="#path-92" fill-opacity="0" stroke="rgb(187,187,187)" stroke-opacity="1" stroke-width="6" stroke-linecap="round" stroke-linejoin="miter"/>
    </g>
    <g opacity="1">
      <use xlink:href="#path-93" fill-opacity="0" stroke="rgb(187,187,187)" stroke-opacity="1" stroke-width="6" stroke-linecap="round" stroke-linejoin="miter"/>
    </g>
    <g opacity="1">
      <use xlink:href="#path-94" fill-opacity="0" stroke="rgb(187,187,187)" stroke-opacity="1" stroke-width="6" stroke-linecap="round" stroke-linejoin="miter"/>
    </g>
    <g opacity="1">
      <use xlink:href="#path-95" fill-opacity="0" stroke="rgb(155,155,155)" stroke-opacity="1" stroke-width="6"/>
    </g>
    <g opacity="1">
      <use xlink:href="#path-96" fill-opacity="0" stroke="rgb(155,155,155)" stroke-opacity="1" stroke-width="6"/>
    </g>
  </g>
</svg>