<?xml version="1.0" encoding="UTF-8"?>
<svg width="1844px" height="628px" viewBox="0 0 1844 628" version="1.1" xmlns="http://www.w3.org/2000/svg" xmlns:xlink="http://www.w3.org/1999/xlink">
    <!-- Generator: Sketch 49.3 (51167) - http://www.bohemiancoding.com/sketch -->
    <title>Z (0)@2x</title>
    <desc>Created with Sketch.</desc>
    <defs></defs>
    <g id="Artwork" stroke="none" stroke-width="1" fill="none" fill-rule="evenodd">
        <g id="Why-Scene---The-Mouse-and-the-Sky" transform="translate(-76.000000, -452.000000)">
            <g id="Z-(0)" transform="translate(77.000000, 454.000000)">
                <path d="M36.0390625,62.1640625 C55.5367346,56.503448 29.7095219,64.6043768 63.1796875,49.5625 C111.632718,27.7871515 163.872528,5.98289408 217.28125,2.5625 C248.458019,0.565881614 243.040387,45.1623059 272.085937,50.4921875 C285.962038,53.0384629 281.435682,33.2524711 293.304687,31.9375 C311.460653,29.9259946 314.771405,42.0420726 331.53125,44.234375 C347.845274,46.368361 370.719266,40.6296965 385.046875,39.0546875 C407.024305,36.6387469 429.005445,33.8017699 451.101562,33.0234375 C463.267315,32.5949007 462.351358,40.1700776 473.171875,43.6875 C1354.74076,330.258856 117.300876,-80.7732604 528.320312,62.1640625 C541.409657,66.7160511 541.094796,56.3736986 554.78125,56.0625 C561.207298,55.9163864 566.920951,60.908299 573.335937,61.3125 C580.272396,61.7495583 574.64194,46.7799781 584.414063,49.796875 C595.949354,53.3581059 606.573709,57.1429522 615.335937,65.71875 C618.100733,68.4247196 618.943242,72.7793393 621.867187,75.3125 C623.126628,76.4036166 625.526225,76.7053653 626.851562,75.6953125 C634.550744,69.8276908 633.005814,64.0247528 641.109375,61.859375 C642.657468,61.4457043 644.496061,60.9568086 645.914062,61.703125 C649.843603,63.7713042 670.62395,82.472844 672.03125,82.578125 C682.111326,83.3322216 697.880949,63.9824956 702.609375,67.890625 C705.367872,70.1705726 722.813752,99.9420646 737.140625,100.664062 C755.021194,101.565148 772.930504,98.6678938 790.828125,99.1171875 C909.560505,102.097791 696.726959,123.296464 971.8125,104.453125 C989.080403,103.270275 989.349353,81.1285919 996.640625,72.296875 C1011.17554,54.6911337 1062.21354,60.2283726 1076.00781,60.6171875 C1102.05935,61.3514942 1109.30461,71.2787071 1133.39063,80.640625 C1139.53935,83.0305513 1146.18478,84.0143727 1152.28906,86.515625 C1159.28845,89.383652 1192.16574,107.370122 1204.42969,107.46875 C1215.77885,107.560022 1218.36083,78.9686383 1219.97656,75.9296875 C1221.20554,73.618165 1224.64373,73.4215638 1227.19531,72.8359375 C1244.46108,68.8731803 1241.98147,77.5968088 1255.19531,86.90625 C1260.94881,90.9597172 1267.42957,93.990175 1274.00781,96.4921875 C1298.14108,105.671193 1336.34072,97.5719297 1358.35937,85.203125 C1370.81752,78.2048642 1372.79847,59.7183951 1386.35937,53.7421875 C1389.14426,52.5149056 1392.9662,50.5017527 1395.38281,52.3515625 C1417.94131,69.6191026 1406.99213,77.7668593 1432.32031,86.90625 C1452.98812,94.363997 1470.27506,74.7460604 1491.75781,76.15625 C1501.8838,76.8209487 1506.81991,90.3103461 1517.44531,91.078125 C1764.63112,108.939484 1379.83209,73.4751208 1634.52344,105.617187 C1652.70283,107.911428 1691.31387,100.415659 1710.19531,115.046875 C1717.46153,120.677458 1715.11837,129.585831 1717.67187,136.695312 C1720.64631,144.976751 1725.77044,152.417144 1728.40625,160.8125 C1738.15373,191.859335 1727.89289,226.940497 1723.94531,257.835937 C1617.09903,1094.0605 1752.53966,116.362049 1680.04687,532.742187 C1674.82036,562.761963 1684.48468,598.740814 1661.92187,625.046875 C1647.93841,641.350246 1619.24252,640.283435 1600.50781,640.4375 C1378.24162,642.265302 1428.67073,634.437047 1246.42969,647.15625 C1186.33863,651.350203 1151.78449,658.284429 1094.30469,658.914062 C1016.22864,659.769307 938.141236,658.277455 860.0625,658.835937 C726.740129,659.789567 593.88068,663.149881 460.632812,657.515625 C406.301505,655.218279 354.299529,638.774742 300.179687,636.414062 C232.685141,633.469985 159.421816,638.965752 90.84375,632.085937 C72.268459,630.222447 53.8990419,626.645677 35.5234375,623.351562 C32.1701242,622.750429 28.8682395,621.750088 25.734375,620.414062 C24.5041105,619.889577 23.3053736,619.019868 22.640625,617.859375 C11.3311835,598.115774 10.5441854,582.508331 7.0078125,557.484375 C3.62928462,533.577356 -1.15090844,489.674401 1.3359375,463.164062 C3.37521838,441.424869 8.82981311,420.105391 11.0390625,398.382812 C13.3294637,375.862303 12.2507172,353.068489 14.8203125,330.578125 C16.7010679,314.116827 22.0888248,298.208949 24.359375,281.796875 C26.7623243,264.427789 26.5366743,246.767988 28.8203125,229.382812 C46.0984762,97.8453797 16.6463778,396.108081 41.0234375,164.601562 C43.4906636,141.170561 38.1757855,120.44537 37.84375,97.34375 L36.0390625,62.1640625 Z" id="Path-4467" fill="#A5A5A5"></path>
                <path d="M1315.94922,242.113281 C1322.75371,226.897683 1328.51744,213.287029 1332.26953,240.953125" id="Path-4300" stroke="#979797" stroke-width="5" stroke-linecap="round" stroke-linejoin="round"></path>
                <path d="M1343.4375,244.046875 C1342.66859,221.730962 1345.72485,221.063877 1359.15625,237.125" id="Path-4301" stroke="#979797" stroke-width="5" stroke-linecap="round" stroke-linejoin="round"></path>
                <path d="M1370.32422,237.125 C1381.83691,225.55826 1380.86214,227.340184 1397.76562,234.109375" id="Path-4302" stroke="#979797" stroke-width="5" stroke-linecap="round" stroke-linejoin="round"></path>
                <path d="M1253.92969,182.199219 C1255.54018,171.657809 1260.4725,162.44773 1266.12891,176.4375" id="Path-4303" stroke="#979797" stroke-width="5" stroke-linecap="round" stroke-linejoin="round"></path>
                <path d="M1269.99219,179.066406 C1277.79854,166.467364 1277.14627,176.43378 1286.23047,177.792969" id="Path-4304" stroke="#979797" stroke-width="5" stroke-linecap="round" stroke-linejoin="round"></path>
                <path d="M1067.14453,212.195312 C1067.77371,211.526505 1084.77614,188.945076 1092.78516,194.027344 C1097.31821,196.903874 1093.7401,206.021146 1098.02344,209.257812 C1101.2454,211.692461 1105.88565,206.844521 1109.92188,206.976562 C1116.35752,207.187099 1108.10249,212.15235 1114.82031,209.875 C1118.8638,208.504252 1122.3167,204.861537 1126.58594,204.8125 C1128.8885,204.786052 1129.21517,209.292204 1131.48438,209.683594 L1137.19531,211.691406 C1156.76824,215.067321 1158.85549,213.914678 1179.80078,213.429687" id="Path-4305" stroke="#979797" stroke-width="5" stroke-linecap="round" stroke-linejoin="round"></path>
                <path d="M878.855469,211.113281 C883.923177,203.252604 886.420347,192.928388 894.058594,187.53125 C897.016447,185.441249 899.257383,192.712813 902.433594,194.453125 C905.234288,195.987684 908.456181,196.759585 911.625,197.15625 C918.595491,198.028799 925.647685,198.337474 932.671875,198.238281 C936.570144,198.183231 940.378492,196.395758 944.265625,196.695313 C948.416232,197.015171 952.283854,198.9375 956.292969,200.058594" id="Path-4306" stroke="#979797" stroke-width="5" stroke-linecap="round" stroke-linejoin="round"></path>
                <path d="M611.839844,219.964844 C612.32412,213.178691 611.923498,201.615699 619.570312,198.550781" id="Path-4307" stroke="#979797" stroke-width="5" stroke-linecap="round" stroke-linejoin="round"></path>
                <path d="M652.941406,209.371094 C647.730567,200.157561 645.008853,194.781487 656.078125,190.394531" id="Path-4308" stroke="#979797" stroke-width="5" stroke-linecap="round" stroke-linejoin="round"></path>
                <path d="M682.363281,185.097656 C680.517926,173.74298 670.96845,168.698055 678.882812,159.199219" id="Path-4309" stroke="#979797" stroke-width="5" stroke-linecap="round" stroke-linejoin="round"></path>
                <path d="M585.769531,209.140625 C587.192521,175.485463 577.529293,181.977927 592.984375,174.96875" id="Path-4310" stroke="#979797" stroke-width="5" stroke-linecap="round" stroke-linejoin="round"></path>
                <path d="M525.46875,205.082031 C522.893557,195.802346 512.86319,176.914947 524.824219,172.457031" id="Path-4311" stroke="#979797" stroke-width="5" stroke-linecap="round" stroke-linejoin="round"></path>
                <path d="M536.25,213.042969 C535.818316,210.832948 524.103315,173.723255 537.710938,175.164063" id="Path-4312" stroke="#979797" stroke-width="5" stroke-linecap="round" stroke-linejoin="round"></path>
                <path d="M496.824219,160.859375 C491.444344,151.865506 487.493566,143.917114 495.664063,135.890625" id="Path-4313" stroke="#979797" stroke-width="5" stroke-linecap="round" stroke-linejoin="round"></path>
                <path d="M486.386719,131.175781 C487.03125,126.317708 487.675781,121.459635 488.320312,116.601562" id="Path-4314" stroke="#979797" stroke-width="5" stroke-linecap="round" stroke-linejoin="round"></path>
                <path d="M470.28125,247.988281 C465.531747,261.145994 485.704808,248.272003 475.5625,246.324219" id="Path-4315" stroke="#979797" stroke-width="5" stroke-linecap="round" stroke-linejoin="round"></path>
                <path d="M570.050781,405.15625 C570.351562,400.453125 570.652344,395.75 570.953125,391.046875" id="Path-4316" stroke="#979797" stroke-width="5" stroke-linecap="round" stroke-linejoin="round"></path>
                <path d="M572.972656,404.421875 C578.997964,384.14509 580.84413,388.019009 586.585938,406.433594" id="Path-4317" stroke="#979797" stroke-width="5" stroke-linecap="round" stroke-linejoin="round"></path>
                <path d="M596.078125,407.976562 C606.995105,374.348851 599.67558,397.036665 606.300781,410.992187" id="Path-4318" stroke="#979797" stroke-width="5" stroke-linecap="round" stroke-linejoin="round"></path>
                <path d="M642.507812,374.425781 C646.640915,367.21986 654.635562,361.500821 655.648438,374.773437" id="Path-4319" stroke="#979797" stroke-width="5" stroke-linecap="round" stroke-linejoin="round"></path>
                <path d="M991.511719,410.683594 C996.429372,401.796836 1009.01922,382.651374 1013.07031,402.644531" id="Path-4320" stroke="#979797" stroke-width="5" stroke-linecap="round" stroke-linejoin="round"></path>
                <path d="M1054.77734,371.023438 C1069.35952,347.336571 1062.19069,346.045822 1076.03516,365.960938" id="Path-4321" stroke="#979797" stroke-width="5" stroke-linecap="round" stroke-linejoin="round"></path>
                <path d="M1099.87109,395.300781 C1103.66799,385.938303 1104.75122,378.375566 1111.85547,371.796875 C1112.99832,370.738566 1114.87498,368.373053 1115.93359,369.515625 C1130.85143,385.6166 1113.46986,379.47857 1125.29688,382.8125" id="Path-4322" stroke="#979797" stroke-width="5" stroke-linecap="round" stroke-linejoin="round"></path>
                <path d="M1206.73047,314.007812 C1221.30652,298.729861 1222.10972,292.595544 1231.46875,309.757812" id="Path-4324" stroke="#979797" stroke-width="5" stroke-linecap="round" stroke-linejoin="round"></path>
                <path d="M1320.54688,331.597656 C1335.56355,310.861449 1331.2565,307.24948 1336.4375,325.953125" id="Path-4325" stroke="#979797" stroke-width="5" stroke-linecap="round" stroke-linejoin="round"></path>
                <path d="M1240.23047,398.3125 C1256.77877,380.839242 1258.56313,392.99122 1283.52344,397.039062 C1287.72516,397.72046 1323.91599,388.50841 1327.11719,388.921875 C1329.51291,389.231306 1337.77426,400.299771 1337.38281,403.996094" id="Path-4326" stroke="#979797" stroke-width="5" stroke-linecap="round" stroke-linejoin="round"></path>
                <path d="M1611.71094,42.1328125 C1613.03747,55.4885464 1619.82881,45.5008841 1613.42969,42.2890625" id="Path-4443" stroke="#979797" stroke-width="5" stroke-linecap="round" stroke-linejoin="round"></path>
                <path d="M1678.79688,54.2734375 C1673.45213,64.7908442 1685.58669,59.6136911 1677.20703,55.0429688" id="Path-4444" stroke="#979797" stroke-width="5" stroke-linecap="round" stroke-linejoin="round"></path>
                <path d="M1328.84766,44.0273438 C1337.93897,40.4603105 1334.98894,43.0093822 1339.11328,38.421875" id="Path-4446" stroke="#979797" stroke-width="5" stroke-linecap="round" stroke-linejoin="round"></path>
                <path d="M1326.61328,31 C1326.38411,27.3151042 1326.15495,23.6302083 1325.92578,19.9453125" id="Path-4447" stroke="#979797" stroke-width="5" stroke-linecap="round" stroke-linejoin="round"></path>
                <path d="M1000.5,86.2773437 C997.687334,56.6165011 1030.14231,63.1521391 1052.29688,57.5976562 C1059.96834,55.6743031 1067.00912,51.6985053 1074.63281,49.59375 C1078.36955,48.5621095 1083.55237,45.3954073 1086.18359,48.2421875 C1089.241,51.550066 1084.58402,72.6302954 1094.77344,74.5664062 C1109.75373,77.4128399 1125.26969,73.7926907 1140.51562,74.0625 C1155.65347,74.3303965 1157.42246,90.9764207 1171.13672,96.2109375 C1200.94497,107.588277 1167.33501,90.5011158 1201.41797,95.5546875 C1205.18335,96.1129901 1206.82706,101.230049 1210.35156,102.667969" id="Path-4448" stroke="#979797" stroke-width="5" stroke-linecap="round" stroke-linejoin="round"></path>
                <path d="M1.5,75.4179687 C12.4661458,71.7200521 230.946134,-3.29508001 241.71875,0.93359375 C249.401994,3.94956796 242.355792,17.4558056 243.480469,25.6328125 C246.881432,50.3596486 249.270471,61.7464161 276.464844,55.5898438 C284.317951,53.8119678 289.005692,48.2050518 291.367187,40.8632813 C292.971692,35.874959 289.128623,27.3232583 293.988281,25.3632813 C301.163546,22.4693838 309.151653,28.5258456 316.578125,30.6953125 C324.0742,32.8851125 335.197898,36.5569875 349.949219,41.7109375 L441.476562,24.5117188 C444.20496,33.714966 448.771367,39.5522055 455.175781,42.0234375 C467.315129,46.7075726 480.324931,48.7368875 493.015625,51.609375 C499.177417,53.0040719 505.558478,56.3171168 511.695312,54.8164063 C517.089155,53.4973879 519.260548,41.6743994 524.324219,43.953125 C529.465065,46.2665807 523.183042,55.5453332 525.097656,60.8476563 C525.926919,63.144213 529.189598,63.9967493 531.625,64.171875 C545.890455,65.1976802 561.634869,70.5861013 574.53125,64.4023438 C580.36945,61.6029526 565.023208,47.8811682 570.964844,45.3085938 C586.095412,38.7574488 606.690647,82.3981518 624.824219,75.4179688 C634.43119,71.7199429 616.797062,52.0706492 635.089844,57.9453125 C648.76827,62.3380916 637.176952,83.5470431 645.398438,84.2304688 C651.442072,84.7328566 656.67559,79.6343023 662.578125,78.2421875 C666.532256,77.3096044 670.99818,78.9171438 674.730469,77.3125 C681.834197,74.2583546 683.031594,61.243017 698.398437,63.8242188 C707.149101,65.2940865 685.166767,89.4277997 699.8125,94.6679688 C716.940256,100.796193 723.487671,86.7652912 734.472656,106.070313 C865.490885,90.9114583 947.666667,85.2213542 981,89 C1031,94.6679688 1123.5,119.929688 1163.5,113 C1203.5,106.070313 1207.5,106.070313 1214,106.070313 C1220.5,106.070313 1212.5,49.40625 1233,63.8242188 C1253.5,78.2421875 1264.5,94.6679688 1299.5,94.6679688 C1334.5,94.6679688 1330.5,95.046875 1356,69.5 C1381.5,43.953125 1376,37.4648438 1393,60.8476563 C1410,84.2304688 1441.5,99.7578125 1469,89 C1496.5,78.2421875 1486.5,56.1679688 1524,75.4179688 C1561.5,94.6679688 1603.5,89.3359375 1628.5,94.6679688 C1653.5,100 1656.5,90.640625 1670,106.070313 C1683.5,121.5 1822.5,108 1835.5,130.5 C1848.5,153 1895.5,156.5 1871,164 C1846.5,171.5 1880,158.5 1856.5,158.5" id="Path-4267" stroke="#979797" stroke-width="5" stroke-linecap="round" stroke-linejoin="round"></path>
                <path d="M716.972656,112.011719 C708.87577,107.513817 688.455442,97.5313712 679.992187,96.3945312 C663.282444,94.1499689 651.922765,102.071027 635.542969,103.894531 C623.002719,105.290592 610.282202,105.885182 597.703125,104.898437 C588.769369,104.197644 580.363425,100.217212 571.503906,98.8710937 C525.818024,91.9295655 547.880831,99.8869248 506.996094,90.09375 C462.844125,79.5179711 523.271275,92.4412746 486.550781,79.6210937 C483.49472,78.5541347 480.070887,79.0956614 476.84375,79.3476562 C468.506674,79.9986669 460.022981,84.4437603 451.933594,82.3242187 C245.768215,28.3057778 708.047951,122.637856 433.035156,67.0976562 C413.012008,63.0538821 396.582325,83.2473355 377.375,84.8398437 C354.591686,86.7288426 368.199912,81.6699409 339.105469,75.1757812 C316.489757,70.1277369 318.976151,76.3874148 297.917969,83.5625 C264.883164,94.8183402 295.617793,80.7198355 277.558594,89.359375" id="Path-4449" stroke="#979797" stroke-width="5" stroke-linecap="round" stroke-linejoin="round"></path>
                <path d="M268.539062,94.2304688 C290.830729,92.0403646 313.01694,87.9497364 335.414063,87.6601563 C363.013656,87.3033116 390.514583,91.0844792 418.089844,92.296875 C437.104154,93.1328733 456.13529,93.8098105 475.167969,93.8046875 C499.68378,93.7980886 524.183413,92.2801298 548.699219,92.2617188 C578.697831,92.2391901 607.449503,101.613281 637.386719,101.613281 C673.137937,101.613281 708.885913,99.7841925 744.632813,100.339844 C756.185772,100.519423 767.593812,103.025908 779.121094,103.816406 C787.335857,104.379745 795.582493,104.349753 803.816406,104.398438 C828.396706,104.543773 852.984086,104.95145 877.558594,104.398438 C944.49069,102.89223 877.8898,98.9070245 962.339844,101.960938 C1060.01157,105.492978 1157.55196,130.987653 1255.68359,123.957031 C1271.44442,122.82785 1286.95905,119.36439 1302.67188,117.695313 C1362.01685,111.391457 1421.40814,113.150054 1480.73828,118.351563 C1501.80055,120.198104 1522.68066,124.059471 1543.78906,125.269531 C1607.34141,128.912734 1603.62393,146.419125 1607.73828,124.226563" id="Path-4450" stroke="#979797" stroke-width="5" stroke-linecap="round" stroke-linejoin="round"></path>
                <path d="M1243.74609,182.554688 C1249.33859,134.870451 1283.90466,166.248794 1309.92969,173.589844 C1317.84545,175.822694 1324.57134,173.346607 1332.17578,171.695313" id="Path-4451" stroke="#979797" stroke-width="5" stroke-linecap="round" stroke-linejoin="round"></path>
                <path d="M1406.4375,181.011719 C1472.93785,173.566337 1384.18012,182.634748 1473.13672,177.453125 C1484.6672,176.781487 1501.21337,174.360792 1497.27344,169.414062 C1495.77604,167.53403 1493.25464,166.427533 1490.875,166.089844 C1481.91832,164.818822 1472.80729,165.136719 1463.77344,164.660156" id="Path-4452" stroke="#979797" stroke-width="5" stroke-linecap="round" stroke-linejoin="round"></path>
            </g>
        </g>
    </g>
</svg>