<?xml version="1.0" encoding="UTF-8"?>
<svg width="1920px" height="1080px" viewBox="0 0 1920 1080" version="1.1" xmlns="http://www.w3.org/2000/svg" xmlns:xlink="http://www.w3.org/1999/xlink">
    <!-- Generator: Sketch 49.3 (51167) - http://www.bohemiancoding.com/sketch -->
    <title>Back</title>
    <desc>Created with Sketch.</desc>
    <defs></defs>
    <g id="Artwork" stroke="none" stroke-width="1" fill="none" fill-rule="evenodd">
        <g id="Pricing-Scene---Craft-a-website-you-love">
            <g id="Back" transform="translate(-72.000000, -97.000000)">
                <path d="M66.5625,51.171875 C134.689403,42.3649797 200.40793,27.8910138 269.195312,21.4921875 C285.854512,19.9424945 302.669526,21.0810721 319.367187,20.0234375 C446.483781,11.9718365 572.979492,4.6258601 700.492188,1.078125 C801.13262,-1.7219538 900.345171,10.1234512 1000.79688,10.9765625 C1126.80602,12.0467268 1252.85902,9.16666069 1378.83594,12.2109375 C1448.09801,13.8846802 1517.07244,21.9349074 1586.28125,25.125 C1635.06031,27.3734089 1683.97031,25.9704859 1732.73438,28.5234375 C1816.68624,32.9185804 1917.50899,39.4497365 2004.6875,53.1875 C2011.44692,54.252663 2022.82475,51.818685 2024.53125,58.4453125 C2032.28866,88.5686516 2027.2731,120.617928 2030.03125,151.601562 C2031.57079,168.89596 2035.55888,185.900671 2037.41406,203.164062 C2049.93322,319.661281 2048.88676,313.797341 2048.15625,431.53125 C2048.0127,454.666262 2047.338,507.041358 2043.51562,534.585938 C2028.23759,644.681529 1994.84925,756.107028 2002.28125,868.09375 C2003.97841,893.666834 2009.199,918.894813 2011.73438,944.398437 C2018.09044,1008.33487 2019.89971,1078.25736 2002.88281,1140.6875 C1997.79028,1159.37054 1993.5921,1201.91013 1969.21094,1215.4375 C1966.37184,1217.01271 1962.62686,1214.79202 1959.67969,1213.42969 C1954.09668,1210.84893 1948.46941,1207.9494 1943.96094,1203.76562 C1933.8912,1194.4211 1913.55352,1167.1169 1906.16406,1155.45312 C1876.84108,1109.16873 1850.37849,1041.16786 1785.90625,1036.54687 C1772.08146,1035.556 1757.7889,1033.71194 1744.32812,1037.01562 C1618.24698,1067.95978 1489.59366,1124.88746 1356.84375,1128.54687 C1309.509,1129.85172 1256.11459,1130.94695 1209.875,1118.5 C1096.05841,1087.86241 1154.68519,1094.72892 1026.64844,1076.28906 C1003.23941,1072.91769 979.538909,1071.99382 956.039063,1069.32812 C652.221705,1034.86475 1745.06809,1142.10173 619.921875,1037.63281 C593.805273,1035.20791 550.226328,1023.27096 530.5,1019.85156 C504.326822,1015.31466 451.945821,1011.4345 426.390625,1010.1875 C416.972911,1009.72795 368.723629,1010.13475 349.945312,1006.39844 C310.123936,998.47519 270.713264,988.57315 230.890625,980.65625 C210.165793,976.536071 188.580646,976.402507 168.351562,970.296875 C123.396018,956.728193 61.9543444,914.553788 36.9296875,873.585937 C8.02751504,826.270209 2.89872235,765.858295 1.109375,712.007812 C-0.65301877,658.968499 2.65858052,581.185442 5.578125,533.195312 C10.5211069,451.944849 13.540441,469.676363 14.078125,414.914062 C15.1319404,307.584564 8.68886083,370.116845 6.09375,177.648437 C5.83246674,158.270162 21.4670081,121.317472 26.3671875,107.453125 L66.5625,51.171875 Z" id="Path-4742" fill="#F7F7F1"></path>
                <path d="M154.179687,680 C155.638439,661.102538 169.107612,647.345725 184.15625,636.476563 C218.522388,611.654972 258.238716,592.139833 301.929687,595.65625 C331.805875,598.0608 362.742951,650.048631 371.757812,659.515625 C389.28951,677.926609 410.861423,685.302667 436.789062,681.78125 C485.131955,675.215458 484.436401,605.374387 528.953125,590.945312 C535.809823,588.722871 543.373056,588.352186 550.515625,589.320312 C561.900117,590.863403 577.964272,596.620357 585.734375,606.640625 C602.111976,627.761061 590.505481,661.333 616.570312,676.835938 C638.979009,690.164265 665.614139,681.735455 689.671875,690.28125 C729.883699,704.565303 753.508752,746.999456 748.421875,789.007812 C745.436803,813.659082 714.589235,832.190555 699.460937,845.445312 C691.53675,852.388141 684.534769,860.370434 676.359375,867.015625 C654.333047,884.919246 600.321884,906.942649 574.140625,916.640625 C507.438405,941.348242 434.152209,951.522078 363.34375,938.828125 C332.434124,933.286904 301.753797,926.482913 271.171875,919.351562 C263.382468,917.535163 255.593855,915.351964 248.328125,912.007812 C198.160942,888.917682 161.772328,831.794962 147.65625,780.195312 C139.518193,750.447611 147.614611,727.796738 151.6875,698.476562 L154.179687,680 Z" id="Path-90" fill="#EEEEE6"></path>
                <path d="M262.328125,38.109375 C272.633532,54.9682805 271.453378,49.5926742 271.859375,77.84375 C272.121313,96.0705467 271.284631,114.312863 270.054688,132.5 C266.558986,184.190828 247.088294,266.732955 299.609375,304.203125 C320.646024,319.211324 351.740116,332.464985 378.117187,328.554688 C400.807285,325.19097 420.629584,294.920182 433.4375,284.648438 C452.327607,269.498874 478.540024,264.666191 501.8125,262.921875 C535.368115,260.406819 559.388516,264.510154 586.9375,284.648438 C618.350332,307.611191 612.726703,348.653568 666.304687,341.703125 C713.409902,335.592367 711.219395,264.607833 726.007812,235.015625 C732.382507,222.25961 767.533846,197.50073 768.007812,196.976562 C772.752518,191.729314 774.413473,184.317501 776.773437,177.648437 C788.163717,145.460455 790.30685,108.932259 767.40625,80.4765625 C733.583438,38.4492075 641.36281,52.405277 598.703125,54.8828125 C555.573744,57.3876264 517.58903,51.8315293 476.125,38.5703125 C422.014977,21.2645961 430.695812,14.8347731 385.679688,9.890625 C351.637565,6.15175817 319.308089,20.8870765 287.835938,31.3046875 L262.328125,38.109375 Z" id="Path-91" fill="#EEEEE6"></path>
                <path d="M1674.23437,212.289062 C1665.34811,262.719757 1617.11409,264.971292 1575.28125,275.679687 C1555.32794,280.787346 1526.86326,297.081351 1527.00781,320.367188 C1527.09666,334.679357 1566.75258,357.422578 1568.07031,388.242188 C1568.93676,408.507047 1569.86415,418.849963 1564.54688,436.789062 C1554.79065,469.70399 1529.64774,491.586911 1532.25,528.320312 C1532.75674,535.473491 1545.81265,553.204528 1547.71094,555.6875 C1563.56665,576.426885 1582.86687,582.233889 1609.55469,576.40625 C1643.31585,569.034053 1670.70472,550.373233 1706.19531,553.601562 C1749.27351,557.520083 1835.91148,608.168147 1873.78125,566.820312 C1917.09113,519.532734 1898.85592,462.788238 1913.80469,406.171875 C1921.08378,378.603332 1931.26171,372.442959 1947.65625,345.796875 C1966.54203,315.101768 1976.6958,267.659827 1944.90625,241.820312 C1931.27194,230.737933 1913.12121,222.745844 1895.08594,225.351562 C1871.31917,228.785361 1846.07885,244.258364 1822.32812,230.140625 C1814.74063,225.630522 1808.8271,218.745632 1801.71094,213.523437 C1770.72006,190.780779 1724.63736,184.007755 1689.35938,197.289062 L1674.23437,212.289062 Z" id="Path-89" fill="#EEEEE6"></path>
                <path d="M1449.44531,290.90625 C1454.53792,269.424241 1480.27387,283.550369 1494.36719,276.757813 C1505.68896,271.301062 1510.68987,257.135162 1521.25,250.320313 C1544.31059,235.438448 1558.42783,269.136676 1578.28906,269.648438 C1608.97575,270.439138 1639.6835,268.144132 1670.375,268.71875 C1683.10695,268.957122 1716.44004,276.108417 1713.83594,295.78125 C1713.61519,297.448876 1711.30095,298.4179 1709.625,298.5625 C1694.35534,299.879957 1678.99687,300.315781 1663.67187,300.109375 C1648.4133,299.903864 1633.03131,299.82229 1617.97656,297.328125 C1612.20904,296.372602 1607.89561,289.254325 1602.08594,289.90625 C1582.35909,292.11987 1590.99258,307.663196 1558.70312,302.734375 C1542.46265,300.255348 1531.79232,291.511711 1516.53125,289.671875 C1492.84369,286.816162 1479.05039,302.28087 1452.01562,296.554688 C1448.09124,295.72347 1448.83775,289.172411 1447.64062,285.34375 C1447.08689,283.572799 1447.40945,281.547027 1449.53125,281.015625 C1492.61615,270.225075 1479.36182,271.743575 1511.28906,271.507813" id="Path-92" fill="#F1F1F1"></path>
                <path d="M1911.68163,428.145664 C1894.61223,419.750158 1912.14153,426.970896 1871.33931,430.877593 C1840.07839,433.870737 1808.72881,435.969393 1777.36598,437.574577 C1679.00561,442.608769 1762.99893,434.637937 1649.17085,435.885293 C1638.45859,436.002681 1627.96486,439.291826 1617.25992,439.704981 C1593.19333,440.633826 1568.98445,437.640611 1545.00667,439.905489 C1462.81465,447.66913 1526.04531,454.54508 1451.47446,457.465023 C1399.14211,459.514182 1414.59999,450.739573 1359.37588,441.639888 C1339.31493,438.334296 1237.7385,422.685936 1194.91378,425.318494 C1182.75177,426.066127 1170.7938,428.903512 1158.87237,431.423978 C1156.80152,431.861804 1154.86308,432.924678 1153.13783,434.150894 C1152.69816,434.463382 1152.83002,435.196004 1152.80699,435.734912 C1152.16672,450.713289 1206.10884,454.563166 1212.82921,454.833349 C1244.34045,456.10021 1275.89207,456.167267 1307.40407,457.414896 C1310.98602,457.556713 1314.56175,458.135797 1318.04105,458.998913 C1330.94191,462.199254 1325.25895,482.108467 1340.03182,484.744208 C1367.41626,489.630075 1390.63206,468.084648 1417.68877,466.78867 C1426.6119,466.361264 1435.33582,469.830499 1444.25615,470.312607 C1477.5904,472.114188 1498.54308,468.282938 1529.79309,480.974648 C1543.61209,486.587023 1555.64274,496.271656 1569.74943,501.115729 C1600.01248,511.507713 1624.3868,489.36169 1654.13344,487.325755 C1674.51553,485.930754 1694.99463,488.49333 1715.41887,488.01751 C1723.44002,487.830642 1731.32115,485.622068 1739.33954,485.340721 C1791.63805,483.505685 1790.31943,492.175489 1831.16242,470.904107 C1842.38496,465.059306 1852.42418,457.15691 1863.40419,450.868293 C1876.88132,443.149489 1883.33245,445.823252 1888.31236,433.007996 C1889.16251,430.820213 1890.80316,427.670936 1889.13946,426.015261 C1887.22465,424.109691 1883.71261,425.383642 1881.03891,425.769638 C1874.48948,426.715162 1868.10611,428.580099 1861.63971,429.98533" id="Path-2407" fill="#F1F1F1"></path>
                <path d="M1475,689.754149 C1488.39237,699.900561 1516.44232,680.207363 1534.75066,682.515791 C1549.85033,684.41965 1560.22673,697.750441 1576.58677,699.328431 C1596.06665,701.207341 1599.8708,696.219737 1618.03188,689.754149 C1634.56976,683.866442 1657.19615,680.84497 1674.47002,683.157418 C1694.23246,685.803013 1687.48781,690.721733 1704.72675,690.55117 C1746.34047,690.139442 1734.64957,686.276631 1772.4084,688.3155 C1803.6528,690.002608 1833.40835,701.424683 1864.66739,703.148118 C1892.46066,704.680472 1919.6976,696.748867 1944.91591,685.388076 C1951.39455,682.469463 1962.23568,680.675806 1962.66593,673.583136 L1964.09455,670.20958 C1964.40482,665.09485 1962.58309,663.719116 1957.26223,663.216846 C1936.49159,661.256173 1915.67938,659.270511 1894.81886,658.951027 C1880.04212,658.724718 1865.12718,664.082211 1850.56162,661.582701 C1843.75063,660.413908 1840.57841,651.701525 1834.41065,648.584736 C1830.07139,646.391952 1824.88647,646.363833 1820.02918,646.15357 C1806.11522,645.551261 1791.95191,643.669667 1778.24822,646.15357 C1762.53076,649.002483 1748.38868,657.651248 1732.99845,661.928578 C1723.88136,664.462448 1696.79468,664.567647 1689.12719,664.159236 C1676.40666,663.481672 1676.67846,659.659492 1662.9508,655.828107 C1650.13247,652.250515 1637.21156,648.78266 1624.03711,646.900464 C1613.26206,645.361064 1602.25325,644.668315 1591.40936,645.607184 C1576.27203,646.917782 1579.88202,643.332477 1565.5,645.607184 C1530.24609,651.183058 1505.22055,648.071278 1468.77835,672.590619 C1464.44211,677.605265 1466.51599,683.326442 1475,689.754149 Z" id="Path-2408" fill="#F1F1F1"></path>
                <path d="M72.3467516,446.828046 C101.320334,448.897587 47.9786384,444.584998 119.195568,456.698078 C134.780261,459.348833 197.405605,459.878704 202.085792,459.625502 C233.824081,457.908435 235.960698,452.813841 264.368753,445.980897 C313.772744,434.097834 355.496118,422.109966 403.752254,417.062555 C430.880586,414.225034 469.458895,406.030879 492.321882,426.837346 C493.818079,428.198961 505.330788,441.742165 501.966342,446.828046 C501.039111,448.229699 499.078627,448.664695 497.444875,449.058703 C487.586414,451.436247 477.749427,454.457793 467.629257,455.109048 C435.226148,457.194257 402.692232,456.100231 370.242267,457.244464 C358.698353,457.651519 341.73261,458.76496 330.50649,464.03669 C312.631504,472.430693 303.073143,483.317422 284.374491,485.962297 C283.396872,486.100579 261.057916,487.537416 255.656658,484.919653 C245.749269,480.117957 238.026446,468.79413 225.289641,471.776319 C198.274784,478.101564 184.055496,503.863716 147.191571,508.183654 C143.796383,508.581523 140.299171,508.524629 136.940573,507.887904 C115.628198,503.847492 57.6846403,497.728668 51.5139159,464.68333 C51.076639,462.341634 49.2514143,458.767089 51.2933565,457.540214 C57.7309776,453.67225 65.8068318,453.670399 73.0635695,451.735492 L72.3467516,446.828046 Z" id="Path-2405" fill="#F1F1F1"></path>
                <path d="M323.007471,578.522045 C332.272733,530.912235 459.460224,543.824969 471.985305,543.402977 C494.98536,542.628063 502.526955,542.045228 521.97208,533.979076 C532.32207,529.685733 537.122143,520.55484 548.594599,518.700327 C559.413484,516.951462 554.657835,522.543603 566.339604,528.820994 C574.744442,533.337473 583.634327,537.329656 592.962123,539.337666 C620.43553,545.251914 625.127116,538.844995 651.87654,538.691026 C652.907975,538.68509 650.804605,540.653037 649.841379,541.021938 C639.33069,545.047374 628.260734,547.530144 617.820167,551.734106 C614.223383,553.182375 611.017224,555.517522 607.950135,557.889718 C604.446507,560.599549 601.946119,564.556615 598.195396,566.912601 C595.34829,568.700988 591.893526,569.335548 588.606075,570.040534 C577.136624,572.500132 565.612546,574.782029 553.993291,576.391642 C543.745014,577.811334 533.397077,578.415065 523.074877,579.118558 C520.050871,579.324654 516.965977,579.649465 513.981815,579.118558 C502.688344,577.109355 491.836371,572.611076 480.416688,571.52931 C465.144475,570.0826 449.595284,569.509684 434.394969,571.579437 C426.609101,572.639601 419.733665,577.290328 412.679896,580.752702 C406.372571,583.848681 400.910732,588.61875 394.383493,591.219247 C389.227183,593.273557 383.597278,594.068355 378.067112,594.542676 C370.617167,595.181656 363.045155,595.544096 355.635221,594.542676 C349.921989,593.770558 344.503034,591.445917 339.158433,589.28434 C337.369015,588.560626 335.642592,587.451631 334.416406,585.960911 C330.402851,581.081485 327.214808,575.577911 323.614009,570.386411" id="Path-2406" fill="#F1F1F1"></path>
                <path d="M257.777035,331.996814 C294.099681,359.871967 321.54405,333.599974 363.049023,321.184392 C383.183147,315.161574 404.616708,314.144593 425.437251,314.637788 C439.362587,314.967651 474.454743,333.469784 475.484179,333.831467 C489.170707,338.640097 501.310735,325.763862 515.054536,327.831249 C518.92356,328.41324 522.013053,331.460795 525.691513,332.793835 C529.116094,334.034872 532.676129,334.948102 536.27335,335.520751 C557.846497,338.955025 569.314166,340.69649 589.568516,339.936951 C630.958618,338.384823 661.253227,300.161236 700.680315,295.539351 C708.829257,294.584082 731.038293,293.335332 741.29833,296.236118 C772.708153,305.116514 777.599757,313.646168 806.33327,312.106368 C817.015723,311.533906 827.002751,296.857344 837.146417,292.5618 C857.857994,283.791056 876.605974,276.46429 898.762687,272.475858 C925.117397,267.731745 951.67853,264.546753 978.459813,264.585848 C1024.68448,264.653325 1070.91124,266.959756 1117.1265,266.024496 C1121.76705,265.930585 1126.43323,264.080608 1130.29991,261.513055 C1134.64343,258.628867 1128.85116,251.091111 1123.57786,245.938555 C1109.57315,232.254515 1084.50105,210.249993 1061.73602,216.273319 C1031.20819,224.350575 1048.94033,240.790558 1011.58382,247.076441 C985.490854,251.467036 958.335645,253.645701 931.941835,250.39987 C923.062205,249.30788 890.702058,237.42895 874.456041,239.883198 C803.625345,250.583424 809.399201,257.861508 758.441808,255.808587 C734.203029,254.832079 710.053719,251.776001 685.79757,251.442514 C671.457723,251.245362 657.109901,255.867379 642.863682,254.219557 C637.386047,253.585974 634.354447,246.852322 629.199026,244.895911 C624.554803,243.133492 619.144962,242.033005 614.371421,243.407135 C608.427828,245.11808 603.483007,249.489567 598.882137,253.623044 C592.556036,259.306491 588.12854,266.880961 581.853951,272.621227 C580.188097,274.145222 577.739823,274.630374 575.512869,275.002266 C568.36999,276.195094 561.04262,276.046364 553.908075,277.288063 C550.15705,277.940893 546.546448,279.288146 542.995399,280.661619 C527.173593,286.781168 511.122161,292.430739 495.820756,299.755043 C490.524151,302.290362 487.368954,309.329116 481.544549,310.076219 C466.918583,311.952309 452.043588,308.961695 437.397584,307.249049 C415.10161,304.641846 393.111348,299.764118 370.818729,297.128381 C362.568552,296.152933 354.184027,295.736167 345.905544,296.431614 C337.947708,297.100125 330.140111,299.128142 322.425996,301.193692 C313.744373,303.518304 305.194204,306.366141 296.801007,309.579961 C289.667591,312.3114 283.113967,316.455743 275.913031,319.003861 C269.466094,321.285171 262.649392,322.342328 256.017573,324.011562" id="Path-2409" fill="#F1F1F1"></path>
                <path d="M124.488993,128.826538 C106.770315,126.127944 77.6391525,166.876047 100.678606,173.96602 C131.138002,183.339346 150.187814,164.567067 178.666397,158.140885 C331.76029,123.595301 124.051899,179.098441 221.545145,154.967837 C257.372773,146.100123 292.267089,133.06641 329.458833,130.415569 C392.428657,125.927395 454.562288,154.167176 518.117304,145.193047 C562.101541,138.982361 622.021451,120.659417 665.771781,106.058796 C673.299547,103.546585 702.111638,95.2383476 692.995826,78.1830979 C688.482167,69.7382559 668.553772,67.8824231 662.46339,67.5661715 C641.800842,66.4932397 621.070164,65.5868791 600.400989,66.5235272 C557.885902,68.4501486 515.598836,74.1275391 473.088102,76.1479364 C456.054835,76.9574723 438.995861,75.0325267 421.94339,75.0050378 C387.16396,74.9489727 352.352455,77.4749181 317.608779,75.8973007 C302.325317,75.2033196 287.628935,69.1590911 272.359018,68.2128115 C206.1748,64.1113633 140.234402,65.901822 112.087541,137.408303" id="Path-2417" fill="#F1F1F1"></path>
                <path d="M121.225717,131.608594 C106.233488,139.060458 86.7879586,174.890861 114.664076,172.833147 C121.711043,172.312965 128.738529,170.975874 135.496911,168.913205 C141.681162,167.025763 149.143205,159.03031 153.302068,155.223486" id="Path-2382" stroke="#DDDADA" stroke-width="6" stroke-linecap="round" stroke-linejoin="round"></path>
                <path d="M150.600216,152.296061 C187.962156,175.632104 210.968399,151.237789 252.343254,137.313062 C291.990913,123.969623 322.585899,132.977198 361.966277,140.290613 C401.369437,147.608259 441.740962,143.425592 481.23376,140.04499" id="Path-2383" stroke="#DDDADA" stroke-width="6" stroke-linecap="round" stroke-linejoin="round"></path>
                <path d="M470.596783,131.85923 C483.898297,133.027371 494.57262,141.147634 508.071826,141.578881 C586.518686,144.08495 693.087822,115.239278 769.815655,84.0930866" id="Path-2384" stroke="#DDDADA" stroke-width="6" stroke-linecap="round" stroke-linejoin="round"></path>
                <path d="M83.6905213,474.112243 C116.066536,496.05245 152.583036,506.159359 189.017649,487.85209 C201.341629,481.65967 210.963407,468.682401 224.622951,466.773631 C225.188349,466.694623 235.188963,487.26279 250.744199,483.190267 C259.880585,480.798265 268.426342,476.467798 277.532138,473.961862 C285.278677,471.829996 293.146353,480.032094 300.184588,476.889286 C305.447074,474.53941 309.398387,469.925767 314.345503,466.969127 C335.156127,454.531674 361.057735,451.117203 384.949567,449.359466 C418.989482,446.855128 475.217228,467.661531 498.928638,444.647516 C499.367064,444.221985 497.752321,444.316677 497.164163,444.151257" id="Path-2" stroke="#DCD7D7" stroke-width="6"></path>
                <path d="M499.314617,444.251511 C464.302199,426.701234 439.434395,428.650931 395.310845,430.065533 C360.269856,431.188948 325.165297,433.198527 290.429848,437.950531 C212.947115,448.550602 142.647444,478.808165 66.3314958,447.625067" id="Path-3" stroke="#DCD7D7" stroke-width="6"></path>
                <path d="M322.28564,572.226077 C339.818498,545.532794 389.527956,534.783104 420.113749,538.645912 C431.953553,540.14121 443.261999,544.777133 455.112512,546.185033 C470.261964,547.984863 493.491052,549.917673 509.289916,542.716235 C531.543602,532.57256 529.380801,526.00382 550.459329,523.517544 C575.668978,520.54399 597.551383,539.487419 622.492016,540.234942 C682.271596,542.026662 666.906202,540.526639 729.08736,532.395059 C730.544026,532.204567 732.07468,531.919015 733.493535,532.299817 C734.784031,532.64617 737.648554,533.403832 736.857066,534.480347 C734.328228,537.919861 722.392909,541.653462 718.615803,541.869087 C640.230594,546.343879 685.616677,539.787108 618.747519,545.93941 C610.344659,546.712515 607.664124,556.425032 600.115265,559.478748 C589.904904,563.609112 579.663619,567.765516 569.086571,570.837556 C542.990438,578.417019 505.167949,576.125969 482.391697,575.900396 C465.835537,575.736425 446.655622,567.010836 430.309608,570.341297 C375.436435,581.521574 374.239781,592.380294 325.699298,575.303883 L322.28564,572.226077 Z" id="Path-4" stroke="#DCD7D7" stroke-width="6"></path>
                <path d="M426.504959,315.234301 C394.661367,314.920339 364.522745,316.648479 333.694575,325.500338 C289.026769,338.326045 314.610674,337.275171 286.845759,336.763904" id="Path-5" stroke="#DCD7D7" stroke-width="6"></path>
                <path d="M257.857239,333.786352 C252.111077,318.115004 272.546414,303.496149 287.507437,308.091185 C292.756734,309.703422 296.48369,314.458453 301.287385,317.119081 C303.688275,318.448865 306.430429,319.037279 309.00195,319.996379" id="Path-6" stroke="#DCD7D7" stroke-width="6"></path>
                <path d="M297.703295,308.883194 C340.9138,295.672271 394.509746,288.276961 438.851271,299.359039 C502.673055,315.30973 458.32112,311.132958 494.076331,313.499902" id="Path-7" stroke="#DCD7D7" stroke-width="6"></path>
                <path d="M488.6225,314.291911 C479.495484,300.057454 490.818772,287.226601 505.209567,284.035175 C557.525604,272.433121 541.385978,277.430575 589.312868,276.445927 C591.351752,276.404039 593.791511,276.649507 595.323111,275.303028 C606.654019,265.341662 591.233264,242.451889 614.612031,243.111385 C632.195297,243.607395 641.863196,259.123844 658.262737,261.959186" id="Path-8" stroke="#DCD7D7" stroke-width="6"></path>
                <path d="M644.317369,257.247236 C673.646375,234.771679 721.134645,239.361696 755.484308,244.895911 C763.279603,246.151843 770.810406,249.124096 778.688157,249.657988 C797.514055,250.933859 816.475415,251.715026 835.291713,250.304628 C869.97197,247.705128 904.239828,241.015778 938.854366,237.65254 C971.176957,234.511994 1016.80046,256.170704 1042.68771,247.773208 C1043.22592,247.598618 1042.98178,246.680437 1043.12882,246.134051" id="Path-9" stroke="#DCD7D7" stroke-width="6"></path>
                <path d="M1037.01331,232.494458 C1040.41884,227.086603 1061.65151,206.378065 1070.41302,214.589047 C1074.89754,218.79178 1077.95955,224.35523 1082.4285,228.574517 C1089.37052,235.128716 1095.74426,237.028899 1104.25385,240.730346" id="Path-10" stroke="#DCD7D7" stroke-width="6"></path>
                <path d="M1100.22864,238.29918 C1104.9439,239.849764 1145.23239,245.446847 1137.7087,263.64847 C1136.62014,266.28196 1125.30338,270.186303 1123.59791,270.195074 C1074.6339,270.446878 1025.67985,268.221891 976.715388,268.360421 C936.034312,268.475515 896.079126,274.037529 857.503045,287.453845 C814.03788,302.570528 823.287648,307.841359 789.876532,311.118864 C752.993657,314.736935 740.904508,285.466695 714.425175,288.050358 C700.093775,289.448713 673.282845,309.798529 667.024959,313.399648 C639.576498,329.194949 607.539449,343.561961 575.703352,345.691546 C545.123553,347.737094 568.114341,329.54757 545.662162,326.74349 C536.251025,325.568122 527.231725,350.32403 520.257732,344.152643 C518.592226,342.678813 517.860737,340.287189 517.4456,338.102298 C516.054865,330.782781 519.547598,322.453005 526.869501,320.046506" id="Path-11" stroke="#DCD7D7" stroke-width="6"></path>
                <path d="M424.519924,315.429797 C438.683764,323.631048 472.659344,344.474625 487.629982,327.089368" id="Path-12" stroke="#DCD7D7" stroke-width="6"></path>
                <path d="M890.737333,230.414183 C915.461035,231.084454 938.962242,227.434443 962.714881,220.890028" id="Path-31" stroke="#DCD7D7" stroke-width="6"></path>
                <path d="M1140.00452,443.529681 C1300.40486,456.708577 1100.35256,438.508262 1262.91123,459.054053 C1277.50532,460.8986 1292.24882,461.360066 1306.94792,461.93135 C1313.11737,462.171128 1320.32905,458.058429 1325.46488,461.485219 C1342.49037,472.845166 1324.35682,480.653103 1341.27999,484.107593 C1365.71936,489.096353 1391.08271,473.088504 1412.04947,465.159538 C1417.46489,463.111598 1420.94815,471.388949 1427.70417,471.405378 C1459.69059,471.483162 1491.67213,470.051573 1523.65753,470.31762 C1526.71392,470.343042 1560.81375,488.971875 1563.28303,490.503815 C1569.24283,494.201281 1573.27832,500.854302 1579.70969,503.652162 C1589.24319,507.799555 1600.99001,501.923241 1609.41503,499.08558" id="Path-50" stroke="#DCD7D7" stroke-width="6"></path>
                <path d="M1143.47332,446.161355 C1161.80923,429.912252 1195.42865,427.373895 1216.99979,423.739489 C1255.79193,417.203608 1298.49269,423.541159 1336.32241,431.674614 C1365.37468,437.920901 1361.31378,441.06333 1385.92321,443.730189 C1431.4111,448.659592 1480.34119,454.942291 1526.08368,449.038652 C1540.63455,447.160681 1554.89698,443.442953 1569.40355,441.248896 C1572.96625,440.710053 1576.6574,440.22757 1580.20595,440.852892 C1603.42148,444.943918 1626.09263,453.960778 1650.41902,451.665314 C1658.52584,450.900346 1669.22853,435.879307 1682.88135,432.371381 C1706.55775,426.288017 1729.41209,423.748976 1753.81625,422.401095 C1785.38288,420.657619 1790.12881,425.073437 1828.21995,429.990343 C1855.11142,433.461565 1882.783,432.100871 1909.62641,428.797317" id="Path-51" stroke="#DCD7D7" stroke-width="6"></path>
                <path d="M1608.75335,500.178352 C1625.38052,495.052017 1641.90388,489.575998 1658.63486,484.799348 C1661.7327,483.914921 1664.95571,482.984227 1668.16904,483.21533 C1709.96701,486.221459 1753.96082,494.766137 1796.08846,490.208065 C1819.00639,487.72842 1840.34682,461.807626 1870.5473,459.254562" id="Path-52" stroke="#DCD7D7" stroke-width="6"></path>
                <path d="M1558.27031,665.407401 C1528.8286,650.741133 1516.10831,641.741253 1487.99709,661.19171 C1480.63593,666.284976 1466.02235,669.780793 1467.55023,678.600862 L1466.88855,682.866681 C1468.54875,692.45057 1487.6545,691.117656 1491.80174,690.506056 C1499.87932,689.314841 1507.42266,685.687764 1515.39157,683.909325 C1518.79569,683.14962 1522.48373,681.86109 1525.80798,682.916808 C1555.9896,692.501906 1544.23105,703.034352 1582.13584,696.706782 C1594.76668,694.598274 1605.61242,686.090265 1618.06697,683.112304 C1646.29598,676.362568 1640.13565,681.296702 1661.71767,688.175144 C1664.63165,689.103863 1679.5321,695.753504 1683.48789,689.95967" id="Path-53" stroke="#DCD7D7" stroke-width="6"></path>
                <path d="M1558.65629,656.625128 C1603.98389,627.817041 1660.05702,658.020451 1709.22817,658.905912" id="Path-54" stroke="#DCD7D7" stroke-width="6"></path>
                <path d="M1792.00811,648.985753 C1809.57212,642.80711 1824.90279,654.544852 1842.16532,654.544852" id="Path-55" stroke="#DCD7D7" stroke-width="6"></path>
                <path d="M1813.12166,645.115939 C1793.16662,644.678493 1783.57787,640.976165 1768.80928,651.467046" id="Path-56" stroke="#DCD7D7" stroke-width="6"></path>
                <path d="M1769.2504,689.909543 C1840.55118,705.52787 1894.5519,712.471766 1962.20476,682.320295 C1964.29018,681.390867 1957.68664,681.658617 1955.42757,681.327778" id="Path-57" stroke="#DCD7D7" stroke-width="6"></path>
                <path d="M1819.40259,676.219823 C1856.53968,665.308156 1902.1613,651.569129 1940.21399,658.560035 C1951.25179,660.587861 1961.85554,664.511797 1972.67632,667.487677" id="Path-58" stroke="#DCD7D7" stroke-width="6"></path>
            </g>
        </g>
    </g>
</svg>