<?xml version="1.0" encoding="UTF-8"?>
<svg width="1920px" height="897px" viewBox="0 0 1920 897" version="1.1" xmlns="http://www.w3.org/2000/svg" xmlns:xlink="http://www.w3.org/1999/xlink">
    <!-- Generator: Sketch 49.3 (51167) - http://www.bohemiancoding.com/sketch -->
    <title>Z (+5)@1x</title>
    <desc>Created with Sketch.</desc>
    <defs></defs>
    <g id="Artwork" stroke="none" stroke-width="1" fill="none" fill-rule="evenodd">
        <g id="Why-Scene---The-Mouse-and-the-Sky" transform="translate(0.000000, -183.000000)">
            <g id="Z-(+5)" transform="translate(-108.000000, 186.000000)">
                <path d="M2064.84375,160.554688 C2043.48454,159.287078 2064.75965,159.53177 2021.98438,172.304688 C1994.65189,180.466309 1989.09467,175.329404 1974.91406,205.625 C1968.48895,219.351676 1970.20064,230.763184 1960.57031,242.109375 C1948.77027,256.01186 1924.59863,252.617529 1918.30469,262.445313 C1904.24729,284.395468 1904.53561,314.638409 1889.96094,333.335938 C1877.07111,349.872016 1861.34881,364.183793 1849.41406,381.421875 C1747.17572,529.090983 1905.7967,326.766792 1797.70313,456.492188 C1773.12955,485.983456 1779.76954,531.851091 1749.34375,556.914063 C1747.42277,558.496451 1711.587,580.302165 1704.41406,590.773438 C1694.12789,605.789512 1686.73493,622.652076 1676.5,637.703125 C1664.5756,655.238638 1650.66165,661.589444 1647.03906,683.46875 C1644.29863,700.020085 1642.4219,716.711537 1640.76562,733.40625 C1640.32805,737.816889 1638.4588,742.918448 1640.76562,746.703125 C1648.55973,759.490494 1700.38595,760.424111 1710.94531,758.609375 C1728.37395,755.614083 1744.87344,748.570159 1762.05469,744.382813 C1775.56063,741.091198 1789.67241,740.319726 1802.94531,736.1875 C1830.08443,727.738332 1868.38258,709.060784 1899.83594,701.867188 C2015.19899,675.482873 1852.64173,716.390023 1995.86719,687.875 C2015.16679,684.032606 2033.6067,676.646294 2052.73438,672.023438 C2074.57362,666.745237 2109.07824,678.48956 2118.70312,658.1875 C2136.83047,619.950951 2119.55317,573.558008 2119.47656,531.242188 C2119.37317,474.13302 2106.08898,415.042679 2100.92188,358.695313 C2098.6314,333.71762 2099.14747,308.54256 2097.0625,283.546875 C2095.9673,270.417056 2092.33718,257.571059 2091.39062,244.429688 C2089.26564,214.927894 2095.2103,204.814927 2083.57031,181.8125 L2064.84375,160.554688 Z" id="Path-4465" fill="#424C59"></path>
                <path d="M90.046875,32.21875 C99.2083333,26.1640625 107.419893,18.3386126 117.53125,14.0546875 C124.916454,10.925764 133.316717,10.8778708 141.328125,10.4921875 C211.470673,7.11540185 211.643961,53.7083908 232.460937,112.851563 C283.532148,257.950127 217.3605,62.159943 275.5,199.359375 C285.497098,222.950843 278.34637,247.205027 304.015625,257.5 C304.573957,257.723926 305.373752,257.903065 305.820312,257.5 C306.377966,256.996664 306.396818,256.078922 306.421875,255.328125 C306.684042,247.472654 307.360699,239.580286 306.679687,231.75 C304.864703,210.881265 292.913345,198.121265 323.601562,202.140625 C333.4558,203.431274 342.477064,209.057228 352.375,209.953125 C355.185908,210.20755 356.898019,204.315955 359.507812,205.390625 C372.040912,210.551549 382.395687,223.524396 383.21875,236.929688 C383.567776,242.614295 384.171182,248.400515 383.21875,254.015625 C382.781382,256.594149 377.244406,258.982995 379.179687,260.742188 C386.978625,267.831511 404.90599,256.858168 396.1875,278.21875 C387.931811,298.445455 363.49096,311.300884 373.078125,336.664063 C375.626041,343.404662 383.09352,347.166461 386.90625,353.28125 C388.978835,356.605225 386.926042,362.740365 390.429687,364.492187 C393.952205,366.253446 397.725381,361.363835 401.59375,360.625 C409.525063,359.110168 418.08644,354.934257 425.648437,357.765625 C451.249151,367.351061 467.157332,383.891984 479.164063,406.546875 C484.463935,416.546936 485.332035,429.003688 492.476562,437.78125 C498.866891,445.632225 510.105922,447.903276 517.992187,454.25 C527.587416,461.972066 530.248139,478.833558 542.554687,490.195312 C554.117876,500.870776 571.330694,496.847117 580.695312,511.148438 C598.095348,537.721169 594.782836,569.489573 609.554687,596.648438 C621.914265,619.372204 641.716647,621.875762 652.25,639.171875 C660.889786,653.358689 665.554362,678.252385 683.773438,686.5625 C696.729753,692.472156 710.688682,695.911569 723.890625,701.25 C726.593971,702.343144 729.198326,703.846905 731.359375,705.804688 C751.268241,723.840937 740.669472,760.664062 760.65625,783.734375 C788.679462,816.080972 820.318614,827.269201 856.515625,850.375 C859.132463,852.045418 860.829001,855.176656 861.585937,858.1875 C862.534638,861.961121 862.561272,866.14129 861.414062,869.859375 C856.60531,885.444452 820.99059,872.181937 820.695312,872.179688 C798.658214,872.011815 776.642125,876.224228 754.640625,874.960938 C735.09333,873.838564 716.126512,867.820114 696.742187,865.0625 C659.422248,859.753366 622.07242,854.50336 584.5625,850.765625 C538.783701,846.203924 492.666365,845.349443 446.953125,840.171875 C388.618897,833.564831 330.451618,825.288386 272.578125,815.429688 C254.878316,812.414541 235.242552,805.964733 221.039062,794.015625 C215.213195,789.114441 205.922469,773.841604 203,768.117188 C166.183876,696.003214 145.991494,641.265222 115.984375,556.757813 C105.412875,526.985875 97.3478417,496.372811 88.9296875,465.921875 C53.634255,338.247928 18.2424568,201.581309 72.5234375,74.1171875 L90.046875,32.21875 Z" id="Path-4466" fill="#424C59"></path>
                <path d="M91.3359375,293.90625 C101.84375,293.132813 112.493022,289.701512 122.859375,291.585938 C163.304769,298.938218 224.565324,366.216135 247.75,402.835938 C265.703293,431.192859 268.596199,463.130717 291.304687,488.492188 C320.809811,521.444328 361.617559,510.762 384.671875,531.632812 C405.284109,550.292835 399.364317,581.339036 418.601562,598.890625 C435.202259,614.036693 459.357804,600.562192 473.921875,615.898438 C504.838862,648.454617 506.823779,710.734486 553.039062,729.078125 C575.968228,738.179104 615.622405,718.666902 633.4375,726.914063 C639.713441,729.81939 667.029567,757.181481 675.695313,763.25 C691.127796,774.057186 687.450224,763.882738 701.984375,779.09375 C706.694182,784.022895 708.267275,792.58948 714.78125,796.257813 C722.806091,800.776986 731.99595,803.248283 739.523438,808.554688 C770.121387,830.124315 750.386971,831.363721 786.765625,835.6875 C805.312201,837.89185 836.748471,835.052564 853.507812,829.8125 C880.850275,821.263461 900.982047,780.769729 929.703125,773.765625 C945.376525,769.943411 962.025913,773.586722 978.0625,771.828125 C1013.24839,767.969586 971.555031,763.532776 1011.30469,766.03125 C1023.92082,766.82424 1035.93,794.447938 1039.5625,799.664063 C1052.10204,817.670334 1071.73166,827.054318 1088.09375,840.476563 C1093.32877,844.770981 1096.58022,851.40922 1102.35937,854.9375 C1136.44236,875.745774 1119.22347,856.763257 1157.67187,862.664063 C1172.14233,864.884891 1203.66452,891.770738 1219.95313,875.039063 C1232.85891,861.782227 1207.57745,836.035783 1231.89062,831.28125 C1248.40552,828.051702 1258.40564,838.791229 1275.86719,843.265625 C1286.89139,846.090497 1298.26268,847.726368 1309.625,848.367188 C1347.40067,850.497685 1389.87898,845.067216 1425.50781,831.976563 C1469.60001,815.776322 1497.14545,808.530146 1530.13281,782.03125 C1539.97306,774.126534 1549.76375,765.969222 1558.04687,756.445313 C1568.66719,744.234108 1562.07235,739.64739 1574.88281,732.015625 C1582.69981,727.358691 1611.19878,730.282636 1611.64844,730.085938 C1636.09896,719.390332 1656.44343,701.001318 1679.67969,687.875 C1692.94801,680.379635 1707.49371,675.370039 1721,668.3125 C1741.05973,657.83055 1740.76502,612.527811 1750.46094,609.5625 C1772.66157,602.77286 1789.16642,616.48851 1811.1875,613.117188 C1827.81338,610.571845 1840.65944,596.389722 1856.89063,591.546875 C1915.01717,574.203843 1929.13246,579.494477 1988.82813,575.929688 C1994.76208,575.575335 2026.07774,568.562908 2037.53125,570.132813 C2040.34817,570.51892 2042.81738,572.374525 2045.09375,574.078125 C2052.53315,579.645666 2060.04836,585.233046 2066.5625,591.859375 C2069.82781,595.180919 2072.45955,599.25953 2074.125,603.609375 C2078.06431,613.898129 2081.33595,624.529139 2083.22656,635.382813 C2088.59523,666.203414 2092.36093,697.294344 2095.85938,728.382813 C2096.60576,735.015489 2096.40911,741.747843 2095.94531,748.40625 C2095.6894,752.080215 2095.27223,755.891015 2093.71094,759.226563 C2085.8853,775.945268 2075.52243,791.41291 2067.9375,808.242188 C2049.5715,848.992261 2059.79044,892.852483 2058.40625,935.726563 C2058.30044,939.004001 2056.9415,942.825197 2054.19531,944.617188 C2049.14029,947.915776 2042.82015,948.950333 2036.84375,949.796875 C-402.171138,1295.27724 7381.84714,179.272918 1847.69531,971.210938 C1769.00244,982.4719 1704.28495,996.913746 1627.02344,1005.38281 C1479.15943,1021.59101 1338.02246,1032.14046 1189.625,1027.79688 C1087.20104,1024.79893 985.555489,1009.31297 883.140625,1007.69531 C810.936274,1006.55483 738.717346,1005.17875 666.507813,1005.92188 C637.640715,1006.21895 575.412965,1014.7503 543.757813,1011.32813 C489.969282,1005.51315 436.781033,995.067762 383.21875,987.445313 C342.262938,981.61689 301.293942,975.827937 260.210937,970.976563 C208.379638,964.855953 153.251001,977.786261 103.015625,964.328125 C62.2147656,953.39751 72.6346884,887.981493 70.203125,860.5 C69.7323208,855.178977 68.838154,849.895589 67.796875,844.65625 C64.2273893,826.695889 61.0491593,808.626904 56.375,790.921875 C54.9220507,785.418317 39.7501313,744.8853 37.390625,726.757813 C35.1588015,709.61128 33.962047,692.340348 31.71875,675.195312 C28.8362052,653.164644 23.9256521,631.386197 22.015625,609.25 C19.5679677,580.882955 21.2589557,552.252393 18.6640625,523.898438 C15.4634985,488.926421 -4.22548476,431.367676 1.9140625,394.257813 C5.87288654,370.329106 25.7632003,349.074265 39.96875,330.398438 L91.3359375,293.90625 Z" id="Path-4464" fill="#313944"></path>
                <path d="M111.339844,772.363281 C116.168885,763.06528 128.54162,737.231951 140.890625,735.253906 C185.716595,728.073752 168.908368,751.509042 197.023438,731.582031 C214.480702,719.208913 202.936566,693.636732 229.925781,692.851562 C262.307278,691.909521 280.197564,692.044097 307.707031,705.414062 C308.168653,705.638417 308.811222,706.088467 309.207031,705.761719 C309.61471,705.425171 309.207031,704.704427 309.207031,704.175781" id="Path-4453" stroke="#979797" stroke-width="5" stroke-linecap="round" stroke-linejoin="round"></path>
                <path d="M147.761719,696.058594 C164.89063,678.826712 180.751294,665.676416 207.160156,665.792969 C250.123107,665.982582 248.110165,658.100658 250.023438,675.300781" id="Path-4454" stroke="#979797" stroke-width="5" stroke-linecap="round" stroke-linejoin="round"></path>
                <path d="M276.566406,751.140625 C311.966069,717.863209 338.00567,732.064667 376.511719,760.339844 C381.335478,763.881953 384.653032,769.325246 389.738281,772.480469 C417.579535,789.755009 407.890669,774.124827 414.992188,787.128906" id="Path-4455" stroke="#979797" stroke-width="5" stroke-linecap="round" stroke-linejoin="round"></path>
                <path d="M345.671875,784.230469 C322.887816,810.091019 351.410284,795.120697 374.964844,806.6875 C382.134978,810.208497 389.616613,836.77748 404.425781,831.078125 C407.322442,829.963336 407.889669,825.646496 410.570312,824.082031 C420.885129,818.062148 409.658246,832.842233 417.011719,821.6875" id="Path-4456" stroke="#979797" stroke-width="5" stroke-linecap="round" stroke-linejoin="round"></path>
                <path d="M347.863281,786.9375 C353.645599,780.859216 357.322409,780.582554 365.601562,780.945312" id="Path-4457" stroke="#979797" stroke-width="5" stroke-linecap="round" stroke-linejoin="round"></path>
                <path d="M405.027344,761.695312 C421.907977,761.695312 439.350803,762.992089 450.339844,778.238281 C453.229815,782.247827 453.444334,787.722491 456.050781,791.921875 C462.526121,802.354634 475.277383,808.504532 467.949219,824.160156" id="Path-4458" stroke="#979797" stroke-width="5" stroke-linecap="round" stroke-linejoin="round"></path>
                <path d="M256.765625,824.664062 C247.946352,836.227368 241.192343,838.511321 245,852.996094 C250.244196,872.94563 305.405637,890.880397 320.71875,879.203125" id="Path-4459" stroke="#979797" stroke-width="5" stroke-linecap="round" stroke-linejoin="round"></path>
                <path d="M247.019531,835.023437 C273.592915,808.825207 316.473229,785.070082 346.660156,822.34375" id="Path-4460" stroke="#979797" stroke-width="5" stroke-linecap="round" stroke-linejoin="round"></path>
                <path d="M306.460938,878.625 C343.540457,886.478329 326.258621,886.099338 358.171875,882.527344" id="Path-4461" stroke="#979797" stroke-width="5" stroke-linecap="round" stroke-linejoin="round"></path>
                <path d="M212.316406,839.738281 C189.204521,834.058511 114.192245,844.257866 139.257812,888.363281" id="Path-4462" stroke="#979797" stroke-width="5" stroke-linecap="round" stroke-linejoin="round"></path>
                <path d="M528.679688,873.945312 C547.309062,871.492601 554.81632,872.686401 572.617188,879.242187" id="Path-4463" stroke="#979797" stroke-width="5" stroke-linecap="round" stroke-linejoin="round"></path>
                <path d="M374.621094,357.023438 C394.838809,339.033964 435.786803,354.042216 445.316406,378.015625 C452.779001,396.789107 449.315236,405.643773 461.980469,419.839844 C479.207334,439.148908 504.529987,437.501094 515.367188,453.160156 C521.365126,461.826794 515.303676,456.944861 513.347656,465.757812 C508.724433,486.58799 506.072614,491.478692 518.800781,506.039062 C520.675988,508.184202 523.258403,510.298725 526.101562,510.484375 C527.614827,510.583187 524.783854,507.752604 524.125,506.386719" id="Path-4247" stroke="#979797" stroke-width="5" stroke-linecap="round" stroke-linejoin="round"></path>
                <path d="M510.984375,475.421875 C524.341146,478.450521 538.443757,479.165486 551.054688,484.507812 C557.61614,487.287419 562.444043,493.34943 566.734375,499.039062 C589.782943,529.604972 551.745558,554.278252 582.023438,583.886719 C597.129151,598.658461 614.584146,610.91947 629.480469,625.902344 C639.132451,635.610406 636.504891,648.063695 642.023437,659.726562 C644.824488,665.646287 657.850595,679.114862 663.496094,683.539062 C685.500091,700.782907 687.828237,700.228105 718.257812,709.4375 C731.314645,713.3891 732.002735,709.502812 742.050781,717.707031 C744.151019,719.421874 740.462763,722.301339 739.859375,722.695312 C733.668124,726.737796 726.401281,729.258806 720.878906,734.175781 C717.343671,737.32346 722.016983,745.693239 723.066406,747.742187 C725.338833,752.178991 727.622309,756.637092 730.410156,760.769531 C733.966406,766.040976 739.591347,770.018835 742.050781,775.882812 C744.81533,782.47427 740.796062,791.750337 745.617188,797.027344 C750.308111,802.161837 759.325057,799.667797 765.886719,801.972656 C768.072749,802.740524 769.978775,804.338311 771.472656,806.109375 C778.60287,814.562565 785.355335,823.354845 791.613281,832.472656 C794.841398,837.176015 797.110677,842.470052 799.859375,847.46875" id="Path-4248" stroke="#979797" stroke-width="5" stroke-linecap="round" stroke-linejoin="round"></path>
                <path d="M330.210938,836.53125 C334.601526,844.578658 337.098812,853.277603 346.660156,856.863281 C384.297915,870.978126 435.225,845.219338 467.132812,836.066406 C480.685301,832.1788 494.380917,828.557219 508.320313,826.441406 C539.537953,821.702988 587.246769,817.982008 616.125,835.292969 C630.510723,843.916443 641.625177,857.113375 654.949219,867.300781 C658.603172,870.094551 662.480081,872.990519 666.933594,874.140625 C695.796332,881.594336 722.636766,868.629686 752.058594,868.960937 C758.96228,869.038664 774.198292,882.509218 775.894531,883.378906 C782.625484,886.829973 790.275039,888.12898 797.242188,891.074219 C800.912551,892.6258 803.866489,895.812688 807.71875,896.832031 C808.811819,897.121267 807.0625,894.667969 806.734375,893.585937" id="Path-4249" stroke="#979797" stroke-width="5" stroke-linecap="round" stroke-linejoin="round"></path>
                <path d="M846.632812,848.050781 C797.710584,838.207275 747.05577,837.779076 698.800781,824.703125 C585.573509,794.021235 669.6969,816.015863 565.875,776.5 C544.784939,768.472869 517.325969,768.105424 496.339844,764.558594 C474.930653,760.940262 445.347927,749.113041 427.835938,742.023438 C377.290073,721.560306 342.081462,674.994689 292.160156,655.164063 C253.232222,639.700418 212.121515,633.15328 172.671875,619.140625 C160.260145,614.731934 160.564945,609.840201 147.976563,601.359375 C129.802733,589.115619 109.510268,597.717224 95.6210938,610.054688" id="Path-4250" stroke="#979797" stroke-width="5" stroke-linecap="round" stroke-linejoin="round"></path>
                <path d="M221.765625,420.613281 C221.25,426.578125 219.126435,432.621211 220.21875,438.507812 C221.517951,445.509346 224.739531,452.202579 228.722656,458.105469 C231.933837,462.864356 236.576559,466.627302 241.347656,469.820312 C245.143658,472.360749 249.590667,473.917745 254.019531,475.035156 C294.230898,485.180566 279.450499,429.322996 315.695312,449.640625 C316.495717,450.089305 313.976562,450.283854 313.117187,450.605469" id="Path-4252" stroke="#979797" stroke-width="5" stroke-linecap="round" stroke-linejoin="round"></path>
                <path d="M252,487.058594 C258.070312,490.098958 263.707214,494.231846 270.210938,496.179687 C335.95823,515.870762 327.85572,501.066701 376.941406,540.476562 C382.132697,544.644541 382.373881,550.322383 379.34375,555.011719" id="Path-4255" stroke="#979797" stroke-width="5" stroke-linecap="round" stroke-linejoin="round"></path>
                <path d="M338.84375,554.160156 C353.305184,565.108466 369.535662,573.952912 388.191406,575.265625 C396.181013,575.827815 404.393595,572.600953 412.203125,574.378906 C449.248299,582.812778 460.224275,585.967652 468.980469,616.28125" id="Path-4256" stroke="#979797" stroke-width="5" stroke-linecap="round" stroke-linejoin="round"></path>
                <path d="M329.351562,588.0625 C355.677471,603.776523 348.657685,601.680961 380.632812,611.0625 C402.226045,617.397979 412.581636,615.939467 430.582031,628.957031 C442.067221,637.262915 453.300052,646.189168 462.796875,656.710937 C475.364486,670.63491 484.758695,687.138583 496.382813,701.859375 C498.504936,704.546834 500.984735,707.088997 503.941406,708.816406 C516.819707,716.34044 534.246784,708.778007 548.523438,712.800781 C582.23324,722.299289 589.224623,748.35681 588.851562,779.632812" id="Path-4257" stroke="#979797" stroke-width="5" stroke-linecap="round" stroke-linejoin="round"></path>
                <path d="M581.9375,714.035156 C602.295573,717.114583 622.726195,719.747598 643.011719,723.273437 C648.176127,724.171066 653.310166,725.443377 658.214844,727.292969 C677.731927,734.65301 669.909671,751.025362 658.386719,762.625 C654.148519,766.891406 640.101158,768.283003 643.699219,773.101562 L643.269531,776.539062 C645.86633,780.016722 653.715689,782.39371 657.484375,782.609375 C671.393692,783.405341 685.358747,782.687078 699.273438,783.382812 C709.029623,783.870622 715.320048,788.67011 712.460938,799.539062 C710.35258,807.554018 707.404574,815.370003 703.914062,822.886719 C703.515366,823.7453 703.197917,821.134115 702.839844,820.257812" id="Path-4258" stroke="#979797" stroke-width="5" stroke-linecap="round" stroke-linejoin="round"></path>
                <path d="M587.734375,715.96875 C582.872377,716.071 576.409254,714.838459 574.25,720.21875" id="Path-4259" stroke="#979797" stroke-width="5" stroke-linecap="round" stroke-linejoin="round"></path>
                <path d="M336.09375,589.261719 C321.270649,584.250537 292.612742,570.539232 279.101562,585.355469" id="Path-4260" stroke="#979797" stroke-width="5" stroke-linecap="round" stroke-linejoin="round"></path>
                <path d="M157.339844,607.117188 C169.990014,586.263574 238.783701,587.595591 255.480469,601.550781 C264.354764,608.967934 272.662441,617.051452 280.863281,625.207031 C290.658756,634.948444 294.327284,653.488257 306.804688,658.335938" id="Path-4261" stroke="#979797" stroke-width="5" stroke-linecap="round" stroke-linejoin="round"></path>
                <path d="M1801.48828,478.214844 C1793.77855,482.355582 1777.59081,491.232317 1783.06641,503.417969 C1785.82692,509.561342 1797.97095,519.422752 1789.80859,527.886719 C1775.28465,542.947348 1761.31092,555.487181 1742.94922,565.960937 C1732.7538,571.776541 1717.77769,574.328891 1710.35156,584.980469 C1708.02439,588.318426 1706.76685,593.50772 1708.71875,597.078125 C1711.73064,602.587469 1718.51302,604.9375 1723.41016,608.867187" id="Path-4285" stroke="#979797" stroke-width="5" stroke-linecap="round" stroke-linejoin="round"></path>
                <path d="M1717.09375,583.859375 C1712.55599,576.347656 1712.1268,562.826913 1703.48047,561.324219 L1701.41797,559.15625 C1689.05566,557.007735 1665.86732,576.499775 1667.83203,590.195313 C1667.96824,591.144765 1668.67049,591.997569 1669.42188,592.59375 C1674.15321,596.347793 1688.59884,599.057101 1684.15234,603.144531 C1678.08246,608.72426 1667.63032,600.6703 1659.45703,601.753906 C1656.57493,602.136012 1638.80899,611.884941 1636.69531,615.359375 C1635.20806,617.8041 1636.19425,621.170833 1636.91016,623.941406 C1637.53608,626.363727 1638.47798,629.153753 1640.60156,630.476563 C1643.09144,632.027545 1650.24307,628.887355 1649.32031,631.671875 L1655.76172,630.164063 C1652.1347,641.10894 1631.28546,631.502114 1630.16406,642.496094 C1629.9926,644.177118 1629.94048,646.224406 1631.06641,647.484375 C1637.45779,654.636633 1678.97686,650.043132 1665.94141,643.773438" id="Path-4286" stroke="#979797" stroke-width="5" stroke-linecap="round" stroke-linejoin="round"></path>
                <path d="M1723.15234,609.023438 C1750.47471,605.061074 1736.07486,611.921456 1729.55078,612.695312 C1703.79504,615.750345 1681.03006,614.680846 1657.26563,627.382812 C1624.72348,644.776418 1670.95968,610.493326 1666.62891,651.65625 C1665.17244,665.499581 1664.68975,679.669822 1660.61719,692.980469 C1658.14968,701.045193 1654.10896,709.453759 1647.38672,714.546875 C1642.56082,718.203223 1634.286,713.168894 1629.34766,716.671875 C1625.06642,719.708736 1626.2886,726.80861 1623.67969,731.363281 C1621.48443,735.195779 1618.58611,738.73475 1615.13281,741.488281 C1609.6873,745.830337 1603.49962,749.20029 1597.30859,752.390625 C1586.89513,757.756848 1575.86418,761.853642 1565.39844,767.117187 C1554.30712,772.695358 1544.07898,779.998299 1532.67188,784.898437 C1518.89062,790.818436 1461.56744,809.316878 1434.57422,824.324219 C1433.77709,824.767395 1433.06108,825.564565 1432.85547,826.453125 C1432.11959,829.633201 1432.0518,832.934972 1431.82813,836.191406 C1431.70892,837.926901 1431.48768,839.704211 1431.82813,841.410156 C1432.21489,843.348204 1433.25781,845.095052 1433.97266,846.9375" id="Path-4287" stroke="#979797" stroke-width="5" stroke-linecap="round" stroke-linejoin="round"></path>
                <path d="M1363.92188,899.355469 C1365.61198,893.518229 1365.17515,886.572387 1368.99219,881.84375 C1371.85319,878.29948 1377.6797,879.040222 1381.83203,877.167969 C1392.21269,872.487408 1402.47055,867.518533 1412.54297,862.207031 C1422.32343,857.049487 1431.10992,849.925413 1441.35938,845.777344 C1453.51603,840.857408 1493.59498,843.109169 1499.12891,842.261719 C1519.1692,839.192801 1538.28089,831.516274 1558.22656,827.882812 C1587.07162,822.628166 1616.5547,821.262651 1645.32812,815.628906 C1659.49362,812.855347 1696.32687,794.975173 1717.17969,799.160156 C1734.36554,802.60921 1735.19225,812.28371 1750.50781,823.128906 C1763.91839,832.625151 1778.25564,840.77245 1792.59766,848.792969 C1817.98477,862.990262 1857.24462,862.519987 1885.11328,857.800781 C1885.6248,857.714162 1885.37005,856.546164 1884.94141,856.253906" id="Path-4290" stroke="#979797" stroke-width="5" stroke-linecap="round" stroke-linejoin="round"></path>
                <path d="M1598.08203,817.058594 C1603.41644,795.837794 1631.02239,740.349003 1655.93359,738.707031 C1676.32098,737.363238 1686.84147,756.321067 1705.37109,758.652344 C1726.78211,761.346137 1745.19432,750.903774 1767.17188,752.351562 C1787.69893,753.703798 1800.38498,765.689488 1820,770.25 C1845.42636,776.161654 1873.16711,776.992785 1898.38281,769.628906 C1899.15609,769.403081 1900.95,768.786117 1900.35938,768.238281 C1899.16997,767.135042 1897.20833,767.464844 1895.63281,767.078125" id="Path-4291" stroke="#979797" stroke-width="5" stroke-linecap="round" stroke-linejoin="round"></path>
                <path d="M1787.78906,759.15625 C1826.36465,731.886723 1892.83959,693.653577 1938.83984,679.140625 C1941.01175,678.455394 1943.63417,679.049061 1945.58594,680.222656 C1966.05107,692.52831 1984.88887,707.464314 2005.62891,719.300781 C2011.57587,722.694751 2018.52989,723.960962 2025.16797,725.640625 C2027.70082,726.281525 2030.73411,727.550224 2032.98438,726.222656 C2034.35284,725.415314 2030.52344,724.21224 2029.29297,723.207031" id="Path-4292" stroke="#979797" stroke-width="5" stroke-linecap="round" stroke-linejoin="round"></path>
                <path d="M1923.25,687.722656 C1926.30212,649.284425 1886.73677,632.548027 1875.44922,670.984375 C1869.06727,692.716153 1882.36539,688.073325 1888.28906,697.578125 C1889.17684,699.002609 1884.9401,697.346354 1883.26562,697.230469" id="Path-4293" stroke="#979797" stroke-width="5" stroke-linecap="round" stroke-linejoin="round"></path>
                <path d="M1874.89062,677.632813 C1863.60335,675.470257 1846.13708,671.368522 1838.51172,685.132812 C1831.62579,697.562378 1833.72118,709.182903 1846.28516,714.394531 C1850.37977,716.093008 1849.63068,712.247293 1849.67969,710.683594" id="Path-4294" stroke="#979797" stroke-width="5" stroke-linecap="round" stroke-linejoin="round"></path>
                <path d="M1838.03906,702.988281 C1830.84225,702.680293 1819.96303,700.444237 1814.41797,707.9375 C1805.59915,719.854722 1804.42969,731.378343 1817.68359,733.796875" id="Path-4295" stroke="#979797" stroke-width="5" stroke-linecap="round" stroke-linejoin="round"></path>
                <path d="M1743.59375,742.222656 C1740.96807,737.337603 1732.81545,724.428495 1733.32812,717.601563 C1733.4558,715.901381 1735.99945,715.2452 1737.66797,714.894531 C1748.45821,712.626771 1767.6784,723.317124 1769.0625,721.851563 C1770.72635,720.089776 1770.98954,717.337309 1771.29688,714.933594 C1772.35698,706.642433 1771.90536,698.192075 1773.14453,689.925781 C1773.49558,687.583993 1774.70496,685.399232 1776.01953,683.429688 C1776.97006,682.005575 1778.26876,680.717658 1779.80078,679.953125 C1782.41539,678.64834 1785.26043,677.56168 1788.17578,677.363281 C1801.44659,676.460162 1814.90456,674.799837 1828.07422,676.667969 C1831.20478,677.112042 1832.17057,681.485677 1834.21875,683.894531" id="Path-4296" stroke="#979797" stroke-width="5" stroke-linecap="round" stroke-linejoin="round"></path>
                <path d="M1742.43359,734.300781 C1748.49548,746.556805 1744.83833,742.4199 1751.23828,748.332031" id="Path-4297" stroke="#979797" stroke-width="5" stroke-linecap="round" stroke-linejoin="round"></path>
                <path d="M1729.50781,724.210938 C1725.14063,721.865885 1720.39532,720.118389 1716.40625,717.175781 C1711.033,713.212103 1704.91474,709.463207 1701.63281,703.648437 C1672.65061,652.299128 1797.50073,660.532004 1803.37891,660.007812 C1812.50946,659.193588 1823.3468,660.72888 1830.39453,654.867187 C1833.81167,652.025109 1824.8287,647.869169 1821.46094,644.96875 C1818.13209,642.101844 1814.5745,639.255897 1810.46484,637.703125 C1809.71499,637.419804 1760.94296,627.915412 1754.16016,616.328125 C1753.46556,615.14153 1753.01044,613.427155 1753.6875,612.230469 C1754.76256,610.330328 1756.72712,608.827348 1758.79688,608.132812 C1768.36262,604.922897 1778.18067,602.333762 1788.13281,600.671875 C1895.93694,582.669888 1829.21895,609.469183 1878.15234,574.851562 C1882.14961,572.023721 1886.60859,569.796285 1891.21094,568.125 C1892.69302,567.5868 1894.45552,567.845412 1895.93359,568.394531 C1904.13927,571.443023 1912.42891,574.492564 1920.03125,578.832031 C1921.94364,579.923637 1922.14412,582.791428 1923.76563,584.28125 C1926.34829,586.654183 1929.83023,587.892844 1932.44141,590.234375 C1933.80347,591.455788 1933.66841,594.941507 1935.49219,594.796875 C1945.12705,594.032798 1954.61601,591.272112 1963.62109,587.761719 C1974.02002,583.707973 1983.12268,576.841749 1993.30078,572.261719 C1994.74941,571.609851 1996.56879,571.731991 1998.06641,572.261719 C2006.97581,575.4131 2015.50391,579.553385 2024.22266,583.199219" id="Path-4298" stroke="#979797" stroke-width="5" stroke-linecap="round" stroke-linejoin="round"></path>
                <path d="M1947.98828,412.039062 C1925.16754,413.331741 1934.19909,411.912376 1903.44922,420.464844 C1900.09552,421.397608 1896.62993,422.240604 1893.61719,423.984375 C1887.29574,427.643226 1880.94635,431.502538 1875.66406,436.546875 C1867.12423,444.702013 1897.63052,457.395618 1902.29297,458.308594 C1910.90605,459.995159 1921.5833,456.663914 1928.32031,462.289062 C1932.14182,465.479876 1926.59928,472.262067 1924.28125,476.667969 C1917.65727,489.258245 1896.94352,497.672546 1884.08203,489.65625 C1874.70505,483.811775 1873.97917,476.565605 1861.875,480.226562 C1859.47664,480.951958 1858.0076,483.470912 1856.46484,485.445312 C1850.8308,492.655694 1847.75418,502.258872 1840.40234,507.707031 C1831.41342,514.36837 1819.58056,494.957016 1813.42969,514.9375 C1811.90128,519.902383 1818.71951,523.907356 1820.81641,528.660156 C1821.85999,531.025534 1820.25896,535.647434 1822.79297,536.160156 C1828.3981,537.294278 1833.88607,533.287804 1839.54297,532.449219 C1846.86695,531.363503 1854.28002,530.992697 1861.66016,530.398437 C1862.77374,530.30877 1864.39296,529.468249 1865.01172,530.398437 C1865.99012,531.8693 1865.59686,533.977779 1865.18359,535.695312 C1863.9742,540.721511 1861.15726,545.301973 1860.20312,550.382812 C1858.52769,559.304611 1865.00691,557.825844 1856.67969,565.226562 C1842.67403,577.673932 1817.72471,573.14594 1809.86328,590.082031 C1809.38001,591.123164 1807.94571,593.934345 1808.96484,593.40625 C1810.43319,592.645381 1810.70964,590.596354 1811.58203,589.191406" id="Path-4299" stroke="#979797" stroke-width="5" stroke-linecap="round" stroke-linejoin="round"></path>
                <path d="M2026.15625,168.132812 C1999.90062,169.182429 1970.39907,180.815272 1964.78125,210.03125 C1961.08206,229.269196 1968.18003,243.266012 1951.33984,256.996094 C1929.57149,274.744193 1923.20524,259.325192 1906.97266,262.214844 C1906.12365,262.36598 1905.28169,263.249927 1905.21094,264.109375 C1905.13748,265.001699 1906.15625,265.630208 1906.62891,266.390625" id="Path-4280" stroke="#979797" stroke-width="5" stroke-linecap="round" stroke-linejoin="round"></path>
                <path d="M1906.80078,265.460938 C1901.18987,293.471098 1903.12388,278.479149 1901.82031,310.535156" id="Path-4281" stroke="#979797" stroke-width="5" stroke-linecap="round" stroke-linejoin="round"></path>
                <path d="M1939.05469,281.464844 C1926.85777,292.399712 1883.6059,322.432253 1878.28125,344.238281 C1875.91984,353.908983 1877.53906,364.134115 1877.16797,374.082031" id="Path-4282" stroke="#979797" stroke-width="5" stroke-linecap="round" stroke-linejoin="round"></path>
                <path d="M1881.54688,364.1875 C1870.79564,372.320208 1856.75266,381.484166 1858.18359,397.351562 C1858.66107,402.646246 1867.16056,410.745104 1861.10156,416.40625 C1849.26168,427.468688 1830.52837,425.114315 1820.47266,437.9375 C1813.65956,446.625658 1825.10406,459.264628 1816.86719,466.464844 C1813.96326,469.003297 1810.08756,475.611267 1807.28906,472.957031 C1800.52282,466.539582 1802.63837,457.625889 1804.02344,450.230469" id="Path-4283" stroke="#979797" stroke-width="5" stroke-linecap="round" stroke-linejoin="round"></path>
                <path d="M1826.48438,432.0625 C1819.75274,429.103879 1811.1454,426.364472 1805.74219,420.738281 C1801.29508,416.107655 1799.84544,407.699834 1793.75781,405.660156 C1790.27469,404.493126 1793.03513,413.054566 1793.62891,416.679688 C1794.72292,423.358862 1798.35929,431.881472 1802.43359,437.511719 C1807.00751,443.832379 1819.44018,448.426623 1816.99609,455.835938 C1814.94992,462.038972 1804.51035,451.897947 1798.09766,450.65625 C1794.80554,450.018794 1791.27435,449.320646 1788.04688,450.230469 C1782.24938,451.864778 1767.32618,454.011358 1771.76953,458.078125 C1788.83772,473.699744 1854.84963,430.604748 1753,480.378906 C1751.72217,481.003384 1750.38158,481.858533 1749.73438,483.125 C1749.13003,484.307587 1748.3383,486.590606 1749.5625,487.105469 C1752.63792,488.398904 1756.37439,488.219469 1759.57031,487.261719 C1773.19455,483.17882 1786.17188,477.186198 1799.47266,472.148438" id="Path-4284" stroke="#979797" stroke-width="5" stroke-linecap="round" stroke-linejoin="round"></path>
                <path d="M107.777344,20.9648438 C116.092345,14.2274772 114.758122,14.4424735 127.835938,9.87109375 C136.112489,6.97800654 144.547169,4.52196649 153.046875,2.37109375 C229.677525,-17.0204907 203.445232,103.225919 220.734375,145.742187 C227.448155,162.252254 238.247719,170.742964 254.277344,178.054687 C257.172734,179.375386 268.899363,181.145031 272.273438,186.40625 C275.785664,191.88289 272.709669,223.888382 272.875,228.65625" id="Path-4245" stroke="#979797" stroke-width="5" stroke-linecap="round" stroke-linejoin="round"></path>
                <path d="M170.957031,410.253906 C181.068053,397.142971 178.641505,397.215925 200.160156,391.15625 C208.243805,388.879886 216.718963,387.92995 225.113281,387.679687 C263.714151,386.528869 232.209173,424.734176 245.257812,446.894531 C246.452284,448.923089 249.483663,449.271512 251.828125,449.484375 C257.846149,450.030776 263.911458,449.252604 269.953125,449.136719" id="Path-4251" stroke="#979797" stroke-width="5" stroke-linecap="round" stroke-linejoin="round"></path>
                <path d="M221.035156,386.441406 C236.016039,345.250404 197.841291,355.258257 173.617187,349.71875 C167.053668,348.217821 161.170197,344.476831 155.367188,341.0625 C138.435903,331.100598 155.090531,313.922466 151.242188,301.207031 C146.69257,286.174494 117.712386,284.946212 105.929688,284.472656" id="Path-4253" stroke="#979797" stroke-width="5" stroke-linecap="round" stroke-linejoin="round"></path>
                <path d="M144.800781,249.375 C167.184975,238.706789 173.706486,238.191608 194.320312,255.402344 C208.922559,267.593938 210.474508,277.916691 206.777344,297.34375 C204.876311,307.332888 184.757407,306.780956 187.40625,317.984375 C192.665764,340.22976 220.211614,327.325249 208.449219,355.941406" id="Path-4254" stroke="#979797" stroke-width="5" stroke-linecap="round" stroke-linejoin="round"></path>
                <path d="M211.800781,177.980469 C231.374169,197.488441 259.058803,211.065956 274.550781,234.027344 C285.389701,250.092215 270.553422,266.079558 272.230469,282.191406 C273.699185,296.301766 316.329633,306.501558 327.933594,311.683594" id="Path-4262" stroke="#979797" stroke-width="5" stroke-linecap="round" stroke-linejoin="round"></path>
                <path d="M326.347656,280.066406 C327.679946,248.046907 324.729183,252.278593 335.878906,223.785156 C338.848211,216.197014 344.764745,201.456948 354.046875,197.847656 C370.834873,191.319759 376.162861,209.275507 372.6875,223.511719 C370.896629,230.847712 368.0838,238.011271 364.355469,244.578125 C357.405635,256.819135 348.665365,267.953125 340.820312,279.640625" id="Path-4263" stroke="#979797" stroke-width="5" stroke-linecap="round" stroke-linejoin="round"></path>
                <path d="M351.902344,283.390625 C362.71193,269.142912 361.624268,266.169715 377.886719,259.886719 C408.086379,248.219084 392.701748,277.016355 383.8125,285.824219 C376.63113,292.939841 363.797301,299.268753 354.992188,304.109375" id="Path-4264" stroke="#979797" stroke-width="5" stroke-linecap="round" stroke-linejoin="round"></path>
                <path d="M300.921875,237.46875 C305.749496,222.280821 336.075905,191.671341 338.328125,223.785156" id="Path-4266" stroke="#979797" stroke-width="5" stroke-linecap="round" stroke-linejoin="round"></path>
                <path d="M240.191406,194.289063 C305.305902,238.134602 121.442257,113.253099 270.46875,223.28125 C279.359326,229.845275 291.027207,231.792487 300.191406,237.96875 C311.403806,245.52541 306.97698,262.949424 316.382813,272.488281 C331.010326,287.322668 351.800788,292.039358 364.957031,308.976562 C366.093722,310.439926 366.62549,312.386419 366.761719,314.234375 C367.361435,322.369568 366.343408,330.585677 367.148438,338.703125 C368.4515,351.842444 372.212081,361.04563 379.128906,372.253906 C385.964045,383.329813 421.308657,411.054757 426.632812,389.378906 C427.282027,386.735807 428.379076,376.538056 424.398438,373.183594 C401.047346,353.50576 406.935883,363.521961 379.171875,364.484375 C378.107221,364.52128 379.716146,362.424479 379.988281,361.394531" id="Path-4246" stroke="#979797" stroke-width="5" stroke-linecap="round" stroke-linejoin="round"></path>
                <path d="M363.582031,303.992188 C367.519531,301.802083 371.048818,298.611515 375.394531,297.421875 C378.415119,296.594988 381.72496,297.414608 384.757812,298.195312 C399.788124,302.064354 362.254468,326.416283 366.546875,313.539062" id="Path-4265" stroke="#979797" stroke-width="5" stroke-linecap="round" stroke-linejoin="round"></path>
                <path d="M1314.67969,695.304688 C1316.01018,693.632113 1326.60386,676.702015 1332.89062,681.273438 C1341.54061,687.563277 1332.00293,690.570095 1342.46875,684.636719" id="Path-4323" stroke="#979797" stroke-width="5" stroke-linecap="round" stroke-linejoin="round"></path>
                <path d="M1511.08594,685.679688 C1507.72135,690.808594 1504.35677,695.9375 1500.99219,701.066406" id="Path-4327" stroke="#979797" stroke-width="5" stroke-linecap="round" stroke-linejoin="round"></path>
                <path d="M1482.30859,737.089844 C1481.49219,741.303385 1480.67578,745.516927 1479.85938,749.730469" id="Path-4328" stroke="#979797" stroke-width="5" stroke-linecap="round" stroke-linejoin="round"></path>
                <path d="M1429.52344,809.066406 C1432.64647,800.205077 1431.61376,804.962613 1432.27344,794.722656" id="Path-4329" stroke="#979797" stroke-width="5" stroke-linecap="round" stroke-linejoin="round"></path>
                <path d="M1364.37109,824.179688 C1365.32725,808.611719 1369.38504,812.326448 1361.01953,808.019531" id="Path-4330" stroke="#979797" stroke-width="5" stroke-linecap="round" stroke-linejoin="round"></path>
                <path d="M1298.74609,820.390625 C1297.92715,808.805495 1301.46207,810.541043 1296.125,808.871094" id="Path-4331" stroke="#979797" stroke-width="5" stroke-linecap="round" stroke-linejoin="round"></path>
                <path d="M1261.89453,844.550781 C1262.16667,837.463542 1262.4388,830.376302 1262.71094,823.289062" id="Path-4332" stroke="#979797" stroke-width="5" stroke-linecap="round" stroke-linejoin="round"></path>
                <path d="M829.007812,844.203125 C831.299479,839.332031 833.059861,834.173536 835.882812,829.589844 C845.104203,814.616858 859.950013,834.806504 872.386719,834.382812 C944.944349,831.910932 845.372928,830.359363 897.167969,831.5625" id="Path-4333" stroke="#979797" stroke-width="5" stroke-linecap="round" stroke-linejoin="round"></path>
                <path d="M894.980469,826.730469 C919.169578,827.868667 921.574036,844.448051 941.664062,854.289062" id="Path-4334" stroke="#979797" stroke-width="5" stroke-linecap="round" stroke-linejoin="round"></path>
                <path d="M860.964844,836.277344 C867.697591,826.194105 877.747234,800.776891 895.238281,797.855469 C900.432049,796.987986 905.587703,799.89077 910.828125,800.40625 C913.351393,800.654454 917.112896,802.30341 918.429688,800.136719 C921.18556,795.602116 918.803324,789.364035 920.578125,784.363281 C926.98589,766.308494 962.477319,767.019264 976.066406,765.113281" id="Path-4335" stroke="#979797" stroke-width="5" stroke-linecap="round" stroke-linejoin="round"></path>
                <path d="M1000.71875,765.886719 C1009.37468,758.996276 1026.77241,765.777 1031.94531,774.894531 C1033.49706,777.629579 1029.85506,781.395389 1031.08594,784.289063 C1067.37658,869.60454 1025.97583,753.87959 1041.78125,799.015625" id="Path-4336" stroke="#979797" stroke-width="5" stroke-linecap="round" stroke-linejoin="round"></path>
                <path d="M1039.93359,789.738281 C1039.73307,796.205729 1040.59416,802.794356 1039.33203,809.140625 C1038.47585,813.445687 1034.72534,816.777255 1033.70703,821.046875 C1031.07602,832.078338 1032.45353,849.786801 1047.96484,840.257812" id="Path-4337" stroke="#979797" stroke-width="5" stroke-linecap="round" stroke-linejoin="round"></path>
                <path d="M1047.66406,823.675781 C1067.42172,835.175415 1072.6285,830.066025 1073.82031,847.175781 C1073.94803,849.009305 1071.36483,851.797311 1073.00391,852.628906 C1078.55059,855.443052 1085.44856,854.083515 1091.34375,856.066406 C1108.36577,861.791889 1105.58157,870.143952 1107.57812,861.710938" id="Path-4338" stroke="#979797" stroke-width="5" stroke-linecap="round" stroke-linejoin="round"></path>
                <path d="M1077.46875,838.519531 C1120.48271,844.654958 1112.99836,850.30639 1147.64844,876.285156" id="Path-4339" stroke="#979797" stroke-width="5" stroke-linecap="round" stroke-linejoin="round"></path>
                <path d="M1139.91797,868.246094 C1178.17179,862.986473 1171.51209,868.294249 1200.17578,887.996094" id="Path-4340" stroke="#979797" stroke-width="5" stroke-linecap="round" stroke-linejoin="round"></path>
                <path d="M1010.98438,873.925781 C1021.62039,868.196522 1037.38927,861.345404 1049.72656,868.824219 C1056.89377,873.16895 1060.40594,882.12597 1067.46484,886.644531 C1070.05042,888.299617 1073.6519,886.6937 1076.65625,886.0625 C1082.28926,884.87903 1087.50191,881.750338 1093.23438,881.230469 C1097.4186,880.851007 1101.50781,882.699219 1105.64453,883.433594" id="Path-4341" stroke="#979797" stroke-width="5" stroke-linecap="round" stroke-linejoin="round"></path>
                <path d="M1124.15625,881.230469 C1142.69962,875.892609 1149.2118,881.764432 1169.08203,888.691406 C1169.58244,888.865855 1170.35433,889.115679 1170.67188,888.691406 C1171.05183,888.183747 1170.55729,887.428385 1170.5,886.796875" id="Path-4342" stroke="#979797" stroke-width="5" stroke-linecap="round" stroke-linejoin="round"></path>
                <path d="M1024.85938,843.816406 C996.113342,837.121667 987.593621,829.754892 964.558594,850.539062 C963.953015,851.085468 964.330539,852.291635 964.773438,852.976562 C965.145253,853.551564 966.03125,853.518229 966.660156,853.789062" id="Path-4343" stroke="#979797" stroke-width="5" stroke-linecap="round" stroke-linejoin="round"></path>
                <path d="M951.972656,866.234375 C915.649781,864.965062 928.206994,859.275695 910.785156,869.984375" id="Path-4344" stroke="#979797" stroke-width="5" stroke-linecap="round" stroke-linejoin="round"></path>
                <path d="M870.285156,866.273438 C860.479527,866.273438 843.204895,881.778608 855.078125,882.003906" id="Path-4345" stroke="#979797" stroke-width="5" stroke-linecap="round" stroke-linejoin="round"></path>
                <path d="M977.355469,684.09375 C978.315104,680.705729 978.410247,676.941687 980.234375,673.929688 C983.451037,668.618337 986.210717,657.890528 992.171875,659.628906 L994.019531,654.5625 C1005.47774,657.903913 1000.35527,675.408195 993.246094,679.960938" id="Path-4349" stroke="#979797" stroke-width="5" stroke-linecap="round" stroke-linejoin="round"></path>
                <path d="M994.535156,648.03125 C993.733073,650.647135 992.056785,653.143766 992.128906,655.878906 C992.31335,662.873812 1003.723,655.182662 1002.52344,647.335938 C1002.02551,644.07886 993.728897,643.414549 993.976563,648.765625" id="Path-4350" stroke="#979797" stroke-width="5" stroke-linecap="round" stroke-linejoin="round"></path>
                <path d="M983.023438,711.578125 C983.068565,714.141619 982.464065,729.938813 984.527344,735.542969 C984.69661,736.002719 985.128906,734.769531 985.429688,734.382812" id="Path-4351" stroke="#979797" stroke-width="5" stroke-linecap="round" stroke-linejoin="round"></path>
                <path d="M989.339844,710.457031 C989.454427,717.891927 989.56901,725.326823 989.683594,732.761719" id="Path-4352" stroke="#979797" stroke-width="5" stroke-linecap="round" stroke-linejoin="round"></path>
                <path d="M984.3125,714.167969 C984.569832,721.175198 986.648171,731.22348 983.152344,738.519531 C978.679459,747.854775 964.078785,768.428358 980.835938,775.785156" id="Path-4353" stroke="#979797" stroke-width="5" stroke-linecap="round" stroke-linejoin="round"></path>
                <path d="M990.972656,730.132812 C1000.16199,742.268462 1004.31751,768.183088 997.070312,781.425781 C996.044144,783.300884 992.804688,781.709635 990.671875,781.851562" id="Path-4354" stroke="#979797" stroke-width="5" stroke-linecap="round" stroke-linejoin="round"></path>
                <path d="M975,773 C976.280555,775.040393 983.380925,785.891879 986.082031,780.230469" id="Path-4355" stroke="#979797" stroke-width="5" stroke-linecap="round" stroke-linejoin="round"></path>
                <path d="M920.535156,679.960938 C921.036458,683.59375 921.53776,687.226562 922.039062,690.859375" id="Path-4369" stroke="#979797" stroke-width="5" stroke-linecap="round" stroke-linejoin="round"></path>
                <path d="M928.695312,691.402344 C928.151042,694.46875 927.606771,697.535156 927.0625,700.601562" id="Path-4370" stroke="#979797" stroke-width="5" stroke-linecap="round" stroke-linejoin="round"></path>
                <path d="M934.75,695.847656 C934.263021,699.828125 933.776042,703.808594 933.289062,707.789062" id="Path-4371" stroke="#979797" stroke-width="5" stroke-linecap="round" stroke-linejoin="round"></path>
                <path d="M939.476562,703.421875 C938.316406,706.682292 937.15625,709.942708 935.996094,713.203125" id="Path-4372" stroke="#979797" stroke-width="5" stroke-linecap="round" stroke-linejoin="round"></path>
                <path d="M944.070312,709.144531 C945.58724,711.398438 947.104167,713.652344 948.621094,715.90625" id="Path-4373" stroke="#979797" stroke-width="5" stroke-linecap="round" stroke-linejoin="round"></path>
                <path d="M951.5,711.808594 C952.241757,717.911233 950.442189,716.849069 955.582031,716.566406" id="Path-4374" stroke="#979797" stroke-width="5" stroke-linecap="round" stroke-linejoin="round"></path>
                <path d="M959.1875,711.773438 C963.315147,714.231264 961.602461,714.676391 964.472656,712.273438" id="Path-4375" stroke="#979797" stroke-width="5" stroke-linecap="round" stroke-linejoin="round"></path>
                <path d="M967.046875,708.292969 C970.897827,711.927818 969.3612,712.666798 971.644531,710.535156" id="Path-4376" stroke="#979797" stroke-width="5" stroke-linecap="round" stroke-linejoin="round"></path>
                <path d="M1011.92969,674.46875 C1012.87592,663.70324 1010.85226,667.328203 1014.55078,662.292969" id="Path-4377" stroke="#979797" stroke-width="5" stroke-linecap="round" stroke-linejoin="round"></path>
                <path d="M1018.41406,666.160156 C1021.23438,662.268229 1024.05469,658.376302 1026.875,654.484375" id="Path-4378" stroke="#979797" stroke-width="5" stroke-linecap="round" stroke-linejoin="round"></path>
                <path d="M1029.10938,658.121094 C1032.15885,655.800781 1035.20833,653.480469 1038.25781,651.160156" id="Path-4379" stroke="#979797" stroke-width="5" stroke-linecap="round" stroke-linejoin="round"></path>
                <path d="M1036.83984,658.582031 C1041.02083,656.199219 1045.20182,653.816406 1049.38281,651.433594" id="Path-4380" stroke="#979797" stroke-width="5" stroke-linecap="round" stroke-linejoin="round"></path>
                <path d="M1059.60547,683.167969 C1059.67708,685.641927 1059.7487,688.115885 1059.82031,690.589844" id="Path-4385" stroke="#979797" stroke-width="5" stroke-linecap="round" stroke-linejoin="round"></path>
                <path d="M1053.84766,692.445312 C1053.16016,694.029948 1052.47266,695.614583 1051.78516,697.199219" id="Path-4386" stroke="#979797" stroke-width="5" stroke-linecap="round" stroke-linejoin="round"></path>
                <path d="M1030.91406,702.765625 C1029.20964,704.595052 1027.50521,706.424479 1025.80078,708.253906" id="Path-4388" stroke="#979797" stroke-width="5" stroke-linecap="round" stroke-linejoin="round"></path>
                <path d="M1018.92969,706.863281 C1015.06829,711.858352 1017.49013,710.387434 1012.01562,711.808594" id="Path-4389" stroke="#979797" stroke-width="5" stroke-linecap="round" stroke-linejoin="round"></path>
                <path d="M1005.66016,708.71875 C1004.19922,710.251302 1002.73828,711.783854 1001.27734,713.316406" id="Path-4390" stroke="#979797" stroke-width="5" stroke-linecap="round" stroke-linejoin="round"></path>
                <path d="M1447.46094,836.773438 C1402.53007,851.793201 1332.73028,869.787429 1285.24219,857.21875 C1258.49703,850.140106 1253.43066,830.858728 1238.21094,825.601562 C1236.44883,824.992899 1234.03051,823.551563 1232.67188,824.828125 C1214.68515,841.728345 1210.08038,858.528971 1201.61719,881.726562 C1200.27495,885.405625 1200.79213,889.765996 1198.78516,893.128906 C1198.17685,894.148186 1197.18099,891.378906 1196.37891,890.503906" id="Path-4288" stroke="#979797" stroke-width="5" stroke-linecap="round" stroke-linejoin="round"></path>
                <path d="M1163.65234,880.144531 C1201.26387,899.805472 1218.45761,871.530316 1256.25,865.375 C1261.98839,864.440378 1265.95454,871.808399 1271.06641,874.578125 C1273.64025,875.97269 1276.33698,877.355376 1279.22656,877.824219 C1298.49216,880.95012 1318.01948,882.271917 1337.29688,885.324219 C1347.46499,886.934195 1348.04043,890.884335 1357.60938,895.757812 C1367.23586,900.660594 1387.14801,899.896445 1398.88281,901.246094 C1399.30667,901.294842 1398.96875,900.397135 1399.01172,899.972656" id="Path-4289" stroke="#979797" stroke-width="5" stroke-linecap="round" stroke-linejoin="round"></path>
                <path d="M985.128906,735.621094 C968.167178,735.134128 965.104439,736.625723 973.578125,755.605469" id="Path-4356" stroke="#979797" stroke-width="5" stroke-linecap="round" stroke-linejoin="round"></path>
                <path d="M990.972656,735.390625 C994.14974,735.338542 997.362804,734.754743 1000.50391,735.234375 C1020.54248,738.294171 993.804944,754.528319 999.519531,762.175781 C999.784647,762.530568 1000.40495,762.201823 1000.84766,762.214844" id="Path-4357" stroke="#979797" stroke-width="5" stroke-linecap="round" stroke-linejoin="round"></path>
                <path d="M983.582031,770.988281 C982.265625,776.851563 982.701668,783.411586 979.632813,788.578125 C978.819426,789.947493 962.903149,802.045147 960.820313,810.109375 C956.233392,827.868798 991.764594,815.460557 994.75,813.972656 C1015.22464,803.768268 1024.0585,772.629099 1034.09375,757.421875 C1036.61557,753.600361 1057.09115,733.612352 1064.41406,745.402344 C1065.7455,747.545979 1066.47287,750.064803 1066.90625,752.550781 C1072.85398,786.668217 1029.37886,763.789675 1057.11328,751.855469" id="Path-4358" stroke="#979797" stroke-width="5" stroke-linecap="round" stroke-linejoin="round"></path>
                <path d="M1071.80078,743.042969 C1080.02378,743.188292 1100.0969,747.044167 1101.48047,732.105469 C1101.54287,731.43166 1100.27734,731.485677 1099.67578,731.175781" id="Path-4359" stroke="#979797" stroke-width="5" stroke-linecap="round" stroke-linejoin="round"></path>
                <path d="M989.210938,774.855469 C988.53776,778.798177 987.864583,782.740885 987.191406,786.683594" id="Path-4360" stroke="#979797" stroke-width="5" stroke-linecap="round" stroke-linejoin="round"></path>
                <path d="M990.15625,773.425781 C988.752604,777.947917 988.464766,782.983162 985.945312,786.992187 C981.474737,794.105894 974.321612,799.226683 969.582031,806.164062 C968.499154,807.749083 968.385799,810.048095 968.9375,811.886719 C969.186605,812.716897 970.627604,812.272135 971.472656,812.464844" id="Path-4361" stroke="#979797" stroke-width="5" stroke-linecap="round" stroke-linejoin="round"></path>
                <path d="M970.957031,807.324219 C960.473062,824.622768 996.611346,813.456824 1002.91016,803.035156" id="Path-4362" stroke="#979797" stroke-width="5" stroke-linecap="round" stroke-linejoin="round"></path>
                <path d="M990.414062,809.140625 C1017.18631,805.437259 1021.9569,773.890825 1036.625,754.988281 C1039.92736,750.732588 1057.89009,733.62074 1064.62891,742.539063 C1082.26757,765.882544 1042.70218,775.98592 1050.75781,757.304688 C1052.25947,753.822309 1055.82552,751.661458 1058.35938,748.839844" id="Path-4363" stroke="#979797" stroke-width="5" stroke-linecap="round" stroke-linejoin="round"></path>
                <path d="M1072.70312,743.933594 C1093.88591,744.77468 1098.0773,748.834533 1104.87109,730.558594" id="Path-4364" stroke="#979797" stroke-width="5" stroke-linecap="round" stroke-linejoin="round"></path>
                <path d="M975.035156,682.625 C968.622396,676.067708 962.537853,669.172513 955.796875,662.953125 C946.90032,654.744951 929.732432,655.990561 922.554688,665.695313 C909.760277,682.994142 931.430021,710.693772 949.09375,712.855469 C959.899012,714.177823 962.663975,710.46877 973.105469,705.394531" id="Path-4346" stroke="#979797" stroke-width="5" stroke-linecap="round" stroke-linejoin="round"></path>
                <path d="M999.945312,681.234375 C1015.4278,647.612138 1089.48534,633.189292 1059.17578,689.660156 C1054.17302,698.980989 1030.77187,704.551959 1021.76562,705.859375 C996.484012,709.529449 997.319664,715.870605 997.113281,705.664063" id="Path-4347" stroke="#979797" stroke-width="5" stroke-linecap="round" stroke-linejoin="round"></path>
                <path d="M989.125,677.5625 C983.059426,680.311287 979.62922,681.001162 975.851562,688.117188 C973.297959,692.927445 971.696933,698.301918 970.914062,703.691406 C968.282808,721.805659 1017.392,703.119637 998.574219,684.441406 C992.756171,678.666506 992.118479,679.330487 984.957031,677.097656" id="Path-4348" stroke="#979797" stroke-width="5" stroke-linecap="round" stroke-linejoin="round"></path>
                <path d="M934.75,664.148438 C933.690104,661.46875 932.630208,658.789062 931.570312,656.109375" id="Path-4365" stroke="#979797" stroke-width="5" stroke-linecap="round" stroke-linejoin="round"></path>
                <path d="M923.925781,663.917969 C916.757965,666.180581 917.124322,663.720544 917.742188,668.09375" id="Path-4366" stroke="#979797" stroke-width="5" stroke-linecap="round" stroke-linejoin="round"></path>
                <path d="M921.738281,673.347656 C920.005208,675.757812 918.272135,678.167969 916.539062,680.578125" id="Path-4367" stroke="#979797" stroke-width="5" stroke-linecap="round" stroke-linejoin="round"></path>
                <path d="M920.535156,679.960938 C920.449219,681.27474 920.363281,682.588542 920.277344,683.902344" id="Path-4368" stroke="#979797" stroke-width="5" stroke-linecap="round" stroke-linejoin="round"></path>
                <path d="M1045.25781,657 C1048.92318,656.342448 1052.58854,655.684896 1056.25391,655.027344" id="Path-4381" stroke="#979797" stroke-width="5" stroke-linecap="round" stroke-linejoin="round"></path>
                <path d="M1056.68359,657.113281 C1065.69533,657.958532 1064.51833,655.156775 1065.27344,660.167969" id="Path-4382" stroke="#979797" stroke-width="5" stroke-linecap="round" stroke-linejoin="round"></path>
                <path d="M1065.27344,663.066406 C1067.62109,665.398438 1069.96875,667.730469 1072.31641,670.0625" id="Path-4383" stroke="#979797" stroke-width="5" stroke-linecap="round" stroke-linejoin="round"></path>
                <path d="M1063.8125,672.191406 C1064.78646,674.794271 1065.76042,677.397135 1066.73438,680" id="Path-4384" stroke="#979797" stroke-width="5" stroke-linecap="round" stroke-linejoin="round"></path>
                <path d="M1043.75391,697.042969 C1041.01658,704.176329 1043.15296,701.877326 1038.85938,705.085938" id="Path-4387" stroke="#979797" stroke-width="5" stroke-linecap="round" stroke-linejoin="round"></path>
                <path d="M1070.35156,741.462891 C1088.8153,742.305087 1091.96806,744.213022 1099.98633,728.533203 C1100.44842,727.629581 1101.90416,725.500551 1102.2207,726.464844 C1108.06928,744.281433 1088.97289,749.184717 1076.02148,748.052734 C1073.7171,747.851326 1066.42186,740.749116 1071.87695,739.800781" id="Path-4501" fill="#424C59"></path>
                <path d="M999.529297,683.712891 C1006.36594,668.684245 1019.07187,660.895891 1034.83203,655.515625 C1065.77766,644.951287 1077.56727,662.444339 1060.98828,686.650391 C1048.36707,705.077901 1011.14468,709.052787 992.291016,711.505859 C987.080026,712.183867 981.776869,712.092117 976.529297,711.814453 C974.420037,711.702846 972.457982,710.059624 970.365234,710.345703 C957.864071,712.054614 959.601864,718.033576 945.90625,714.191406 C929.48041,709.583299 916.271639,683.0721 920.974609,666.472656 C926.568555,646.728456 956.182005,661.860858 963.064453,670.337891 C966.117975,674.098878 967.241369,679.170729 970.236328,682.978516 C971.375727,684.427146 974.054623,687.151774 975.089844,685.626953 C979.409283,679.264668 979.464344,670.76494 983.121094,664 C984.730278,661.02303 988.6171,659.851219 990.53125,657.060547 C992.548914,654.11896 992.697487,650.167962 994.654297,647.185547 C995.413036,646.029137 996.971939,644.843093 998.304688,645.212891 C999.693155,645.598148 1000.29021,647.450975 1000.64453,648.847656 C1001.22174,651.122907 998.361188,678.882443 998.089844,680.273438 L999.529297,683.712891 Z" id="Path-4499" fill="#424C59"></path>
                <path d="M983.357422,707.949219 C982.590193,752.943353 988.690163,726.18809 967.660156,735.722656 C966.543525,736.228913 964.686928,737.018493 964.955078,738.214844 C966.013367,742.936397 970.260805,746.583502 971.160156,751.337891 C981.565516,806.345472 976.550781,774 977.710937,778.744141 C978.254591,780.967261 979.493892,783.65191 978.289062,785.605469 C972.605085,794.821701 951.484608,802.153529 957.888672,810.884766 L956.921875,815.640625 C958.179277,817.354955 960.813391,817.893848 962.935547,817.765625 C971.258385,817.26275 979.73048,816.45096 987.630859,813.785156 C1016.33311,804.100234 1021.38626,775.438491 1035.60547,752.632812 C1041.37217,743.383812 1056.31252,737.508202 1064.01562,747.783203 C1069.10795,754.575747 1064.672,771.026565 1053.60156,767.109375 C1041.08294,762.679755 1069.81113,743.88479 1057.31641,747.318359 C1051.13998,749.015652 1041.43869,763.595177 1046.79297,769.640625 C1059.51708,784.007261 1073.26353,760.35646 1069.79297,748.285156 C1068.76046,744.693884 1068.00701,740.552644 1065.24023,738.041016 C1058.47057,731.895631 1041.47121,743.596742 1036.85156,747.222656 C1014.55849,764.720249 1026.47973,766.147044 1003.5,794.5 C1000.14215,798.642996 982.582601,808.710832 976.59375,807.851562 C975.209749,807.652989 975.117305,805.325895 975.111328,803.927734 C975.102359,801.829829 975.057431,799.274278 976.550781,797.800781 C986.825747,787.662415 999.785564,786.529874 1001.13867,771.109375 C1001.52959,766.654322 999.762348,762.048599 1000.79492,757.697266 C1002.12843,752.077766 1006.6317,747.562355 1008.05469,741.964844 C1008.51176,740.166885 1007.60229,737.863071 1006.12109,736.746094 C1001.91664,733.57549 994.0741,735.363739 992.763672,728.28125 C991.735621,722.724927 993.473563,716.891541 992.462891,711.332031 C992.189533,709.828345 990.229818,709.244792 989.113281,708.201172 L983.357422,707.949219 Z" id="Path-4500" fill="#424C59"></path>
            </g>
        </g>
    </g>
</svg>