<?xml version="1.0" encoding="UTF-8"?>
<svg width="1920px" height="636px" viewBox="0 0 1920 636" version="1.1" xmlns="http://www.w3.org/2000/svg" xmlns:xlink="http://www.w3.org/1999/xlink">
    <!-- Generator: Sketch 49.3 (51167) - http://www.bohemiancoding.com/sketch -->
    <title>Z (-10)</title>
    <desc>Created with Sketch.</desc>
    <defs></defs>
    <g id="Artwork" stroke="none" stroke-width="1" fill="none" fill-rule="evenodd">
        <g id="Why-Scene---The-Mouse-and-the-Sky">
            <g id="Z-(-10)" transform="translate(-19.000000, -91.000000)">
                <path d="M2.9375,74.8984375 C12.3755157,201.545315 2.96680708,329.202382 0.9609375,455.953125 C0.126257003,508.696521 0.508050152,561.455069 0.9609375,614.203125 C0.995266922,618.201493 1.48201391,622.222887 2.421875,626.109375 C3.38235491,630.081125 4.23089879,634.313565 6.625,637.625 C31.2687995,671.711416 137.403072,667.082328 152.828125,667.773438 C228.172088,671.149176 303.623729,671.484449 379,674.039063 C419.961154,675.427296 460.852054,678.761984 501.828125,679.601563 C575.259657,681.106136 648.764401,678.435286 722.164062,681.070312 C795.285512,683.695352 868.121182,691.815961 941.203125,695.375 C1066.04591,701.454755 1191.04691,703.923873 1315.89062,709.984375 C1497.86357,718.818199 1653.94499,735.077304 1834.80469,721.039063 C1875.95712,717.844831 1973.24063,712.079904 2029.61719,698.15625 C2040.18013,695.547458 2044.51266,664.631793 2044.99219,662.289063 C2048.22239,646.507993 2060.51136,568.794808 2061.91406,558.382813 C2066.54893,523.979116 2069.66469,484.054717 2067.92969,449.921875 C2066.83065,428.300406 2061.21333,407.066928 2060.11719,385.445313 C2054.55765,275.782686 2061.57339,289.201168 2073.17187,174.3125 C2078.69752,119.57831 2067.79649,109.688476 2037.95312,57.5 C2036.79605,55.4765756 2025.1313,36.0305932 2017.07812,33 C2012.84919,31.4085554 2008.28283,30.5520231 2003.76562,30.4453125 C1969.95991,29.6467161 1936.13114,29.7488177 1902.32031,30.2890625 C1839.67374,31.290058 1776.32015,36.0833249 1713.51562,33.84375 C1500.23271,26.2381986 1301.84422,8.76338203 1092.38281,21.5546875 C198.013118,76.1716984 2583.56033,-62.3119161 755.40625,39.3359375 C653.797661,44.9855133 553.83206,65.822711 452.09375,71.421875 C428.615869,72.7139793 405.083503,72.8593336 381.570312,72.9609375 C291.779481,73.3489366 201.986979,72.9140625 112.195312,72.890625 L2.9375,74.8984375 Z" id="Path-4469" fill="#D8D8D8"></path>
                <path d="M1348.875,144.703125 C1351.86108,157.655712 1352.45775,184.10977 1334.10156,187.304688 C1327.44467,188.463329 1292.31906,182.542269 1289.51562,199.367187 C1280.15938,255.519086 1331.87304,238.250983 1349.13281,276.132813 C1353.25655,285.183613 1354.08973,299.117215 1352.65625,307.75 C1351.03714,317.500698 1345.82382,326.350375 1343.54687,335.96875 C1342.78677,339.179611 1342.26755,342.863282 1343.63281,345.867188 C1344.93432,348.730833 1354.27146,351.734921 1356.86719,351.96875 C1379.05561,353.967534 1406.13247,354.84383 1422.32031,335.429688 C1440.12685,314.074231 1454.91023,290.35602 1471.96875,268.398438 C1474.58489,265.030962 1477.70531,261.968083 1481.24219,259.585938 C1501.03891,246.252498 1527.59522,249.961143 1547.125,236.703125 C1568.24261,222.367188 1582.63353,160.762042 1577.88281,137.59375 C1575.74358,127.161135 1558.36319,117.721504 1551.76562,114.476563 C1534.7057,106.08582 1503.82366,95.9054708 1484.42187,102.960938 C1459.56693,111.999448 1446.52749,130.130218 1418.625,127.15625 C1405.82549,125.792024 1357.1541,106.95918 1348.875,130.640625 L1348.875,144.703125 Z" id="Path-4471" fill="#EEEEEE"></path>
                <path d="M142.257813,357.304688 C154.497089,339.726776 195.679734,302.512113 221.976563,312.234375 C265.603478,328.363785 241.179128,331.246041 265.265625,351.585938 C285.842257,368.961921 329.975686,336.819948 334.929688,373.382813 C335.982356,381.152 336.515688,389.092669 335.703125,396.890625 C332.718275,425.535446 272.440279,425.338739 253.757813,441.414063 C241.141372,452.269875 252.14561,470.809122 242.25,483.476563 C222.781137,508.398791 155.486281,496.118633 135.5625,477.367188 C130.849551,472.931554 127.115666,467.415508 124.132813,461.671875 C120.89473,455.436786 118.381368,448.711463 117.09375,441.804688 C108.119818,393.668584 151.338111,397.431206 152.914063,360.085938 L142.257813,357.304688 Z" id="Path-4472" fill="#EEEEEE"></path>
                <path d="M392.140625,58.5078125 C388.740348,75.8915268 386.50062,83.494483 376.507813,98.7109375 C370.57572,107.743976 353.733968,120.701974 359.242188,135.273438 C365.99053,153.125526 409.446035,168.190885 426.15625,166.125 C440.892511,164.303155 447.706265,157.434011 461.976563,161.015625 C463.7991,161.473052 464.922517,163.479441 465.84375,165.117188 C469.47995,171.581544 471.807251,178.735543 475.546875,185.140625 C479.990348,192.751232 484.991374,196.489791 492.8125,200.367188 C512.370854,210.063426 547.235703,208.739879 554.398438,182.507813 C558.47384,167.582476 557.000419,153.594397 563.679688,139.757813 C572.008909,122.503232 593.007811,117.099855 597.609375,97.3203125 C608.730564,49.516562 559.706456,45.4308241 524.164062,39.0234375 C483.972969,31.778009 429.384707,13.5922302 399.4375,50.7734375 L392.140625,58.5078125 Z" id="Path-4473" fill="#EEEEEE"></path>
                <path d="M718,237 C691.012923,283.127514 685.621714,352.347527 693.296875,405.15625 C694.523005,413.592601 696.606939,421.893906 698.796875,430.132812 C699.451723,432.596459 700.321503,435.09077 701.804687,437.164062 C724.801739,469.310856 773.301848,485.544343 806.257812,500.25 C823.165156,507.794419 839.699809,516.632395 857.539062,521.585937 C917.669049,538.282625 993.012345,540.220147 1047.63281,505.8125 C1064.29675,495.31521 1106.12068,452.510876 1114.54688,440.640625 C1129.45235,419.642817 1141.5573,381.992396 1146.75781,358.46875 C1152.62653,331.922593 1154.02537,302.161193 1147.61719,275.4375 C1141.56764,250.209384 1097.84915,219.689157 1076.66406,207.945312 C989.19605,159.457875 973.266321,137.222724 874,160.5 C860.695624,163.619786 771.859697,178.71484 764,190.5 C746.718058,216.413269 730.819911,215.087636 718,237 Z" id="Path-4470" fill="#F7F7F1"></path>
                <path d="M836.957031,183.484375 C877.37744,172.807889 920.174702,167.375878 961.253906,177.144531 C967.32957,178.589327 972.935327,181.701818 979.03125,183.058594 C1017.40865,191.600288 1047.60045,194.600152 1079.23438,221.289063 C1091.53552,231.667288 1109.76798,259.644609 1117.58594,273.550781 C1121.8965,281.218189 1132.25253,301.336284 1133.82031,312.707031 C1140.79441,363.288338 1092.82333,443.101453 1079.79297,470.105469 C1073.79394,482.53781 1050.99228,524.767919 1028.72656,525.730469 C1010.8159,526.504749 992.877917,524.45664 974.953125,524.761719 C936.11422,525.422755 900.291541,527.91143 861.308594,521.902344 C827.608378,516.707572 786.97138,510.57316 757.84375,490.554688 C743.79433,480.898978 731.342483,463.228763 722.582031,449.773438 C715.800819,439.35806 703.969025,421.330122 700.464844,406.714844 C697.215551,393.162654 698.535824,364.854626 699.863281,356.695312 C703.349825,335.265015 707.337476,313.635794 715.152344,293.378906 C732.108289,249.427466 774.547028,209.13012 818.832031,194.039063 L836.957031,183.484375 Z" id="Path-4268" stroke="#979797" stroke-width="5" stroke-linecap="round" stroke-linejoin="round"></path>
                <path d="M823.6875,201.035156 C810.535513,180.725515 809.278574,174.603317 813.464844,150.9375" id="Path-4269" stroke="#979797" stroke-width="5" stroke-linecap="round" stroke-linejoin="round"></path>
                <path d="M721.9375,328.359375 C676.223168,325.647972 693.391229,328.926763 669.714844,323.644531" id="Path-4270" stroke="#979797" stroke-width="5" stroke-linecap="round" stroke-linejoin="round"></path>
                <path d="M732.160156,443.007812 C725.231771,443.665365 718.303385,444.322917 711.375,444.980469" id="Path-4271" stroke="#979797" stroke-width="5" stroke-linecap="round" stroke-linejoin="round"></path>
                <path d="M742.683594,470.027344 C733.118903,480.118842 738.090277,476.136671 728.253906,482.554688" id="Path-4272" stroke="#979797" stroke-width="5" stroke-linecap="round" stroke-linejoin="round"></path>
                <path d="M773.476562,491.058594 C772.589844,495.361979 771.703125,499.665365 770.816406,503.96875" id="Path-4273" stroke="#979797" stroke-width="5" stroke-linecap="round" stroke-linejoin="round"></path>
                <path d="M790.914062,504.664062 C787.152912,510.161892 788.182781,507.259331 787.394531,513.207031" id="Path-4274" stroke="#979797" stroke-width="5" stroke-linecap="round" stroke-linejoin="round"></path>
                <path d="M804.144531,508.066406 C803.786458,511.222656 803.428385,514.378906 803.070312,517.535156" id="Path-4275" stroke="#979797" stroke-width="5" stroke-linecap="round" stroke-linejoin="round"></path>
                <path d="M818.703125,508.414062 C817.219062,521.161333 813.648193,518.916187 821.195312,520.820312" id="Path-4276" stroke="#979797" stroke-width="5" stroke-linecap="round" stroke-linejoin="round"></path>
                <path d="M1063.85938,470.183594 C1064.55596,480.855166 1064.31418,490.830533 1078.97656,488.042969 C1080.06358,487.836309 1079.77865,485.980469 1080.17969,484.949219" id="Path-4277" stroke="#979797" stroke-width="5" stroke-linecap="round" stroke-linejoin="round"></path>
                <path d="M1070.94531,433.035156 C1078.6033,442.286998 1083.00411,427.924209 1072.36328,431.953125" id="Path-4278" stroke="#979797" stroke-width="5" stroke-linecap="round" stroke-linejoin="round"></path>
                <path d="M1073.69141,415.835938 C1085.65816,416.28674 1081.33523,418.425386 1087.86719,412.9375" id="Path-4279" stroke="#979797" stroke-width="5" stroke-linecap="round" stroke-linejoin="round"></path>
                <path d="M1767.10938,416.167969 C1768.90048,426.532287 1776.80587,420.376197 1767.625,415.238281" id="Path-4433" stroke="#979797" stroke-width="5" stroke-linecap="round" stroke-linejoin="round"></path>
                <path d="M1777.71875,406.15625 C1778.69027,415.293355 1787.41453,406.652034 1775.78516,404.917969" id="Path-4434" stroke="#979797" stroke-width="5" stroke-linecap="round" stroke-linejoin="round"></path>
                <path d="M1794.98438,299.160156 C1788.35082,301.697128 1788.59227,305.853152 1798.24609,305.230469 C1798.79291,305.195198 1799.27361,304.218269 1798.97656,303.757812 L1798.71875,299.933594 C1797.72103,298.387003 1795.79948,297.691406 1794.33984,296.570312" id="Path-4435" stroke="#979797" stroke-width="5" stroke-linecap="round" stroke-linejoin="round"></path>
                <path d="M1822.04297,226.761719 C1817.86413,235.852682 1830.94043,230.588724 1822.17188,225.988281" id="Path-4436" stroke="#979797" stroke-width="5" stroke-linecap="round" stroke-linejoin="round"></path>
                <path d="M1589.90234,245.972656 C1584.68333,236.57844 1586.08982,251.160045 1589.47266,249.449219 C1594.56287,246.874908 1590.57383,242.621908 1587.58203,242.027344" id="Path-4437" stroke="#979797" stroke-width="5" stroke-linecap="round" stroke-linejoin="round"></path>
                <path d="M1570.61719,330.042969 C1572.13137,353.207971 1585.16461,334.973059 1572.42188,329.773438" id="Path-4438" stroke="#979797" stroke-width="5" stroke-linecap="round" stroke-linejoin="round"></path>
                <path d="M1615.67188,483.078125 C1616.25593,494.106983 1620.86356,486.049743 1615.41406,481.761719" id="Path-4439" stroke="#979797" stroke-width="5" stroke-linecap="round" stroke-linejoin="round"></path>
                <path d="M1564.90625,496.683594 C1564.67708,498.69401 1563.73049,500.751201 1564.21875,502.714844 C1569.5711,524.240462 1575.6919,502.353594 1567.56641,498.152344" id="Path-4440" stroke="#979797" stroke-width="5" stroke-linecap="round" stroke-linejoin="round"></path>
                <path d="M1585.86328,520.996094 C1567.89017,535.534577 1590.94666,528.986002 1585.17578,521.5" id="Path-4441" stroke="#979797" stroke-width="5" stroke-linecap="round" stroke-linejoin="round"></path>
                <path d="M1606.86719,511.332031 C1609.20197,518.310894 1613.85933,511.947272 1609.39844,508.78125" id="Path-4442" stroke="#979797" stroke-width="5" stroke-linecap="round" stroke-linejoin="round"></path>
                <path d="M1550.90234,497.765625 C1552.40625,499.041667 1553.91016,500.317708 1555.41406,501.59375" id="Path-4445" stroke="#979797" stroke-width="5" stroke-linecap="round" stroke-linejoin="round"></path>
                <path d="M887.300781,374.636719 C884.165365,374.558594 880.789637,373.195985 877.894531,374.402344 C855.196419,383.860398 902.847492,397.39878 883.824219,377.03125" id="Path-4391" stroke="#979797" stroke-width="5" stroke-linecap="round" stroke-linejoin="round"></path>
                <path d="M820.472656,410.96875 C820.214844,417.21875 818.609283,423.559123 819.699219,429.71875 C823.02359,448.505998 839.882805,420.324689 822.105469,422.566406" id="Path-4392" stroke="#979797" stroke-width="5" stroke-linecap="round" stroke-linejoin="round"></path>
                <path d="M880.515625,489.089844 C881.217448,494.643229 881.34078,500.300831 882.621094,505.75 C884.563842,514.018569 898.710354,502.957958 894.820312,497.09375 C892.750746,493.973894 889.463542,491.861979 886.785156,489.246094" id="Path-4393" stroke="#979797" stroke-width="5" stroke-linecap="round" stroke-linejoin="round"></path>
                <path d="M1010.65234,492.648438 C1010.63707,492.712458 1004.09584,520.142917 1016.44922,501.304687" id="Path-4394" stroke="#979797" stroke-width="5" stroke-linecap="round" stroke-linejoin="round"></path>
                <path d="M1023.62109,423.996094 C1022.33803,434.467668 1019.56787,433.898839 1026.54297,431.960937" id="Path-4395" stroke="#979797" stroke-width="5" stroke-linecap="round" stroke-linejoin="round"></path>
                <path d="M992.3125,373.976562 C989.146227,379.205054 988.835964,382.596321 995.664062,380.277344" id="Path-4396" stroke="#979797" stroke-width="5" stroke-linecap="round" stroke-linejoin="round"></path>
                <path d="M1045.44141,318.121094 C1049.81734,319.510975 1058.45275,325.2201 1061.76172,319.824219" id="Path-4397" stroke="#979797" stroke-width="5" stroke-linecap="round" stroke-linejoin="round"></path>
                <path d="M986.730469,215.226563 C987.411566,214.8433 999.113481,205.487439 1001.89062,210.007813" id="Path-4398" stroke="#979797" stroke-width="5" stroke-linecap="round" stroke-linejoin="round"></path>
                <path d="M928.707031,203.050781 C939.72698,182.830692 932.227547,186.708824 943.652344,182.601562" id="Path-4399" stroke="#979797" stroke-width="5" stroke-linecap="round" stroke-linejoin="round"></path>
                <path d="M962.464844,186.273438 C974.592274,179.129379 968.801848,180.590814 979.085938,179.585938" id="Path-4400" stroke="#979797" stroke-width="5" stroke-linecap="round" stroke-linejoin="round"></path>
                <path d="M796.9375,206.140625 C795.605469,203.75651 794.273438,201.372396 792.941406,198.988281" id="Path-4401" stroke="#979797" stroke-width="5" stroke-linecap="round" stroke-linejoin="round"></path>
                <path d="M773.617188,218.164063 C771.22526,217.029948 768.833333,215.895833 766.441406,214.761719" id="Path-4402" stroke="#979797" stroke-width="5" stroke-linecap="round" stroke-linejoin="round"></path>
                <path d="M762.578125,233.894531 C753.126557,229.805111 756.598267,228.61661 751.96875,230.957031" id="Path-4403" stroke="#979797" stroke-width="5" stroke-linecap="round" stroke-linejoin="round"></path>
                <path d="M744.453125,249.664062 C742.16276,249.792969 739.872396,249.921875 737.582031,250.050781" id="Path-4404" stroke="#979797" stroke-width="5" stroke-linecap="round" stroke-linejoin="round"></path>
                <path d="M737.023438,261.648438 C734.27474,261.609375 731.526042,261.570313 728.777344,261.53125" id="Path-4405" stroke="#979797" stroke-width="5" stroke-linecap="round" stroke-linejoin="round"></path>
                <path d="M712.800781,169.574219 C716.310486,183.740662 724.908725,170.8007 714.777344,169.84375" id="Path-4406" stroke="#979797" stroke-width="5" stroke-linecap="round" stroke-linejoin="round"></path>
                <path d="M1395.13281,141.007813 C1377.6811,149.580265 1412.91594,149.712901 1399.21484,139.695313" id="Path-4407" stroke="#979797" stroke-width="5" stroke-linecap="round" stroke-linejoin="round"></path>
                <path d="M1426.78516,158.480469 C1427.29515,167.583069 1432.90891,161.376062 1430.17969,157.746094" id="Path-4408" stroke="#979797" stroke-width="5" stroke-linecap="round" stroke-linejoin="round"></path>
                <path d="M1443.57812,142.980469 C1438.8177,162.497194 1463.46421,148.140859 1446.41406,144.410156" id="Path-4409" stroke="#979797" stroke-width="5" stroke-linecap="round" stroke-linejoin="round"></path>
                <path d="M1446.88672,170.230469 C1437.1274,200.549405 1460.25841,173.989978 1448.94922,172.203125" id="Path-4410" stroke="#979797" stroke-width="5" stroke-linecap="round" stroke-linejoin="round"></path>
                <path d="M1294.58984,315.996094 C1284.67246,343.867163 1308.83488,312.170194 1292.44141,316.808594" id="Path-4411" stroke="#979797" stroke-width="5" stroke-linecap="round" stroke-linejoin="round"></path>
                <path d="M1392.85547,419.242188 C1391.53906,423.06901 1388.49582,426.69661 1388.90625,430.722656 C1389.09266,432.551258 1392.3502,432.361972 1394.1875,432.308594 C1406.89305,431.939464 1397.05481,424.730699 1389.85156,422.914062" id="Path-4412" stroke="#979797" stroke-width="5" stroke-linecap="round" stroke-linejoin="round"></path>
                <path d="M452.871094,269.804688 C461.061001,302.595775 475.613364,269.633903 454.246094,268.914062" id="Path-4413" stroke="#979797" stroke-width="5" stroke-linecap="round" stroke-linejoin="round"></path>
                <path d="M535.976562,317.929688 C546.726784,336.015952 551.580666,305.3551 538.554688,315.804688" id="Path-4414" stroke="#979797" stroke-width="5" stroke-linecap="round" stroke-linejoin="round"></path>
                <path d="M591.8125,419.976562 C590.136719,422.901042 583.470676,428.137595 586.785156,428.75 L587.085937,430.839844 C589.601235,431.304587 592.542687,431.537541 594.734375,430.21875 C596.17235,429.353486 597.424982,426.476163 596.148437,425.386719 C594.68807,424.140394 592.398437,426.21224 590.523437,426.625" id="Path-4415" stroke="#979797" stroke-width="5" stroke-linecap="round" stroke-linejoin="round"></path>
                <path d="M200.246094,378.925781 C200.332031,381.592448 199.959746,384.313812 200.503906,386.925781 C201.050004,389.547053 207.061442,388.345119 207.332031,388.085937 C208.639823,386.833283 206.383926,382.307459 208.148438,382.714844 C211.562448,383.50306 212.795949,391.969494 215.707031,390.019531 L217.894531,389.902344 C224.851927,385.241993 215.894211,373.7618 209.304688,376.953125 C195.719567,383.532438 214.62986,379.940399 199.257812,381.902344" id="Path-4416" stroke="#979797" stroke-width="5" stroke-linecap="round" stroke-linejoin="round"></path>
                <path d="M222.964844,360.140625 C222.550826,363.837214 220.404528,368.109431 227.085938,368.179687 C232.224272,368.233718 230.123732,354.488696 219.140625,361.6875" id="Path-4417" stroke="#979797" stroke-width="5" stroke-linecap="round" stroke-linejoin="round"></path>
                <path d="M194.703125,369.765625 C187.468543,376.093499 197.055548,377.169757 200.074219,372.78125 C204.660511,366.113753 196.251083,365.682587 192.984375,367.214844" id="Path-4418" stroke="#979797" stroke-width="5" stroke-linecap="round" stroke-linejoin="round"></path>
                <path d="M258.957031,397.171875 C258.957031,418.305851 282.557983,399.303631 259.945312,395.585938" id="Path-4419" stroke="#979797" stroke-width="5" stroke-linecap="round" stroke-linejoin="round"></path>
                <path d="M208.921875,411.203125 C207.71875,412.324219 205.979504,413.063254 205.3125,414.566406 C199.613008,427.410717 222.432626,410.730319 206.300781,408.921875" id="Path-4420" stroke="#979797" stroke-width="5" stroke-linecap="round" stroke-linejoin="round"></path>
                <path d="M183.964844,393.652344 C184.668445,403.528347 193.918289,394.039245 186.328125,389.828125" id="Path-4421" stroke="#979797" stroke-width="5" stroke-linecap="round" stroke-linejoin="round"></path>
                <path d="M170.351562,283.992188 C168.519531,284.25 166.193463,283.487901 164.855469,284.765625 C148.265367,300.608425 181.776779,291.911811 168.890625,285.421875" id="Path-4422" stroke="#979797" stroke-width="5" stroke-linecap="round" stroke-linejoin="round"></path>
                <path d="M235.117188,126.398438 C240.40478,133.639803 240.251368,136.048214 247.960938,139.039062 C248.479233,139.24013 249.922368,138.948656 249.550781,138.535156 L249.25,134.707031 C246.190619,131.302566 242.0625,129.03776 238.46875,126.203125" id="Path-4423" stroke="#979797" stroke-width="5" stroke-linecap="round" stroke-linejoin="round"></path>
                <path d="M467.730469,125.933594 C466.090734,138.567008 475.710704,127.318913 470.136719,124.347656" id="Path-4424" stroke="#979797" stroke-width="5" stroke-linecap="round" stroke-linejoin="round"></path>
                <path d="M498.527344,129.992188 C489.891114,147.105502 509.745558,135.446604 498.355469,132.3125" id="Path-4425" stroke="#979797" stroke-width="5" stroke-linecap="round" stroke-linejoin="round"></path>
                <path d="M472.886719,145.183594 C471.511719,147.039063 469.365211,148.520833 468.761719,150.75 C466.556743,158.894694 484.822812,148.199219 470.953125,148.199219" id="Path-4426" stroke="#979797" stroke-width="5" stroke-linecap="round" stroke-linejoin="round"></path>
                <path d="M449.90625,176.222656 C454.719111,186.105191 448.913784,176.248719 453.085938,174.058594 C457.492702,171.745312 462.934896,172.615885 467.859375,171.894531" id="Path-4427" stroke="#979797" stroke-width="5" stroke-linecap="round" stroke-linejoin="round"></path>
                <path d="M404.898438,123.113281 C401.490885,123.5 397.984078,123.370035 394.675781,124.273437 C382.482341,127.603121 400.302914,136.233888 401.074219,138.1875 C401.987822,140.501535 396.331372,142.001245 396.953125,144.410156 L395.320313,150.710937 C396.17327,154.015624 398.619289,154.376567 403.910156,146.960937 C405.425638,144.836853 403.796488,139.734715 406.398438,139.539063 C413.024077,139.040849 419.128282,147.326243 425.46875,145.339844 C429.142171,144.189001 422.437171,136.968561 424.652344,133.820313 C426.738746,130.855075 432.255552,133.448859 435.261719,131.421875 C438.918813,128.955986 434.629647,125.274595 432.855469,124.890625 C430.669987,124.417641 428.369639,124.22524 426.15625,124.542969 C424.243076,124.817602 422.196294,127.90663 420.746094,126.628906 C417.129348,123.442311 417.18939,117.453662 414.003906,113.835938 C411.507049,111.000279 397.039784,124.259953 407.859375,125.855469" id="Path-4428" stroke="#979797" stroke-width="5" stroke-linecap="round" stroke-linejoin="round"></path>
                <path d="M1413.90234,246.652344 C1431.77257,217.054304 1415.79447,235.390681 1427.64453,249.550781 C1430.00014,252.365589 1435.36808,248.466833 1438.64062,250.128906 C1440.08033,250.86011 1439.73057,254.218011 1438.29688,254.960938 C1420.09323,264.393917 1422.66627,260.708919 1425.32812,255.929688" id="Path-4429" stroke="#979797" stroke-width="5" stroke-linecap="round" stroke-linejoin="round"></path>
                <path d="M1412.95703,246.378906 C1389.12649,245.948278 1404.69978,242.959417 1409.64844,257.9375 C1411.15038,262.483424 1404.48674,270.275915 1408.83594,272.277344 C1412.89148,274.143635 1410.91014,261.753679 1415.19141,260.488281 C1425.46017,257.45318 1422.68914,295.579208 1426.35547,256.816406" id="Path-4430" stroke="#979797" stroke-width="5" stroke-linecap="round" stroke-linejoin="round"></path>
                <path d="M1382.89453,184.648438 C1365.30456,205.087691 1408.41106,193.532636 1382.12109,183.179688" id="Path-4431" stroke="#979797" stroke-width="5" stroke-linecap="round" stroke-linejoin="round"></path>
                <path d="M1404.79687,173.402344 C1398.00229,186.610002 1417.35852,183.75736 1410.20703,172.007813" id="Path-4432" stroke="#979797" stroke-width="5" stroke-linecap="round" stroke-linejoin="round"></path>
                <path d="M256.148438,277.101563 C258.669271,268.908854 255.271987,251.020376 263.710938,252.523438 C276.189449,254.745985 294.394685,272.310742 286.984375,282.59375 C279.626953,292.803368 254.324309,281.522161 251.679688,269.21875 C249.437309,258.786672 271.099535,258.893416 281.75,258.242188 C286.367152,257.959869 274.828537,264.430756 271.867188,267.984375 C267.331189,273.427573 263.871033,279.711005 259.328125,285.148438 C258.264861,286.421064 256.578125,287.002604 255.203125,287.929688" id="Path-4474" stroke="#9B9B9B" stroke-width="6"></path>
                <path d="M1573.65625,383.171875 C1573.98194,381.534713 1578.47002,355.992137 1581.5625,361.835937 C1586.00141,370.224076 1580.42715,381.083622 1582.76562,390.28125 C1583.3324,392.510462 1603.63569,378.288738 1599.94531,388.273438 C1575.35877,454.794979 1587.42899,320.600577 1591.17969,420.359375 C1591.28988,423.290245 1587.12392,416.06159 1585.60156,413.554687 C1583.91811,410.782516 1584.74876,403.711733 1581.64844,404.664062 C1576.4093,406.273374 1573.37439,423.043993 1571.76562,417.804687 L1568.33594,419.820312 C1560.75447,395.129535 1584.62261,405.039115 1559.48437,395.15625 C1555.88557,393.741411 1548.74493,393.326868 1549.35156,389.507812 C1549.93703,385.822055 1556.84264,389.324949 1560.51562,388.664062 C1566.03624,387.670728 1571.39583,385.929687 1576.83594,384.5625" id="Path-4475" stroke="#9B9B9B" stroke-width="6"></path>
                <path d="M1695.71875,149.007813 C1698.86563,136.733625 1720.93115,105.742784 1717.71094,156.429687 C1717.49508,159.827346 1695.68462,144.422301 1694.6875,143.75" id="Path-4476" stroke="#9B9B9B" stroke-width="6"></path>
                <path d="M1252.22656,541.039063 C1255.0625,532.432292 1251.74011,514.113238 1260.73438,515.21875 C1271.17255,516.501738 1275.63167,533.320801 1274.21875,543.742188 C1273.38284,549.907627 1264.36952,534.56104 1258.15625,534.234375 C1254.74678,534.05512 1254.20312,539.802083 1252.22656,542.585938 L1252.22656,541.039063 Z" id="Path-4477" stroke="#9B9B9B" stroke-width="6"></path>
                <path d="M900.476562,212.859375 C900.283959,213.517728 892.786345,232.004477 894.460937,239.070312 C899.570053,260.627897 955.446696,248.996244 949.867187,228.476562" id="Path-4478" stroke="#9B9B9B" stroke-width="6"></path>
                <path d="M881.835938,290.710938 C876.592835,308.101695 883.847536,306.445544 891.796875,295.65625" id="Path-4479" stroke="#9B9B9B" stroke-width="6"></path>
                <path d="M759.945312,267.132813 C759.945312,289.836448 776.862967,268.633164 781.15625,261.71875 C783.813958,257.438461 775.436258,246.664761 771.882812,260.023438" id="Path-4480" stroke="#9B9B9B" stroke-width="6"></path>
                <path d="M724.46875,396.46875 C724.755208,401.080729 724.004265,405.877521 725.328125,410.304687 C729.800402,425.26059 744.118268,381.076182 723.695312,394.304687" id="Path-4481" stroke="#9B9B9B" stroke-width="6"></path>
                <path d="M978.554687,407.0625 C975.027416,423.720842 982.474639,411.601846 978.898437,407.140625" id="Path-4482" stroke="#9B9B9B" stroke-width="6"></path>
                <path d="M1029.57812,227.085938 C1035.63084,249.921177 1044.77203,226.394619 1030.17969,226.703125" id="Path-4483" stroke="#9B9B9B" stroke-width="6"></path>
                <path d="M1009.82031,239.53125 C1007.30208,240.794271 1004.34101,241.415199 1002.26563,243.320312 C978.890365,264.777745 1022.60473,239.200825 1008.27344,238.679688" id="Path-4484" stroke="#9B9B9B" stroke-width="6"></path>
                <path d="M949.695313,287.390625 C947.71875,289.013021 945.315411,290.223819 943.765625,292.257813 C930.950698,309.076568 972.812479,284.869032 947.632813,285.21875" id="Path-4485" stroke="#9B9B9B" stroke-width="6"></path>
                <path d="M1149.75,395 C1149.95751,350.574228 1160.92529,308.964919 1157.65625,265.351562 C1157.11187,258.088784 1153.75681,232.30495 1147.6875,223.53125 C1136.63124,207.548479 1117.64476,191.196756 1101.82031,180.3125 C1079.59586,165.026239 1086.57361,177.403045 1081.11719,166.242188" id="Path-4486" stroke="#9B9B9B" stroke-width="6"></path>
                <path d="M677.914062,221.054688 C605.120417,241.1331 647.417179,373.411492 651.882812,409.382812 C653.888883,425.541998 653.492599,441.948146 655.664062,458.085937 C661.152829,498.877131 680.587621,508.952684 717.507812,522.867187 C735.899582,529.798688 755.437714,533.530568 773.601562,541.039062 C829.98128,564.345071 874.951771,607.16501 938.351562,608.445312 C994.62047,609.581613 1028.43073,590.75325 1074.75781,558.820312 C1086.31534,550.853786 1097.25944,540.457121 1101.39062,526.5 C1101.63524,525.673584 1100.1875,525.265625 1099.58594,524.648437" id="Path-4487" stroke="#9B9B9B" stroke-width="6"></path>
                <path d="M1013.77344,631.179688 C1053.38355,601.801974 1083.10085,583.769856 1104.14062,538.25 C1112.24614,520.713602 1115.17282,501.036233 1123.64062,483.671875 C1149.27009,431.115253 1146.27671,465.015173 1147.60156,445.945312" id="Path-4488" stroke="#9B9B9B" stroke-width="6"></path>
                <path d="M1192.01562,433.421875 C1205.42269,387.233147 1216.75066,333.220925 1192.27344,288.15625 C1184.80812,274.411951 1170.81562,264.852425 1163.75,250.898438 C1145.79594,215.440739 1154.1124,199.363956 1129.64844,170.5 C1092.06617,126.158336 986.243023,131.793115 939.640625,133.234375 C917.338995,133.924091 894.942554,134.886977 872.898437,138.335938 C803.648284,149.170622 786.910062,162.108791 727.90625,190.367188 C694.543307,206.345533 668.903973,214.112338 657.640625,255.304688 C653.253704,271.348548 659.570026,301.318991 660.390625,316.296875 C665.500912,409.571733 656.833984,336.157684 662.617187,365.546875 C662.716743,366.052798 663.090802,366.88989 662.617187,367.09375 C662.018229,367.351563 661.419271,366.578125 660.820312,366.320313" id="Path-4489" stroke="#9B9B9B" stroke-width="6"></path>
                <path d="M708.492188,255.070312 C680.588115,277.814192 675.025313,335.510495 680.226563,369.179687 C688.369279,421.889847 688.925886,370.465029 690.453125,405.898437 C691.132622,421.663419 687.520588,451.226683 709.4375,456.695312" id="Path-4490" stroke="#9B9B9B" stroke-width="6"></path>
                <path d="M890.507812,537.710938 C914.466585,554.750319 951.51311,574.667147 981.21875,561.132812" id="Path-4491" stroke="#9B9B9B" stroke-width="6"></path>
                <path d="M977.4375,592.757813 C1039.28063,571.375879 1031.8314,579.064311 1062.90625,529.210938 C1075.95929,508.269943 1089.82193,498.385532 1088.16406,473.78125" id="Path-4492" stroke="#9B9B9B" stroke-width="6"></path>
                <path d="M1034.04687,547.375 C1033.78906,552.554688 1032.67515,557.762589 1033.27344,562.914062 C1033.37258,563.7677 1035.74094,563.766287 1035.85156,562.914062 L1037.48437,560.367187 C1038.02866,556.174251 1039.15575,551.701769 1037.82812,547.6875 C1037.34131,546.215535 1034.73437,547.479167 1033.1875,547.375" id="Path-4493" stroke="#9B9B9B" stroke-width="6"></path>
                <path d="M992.125,540.960938 C984.245969,540.171043 958.114234,545.263685 990.492187,545.132812 C999.754481,545.095374 999.71704,539.189279 986.882812,536.703125" id="Path-4494" stroke="#9B9B9B" stroke-width="6"></path>
                <path d="M1033.875,172.585938 C1069.63184,173.130245 1076.7047,180.01022 1101.73438,206.210938" id="Path-4495" stroke="#9B9B9B" stroke-width="6"></path>
                <path d="M662.53125,506.789062 C670.748192,521.747633 665.337831,536.292001 684.867188,545.523437 C705.20169,555.135462 729.884107,548.842895 751.179688,556.5 C779.429167,566.65747 794.784829,587.011152 819.039062,603.890625 C828.815874,610.694692 848.595129,609.794638 858.296875,610.382812" id="Path-4496" stroke="#9B9B9B" stroke-width="6"></path>
                <path d="M605.585938,142.742188 C596.708351,141.068299 591.749279,148.298189 596.648438,152.640625 C599.814333,155.44676 614.218227,145.024577 598.796875,141.273438" id="Path-4497" stroke="#9B9B9B" stroke-width="6"></path>
                <path d="M700.15625,96.046875 C696.85647,108.811024 706.483218,111.542994 711.414063,101.695312 C715.754476,93.0268162 705.50862,88.6970024 700.84375,95.7421875 L700.15625,96.046875 Z" id="Path-4498" stroke="#9B9B9B" stroke-width="6"></path>
            </g>
        </g>
    </g>
</svg>