<?xml version="1.0" encoding="UTF-8"?>
<svg width="1920px" height="837px" viewBox="0 0 1920 837" version="1.1" xmlns="http://www.w3.org/2000/svg" xmlns:xlink="http://www.w3.org/1999/xlink">
    <!-- Generator: Sketch 49.3 (51167) - http://www.bohemiancoding.com/sketch -->
    <title>Z (-10)</title>
    <desc>Created with Sketch.</desc>
    <defs></defs>
    <g id="Artwork" stroke="none" stroke-width="1" fill="none" fill-rule="evenodd">
        <g id="About-Scene---house-in-a-field">
            <g id="Z-(-10)" transform="translate(-42.000000, -541.000000)">
                <path d="M199.635664,681.688428 C251.473426,665.951965 306.716819,660.81187 360.132712,655.100998 C371.572344,653.877949 383.149429,654.761777 394.630204,654.018252 C401.536299,653.570995 408.324287,651.713023 415.24248,651.531946 C429.457952,651.159871 489.427264,633.193225 496.157695,663.73289 C496.407265,664.865323 496.56813,666.12717 496.157695,667.211713 C495.935951,667.797656 495.121396,668.000513 494.5035,668.103976 C458.565122,674.121657 422.91194,682.645769 386.589812,685.558243 C373.747355,686.58801 253.416645,694.718956 209.891675,683.182217 L199.635664,681.688428 Z" id="Path-2870" fill="#D8D8D8"></path>
                <path d="M588.080829,701.929764 C588.485187,698.654791 587.033947,694.50933 589.293905,692.104846 C605.958816,674.374202 641.355288,664.286561 663.592339,659.572338 C697.197125,652.448171 737.046688,646.95995 771.395747,646.870123 C828.320387,646.721258 885.260693,647.841956 942.138781,650.148438 C948.192373,650.393919 954.150291,652.279513 959.783532,654.509498 C968.929849,658.130175 994.308708,661.989445 986.230606,667.602705 C977.219611,673.864207 880.036879,676.508066 872.37184,677.227114 C637.354696,699.273783 1071.06286,675.66466 607.048935,689.528312 C597.147002,689.824158 564.804872,700.542987 564.390746,706.491333" id="Path-2871" fill="#D8D8D8"></path>
                <path d="M1861.01922,1042.11253 C1827.73626,1037.20344 1869.45447,1042.6678 1790.80114,1043.00479 C1756.00146,1043.15389 1721.04228,1037.74345 1686.4164,1041.22026 C1666.70202,1043.1998 1648.56012,1052.94236 1629.75269,1059.1758 C1627.8067,1059.82077 1623.46047,1062.30078 1626.33402,1065.62215 C1627.61446,1067.10214 1630.00615,1067.16834 1631.95828,1067.30642 C1638.00522,1067.73416 1644.10825,1067.86604 1650.14441,1067.30642 C1668.76147,1065.58042 1687.16298,1061.74509 1705.8156,1060.45906 C1723.66675,1059.22828 1741.62298,1058.82587 1759.49173,1059.7673 C1780.63916,1060.88147 1801.54995,1064.8365 1822.65192,1066.61467 C1829.05894,1067.15456 1835.5659,1067.55254 1841.94084,1066.71492 C1855.33299,1064.95531 1890.86187,1038.77007 1856.60804,1038.34297" id="Path-2872" fill="#D8D8D8"></path>
                <path d="M1908.07857,1168.89407 C1866.70491,1164.23688 1866.77332,1164.85298 1819.78464,1156.19185 C1807.0796,1153.85001 1794.70351,1149.63273 1781.86848,1148.16149 C1766.93005,1146.44913 1751.80031,1145.90083 1736.78414,1146.67772 C1721.01435,1147.49361 1705.4183,1150.43309 1689.82504,1152.92356 C1680.56766,1154.4021 1671.31928,1156.11026 1662.27517,1158.5779 C1655.87894,1160.32309 1640.90296,1159.48586 1643.63791,1165.52552 L1642.54513,1170.38786 C1643.07677,1171.56189 1644.99582,1171.37146 1646.28462,1171.37035 C1683.72797,1171.338 1721.18284,1169.16889 1758.60949,1170.2876 C1801.88627,1171.58118 1793.4773,1180.40845 1838.53219,1185.95734 C1860.69638,1188.68705 1883.11095,1189.15774 1905.44189,1189.33591 C1908.41665,1189.35965 1911.61709,1188.43789 1913.9234,1186.55887 C1915.17009,1185.54315 1916.19799,1182.36951 1914.69535,1181.79679 L1903.34657,1175.34042 C1896.31719,1172.66123 1889.04708,1170.45954 1881.6315,1169.19483 C1866.3135,1166.58237 1850.68791,1166.13389 1835.33408,1163.741 C1834.52761,1163.61531 1834.37832,1162.41764 1833.90044,1161.75596" id="Path-2873" fill="#D8D8D8"></path>
                <path d="M34.9580124,1071.67751 C60.800929,1063.78165 147.234308,1024.99547 172.406606,1063.04562 C174.29512,1065.90027 177.074043,1071.34789 174.171081,1073.16127 C162.458404,1080.47778 148.138508,1082.41832 134.931563,1086.45499 C114.693879,1092.64058 94.4827404,1099.04368 73.8666916,1103.81903 C69.6908857,1104.78628 31.9227673,1112.35029 22.1655686,1107.08731 C11.2409979,1101.19467 23.7126638,1071.02869 35.0682921,1068.19869" id="Path-2874" fill="#D8D8D8"></path>
                <path d="M208.899158,818.495395 C192.442135,820.930438 94.9482808,845.946984 148.04482,847.960122 C157.996316,848.33743 168.009019,848.827024 177.920591,847.859868 C190.352457,846.646786 211.579246,840.919625 223.77689,835.959687 C229.151253,833.774306 244.824452,829.941874 239.316301,828.119804 C219.434826,821.543106 210.468251,824.813428 196.327273,829.31283" id="Path-2875" fill="#D8D8D8"></path>
                <path d="M592.161177,820.179666 C613.481466,827.115182 625.225876,819.1202 650.9202,818.495395 C703.92237,817.206548 756.960752,819.023194 809.973587,818.294886 C814.661317,818.230485 827.227548,819.390142 823.868828,816.119369 C818.459187,810.851377 809.122953,812.772264 801.933195,810.465028 C753.272585,794.84955 710.982134,800.662232 659.842829,809.272003 C645.100195,811.75406 630.754575,816.230415 616.081844,819.09692 C612.517275,819.793304 594.467319,820.155019 587.198591,824.651006 C586.860385,824.8602 586.815385,825.737735 587.198591,825.844032 C588.580063,826.227238 590.065863,825.844032 591.499499,825.844032" id="Path-2876" fill="#D8D8D8"></path>
                <path d="M643.310902,975.042425 C640.995028,978.350816 637.732967,981.168561 636.363281,984.967597 C634.371328,990.492587 639.894288,990.77301 642.759503,990.822446 C663.993937,991.188825 685.247003,991.970855 706.471087,991.213438 C711.287073,991.041571 716.444068,990.523966 720.576862,988.045403 C722.236634,987.049987 719.838534,983.501071 721.348819,982.290809" id="Path-2877" fill="#D8D8D8"></path>
                <path d="M1373.80356,1250.8419 C1402.46398,1245.74672 1352.00196,1254.11155 1418.11594,1249.54862 C1442.9968,1247.83144 1467.79847,1244.95272 1492.51463,1241.61851 C1512.44218,1238.93028 1504.31793,1223.50331 1490.97071,1219.88338" id="Path-2878" fill="#D8D8D8"></path>
                <path d="M307.99047,675.402486 C358.319103,676.445589 357.834445,679.007236 400.309608,672.575316 C438.661586,666.767761 474.42822,654.091211 512.910183,649.361442" id="Path-2624" stroke="#979797" stroke-width="5" stroke-linecap="round" stroke-linejoin="round"></path>
                <path d="M1226.75061,1062.87017 C1259.01569,1068.40874 1289.79734,1069.14666 1322.43327,1066.7851" id="Path-2826" stroke="#979797" stroke-width="5" stroke-linecap="round" stroke-linejoin="round"></path>
                <path d="M1253.92452,1114.20537 C1357.62984,1122.87179 1217.65671,1112.5123 1381.34769,1116.9373 C1393.2515,1117.25909 1394.19242,1124.38075 1404.11042,1125.16817" id="Path-2828" stroke="#979797" stroke-width="5" stroke-linecap="round" stroke-linejoin="round"></path>
                <path d="M1428.63763,1175.22011 C1445.34009,1168.86576 1461.7347,1167.25916 1479.78234,1170.35778 C1482.62168,1170.84527 1509.15469,1173.8503 1510.15437,1185.24052" id="Path-2829" stroke="#979797" stroke-width="5" stroke-linecap="round" stroke-linejoin="round"></path>
                <path d="M1487.55706,1225.1718 C1478.31529,1227.23871 1469.3017,1231.42132 1459.83174,1231.37252 C1455.53509,1231.35038 1452.7832,1226.12172 1448.64337,1224.97129 C1431.82443,1220.29742 1414.20152,1225.69129 1398.65659,1231.76853 C1396.13671,1232.75367 1360.77964,1245.50635 1372.58547,1254.23551" id="Path-2831" stroke="#979797" stroke-width="5" stroke-linecap="round" stroke-linejoin="round"></path>
                <path d="M1627.87794,1179.63631 C1647.68317,1178.99134 1667.49214,1176.95011 1687.29362,1177.7014 C1742.14854,1179.78268 1674.22446,1184.26171 1712.25694,1183.40587 C1865.42603,1179.95915 1655.84713,1181.19674 1830.75246,1180.92458" id="Path-2832" stroke="#979797" stroke-width="5" stroke-linecap="round" stroke-linejoin="round"></path>
                <path d="M1740.91963,1163.01917 C1818.85481,1162.41212 1783.42773,1161.31542 1847.23426,1164.94906" id="Path-2833" stroke="#979797" stroke-width="5" stroke-linecap="round" stroke-linejoin="round"></path>
                <path d="M1866.1372,1162.52291 C1912.46116,1172.98724 1894.83692,1166.91269 1920.25947,1176.60863" id="Path-2834" stroke="#979797" stroke-width="5" stroke-linecap="round" stroke-linejoin="round"></path>
                <path d="M1889.56161,1191.98764 C1901.19111,1190.49886 1912.8206,1189.01008 1924.45009,1187.52131" id="Path-2835" stroke="#979797" stroke-width="5" stroke-linecap="round" stroke-linejoin="round"></path>
                <path d="M1640.00369,1069.56214 C1660.4869,1063.42736 1678.28136,1056.17989 1699.85548,1056.07293 C1764.88141,1055.75057 1686.7772,1060.72535 1740.58879,1064.55444 C1815.21699,1069.86479 1761.02783,1057.73497 1801.59852,1067.97813" id="Path-2836" stroke="#979797" stroke-width="5" stroke-linecap="round" stroke-linejoin="round"></path>
                <path d="M1647.93881,1043.77173 C1683.12013,1045.4126 1644.78635,1044.0115 1738.43834,1032.46305 C1748.76264,1031.18994 1748.39428,1038.79272 1758.66463,1039.70141 C1778.81618,1041.48436 1799.04635,1044.71624 1819.23826,1043.47097 C1837.43874,1042.34852 1854.98893,1036.26269 1872.86426,1032.65855" id="Path-2837" stroke="#979797" stroke-width="5" stroke-linecap="round" stroke-linejoin="round"></path>
                <path d="M151.328147,851.905128 C165.512455,847.804728 179.358055,842.266619 193.881069,839.60393 C258.487524,827.758804 215.141391,843.222473 237.145796,835.037348" id="Path-2858" stroke="#979797" stroke-width="5" stroke-linecap="round" stroke-linejoin="round"></path>
                <path d="M143.393023,855.424052 C141.722646,830.541956 202.451936,828.750717 205.61583,827.944359" id="Path-2859" stroke="#979797" stroke-width="5" stroke-linecap="round" stroke-linejoin="round"></path>
                <path d="M118.534978,989.654484 C149.399824,990.507719 178.39139,982.395938 208.979361,976.756773" id="Path-2860" stroke="#979797" stroke-width="5" stroke-linecap="round" stroke-linejoin="round"></path>
                <path d="M38.3466065,1079.23668 C76.7133234,1078.06684 6.00890958,1080.65612 116.940935,1067.48187 C129.406459,1066.00147 142.035498,1065.8631 154.581398,1066.28884 C177.666532,1067.07223 151.70784,1082.42464 147.197672,1084.24438 C125.279816,1093.08769 102.080927,1080.55 79.9571381,1083.99876 C79.2532175,1084.10849 46.0426939,1100.90099 43.6350188,1102.45055" id="Path-2861" stroke="#979797" stroke-width="5" stroke-linecap="round" stroke-linejoin="round"></path>
                <path d="M568.466082,696.631326 C621.10134,685.523135 674.271272,673.424802 728.020741,669.151633 C766.429376,666.098084 870.772894,667.667782 885.154259,667.116471 C885.581835,667.10008 981.396912,671.545821 1011.91575,651.792607" id="Path-2621" stroke="#979797" stroke-width="5" stroke-linecap="round" stroke-linejoin="round"></path>
                <path d="M612.006508,678.525406 C690.072591,637.194665 783.409743,655.531152 867.128542,651.296349" id="Path-2622" stroke="#979797" stroke-width="5" stroke-linecap="round" stroke-linejoin="round"></path>
                <path d="M197.37493,677.883779 C243.633018,671.283177 337.675985,650.264966 387.632456,659.928241" id="Path-2623" stroke="#979797" stroke-width="5" stroke-linecap="round" stroke-linejoin="round"></path>
                <path d="M1707.33946,812.440037 C1764.30557,796.946305 1742.83121,804.927001 1805.44327,805.642798 C2012.03583,808.004618 1780.65528,798.818649 1895.99793,803.858272" id="Path-2838" stroke="#979797" stroke-width="5" stroke-linecap="round" stroke-linejoin="round"></path>
                <path d="M1843.41959,785.606984 C1899.91116,800.87674 1869.07162,794.795577 1936.34025,801.677742" id="Path-2839" stroke="#979797" stroke-width="5" stroke-linecap="round" stroke-linejoin="round"></path>
                <path d="M1465.12517,1022.68826 C1439.72961,1009.60716 1426.984,1010.09011 1394.07998,1015.34965 C1380.06193,1017.59036 1340.29284,1020.3715 1353.02085,1026.65833 C1369.54426,1034.81986 1389.731,1023.24248 1408.13563,1022.29226 C1432.12924,1021.05349 1434.08535,1021.77967 1453.44053,1023.78104" id="Path-2825" stroke="#979797" stroke-width="5" stroke-linecap="round" stroke-linejoin="round"></path>
                <path d="M1244.05951,1057.01532 C1254.62296,1056.78307 1265.26864,1054.98283 1275.74988,1056.31856 C1345.11563,1065.15852 1265.27778,1062.77041 1301.2696,1063.41154" id="Path-2827" stroke="#979797" stroke-width="5" stroke-linecap="round" stroke-linejoin="round"></path>
                <path d="M1474.93505,1204.73497 C1451.87283,1204.54437 1504.01061,1197.97307 1505.30206,1201.46166 C1509.28589,1212.22318 1466.94181,1207.24193 1509.54783,1209.94317" id="Path-2830" stroke="#979797" stroke-width="5" stroke-linecap="round" stroke-linejoin="round"></path>
                <path d="M631.240288,971.879403 C642.19116,971.052159 679.594227,967.23301 694.621033,968.906865 C751.780313,975.273909 725.748578,975.134505 707.629024,976.095095" id="Path-2619" stroke="#979797" stroke-width="5" stroke-linecap="round" stroke-linejoin="round"></path>
                <path d="M587.534443,815.432627 C640.069887,806.070473 692.749611,799.012421 746.262004,800.850645 C762.469823,801.407405 778.656582,802.553349 794.820156,803.873311 C801.337907,804.405568 808.029528,804.46443 814.274495,806.404731 C817.976566,807.554958 806.521499,806.337895 802.645001,806.304476" id="Path-2620" stroke="#979797" stroke-width="5" stroke-linecap="round" stroke-linejoin="round"></path>
                <path d="M21.7421875,515.484375 C80.8779147,502.873975 107.392859,494.734758 162.445313,489.820313 C196.061583,486.819441 229.851905,486.018373 263.460937,482.9375 C390.372712,471.303753 517.657294,453.293297 645.617188,460.828125 C787.776654,469.199085 929.540983,483.324352 1071.42188,495.539063 C1136.96228,501.181521 1202.29867,509.092683 1267.86719,514.398438 C1287.99921,516.027505 1308.23246,516.180328 1328.42969,516.335938 C1408.62793,516.953823 1488.83344,516.047279 1569.03125,516.71875 C1627.24668,517.20617 1685.43997,519.44099 1743.65625,519.8125 C1782.5717,520.060841 1821.49959,517.414819 1860.39844,518.578125 C1898.59983,519.720573 1868.64687,525.482216 1901.71094,534.890625 C1916.24047,539.025016 1931.67527,538.941665 1946.46875,542 C1991.89652,551.391521 1998.04412,565.635415 2001.17969,610.03125 C2003.5515,643.613255 2005.72788,677.213948 2007.28125,710.84375 C2008.46624,736.498264 2008.69443,753.876353 2004.875,778.257813 C1982.26965,922.559991 1974.70942,916.294554 1972.40625,1018.99219 C1971.79726,1046.14706 1971.0231,1073.33476 1972.0625,1100.47656 C1974.12415,1154.31237 1986.17528,1209.96158 1974.55469,1263.82812 C1970.55671,1282.36049 1963.69647,1300.171 1959.09375,1318.5625 C1957.50346,1324.91696 1961.97618,1335.28668 1956,1337.96875 C1946.8748,1342.06409 1936.36335,1333.59327 1926.36719,1333.25 C1840.53049,1330.30235 1767.48368,1333.76021 1681.29687,1342.375 C1644.77569,1346.02547 1608.66164,1353.06603 1572.20312,1357.29688 C1483.7004,1367.5672 1440.97415,1371.17536 1357.80469,1374.46094 C1287.60617,1377.2341 1167.11932,1378.87404 1107.15625,1377.47656 C1036.72834,1375.83519 966.436561,1370.1908 896.015625,1368.27344 C840.545435,1366.76314 785.021403,1368.53688 729.546875,1367.19531 C-585.943319,1335.38216 1606.48959,1382.49912 455.445312,1356.75781 C176.381821,1350.51699 500.748579,1362.04627 123.53125,1347.86719 C97.0241755,1346.87082 70.6723592,1344.30962 44.421875,1340.28906 C35.9660546,1338.99396 27.5585405,1337.13281 19.421875,1334.49219 C17.6217911,1333.908 16.0247023,1332.44622 15.125,1330.78125 C9.53453053,1320.43567 9.58899837,1292.9594 9.6328125,1288.10938 C10.1078576,1235.52404 13.7366181,1182.98587 13.6640625,1130.39844 C5.1637319,-5030.53815 11.0788629,16741.5924 7.140625,1025.875 C7.0102464,505.593276 18.1561848,918.025031 1.640625,674.195313 C-1.84346921,622.757413 4.37130115,664.902469 7.484375,605.703125 C8.24267057,591.283101 6.39583333,576.84375 5.8515625,562.414063 L21.7421875,515.484375 Z" id="Path-4243" fill="#F7F7F1"></path>
            </g>
        </g>
    </g>
</svg>