<?xml version="1.0" encoding="UTF-8"?>
<svg width="1631px" height="867px" viewBox="0 0 1631 867" version="1.1" xmlns="http://www.w3.org/2000/svg" xmlns:xlink="http://www.w3.org/1999/xlink">
    <!-- Generator: Sketch 49.3 (51167) - http://www.bohemiancoding.com/sketch -->
    <title>Z (-10)</title>
    <desc>Created with Sketch.</desc>
    <defs></defs>
    <g id="Artwork" stroke="none" stroke-width="1" fill="none" fill-rule="evenodd">
        <g id="Contact-Scene---rocket-in-the-gully">
            <g id="Z-(-10)" transform="translate(-52.000000, -23.000000)">
                <path d="M1462.38285,86.933694 C1467.0616,110.843924 1467.47331,133.768029 1449.03901,153.011278 C1442.26543,160.0821 1431.11261,163.107909 1426.34144,171.658571 C1411.42382,198.393213 1457.7244,223.905905 1434.60239,251.120099 C1416.6348,272.267646 1333.79586,263.189805 1320.84388,264.31356 C1295.49206,266.513166 1320.04373,295.341622 1295.04846,297.156857 C1086.47716,312.303959 1502.74608,277.797542 1213.37131,287.031176 C1204.54143,287.312928 1198.0011,295.783055 1190.00204,299.532883 C1185.55165,301.619153 1180.94664,303.583629 1176.11683,304.495469 C1146.1551,310.152067 1117.13695,286.430164 1083.19115,292.294525 C1048.93345,298.212769 1052.69285,307.390566 1026.31691,309.257546 C961.119769,313.872425 1016.2114,311.048533 985.754035,305.979232 C981.800422,305.321195 977.610909,304.673531 973.733549,305.688494 C965.258946,307.906862 968.980943,324.317484 958.635258,328.105347 C787.322409,390.828075 1294.49417,193.235557 901.089311,332.17567 C891.264684,335.645467 887.625816,348.60504 878.71256,354.001023 C864.796453,362.425675 845.011785,361.221087 833.738498,372.949079 C826.873925,380.090532 834.459817,393.023003 831.984048,402.614315 C831.114727,405.982131 818.849459,413.306346 815.883213,414.313988 C796.500745,420.898266 766.080082,424.409717 747.981002,411.937962 C746.275459,410.762702 744.67172,409.001465 744.241518,406.975376 C742.264775,397.665667 741.126685,367.030414 742.035924,358.562592 C744.957063,331.357753 755.79021,330.489691 746.657645,298.04912 C744.910492,291.842905 723.973194,277.639812 720.872249,263.220789 C716.060211,240.84539 737.02003,239.068665 750.076316,229.986501 C756.090095,225.803219 737.106697,220.001116 743.35928,204.692351 C745.226694,200.120191 750.530605,197.762256 753.164147,193.584178 C754.351306,191.700766 756.075845,188.597626 754.487503,187.037575 C745.095302,177.812665 723.48659,177.774126 728.471522,158.856102 C739.113159,118.470649 755.337717,155.815011 779.290408,137.923012 C787.012724,132.154655 780.536059,118.64208 782.267959,109.160064 C782.694937,106.822392 784.156736,104.722561 785.68663,102.904198 C798.313289,87.8967144 820.789544,90.0344826 837.598287,82.4723793 C849.134535,77.282324 877.310251,55.3185191 888.748011,54.6919232 C917.834926,53.0984521 922.998033,62.6725524 953.672672,70.3716898 C962.287491,72.5339543 971.603178,71.0522114 980.129771,73.5397245 C1053.33758,94.8970703 915.294263,77.7296308 1055.63126,95.4653317 C1074.622,97.8653703 1134.07983,91.8825843 1144.80742,90.3122626 C1153.43792,89.0489167 1153.28001,65.3145371 1169.94117,62.5318065 C1190.93065,59.0261626 1207.45422,76.0328534 1227.37683,79.3945735 C1249.8658,83.1893378 1266.59344,56.5530385 1287.89031,62.1307895 C1309.4607,67.7801772 1327.68365,81.9958921 1349.72713,85.2494224 C1366.58074,87.7369467 1385.05441,88.0234859 1401.64882,86.933694 C1426.12826,85.3260734 1452.29412,73.817564 1462.60341,104.498241 C1470.70828,128.618545 1436.91317,148.717939 1428.64729,164.710951 C1425.32798,171.133222 1427.54449,179.127514 1426.99309,186.335795" id="Path-3163" fill="#F7F7F1"></path>
                <path d="M620.668114,330.88239 C663.442018,349.946544 686.392489,340.796934 682.835782,293.186788 C680.404199,260.637569 650.745885,256.359004 628.718531,243.681233 C627.648021,243.065105 629.833782,241.283991 630.924125,240.703682 C638.405691,236.721796 646.649723,234.276834 654.072834,230.187009 C657.701708,228.187651 661.391777,225.8622 663.877701,222.547635 C667.562254,217.634897 670.415179,211.977056 672.148678,206.085885 C673.457638,201.637475 674.856006,196.352019 672.810356,192.190644 C663.283761,172.811116 641.681689,173.953107 631.144684,157.863585 C622.357522,144.445991 625.752948,119.956941 613.389654,110.94459 C584.511772,89.8937575 620.091391,118.757377 583.30335,99.635909 C580.155858,97.9999246 582.349134,93.5057343 591.343742,85.4499309 C596.074833,81.2126436 601.107897,77.2723613 606.452059,73.8404873 C614.736946,68.5201609 624.106994,64.9509471 632.137201,59.2534922 C652.95731,44.481565 621.611603,22.6287399 609.981009,19.4726009 C598.935958,16.4753575 587.790773,13.0002058 576.35573,12.5350059 C530.757707,10.6799893 485.074254,13.4900812 439.448509,12.5350059 C424.847031,12.2293559 410.386247,9.44382357 395.797803,8.75542022 C383.026219,8.15275134 370.196858,9.5326485 357.440523,8.66519138 C311.907351,5.56884178 259.932015,-8.94793543 214.808784,8.95592874 C206.146777,12.3928144 199.30223,19.4768898 190.777837,23.2421611 C169.517676,32.6328916 154.894196,26.4372882 147.237411,46.7517856 C141.504317,61.9624654 159.35916,83.2885817 166.636611,89.710737 C171.430799,93.9414796 183.006604,85.999282 185.704971,91.7960257 C330.494888,402.839691 72.0719429,-77.0527904 199.149068,160.841136 C205.770956,173.237599 246.84318,157.023561 248.754877,166.395222 C250.692248,175.892745 248.196055,193.909332 260.334244,199.338773 C266.578285,202.131747 274.43253,199.500636 278.961486,206.577131 C283.059966,212.981005 275.458481,222.610599 275.211977,227.710729 C274.787169,236.499933 278.366028,245.22809 277.63813,253.997397 C277.457597,256.172353 273.07145,256.122002 272.675544,258.268228 L268.815755,265.306078 C266.565187,277.506525 267.547803,300.88888 279.292325,308.465537 C306.337127,325.912752 342.120887,307.145316 370.884619,311.24258 C382.938516,312.959604 394.460034,317.527719 406.494933,319.373201 C410.965107,320.058676 416.087058,316.601587 420.049309,318.781701 C453.608658,337.246763 422.500533,336.390493 454.887666,343.283843 C470.398437,346.58519 506.551971,334.616587 512.423587,334.160705 C555.031676,330.852542 603.363148,332.239859 646.132696,337.228485" id="Path-3165" fill="#F7F7F1"></path>
                <path d="M68.7483489,502.116671 C75.1823285,538.445909 62.8563753,472.075546 86.9344721,561.537372 C93.3407553,585.339826 142.466716,864.537963 146.575733,872.455916 C153.716825,886.216585 217.323924,889.280465 219.320225,889.318682 C282.483022,890.527895 1682.75871,825.681392 1682.51113,823.541861 C1681.54042,815.153116 1679.30865,806.937417 1678.43078,798.538448 C1676.88022,783.703385 1675.85733,768.808041 1675.23267,753.90525 C1669.40959,614.979847 1682.14128,705.795395 1652.4148,494.768033 C1649.1115,471.317969 1652.33037,422.435216 1619.02011,415.607268 C1588.25902,409.301849 1565.72431,429.792741 1536.35044,436.540358 C1498.43167,445.250869 1501.24353,418.547909 1468.55851,415.807776 C1445.9374,413.911345 1423.23279,413.117446 1400.54602,412.328953 C1389.85869,411.957508 1378.89612,414.683033 1368.46466,412.328953 C1358.45606,410.070301 1350.76091,401.282751 1340.79448,398.844755 C1312.94109,392.031236 1303.98589,401.752169 1280.06045,390.313117 C1275.37316,388.072064 1239.69765,360.32368 1236.74058,357.670329 C1228.1731,349.982824 1223.03902,340.173345 1211.93768,336.045485 C1194.04251,329.39145 1152.78617,329.277828 1143.15323,330.581628 C1126.02606,332.899755 1110.31984,341.432626 1093.66772,346.060886 C1059.17752,355.647034 1037.57493,359.848565 1008.13079,381.280208 C995.301975,390.617973 985.882891,410.142675 971.417676,416.700039 C955.482883,423.923592 938.590209,428.875333 922.583825,435.938832 C915.69235,438.979989 909.933597,444.384358 902.853786,446.956775 C887.863741,452.403341 871.449028,453.596796 856.776927,459.849474 C831.380348,470.672506 843.573971,489.237414 833.297379,508.56302 C825.399294,523.415733 799.697088,526.564591 784.914672,527.711584 C759.511101,529.68269 732.235318,527.573853 718.556376,501.715653 C715.526614,495.988296 712.126516,472.164646 703.117219,463.428551 C688.076581,448.844011 664.946645,447.364124 648.669129,434.25456 C637.164587,424.989048 647.167064,408.092159 630.813845,403.005307 C618.328959,399.121743 615.667343,414.356863 615.264409,422.94588 C613.720354,455.859277 623.135326,466.209068 601.158634,487.038429 C598.378454,489.673466 588.059185,490.550577 585.398664,489.414455 C560.483858,478.775091 553.098661,429.419431 538.660127,408.559393 C532.227407,399.265735 511.130678,402.191998 501.295364,397.852238 C490.026289,392.879841 485.78275,379.465324 474.066306,376.317622 C468.539369,374.832773 457.878891,374.212171 452.682072,375.134622 C440.991798,377.20968 426.539986,383.916175 422.475463,396.157941 C414.856772,419.104352 445.247963,423.078214 411.0164,437.332366 C408.318216,438.455901 405.423405,439.142416 402.524864,439.517909 C381.780593,442.205235 373.9953,418.12024 349.720944,412.228699 C344.803326,411.035161 339.682244,410.734342 334.622653,410.644682 C309.863737,410.20593 285.093208,410.208668 260.334244,410.644682 C255.088516,410.737061 249.818508,411.196382 244.674528,412.228699 C236.108294,413.947809 227.341714,415.412691 219.320225,418.875557 C207.495148,423.980426 196.675472,431.16768 185.594692,437.733383 C180.646903,440.6651 175.74486,443.737157 171.268358,447.347767 C164.728046,452.622982 159.197229,459.077781 152.63109,464.320814 C144.511734,470.804083 135.734905,476.418161 127.286813,482.466835 L68.7483489,502.116671 Z" id="Path-3166" fill="#EEEEEE"></path>
                <path d="M42.9529272,192.09039 C73.7585334,175.659081 105.399051,185.938894 131.026297,208.461911 C160.100626,234.014466 150.61646,232.588429 170.27584,247.250285 C182.047946,256.029856 208.037087,255.240081 210.838715,273.346469 C213.78194,292.367975 191.601804,298.497132 189.013362,315.904404 C183.895416,350.322592 209.105019,353.316178 174.456443,376.818893 C149.858704,393.503957 127.230609,379.52589 102.925027,373.340071 C99.9437145,372.581321 72.6637495,368.592922 64.9988395,370.172036 C61.4342953,370.906398 42.4167964,380.721287 35.7947729,377.019402 C31.1205775,374.406404 28.803551,368.833573 26.0901603,364.216933 C7.30245973,332.251002 5.13367804,304.870247 3.49284953,267.190858 C2.70575854,249.116386 -1.14494899,230.620733 2.61061202,212.923225 C7.47258341,190.011927 41.596263,197.179171 53.2089382,194.376187 C59.9860568,192.740375 65.5535797,187.893078 71.7259005,184.651523" id="Path-3164" fill="#F7F7F1"></path>
                <path d="M1590.13686,430.986271 C1555.20487,440.229576 1532.17947,447.334685 1494.01307,451.518344 C1444.96844,456.894435 1443.5168,448.552924 1391.50309,445.663495 C1290.18901,440.035369 1327.24675,451.120002 1220.20865,426.514931 C1213.02237,424.863005 1206.1113,422.076859 1199.37582,419.076065 C1191.23133,415.447531 1184.40906,408.471187 1175.67571,406.674613 C1129.69134,397.214971 1121.34201,405.162184 1111.85385,445.071995 C1109.79657,453.725445 1109.77683,462.768066 1107.88378,471.458917 C1107.26084,474.318772 1106.43495,477.440201 1104.35483,479.499309 C1102.78172,481.056524 1100.16471,481.103044 1097.95861,481.283835 C1090.44876,481.899268 1082.5127,484.248904 1075.3613,481.875335 C1045.07308,471.822605 1071.72613,469.120264 1053.97706,466.997602 C1038.64039,465.163446 1013.79571,472.347999 1000.74205,480.682309 C993.071142,485.579917 974.711823,491.694367 980.350331,498.838356 L979.578373,504.201959 C982.274466,507.61791 993.686101,508.715814 990.375757,511.540571 L990.486037,514.21736 C971.422031,530.48491 961.448244,532.054239 965.462573,562.038643 C966.765229,571.768632 977.643357,580.174863 972.189634,591.403117 C967.801359,600.4378 961.902369,609.659203 953.341832,614.912741 C936.788703,625.071273 926.031358,607.980674 911.235042,613.418953 C892.759606,620.209466 887.863426,635.702036 877.389203,650.132063 C874.819509,653.672255 869.617348,655.607767 868.576854,659.856727 C866.127705,669.858065 867.9356,703.89352 871.664685,714.415096 C877.262708,730.209864 910.764459,722.403642 919.17518,722.25498 C940.556179,721.877063 961.989826,721.049324 983.327882,722.455488 C1021.35348,724.96135 1043.6545,754.186016 1078.44913,765.013423 C1083.61649,766.621405 1089.14559,766.815806 1094.54996,767.098711 C1121.97773,768.534486 1149.4296,769.586145 1176.88879,770.166492 C1238.33272,771.465101 1299.65073,760.325101 1358.99063,744.872341 C1415.48691,730.16009 1472.11924,715.897353 1528.18975,699.637618 C1538.11891,696.758286 1547.69701,692.533313 1556.74216,687.526903 C1649.2046,636.349765 1597.96471,529.713745 1591.01909,450.225064 L1590.13686,430.986271 Z" id="Path-3162" fill="#EFEAEA"></path>
                <g id="Lines" transform="translate(16.000000, 32.000000)" stroke="#D8D8D8" stroke-linecap="round" stroke-linejoin="round" stroke-width="5">
                    <path d="M850.762252,659.481934 C851.059214,632.79735 840.368529,617.625178 861.840348,605.214302 C867.878736,601.724067 875.362327,601.184237 881.2997,597.5248 C891.055788,591.511738 880.425741,566.327275 896.673691,565.087533 C935.377148,562.134403 901.659209,566.44765 933.933188,567.122695 C941.218504,567.275075 953.303996,572.740611 955.75854,565.879542 C960.760275,551.898436 951.58772,536.465326 950.189416,521.68245 C949.508728,514.486215 948.834509,507.202517 949.527738,500.007479 C950.042247,494.667377 950.168306,488.456007 953.773506,484.483106 C957.861917,479.977711 965.110961,479.967906 970.415714,476.9891 C973.182129,475.43566 978.306114,474.121704 977.804453,470.988883 C976.882019,465.228377 964.557385,462.238022 967.222615,457.048527 L967.388035,453.183726 C977.318978,433.847093 1028.69246,424.247939 1046.47862,423.022231 C1051.01544,422.709583 1055.18053,421.660901 1058.98534,424.410752 C1066.71633,429.998177 1072.53911,444.507275 1081.69293,441.824918 C1095.93038,437.652898 1079.78155,386.776497 1090.89627,377.090741 C1101.53957,367.815808 1133.75223,364.124679 1137.85537,363.300767 C1142.86334,362.295163 1148.75111,358.737152 1153.06895,361.466114 C1158.11038,364.652392 1156.44187,373.429619 1160.6181,377.687253 C1161.8677,378.96121 1187.98222,375.223919 1192.52903,375.306215" id="Path-3031"></path>
                    <path d="M1178.09242,305.017951 C1116.47085,285.681053 1021.76347,313.819629 973.889524,350.949442 C961.080385,360.883882 963.774693,387.832634 948.424941,394.25427 C923.367356,404.737222 898.077801,414.682724 872.587604,424.064875 C865.742178,426.584464 862.751767,415.171773 860.020733,412.901563 C858.601791,411.722048 856.169325,411.549553 854.511761,412.36019 C845.500647,416.767106 836.774669,421.939624 828.881759,428.130185 C812.503332,440.976102 821.099427,446.795854 818.79618,468.412348 C818.517598,471.026906 816.110229,473.032047 815.547942,475.600579 C814.231984,481.611886 817.72096,494.392713 809.20686,494.999778" id="Path-3032"></path>
                    <path d="M815.763489,491.02971 C801.556686,493.453152 746.516933,503.673039 738.442389,500.253102 C715.022443,490.333689 705.025173,449.244028 690.159936,429.568834 C677.886429,413.323978 685.218393,429.977703 662.103781,413.001817 C648.000213,402.643843 661.509888,367.982075 631.295646,363.150385 C625.835393,362.277213 616.208657,357.582492 614.708578,362.904762 C610.190063,378.936429 618.150177,396.171756 617.300151,412.806321 C616.823702,422.130182 579.862758,443.338991 576.621984,446.536868 C574.705378,448.428105 576.446129,451.959578 575.794886,454.572247 C575.020533,457.678814 573.519115,460.557427 572.381229,463.550016" id="Path-3033"></path>
                    <path d="M1139.0885,88.1078294 C1125.64946,77.2875963 1121.65101,72.2831711 1105.46823,66.0819679 C1059.43401,48.441766 994.266514,55.7096624 951.587963,79.4258103 C932.619245,89.9665834 899.192391,108.886881 890.026833,130.169505 C878.368705,157.239932 918.455922,142.308686 917.250878,157.548944 C916.168641,171.236065 880.480059,168.773691 874.64783,176.251377 C872.986928,178.380872 888.652534,197.312782 886.553023,207.550758 C886.119485,209.664849 884.009044,211.221746 883.685751,213.355479 C883.582421,214.037457 885.045867,213.124894 885.725926,213.009602" id="Path-3071"></path>
                    <path d="M759.510822,156.160423 C754.165599,155.548872 748.637288,155.841606 743.475153,154.32577 C738.904535,152.983629 734.834289,150.258915 730.798001,147.729039 C725.789726,144.589939 720.911473,141.19513 716.411515,137.362748 C705.983851,128.482046 728.320103,115.211235 734.71293,113.75287 C746.946985,110.961972 761.512262,115.283245 771.967414,108.344152 C776.490255,105.342339 766.831274,98.7182025 765.135086,93.5616613 C764.173423,90.6381319 763.174562,87.3275275 764.087429,84.3883962 C765.136577,81.0104866 767.946687,78.3536376 770.588918,76.0021272 C809.090961,41.736403 860.277764,29.5504884 910.914809,30.6671498 C917.809776,30.8191994 923.774325,35.692094 930.369149,37.7100117 C932.988819,38.5115917 935.769511,38.6356927 938.469693,39.0985332" id="Path-3072"></path>
                    <path d="M973.413316,202.543057 C972.976937,216.493022 966.234668,242.820831 974.626393,259.783228 C977.950206,266.501733 1002.29095,260.503041 1007.41956,260.179233 C1030.0245,258.752007 1053.95118,260.621405 1076.47971,262.610398 C1078.08558,262.752177 1073.35512,263.405749 1071.79282,263.803424" id="Path-3073"></path>
                    <path d="M890.523092,309.93041 C869.922183,305.865042 836.563162,309.936553 826.144817,329.775741 C822.536489,336.646919 832.85991,344.11047 827.082195,352.242722 C811.612992,374.015939 759.041486,395.830178 733.775553,385.822887" id="Path-3074"></path>
                    <path d="M707.483873,246.885517 C755.919399,276.004287 774.084878,286.664871 826.420517,264.991437" id="Path-3075"></path>
                    <path d="M748.653285,274.515592 C745.673013,277.890724 724.729132,296.763013 729.750344,306.606981 C731.948207,310.91584 743.957511,318.708793 740.497601,326.79819 C735.854821,337.653179 728.153055,346.9523 722.752597,357.450931 C721.894364,359.119358 721.156682,361.274841 721.870359,363.010029 C722.320747,364.105074 724.186233,363.504617 725.344169,363.751911" id="Path-3076"></path>
                    <path d="M574.436441,212.112326 C569.008592,190.729891 621.72817,208.33058 625.034767,209.686173 C638.208592,215.086999 650.716567,221.987371 663.557468,228.13797" id="Path-3077"></path>
                    <path d="M416.646258,174.31647 C399.174806,205.059165 455.501014,196.032816 469.224605,187.113926 C476.86766,182.146745 485.937536,164.760499 470.603102,161.86489 C453.042605,158.548932 440.9189,165.881081 425.849599,173.770084" id="Path-3078"></path>
                    <path d="M525.773022,151.699108 C536.465139,151.682399 547.396184,149.40121 557.849373,151.648981 C572.331886,154.763185 572.618444,176.807129 565.563939,186.071282 C560.840729,192.273919 554.724417,193.08067 547.818934,195.450068" id="Path-3079"></path>
                    <path d="M438.47161,193.760784 C426.176519,198.274937 401.435409,204.579388 398.785961,222.48363 C398.331068,225.557671 402.785749,227.496076 405.568162,228.879852 C427.617911,239.845844 433.153312,242.262564 452.136266,231.907531" id="Path-3080"></path>
                    <path d="M363.12552,201.695909 C347.922327,199.35138 300.561983,184.742066 279.518478,198.868738 C249.027894,219.33731 251.739869,218.026348 249.372021,249.467065 C248.033744,267.236944 240.889424,261.470201 257.472565,266.034081" id="Path-3081"></path>
                    <path d="M259.34732,204.477964 C259.090001,197.680725 257.951431,190.859679 258.575362,184.086247 C262.516723,141.29859 295.771342,145.75055 328.517748,137.51313 C332.769168,136.443677 336.587996,134.029332 340.367802,131.808662 C343.65186,129.879249 345.861811,125.691696 349.626283,125.111678 C459.730825,108.14712 290.536958,147.41631 400.936415,120.098964" id="Path-3083"></path>
                    <path d="M431.63427,121.983745 C465.098977,123.460286 484.48923,123.007981 520.148758,133.09693 C536.430747,137.703501 552.978861,140.508919 554.926962,155.964927" id="Path-3084"></path>
                    <path d="M281.558652,271.53804 C296.511619,279.302358 311.207969,283.990821 328.242049,286.024781 C341.314438,287.585695 355.840382,294.526336 367.646987,288.70157 L371.065657,288.305566 C371.70555,287.989876 371.800855,287.082464 372.168454,286.470913" id="Path-3085"></path>
                    <path d="M408.65098,284.536006 C428.327194,320.269358 424.215007,316.001188 459.139027,299.960124 C462.779187,298.28815 470.096677,305.161438 474.843857,305.915227" id="Path-3086"></path>
                    <path d="M483.611092,304.030447 C507.967959,309.009228 538.966649,307.937339 556.140038,288.501062 C559.454108,284.750306 583.66769,288.702752 588.16125,292.917262 C595.176206,299.49659 588.166636,297.05179 593.509814,298.521475" id="Path-3087"></path>
                    <path d="M607.39503,302.641925 C613.577576,319.461262 638.692012,304.459836 649.281261,302.987803 C661.372701,301.306946 668.144618,311.348915 680.425247,297.929975" id="Path-3088"></path>
                    <path d="M602.382317,205.61585 C626.849727,209.049264 645.671568,212.047497 660.469636,233.541675 C663.987192,238.650921 663.819807,237.359021 662.67523,241.130923" id="Path-3089"></path>
                    <path d="M214.207838,134.485451 C227.419784,136.870465 245.995315,125.46633 260.450117,123.026389 C264.971309,122.263221 263.857774,130.933236 268.109542,133.442807 C279.415941,140.116314 292.655216,133.736454 303.218585,129.623119" id="Path-3092"></path>
                    <path d="M490.774259,123.868525 C508.13209,123.509174 516.551092,125.220309 532.71563,117.422176 C534.166929,116.722036 551.880316,87.2080352 552.169969,87.0150579 C552.996865,86.4641508 589.500933,85.2233369 585.790236,77.1450258 C585.544437,76.6099135 584.650679,76.8476048 584.080901,76.6988943" id="Path-3093"></path>
                    <path d="M580.556964,69.9016553 C592.545941,60.4222049 591.154244,55.436618 590.366843,37.6097574 C590.236908,34.6680066 585.947047,30.8356331 588.271529,29.0279926 L585.679957,26.3512038 C588.91221,23.8376324 596.233137,26.0643647 597.199171,22.0853849 C598.002744,18.7755649 590.17762,21.9336318 587.113592,20.4462277 C585.582791,19.7031142 586.146519,16.7612582 584.632299,15.9849131 C581.723118,14.4933662 570.556546,18.5390386 576.366336,7.99464836 C577.066842,6.72327495 579.013048,9.18767408 580.336404,9.78418694" id="Path-3094"></path>
                    <path d="M570.416245,87.9073209 C582.301452,90.0730696 607.927124,92.030361 619.520783,101.747422 C628.127543,108.961056 615.316192,118.051862 618.142287,126.249563 C619.639901,130.593719 626.295645,133.513208 629.551222,135.427841" id="Path-3096"></path>
                    <path d="M630.10262,141.132309 C639.116101,148.959062 656.261692,142.802204 660.855615,156.015054 C669.021583,179.501671 642.799571,198.253011 621.781516,194.206915 C610.270801,191.991037 615.123274,190.852634 620.5133,186.467286" id="Path-3097"></path>
                    <path d="M511.386535,56.6580673 C492.540966,61.6942678 520.296186,74.1770953 527.482357,61.1243947" id="Path-3098"></path>
                    <path d="M558.400772,48.0261753 C573.584904,46.4638773 584.775899,51.9935109 599.625324,53.4850199" id="Path-3099"></path>
                    <path d="M600.452422,23.7696565 C612.442417,22.7433525 621.792159,23.2059629 627.621327,35.5745959 C628.128888,36.651564 631.886394,45.3304844 629.165243,47.630171 C625.816943,50.4598696 619.773676,56.964259 617.315189,53.3346385 L613.570692,53.9311514 C612.909154,52.9544805 615.148026,52.1767018 615.936693,51.299477" id="Path-3100"></path>
                    <path d="M575.870077,42.7678392 C559.746214,42.6165835 581.547991,43.3831829 545.227362,34.0407057 C517.215584,26.8354506 474.931002,28.1488791 452.577385,48.276811" id="Path-3101"></path>
                    <path d="M426.180438,59.6356189 C416.424027,59.4033632 406.66565,58.6350269 396.911206,58.9388518 C393.721693,59.0381965 373.564541,64.1614302 379.77274,71.6861812 C382.795337,75.3497704 392.341505,75.4403424 391.291955,80.0724503 C390.26394,84.6095111 382.068562,81.2955523 377.456866,81.9071033" id="Path-3102"></path>
                    <path d="M296.661956,56.5076859 C311.661508,56.5076859 325.525396,52.7512561 340.422942,52.4423756" id="Path-3106"></path>
                    <path d="M826.971915,104.674846 C823.113797,104.476009 819.203943,103.417979 815.397561,104.078333 C807.654271,105.421686 795.583352,114.66923 801.071226,124.665546 C804.47285,130.861698 838.777633,127.990875 842.240639,122.976262" id="Path-3107"></path>
                    <path d="M865.058509,92.4739025 C874.583135,84.0067663 882.997496,75.0422668 895.425525,70.4981682 C896.632487,70.0568633 896.421369,73.3940224 897.686259,73.6210885 L902.754112,76.1023815 C907.266574,76.912434 911.942994,77.6608802 916.47892,76.9946444 C928.122909,75.2843782 935.163202,67.5789488 944.093957,60.7233776" id="Path-3108"></path>
                    <path d="M964.761373,48.572561 C981.368492,49.1506939 997.97561,49.7288269 1014.58273,50.3069598" id="Path-3109"></path>
                    <path d="M1006.59246,94.3085555 C1016.51262,93.3661654 1026.4003,91.9739405 1036.35294,91.4813853 C1052.51728,90.6814136 1104.054,98.0928402 1081.93354,122.680512" id="Path-3110"></path>
                    <path d="M1055.48146,211.866704 C1046.5889,204.625004 1038.7382,195.871124 1028.8038,190.141605 C1003.94326,175.803656 992.248638,187.446854 990.992901,168.561875" id="Path-3114"></path>
                    <path d="M953.572998,185.725405 C955.867147,200.363642 954.406586,199.70641 941.171545,204.573206" id="Path-3115"></path>
                    <path d="M771.526295,200.162018 C767.833597,203.881452 763.01204,206.749002 760.448199,211.320318 C755.778037,219.647194 763.259771,230.496843 771.250596,232.950175 C808.140981,244.276211 798.867153,242.160716 830.721425,243.562089" id="Path-3116"></path>
                    <path d="M917.361158,275.904114 C916.331881,278.203278 914.325401,280.283104 914.273327,282.801607 C914.240691,284.379976 915.646979,286.059879 917.140599,286.571167 C921.438527,288.042411 926.109414,288.663862 930.644848,288.40582 C945.093291,287.583781 991.454602,278.731044 950.044048,266.430086" id="Path-3117"></path>
                    <path d="M941.336965,258.99122 C929.200357,271.793629 959.041406,261.169705 948.500132,255.316901 C946.396324,254.148809 943.687927,255.383737 941.281825,255.417155" id="Path-3118"></path>
                    <path d="M782.714671,178.431907 C761.800794,177.538363 752.219463,179.002063 756.979402,174.712474" id="Path-3119"></path>
                    <path d="M753.671011,175.704991 C740.410931,181.100255 741.260336,176.308746 740.88358,182.747853" id="Path-3120"></path>
                    <path d="M734.326951,185.128892 C730.762912,189.378002 725.689874,192.725093 723.634834,197.876221 C719.138538,209.146561 741.087775,220.598138 754.332689,214.448251" id="Path-3121"></path>
                    <path d="M735.319468,231.210763 C707.069326,247.818423 745.517348,243.986306 747.114382,244.108474" id="Path-3122"></path>
                    <path d="M761.992115,251.25159 C764.491788,251.483846 766.991461,251.716102 769.491134,251.948358" id="Path-3123"></path>
                    <path d="M787.952956,257.69794 C789.476821,258.227616 791.000686,258.757293 792.524551,259.28697" id="Path-3124"></path>
                    <path d="M853.263595,290.039965 C854.97126,289.759253 856.678924,289.478541 858.386588,289.197829" id="Path-3125"></path>
                    <path d="M768.057498,323.474761 C759.020822,327.197256 754.1814,343.859279 771.912274,341.279918 C777.022538,340.536514 780.878347,336.153583 785.361384,333.590416" id="Path-3126"></path>
                    <path d="M573.679521,466.587721 C553.534321,451.950732 535.295058,431.395403 528.705459,406.515367 C525.087174,392.853975 529.130642,381.640564 520.218936,370.353654 C516.612182,365.785605 502.906783,364.200414 497.787045,365.842212 C495.640655,366.530517 493.909688,371.566141 492.38334,369.907523 L488.804263,370.158158 C482.764598,363.595107 478.44292,338.364536 469.234631,337.615625 C454.905456,336.450231 422.221948,343.523538 414.06471,351.059721 C347.096913,412.928898 440.355913,351.240459 409.051997,392.976028 C404.931281,398.469924 396.623391,398.960244 390.038776,400.911153 C369.34562,407.042182 366.791411,373.736218 347.210155,375.812499 C329.041557,377.73899 255.742132,357.520011 238,365.842212 C226.405056,371.280987 133.336937,435.890417 120,436.5 L49.5,466.587721" id="Path-3034"></path>
                    <path d="M1077.88828,260.194271 C1110.25266,261.619013 1168.76328,263.735203 1202.11334,257.617736 C1202.62307,257.524235 1203.53009,257.534175 1203.54698,257.016211 C1203.90787,245.943445 1192.18146,224.768 1203.21614,223.781923 L1205.75257,219.811854 C1207.44153,219.660925 1234.79108,225.876073 1236.16971,220.904625" id="Path-49"></path>
                    <path d="M1243.44817,183.409531 C1248.82826,187.062908 1291.23914,222.966736 1287.20916,194.317195" id="Path-51"></path>
                    <path d="M1115.25305,69.2199264 C1124.51869,54.9952817 1142.41771,16.8586645 1166.62333,25.8699833 C1204.94987,40.1382673 1198.02868,34.2825174 1212.03851,47.6953362" id="Path-52"></path>
                    <path d="M1236.50055,37.1786641 C1245.91773,34.1175865 1265.51252,25.3751789 1277.40429,28.7472807 C1281.86506,30.0122043 1284.29988,35.0549957 1288.31195,37.3791726 C1293.95887,40.6504088 1300.50486,42.16514 1306.16724,45.4095391 C1330.1833,59.17013 1331.01085,64.0569039 1360.73563,54.3421938" id="Path-56"></path>
                    <path d="M1331.08042,107.617309 C1345.18558,108.477024 1363.31986,99.8294381 1376.4956,104.639757 C1378.63334,105.420223 1379.03877,108.619911 1379.2526,110.885598 C1380.04514,119.283328 1378.60189,127.799845 1379.47315,136.189774 C1380.30064,144.158107 1394.06269,137.914467 1395.45368,146.997183 C1399.0495,170.476587 1371.9563,186.414083 1353.34689,192.833432 C1344.73877,195.802822 1335.4827,196.374821 1326.55896,198.187009 C1322.85172,198.939856 1341.47455,196.216503 1337.6972,196.011492 C1316.34312,194.852524 1294.92874,195.543639 1273.5445,195.309712" id="Path-57"></path>
                    <path d="M1213.5724,239.561943 C1220.70048,244.852027 1227.35075,250.855627 1234.95664,255.432193 C1262.25398,271.857376 1305.88231,270.985531 1324.1328,243.130995" id="Path-58"></path>
                    <path d="M1357.6478,222.298159 C1381.86838,230.614041 1398.44512,224.75102 1422.68274,211.38047 C1424.69103,210.27261 1424.05879,206.75574 1423.4547,204.54313 C1421.4669,197.262373 1417.8672,190.5209 1415.07344,183.509785" id="Path-59"></path>
                    <path d="M1392.25557,50.372125 C1393.35837,47.8256668 1393.7576,44.8393231 1395.56396,42.7327503 C1396.56094,41.5700881 1435.18462,39.0595812 1439.43523,45.8105561 C1456.36285,72.6955937 1445.64384,111.944203 1423.12386,131.327442 C1414.63064,138.637665 1392.33192,139.019227 1384.76658,139.959334" id="Path-60"></path>
                    <path d="M56.7184177,146.796675 C71.5827354,126.904258 95.2439826,156.667012 105.883108,166.346256 C109.778712,169.890391 111.657312,175.393345 115.798254,178.647454 C117.796844,180.218021 120.950757,179.05377 123.297273,180.030963 C130.533403,183.044404 138.436899,192.052887 141.924515,197.796018 C148.022904,207.838364 141.169642,210.479955 155.268358,218.227836 C163.641832,222.829439 174.71322,222.106296 183.590187,221.506151 C184.943994,221.414624 187.282229,218.866382 187.449976,220.212871 C190.272341,242.867817 186.849728,270.3678 161.213435,274.580757" id="Path-61"></path>
                    <path d="M165.514343,314.852894 C163.347622,335.425804 141.587774,361.406985 117.893569,351.265243 C117.610429,351.144051 74.7663615,320.082074 63.9968771,323.885804 C28.5889379,336.391716 45.8787316,330.677023 24.5367995,346.803928 C23.7174017,347.423101 22.0231972,348.5122 21.5592479,347.595937 C7.85468877,320.530506 3.52520578,286.382308 1.60864967,256.42471 C1.42233203,253.512388 -0.933929369,233.83562 3.03226019,226.167974 C13.071538,206.759516 19.5471027,214.067481 41.8406851,193.03394 C43.4335584,191.531097 42.3306833,188.413804 41.2892867,186.487337 C36.2380002,177.143021 22.4605279,170.327267 23.8751213,159.799652 C24.9484339,151.8119 38.5054672,152.95369 46.141593,150.375752 C48.0194428,149.741794 50.1049782,150.308916 52.0866707,150.275497" id="Path-62"></path>
                    <path d="M97.5018516,236.383883 C88.8580703,251.369569 88.6979994,247.349113 88.9100613,266.04912 C88.9659034,270.973375 100.137522,270.783189 100.479403,270.811197 C117.853347,272.234506 118.539752,273.440118 117.893569,258.900991" id="Path-63"></path>
                    <path d="M112.05877,241.246215 C137.957669,235.139753 138.295114,236.442538 138.946964,263.272077" id="Path-64"></path>
                    <path d="M1179.51603,299.874908 C1183.18868,302.819041 1186.61055,306.106723 1190.53397,308.707308 C1196.81571,312.871075 1204.2229,315.341144 1210.05348,320.116243 C1228.85323,335.512773 1225.18855,345.160179 1249.293,357.410829 C1269.35187,367.60539 1284.55099,360.972662 1304.62332,362.273161" id="Path-65"></path>
                    <path d="M1325.01504,380.629716 C1344.71921,339.705661 1384.34824,381.524654 1406.48165,385.883039 C1424.04253,389.341027 1418.70257,383.175296 1438.66327,379.045699 C1460.35785,374.557385 1476.06376,391.928677 1487.27656,407.618163 C1487.83228,408.395754 1485.36505,407.618163 1484.40929,407.618163" id="Path-66"></path>
                    <path d="M1490.03356,406.816129 C1535.57266,419.003919 1516.19924,406.643634 1552.20122,391.938397 C1631.74225,359.449363 1546.06468,404.673442 1596.40333,381.622233 C1597.15549,381.277802 1594.85941,381.027391 1594.08745,380.72997" id="Path-67"></path>
                    <path d="M1336.81497,370.514061 C1308.5754,365.172559 1339.00428,372.031217 1302.63829,358.704109 C1290.99237,354.436208 1293.62441,360.231069 1291.73062,355.135057" id="Path-68"></path>
                    <path d="M1202.22362,377.261173 C1223.81177,376.092983 1236.08241,382.683586 1251.16775,399.678026 C1257.26781,406.550071 1261.28439,415.043593 1266.92772,422.295387 C1268.19828,423.928086 1269.82749,425.481349 1271.78003,426.165202 C1273.55052,426.785299 1275.69428,426.736082 1277.40429,425.964693 C1291.45266,419.627443 1304.12998,410.256599 1318.62884,405.031603 C1323.91687,403.125943 1329.90422,405.644664 1335.49161,405.031603 L1338.68972,403.247078 C1351.61093,401.829334 1370.66782,407.644032 1380.46567,410.395206 C1388.54085,412.662665 1389.3488,423.065705 1397.43872,423.979659 C1413.74713,425.822092 1439.58737,413.797524 1448.2576,411.778715 C1455.03862,410.1998 1463.1234,417.106024 1467.76708,419.117327 C1478.86094,423.922376 1491.37725,423.500794 1502.59541,419.718853" id="Path-69"></path>
                    <path d="M396.560316,563.764177 C373.813866,562.965697 372.827768,573.752622 349.60122,585.990547 C334.599231,593.895002 315.87512,568.016361 299.554292,575.864866 C292.093336,579.452757 287.650769,587.374056 281.699008,593.12865" id="Path-70"></path>
                    <path d="M379.246405,655.436674 C391.808722,653.401797 406.845798,650.08446 419.709025,651.657089 C429.697414,652.878246 439.230477,660.189211 449.133651,658.404201 C455.470675,657.261975 457.249834,648.334893 462.036375,644.027739 C463.888396,642.361204 466.387808,641.53125 468.75341,640.749425 C499.027868,630.743796 497.378789,646.604274 512.404116,646.604274" id="Path-71"></path>
                    <path d="M375.396641,659.10598 C325.765235,659.10598 304.305874,668.100161 255.352188,675.667985" id="Path-72"></path>
                    <path d="M265.497919,598.983499 C256.274527,599.347756 247.05454,600.340586 237.827743,600.076271 C227.894582,599.79172 210.467562,590.835411 204.202463,588.667336 C189.358075,583.530346 173.960815,589.037439 159.55924,592.336642" id="Path-73"></path>
                    <path d="M588.577305,694.325303 C623.205361,711.085282 616.21326,694.431087 643.135674,688.069437 C670.996879,681.485954 668.121543,686.271538 682.716057,696.400566 C683.321353,696.820659 684.03273,695.738888 684.691066,695.408049" id="Path-74"></path>
                    <path d="M725.00875,706.684633 C741.911619,705.525025 797.072462,693.860622 807,695.00529 C889,704.460078 978.145922,721.646422 965.5,706.684633" id="Path-75"></path>
                    <path d="M474.708514,729.935617 C500.184034,737.640625 522.929832,737.083746 549.668626,737.083746" id="Path-76"></path>
                    <path d="M322.151603,473.785977 C354.765239,467.714184 385.269542,472.592951 417.834271,472.592951" id="Path-77"></path>
                    <path d="M439.218505,493.726549 C457.514908,494.157643 475.81131,494.588736 494.107713,495.019829" id="Path-78"></path>
                    <path d="M451.339245,448.682309 C465.338082,448.648891 479.336919,448.615473 493.335756,448.582055" id="Path-79"></path>
                    <path d="M615.475523,520.514488 C625.026413,520.514488 634.577302,520.514488 644.128191,520.514488" id="Path-80"></path>
                    <path d="M638.403673,465.354593 C643.546717,464.890082 648.68976,464.42557 653.832804,463.961059" id="Path-81"></path>
                    <path d="M643.245954,445.313766 C647.179263,445.510933 651.112572,445.708099 655.045881,445.905266" id="Path-82"></path>
                    <path d="M684.370252,513.165851 C693.884382,513.232687 703.398511,513.299523 712.912641,513.366359" id="Path-83"></path>
                    <path d="M835.714087,545.708384 C860.849713,546.918002 850.983364,548.249231 865.579832,545.407622" id="Path-84"></path>
                    <path d="M887.074345,507.321027 C891.007654,506.295092 894.940963,505.269157 898.874272,504.243221" id="Path-85"></path>
                    <path d="M900.528467,458.607481 C916.883078,454.526195 907.849895,456.183842 927.7475,454.33665" id="Path-86"></path>
                    <path d="M841.548885,454.737667 C851.764794,454.243079 861.980703,453.748491 872.196613,453.253904" id="Path-87"></path>
                    <path d="M1026.95912,386.083548 C1039.78367,390.937514 1033.2,389.649346 1046.68916,390.053617" id="Path-88"></path>
                    <path d="M1040.95461,351.756488 C1055.74937,352.015138 1048.75114,353.021116 1062.00801,349.179954" id="Path-89"></path>
                    <path d="M1090.1193,331.525178 C1096.14458,331.525178 1102.16987,331.525178 1108.19515,331.525178" id="Path-90"></path>
                    <path d="M958.615787,639.481209 C959.410023,631.1566 971.932594,596.279043 986.120544,606.292035 C993.793829,611.707373 998.428425,620.481355 1004.58237,627.576015" id="Path-3060"></path>
                    <path d="M1046.52374,631.09494 C1047.75421,627.774847 1050.10292,615.43232 1055.94764,612.492761 C1064.85513,608.012803 1063.20384,621.720162 1075.13129,623.260069" id="Path-3061"></path>
                    <path d="M1092.93143,641.411103 C1095.11698,634.881209 1096.16712,627.853622 1099.48806,621.82142 C1107.42806,607.399112 1112.45132,650.103315 1133.43917,634.56875" id="Path-3062"></path>
                    <path d="M1139.89053,638.98495 C1144.8314,635.51114 1148.77436,629.663766 1154.71312,628.563519 C1157.63939,628.021384 1158.14279,633.733128 1160.77851,635.115135 C1164.55605,637.095846 1175.75259,630.294291 1176.7039,630.252804 C1178.68906,630.16623 1179.29362,634.098128 1181.2805,634.072491" id="Path-3063"></path>
                    <path d="M391.873429,565.568754 C395.850617,562.567905 408.033886,550.685563 416.290355,551.382776 C427.771595,552.352302 424.579503,574.0482 433.75966,578.566719 C439.863772,581.571193 451.912881,578.267894 457.073789,577.42382" id="Path-3064"></path>
                    <path d="M485.235211,588.832755 C499.970551,567.420142 495.916155,578.182932 527.397141,584.717318 C545.521887,588.479401 539.128716,583.937685 555.508436,580.301118 C567.461357,577.647372 581.169396,582.843775 591.995975,585.163449" id="Path-3065"></path>
                    <path d="M601.419876,605.104022 C617.031964,593.905245 625.067493,604.82863 644.353764,606.146666 C690.187148,609.27895 665.733229,601.842802 708.506466,591.213794 C720.129656,588.32547 732.316853,588.6005 744.222047,587.293852" id="Path-3066"></path>
                    <path d="M744.552886,588.587132 C761.393966,588.587132 764.081182,589.088639 778.393712,597.810524" id="Path-3067"></path>
                    <path d="M645.401421,642.10787 C667.602436,620.433026 687.465155,633.926113 716.82757,630.944558 C724.052591,630.210906 730.164728,625.193305 736.833308,622.317679" id="Path-3068"></path>
                    <path d="M825.899194,600.191563 C841.762394,597.367667 833.013504,599.766893 851.694616,591.514557" id="Path-3069"></path>
                    <path d="M852.246015,593.895596 C858.308056,594.986696 864.370097,596.077797 870.432138,597.168897" id="Path-3070"></path>
                    <path d="M1120.52141,761.05454 C1118.29911,755.565619 1116.83188,749.706577 1113.8545,744.587777 C1099.92412,720.638218 1076.10523,734.487422 1054.43881,724.150946 C1044.04537,719.192513 1038.89226,706.852078 1029.36021,700.390686 C1011.02343,687.960923 947.494539,660.155548 926.464245,682.485274" id="Path-3131"></path>
                    <path d="M170.667412,0.555782094 C161.026104,-0.104733525 139.670353,3.05152291 136.109768,14.6916331 C135.136805,17.8724014 140.160209,20.3572205 140.465816,23.6694023 C143.05432,51.7237832 131.382942,55.6246315 156.611765,60.9238862" id="Path-3090"></path>
                    <path d="M174.416922,81.4108447 C170.275486,92.2915259 169.562358,123.930606 181.02869,128.680729 C184.170352,129.982216 187.87713,129.625518 191.224549,129.026607 C200.911201,127.293495 210.837916,117.74569 219.832102,121.738122 L223.852298,121.687995 C224.411256,121.93611 223.852298,122.911097 223.852298,123.522648" id="Path-3091"></path>
                    <path d="M234.764975,127.046585 C236.157135,138.605041 233.552559,168.296285 255.542671,167.87012" id="Path-3095"></path>
                    <path d="M259.953858,86.0225407 C252.117681,86.2823167 231.428257,82.3505375 224.403697,84.9297693 C192.517043,96.6377005 237.667658,98.3707471 247.111287,95.4464414" id="Path-3103"></path>
                    <path d="M164.496762,58.392466 C185.958197,51.6143952 207.449688,49.1084643 230.138241,49.8608283 C278.414491,51.4616934 224.409377,53.7964465 254.991272,52.0964984" id="Path-3104"></path>
                    <path d="M273.182408,54.6229058 C287.300847,63.0162205 280.790417,63.2776073 292.140489,59.3849832" id="Path-3105"></path>
                    <path d="M268.385242,271.638295 C271.287603,272.03597 274.189963,272.433645 277.092324,272.83132" id="Path-3082"></path>
                    <path d="M1110.15512,129.522865 C1140.7475,148.99275 1135.24874,142.187742 1114.61643,172.381562" id="Path-3111"></path>
                    <path d="M1130.10572,169.158388 C1127.24011,174.481889 1124.37451,179.80539 1121.50891,185.128892" id="Path-3112"></path>
                    <path d="M1130.216,186.27179 C1121.4521,189.660384 1112.68821,193.048978 1103.92431,196.437573" id="Path-3113"></path>
                </g>
            </g>
        </g>
    </g>
</svg>