<?xml version="1.0" encoding="UTF-8"?>
<svg width="1897px" height="759px" viewBox="0 0 1897 759" version="1.1" xmlns="http://www.w3.org/2000/svg" xmlns:xlink="http://www.w3.org/1999/xlink">
    <!-- Generator: Sketch 49.3 (51167) - http://www.bohemiancoding.com/sketch -->
    <title>Mid</title>
    <desc>Created with Sketch.</desc>
    <defs></defs>
    <g id="Artwork" stroke="none" stroke-width="1" fill="none" fill-rule="evenodd">
        <g id="Pricing-Scene---Craft-a-website-you-love" transform="translate(0.000000, -321.000000)">
            <g id="Mid" transform="translate(-63.000000, 324.000000)">
                <path d="M889.321568,154.850269 C894.833882,143.127204 898.631022,130.431855 905.858509,119.681074 C923.566367,93.3408921 969.165394,77.7275657 999.33057,80.9378139 C1015.25258,82.6322708 1022.34238,95.5479142 1030.74524,106.683108 C1047.51324,128.903484 1081.30038,169.928239 1068.00474,200.731632 C1053.78229,233.682266 1003.04339,252.231748 978.277175,268.388221 C972.749625,271.994169 969.003928,277.828364 963.835548,281.932572 C958.039851,286.534933 951.353148,289.92094 945.484006,294.429265 C941.014962,297.862119 927.552255,310.539329 924.54089,315.713245 C920.149555,323.258131 911.167496,358.108588 892.795378,359.559447 C852.191671,362.765951 868.123849,339.400142 848.538134,317.247136 C809.501593,273.093693 780.731343,261.903552 766.304575,202.019899 C764.854731,196.001781 763.665767,189.620328 764.70552,183.517975 C769.443993,155.707686 801.96495,105.870597 837.184339,114.969123 C856.361865,119.923418 858.289884,129.920919 875.48648,147.606898 L889.321568,154.850269 Z" id="Path-2410" fill="#D8D8D8"></path>
                <path d="M893.256548,150.980454 C909.700855,114.002748 982.867777,59.8204 1024.87034,91.1587359 C1033.04031,97.2543909 1038.85358,110.414675 1043.16675,117.495531" id="Path-2229" stroke="#979797" stroke-width="6"></path>
                <path d="M1026.80024,112.833707 C1041.02853,123.875876 1048.67972,130.753773 1055.95418,148.449034 C1089.79084,230.757371 993.306344,248.345793 946.110595,294.52952 C923.725346,316.43476 918.025472,347.630117 893.477107,367.10358" id="Path-2230" stroke="#979797" stroke-width="6"></path>
                <path d="M888.293962,155.642277 C872.137486,136.400719 881.824298,145.87507 858.202645,128.312966" id="Path-2231" stroke="#979797" stroke-width="6"></path>
                <path d="M861.400756,139.125388 C858.838817,114.546304 842.253948,101.321002 819.238826,115.911513 C793.827318,132.021221 768.811304,170.360947 773.658226,201.523641 C778.383969,231.907237 793.780434,258.940083 815.820156,280.097919 C829.952803,293.66507 863.439431,311.898099 870.934936,335.603691 C871.869643,338.559832 872.246688,341.834433 871.651754,344.87721 C871.203502,347.169789 869.868927,349.489611 867.957385,350.832313 C866.351674,351.960194 864.064177,351.326901 862.117574,351.574195" id="Path-2232" stroke="#979797" stroke-width="6"></path>
                <path d="M876.61434,343.689197 C860.280176,364.68796 832.383336,387.141973 808.712128,363.92552" id="Path-2233" stroke="#979797" stroke-width="6"></path>
                <path d="M823.97584,348.847279 C840.877332,365.004782 855.362503,357.173667 869.66672,341.999913" id="Path-2234" stroke="#979797" stroke-width="6"></path>
                <path d="M885.597122,345.177973 C879.627571,360.278224 872.420383,370.297196 860.904497,381.73569" id="Path-2235" stroke="#979797" stroke-width="6"></path>
                <path d="M900.805694,347.458758 C887.445637,372.720306 883.612227,393.647806 913.427705,407.927116" id="Path-2236" stroke="#979797" stroke-width="6"></path>
                <path d="M903.728105,179.156915 C896.283907,193.622346 894.707609,223.667638 915.3576,227.268935" id="Path-2237" stroke="#979797" stroke-width="6"></path>
                <path d="M944.4564,152.519357 C955.837173,142.036909 949.716802,144.068569 961.324179,143.045329" id="Path-2238" stroke="#979797" stroke-width="6"></path>
                <path d="M961.324179,167.793094 C968.813263,165.300939 973.992596,165.372118 981.550477,167.597598" id="Path-2239" stroke="#979797" stroke-width="6"></path>
                <path d="M924.064683,190.069591 C929.393197,190.383721 934.721711,190.697851 940.050225,191.011981" id="Path-2240" stroke="#979797" stroke-width="6"></path>
                <path d="M972.622835,192.595999 C975.911174,197.324658 979.199514,202.053317 982.487854,206.781977" id="Path-2241" stroke="#979797" stroke-width="6"></path>
                <path d="M917.783753,273.796938 C921.825671,275.781973 925.867588,277.767007 929.909506,279.752041" id="Path-2242" stroke="#979797" stroke-width="6"></path>
                <path d="M970.472381,231.038495 C972.988763,231.170497 975.505145,231.302498 978.021527,231.4345" id="Path-2243" stroke="#979797" stroke-width="6"></path>
                <path d="M1002.38331,105.640464 C1000.34545,86.4969292 1000.81491,99.3887451 1006.84964,67.1979672" id="Path-2244" stroke="#979797" stroke-width="6"></path>
                <path d="M1019.14081,89.1737015 C1024.92715,84.8577555 1030.7135,80.5418095 1036.49984,76.2258635" id="Path-2245" stroke="#979797" stroke-width="6"></path>
                <path d="M848.282486,108.71827 C849.266708,91.187182 846.5618,98.19312 853.465631,86.7926628" id="Path-2246" stroke="#979797" stroke-width="6"></path>
                <path d="M834.171698,108.768397 C831.358637,97.8919865 830.17633,92.4275002 836.873551,83.1233568" id="Path-2247" stroke="#979797" stroke-width="6"></path>
                <path d="M817.419211,117.545658 C811.524066,106.490347 813.257344,113.024949 814.993058,97.4095892" id="Path-2248" stroke="#979797" stroke-width="6"></path>
                <path d="M808.436429,128.363093 C798.997481,115.433294 801.653331,122.477658 799.834613,107.48013" id="Path-2249" stroke="#979797" stroke-width="6"></path>
                <path d="M788.430691,147.060513 C784.212175,145.430631 766.177119,138.977099 771.618051,131.53614" id="Path-2250" stroke="#979797" stroke-width="6"></path>
                <path d="M784.570902,235.304314 C773.777207,230.779684 781.041247,234.302884 764.454884,221.815103" id="Path-2251" stroke="#979797" stroke-width="6"></path>
                <path d="M784.074643,228.065957 C779.058588,225.536207 774.042534,223.006458 769.026479,220.476709" id="Path-2252" stroke="#979797" stroke-width="6"></path>
                <path d="M779.939155,210.155533 C776.834615,210.320952 773.730074,210.486372 770.625534,210.651791" id="Path-2253" stroke="#979797" stroke-width="6"></path>
                <path d="M792.450887,211.298431 C803.051104,218.523422 813.07425,226.677904 824.251539,232.973403 C860.677554,253.489998 859.857411,242.452932 878.539222,280.889927" id="Path-2254" stroke="#979797" stroke-width="6"></path>
                <path d="M831.364579,212.391203 C820.626979,208.649312 824.369129,211.51856 818.852847,205.789459" id="Path-2255" stroke="#979797" stroke-width="6"></path>
                <path d="M830.592621,195.227673 C821.760893,193.082741 824.737808,195.349244 820.451902,190.415468" id="Path-2256" stroke="#979797" stroke-width="6"></path>
                <path d="M845.801193,173.201811 C837.689744,166.723726 841.948722,171.479115 837.20439,156.088409" id="Path-2257" stroke="#979797" stroke-width="6"></path>
                <path d="M918.99683,266.999699 C922.799808,269.811831 926.602786,272.623963 930.405765,275.436095" id="Path-2258" stroke="#979797" stroke-width="6"></path>
                <path d="M860.959637,439.381891 C859.526001,442.093768 858.092365,444.805646 856.658729,447.517524" id="Path-2380" stroke="#979797" stroke-width="6" stroke-linecap="round" stroke-linejoin="round"></path>
                <path d="M790.300433,416.960025 C787.122373,417.225699 783.944313,417.491372 780.766253,417.757046" id="Path-2381" stroke="#979797" stroke-width="6" stroke-linecap="round" stroke-linejoin="round"></path>
                <path d="M750.785216,45.7285169 C750.877115,42.7860543 750.969015,39.8435917 751.060915,36.9011291" id="Path-2370" stroke="#979797" stroke-width="6" stroke-linecap="round" stroke-linejoin="round"></path>
                <path d="M770.294695,7.04039711 C773.766834,4.72452365 777.238974,2.40865019 780.711113,0.0927767345" id="Path-2371" stroke="#979797" stroke-width="6" stroke-linecap="round" stroke-linejoin="round"></path>
                <path d="M827.61507,8.47904578 C830.131452,8.59433818 832.647833,8.70963058 835.164215,8.82492298" id="Path-2372" stroke="#979797" stroke-width="6" stroke-linecap="round" stroke-linejoin="round"></path>
                <path d="M721.626263,24.1537997 C725.88874,24.7820597 730.151218,25.4103198 734.413695,26.0385798" id="Path-2373" stroke="#979797" stroke-width="6" stroke-linecap="round" stroke-linejoin="round"></path>
                <path d="M1197.10215,77.824919 C1200.22507,78.3044686 1203.34799,78.7840181 1206.47091,79.2635677" id="Path-2374" stroke="#979797" stroke-width="6" stroke-linecap="round" stroke-linejoin="round"></path>
                <path d="M1206.63633,60.4608808 C1210.23713,60.3957155 1213.83793,60.3305503 1217.43873,60.265385" id="Path-2375" stroke="#979797" stroke-width="6" stroke-linecap="round" stroke-linejoin="round"></path>
                <path d="M1159.01556,80.7523435 C1161.95635,80.6353802 1164.89714,80.5184169 1167.83793,80.4014536" id="Path-2376" stroke="#979797" stroke-width="6" stroke-linecap="round" stroke-linejoin="round"></path>
                <path d="M1144.90978,225.444308 C1152.29625,229.262674 1148.72316,226.738056 1155.3262,233.42956" id="Path-2377" stroke="#979797" stroke-width="6" stroke-linecap="round" stroke-linejoin="round"></path>
                <path d="M1134.54851,317.45767 C1136.77081,319.409286 1138.99311,321.360902 1141.21541,323.312518" id="Path-2378" stroke="#979797" stroke-width="6" stroke-linecap="round" stroke-linejoin="round"></path>
                <path d="M1017.97786,404.909463 C1018.51088,408.364893 1019.0439,411.820323 1019.57692,415.275753" id="Path-2379" stroke="#979797" stroke-width="6" stroke-linecap="round" stroke-linejoin="round"></path>
                <path d="M649.483296,216.26603 C634.250111,224.71105 644.419822,242.357287 653.172653,236.502353 C665.233419,228.434678 653.838319,221.732858 645.347808,221.424112" id="Path-71" stroke="#979797" stroke-width="6"></path>
                <path d="M1112.99885,237.991129 C1112.10205,246.368119 1123.26788,249.707399 1126.99435,241.710562 C1130.0255,235.205859 1117.81225,231.380787 1116.30223,235.910853" id="Path-72" stroke="#979797" stroke-width="6"></path>
                <path d="M830.973587,433.181165 C819.172805,428.272039 815.292333,447.169181 824.527238,449.748181 C830.36126,451.377429 846.370383,440.28527 826.732832,434.324063" id="Path-73" stroke="#979797" stroke-width="6"></path>
                <path d="M800.716851,30.2041444 C784.760569,30.7791456 788.017609,52.9477707 801.819648,45.2322583 C813.831743,38.5173469 806.494482,24.9624733 796.912202,33.7280817" id="Path-74" stroke="#979797" stroke-width="6"></path>
                <path d="M1113.82595,77.6244105 C1098.20371,70.9798883 1100.50633,92.8510232 1111.89606,88.6874683 C1123.40476,84.4804211 1116.69455,70.5003958 1108.03627,77.9702877" id="Path-75" stroke="#979797" stroke-width="6"></path>
                <path d="M698.201855,15.6722891 C697.797496,17.0106835 696.064134,20.7362037 696.988778,19.6874723 L699.084093,19.9882351 C702.4484,16.17244 691.84562,13.6044644 695.780715,20.9757396 C700.743244,30.2716213 696.904688,7.6952447 696.276973,17.8528193" id="Path-76" stroke="#979797" stroke-width="6"></path>
                <path d="M1167.83793,99.7956406 C1166.93732,101.879258 1165.27672,103.780927 1165.13608,106.046494 C1164.71259,112.868633 1175.87015,105.199418 1171.36187,100.592662 C1165.77675,94.8855374 1160.86828,110.443232 1169.32671,107.785905 C1173.86695,106.359529 1169.00277,97.9131808 1167.12112,105.254485" id="Path-77" stroke="#979797" stroke-width="6"></path>
                <path d="M1030.2139,376.733002 C1030.09348,379.073455 1027.9614,386.04682 1034.7905,383.033983 C1043.85328,379.035698 1020.31582,374.063474 1027.78774,382.637978 C1031.72667,387.158142 1035.22144,379.080089 1031.48211,380.452435" id="Path-78" stroke="#979797" stroke-width="6"></path>
                <path d="M47.0859375,285.75 C59.408227,256.549908 114.555205,231.702649 142.601562,246.867187 C164.663331,258.795886 164.977024,276.491081 173.78125,297.734375 C192.514939,342.935995 212.712039,376.73979 253.15625,405.578125 C274.231967,420.605951 303.236684,415.303946 327.117187,416.632812 C342.133258,417.468404 341.396587,431.754832 349.617187,441.992187 C350.676526,443.311413 353.104259,442.354388 354.6875,441.757812 C360.590081,439.533682 365.554653,434.648947 371.78125,433.640625 C389.110647,430.834339 406.957196,428.106066 424.351562,430.476562 C433.290919,431.694814 439.530732,440.385155 447.796875,444 C454.844352,447.081913 462.454361,448.743649 469.960937,450.421875 C482.790877,453.290231 494.130858,443.313249 505.953125,442.921875 C517.657952,442.534389 529.581763,442.787358 541,445.390625 C546.931057,446.742859 551.175567,452.209335 556.804687,454.515625 C569.11704,459.560082 582.415267,462.009769 594.601562,467.351562 C615.642171,476.574594 636.054187,487.210609 656.273437,498.117187 C673.240861,507.26968 689.826207,517.146723 706.09375,527.492187 C709.692499,529.780839 711.792671,534.256096 715.71875,535.921875 C730.094391,542.021254 743.631129,499.529097 754.03125,495.875 C764.454279,492.212855 775.33967,489.855238 786.242188,488.070312 C833.671972,480.305259 825.330269,526.961941 864.320312,528.960937 C901.63656,530.87412 900.685665,500.094987 922.90625,486.679688 C929.115849,482.930748 936.481683,481.458684 943.523437,479.71875 C945.968144,479.114692 948.634492,479.110362 951.078125,479.71875 C961.34886,482.275841 971.47372,485.470574 981.398437,489.148437 C984.194671,490.184655 987.018116,491.603473 989.046875,493.789062 C997.484527,502.878976 989.253764,505.206653 1004.76563,508.476562 C1021.50004,512.004188 1026.39085,505.791724 1039.98437,514.664062 C1047.34843,519.470496 1054.96902,538.510047 1059.57031,539.554687 C1072.58798,542.510113 1073.24458,520.974414 1087.57031,520.382812 C1113.70842,519.303403 1136.8079,532.726535 1162.90625,534.835937 C1185.83256,536.688959 1208.61222,530.985183 1231.19531,533.679687 C1241.41112,534.898588 1245.30548,540.112121 1254.89844,543.960938 C1279.56289,553.856627 1307.10151,566.721746 1332.72656,573.03125 C1376.1187,583.715438 1375.35301,573.600673 1428.32812,577.976562 C1526.75537,586.106922 1466.01198,592.317333 1545.40625,589.265625 C1570.09156,588.316786 1564.2747,579.868376 1588.70312,560.351562 C1605.81313,546.681715 1648.63062,524.86274 1666.95312,516.515625 C1675.86872,512.45398 1695.33582,512.065549 1701.82813,512.804687 C1727.05152,515.676333 1751.79967,526.252927 1777.16406,527.726562 C1805.10258,529.349751 1767.82939,525.562571 1797.86719,523.554687 C1816.60876,522.301903 1835.50795,520.966952 1854.21094,522.703125 C1865.69804,523.769458 1909.12843,530.453654 1919.75781,547.984375 C1925.86667,558.059534 1909.97087,571.815846 1916.23437,580.609375 C1924.81985,592.662788 1950.87384,586.305939 1955.14844,600.859375 C1962.9977,627.58325 1888.75878,651.44513 1872.67969,657.835937 C1866.5094,660.288385 1859.37282,660.424396 1853.69531,663.867187 C1851.75384,665.044476 1849.71789,669.804641 1851.89844,670.4375 C1862.48493,673.510007 1880.87983,668.01096 1892.4375,673.375 C1932.50408,691.970338 1951.48929,731.398033 1964.76562,771.484375 C1966.19584,775.802741 1967.28005,780.308623 1967.51562,784.851562 C1967.74383,789.252362 1967.97458,793.99304 1966.14062,798 C1961.83541,807.406344 1942.36388,815.485217 1936.16406,818.101562 C1898.29278,834.083392 1839.11443,837.560064 1803.96094,841.054687 C1686.35133,852.746306 1568.77589,834.244085 1451.00781,834.335937 C1321.32848,834.43708 1191.64032,834.635796 1061.97656,836.648437 C857.753798,839.818384 1031.18622,843.107462 893.101562,843.296875 C782.1483,843.449071 671.191491,843.551189 560.242187,842.601562 C467.667191,841.809204 377.70101,831.977704 285.710937,824.59375 C269.715529,823.309814 253.653556,822.949246 237.609375,822.65625 C179.88683,821.602132 76.1361577,836.43976 30.078125,780.445312 C21.5825604,770.116941 15.7138081,754.704349 11.3515625,742.570312 C7.87664696,732.904476 2.98463925,717.725601 2.4140625,706.773437 C1.25134961,684.45528 0.0525118159,662.088952 0.703125,639.75 C3.50629406,543.502553 7.35132717,590.671901 14.1875,503.296875 C37.8848691,200.414209 -10.1150406,713.705641 22.6875,404.34375 C25.9344021,373.722104 24.8149862,346.176836 34.71875,316.445312 L47.0859375,285.75 Z" id="Path-4743" fill="#D8D8D8"></path>
                <path d="M59.0809327,263.190037 C87.0590927,233.56294 136.467555,230.960169 164.733887,261.355384 C175.559035,272.99583 184.453713,287.575101 190.14333,302.374416 C191.679536,306.370255 195.028009,311.687467 192.348924,315.026504 L192.348924,317.10678 C191.992195,317.551382 191.209367,317.140198 190.639588,317.156907" id="Path-59" stroke="#979797" stroke-width="6"></path>
                <path d="M57.6472967,296.970711 C62.9518467,270.306129 106.676708,279.973375 117.113112,300.985894" id="Path-60" stroke="#979797" stroke-width="6"></path>
                <path d="M84.0993839,314.976377 C103.1071,319.163297 115.462721,334.599601 135.304248,337.297988 C143.394122,338.398186 173.326971,338.011363 185.180744,335.708958 C213.136784,330.278947 192.469727,330.977088 206.950957,330.846626" id="Path-61" stroke="#979797" stroke-width="6"></path>
                <path d="M1644.20609,525.730887 C1649.95404,513.301074 1664.69043,510.214265 1677.21982,506.782831 C1700.92382,500.290994 1726.94199,501.05426 1747.21734,516.011236 C1755.59794,522.193542 1769.18462,537.881253 1780.94789,543.290421 C1792.90026,548.786546 1801.35384,549.085126 1814.18218,550.979923" id="Path-67" stroke="#979797" stroke-width="6"></path>
                <path d="M1778.96285,533.370262 C1800.41495,525.340614 1819.33433,516.070708 1842.56416,518.637898 C1864.53895,521.06639 1879.57084,535.082195 1898.12006,545.972222 C1914.11557,555.363004 1930.79827,555.86474 1948.77352,556.138005" id="Path-68" stroke="#979797" stroke-width="6"></path>
                <path d="M730.06266,540.067246 C733.298244,489.021946 775.762668,452.412651 825.740315,489.619302 C834.514761,496.151577 841.446433,502.322262 843.269773,512.883303 C843.605078,514.825437 840.849326,534.668007 849.109583,535.901682" id="Path-2357" stroke="#979797" stroke-width="6"></path>
                <path d="M882.84013,525.68076 C881.696343,509.485772 908.55379,481.683439 923.292725,479.799397 C940.805181,477.560821 1000.43979,471.393609 984.472888,509.414506" id="Path-2358" stroke="#979797" stroke-width="6"></path>
                <path d="M975.760793,529.80121 C993.173648,507.928965 1013.30331,495.601327 1035.01106,525.435137 C1072.96887,577.602029 1031.31494,539.571143 1041.62784,548.84952" id="Path-2359" stroke="#979797" stroke-width="6"></path>
                <path d="M1036.00358,541.009636 C1052.82794,523.195081 1095.15634,493.946375 1112.11662,528.959074" id="Path-2360" stroke="#979797" stroke-width="6"></path>
                <path d="M907.863594,568.389075 C920.450456,557.314687 943.122279,534.456908 962.702675,542.448285 C1059.69051,582.032075 957.662554,554.999896 1013.95767,568.790092" id="Path-2361" stroke="#979797" stroke-width="6"></path>
                <path d="M786.059678,599.888965 C817.167804,572.310228 842.54065,573.056398 866.523749,611.247773 C870.608249,617.752048 870.199738,626.162265 872.037733,633.619511" id="Path-2362" stroke="#979797" stroke-width="6"></path>
                <path d="M796.751795,682.478426 C797.823189,663.205507 821.04652,635.725858 837.866068,628.807307 C846.850551,625.11163 857.251641,626.993762 866.964867,627.173162 C880.98957,627.432194 892.70359,664.385374 895.84812,670.823868 C896.022143,671.180182 896.583318,670.526447 896.950917,670.377736" id="Path-2363" stroke="#979797" stroke-width="6"></path>
                <path d="M1010.04274,685.40585 C1033.11752,664.644604 1049.46348,652.937762 1080.6468,642.401785 C1091.7845,638.638668 1113.95125,651.439369 1125.676,655.99125 C1127.43348,656.67355 1128.7287,660.112985 1130.35788,659.164297 L1132.17749,659.264552 C1132.55398,659.045317 1132.32453,658.405707 1132.39805,657.976284" id="Path-2366" stroke="#979797" stroke-width="6"></path>
                <path d="M1132.06721,582.675308 C1103.798,585.784177 1071.8572,592.971118 1069.78927,625.784641" id="Path-2367" stroke="#979797" stroke-width="6"></path>
                <path d="M280.973691,413.686723 C312.563368,404.074234 359.248193,418.299243 321.150587,450.89108" id="Path-62" stroke="#979797" stroke-width="6"></path>
                <path d="M304.503367,452.820975 C323.751979,450.646252 353.374814,442.051936 370.034565,455.848653 C375.580507,460.441506 378.490777,473.642021 379.518619,478.516142 C383.569986,497.72811 347.401871,504.126801 334.875396,504.411818" id="Path-63" stroke="#979797" stroke-width="6"></path>
                <path d="M351.297044,506.642475 C354.585255,530.805847 341.476093,537.818827 319.000133,542.408183 C311.102786,544.020739 286.134691,547.430266 275.680266,544.739095 C266.881599,542.474148 266.564185,527.1672 255.729668,530.452863 C248.405199,532.674072 227.35448,552.072963 221.282304,547.666519 C220.019162,546.749885 219.995707,544.82264 219.352409,543.400701" id="Path-64" stroke="#979797" stroke-width="6"></path>
                <path d="M446.47844,531.891511 C414.109875,525.84148 382.738198,536.269726 352.179281,546.623875 C344.086043,549.366073 314.447571,570.357242 332.835221,578.715264" id="Path-65" stroke="#979797" stroke-width="6"></path>
                <path d="M347.221708,445.036231 C371.942389,409.069046 428.489741,422.813469 455.135396,448.409787" id="Path-66" stroke="#979797" stroke-width="6"></path>
                <path d="M417.0087,525.730887 C405.617856,511.34935 397.506087,479.995031 411.885707,464.074515 C421.256699,453.699345 465.873387,434.118575 478.960821,453.262093 C481.84058,457.474433 485.828552,467.53604 484.690353,473.799179 C484.535512,474.651216 483.808115,472.308732 483.366996,471.563509" id="Path-2355" stroke="#979797" stroke-width="6"></path>
                <path d="M486.509967,468.936847 C491.949497,447.827764 511.083643,428.464497 532.972805,439.817997 C540.13244,443.531565 557.402805,450.000381 559.810871,460.254828" id="Path-2356" stroke="#979797" stroke-width="6"></path>
                <path d="M1892.72137,573.005784 C1900.49274,574.543016 1910.0144,572.469293 1916.03549,577.61748 C1925.03572,585.312901 1945.53721,619.195737 1934.55246,635.504291 C1922.20933,653.829553 1884.98694,652.50871 1866.15399,647.805489" id="Path-69" stroke="#979797" stroke-width="6"></path>
                <path d="M1899.77425,680.493392 C1909.25496,685.967274 1919.39891,690.426639 1928.21639,696.91504 C1939.07103,704.902501 1953.12894,737.643102 1941.66048,749.292879" id="Path-70" stroke="#979797" stroke-width="6"></path>
                <path d="M1040.52505,600.881482 C1017.35249,588.206152 995.627131,586.732762 969.479863,593.788493 C958.64309,596.712751 937.943959,653.171759 966.281752,656.587763" id="Path-2365" stroke="#979797" stroke-width="6"></path>
                <path d="M759.492298,339.478518 C752.390235,342.782054 749.817923,344.199679 749.627279,352.180733" id="Path-79" stroke="#979797" stroke-width="6"></path>
                <path d="M1153.39631,209.769554 C1164.26044,203.131244 1170.52134,197.818416 1183.10165,199.1025" id="Path-80" stroke="#979797" stroke-width="6"></path>
                <path d="M1143.42101,268.994759 C1160.76175,268.102494 1155.77349,264.447368 1161.93797,270.137658" id="Path-81" stroke="#979797" stroke-width="6"></path>
                <path d="M887.136025,435.807826 C887.264685,438.337575 887.393344,440.867325 887.522004,443.397074" id="Path-82" stroke="#979797" stroke-width="6"></path>
                <path d="M848.503045,484.075241 C849.475511,485.844729 850.447978,487.614216 851.420444,489.383704" id="Path-83" stroke="#979797" stroke-width="6"></path>
                <path d="M759.547438,448.65541 C757.948383,451.748254 756.349327,454.841098 754.750272,457.933942" id="Path-84" stroke="#979797" stroke-width="6"></path>
                <path d="M743.561896,409.270523 C742.35049,411.155303 741.139085,413.040083 739.927679,414.924863" id="Path-85" stroke="#979797" stroke-width="6"></path>
                <path d="M775.086849,355.403908 C774.059243,356.660428 773.031636,357.916948 772.00403,359.173468" id="Path-86" stroke="#979797" stroke-width="6"></path>
                <path d="M723.831857,368.848004 C723.372358,370.599112 722.91286,372.35022 722.453361,374.101328" id="Path-87" stroke="#979797" stroke-width="6"></path>
                <path d="M737.942645,73.1630958 C735.847331,73.5591002 733.752016,73.9551045 731.656702,74.3511088" id="Path-88" stroke="#979797" stroke-width="6"></path>
            </g>
        </g>
    </g>
</svg>