<?xml version="1.0" encoding="UTF-8"?>
<svg width="1920px" height="1069px" viewBox="0 0 1920 1069" version="1.1" xmlns="http://www.w3.org/2000/svg" xmlns:xlink="http://www.w3.org/1999/xlink">
    <!-- Generator: Sketch 49.3 (51167) - http://www.bohemiancoding.com/sketch -->
    <title>Z (0)</title>
    <desc>Created with Sketch.</desc>
    <defs></defs>
    <g id="Artwork" stroke="none" stroke-width="1" fill="none" fill-rule="evenodd">
        <g id="About-Scene---house-in-a-field" transform="translate(0.000000, -11.000000)">
            <g id="Z-(0)" transform="translate(-17.000000, -1118.000000)">
                <path d="M969.257812,1640.15625 C947.481663,1590.53655 963.187859,1618.88946 937.992187,1613.48437 C936.248068,1613.11022 939.894999,1610.3532 941.34375,1609.3125 C950.034687,1603.0694 960.11046,1598.73969 968.226563,1591.76562 C969.558667,1590.62096 968.848028,1587.97516 967.882812,1586.50781 C935.81056,1537.75064 942.69903,1566.0584 930.257812,1497.36719 C925.294376,1469.96276 940.714369,1461.6703 955.171875,1442.86719 C956.275364,1441.43201 956.691712,1438.89846 955.601562,1437.45312 C931.998461,1406.15987 884.058567,1444.83381 877,1398.95312 C870.694653,1357.96837 892.134235,1382.52763 914.539062,1367.17969 C918.30596,1364.59926 917.009717,1358.29127 917.117187,1353.72656 C917.412765,1341.1722 915.131463,1328.62111 915.742187,1316.07812 C915.836726,1314.13651 917.734059,1312.66679 919.179688,1311.36719 C920.885387,1309.83378 922.792119,1308.26538 925.023438,1307.73437 C948.581493,1302.12805 936.365269,1307.94511 960.929688,1313.83594 C966.478695,1315.16665 973.297203,1311.56797 978.023438,1314.76562 C992.466592,1324.53751 997.46299,1371.35709 995.460938,1387.51562 C994.348722,1396.4923 985.257406,1405.6474 989.015625,1413.875 C991.427675,1419.15553 1000.39816,1411.32385 1006.19531,1411.01562 C1014.51683,1410.57319 1022.86543,1412.06473 1031.1875,1411.63281 C1032.94403,1411.54165 1034.64835,1410.59425 1036,1409.46875 C1048.93405,1398.69871 1050.11363,1367.72706 1045.96875,1350.71094 C1043.30431,1339.7725 1038.23467,1329.52797 1035.39844,1318.63281 C1034.40256,1314.80721 1032.6344,1310.26868 1034.53906,1306.80469 C1037.32084,1301.7455 1043.80115,1299.85607 1047.9375,1295.82812 C1065.62008,1278.60896 1062.94885,1275.96387 1082.72656,1261.65625 C1092.31569,1254.71927 1103.06537,1249.49891 1112.71094,1242.64062 C1114.46461,1241.39372 1115.97544,1239.57248 1116.65625,1237.53125 C1117.52968,1234.9125 1119.3323,1227.54711 1117.17188,1229.26562 C1114.85166,1231.11125 1116.01478,1235.11373 1115.96875,1238.07812 C1115.46282,1270.66015 1124.25884,1266.07319 1144.0625,1290.25781 C1153.10876,1301.30528 1138.76981,1316.38896 1141.48437,1327.75781 C1141.79137,1329.04354 1142.90866,1330.23672 1144.14844,1330.69531 C1146.19295,1331.45157 1148.54392,1331.62928 1150.67188,1331.15625 C1152.78644,1330.6862 1154.74065,1329.44122 1156.34375,1327.98437 C1163.55415,1321.4318 1169.80665,1313.87942 1176.96094,1307.26562 C1184.53749,1300.26147 1193.11374,1294.36861 1200.5,1287.16406 C1208.17669,1279.67623 1214.09329,1270.46563 1222.05469,1263.28125 C1233.53627,1252.92025 1251.99887,1257.85593 1264.40625,1246.19531 C1276.78039,1234.56594 1266.55736,1237.29345 1274.88281,1218.21094 C1284.12124,1197.03581 1301.9575,1190.70335 1321.95312,1183.1875 C1328.10883,1180.87373 1310.28703,1200.15329 1313.10937,1208 C1315.64608,1215.05256 1320.27071,1221.31588 1325.21875,1226.94531 C1326.61704,1228.53616 1329.21579,1228.48001 1331.32031,1228.71875 C1364.43182,1232.47503 1375.18288,1193.5588 1405.79687,1190.14844 C1459.31718,1184.18635 1465.64732,1209.77534 1513.9375,1204.91406 C1533.88638,1202.90585 1539.15592,1194.79647 1556.54687,1185.27344 C1560.10488,1183.32513 1565.83606,1177.08168 1567.79687,1180.63281 C1574.41152,1192.61224 1560.91849,1220.32396 1584.11719,1213.57031 C1624.58538,1201.78913 1653.07333,1158.07059 1696.90625,1154.58594 C1758.7456,1149.66981 1728.45867,1149.80269 1771.71875,1161.07812 C1780.58128,1163.38808 1790.04611,1163.47056 1798.60937,1166.71875 C1812.85926,1172.12397 1811.28387,1179.33673 1824.71875,1180.48437 C1836.47616,1181.48873 1848.35852,1182.40644 1860.10937,1181.32812 C1867.6577,1180.63546 1874.65882,1177.05258 1882.01562,1175.22656 C1883.57102,1174.8405 1878.84712,1176.06316 1877.54687,1177 C1870.61043,1181.99777 1864.61869,1188.27839 1857.44531,1192.92969 C1853.87022,1195.24781 1849.8272,1197.23618 1845.59375,1197.71875 C1812.57572,1201.4825 1779.20272,1201.62211 1746.21094,1205.60937 C1734.94229,1206.97126 1724.02479,1210.50599 1713.14062,1213.72656 C1706.9266,1215.56526 1700.76138,1217.76095 1695.01562,1220.75781 C1692.20566,1222.22343 1689.97159,1224.63998 1687.79687,1226.94531 C1686.72609,1228.08041 1685.74309,1229.44081 1685.39062,1230.96094 C1683.77453,1237.93088 1682.71562,1245.03434 1681.95312,1252.14844 C1681.39527,1257.35322 1682.41918,1262.70203 1681.4375,1267.84375 C1680.7038,1271.68661 1679.31192,1275.59107 1676.89062,1278.66406 C1670.11822,1287.25928 1661.3621,1294.11568 1654.21094,1302.39844 C1648.57062,1308.93127 1644.23233,1316.51824 1638.57812,1323.03906 C1634.83928,1327.35096 1630.67762,1331.34739 1626.125,1334.78906 C1621.14929,1338.55059 1615.84238,1341.98453 1610.14844,1344.53125 C1601.42032,1348.43506 1592.33488,1351.61487 1583.08594,1354.03906 C1574.57547,1356.26969 1565.22954,1355.17372 1557.0625,1358.44531 C1547.957,1362.09284 1540.12936,1368.43924 1532.32031,1374.375 C1531.52082,1374.98271 1531.85025,1376.42386 1532.14844,1377.38281 C1533.02134,1380.18999 1535.29038,1382.52733 1535.75781,1385.42969 C1536.46263,1389.80596 1536.84344,1394.47601 1535.58594,1398.72656 C1533.92494,1404.34101 1530.96556,1409.66251 1527.25,1414.1875 C1524.64109,1417.36476 1520.84523,1419.48581 1517.11719,1421.21875 C1511.16529,1423.98542 1504.87359,1426.09362 1498.47656,1427.5625 C1486.86861,1430.22792 1475.09033,1432.22923 1463.25781,1433.58594 C1450.34482,1435.06653 1437.33944,1435.83978 1424.34375,1436.0625 C1402.67121,1436.43392 1380.40552,1430.34217 1359.32031,1435.36719 C1354.18266,1436.59159 1363.21032,1445.20709 1364.64844,1450.28906 C1365.22689,1452.33317 1364.54873,1454.65186 1365.33594,1456.625 C1366.52651,1459.60916 1373.33882,1460.78656 1385.17969,1460.33594 C1400.9182,1459.73699 1402.41105,1455.26681 1419.02344,1458.01562 C1436.14323,1460.8484 1445.44999,1484.42603 1434.22656,1498.53125 C1432.1579,1501.13107 1429.5312,1503.5826 1426.40625,1504.71094 C1415.83694,1508.52724 1404.22126,1509.02309 1393.76562,1513.14062 C1387.51894,1515.60063 1383.38351,1522.34574 1376.92969,1524.19531 C1367.51889,1526.89231 1357.36512,1525.23197 1347.64062,1526.35937 C1342.22433,1526.98731 1336.81747,1527.9432 1331.57812,1529.45312 C1330.10376,1529.87802 1328.66315,1530.81169 1327.79687,1532.07812 C1324.55521,1536.81723 1323.12176,1542.72646 1319.46875,1547.15625 C1316.87209,1550.30506 1313.50507,1553.48004 1309.5,1554.26562 C1298.95691,1556.33362 1287.96891,1556.60189 1277.28906,1555.42969 C1270.77632,1554.71486 1265.25603,1549.93126 1258.82031,1548.70312 C1250.79166,1547.17101 1242.21337,1545.02629 1234.34375,1547.23437 C1225.86098,1549.6145 1219.88716,1557.34583 1212.26562,1561.76562 C1206.17219,1565.29926 1199.86915,1568.55367 1193.28125,1571.04687 C1187.5528,1573.21482 1181.53147,1574.61363 1175.5,1575.67969 C1162.26126,1578.01962 1148.77092,1578.78608 1135.55469,1581.25 C1129.22813,1582.42947 1122.99818,1584.25391 1117,1586.58594 C1109.89794,1589.34714 1102.95409,1592.6056 1096.39062,1596.47656 C1091.84347,1599.15836 1086.93337,1601.8601 1083.84375,1606.14062 C1082.24356,1608.35762 1082.37347,1611.84463 1083.5,1614.33594 C1083.82397,1615.05239 1099.07629,1630.46936 1096.39062,1638.84375 C1095.9981,1640.06771 1094.73783,1640.87732 1093.64062,1641.54687 C1089.71693,1643.94127 1085.88554,1646.80966 1081.4375,1647.96875 C1067.03539,1651.72172 1051.75168,1651.72232 1037.54687,1656.16406 C1031.15681,1658.16219 1026.26562,1663.3776 1020.625,1666.98437" id="Path-4244" fill="#FFFFFF"></path>
                <path d="M690.71453,1852.73503 C574.069854,1852.73503 670.158107,1850.44133 548.403605,1860.1739 C483.799027,1865.33814 418.760224,1863.57738 354.291302,1859.48215 C343.179675,1858.77631 331.79014,1861.08198 320.896607,1858.78037 C277.912301,1849.69855 284.3589,1839.80233 245.715936,1835.67176 C219.596792,1832.87987 151.138938,1831.97594 124.137592,1834.67924 C98.0501719,1837.29105 72.2273495,1842.15599 46.4204876,1846.77993 C38.9796814,1848.11314 30.774574,1848.34138 24.484855,1852.53453 C3.53011196,1866.50435 -1.12821264,1894.37667 1.0053068,1917.01807 C10.3136841,2015.80069 16.6236713,2008.47912 13.3566319,2089.83636 C12.5023859,2111.10918 -1.96799682,2188.54962 4.64453653,2209.07878 C6.06441448,2213.48692 34.4633632,2217.29475 35.5128239,2217.31968 C86.7197882,2218.53654 138.05794,2215.19626 189.172532,2218.50269 C228.70708,2221.06004 267.584865,2229.92027 306.891087,2234.87421 C314.853869,2235.87779 322.897393,2236.23294 330.922033,2236.36799 C362.224093,2236.8948 393.537704,2237.35784 424.840226,2236.85924 C443.489778,2236.56219 462.070616,2234.12916 480.721952,2233.98194 C537.455241,2233.53413 594.246729,2237.64326 650.923613,2235.07471 C669.693056,2234.2241 687.670945,2227.1974 706.143661,2223.76603 C712.078931,2222.66354 718.186062,2222.64603 724.109225,2221.48024 C725.016859,2221.3016 726.095304,2220.69459 726.314818,2219.79597 C745.21149,2142.43881 725.646391,2074.6202 721.683072,1996.57985 C715.112392,1867.19886 729.104316,1936.86629 713.64268,1869.99882 L690.71453,1852.73503 Z" id="Path-2868" fill="#566374"></path>
                <path d="M214.921875,1773.96094 C219.416667,1775.71354 223.634331,1778.50913 228.40625,1779.21875 C254.613735,1783.11601 283.438064,1776.49164 307.4375,1787.71875 C317.402103,1792.38026 312.186953,1809.21413 315.164062,1819.80469 C318.232793,1830.72117 319.584978,1842.55914 325.5625,1852.19531 C327.7556,1855.73074 337.313238,1845.14859 337.757813,1844.23437 C339.52057,1840.60946 359.777196,1788.47157 364.898437,1785.55469 C374.950178,1779.82956 388.044591,1786.21195 399.601562,1785.71094 C425.488183,1784.58872 451.278487,1781.64089 477.171875,1780.6875 C497.486251,1779.93953 517.893342,1778.98213 538.15625,1780.60937 C580.869866,1784.03956 623.293204,1790.45143 665.804688,1795.83594 C672.522783,1796.68685 679.221803,1797.79048 685.820313,1799.3125 C693.984451,1801.19564 701.816461,1804.43027 710.039062,1806.03906 C720.441597,1808.07437 731.078467,1808.65662 741.5625,1810.21875 C747.307178,1818.74776 745.714932,1836.90039 746.203125,1840.82812 C746.728092,1845.05173 753.018846,1850.53617 749.640625,1853.125 C742.485456,1858.60821 707.910991,1846.79223 703,1862.32031 C691.442104,1898.86528 689.450193,1941.2515 710.039062,1971.5 C710.97084,1972.86894 739.926197,2197.74561 741.5625,2198 C804.754355,2207.82426 914.14354,2196.8996 977.875,2198 C986.779736,2198.15375 1333.53953,2237.15088 1349.5,2219 C1358.50937,2208.75419 1006.82754,1930.37738 1001.23437,1922.78125 C994.227008,1913.26448 984.957338,1905.57049 977.875,1896.10937 C967.194163,1881.84112 956.001224,1852.37786 934.320313,1846.24219 C924.253185,1843.3932 913.528867,1843.63102 903.3125,1841.375 C897.211191,1840.02769 875.273808,1824.34501 889.140625,1814.23438 C895.455451,1809.63008 904.794595,1813.70298 912.585938,1814.3125 C937.778793,1816.28334 962.824097,1819.88437 988.007813,1821.96875 C1006.12876,1823.46857 1024.3402,1823.65753 1042.46875,1825.0625 C1072.56511,1827.39498 1103.49444,1840.94917 1132.66406,1833.17969 C1143.02425,1830.4202 1132.21317,1811.72357 1132.75,1801.01562 C1133.043,1795.17122 1134.73317,1789.46199 1135.14844,1783.625 C1137.17146,1755.18969 1131.43188,1728.01729 1122.26563,1701.21094 C1116.70332,1684.9442 1113.92693,1663.31075 1093.75,1661.08594 C1079.44844,1659.50897 1065.01149,1659.45924 1050.625,1659.23437 C1042.00501,1659.09964 1032.89902,1662.88832 1024.77344,1660.00781 C999.058401,1650.89187 1024.73151,1640.35309 995.054688,1643.38281 C955.762194,1647.39421 923.261259,1668.69205 882.007813,1660.78125 C869.203733,1658.32593 895.774193,1639.1784 888.28125,1632.71875 C883.20288,1628.3407 876.094908,1626.8524 869.554688,1625.375 C861.697225,1623.60004 853.545676,1623.4513 845.5,1623.05469 C837.837429,1622.67696 830.144479,1622.62987 822.484375,1623.05469 C810.043369,1623.74464 779.726003,1619.41086 767.59375,1634.41406 C764.156771,1638.66436 764.114185,1645.11378 760.460938,1649.17969 C749.834502,1661.00647 664.183849,1665.68585 630.671875,1660.78125 C616.150428,1658.65598 602.074224,1654.11435 587.632813,1651.5 C457.024258,1627.85579 627.422517,1660.10156 521.40625,1644.54687 C500.19476,1641.43473 479.424975,1635.64833 458.1875,1632.71875 C427.276841,1628.45482 357.920553,1629.69609 335.695313,1630.00781 C303.456621,1630.45998 267.758109,1631.90104 238.289062,1646.16406" id="Path-2" fill="#D8D8D8"></path>
                <path d="M932.467658,1868.62533 C1100.37017,1873.24847 1267.63427,1871.93563 1435.66385,1870.91113 C1504.68439,1870.49031 1468.20013,1866.40311 1537.62244,1868.9261 C1555.14461,1869.5629 1572.56191,1872.52697 1590.09552,1872.5954 C1674.49629,1872.92482 1758.89041,1869.28051 1843.28766,1870.11912 C1862.22856,1870.30733 1880.95427,1874.23047 1899.84109,1875.67321 C1926.41892,1877.70346 1944.07149,1870.75967 1952.63498,1898.98233 C1955.272,1907.67313 1958.1238,1916.49967 1958.59008,1925.56976 C1960.66836,1965.99611 1960.76263,2006.52129 1960.24428,2046.99772 C1959.65451,2093.05034 1950.64343,2139.26939 1944.81515,2184.7972 C1944.5092,2187.18716 1944.67759,2190.61477 1942.49927,2191.64457 C1906.47615,2208.67448 1870.08378,2196.83595 1832.93139,2196.5069 C1797.87001,2196.19637 1762.78116,2197.0974 1727.7747,2199.08343 C1691.6485,2201.13299 1655.60863,2204.65882 1619.64045,2208.60759 C1603.77341,2210.34956 1588.29038,2215.29931 1572.35051,2216.14671 C1520.87321,2218.88337 1472.78187,2214.60241 1423.10199,2202.36175 C1411.48505,2199.49944 1400.5119,2194.26065 1388.81503,2191.74482 C1375.65944,2188.91524 1361.92657,2189.35829 1348.80356,2186.38122 C1303.47446,2176.09792 1290.50778,2148.77543 1257.64236,2124.97548 C1241.96802,2113.6247 1225.6871,2103.12352 1209.35991,2092.73371 C1204.10276,2089.38833 1197.97444,2087.47068 1192.93826,2083.80106 C1146.82133,2050.19792 1215.68946,2090.82617 1151.38287,2049.57425 C1142.56762,2043.91938 1133.22722,2039.02609 1123.60241,2034.89703 C1110.97894,2029.48154 1095.93434,2029.06136 1084.80401,2021.01181 C1021.11103,1974.94852 1048.85436,1978.59593 1005.1119,1937.1792 C719.086307,1666.36125 1117.57214,2054.1583 945.691195,1886.29014 L932.467658,1868.62533 Z" id="Path-2869" fill="#566374"></path>
                <path d="M215.514339,1679.7062 C206.191552,1653.63556 216.720049,1660.08714 251.059488,1657.03871 C258.141355,1656.41003 265.296339,1656.49042 272.388582,1656.98859 C447.018218,1669.25476 289.885191,1664.87525 473.613925,1663.48506 C511.22594,1663.20047 676.630746,1662.20701 731.773663,1665.61547 C741.513075,1666.21747 750.800403,1670.1374 760.486484,1671.31993 C781.592723,1673.89672 802.894459,1674.579 824.032648,1676.87903 C833.315365,1677.88908 842.37372,1680.84907 851.702824,1681.24511 C916.061858,1683.97724 979.114193,1677.57999 1043.27869,1680.39796 C1061.32384,1681.19046 1079.27232,1683.59996 1097.1804,1685.95706 C1102.79988,1686.6967 1108.17707,1688.77256 1113.77248,1689.67649 C1115.20896,1689.90855 1111.08901,1688.5503 1109.74727,1687.98721" id="Path-2436" stroke="#979797" stroke-width="5" stroke-linecap="round" stroke-linejoin="round"></path>
                <path d="M215.845178,1679.55582 C276.51999,1677.49311 309.294815,1675.07747 365.093699,1676.6284 C382.56075,1677.11389 399.9782,1679.07641 417.451487,1679.20994 C557.602926,1680.28099 648.454806,1674.44848 778.617467,1684.41815 C797.784473,1685.88623 816.525957,1691.39803 835.717282,1692.50366 C1116.28333,1708.66736 866.85664,1688.5189 1079.54567,1696.07271 C1125.31298,1697.69817 1110.81193,1711.72893 1112.66968,1688.3381" id="Path-2437" stroke="#979797" stroke-width="5" stroke-linecap="round" stroke-linejoin="round"></path>
                <path d="M233.038784,1658.96861 C232.228635,1634.9219 254.610603,1641.19093 275.531553,1640.56694 C363.86252,1637.93236 452.839667,1636.5078 541.019878,1644.141 C576.168734,1647.18362 611.099779,1652.96867 646.341993,1654.60755 C685.1386,1656.41172 724.022257,1654.96296 762.857497,1654.45717 C763.717395,1654.44597 761.387101,1653.5649 760.651903,1653.11877" id="Path-2438" stroke="#979797" stroke-width="5" stroke-linecap="round" stroke-linejoin="round"></path>
                <path d="M764.235993,1673.10947 C762.774951,1650.9614 760.924866,1627.47972 788.703046,1627.07773 C822.213684,1626.59278 856.667854,1620.74286 889.233007,1628.66175 C896.544632,1630.43972 881.637482,1641.93632 880.084806,1649.29909 C878.086794,1658.77362 879.202568,1668.64482 878.76145,1678.31768" id="Path-2439" stroke="#979797" stroke-width="5" stroke-linecap="round" stroke-linejoin="round"></path>
                <path d="M774.762691,1669.18953 C774.762691,1647.88188 777.779831,1652.33348 803.91663,1651.33425 C817.501194,1650.81489 831.141044,1650.30275 844.700064,1651.28412 C848.665307,1651.57111 853.81316,1651.78284 855.998719,1655.10381 C860.56061,1662.03563 860.630466,1671.04089 862.94634,1679.00944" id="Path-2440" stroke="#979797" stroke-width="5" stroke-linecap="round" stroke-linejoin="round"></path>
                <path d="M881.573582,1663.98132 C933.273722,1662.32129 908.410995,1661.08921 956.197842,1666.85862" id="Path-2441" stroke="#979797" stroke-width="5" stroke-linecap="round" stroke-linejoin="round"></path>
                <path d="M969.205832,1677.37529 C968.934954,1671.03839 967.660972,1656.71778 972.514223,1653.06865 C975.667751,1650.69752 1014.05369,1649.91883 1016.77147,1650.73773 C1018.94042,1651.39126 1017.03538,1655.31711 1016.55091,1657.52996 C1015.13141,1664.01354 1012.91168,1670.29567 1011.09206,1676.67852" id="Path-2442" stroke="#979797" stroke-width="5" stroke-linecap="round" stroke-linejoin="round"></path>
                <path d="M1020.24026,1669.78604 C1070.2387,1671.27514 1099.79276,1648.56798 1102.36354,1687.04482" id="Path-2443" stroke="#979797" stroke-width="5" stroke-linecap="round" stroke-linejoin="round"></path>
                <path d="M218.486878,1681.83661 C230.761025,1705.66842 227.704303,1731.24764 224.662541,1757.23282" id="Path-2444" stroke="#979797" stroke-width="5" stroke-linecap="round" stroke-linejoin="round"></path>
                <path d="M222.236387,1760.50613 C208.286426,1791.67073 214.355907,1780.05012 245.826215,1778.91281 C274.450224,1777.87836 303.118441,1778.79961 331.749131,1777.97042 C419.003162,1775.4434 508.024274,1774.97985 595.197281,1784.02076 C639.671099,1788.63325 683.48729,1798.76552 728.024154,1802.7232 C786.856938,1807.95125 845.983407,1809.11994 904.99799,1811.55058 C932.685233,1812.69094 960.491495,1811.16165 988.108774,1813.43536 C1032.27435,1817.07149 1076.09761,1824.07817 1120.10855,1829.2605 C1120.62073,1829.32081 1121.32987,1829.56261 1121.65246,1829.16024 C1122.83745,1827.68225 1123.9059,1825.96637 1124.24404,1824.10242 C1124.93826,1820.27557 1125.25743,1816.28982 1124.68516,1812.44285 C1124.5403,1811.46907 1123.06772,1811.32 1122.259,1810.75857" id="Path-2445" stroke="#979797" stroke-width="5" stroke-linecap="round" stroke-linejoin="round"></path>
                <path d="M223.449464,1760.2605 C231.191943,1766.40756 246.28569,1769.79781 255.470675,1770.28092 C277.79974,1771.45537 300.191878,1771.59169 322.54579,1771.07293 C342.322219,1770.61398 352.5,1765.91484 383.5,1765.91484 C414.5,1765.91484 432.519814,1766.50416 456,1765.91484 C543.327526,1763.72306 522.5,1770.28092 597,1776.5 C650.356007,1780.95403 671.564163,1784.08908 703.717508,1787.09356 C806.986599,1796.74325 912.143224,1795.66712 1015.22755,1798.50249 C1038.84155,1799.152 1062.38319,1802.00085 1085.60604,1806.24212 C1125.89798,1813.60078 1101.22559,1813.52078 1126.33935,1812.49297" id="Path-2446" stroke="#979797" stroke-width="5" stroke-linecap="round" stroke-linejoin="round"></path>
                <path d="M300.169038,1782.33649 C348.761687,1865.60685 282.956827,1750.26992 324.971943,1832.1378 C326.482019,1835.08023 328.056704,1839.6519 331.363152,1839.72704 L333.237907,1840.96518 C333.637174,1840.97426 333.311427,1840.16983 333.348186,1839.77216" id="Path-2447" stroke="#979797" stroke-width="5" stroke-linecap="round" stroke-linejoin="round"></path>
                <path d="M319.788797,1780.74746 C325.90618,1788.20998 351.433035,1813.44574 345.36366,1823.75153 C323.880555,1860.22981 345.306619,1813.21305 333.679025,1839.92254" id="Path-2448" stroke="#979797" stroke-width="5" stroke-linecap="round" stroke-linejoin="round"></path>
                <path d="M338.25062,1800.14165 C345.402284,1781.76755 340.846964,1788.8005 349.714695,1777.76991" id="Path-2449" stroke="#979797" stroke-width="5" stroke-linecap="round" stroke-linejoin="round"></path>
                <path d="M366.196495,1777.57441 C350.560058,1814.614 358.208282,1800.24633 345.749639,1821.91687" id="Path-2450" stroke="#979797" stroke-width="5" stroke-linecap="round" stroke-linejoin="round"></path>
                <path d="M753.543876,1805.94637 C752.404319,1821.00957 750.97446,1836.05362 750.125206,1851.13598 C748.139013,1886.40983 765.679334,1863.63003 809.982013,1863.33692 C836.072046,1863.16431 866.780179,1881.52794 888.18535,1866.61022 C903.974671,1855.60631 888.14859,1828.11927 888.130211,1808.87379" id="Path-2451" stroke="#979797" stroke-width="5" stroke-linecap="round" stroke-linejoin="round"></path>
                <path d="M982.188759,2061.75515 C969.380235,2079.4929 955.751456,2086.75227 934.016586,2091.0745 C926.883391,2092.49302 919.616912,2093.27301 912.356653,2093.70117 C900.526209,2094.39884 888.657452,2094.794 876.811504,2094.44806 C869.464767,2094.23351 837.216666,2088.44752 847.211433,2072.91846 C851.173638,2066.76231 870.825788,2062.03235 873.392834,2061.40927 C897.979541,2055.4415 968.679168,2040.11794 981.030823,2064.04094" id="Path-2457" stroke="#979797" stroke-width="5" stroke-linecap="round" stroke-linejoin="round"></path>
                <path d="M913.790289,2071.2793 C912.999951,2057.0599 912.042109,2042.84883 911.419276,2028.62111 C911.251567,2024.79006 910.923616,2020.91949 911.419276,2017.11694 C911.601113,2015.72193 912.733495,2012.15592 913.40431,2013.39249 C919.852813,2025.27956 917.824466,2062.06855 917.925777,2066.2716" id="Path-2458" stroke="#979797" stroke-width="5" stroke-linecap="round" stroke-linejoin="round"></path>
                <path d="M925.805762,2032.78668 C921.359486,2032.62293 916.901853,2031.93812 912.466933,2032.29543 C881.107992,2034.82198 929.763276,2061.25841 929.389852,2030.00963" id="Path-2459" stroke="#979797" stroke-width="5" stroke-linecap="round" stroke-linejoin="round"></path>
                <path d="M846.108636,2079.36481 C837.745121,2080.65903 831.427149,2089.29408 833.927744,2098.21762 C836.179646,2106.25368 863.306251,2108.73525 868.319968,2109.03004 C885.733325,2110.05391 903.219608,2111.67984 920.62763,2110.56895 C941.735945,2109.22192 968.692703,2099.73027 986.434527,2088.64334 C989.703087,2086.6008 991.698251,2082.75014 992.991156,2079.11918 C999.12436,2061.89489 992.156602,2060.79315 978.38411,2060.91301" id="Path-2460" stroke="#979797" stroke-width="5" stroke-linecap="round" stroke-linejoin="round"></path>
                <path d="M859.171767,2106.74926 C860.8276,2117.79304 857.981239,2140.55886 873.061995,2145.33712" id="Path-2461" stroke="#979797" stroke-width="5" stroke-linecap="round" stroke-linejoin="round"></path>
                <path d="M885.628867,2138.84065 C865.406672,2143.25787 864.817942,2165.86996 890.5313,2162.05452 C902.370665,2160.29776 900.192151,2141.89833 886.455964,2139.83317 L885.628867,2138.84065 Z" id="Path-2462" stroke="#979797" stroke-width="5" stroke-linecap="round" stroke-linejoin="round"></path>
                <path d="M902.987892,2150.45009 C921.756101,2155.53254 909.340131,2152.95284 940.853927,2154.1194" id="Path-2463" stroke="#979797" stroke-width="5" stroke-linecap="round" stroke-linejoin="round"></path>
                <path d="M967.416294,2152.9765 C974.764931,2152.39837 982.249658,2152.76389 989.462206,2151.2421 C996.60917,2149.73414 997.306875,2141.44694 997.678043,2135.91322 C999.948666,2102.06065 999.460519,2107.90655 993.321995,2079.76582" id="Path-2465" stroke="#979797" stroke-width="5" stroke-linecap="round" stroke-linejoin="round"></path>
                <path d="M847.597412,2105.31061 C848.002374,2123.20254 843.694256,2140.33209 866.555493,2135.96335 C867.009778,2135.87654 867.033372,2135.17134 867.272311,2134.77534" id="Path-2466" stroke="#979797" stroke-width="5" stroke-linecap="round" stroke-linejoin="round"></path>
                <path d="M1037.85494,1996.32921 C1032.80212,2026.88504 1027.74931,2057.44087 1022.69649,2087.9967" id="Path-2467" stroke="#979797" stroke-width="5" stroke-linecap="round" stroke-linejoin="round"></path>
                <path d="M791.324695,2092.8089 C804.369445,2091.4538 817.414196,2090.0987 830.458946,2088.74359" id="Path-2468" stroke="#979797" stroke-width="5" stroke-linecap="round" stroke-linejoin="round"></path>
                <path d="M806.1523,2005.95362 C810.139078,2031.2177 814.125856,2056.48177 818.112634,2081.74585" id="Path-2469" stroke="#979797" stroke-width="5" stroke-linecap="round" stroke-linejoin="round"></path>
                <path d="M840.985644,1998.26412 C842.478217,2058.27495 838.259989,2037.14108 843.958183,2062.84792" id="Path-2470" stroke="#979797" stroke-width="5" stroke-linecap="round" stroke-linejoin="round"></path>
                <path d="M950.994646,1999.35689 C950.659024,2049.52723 938.796803,2060.2555 952.207722,2047.32354" id="Path-2471" stroke="#979797" stroke-width="5" stroke-linecap="round" stroke-linejoin="round"></path>
                <path d="M986.870633,1998.4145 C993.367928,2019.12623 989.721311,2040.50995 989.241647,2062.20629" id="Path-2472" stroke="#979797" stroke-width="5" stroke-linecap="round" stroke-linejoin="round"></path>
                <path d="M764.707188,1956.64858 C772.708506,1939.22944 787.103877,1951.2673 798.382595,1956.94433 C799.629192,1957.57179 801.210745,1957.36862 802.56821,1957.04458 L815.521061,1951.44037 C829.948356,1947.99645 838.678406,1957.64531 851.89832,1958.18748" id="Path-2473" stroke="#979797" stroke-width="5" stroke-linecap="round" stroke-linejoin="round"></path>
                <path d="M817.340676,1928.32675 C828.572635,1924.9259 838.223288,1934.39828 848.42451,1930.95341 C852.35097,1929.62748 855.320484,1926.23318 859.171767,1924.70256 C868.031781,1921.1813 877.403151,1928.8846 886.841943,1929.51476" id="Path-2474" stroke="#979797" stroke-width="5" stroke-linecap="round" stroke-linejoin="round"></path>
                <path d="M768.837664,1910.3662 C786.453288,1902.3487 791.11793,1906.79022 808.743873,1913.54426 C812.584758,1915.01604 817.74793,1910.11273 820.207948,1909.62432 C824.859342,1908.70082 829.685317,1909.26006 834.424002,1909.07793" id="Path-2475" stroke="#979797" stroke-width="5" stroke-linecap="round" stroke-linejoin="round"></path>
                <path d="M831.782302,1892.16504 C842.36414,1891.73394 852.939516,1890.65028 863.527815,1890.87176 C867.236797,1890.94933 870.76735,1893.57749 874.440491,1893.0573 C877.954376,1892.55966 880.328126,1888.68998 883.809252,1887.99947 C897.109596,1885.36125 895.971371,1884.8089 900.672019,1889.23761" id="Path-2476" stroke="#979797" stroke-width="5" stroke-linecap="round" stroke-linejoin="round"></path>
                <path d="M886.455964,1956.6987 C930.264825,1944.48441 892.916347,1953.3511 924.151567,1958.4331 C932.704689,1959.82471 937.739089,1955.09994 945.86664,1954.36779" id="Path-2477" stroke="#979797" stroke-width="5" stroke-linecap="round" stroke-linejoin="round"></path>
                <path d="M752.195456,1887.35283 C768.66917,1886.49897 780.711787,1889.27506 796.893819,1886.95683" id="Path-2478" stroke="#979797" stroke-width="5" stroke-linecap="round" stroke-linejoin="round"></path>
                <path d="M780.191459,1807.79105 C780.228219,1823.7131 780.264979,1839.63514 780.301739,1855.55719" id="Path-2479" stroke="#979797" stroke-width="5" stroke-linecap="round" stroke-linejoin="round"></path>
                <path d="M819.711689,1814.38778 C820.063539,1843.12431 819.013431,1829.46208 822.408529,1855.40681" id="Path-2480" stroke="#979797" stroke-width="5" stroke-linecap="round" stroke-linejoin="round"></path>
                <path d="M864.796031,1810.51796 C861.981422,1842.08825 862.97016,1824.50922 862.700717,1863.29682" id="Path-2481" stroke="#979797" stroke-width="5" stroke-linecap="round" stroke-linejoin="round"></path>
                <path d="M734,2078.4595 C743.58932,2070.63966 753.17864,2062.81983 762.767961,2055" id="Path-2545" stroke="#979797" stroke-width="5" stroke-linecap="round" stroke-linejoin="round"></path>
                <path d="M1314.4364,1482.54617 C1312.23969,1490.24462 1320.91932,1485.81433 1315.42891,1482.09503" id="Path-2591" stroke="#979797" stroke-width="5" stroke-linecap="round" stroke-linejoin="round"></path>
                <path d="M878.530865,1503.67476 C866.144363,1501.52281 865.318854,1494.46633 864.42509,1483.43843" id="Path-2592" stroke="#979797" stroke-width="5" stroke-linecap="round" stroke-linejoin="round"></path>
                <path d="M881.728976,1474.1599 C869.001388,1466.58307 874.788968,1449.9797 883.438311,1441.868" id="Path-2593" stroke="#979797" stroke-width="5" stroke-linecap="round" stroke-linejoin="round"></path>
                <path d="M897.218259,1466.02427 C894.263679,1449.27748 892.519084,1446.18492 903.664608,1433.09074" id="Path-2594" stroke="#979797" stroke-width="5" stroke-linecap="round" stroke-linejoin="round"></path>
                <path d="M898.536603,1421.78206 C903.500525,1419.91085 916.024176,1413.52682 921.961011,1416.76935 C932.279014,1422.40475 937.841971,1428.68303 948.80409,1419.9424" id="Path-2595" stroke="#979797" stroke-width="5" stroke-linecap="round" stroke-linejoin="round"></path>
                <path d="M961.315822,1414.19281 C961.10709,1396.90602 955.244147,1391.48381 940.813825,1386.95874" id="Path-2596" stroke="#979797" stroke-width="5" stroke-linecap="round" stroke-linejoin="round"></path>
                <path d="M886.636422,1408.18758 C861.256448,1397.67669 854.419873,1376.40196 885.919604,1369.44934 C896.272446,1367.16426 903.410973,1372.9324 912.481971,1370.88799" id="Path-2597" stroke="#979797" stroke-width="5" stroke-linecap="round" stroke-linejoin="round"></path>
                <path d="M917.775396,1369.44934 C907.31538,1353.79797 894.051867,1338.75438 916.672599,1329.9642" id="Path-2598" stroke="#979797" stroke-width="5" stroke-linecap="round" stroke-linejoin="round"></path>
                <path d="M925.103982,1345.7392 C925.471581,1346.99572 925.002184,1348.996 926.206779,1349.50876 C938.787449,1354.86398 932.388018,1329.04062 929.184331,1341.27288" id="Path-2599" stroke="#979797" stroke-width="5" stroke-linecap="round" stroke-linejoin="round"></path>
                <path d="M929.40489,1300.89547 C948.124554,1294.6835 924.315176,1304.1637 940.317567,1292.01796 C941.209439,1291.34103 944.54218,1292.62512 943.510665,1293.0606" id="Path-2600" stroke="#979797" stroke-width="5" stroke-linecap="round" stroke-linejoin="round"></path>
                <path d="M957.456033,1271.3355 C961.393511,1279.4414 964.539634,1270.35325 958.834529,1270.53848" id="Path-2601" stroke="#979797" stroke-width="5" stroke-linecap="round" stroke-linejoin="round"></path>
                <path d="M961.426102,1295.58701 C961.830461,1296.87695 961.394478,1298.92941 962.639178,1299.45682 C972.530496,1303.64806 965.347014,1285.22168 962.473759,1293.35635" id="Path-2602" stroke="#979797" stroke-width="5" stroke-linecap="round" stroke-linejoin="round"></path>
                <path d="M963.411136,1334.23002 C963.715366,1334.09068 970.474841,1331.25246 965.832277,1331.25246" id="Path-2603" stroke="#979797" stroke-width="5" stroke-linecap="round" stroke-linejoin="round"></path>
                <path d="M1228.12249,1546.18256 C1232.83773,1552.45656 1234.47504,1544.10229 1229.44585,1544.10229" id="Path-2604" stroke="#979797" stroke-width="5" stroke-linecap="round" stroke-linejoin="round"></path>
                <path d="M1101.0853,1582.64504 C1099.62886,1593.7188 1111.92478,1582.15755 1102.68436,1580.31413" id="Path-2605" stroke="#979797" stroke-width="5" stroke-linecap="round" stroke-linejoin="round"></path>
                <path d="M961.646661,1528.22703 C942.218476,1474.72593 1007.82136,1442.54704 1049.83031,1435.81766 C1069.4444,1432.67569 1089.35956,1431.73508 1109.18585,1430.5092 C1120.10065,1429.83432 1162.51708,1435.0289 1170.31087,1417.31573" id="Path-2615" stroke="#979797" stroke-width="5" stroke-linecap="round" stroke-linejoin="round"></path>
                <path d="M1141.8136,1412.65391 C1182.32351,1398.25794 1183.42521,1379.87684 1219.74625,1340.03474 C1240.06766,1317.7433 1263.20505,1304.00666 1290.40545,1292.11821" id="Path-2616" stroke="#979797" stroke-width="5" stroke-linecap="round" stroke-linejoin="round"></path>
                <path d="M1312.72706,1306.10368 C1316.44175,1295.96108 1327.21513,1293.24966 1337.03371,1288.34865 C1368.329,1272.72741 1405.20085,1286.98683 1435.57864,1294.69475 C1450.06598,1298.3707 1464.57779,1302.25592 1479.39476,1304.2189 C1489.04691,1305.49764 1498.91772,1305.35834 1508.60384,1304.36928 C1522.3651,1302.96411 1545.38343,1295.70455 1557.16199,1288.49402 C1566.69042,1282.66097 1575.52343,1275.61616 1583.61408,1267.91182 C1602.80623,1249.63605 1619.99734,1229.35353 1638.83914,1210.71676 C1676.80432,1173.16472 1757.97653,1152.42216 1789.5213,1207.74423 C1801.91857,1229.48612 1746.41708,1227.63258 1769.07444,1207.6941" id="Path-2617" stroke="#979797" stroke-width="5" stroke-linecap="round" stroke-linejoin="round"></path>
                <path d="M1792.22315,1196.83155 C1811.66486,1185.06754 1824.49458,1192.23913 1844.5258,1195.9844 C1851.42204,1197.2738 1869.88416,1197.27352 1874.45671,1190.13456 C1874.72946,1189.70873 1873.50095,1189.80372 1873.02307,1189.63831" id="Path-2618" stroke="#979797" stroke-width="5" stroke-linecap="round" stroke-linejoin="round"></path>
                <path d="M1443.47366,1154.46911 C1435.74093,1160.13308 1445.0801,1159.77267 1450.69197,1158.2888 C1456.40151,1156.7791 1450.85079,1151.30452 1446.34093,1152.68458" id="Path-2843" stroke="#979797" stroke-width="5" stroke-linecap="round" stroke-linejoin="round"></path>
                <path d="M1705.70873,1262.20735 C1702.1629,1279.82907 1729.55122,1255.6785 1705.43303,1256.89889" id="Path-2844" stroke="#979797" stroke-width="5" stroke-linecap="round" stroke-linejoin="round"></path>
                <path d="M1874.85772,1216.42624 C1871.97013,1226.35592 1886.8308,1216.29149 1874.80258,1214.2407" id="Path-2845" stroke="#979797" stroke-width="5" stroke-linecap="round" stroke-linejoin="round"></path>
                <path d="M1483.26458,1371.28399 C1473.83445,1396.7764 1500.67642,1371.83417 1485.13933,1369.9456" id="Path-2846" stroke="#979797" stroke-width="5" stroke-linecap="round" stroke-linejoin="round"></path>
                <path d="M1418.56047,1361.86009 C1421.49636,1358.37904 1422.48933,1358.87114 1419.55299,1358.68704" id="Path-2847" stroke="#979797" stroke-width="5" stroke-linecap="round" stroke-linejoin="round"></path>
                <path d="M1324.64729,1271.53601 C1323.49775,1283.93276 1335.31248,1272.84474 1327.45441,1270.44324" id="Path-2848" stroke="#979797" stroke-width="5" stroke-linecap="round" stroke-linejoin="round"></path>
                <path d="M1006.19464,1491.86982 C1015.21768,1495.93853 1011.44784,1482.98415 1006.63576,1489.63916" id="Path-2849" stroke="#979797" stroke-width="5" stroke-linecap="round" stroke-linejoin="round"></path>
                <path d="M916.246518,1564.19324 C913.857125,1563.16731 911.236699,1562.56569 909.078339,1561.11544 C904.498909,1558.03841 912.634455,1556.69085 913.599806,1557.25063 C924.175693,1563.3834 913.99288,1564.0283 923.575105,1562.15808" id="Path-2850" stroke="#979797" stroke-width="5" stroke-linecap="round" stroke-linejoin="round"></path>
                <path d="M921.590071,1606.20479 C908.211745,1600.47122 915.869512,1618.60573 922.417168,1608.58583" id="Path-2851" stroke="#979797" stroke-width="5" stroke-linecap="round" stroke-linejoin="round"></path>
                <path d="M314.831224,1636.647 C314.831224,1627.52052 315.17313,1618.38763 314.831224,1609.26756 C313.84945,1583.07947 308.466024,1556.84522 310.861155,1530.74842 C311.297111,1525.99835 319.343588,1526.13063 322.766349,1522.80828 C330.523806,1515.27841 312.824424,1505.72442 312.184512,1503.36397 C303.348957,1470.7721 312.43671,1487.03955 318.244882,1467.25238 C320.228994,1460.49295 312.4561,1443.97685 311.688253,1441.21134 C310.150499,1435.6729 315.445324,1430.44123 316.756106,1425.98272 C318.271361,1420.8287 313.449931,1411.00903 313.232169,1407.6813 C312.016151,1389.09872 319.976207,1394.35825 312.515351,1390.27215" id="Path-2419" stroke="#979797" stroke-width="5" stroke-linecap="round" stroke-linejoin="round"></path>
                <path d="M312.79105,1367.3039 C300.896736,1373.60089 313.056582,1390.07362 324.089705,1385.10905 C328.537461,1383.1077 330.833992,1371.35541 325.633621,1369.38918 C322.036373,1368.02909 317.954144,1368.95809 314.114406,1368.74254" id="Path-2420" stroke="#979797" stroke-width="5" stroke-linecap="round" stroke-linejoin="round"></path>
                <path d="M266.273072,1397.16463 C266.750951,1405.66285 260.570412,1418.02017 267.706708,1422.65929 C276.944956,1428.66482 289.605663,1420.04552 300.610157,1419.48624 C305.587496,1419.23328 310.643881,1419.31366 315.543029,1420.22812 C316.210144,1420.35264 315.50627,1421.5849 315.48789,1422.26328" id="Path-2421" stroke="#979797" stroke-width="5" stroke-linecap="round" stroke-linejoin="round"></path>
                <path d="M315.984148,1478.01969 C349.704304,1474.7808 345.334482,1474.28569 383.390101,1475.28776 C384.310389,1475.31199 385.790785,1477.29108 385.926534,1476.38053 C389.534,1452.18342 376.149804,1457.78434 404.719196,1459.217" id="Path-2422" stroke="#979797" stroke-width="5" stroke-linecap="round" stroke-linejoin="round"></path>
                <path d="M318.575721,1483.02739 C315.74688,1482.25042 313.021008,1480.79901 310.089198,1480.69648 C304.396394,1480.4974 296.527517,1486.65519 293.061011,1482.13513 C273.041815,1456.03159 340.239777,1462.66079 270.794539,1464.62572" id="Path-2423" stroke="#979797" stroke-width="5" stroke-linecap="round" stroke-linejoin="round"></path>
                <path d="M297.136347,1482.97726 C289.015752,1483.55707 280.895156,1484.13687 272.774561,1484.71668" id="Path-2424" stroke="#979797" stroke-width="5" stroke-linecap="round" stroke-linejoin="round"></path>
                <path d="M301.933513,1501.28369 C310.300016,1497.18159 321.495306,1493.53217 330.480915,1498.01039" id="Path-2425" stroke="#979797" stroke-width="5" stroke-linecap="round" stroke-linejoin="round"></path>
                <path d="M309.648079,1457.82848 C310.064041,1457.82462 347.069627,1455.69808 328.716439,1455.69808" id="Path-2426" stroke="#979797" stroke-width="5" stroke-linecap="round" stroke-linejoin="round"></path>
                <path d="M308.600422,1442.54973 C315.61822,1441.93818 322.636018,1441.32663 329.653817,1440.71508" id="Path-2427" stroke="#979797" stroke-width="5" stroke-linecap="round" stroke-linejoin="round"></path>
                <path d="M317.803763,1420.27825 C324.637762,1419.30244 331.558627,1415.89071 338.30576,1417.35082 C340.654505,1417.85911 336.612057,1421.90648 336.380878,1424.29844 C335.946714,1428.79066 333.010173,1434.77583 336.325738,1437.83778 C352.390719,1452.67393 353.151467,1440.77732 354.95298,1433.62209" id="Path-2428" stroke="#979797" stroke-width="5" stroke-linecap="round" stroke-linejoin="round"></path>
                <path d="M321.222433,1415.27055 C326.874909,1415.61847 337.489057,1416.73605 341.173032,1412.88951 C343.705994,1410.24477 336.394286,1403.01929 339.904815,1401.97683 C350.621207,1398.79457 362.244807,1402.8691 373.414802,1403.31523" id="Path-2429" stroke="#979797" stroke-width="5" stroke-linecap="round" stroke-linejoin="round"></path>
                <path d="M309.978918,1537.14464 C293.26635,1530.06608 277.745778,1542.51553 269.967442,1538.7838 C264.947936,1536.37564 261.771769,1530.38624 256.352913,1529.10926 C226.770051,1522.13793 222.789648,1538.64704 226.427016,1526.08158" id="Path-2430" stroke="#979797" stroke-width="5" stroke-linecap="round" stroke-linejoin="round"></path>
                <path d="M314.390105,1528.56288 C292.31068,1515.89369 302.638439,1518.43568 284.845174,1516.51231" id="Path-2431" stroke="#979797" stroke-width="5" stroke-linecap="round" stroke-linejoin="round"></path>
                <path d="M310.916295,1567.50163 C319.25745,1567.51834 327.69632,1566.27863 335.939759,1567.55176 C337.130675,1567.73569 348.911296,1575.30396 353.795043,1573.80261 C354.463434,1573.59714 353.059845,1572.61293 352.692246,1572.01809" id="Path-2432" stroke="#979797" stroke-width="5" stroke-linecap="round" stroke-linejoin="round"></path>
                <path d="M333.293047,1479.60371 C342.121608,1503.38022 340.85568,1500.57672 367.96097,1494.73208" id="Path-2433" stroke="#979797" stroke-width="5" stroke-linecap="round" stroke-linejoin="round"></path>
                <path d="M322.214951,1571.76745 C321.994391,1590.0555 321.161498,1608.34641 321.553272,1626.6316 C321.62247,1629.86126 325.405571,1633.43136 323.593447,1636.10562 C321.952908,1638.52667 314.27245,1639.4224 314.831224,1636.55176" id="Path-2434" stroke="#979797" stroke-width="5" stroke-linecap="round" stroke-linejoin="round"></path>
                <path d="M322.32523,1577.07591 C316.023829,1532.25003 314.208255,1530.03408 314.500385,1481.34312 C314.743113,1440.88628 331.712764,1423.81473 317.803763,1385.75569" id="Path-2435" stroke="#979797" stroke-width="5" stroke-linecap="round" stroke-linejoin="round"></path>
                <path d="M753.243113,1851.63725 C742.863455,1852.91048 732.433981,1853.8282 722.104139,1855.45694 C719.706009,1855.83506 717.039488,1856.11002 715.156519,1857.64248 C714.259719,1858.37234 714.775622,1860.01955 715.156519,1861.11128 C720.2556,1875.72625 727.344038,1889.66373 731.52804,1904.56649 C738.64919,1929.9309 742.019033,1956.24289 748.997345,1981.64698 C752.676681,1995.04135 759.550816,2007.40086 763.438972,2020.73611 C834.439692,2264.24819 753.851251,1993.44956 787.469918,2128.62474 C794.084272,2155.21998 802.498032,2181.33509 810.012089,2207.69026" id="Path-2452" stroke="#979797" stroke-width="5" stroke-linecap="round" stroke-linejoin="round"></path>
                <path d="M717.196693,1856.39933 C672.182457,1842.57792 697.256788,1880.48123 700.554486,1906.64676 C713.43321,2008.83281 727.528533,2110.29651 738.580927,2212.74809" id="Path-2454" stroke="#979797" stroke-width="5" stroke-linecap="round" stroke-linejoin="round"></path>
                <path d="M748.445947,1978.86993 C799.683649,1985.0431 810.713724,1988.90639 857.021313,1987.0557 C918.122145,1984.61378 972.430238,1977.0545 1031.62414,1987.10582" id="Path-2456" stroke="#979797" stroke-width="5" stroke-linecap="round" stroke-linejoin="round"></path>
                <path d="M694.7247,1856.74019 C676.820046,1854.40409 661.640255,1853.89412 644.241667,1848.95044" id="Path-2482" stroke="#979797" stroke-width="5" stroke-linecap="round" stroke-linejoin="round"></path>
                <path d="M641.484674,1853.16613 C632.383362,1851.00168 634.894847,1853.72348 631.950494,1847.46166" id="Path-2483" stroke="#979797" stroke-width="5" stroke-linecap="round" stroke-linejoin="round"></path>
                <path d="M630.130879,1853.91302 C623.690946,1846.73606 625.354669,1850.56389 623.73967,1843.14571" id="Path-2484" stroke="#979797" stroke-width="5" stroke-linecap="round" stroke-linejoin="round"></path>
                <path d="M620.982678,1855.49704 C613.417896,1851.39906 617.82774,1854.56998 610.070001,1843.39635" id="Path-2485" stroke="#979797" stroke-width="5" stroke-linecap="round" stroke-linejoin="round"></path>
                <path d="M598.881626,1857.58233 C589.24686,1846.4546 592.40953,1852.12905 588.079229,1841.36119" id="Path-2486" stroke="#979797" stroke-width="5" stroke-linecap="round" stroke-linejoin="round"></path>
                <path d="M583.888601,1858.6751 C579.5472,1849.42447 581.115079,1854.5856 579.868405,1843.00035" id="Path-2487" stroke="#979797" stroke-width="5" stroke-linecap="round" stroke-linejoin="round"></path>
                <path d="M572.700225,1860.4095 C572.393785,1849.45427 571.83455,1855.07349 574.740399,1843.59185" id="Path-2488" stroke="#979797" stroke-width="5" stroke-linecap="round" stroke-linejoin="round"></path>
                <path d="M555.672039,1861.25163 C555.727178,1856.53968 555.782318,1851.82773 555.837458,1847.11578" id="Path-2489" stroke="#979797" stroke-width="5" stroke-linecap="round" stroke-linejoin="round"></path>
                <path d="M544.483663,1860.61001 C546.595686,1857.63246 548.707709,1854.6549 550.819732,1851.67735" id="Path-2490" stroke="#979797" stroke-width="5" stroke-linecap="round" stroke-linejoin="round"></path>
                <path d="M530.262596,1862.34441 C531.696232,1859.03769 533.129868,1855.73097 534.563504,1852.42425" id="Path-2491" stroke="#979797" stroke-width="5" stroke-linecap="round" stroke-linejoin="round"></path>
                <path d="M510.697976,1863.33692 C511.322895,1859.86478 511.947813,1856.39264 512.572731,1852.9205" id="Path-2492" stroke="#979797" stroke-width="5" stroke-linecap="round" stroke-linejoin="round"></path>
                <path d="M498.296524,1864.12893 C497.616466,1860.32595 496.936408,1856.52297 496.25635,1852.72" id="Path-2493" stroke="#979797" stroke-width="5" stroke-linecap="round" stroke-linejoin="round"></path>
                <path d="M477.629108,1867.60274 C475.075966,1862.55995 472.522824,1857.51716 469.969682,1852.47437" id="Path-2494" stroke="#979797" stroke-width="5" stroke-linecap="round" stroke-linejoin="round"></path>
                <path d="M463.518321,1863.18654 C458.028624,1858.97976 456.768083,1852.28703 451.177021,1848.40405" id="Path-2495" stroke="#979797" stroke-width="5" stroke-linecap="round" stroke-linejoin="round"></path>
                <path d="M449.136847,1866.9561 C444.212691,1861.61589 439.288536,1856.27568 434.364381,1850.93547" id="Path-2496" stroke="#979797" stroke-width="5" stroke-linecap="round" stroke-linejoin="round"></path>
                <path d="M428.74513,1864.92595 C417.383767,1859.7697 423.087787,1863.8566 413.807245,1850.09333" id="Path-2497" stroke="#979797" stroke-width="5" stroke-linecap="round" stroke-linejoin="round"></path>
                <path d="M412.318469,1863.4873 C403.134223,1853.60461 406.583374,1859.09025 401.681492,1847.21604" id="Path-2498" stroke="#979797" stroke-width="5" stroke-linecap="round" stroke-linejoin="round"></path>
                <path d="M390.437976,1863.13641 C380.112808,1853.08822 397.580103,1871.91393 389.831438,1845.72726 C389.377761,1844.19406 368.351315,1869.97562 380.242118,1843.05047" id="Path-2499" stroke="#979797" stroke-width="5" stroke-linecap="round" stroke-linejoin="round"></path>
                <path d="M368.171504,1861.74789 C368.56048,1853.07021 367.50778,1857.42192 371.921014,1848.85018" id="Path-2500" stroke="#979797" stroke-width="5" stroke-linecap="round" stroke-linejoin="round"></path>
                <path d="M350.26108,1860.11375 C354.155959,1856.0451 358.050837,1851.97644 361.945715,1847.90779" id="Path-2501" stroke="#979797" stroke-width="5" stroke-linecap="round" stroke-linejoin="round"></path>
                <path d="M9.4868174,1858.02846 C21.0339852,1838.61877 17.8291323,1847.55605 21.77799,1832.33329" id="Path-2502" stroke="#979797" stroke-width="5" stroke-linecap="round" stroke-linejoin="round"></path>
                <path d="M27.0664023,1853.66239 C25.7062861,1847.03224 24.34617,1840.40209 22.9860538,1833.77194" id="Path-2503" stroke="#979797" stroke-width="5" stroke-linecap="round" stroke-linejoin="round"></path>
                <path d="M32.5252469,1850.14346 C32.1576479,1844.19003 31.790049,1838.2366 31.42245,1832.28316" id="Path-2504" stroke="#979797" stroke-width="5" stroke-linecap="round" stroke-linejoin="round"></path>
                <path d="M41.4528889,1847.66217 C47.3580075,1838.00149 44.0027553,1841.90869 50.9319294,1835.46122" id="Path-2505" stroke="#979797" stroke-width="5" stroke-linecap="round" stroke-linejoin="round"></path>
                <path d="M50.2702513,1842.50409 C54.9370872,1838.86653 59.6039231,1835.22897 64.270759,1831.59141" id="Path-2506" stroke="#979797" stroke-width="5" stroke-linecap="round" stroke-linejoin="round"></path>
                <path d="M61.2932075,1846.71978 C69.6900438,1836.33084 66.451941,1842.46432 70.0002901,1827.82185" id="Path-2507" stroke="#979797" stroke-width="5" stroke-linecap="round" stroke-linejoin="round"></path>
                <path d="M76.8927707,1847.7123 C78.3433651,1840.74516 80.2539089,1837.87638 77.6597158,1831.3909 C77.4301285,1830.81693 77.2219388,1832.54717 77.0030504,1833.1253" id="Path-2508" stroke="#979797" stroke-width="5" stroke-linecap="round" stroke-linejoin="round"></path>
                <path d="M86.5372307,1846.32377 C89.292552,1839.03195 92.0478733,1831.74012 94.8031946,1824.44829" id="Path-2509" stroke="#979797" stroke-width="5" stroke-linecap="round" stroke-linejoin="round"></path>
                <path d="M94.7480548,1842.74971 C96.9152178,1839.01357 99.0823807,1835.27743 101.249544,1831.54128" id="Path-2510" stroke="#979797" stroke-width="5" stroke-linecap="round" stroke-linejoin="round"></path>
                <path d="M105.881291,1846.27365 C116.780356,1832.32605 110.840115,1836.46154 121.310422,1830.9949" id="Path-2511" stroke="#979797" stroke-width="5" stroke-linecap="round" stroke-linejoin="round"></path>
                <path d="M117.069666,1849.49682 C118.575151,1843.95777 120.080636,1838.41873 121.586121,1832.87968" id="Path-2512" stroke="#979797" stroke-width="5" stroke-linecap="round" stroke-linejoin="round"></path>
                <path d="M137.737082,1843.39635 C136.226333,1830.54874 138.34662,1836.02406 132.498797,1826.5787" id="Path-2513" stroke="#979797" stroke-width="5" stroke-linecap="round" stroke-linejoin="round"></path>
                <path d="M152.013289,1840.26842 C151.93977,1834.6642 151.86625,1829.05999 151.79273,1823.45578" id="Path-2514" stroke="#979797" stroke-width="5" stroke-linecap="round" stroke-linejoin="round"></path>
                <path d="M167.332141,1840.4188 C167.544156,1828.91213 166.605807,1834.2982 169.758294,1824.19766" id="Path-2515" stroke="#979797" stroke-width="5" stroke-linecap="round" stroke-linejoin="round"></path>
                <path d="M183.427963,1841.31106 C183.427963,1828.47234 181.946583,1833.84783 186.074675,1824.79417" id="Path-2516" stroke="#979797" stroke-width="5" stroke-linecap="round" stroke-linejoin="round"></path>
                <path d="M197.37333,1838.58415 C199.908389,1829.11068 197.694045,1833.28498 203.874819,1825.9872" id="Path-2517" stroke="#979797" stroke-width="5" stroke-linecap="round" stroke-linejoin="round"></path>
                <path d="M210.707147,1843.05047 C214.150104,1832.88902 211.709466,1838.10022 218.647285,1827.7216" id="Path-2518" stroke="#979797" stroke-width="5" stroke-linecap="round" stroke-linejoin="round"></path>
                <path d="M220.296467,1841.21081 C224.669224,1838.46718 229.041981,1835.72356 233.414738,1832.97993" id="Path-2519" stroke="#979797" stroke-width="5" stroke-linecap="round" stroke-linejoin="round"></path>
                <path d="M226.196431,1845.13075 C231.578414,1843.11397 236.960397,1841.09719 242.34238,1839.0804" id="Path-2520" stroke="#979797" stroke-width="5" stroke-linecap="round" stroke-linejoin="round"></path>
                <path d="M240.252078,1843.74223 C245.505402,1842.15487 250.758725,1840.56751 256.012048,1838.98015" id="Path-2521" stroke="#979797" stroke-width="5" stroke-linecap="round" stroke-linejoin="round"></path>
                <path d="M263.290508,1845.03049 C268.488691,1842.0212 273.686875,1839.0119 278.885058,1836.0026" id="Path-2522" stroke="#979797" stroke-width="5" stroke-linecap="round" stroke-linejoin="round"></path>
                <path d="M278.664499,1843.6921 C283.184295,1842.07132 287.704092,1840.45055 292.223888,1838.82977" id="Path-2523" stroke="#979797" stroke-width="5" stroke-linecap="round" stroke-linejoin="round"></path>
                <path d="M281.421491,1847.95792 C287.042414,1845.69384 292.663336,1843.42977 298.284258,1841.16569" id="Path-2524" stroke="#979797" stroke-width="5" stroke-linecap="round" stroke-linejoin="round"></path>
                <path d="M303.357124,1845.82752 C305.505907,1843.16577 307.65469,1840.50401 309.803473,1837.84226" id="Path-2525" stroke="#979797" stroke-width="5" stroke-linecap="round" stroke-linejoin="round"></path>
                <path d="M314.49036,1844.23849 C315.795336,1844.02294 317.100312,1843.80739 318.405289,1843.59185" id="Path-2526" stroke="#979797" stroke-width="5" stroke-linecap="round" stroke-linejoin="round"></path>
                <path d="M327.332931,1855.25142 C330.327191,1853.97819 333.321452,1852.70496 336.315713,1851.43173" id="Path-2527" stroke="#979797" stroke-width="5" stroke-linecap="round" stroke-linejoin="round"></path>
                <path d="M335.323195,1852.42425 C340.265731,1850.77005 345.208266,1849.11586 350.150801,1847.46166" id="Path-2528" stroke="#979797" stroke-width="5" stroke-linecap="round" stroke-linejoin="round"></path>
                <path d="M349.764822,1853.61226 C354.540267,1852.90212 359.315711,1852.19199 364.091156,1851.48186" id="Path-2529" stroke="#979797" stroke-width="5" stroke-linecap="round" stroke-linejoin="round"></path>
                <path d="M362.166274,1853.96315 C365.087015,1854.01161 368.007756,1854.06006 370.928497,1854.10852" id="Path-2530" stroke="#979797" stroke-width="5" stroke-linecap="round" stroke-linejoin="round"></path>
                <path d="M993.833292,1646.18619 C979.58176,1639.29742 981.345144,1586.14954 982.644916,1577.33658 C990.225005,1525.94057 1029.15173,1480.64279 1081.9618,1474.01453 C1096.74078,1472.1596 1136.36266,1474.57551 1155.31785,1461.95896 C1189.2204,1439.39346 1199.09738,1423.11507 1213.18962,1387.455" id="Path-2546" stroke="#979797" stroke-width="5" stroke-linecap="round" stroke-linejoin="round"></path>
                <path d="M1229.66641,1378.2266 C1239.51937,1366.90564 1233.13339,1373.10227 1250.27868,1361.26358" id="Path-2547" stroke="#979797" stroke-width="5" stroke-linecap="round" stroke-linejoin="round"></path>
                <path d="M1233.74675,1377.93085 C1273.75459,1346.11076 1317.92792,1328.90168 1368.8895,1323.96398 C1374.55228,1323.41531 1411.42285,1320.66972 1424.61082,1324.90637 C1492.38974,1346.68043 1495.794,1354.95674 1569.77899,1353.67433 C1576.86457,1353.55151 1595.63685,1350.67249 1602.73758,1347.77437 C1634.9908,1334.61038 1668.77152,1305.77848 1674.22388,1269.09983 C1679.21724,1235.50899 1684.07132,1241.16812 1673.8379,1231.1536" id="Path-2548" stroke="#979797" stroke-width="5" stroke-linecap="round" stroke-linejoin="round"></path>
                <path d="M1005.07681,1639.38895 C996.401264,1597.11758 997.725998,1613.85247 996.645424,1589.73803" id="Path-2549" stroke="#979797" stroke-width="5" stroke-linecap="round" stroke-linejoin="round"></path>
                <path d="M1010.25494,1636.16578 C1012.35025,1621.87954 1014.44557,1607.59331 1016.54088,1593.30708" id="Path-2550" stroke="#979797" stroke-width="5" stroke-linecap="round" stroke-linejoin="round"></path>
                <path d="M1025.3031,1628.67678 C1022.6236,1586.18056 1019.3966,1535.0826 1059.47477,1507.64483 C1073.72931,1497.88607 1082.63491,1497.90789 1100.03764,1493.90498" id="Path-2551" stroke="#979797" stroke-width="5" stroke-linecap="round" stroke-linejoin="round"></path>
                <path d="M1040.40641,1648.17122 C1051.663,1639.45372 1044.2627,1643.03968 1064.48748,1642.81263" id="Path-2552" stroke="#979797" stroke-width="5" stroke-linecap="round" stroke-linejoin="round"></path>
                <path d="M1042.33129,1636.76229 C1054.3723,1627.10211 1050.08532,1632.24384 1056.49722,1622.52618" id="Path-2553" stroke="#979797" stroke-width="5" stroke-linecap="round" stroke-linejoin="round"></path>
                <path d="M1048.06584,1624.46109 C1052.53049,1623.17115 1056.99515,1621.88122 1061.4598,1620.59128" id="Path-2554" stroke="#979797" stroke-width="5" stroke-linecap="round" stroke-linejoin="round"></path>
                <path d="M1047.62472,1619.34812 C1058.06733,1602.91355 1060.26384,1586.62655 1077.1095,1576.09342" id="Path-2555" stroke="#979797" stroke-width="5" stroke-linecap="round" stroke-linejoin="round"></path>
                <path d="M1033.40365,1640.58198 C1040.87256,1600.07529 1054.95914,1550.75824 1092.65392,1527.93128 C1113.05092,1515.57939 1132.92942,1517.84252 1155.20757,1513.84555 C1170.42641,1511.1151 1190.03527,1491.98179 1196.8181,1484.47607 C1226.55042,1451.57492 1251.99075,1386.21686 1306.16542,1386.21686 C1307.05634,1386.21686 1304.66161,1387.17262 1303.9097,1387.6505" id="Path-2556" stroke="#979797" stroke-width="5" stroke-linecap="round" stroke-linejoin="round"></path>
                <path d="M1119.32656,1511.36426 C1128.62564,1489.15142 1173.5656,1471.46679 1194.67266,1464.18962" id="Path-2557" stroke="#979797" stroke-width="5" stroke-linecap="round" stroke-linejoin="round"></path>
                <path d="M1089.95207,1567.21591 C1118.98373,1537.91217 1162.31138,1534.48432 1194.34182,1508.63734 C1204.98105,1500.05201 1216.87564,1486.40031 1220.62848,1472.22499 C1229.6539,1438.13405 1218.75721,1453.42006 1228.50847,1440.97574" id="Path-2558" stroke="#979797" stroke-width="5" stroke-linecap="round" stroke-linejoin="round"></path>
                <path d="M1222.39296,1475.59855 C1271.29527,1437.1169 1325.88474,1414.62944 1388.45412,1412.00727 C1439.49911,1409.86807 1492.46679,1430.65446 1539.3017,1401.0946 C1540.03195,1400.6337 1540.73468,1399.8707 1540.84561,1399.01432 C1540.98065,1397.97183 1540.25745,1396.99587 1539.96337,1395.98664" id="Path-2559" stroke="#979797" stroke-width="5" stroke-linecap="round" stroke-linejoin="round"></path>
                <path d="M967.98273,1643.35902 C969.301434,1599.16747 965.607265,1627.37771 935.079282,1608.73621 C932.67413,1607.26754 939.781206,1605.62833 942.132169,1604.07439" id="Path-2560" stroke="#979797" stroke-width="5" stroke-linecap="round" stroke-linejoin="round"></path>
                <path d="M957.125194,1600.15445 C954.002274,1599.49277 950.879353,1598.83109 947.756433,1598.16941" id="Path-2561" stroke="#979797" stroke-width="5" stroke-linecap="round" stroke-linejoin="round"></path>
                <path d="M931.93631,1586.50984 C914.788409,1575.8754 929.066764,1584.49713 936.347498,1583.93331" id="Path-2562" stroke="#979797" stroke-width="5" stroke-linecap="round" stroke-linejoin="round"></path>
                <path d="M922.181571,1546.13745 C937.238114,1559.84663 933.382337,1553.03292 938.111973,1563.39622" id="Path-2563" stroke="#979797" stroke-width="5" stroke-linecap="round" stroke-linejoin="round"></path>
                <path d="M962.859738,1603.27737 C974.846983,1593.82401 965.125088,1571.57747 959.716767,1560.91493 C946.618224,1535.09106 927.894958,1515.38432 936.733477,1485.91471" id="Path-2564" stroke="#979797" stroke-width="5" stroke-linecap="round" stroke-linejoin="round"></path>
                <path d="M937.009176,1468.85144 C935.877265,1445.18422 965.210696,1430.61748 984.354252,1424.90498 C1017.83172,1414.9152 1053.89482,1417.83104 1085.21004,1401.44047 C1090.99034,1398.41503 1117.86971,1384.49734 1128.14894,1374.80793 C1130.12717,1372.9432 1132.74061,1371.1615 1133.32707,1368.50695 C1134.88407,1361.45935 1133.98875,1354.08704 1134.31959,1346.87709" id="Path-2565" stroke="#979797" stroke-width="5" stroke-linecap="round" stroke-linejoin="round"></path>
                <path d="M1151.67862,1347.12773 C1176.51031,1324.1429 1189.48418,1296.4545 1213.96158,1271.78164 C1220.21873,1265.47451 1228.76913,1261.96006 1236.17291,1257.04927" id="Path-2566" stroke="#979797" stroke-width="5" stroke-linecap="round" stroke-linejoin="round"></path>
                <path d="M1221.12474,1310.86576 C1227.9036,1306.10368 1235.03916,1301.81271 1241.46132,1296.57953 C1262.52431,1279.41605 1265.27451,1244.54004 1277.67316,1222.22595 C1281.63891,1215.08872 1287.81731,1209.40069 1293.43814,1203.47841 C1300.09841,1196.46094 1317.49548,1177.59697 1330.74777,1182.84107 C1332.92664,1183.70328 1335.00891,1187.63032 1335.10381,1189.88393 C1335.85214,1207.65335 1305.58066,1213.57737 1320.66219,1192.41535" id="Path-2567" stroke="#979797" stroke-width="5" stroke-linecap="round" stroke-linejoin="round"></path>
                <path d="M1278.77596,1249.01389 C1289.92059,1238.26875 1304.21257,1233.38378 1319.72481,1232.6925 C1330.47982,1232.21322 1341.27198,1233.17799 1352.02172,1232.59224 C1354.41373,1232.4619 1356.90688,1231.8645 1358.9142,1230.55708 C1377.14384,1218.68366 1377.28308,1197.2535 1399.86305,1191.27245" id="Path-2568" stroke="#979797" stroke-width="5" stroke-linecap="round" stroke-linejoin="round"></path>
                <path d="M1346.51275,1253.12933 C1388.38378,1206.77212 1427.08599,1212.64977 1483.69066,1214.83721 C1509.40553,1215.83094 1547.75653,1214.16009 1560.02425,1186.11437 C1560.63374,1184.721 1557.01328,1185.68327 1555.5078,1185.46773" id="Path-2569" stroke="#979797" stroke-width="5" stroke-linecap="round" stroke-linejoin="round"></path>
                <path d="M1473.60508,1254.56798 C1500.15995,1248.54703 1547.89947,1241.48575 1556.00406,1207.59384" id="Path-2570" stroke="#979797" stroke-width="5" stroke-linecap="round" stroke-linejoin="round"></path>
                <path d="M952.608739,1324.30986 C953.582641,1350.31009 920.141187,1334.89254 932.04659,1314.18919 C939.349928,1301.48877 959.29728,1306.29916 968.25843,1313.10143 C988.650797,1328.58097 999.096046,1349.56435 1001.3273,1374.80793 C1001.60093,1377.90374 1001.67781,1381.04352 1001.3273,1384.13157 C1001.04784,1386.59361 1000.32947,1389.00734 999.452543,1391.32482 C998.318869,1394.32082 997.047408,1397.30285 995.322068,1400.00182 C993.165267,1403.37574 990.791087,1406.68299 987.878189,1409.43074 C984.631626,1412.49323 980.639831,1414.65398 977.020652,1417.26561" id="Path-2571" stroke="#979797" stroke-width="5" stroke-linecap="round" stroke-linejoin="round"></path>
                <path d="M1038.14568,1411.11501 C1042.5039,1386.92399 1036.88945,1396.56912 1053.18883,1381.20415" id="Path-2572" stroke="#979797" stroke-width="5" stroke-linecap="round" stroke-linejoin="round"></path>
                <path d="M1049.55461,1364.73739 C1049.99587,1360.68151 1050.79287,1321.46556 1048.89293,1317.90862 C1041.38268,1303.84838 1023.6346,1306.67884 1034.34103,1290.57931" id="Path-2573" stroke="#979797" stroke-width="5" stroke-linecap="round" stroke-linejoin="round"></path>
                <path d="M1055.7804,1305.85806 C1068.31792,1306.59899 1068.39343,1297.61936 1061.79064,1296.08327 C1049.79427,1293.29239 1047.30215,1304.24649 1056.71778,1305.06104" id="Path-2574" stroke="#979797" stroke-width="5" stroke-linecap="round" stroke-linejoin="round"></path>
                <path d="M1122.4144,1226.83765 C1122.76874,1218.44615 1123.7187,1212.38413 1133.32707,1213.14793" id="Path-2575" stroke="#979797" stroke-width="5" stroke-linecap="round" stroke-linejoin="round"></path>
                <path d="M1125.83307,1230.36159 C1120.50077,1243.19067 1131.11541,1233.51498 1126.49474,1231.95062" id="Path-2576" stroke="#979797" stroke-width="5" stroke-linecap="round" stroke-linejoin="round"></path>
                <path d="M1214.18214,1219.94517 C1197.8262,1220.53092 1200.64217,1241.24365 1217.20981,1237.20394 C1218.39474,1236.91502 1219.4403,1235.82396 1219.85653,1234.67753 C1223.1301,1225.66096 1203.20249,1223.69284 1211.25972,1234.8229" id="Path-2577" stroke="#979797" stroke-width="5" stroke-linecap="round" stroke-linejoin="round"></path>
                <path d="M1178.35627,1284.2282 C1171.3666,1298.66647 1188.45569,1286.53683 1177.91516,1281.80205" id="Path-2578" stroke="#979797" stroke-width="5" stroke-linecap="round" stroke-linejoin="round"></path>
                <path d="M1212.80364,1258.48792 C1210.78184,1258.86722 1208.59273,1258.73561 1206.73826,1259.62581 C1196.57049,1264.50659 1224.10984,1263.66726 1210.59805,1255.85625" id="Path-2579" stroke="#979797" stroke-width="5" stroke-linecap="round" stroke-linejoin="round"></path>
                <path d="M1174.16565,1265.03452 C1162.89927,1275.93992 1189.00564,1269.39301 1174.9376,1264.38788" id="Path-2580" stroke="#979797" stroke-width="5" stroke-linecap="round" stroke-linejoin="round"></path>
                <path d="M1136.85602,1302.33412 C1136.65384,1294.24862 1136.45166,1286.16311 1136.24948,1278.0776" id="Path-2581" stroke="#979797" stroke-width="5" stroke-linecap="round" stroke-linejoin="round"></path>
                <path d="M1049.94059,1272.32301 C1078.83466,1250.21595 1058.41614,1267.18934 1084.00198,1261.90659" id="Path-2582" stroke="#979797" stroke-width="5" stroke-linecap="round" stroke-linejoin="round"></path>
                <path d="M1097.77691,1261.11458 C1108.75171,1257.78335 1105.55591,1260.98131 1109.73724,1254.71836" id="Path-2583" stroke="#979797" stroke-width="5" stroke-linecap="round" stroke-linejoin="round"></path>
                <path d="M1107.58679,1564.04286 C1098.59965,1572.35247 1103.04347,1570.44442 1095.85203,1572.5745" id="Path-2584" stroke="#979797" stroke-width="5" stroke-linecap="round" stroke-linejoin="round"></path>
                <path d="M1091.60626,1574.20864 C1115.24946,1571.57717 1120.29137,1553.42239 1141.20706,1547.37559 C1152.51729,1544.10576 1152.78035,1549.2532 1164.19035,1552.38329 C1172.68746,1554.71429 1164.38064,1546.49133 1173.55911,1545.98707 C1191.4281,1545.00535 1189.49349,1556.06596 1198.91341,1541.02448" id="Path-2585" stroke="#979797" stroke-width="5" stroke-linecap="round" stroke-linejoin="round"></path>
                <path d="M1220.68362,1544.44817 C1229.27394,1510.04973 1241.67868,1527.40618 1252.70484,1512.9984" id="Path-2586" stroke="#979797" stroke-width="5" stroke-linecap="round" stroke-linejoin="round"></path>
                <path d="M1276.01896,1517.16898 C1287.52942,1513.35828 1281.32639,1513.94999 1294.70135,1516.52234" id="Path-2587" stroke="#979797" stroke-width="5" stroke-linecap="round" stroke-linejoin="round"></path>
                <path d="M1301.26299,1533.33999 C1340.4511,1567.80176 1338.4324,1513.34199 1361.50076,1500.05558 C1373.61534,1493.07809 1372.08953,1497.68433 1381.12553,1503.5745 C1388.32517,1508.26763 1396.0978,1492.36016 1398.70512,1507.84032 C1404.15917,1540.22208 1365.14858,1522.76567 1375.22557,1507.29394" id="Path-2588" stroke="#979797" stroke-width="5" stroke-linecap="round" stroke-linejoin="round"></path>
                <path d="M1350.58808,1464.44025 C1356.73534,1462.67961 1369.1751,1459.97643 1374.94987,1455.55772 C1393.54438,1441.32968 1386.77282,1435.98425 1407.19164,1437.65231 C1424.98866,1439.10619 1448.93187,1480.07523 1426.26,1486.76186 C1423.22603,1487.65668 1419.77123,1488.23949 1416.78096,1487.20799 C1396.9719,1480.37486 1421.81467,1465.43401 1424.1697,1480.66139" id="Path-2589" stroke="#979797" stroke-width="5" stroke-linecap="round" stroke-linejoin="round"></path>
                <path d="M1280.15445,1486.90723 C1278.81272,1489.15627 1277.07429,1491.21195 1276.12924,1493.65434 C1274.09752,1498.90517 1289.46462,1492.84195 1277.83858,1488.34588" id="Path-2590" stroke="#979797" stroke-width="5" stroke-linecap="round" stroke-linejoin="round"></path>
                <path d="M1093.5913,1608.08957 C1099.39885,1612.03448 1099.14514,1607.25902 1094.96979,1607.3928" id="Path-2606" stroke="#979797" stroke-width="5" stroke-linecap="round" stroke-linejoin="round"></path>
                <path d="M1121.863,1594.84598 C1121.39831,1607.48771 1127.08297,1597.13746 1123.62747,1596.13425" id="Path-2607" stroke="#979797" stroke-width="5" stroke-linecap="round" stroke-linejoin="round"></path>
                <path d="M1089.84179,1629.91492 C1083.55718,1644.39321 1094.15875,1633.9548 1094.58381,1631.95009 C1096.2174,1624.24568 1093.35002,1624.75605 1091.05486,1628.97253" id="Path-2608" stroke="#979797" stroke-width="5" stroke-linecap="round" stroke-linejoin="round"></path>
                <path d="M1125.83307,1620.73665 C1122.0319,1638.66392 1135.15229,1633.4589 1136.35976,1628.97253 C1138.55232,1620.82611 1133.52785,1615.93858 1127.21156,1620.54115" id="Path-2609" stroke="#979797" stroke-width="5" stroke-linecap="round" stroke-linejoin="round"></path>
                <path d="M1067.96129,1603.03174 C1064.70444,1609.24938 1065.86341,1623.00272 1074.84876,1612.35539 C1080.73228,1605.38362 1076.59498,1590.0482 1070.00147,1601.14696" id="Path-2610" stroke="#979797" stroke-width="5" stroke-linecap="round" stroke-linejoin="round"></path>
                <path d="M1005.29737,1599.80356 C1005.46279,1597.63806 1005.62821,1595.47257 1005.79363,1593.30708" id="Path-2611" stroke="#979797" stroke-width="5" stroke-linecap="round" stroke-linejoin="round"></path>
                <path d="M1005.79363,1590.87591 C1008.25626,1562.24222 1009.35013,1566.34046 1020.7265,1543.40552" id="Path-2612" stroke="#979797" stroke-width="5" stroke-linecap="round" stroke-linejoin="round"></path>
                <path d="M1037.98026,1585.86821 C1050.99612,1564.83021 1044.48304,1572.82805 1055.72526,1560.51892" id="Path-2613" stroke="#979797" stroke-width="5" stroke-linecap="round" stroke-linejoin="round"></path>
                <path d="M1033.34851,1664.29211 C1032.48877,1651.71848 1035.97189,1657.88415 1042.93783,1651.74028" id="Path-2614" stroke="#979797" stroke-width="5" stroke-linecap="round" stroke-linejoin="round"></path>
                <path d="M943.79639,1876.02911 C943.373651,1871.44916 942.950912,1866.86921 942.528173,1862.28927" id="Path-2625" stroke="#979797" stroke-width="5" stroke-linecap="round" stroke-linejoin="round"></path>
                <path d="M951.736527,1875.97899 C957.597112,1867.73617 955.181245,1872.56451 958.127736,1861.09624" id="Path-2626" stroke="#979797" stroke-width="5" stroke-linecap="round" stroke-linejoin="round"></path>
                <path d="M967.551637,1874.49021 C980.003594,1884.24963 976.498095,1883.22598 978.629733,1868.63536 C978.803408,1867.44659 979.590166,1864.52291 980.339068,1865.46231 C990.087838,1877.69096 978.737085,1876.17448 989.54241,1876.17448" id="Path-2627" stroke="#979797" stroke-width="5" stroke-linecap="round" stroke-linejoin="round"></path>
                <path d="M998.635471,1873.59795 C997.660892,1852.26056 998.354911,1883.59465 1006.18963,1878.00913" id="Path-2628" stroke="#979797" stroke-width="5" stroke-linecap="round" stroke-linejoin="round"></path>
                <path d="M1014.17989,1873.24706 C1018.75483,1870.13917 1023.32977,1867.03129 1027.9047,1863.92341" id="Path-2629" stroke="#979797" stroke-width="5" stroke-linecap="round" stroke-linejoin="round"></path>
                <path d="M1020.2954,1874.38996 C1026.86806,1881.36892 1029.20109,1870.21471 1034.73703,1862.58502" id="Path-2630" stroke="#979797" stroke-width="5" stroke-linecap="round" stroke-linejoin="round"></path>
                <path d="M1036.06039,1876.27474 C1042.29202,1869.50019 1039.18179,1873.71968 1044.38149,1862.93089" id="Path-2631" stroke="#979797" stroke-width="5" stroke-linecap="round" stroke-linejoin="round"></path>
                <path d="M1049.7852,1874.64059 C1055.66561,1861.20832 1050.98205,1864.02568 1058.87826,1860.99599" id="Path-2632" stroke="#979797" stroke-width="5" stroke-linecap="round" stroke-linejoin="round"></path>
                <path d="M1064.71807,1870.86602 C1098.67361,1896.09993 1031.1235,1846.78809 1075.07935,1867.54259 C1093.55257,1876.26504 1074.30131,1871.32161 1086.76398,1874.0942" id="Path-2633" stroke="#979797" stroke-width="5" stroke-linecap="round" stroke-linejoin="round"></path>
                <path d="M1087.42566,1873.54782 C1096.26085,1859.93603 1091.1261,1859.67821 1101.59159,1867.44735" id="Path-2634" stroke="#979797" stroke-width="5" stroke-linecap="round" stroke-linejoin="round"></path>
                <path d="M1106.05791,1875.8286 C1118.50719,1867.04789 1111.81938,1870.34935 1126.06365,1865.80819" id="Path-2635" stroke="#979797" stroke-width="5" stroke-linecap="round" stroke-linejoin="round"></path>
                <path d="M1119.94313,1875.92886 C1127.38372,1873.78269 1123.16828,1875.56813 1131.84832,1869.08149" id="Path-2636" stroke="#979797" stroke-width="5" stroke-linecap="round" stroke-linejoin="round"></path>
                <path d="M1137.58287,1873.49769 C1145.36704,1872.90239 1145.95207,1869.40424 1147.66844,1862.23914" id="Path-2637" stroke="#979797" stroke-width="5" stroke-linecap="round" stroke-linejoin="round"></path>
                <path d="M1152.95686,1874.59046 C1160.8981,1873.91666 1156.09433,1875.19764 1165.35831,1866.30445" id="Path-2638" stroke="#979797" stroke-width="5" stroke-linecap="round" stroke-linejoin="round"></path>
                <path d="M1177.20836,1884.31011 C1170.91503,1871.94661 1173.39798,1879.06524 1171.09285,1862.53489" id="Path-2639" stroke="#979797" stroke-width="5" stroke-linecap="round" stroke-linejoin="round"></path>
                <path d="M1188.83786,1889.51832 C1188.6173,1882.85476 1188.39674,1876.19119 1188.17618,1869.52762" id="Path-2640" stroke="#979797" stroke-width="5" stroke-linecap="round" stroke-linejoin="round"></path>
                <path d="M1193.85558,1890.21509 C1195.56522,1878.14602 1193.92369,1883.21605 1197.65522,1874.68571" id="Path-2641" stroke="#979797" stroke-width="5" stroke-linecap="round" stroke-linejoin="round"></path>
                <path d="M1205.15424,1884.95675 C1205.30129,1881.40747 1204.59007,1869.90846 1211.21461,1873.10169" id="Path-2642" stroke="#979797" stroke-width="5" stroke-linecap="round" stroke-linejoin="round"></path>
                <path d="M1216.61831,1877.31738 C1227.80615,1864.23817 1222.01779,1867.5983 1231.16521,1863.47728" id="Path-2643" stroke="#979797" stroke-width="5" stroke-linecap="round" stroke-linejoin="round"></path>
                <path d="M1230.94465,1877.26725 C1236.01584,1872.63718 1241.08704,1868.0071 1246.15823,1863.37702" id="Path-2644" stroke="#979797" stroke-width="5" stroke-linecap="round" stroke-linejoin="round"></path>
                <path d="M1244.61432,1879.64829 C1248.36216,1874.91963 1252.10999,1870.19097 1255.85783,1865.46231" id="Path-2645" stroke="#979797" stroke-width="5" stroke-linecap="round" stroke-linejoin="round"></path>
                <path d="M1255.58213,1881.82882 C1256.72888,1875.43933 1259.32569,1869.85016 1254.31392,1865.01618" id="Path-2646" stroke="#979797" stroke-width="5" stroke-linecap="round" stroke-linejoin="round"></path>
                <path d="M1268.86582,1880.93656 C1270.05885,1875.64648 1271.25187,1870.35639 1272.4449,1865.06631" id="Path-2647" stroke="#979797" stroke-width="5" stroke-linecap="round" stroke-linejoin="round"></path>
                <path d="M1280.16448,1880.98669 C1280.6056,1876.93641 1281.04672,1872.88614 1281.48783,1868.83587" id="Path-2648" stroke="#979797" stroke-width="5" stroke-linecap="round" stroke-linejoin="round"></path>
                <path d="M1290.80146,1881.18719 C1295.67615,1872.72933 1292.41228,1876.10693 1300.50106,1870.96627" id="Path-2649" stroke="#979797" stroke-width="5" stroke-linecap="round" stroke-linejoin="round"></path>
                <path d="M1298.57116,1879.74855 C1302.08006,1875.58131 1305.58896,1871.41407 1309.09786,1867.24684" id="Path-2650" stroke="#979797" stroke-width="5" stroke-linecap="round" stroke-linejoin="round"></path>
                <path d="M1306.6717,1881.13707 C1310.76876,1876.2597 1314.86582,1871.38233 1318.96288,1866.50496" id="Path-2651" stroke="#979797" stroke-width="5" stroke-linecap="round" stroke-linejoin="round"></path>
                <path d="M1318.41148,1885.89914 C1319.73484,1880.17797 1321.05819,1874.45679 1322.38155,1868.73561" id="Path-2652" stroke="#979797" stroke-width="5" stroke-linecap="round" stroke-linejoin="round"></path>
                <path d="M1328.66248,1885.84902 C1329.25064,1879.68171 1329.83879,1873.5144 1330.42695,1867.34709" id="Path-2653" stroke="#979797" stroke-width="5" stroke-linecap="round" stroke-linejoin="round"></path>
                <path d="M1336.60261,1886.34528 C1338.82492,1880.37681 1341.04722,1874.40834 1343.26952,1868.43986" id="Path-2654" stroke="#979797" stroke-width="5" stroke-linecap="round" stroke-linejoin="round"></path>
                <path d="M1344.4826,1891.20761 C1347.9915,1884.79133 1351.5004,1878.37506 1355.0093,1871.95879" id="Path-2655" stroke="#979797" stroke-width="5" stroke-linecap="round" stroke-linejoin="round"></path>
                <path d="M1361.62107,1888.67619 C1364.01719,1878.65603 1361.84354,1882.95522 1367.63131,1875.53285" id="Path-2656" stroke="#979797" stroke-width="5" stroke-linecap="round" stroke-linejoin="round"></path>
                <path d="M1374.90476,1883.51811 C1377.47628,1880.09442 1380.0478,1876.67074 1382.61932,1873.24706" id="Path-2657" stroke="#979797" stroke-width="5" stroke-linecap="round" stroke-linejoin="round"></path>
                <path d="M1391.66226,1880.2448 C1394.36829,1872.8458 1393.08899,1877.71614 1393.15103,1865.21168" id="Path-2658" stroke="#979797" stroke-width="5" stroke-linecap="round" stroke-linejoin="round"></path>
                <path d="M1407.25681,1874.78596 C1411.25215,1863.72997 1408.07859,1866.90676 1413.37733,1862.78552" id="Path-2659" stroke="#979797" stroke-width="5" stroke-linecap="round" stroke-linejoin="round"></path>
                <path d="M1434.92698,1885.10714 C1427.16002,1877.74093 1430.01148,1881.8429 1425.88906,1873.15181" id="Path-2660" stroke="#979797" stroke-width="5" stroke-linecap="round" stroke-linejoin="round"></path>
                <path d="M1436.02978,1884.75625 C1436.0114,1880.60572 1435.99302,1876.45519 1435.97464,1872.30467" id="Path-2661" stroke="#979797" stroke-width="5" stroke-linecap="round" stroke-linejoin="round"></path>
                <path d="M1451.23835,1881.03681 C1452.62146,1873.49261 1450.92272,1877.33124 1458.24111,1870.57027" id="Path-2662" stroke="#979797" stroke-width="5" stroke-linecap="round" stroke-linejoin="round"></path>
                <path d="M1456.25608,1879.94404 C1458.79084,1877.23383 1461.3256,1874.52363 1463.86036,1871.81342" id="Path-2663" stroke="#979797" stroke-width="5" stroke-linecap="round" stroke-linejoin="round"></path>
                <path d="M1463.58466,1882.57572 C1467.49792,1879.2857 1471.41118,1875.99569 1475.32444,1872.70568" id="Path-2664" stroke="#979797" stroke-width="5" stroke-linecap="round" stroke-linejoin="round"></path>
                <path d="M1473.83566,1879.74855 C1476.20668,1878.42519 1478.57769,1877.10183 1480.9487,1875.77848" id="Path-2665" stroke="#979797" stroke-width="5" stroke-linecap="round" stroke-linejoin="round"></path>
                <path d="M1483.039,1874.73583 C1491.4859,1902.64605 1494.12705,1862.1788 1500.01706,1877.02163" id="Path-2666" stroke="#979797" stroke-width="5" stroke-linecap="round" stroke-linejoin="round"></path>
                <path d="M1504.42324,1877.46776 C1518.25823,1882.91791 1500.26305,1877.80666 1520.0228,1871.21691 C1521.63361,1870.67971 1519.20758,1875.34637 1520.62934,1876.27474 C1522.37492,1877.41455 1524.77987,1875.87706 1526.85513,1875.67822" id="Path-2667" stroke="#979797" stroke-width="5" stroke-linecap="round" stroke-linejoin="round"></path>
                <path d="M1531.43174,1881.48294 C1535.10605,1877.7468 1537.2207,1870.02017 1542.45469,1870.27452 C1579.84181,1872.09137 1523.21928,1885.46941 1547.30199,1883.96424 C1548.26361,1883.90414 1548.44154,1882.4103 1549.01132,1881.63333" id="Path-2668" stroke="#979797" stroke-width="5" stroke-linecap="round" stroke-linejoin="round"></path>
                <path d="M1560.97165,1883.76373 C1576.08787,1886.5328 1560.36887,1885.45699 1575.90954,1879.74855 C1576.66647,1879.47051 1576.17,1882.10392 1576.9572,1881.92908" id="Path-2669" stroke="#979797" stroke-width="5" stroke-linecap="round" stroke-linejoin="round"></path>
                <path d="M1588.80725,1880.98669 C1595.00637,1881.048 1592.74981,1882.29684 1596.13584,1878.50539" id="Path-2670" stroke="#979797" stroke-width="5" stroke-linecap="round" stroke-linejoin="round"></path>
                <path d="M1598.06573,1876.37499 C1599.96727,1888.74652 1596.81449,1889.31264 1603.62984,1884.20986" id="Path-2671" stroke="#979797" stroke-width="5" stroke-linecap="round" stroke-linejoin="round"></path>
                <path d="M1607.37935,1879.49791 C1610.95494,1886.28265 1608.29323,1885.71298 1613.8257,1884.51062" id="Path-2672" stroke="#979797" stroke-width="5" stroke-linecap="round" stroke-linejoin="round"></path>
                <path d="M1622.48266,1874.04408 C1623.65704,1884.76831 1621.70634,1886.92042 1624.68324,1882.47546" id="Path-2673" stroke="#979797" stroke-width="5" stroke-linecap="round" stroke-linejoin="round"></path>
                <path d="M1632.2374,1877.51288 C1629.57986,1902.15547 1651.48613,1859.74656 1656.37862,1868.48999 C1658.27352,1871.87638 1653.74793,1875.80089 1652.73939,1879.54804 C1651.79245,1883.06633 1651.87194,1882.62584 1653.89733,1882.62584" id="Path-2674" stroke="#979797" stroke-width="5" stroke-linecap="round" stroke-linejoin="round"></path>
                <path d="M1662.21843,1882.02933 C1668.30754,1852.07848 1658.79565,1882.01714 1676.88062,1884.06449 C1677.39947,1884.12323 1677.85951,1871.0758 1681.56249,1868.1391 C1682.18106,1867.64854 1683.10641,1867.80826 1683.87837,1867.64284" id="Path-2675" stroke="#979797" stroke-width="5" stroke-linecap="round" stroke-linejoin="round"></path>
                <path d="M1690.10917,1879.00165 C1693.85534,1875.84364 1697.6015,1872.68563 1701.34767,1869.52762" id="Path-2676" stroke="#979797" stroke-width="5" stroke-linecap="round" stroke-linejoin="round"></path>
                <path d="M1708.84669,1866.80071 C1717.66506,1860.52651 1720.31077,1854.73246 1720.31077,1863.87328" id="Path-2677" stroke="#979797" stroke-width="5" stroke-linecap="round" stroke-linejoin="round"></path>
                <path d="M1746.81799,1878.60565 C1742.97371,1867.85568 1736.96963,1859.19516 1753.0488,1867.84335" id="Path-2678" stroke="#979797" stroke-width="5" stroke-linecap="round" stroke-linejoin="round"></path>
                <path d="M1761.0942,1871.61291 C1763.73924,1867.42897 1765.75566,1862.77386 1769.02932,1859.06108 C1769.97489,1857.98868 1772.21814,1856.85178 1773.16481,1857.92319 L1775.26013,1869.82839 C1776.67108,1871.42527 1778.94581,1865.13726 1780.65882,1866.4047 C1791.82222,1874.66442 1776.06592,1876.75436 1786.39336,1874.54034" id="Path-2679" stroke="#979797" stroke-width="5" stroke-linecap="round" stroke-linejoin="round"></path>
                <path d="M1789.53132,1877.06674 C1806.7465,1862.64545 1803.40884,1859.82039 1802.31875,1879.99417" id="Path-2680" stroke="#979797" stroke-width="5" stroke-linecap="round" stroke-linejoin="round"></path>
                <path d="M1816.81552,1875.6281 C1819.57084,1871.37899 1823.10315,1858.21891 1825.08148,1862.88077 L1828.94127,1860.94586 C1833.45496,1871.58218 1824.90525,1874.77293 1831.31229,1871.81342" id="Path-2681" stroke="#979797" stroke-width="5" stroke-linecap="round" stroke-linejoin="round"></path>
                <path d="M1836.93154,1866.30445 C1840.76935,1862.54621 1845.7489,1854.53918 1845.7489,1862.23914" id="Path-2682" stroke="#979797" stroke-width="5" stroke-linecap="round" stroke-linejoin="round"></path>
                <path d="M1845.08722,1872.90118 C1852.29349,1872.5364 1848.96709,1873.95061 1854.18529,1867.00122" id="Path-2683" stroke="#979797" stroke-width="5" stroke-linecap="round" stroke-linejoin="round"></path>
                <path d="M1855.94476,1873.84357 C1861.97315,1869.32227 1859.31216,1872.40652 1862.72696,1863.67779" id="Path-2684" stroke="#979797" stroke-width="5" stroke-linecap="round" stroke-linejoin="round"></path>
                <path d="M1863.66434,1864.62018 C1864.2879,1876.55698 1865.61578,1879.40263 1873.80505,1868.93612" id="Path-2685" stroke="#979797" stroke-width="5" stroke-linecap="round" stroke-linejoin="round"></path>
                <path d="M1876.50691,1868.43986 C1881.06584,1879.00613 1879.69747,1868.96386 1884.71773,1868.33961 C1908.48424,1865.38432 1875.85008,1872.08942 1890.94352,1871.90866" id="Path-2686" stroke="#979797" stroke-width="5" stroke-linecap="round" stroke-linejoin="round"></path>
                <path d="M1895.24443,1872.00892 C1902.34672,1872.25277 1900.064,1873.8686 1903.06927,1868.98124" id="Path-2687" stroke="#979797" stroke-width="5" stroke-linecap="round" stroke-linejoin="round"></path>
                <path d="M1895.68555,1873.29718 C1917.87045,1878.62939 1894.30409,1873.64939 1901.13938,1864.6703 C1907.81672,1855.89871 1915.99937,1877.80497 1917.62118,1876.17448 C1928.55081,1865.1864 1913.42282,1853.1363 1930.84973,1872.00892 C1931.39735,1872.60197 1932.65899,1872.48529 1933.27087,1871.95879 C1934.51399,1870.88913 1934.96183,1869.14833 1935.8073,1867.7431" id="Path-2688" stroke="#979797" stroke-width="5" stroke-linecap="round" stroke-linejoin="round"></path>
                <path d="M1936.52412,1866.6002 C1949.65768,1870.66795 1948.0417,1865.31193 1941.43157,1865.31193" id="Path-2689" stroke="#979797" stroke-width="5" stroke-linecap="round" stroke-linejoin="round"></path>
                <path d="M1725.04778,1870.52014 C1722.3476,1871.39737 1719.64742,1872.27459 1716.94724,1873.15181" id="Path-2690" stroke="#979797" stroke-width="5" stroke-linecap="round" stroke-linejoin="round"></path>
                <path d="M239.094142,1684.46828 C241.757563,1698.65593 244.420985,1712.84358 247.084406,1727.03123" id="Path-2691" stroke="#979797" stroke-width="5" stroke-linecap="round" stroke-linejoin="round"></path>
                <path d="M253.921747,1680.40297 C254.712085,1696.91986 255.502423,1713.43675 256.29276,1729.95364" id="Path-2692" stroke="#979797" stroke-width="5" stroke-linecap="round" stroke-linejoin="round"></path>
                <path d="M269.736857,1682.08724 C275.823857,1718.74993 273.165948,1695.0633 271.611612,1753.56853" id="Path-2693" stroke="#979797" stroke-width="5" stroke-linecap="round" stroke-linejoin="round"></path>
                <path d="M292.995846,1686.30293 C293.087746,1710.50933 293.179645,1734.71572 293.271545,1758.92211" id="Path-2694" stroke="#979797" stroke-width="5" stroke-linecap="round" stroke-linejoin="round"></path>
                <path d="M389.445459,1690.47351 C390.235797,1713.88622 391.026134,1737.29893 391.816472,1760.71165" id="Path-2695" stroke="#979797" stroke-width="5" stroke-linecap="round" stroke-linejoin="round"></path>
                <path d="M504.527327,1685.11492 C504.711126,1707.61866 504.894926,1730.1224 505.078725,1752.62614" id="Path-2696" stroke="#979797" stroke-width="5" stroke-linecap="round" stroke-linejoin="round"></path>
                <path d="M628.647116,1683.23014 C627.948678,1712.09836 627.25024,1740.96657 626.551802,1769.83478" id="Path-2697" stroke="#979797" stroke-width="5" stroke-linecap="round" stroke-linejoin="round"></path>
                <path d="M726.364946,1686.25281 C725.776787,1722.19897 725.188629,1758.14514 724.600471,1794.0913" id="Path-2698" stroke="#979797" stroke-width="5" stroke-linecap="round" stroke-linejoin="round"></path>
                <path d="M771.118448,1690.81939 C757.582929,1727.83288 768.37556,1695.68274 767.865197,1792.50729" id="Path-2699" stroke="#979797" stroke-width="5" stroke-linecap="round" stroke-linejoin="round"></path>
                <path d="M879.859234,1704.90511 C886.811902,1730.25237 877.630839,1757.89214 878.094759,1784.32153" id="Path-2700" stroke="#979797" stroke-width="5" stroke-linecap="round" stroke-linejoin="round"></path>
                <path d="M800.989206,1702.72458 C799.986946,1761.97506 798.615429,1733.23079 804.518156,1788.98335" id="Path-2701" stroke="#979797" stroke-width="5" stroke-linecap="round" stroke-linejoin="round"></path>
                <path d="M834.719752,1702.3787 C834.43056,1731.46353 837.359272,1761.67278 828.383683,1789.82548" id="Path-2702" stroke="#979797" stroke-width="5" stroke-linecap="round" stroke-linejoin="round"></path>
                <path d="M938.558104,1710.2637 C937.179608,1743.43115 935.801112,1776.59861 934.422616,1809.76606" id="Path-2703" stroke="#979797" stroke-width="5" stroke-linecap="round" stroke-linejoin="round"></path>
                <path d="M965.175611,1722.31928 C963.412807,1739.18372 961.293292,1756.01467 959.887199,1772.91259 C956.800626,1810.00591 993.107433,1775.74927 1010.42537,1788.73773" id="Path-2704" stroke="#979797" stroke-width="5" stroke-linecap="round" stroke-linejoin="round"></path>
                <path d="M1025.63896,1704.90511 C1027.32433,1784.66483 1031.66307,1754.0254 1023.4885,1797.7155" id="Path-2705" stroke="#979797" stroke-width="5" stroke-linecap="round" stroke-linejoin="round"></path>
                <path d="M1053.80038,1709.32131 C1053.8739,1736.47017 1053.94742,1763.61902 1054.02094,1790.76787" id="Path-2706" stroke="#979797" stroke-width="5" stroke-linecap="round" stroke-linejoin="round"></path>
                <path d="M1085.15991,1710.50933 C1084.20415,1740.76773 1083.2484,1771.02614 1082.29264,1801.28455" id="Path-2707" stroke="#979797" stroke-width="5" stroke-linecap="round" stroke-linejoin="round"></path>
                <path d="M1101.14545,1703.66697 C1105.99442,1702.78975 1110.76645,1701.16759 1115.69235,1701.0353 C1118.33474,1700.96433 1122.26125,1700.66482 1123.35679,1703.07046 C1134.13072,1726.72839 1142.5785,1800.12551 1118.83532,1811.5556" id="Path-2708" stroke="#979797" stroke-width="5" stroke-linecap="round" stroke-linejoin="round"></path>
                <path d="M406.313239,1699.3009 C408.039283,1715.65404 409.765327,1732.00718 411.491371,1748.36032" id="Path-2709" stroke="#979797" stroke-width="5" stroke-linecap="round" stroke-linejoin="round"></path>
                <path d="M407.030056,1695.97747 C453.337941,1692.84856 429.262258,1691.42038 479.117884,1702.1782" id="Path-2710" stroke="#979797" stroke-width="5" stroke-linecap="round" stroke-linejoin="round"></path>
                <path d="M426.043277,1749.89421 C440.023734,1746.98517 454.004191,1744.07612 467.984648,1741.16708" id="Path-2711" stroke="#979797" stroke-width="5" stroke-linecap="round" stroke-linejoin="round"></path>
                <path d="M475.152828,1709.91783 C476.529653,1720.94579 477.906478,1731.97376 479.283303,1743.00173" id="Path-2712" stroke="#979797" stroke-width="5" stroke-linecap="round" stroke-linejoin="round"></path>
                <path d="M529.55079,1707.78241 C530.504877,1721.04271 531.458963,1734.303 532.41305,1747.5633" id="Path-2713" stroke="#979797" stroke-width="5" stroke-linecap="round" stroke-linejoin="round"></path>
                <path d="M543.877125,1705.15575 C544.924782,1720.56483 545.972439,1735.97391 547.020096,1751.38299" id="Path-2714" stroke="#979797" stroke-width="5" stroke-linecap="round" stroke-linejoin="round"></path>
                <path d="M533.185007,1702.77471 C542.974346,1700.29869 586.125904,1689.82508 594.310031,1700.58917 C603.040928,1712.07238 600.519112,1728.76396 603.623652,1742.85135" id="Path-2715" stroke="#979797" stroke-width="5" stroke-linecap="round" stroke-linejoin="round"></path>
                <path d="M652.292084,1766.31586 C649.451584,1725.31177 637.933686,1718.66199 679.01987,1705.15575 C683.357115,1703.72997 688.059463,1703.86581 692.579259,1703.22084" id="Path-2716" stroke="#979797" stroke-width="5" stroke-linecap="round" stroke-linejoin="round"></path>
                <path d="M962.749458,1717.06094 C975.37147,1716.1503 987.993481,1715.23966 1000.61549,1714.32901" id="Path-2717" stroke="#979797" stroke-width="5" stroke-linecap="round" stroke-linejoin="round"></path>
                <path d="M306.996354,1696.0276 C309.636164,1712.98801 303.37764,1760.74187 317.96417,1755.30293 C324.404087,1752.90165 329.904452,1748.49232 335.874594,1745.08702" id="Path-2718" stroke="#979797" stroke-width="5" stroke-linecap="round" stroke-linejoin="round"></path>
                <path d="M313.828682,1730.30453 C319.396135,1729.89014 324.963588,1729.47576 330.531042,1729.06138" id="Path-2719" stroke="#979797" stroke-width="5" stroke-linecap="round" stroke-linejoin="round"></path>
                <path d="M309.532786,1701.58168 C316.705769,1698.16415 312.487465,1699.42325 322.485637,1699.00515" id="Path-2720" stroke="#979797" stroke-width="5" stroke-linecap="round" stroke-linejoin="round"></path>
                <path d="M1715.13263,1234.08102 C1722.13744,1243.13973 1723.60888,1235.56249 1717.17281,1235.12366" id="Path-2840" stroke="#979797" stroke-width="5" stroke-linecap="round" stroke-linejoin="round"></path>
                <path d="M1684.0488,1137.05996 C1689.93162,1140.66775 1695.45003,1133.25668 1689.99889,1132.29788" id="Path-2841" stroke="#979797" stroke-width="5" stroke-linecap="round" stroke-linejoin="round"></path>
                <path d="M1511.98241,1165.72766 C1508.43426,1175.94634 1522.54562,1164.73603 1512.58895,1163.39675" id="Path-2842" stroke="#979797" stroke-width="5" stroke-linecap="round" stroke-linejoin="round"></path>
                <path d="M809.961962,1625.68921 C809.888442,1620.69654 809.814923,1615.70388 809.741403,1610.71122" id="Path-2852" stroke="#979797" stroke-width="5" stroke-linecap="round" stroke-linejoin="round"></path>
                <path d="M810.62364,1602.37508 C808.269239,1613.16446 816.086872,1613.06671 816.242892,1607.73367 C816.34103,1604.37913 811.400805,1597.83251 810.347941,1603.51798" id="Path-2853" stroke="#979797" stroke-width="5" stroke-linecap="round" stroke-linejoin="round"></path>
                <path d="M839.61216,1624.00493 C838.858582,1619.0106 838.105005,1614.01627 837.351427,1609.02194" id="Path-2854" stroke="#979797" stroke-width="5" stroke-linecap="round" stroke-linejoin="round"></path>
                <path d="M833.220951,1603.71347 C833.637324,1619.27067 847.094563,1595.8004 836.469189,1599.99404 C835.032096,1600.56123 834.671296,1602.50708 833.772349,1603.7636" id="Path-2855" stroke="#979797" stroke-width="5" stroke-linecap="round" stroke-linejoin="round"></path>
                <path d="M863.973946,1624.35081 C863.330648,1618.8786 862.68735,1613.40639 862.044051,1607.93418" id="Path-2856" stroke="#979797" stroke-width="5" stroke-linecap="round" stroke-linejoin="round"></path>
                <path d="M859.948737,1598.60552 C859.414088,1618.97079 875.336353,1599.01197 860.610416,1599.84867" id="Path-2857" stroke="#979797" stroke-width="5" stroke-linecap="round" stroke-linejoin="round"></path>
                <path d="M1041.34379,2095.27015 C1066.4356,2138.75128 1088.96183,2176.55027 1123.80292,2212.33705" id="Path-2862" stroke="#979797" stroke-width="5" stroke-linecap="round" stroke-linejoin="round"></path>
                <path d="M650.803308,1851.52196 C650.619509,1845.50336 650.435709,1839.48476 650.25191,1833.46617" id="Path-2863" stroke="#979797" stroke-width="5" stroke-linecap="round" stroke-linejoin="round"></path>
                <path d="M660.177082,1849.34644 C662.930732,1845.97121 665.684382,1842.59599 668.438033,1839.22076" id="Path-2864" stroke="#979797" stroke-width="5" stroke-linecap="round" stroke-linejoin="round"></path>
                <path d="M662.272396,1850.03819 C679.663014,1842.25761 674.468201,1847.14404 681.120197,1839.91251" id="Path-2865" stroke="#979797" stroke-width="5" stroke-linecap="round" stroke-linejoin="round"></path>
                <path d="M687.516419,1849.04568 C690.270069,1844.44735 693.02372,1839.84902 695.77737,1835.25069" id="Path-2866" stroke="#979797" stroke-width="5" stroke-linecap="round" stroke-linejoin="round"></path>
                <path d="M697.541845,1855.9933 C697.541845,1851.2613 697.541845,1846.5293 697.541845,1841.79729" id="Path-2867" stroke="#979797" stroke-width="5" stroke-linecap="round" stroke-linejoin="round"></path>
                <path d="M897.368641,1852.62977 C927.575383,1877.31949 939.988957,1918.77066 971.110663,1941.21945 C981.334897,1948.59441 1002.00115,1957.28653 1012.33522,1967.31062 C1065.77734,2019.14969 1045.37048,2007.14961 1091.9772,2045.33851 C1172.8215,2111.58119 1094.84655,2045.72611 1175.85994,2105.1101 C1180.985,2108.86684 1184.69611,2114.26508 1189.47447,2118.45394 C1265.00151,2184.66332 1228.96238,2144.79559 1278.3198,2205.80548" id="Path-2453" stroke="#979797" stroke-width="5" stroke-linecap="round" stroke-linejoin="round"></path>
                <path d="M908.942995,1846.82505 C918.441525,1871.12868 935.347004,1891.18036 950.829226,1912.00535 C955.821055,1918.71982 957.893145,1928.15993 964.829734,1932.83819 C1029.11757,1976.19597 992.01338,1932.9049 1036.91756,1968.20789 C1064.97762,1990.26829 1090.03167,2016.07717 1118.76514,2037.253 C1132.71425,2047.53314 1149.80628,2052.80722 1164.39587,2062.15616 C1177.43919,2070.51426 1188.57557,2081.58872 1201.43481,2090.22736 C1215.71397,2099.81988 1231.66714,2106.80912 1245.69205,2116.76967 C1307.98207,2161.00832 1311.47805,2165.70199 1355.03937,2205.40948" id="Path-2455" stroke="#979797" stroke-width="5" stroke-linecap="round" stroke-linejoin="round"></path>
            </g>
        </g>
    </g>
</svg>