<?xml version="1.0" encoding="UTF-8"?>
<svg width="1920px" height="688px" viewBox="0 0 1920 688" version="1.1" xmlns="http://www.w3.org/2000/svg" xmlns:xlink="http://www.w3.org/1999/xlink">
    <!-- Generator: Sketch 49.3 (51167) - http://www.bohemiancoding.com/sketch -->
    <title>back</title>
    <desc>Created with Sketch.</desc>
    <defs></defs>
    <g id="Artwork" stroke="none" stroke-width="1" fill="none" fill-rule="evenodd">
        <g id="Projects-Scene---Rocket-above-the-ocean">
            <g id="back" transform="translate(-80.000000, -69.000000)">
                <path d="M2021.07812,54.7109375 C2022.05208,79.9661458 2022.0688,105.276471 2024,130.476563 C2026.22244,159.477029 2032.7998,188.134637 2033.53125,217.210938 C2037.32422,367.986766 2035.11053,472.319918 2024.51562,614.273437 C2021.32791,656.983264 2024.43233,701.016429 2012.74219,742.21875 C2010.44359,750.320229 1995.90333,743.19272 1987.57812,744.460937 C1938.76035,751.897577 1931.27679,758.938229 1880.80469,755.820312 C1869.19903,755.103373 1858.17973,750.345487 1846.70312,748.476563 C1804.26473,741.565618 1742.71,730.210461 1697.15625,726.210937 C1672.12187,724.012972 1640.27634,722.634563 1614.86719,725.90625 C1601.62423,727.611416 1588.93041,732.954088 1575.60937,733.867188 C1550.04177,735.619737 1524.32919,734.998377 1498.72656,733.867188 C1475.88564,732.858017 1453.23728,729.154959 1430.4375,727.453125 C1423.52919,726.937471 1416.5295,726.353269 1409.65625,727.21875 C1192.29439,754.589009 1525.22648,716.425004 1357.17187,740.75 C1339.45196,743.314862 1282.70603,744.697674 1265.85937,743.296875 C1205.21525,738.254318 1202.98394,730.809706 1149.03906,730.539062 C1108.14424,730.333892 1067.26876,733.218783 1026.375,732.859375 C948.142157,732.171801 1037.87268,723.358599 945.203125,728.84375 C919.411201,730.370385 893.857364,734.937939 868.0625,736.414062 C821.793637,739.061821 792.005289,740.205395 748.921875,731.007812 C731.701795,727.331616 715.141675,720.974492 697.984375,717.015625 C694.832808,716.288434 691.244924,715.720319 688.28125,717.015625 C677.957074,721.527918 669.45676,729.656391 659.070312,734.023437 C630.847553,745.889873 589.519549,734.883439 563.46875,733.015625 C534.930094,730.969434 506.277977,730.773294 477.742187,728.6875 C465.709302,727.807969 453.877618,724.874558 441.835937,724.125 C384.829668,720.576533 329.255972,723.424456 272.445312,724.585937 C210.264286,725.857215 148.066007,727.291857 85.875,726.679688 C69.6892184,726.520365 53.1249484,726.557587 37.515625,722.273438 C33.8752156,721.274287 33.516094,715.728949 32.6171875,712.0625 C30.9087974,705.094339 30.1879441,697.889555 29.78125,690.726562 C28.7540388,672.634572 30.2025542,654.405921 28.3203125,636.382812 C23.3510811,588.80072 14.1749397,541.71951 9.25,494.132812 C-1.82554187,387.116587 3.42895991,367.100658 2.46875,255.632813 C2.40436206,248.158212 -6.19458082,90.9461455 12.171875,74.1171875 C23.0198786,64.177295 34.8753416,55.3818361 46.6171875,46.515625 C60.681256,35.8959148 80.356846,30.077706 97.3828125,28.0390625 C283.976492,5.69683618 186.516269,16.8796297 299.070312,13.0390625 C324.455469,12.1728706 349.78007,9.4540609 375.179687,9.328125 C469.176889,8.86206986 432.456626,15.16022 513.90625,12.578125 C756.10436,4.90002292 651.888882,3.88857017 840.835937,1.0625 C973.147966,-0.916483357 879.894728,1.78716374 1026.46094,4.5390625 C1086.00997,5.65714352 1145.67158,2.66557965 1205.13281,6.0859375 C2014.49878,52.6426801 1418.65623,38.3966535 1918.60156,46.671875 L2021.07812,54.7109375 Z" id="Path-3915" fill="#F7F7F1"></path>
                <path d="M577.717437,326.819555 C573.73317,322.328902 570.348809,319.437476 568.912682,313.000758 C567.462082,306.499174 566.663623,299.789981 566.787951,293.129698 C566.920135,286.048586 577.084762,271.491753 584.795848,277.162025 C599.43409,287.926114 607.121898,318.98904 585.415561,326.260203" id="Path-3643" stroke="#979797" stroke-width="4" stroke-linecap="round" stroke-linejoin="round"></path>
                <path d="M580.103735,316.622458 C580.148,314.327373 579.670004,311.961708 580.23653,309.737204 C580.608894,308.275088 584.078694,305.559247 584.663052,309.535998 C585.91461,318.05327 586.344474,326.690656 586.477926,335.298357 C586.493987,336.334244 585.314066,339.101909 585.105704,338.087066 L581.25463,337.930125 C579.659213,330.159491 580.546387,322.080493 580.192265,314.155678" id="Path-3644" stroke="#9B9B9B" stroke-width="4" stroke-linecap="round" stroke-linejoin="round"></path>
                <path d="M567.186338,312.364948 C563.366116,314.621133 559.359489,316.587952 555.72567,319.133503 C544.719714,326.84336 564.751872,324.125764 568.381499,311.447451" id="Path-3645" stroke="#9B9B9B" stroke-width="4" stroke-linecap="round" stroke-linejoin="round"></path>
                <path d="M598.642814,317.817619 C630.646866,319.957466 613.79496,314.132219 599.439588,312.163743" id="Path-3646" stroke="#9B9B9B" stroke-width="4" stroke-linecap="round" stroke-linejoin="round"></path>
                <path d="M567.761786,340.396905 C567.023718,340.778706 546.328047,350.830536 553.955061,351.905863 C559.813728,352.731871 563.92839,344.265399 569.838227,343.982388 C572.257578,343.86653 569.835087,348.949962 568.912682,351.189571 C567.729219,354.063032 565.247931,356.223291 563.689386,358.91184 C563.421346,359.374218 563.062756,360.216379 563.512325,360.505388 C569.857746,364.584587 568.487124,338.616962 556.478179,379.064588 C555.208689,383.340388 556.242098,387.982018 556.124057,392.440733" id="Path-3647" stroke="#9B9B9B" stroke-width="4" stroke-linecap="round" stroke-linejoin="round"></path>
                <path d="M599.616649,338.525694 C603.466382,340.290937 607.316114,342.05618 611.165847,343.821424" id="Path-3648" stroke="#9B9B9B" stroke-width="4" stroke-linecap="round" stroke-linejoin="round"></path>
                <path d="M598.598549,347.245942 C600.118321,348.387448 604.165247,349.058651 603.157866,350.670461 L606.872121,351.30627 C605.767855,353.073095 602.698826,352.44642 601.165931,353.857557 C591.503617,362.752396 624.958289,349.224477 595.371212,355.052718 C594.134013,355.296428 595.540177,357.580588 595.415477,358.835382 L597.270592,359.708614 C597.047807,361.950388 595.026323,363.731977 594.707233,365.962082 C593.159242,376.780943 593.207504,382.852662 600.90034,389.696289" id="Path-3649" stroke="#9B9B9B" stroke-width="4" stroke-linecap="round" stroke-linejoin="round"></path>
                <path d="M569.793962,370.263857 C569.146249,384.255785 570.310648,376.090121 564.132038,394.352185" id="Path-3650" stroke="#9B9B9B" stroke-width="4" stroke-linecap="round" stroke-linejoin="round"></path>
                <path d="M581.033304,370.062652 C559.52575,645.034758 587.72015,270.396912 573.379445,502.508217 C571.976967,525.208008 569.468872,547.826011 567.45193,570.479475 C567.065116,574.824004 567.555096,579.366142 566.168238,583.501499 C542.299412,654.673998 580.940163,515.782429 559.134092,596.841426" id="Path-3651" stroke="#9B9B9B" stroke-width="4" stroke-linecap="round" stroke-linejoin="round"></path>
                <path d="M1053.27078,451.534803 C1036.62746,554.177138 1058.89964,430.494869 1040.12803,504.57661 C1038.59274,510.635598 1040.89383,517.647446 1038.04757,523.212268 C1036.06947,527.079706 1030.38253,527.411342 1027.03357,530.178004 C1016.28925,539.054168 1039.37365,529.628853 1016.54674,540.375101 C974.796475,560.029921 1023.33327,530.483268 980.752273,558.213985" id="Path-3691" stroke="#CFCFCF" stroke-width="4" stroke-linecap="round" stroke-linejoin="round"></path>
                <path d="M1051.4559,464.597067 C1049.47563,456.117259 1048.73278,448.444866 1058.09166,443.969474 C1063.77594,441.25127 1072.11022,433.005368 1076.01103,437.953428 C1082.32087,445.957277 1067.59283,465.821612 1077.42752,468.49643 L1078.79974,471.764009 C1108.90309,479.95146 1080.50692,464.018035 1092.60244,478.295141 C1093.36853,479.199405 1095.23561,479.374644 1096.14366,478.613046 C1113.37457,464.161169 1108.54784,453.835808 1128.75103,466.307314" id="Path-3692" stroke="#CFCFCF" stroke-width="4" stroke-linecap="round" stroke-linejoin="round"></path>
                <path d="M646.441204,456.95528 C687.862343,443.966833 749.758665,447.20756 789.530543,464.118198 C799.587797,468.39445 807.339754,476.813739 816.61281,482.596915 C820.816187,485.218367 826.560154,485.612079 829.884328,489.284988 C856.489145,518.680878 817.257553,488.43993 837.666959,507.208378 C841.226326,510.481565 845.225209,513.285074 849.352977,515.803879 C855.340929,519.457788 863.613825,520.154317 867.936321,525.679048 C871.726345,530.523206 871.739527,555.385035 884.129344,555.385035" id="Path-3716" stroke="#CFCFCF" stroke-width="4" stroke-linecap="round" stroke-linejoin="round"></path>
                <path d="M986.422245,510.387426 C973.649717,492.65451 961.251184,474.646133 948.104661,457.188679 C943.747777,451.403112 939.960795,444.743191 933.947838,440.70592 C883.126356,406.582925 890.438543,416.417903 841.650828,401.044282 C819.390156,394.029665 833.839098,394.440432 806.6974,382.726529 C790.088683,375.558484 758.231859,377.34336 745.200936,376.191373 C738.700094,375.616671 732.432952,373.035279 725.909348,372.85136 C711.686555,372.45038 697.47369,374.937391 683.253772,374.444908 C663.939171,373.77598 648.192157,364.347426 626.706964,370.782967 C626.270492,370.913706 625.804222,371.450484 625.91019,371.893622 C625.992549,372.238033 626.618433,371.893622 626.972555,371.893622" id="Path-3717" stroke="#CFCFCF" stroke-width="4" stroke-linecap="round" stroke-linejoin="round"></path>
                <path d="M515.126414,385.833143 C479.613811,394.63123 448.308916,404.319147 414.861665,420.158809 C406.694915,424.026349 399.598577,429.973707 391.328664,433.615436 C364.901297,445.252963 358.192224,435.092597 357.349071,467.699657" id="Path-3718" stroke="#CFCFCF" stroke-width="4" stroke-linecap="round" stroke-linejoin="round"></path>
                <path d="M271.418204,437.438342 C283.463313,416.232166 303.028364,394.980432 326.991177,387.740571 C339.680568,383.906738 353.705924,384.011025 365.574353,378.106849 C370.135917,375.837613 370.0761,368.903956 373.099441,364.803138 C376.374998,360.360218 386.184486,357.25723 389.912177,355.644262" id="Path-3721" stroke="#CFCFCF" stroke-width="4" stroke-linecap="round" stroke-linejoin="round"></path>
                <path d="M435.835331,341.471343 C466.852307,321.807183 486.114099,317.34377 522.023741,310.574219" id="Path-3722" stroke="#CFCFCF" stroke-width="4" stroke-linecap="round" stroke-linejoin="round"></path>
                <path d="M682.014345,296.393252 C720.621257,290.800552 744.946095,291.473652 782.97929,296.232287 C789.521964,297.050893 796.472408,295.465211 802.71353,297.592437 C803.946503,298.012683 819.78377,310.552697 826.697232,311.370993 C838.354759,312.750808 850.756347,309.931635 861.827721,313.833749 C872.792475,317.698284 879.640063,329.439822 890.406957,333.825532 C913.273413,343.139793 925.39403,336.294385 943.678138,347.129243 C965.63583,360.141005 989.022381,374.809144 1007.57297,392.360251 C1022.52518,406.50685 1010.71767,404.198938 1019.78213,405.422515" id="Path-3723" stroke="#CFCFCF" stroke-width="4" stroke-linecap="round" stroke-linejoin="round"></path>
                <path d="M1152.43292,448.029802 C1147.74035,428.851483 1142.75083,403.809315 1127.65244,389.575566 C1121.39805,383.67934 1112.62516,381.136835 1105.70494,376.038456 C1078.55935,356.03931 1105.8383,367.563718 1073.67302,357.23781" id="Path-3724" stroke="#CFCFCF" stroke-width="4" stroke-linecap="round" stroke-linejoin="round"></path>
                <path d="M1049.15814,306.348902 C1029.43742,300.988409 1060.14062,309.971289 1016.41797,288.666959 C1003.55526,282.399465 990.006467,277.64483 976.683897,272.425647 C957.149782,264.77306 934.602542,262.16573 916.426859,252.353381" id="Path-3725" stroke="#CFCFCF" stroke-width="4" stroke-linecap="round" stroke-linejoin="round"></path>
                <path d="M787.05169,245.182415 C731.856565,231.67702 802.834299,247.275298 700.774751,238.180462 C689.440031,237.170391 678.764854,231.749995 667.414871,230.929014 C625.513099,227.898125 620.515329,229.274868 591.576475,233.399818" id="Path-3726" stroke="#CFCFCF" stroke-width="4" stroke-linecap="round" stroke-linejoin="round"></path>
                <path d="M512.736092,247.097892 C472.874436,247.598816 416.716115,246.571485 379.642645,257.850317 C319.829437,276.047241 325.825735,282.014586 283.546875,301.890187" id="Path-3727" stroke="#CFCFCF" stroke-width="4" stroke-linecap="round" stroke-linejoin="round"></path>
                <path d="M209.656149,352.223768 C206.232972,356.258609 201.827164,359.633421 199.386618,364.328293 C197.99905,366.997555 199.317071,370.384678 198.686422,373.326206 C195.70436,387.235396 192.706935,390.852555 179.748956,400.722353 C160.072665,415.709337 129.846719,425.35133 128.425445,454.798357" id="Path-3728" stroke="#CFCFCF" stroke-width="4" stroke-linecap="round" stroke-linejoin="round"></path>
                <path d="M69.5768454,398.895407 C93.5129047,339.847296 99.9666709,323.661427 151.958446,281.504041 C169.241686,267.489974 186.457621,252.903884 206.114931,242.478213 C220.286379,234.962085 237.839578,235.671741 252.126616,228.377728 C310.163038,198.748183 241.031681,218.513626 282.927162,202.575128 C301.849912,195.376256 321.071327,198.590992 340.793878,193.021888 C355.576899,188.847572 368.919265,180.645044 383.183863,174.945582 C390.199667,172.142397 406.727731,162.893797 408.22993,174.382206" id="Path-3729" stroke="#CFCFCF" stroke-width="4" stroke-linecap="round" stroke-linejoin="round"></path>
                <path d="M523.88288,176.853011 C580.034728,179.936223 633.135931,157.595709 687.945885,150.334119 C709.601115,147.465089 809.750654,151.718512 813.160123,152.161065 C828.876687,154.201096 843.276067,162.133914 858.640625,166.020104 C875.742772,170.345785 892.891922,167.668305 904.571828,182.905273" id="Path-3730" stroke="#CFCFCF" stroke-width="4" stroke-linecap="round" stroke-linejoin="round"></path>
                <path d="M1010.93713,203.210938 C1044.36239,216.646422 1073.03785,216.389379 1109.86587,226.067888 C1132.34365,231.975112 1153.32377,242.816619 1175.78886,248.771922 C1242.02246,266.329881 1182.5065,235.636019 1228.70592,268.361294 C1251.78704,284.710764 1274.60238,291.856513 1281.44592,325.382947" id="Path-3731" stroke="#CFCFCF" stroke-width="4" stroke-linecap="round" stroke-linejoin="round"></path>
                <path d="M1299.8522,384.481041 C1298.1761,407.087617 1306.30384,429.505776 1317.99289,448.98754 C1327.03414,464.056277 1347.86475,468.311883 1350.556,483.788052 C1354.90949,508.82296 1380.31283,537.731867 1383,563 C1385.57996,587.259997 1415.33775,675.835248 1415,700" id="Path-3732" stroke="#CFCFCF" stroke-width="4" stroke-linecap="round" stroke-linejoin="round"></path>
                <path d="M81.2548155,197.005758 C116.946482,157.558419 150.65716,162.494246 194.968144,140.619915" id="Path-3733" stroke="#CFCFCF" stroke-width="4" stroke-linecap="round" stroke-linejoin="round"></path>
                <path d="M240.979829,129.384597 C253.155676,124.279243 307.773071,98.4419311 332.391534,94.7450498 C356.385606,91.1419315 350.719308,97.4546936 366.017006,93.2319841 C524.123327,49.5890081 46.7260103,177.903022 406.724912,74.9947131 C415.710502,72.4261169 425.437823,74.2742409 434.684436,72.9182718 C491.730544,64.5527485 429.604562,67.6458267 489.283574,66.471646" id="Path-3734" stroke="#CFCFCF" stroke-width="4" stroke-linecap="round" stroke-linejoin="round"></path>
                <path d="M974.832806,91.0831088 C1007.15983,99.8690845 1039.23512,109.640139 1071.81388,117.441036 C1078.34849,119.005731 1085.25406,118.139819 1091.90224,119.115066 C1099.76215,120.268065 1107.35486,123.095716 1115.26623,123.815228 C1119.92277,124.238723 1152.66098,121.947525 1163.8453,127.477169 C1175.76624,133.371008 1186.16906,142.050933 1198.09048,147.943797 C1250.48552,173.843121 1236.06306,159.377873 1274.63712,195.726091 C1282.90191,203.513975 1292.71199,206.125829 1299.67514,214.760136" id="Path-3735" stroke="#CFCFCF" stroke-width="4" stroke-linecap="round" stroke-linejoin="round"></path>
                <path d="M1365.33254,279.4276 C1387.70547,321.004708 1388.05945,323.17907 1427.45676,378.742659 C1438.50576,394.325504 1458.37239,392.866414 1471.16666,405.342033 C1478.982,412.962729 1483.80655,428.364292 1486.92507,436.802532 C1498.68491,468.62285 1485.23724,489.63798 1489.75,527.594525 C1490.88681,537.156151 1499.62435,544.217874 1503.20663,553.155678 C1507.18311,563.077022 1508.17187,574.047902 1512.31721,583.899886 C1515.1924,590.733165 1521.46861,595.835991 1524.08371,602.772966 C1531.69062,622.951437 1505.89127,646.613172 1514.17635,666.563173 C1516.29064,671.654246 1522.35122,674.016875 1525.85432,678.273336 C1542.23337,698.174764 1549.93691,705.384476 1545,730" id="Path-3736" stroke="#CFCFCF" stroke-width="4" stroke-linecap="round" stroke-linejoin="round"></path>
                <path d="M1459.18097,61.6827856 C1466.8572,82.6179675 1489.97552,92.0676359 1501.65948,111.13911 C1511.086,126.525799 1496.33936,148.42342 1507.9371,164.579304 C1515.69252,175.382765 1533.91174,181.480176 1543.06758,187.27529 C1552.22343,193.070403 1563.85368,216.240669 1574.65686,234.743703 C1580.10986,244.083283 1590.14488,244.379957 1598.10937,250.832099 C1607.30443,258.281132 1614.66168,276.518955 1615.36476,287.065194" id="Path-3739" stroke="#CFCFCF" stroke-width="4" stroke-linecap="round" stroke-linejoin="round"></path>
                <path d="M1646.95979,323.073107 C1646.38364,367.256908 1644.01738,321.100917 1671.65174,393.873316 C1684.0311,426.473165 1681.55422,453.114446 1688.02182,487.610958 C1689.08938,493.305065 1693.23313,498.104429 1694.39601,503.779836 C1696.51207,514.107158 1691.60317,538.895447 1691.29745,546.073242 C1689.88048,579.341383 1688.14813,612.658486 1689.08419,645.943629 C1689.44752,658.863382 1722.59664,666.294368 1712,716.5" id="Path-3740" stroke="#CFCFCF" stroke-width="4" stroke-linecap="round" stroke-linejoin="round"></path>
                <path d="M1844.82961,735 C1853.94157,705.212691 1860.51699,710.188756 1865.09503,682.096242 C1868.31694,662.325407 1869.91308,630.532915 1868.54772,611.85136 C1867.55676,598.292616 1863.67312,585.075393 1862.26206,571.553913 C1860.18787,551.678212 1861.33222,531.468269 1858.10112,511.747575 C1855.49018,495.811886 1847.02363,481.15484 1844.82961,465.156418 C1841.47184,440.672193 1844.16272,415.663951 1841.55398,391.088631 C1840.95159,385.413876 1836.23818,380.786202 1835.27637,375.1612 C1827.53598,329.892702 1837.05068,348.511369 1828.1054,312.167767 C1813.28251,251.944148 1832.68986,344.697488 1806.68908,271.065497 C1804.55919,265.033825 1809.41145,251.785814 1804.29876,244.546606 C1786.75644,219.707926 1748.85517,239.240533 1738.55284,187.999798 C1728.5,138 1671.30431,89.1848483 1655.5,69" id="Path-3741" stroke="#CFCFCF" stroke-width="4" stroke-linecap="round" stroke-linejoin="round"></path>
                <path d="M1841.5,69 C1928.35598,104 1908.5089,178.28726 1935.60564,228.780139 C1935.825,229.188903 1978.83892,295.580205 1979.31553,304.755354 C1981.04689,338.085254 1981.4253,371.496342 1980.90908,404.867188 C1980.6771,419.86332 1974.29979,426.905087 1976.74815,441.736092 C1979.63797,459.241266 1982.73373,476.905672 1988.78829,493.582738 C1991.15151,500.092147 1997.67197,504.241242 2001.52862,509.993063 C2010.02771,522.668628 2010.40569,538.101658 2011.79011,552.994713 C2013.567,572.109903 2014.1493,591.31952 2014.9772,610.499259 C2015.21195,615.937476 2015.35985,621.399287 2014.9772,626.829102 C2013.32979,650.206044 1971.07046,736.404915 1970.5,738" id="Path-3742" stroke="#CFCFCF" stroke-width="4" stroke-linecap="round" stroke-linejoin="round"></path>
                <path d="M277.558594,329.09375 C278.789731,316.759993 276.161368,324.978525 283.1875,326.734375 C284.904313,327.163411 287.237098,323.700121 288.253906,325.148438 C289.381841,326.75504 285.563854,328.581051 285.847656,330.523438 C286.069566,332.042224 288.962846,331.929631 289.457031,333.382812 C291.132341,338.309161 279.121714,342.483597 276.144531,330.484375" id="Path-3830" stroke="#CFCFCF" stroke-width="4" stroke-linecap="round" stroke-linejoin="round"></path>
                <path d="M410.617187,154.066406 C402.20942,152.991535 399.359387,145.785015 411.734375,147.417969 C413.178428,147.60852 414.248179,151.061431 415.253906,150.007812 C417.582192,147.568656 412.867158,142.576713 417.660156,141.269531 C425.81276,139.046094 418.139487,146.111855 423.414062,148.769531 C424.218392,149.174805 431.425198,143.14227 432.648437,148.230469 C434.024871,153.955895 427.286224,149.018451 426.421875,152.132812 C425.60038,155.092766 429.49905,158.096619 428.699219,161.0625 C425.664174,172.316851 423.72843,151.141101 419.335937,155.765625 C419.046784,156.070053 417.533208,165.229439 413.324219,161.601562 C411.833587,160.316734 411.748698,157.994792 410.960937,156.191406" id="Path-3831" stroke="#CFCFCF" stroke-width="4" stroke-linecap="round" stroke-linejoin="round"></path>
                <path d="M820.222656,183.132812 C829.784156,158.675143 824.856165,178.237451 826.148437,183.289062 C826.407646,184.302331 828.336613,183.807831 829.285156,183.367187 C831.146111,182.502685 832.1696,178.994208 834.136719,179.578125 C835.829491,180.080606 835.149609,183.295947 834.351562,184.871094 C833.469431,186.612204 830.314844,186.547744 829.671875,188.390625 C829.127781,189.95011 831.369668,191.343419 831.519531,192.988281 C831.607395,193.952656 829.233694,198.202188 827.179687,195.695312 C826.159183,194.449807 828.188212,190.884037 826.578125,190.902344 C818.445148,190.994816 822.864625,201.573722 814.941406,192.988281 C811.660709,189.433384 820.903647,187.743363 821.339844,184.523437" id="Path-3832" stroke="#CFCFCF" stroke-width="4" stroke-linecap="round" stroke-linejoin="round"></path>
                <path d="M1194.09375,295.074219 C1191.22587,308.335114 1195.71208,295.635944 1186.83594,304.277344 C1186.33679,304.763288 1187.31772,306.174047 1187.99609,306.015625 L1194.56641,306.941406 C1196.23002,306.552899 1197.39062,302.225077 1198.43359,303.578125 C1200.38586,306.110792 1198.3031,310.102525 1199.33594,313.128906 C1199.63016,313.991025 1201.53718,314.71076 1201.95703,313.902344 C1203.28738,311.340804 1202.66684,308.158543 1203.37109,305.359375 L1206.72266,303.890625 C1208.19156,298.052291 1202.91543,295.184161 1200.19531,299.984375 C1199.32665,301.517312 1199.31073,306.606909 1198.5625,305.011719 C1194.68545,296.745992 1199.7619,282.678171 1191.90625,304.351562" id="Path-3833" stroke="#CFCFCF" stroke-width="4" stroke-linecap="round" stroke-linejoin="round"></path>
                <path d="M1389.90234,235.238281 C1402.1455,228.01722 1397.03337,239.170846 1395.44141,239.917969 C1393.80977,240.683709 1390.28249,238.783906 1390.07422,240.574219 C1389.35198,246.782536 1403.58756,238.573201 1394.06641,249.347656 C1393.03123,250.519095 1390.85994,250.179193 1389.38672,249.65625 C1372.82764,243.778347 1391.95896,249.06995 1386.76562,244.398438 C1380.90483,239.126529 1378.80767,243.332745 1382.85547,236.515625 C1383.62742,235.215544 1382.68529,233.136054 1383.75781,232.070313 C1388.21924,227.637102 1398.16078,238.515225 1391.48828,240.84375" id="Path-3834" stroke="#CFCFCF" stroke-width="4" stroke-linecap="round" stroke-linejoin="round"></path>
                <path d="M125.003906,408.179688 C121.226817,378.791103 123.249716,402.556563 128.570312,401.183594 C131.006632,400.554906 130.564441,395.837487 132.949219,395.035156 C134.418389,394.540871 134.718278,397.584934 135.699219,398.785156 L134.238281,401.570313 C135.458463,403.063255 138.166133,402.384104 139.648437,403.617188 C140.478058,404.307324 141.411492,406.231912 140.464844,406.75 C130.627662,412.13376 117.983762,414.837226 126.421875,404.507813" id="Path-3835" stroke="#CFCFCF" stroke-width="4" stroke-linecap="round" stroke-linejoin="round"></path>
                <path d="M570.148084,585.135288 C570.443185,590.17884 568.851584,604.822724 571.033388,600.265945 L575.194319,601.223683 C576.867993,597.728153 576.96296,593.417876 576.123889,589.634244 C570.925586,566.193485 571.520306,593.822748 571.520306,582.028674" id="Path-3652" stroke="#CFCFCF" stroke-width="4" stroke-linecap="round" stroke-linejoin="round"></path>
                <path d="M861.296538,623.481041 C844.277232,608.932539 825.097891,596.584197 810.238618,579.835533 C799.631897,567.880144 813.748015,549.752194 802.093817,538.499865 C800.152638,536.625624 797.896318,534.801402 795.285022,534.121633 C773.182867,528.368025 750.339032,525.619268 728.3882,519.312904 C689.418133,508.116999 676.622793,492.593793 632.992625,501.075633 C627.046243,502.231628 623.089302,508.133843 617.684907,510.870319 C610.563932,514.475973 602.935199,516.976237 595.560345,520.029196" id="Path-3713" stroke="#CFCFCF" stroke-width="4" stroke-linecap="round" stroke-linejoin="round"></path>
                <path d="M393.887998,522.733398 C429.052493,499.535074 487.444916,450.146493 534.852606,464.995454" id="Path-3715" stroke="#CFCFCF" stroke-width="4" stroke-linecap="round" stroke-linejoin="round"></path>
                <path d="M493.207031,654.871094 C541.529279,655.908203 498.798554,650.665941 510.859375,633.261719 C518.759745,621.861185 524.056716,632.073318 532.765625,628.390625" id="Path-3838" stroke="#CFCFCF" stroke-width="4" stroke-linecap="round" stroke-linejoin="round"></path>
                <path d="M545.003906,607.171875 C547.645777,612.612737 548.844475,620.800092 554.925781,615.636719" id="Path-3839" stroke="#CFCFCF" stroke-width="4" stroke-linecap="round" stroke-linejoin="round"></path>
                <path d="M598.175781,596.078125 C599.867092,616.081715 609.712843,609.906508 617.847656,597.390625" id="Path-3840" stroke="#CFCFCF" stroke-width="4" stroke-linecap="round" stroke-linejoin="round"></path>
                <path d="M630,597.3125 C626.805543,620.815959 631.232307,613.900032 645.804688,602.453125" id="Path-3841" stroke="#CFCFCF" stroke-width="4" stroke-linecap="round" stroke-linejoin="round"></path>
                <path d="M667.96875,609.566406 C627.25295,632.039719 664.289872,612.970083 670.546875,615.714844 C673.848187,617.163031 658.429368,632.348746 673.464844,627.964844 C676.969574,626.942967 680.19401,625.13151 683.558594,623.714844" id="Path-3842" stroke="#CFCFCF" stroke-width="4" stroke-linecap="round" stroke-linejoin="round"></path>
                <path d="M687.722656,633.378906 C671.189064,648.6392 701.299183,638.79508 702.5,641.457031" id="Path-3843" stroke="#CFCFCF" stroke-width="4" stroke-linecap="round" stroke-linejoin="round"></path>
                <path d="M522.542969,712.039062 C534.331172,660.153374 599.173673,647.299924 643.1875,665.230469 C656.339519,670.588396 672.244814,685.65335 678.964844,697.503906 C682.299771,703.384943 688.577751,710.916732 685.234375,716.792969 L685.363281,719.617188 C685.039434,720.186374 684.074219,719.848958 683.429688,719.964844" id="Path-3846" stroke="#CFCFCF" stroke-width="4" stroke-linecap="round" stroke-linejoin="round"></path>
                <path d="M445.219558,700.969322 C445.062551,696.547869 441.964165,663.377968 446.281923,653.187029 C468.82889,599.970818 485.830716,583.104861 538.393824,568.84971" id="Path-3709" stroke="#CFCFCF" stroke-width="4" stroke-linecap="round" stroke-linejoin="round"></path>
                <path d="M597.596545,567.095198 C643.312139,566.413777 676.601285,567.299122 717.498956,590.274077 C723.768645,593.79618 728.485546,599.610483 734.488753,603.56974 C750.981069,614.446815 753.156371,609.671158 766.255085,626.032328 C783.193827,647.189948 778.456048,674.244652 786.254916,698.506567" id="Path-3710" stroke="#CFCFCF" stroke-width="4" stroke-linecap="round" stroke-linejoin="round"></path>
                <path d="M343.007139,672.695919 C339.197008,655.559442 340.244537,641.475344 348.584557,625.549434 C350.887114,621.152523 354.458092,617.524479 357.791723,613.84732 C359.583927,611.87043 362.707583,611.055204 363.892275,608.664265 C384.074799,567.931984 356.366744,609.751289 374.161806,584.141332" id="Path-3714" stroke="#CFCFCF" stroke-width="4" stroke-linecap="round" stroke-linejoin="round"></path>
                <path d="M323.53849,508.479997 C309.999744,520.088878 297.187766,534.400394 292.037749,552.045023 C288.893474,562.817721 290.102515,574.547796 286.999562,585.332469 C256.815552,690.240512 298.770654,500.232796 272.392039,626.901536" id="Path-3719" stroke="#CFCFCF" stroke-width="4" stroke-linecap="round" stroke-linejoin="round"></path>
                <path d="M208.062601,518.51613 C213.821353,502.391624 221.440649,490.658406 231.692181,476.858533" id="Path-3720" stroke="#CFCFCF" stroke-width="4" stroke-linecap="round" stroke-linejoin="round"></path>
                <path d="M333.265625,495.1875 C333.809896,496.914062 333.372193,501.340751 334.898438,500.367188 L338.417969,502.84375 C340.539083,501.490731 339.238676,496.632497 341.683594,496.039062 C344.765645,495.290982 351.367554,502.952344 350.359375,499.945312 L352.421875,493.835938 C348.224638,481.317111 345.340044,491.12293 341.898438,490.472656 C334.850403,489.140967 333.579702,484.180077 333.007812,494.300781 L333.265625,495.1875 Z" id="Path-3836" stroke="#CFCFCF" stroke-width="4" stroke-linecap="round" stroke-linejoin="round"></path>
                <path d="M485.691406,709.101562 C471.417998,685.423842 478.796127,692.45919 496.515625,689.773438 C499.798342,689.275874 479.020232,672.964937 482.210937,671.453125 C486.723903,669.314803 491.919271,669.106771 496.773437,667.933594" id="Path-3837" stroke="#CFCFCF" stroke-width="4" stroke-linecap="round" stroke-linejoin="round"></path>
                <path d="M707.09375,658 C692.750206,677.772556 709.30927,658.668863 721.097656,673.152344" id="Path-3844" stroke="#CFCFCF" stroke-width="4" stroke-linecap="round" stroke-linejoin="round"></path>
                <path d="M722.683594,685.097656 C719.153717,690.69853 717.522291,698.839312 724.316406,699.050781" id="Path-3845" stroke="#CFCFCF" stroke-width="4" stroke-linecap="round" stroke-linejoin="round"></path>
                <path d="M543.15625,693.832031 C542.441406,698.290365 543.001382,711.260299 541.011719,707.207031 C530.102339,684.982856 568.918425,674.989342 579.191406,672.457031 C603.281581,666.518755 623.826112,669.595214 643.1875,686.21875 C651.400289,693.270186 656.951385,702.946118 664.316406,710.878906 C666.002523,712.695005 668.045019,714.224655 670.246094,715.363281 C671.663107,716.096309 673.460158,716.997428 674.925781,716.367188 C676.547308,715.669907 677.465479,713.728542 677.976563,712.039062 C678.656599,709.791078 679.478386,707.070891 678.363281,705.003906 C675.656956,699.9874 670.917969,696.371094 667.195313,692.054688" id="Path-3847" stroke="#CFCFCF" stroke-width="4" stroke-linecap="round" stroke-linejoin="round"></path>
                <path d="M397.694807,687.351731 C389.869774,657.619507 393.246681,676.549253 394.15359,629.774751" id="Path-3711" stroke="#CFCFCF" stroke-width="4" stroke-linecap="round" stroke-linejoin="round"></path>
                <path d="M413.356647,582.306338 C424.404704,563.554962 439.515143,541.67141 461.855233,534.998889 C510.817779,520.374792 481.241305,533.02041 501.846848,523.852101" id="Path-3712" stroke="#CFCFCF" stroke-width="4" stroke-linecap="round" stroke-linejoin="round"></path>
            </g>
        </g>
    </g>
</svg>