<svg xmlns="http://www.w3.org/2000/svg" viewBox="0 0 1583.2 995.2">
  <defs>
    <style>
      .cls-1 {
        fill: #46545e;
      }

      .cls-2, .cls-5 {
        fill: #31383f;
      }

      .cls-2, .cls-3 {
        opacity: 0.1;
      }

      .cls-10, .cls-3 {
        fill: #817f82;
      }

      .cls-4 {
        fill: #f7f7f1;
      }

      .cls-6 {
        fill: #222528;
      }

      .cls-7 {
        fill: #70c1db;
      }

      .cls-8 {
        fill: #8bdef2;
      }

      .cls-9 {
        fill: #1b1d1e;
      }

      .cls-11 {
        fill: #494949;
      }

      .cls-12 {
        fill: #d9f1ff;
      }

      .cls-13 {
        fill: #9cdeff;
      }

      .cls-14 {
        fill: #fff;
      }

      .cls-15 {
        fill: #d0d0d0;
      }
    </style>
  </defs>
  <title>home-</title>
  <g id="scene-ready-to-take-off">
    <polygon class="cls-1" points="-77.5 -23.2 1625 -23.2 1612.7 590 -77.5 701.4 -77.5 -23.2"/>
    <path class="cls-2" d="M-156.3,514.9s270.4-427,613.1-318.7c84.3,26.6,379.1-27.1,522,40.8s386.6,232.2,394,284.7c13.3,95-940.3,132.3-985.3,129.2S-156.3,514.9-156.3,514.9Z"/>
    <path class="cls-3" d="M-59.9,562.4S42.6,317.1,401,301.7C659.8,290.5,864.8,460.4,996.9,587c69.3,66.5-559.1,90-604.1,86.9S-59.9,562.4-59.9,562.4Z"/>
    <path class="cls-4" d="M94.7,558.9s157.2-166,308.4-159.1S763.6,519,773.8,592,430.6,664.8,396,662.4,94.7,558.9,94.7,558.9Z"/>
    <path class="cls-5" d="M-77.5,475.4S163.3,581.9,220.8,598s180.9,9.9,250.2,8.2,188.7,10.7,232.7-9,200.1-96.3,255.7-111.8,434.3-61.6,483-65.7,129.5-66.7,162.2-43.1,16.3,633.3,16.3,633.3H-77.5Z"/>
    <path class="cls-6" d="M-95.4,736.6S38.8,650.4,155.3,688s570.1,5.3,623.8-20.1c134-63.4,374.8-40.9,409.3-24.7s241.3-15.8,344.2,7.1,75.2-15.6,85-15.2,24.6,420.5,24.6,420.5L-97.1,1088.3Z"/>
    <path class="cls-5" d="M401,616.2S647.1,720.8,653.4,745.5s-16.8,40.5-44.8,41.7-131.2-90.4-137.3-76.5,45.2,92.5,80.6,140.9,114.4,174.6,121.7,174.6,110.9-7.6,110.9-7.6S637,889.8,641.9,869.9s48.6-84.8,112.6-84.1,485.6,249.1,496.6,253.3c155.5,58.8,547-5,384.5-72.6L426.9,609.4"/>
    <path class="cls-6" d="M899.8,809.1s116.2,76.3,105.6,109C990.1,965,988.9,960,1016,947.9c4.5-2,41.2-37.3,89.4-27.8,88.8,17.4,135.4-6.8,143.4-45.2,7.3-35.6,57.9-20.6,56.1-23.1-6.3-8.5-314.2-66.4-342.3-61.2S874.9,783.5,899.8,809.1Z"/>
    <path class="cls-7" d="M1251.1,814.7s-89,31-90.9,37.1-19.7,18.1-19.7,26.5-25.8,22.3-36.3,17.3-48.4-13.4-66.5-9.3-81.6,27.6-94.6,27.9-18.4-5.4-17.6-8.8,66.9-61.2,65.6-63.9-90.1-60.7-94.7-63-20.8-23-21.4-29.4,48.8-15.4,54.4-11.7,41.9,17.2,69.1,23.7,87.6,40.8,107.9,40.2,135.2-5.4,141.3-.1S1251.1,814.7,1251.1,814.7Z"/>
    <path class="cls-8" d="M881.6,750.5s68.2,17,85.6,30.2,39.8,14.5,37.9,8.1-41.4-26.2-66.7-33.3S898.6,739,891.8,740,874.4,740.3,881.6,750.5Z"/>
    <path class="cls-8" d="M1064.2,822.7s61.6,43,69.2,48.7,9-4,2-11-36.9-43.6-51.1-43.3S1064.2,822.7,1064.2,822.7Z"/>
    <path class="cls-9" d="M768.9,914.3S810.6,968.8,840,967s262,102,229.9,66.1-180-124.6-187.6-126S739.5,851.8,768.9,914.3Z"/>
    <path class="cls-9" d="M504,730.3s15.7,23.8,26.8,23,98.7,44.4,86.6,28.7-67.8-54.1-70.7-54.8S492.9,703.2,504,730.3Z"/>
    <path class="cls-9" d="M706.7,664.1s10.9,15.5,18.6,15S794,708,785.6,697.8s-47.2-35.3-49.2-35.7S699,646.5,706.7,664.1Z"/>
    <path class="cls-9" d="M1242.9,795.8s38.5,45.4,65.6,43.9,242,84.9,212.3,55S1354.6,791,1347.6,789.8,1215.7,743.8,1242.9,795.8Z"/>
    <path class="cls-10" d="M1145,893.1s-9.1-25.7,2.1-26.7,16.3-11.3,21.9-8.4,13.6,19.4,16.3,16.6,43-3.1,46.2.7,23.3,16.5,23.3,16.5-49.5-1.8-53.2,6.7-21.8,26-14.6,38-26.8-24.1-26.8-24.1Z"/>
    <path class="cls-11" d="M1095.6,805s-18,12.1-26.8,12.1-40.3-3.1-43.2-9.3-16.7-25.3-14.5-30.5,2.6-3.5,6.8-5,43.9,6.7,47.7,12.8S1095.6,805,1095.6,805Z"/>
    <polygon class="cls-12" points="1185.3 937 1192.8 941.3 1197.8 946.7 1201.8 953.2 1207.7 957.8 1213.6 962.3 1219.7 965.5 1224.3 971 1230.3 974.5 1235.5 979.1 1241.3 982.9 1248 985.1 1254 988.5 1259.3 993.2 1265.9 995.5 1260.9 988.9 1260.1 980.6 1258.4 973 1259.6 965.4 1266.6 963.6 1273.1 966.9 1279.6 969.2 1285.9 972.3 1291.9 976 1298.9 977.3 1304.9 980.8 1312.5 980.9 1317.5 986.8 1324.9 987.4 1330.4 991.6 1325.2 987.2 1319 983.9 1314 979 1309.4 973.5 1301.7 972 1297.9 965.6 1293.8 960 1288.8 955.5 1290.8 953.5 1298.1 951.5 1304.7 954.6 1311.9 955.6 1318.7 957.8 1325.5 960 1330.9 965.6 1338.1 966.9 1344.6 969.8 1350.8 973.3 1356.9 977.2 1364.1 978.5 1371.3 979.8 1376.8 984.9 1383.8 987.4 1376.6 984.5 1371.2 979.7 1365.9 974.7 1360 970.5 1355.2 964.8 1349.5 960.4 1343.1 956.9 1336.6 953.5 1332.6 947 1326.3 943.3 1321.5 937.8 1315 932.3 1323.1 932.2 1330.1 930.8 1337.2 931.5 1344.2 931.9 1350.5 934.7 1344 931.2 1338.1 926.5 1330.5 925.6 1323.9 922.4 1317.2 919.5 1311 915.1 1303.9 913.2 1296.9 911 1289.9 908.8 1282.9 907 1283.2 904 1290.4 904.4 1297.7 903.6 1304.9 903.6 1301.8 900.5 1294.8 898 1287.8 895.4 1280.6 893.6 1272.9 893.6 1266.5 888.4 1259 888 1251.8 885.9 1244 887.3 1237 883.9 1229.7 882.4 1221.7 882.2 1214.5 885.3 1208.3 889.7 1203.4 895.6 1197.9 900.6 1193.5 906.7 1187.8 911.4 1186.5 917.8 1184.9 924.4 1186.4 930.3 1185.3 937"/>
    <polygon class="cls-13" points="1192.3 916.9 1192.8 923.6 1195.2 929.9 1196.9 936.3 1200 942.1 1203 948 1208.2 952 1213.8 956.8 1220.8 958.7 1227.4 962.1 1234.3 959 1230.7 952 1227.7 945 1225.2 937.7 1227.4 931 1233.8 930.5 1240.2 931.4 1246.6 930.7 1253 929.5 1260.3 928.8 1267.5 927.4 1274.6 926.6 1273.6 921.9 1268.4 917.2 1266 911.4 1272.9 910.4 1280.1 911.5 1287.6 911.5 1294.8 913.1 1297 909.6 1290 906.9 1283.2 904.3 1276.9 900.4 1269.5 899.9 1262.9 896.6 1255.7 895.4 1248.6 893.6 1241.7 891.3 1234.5 890.2 1227.4 889.7 1220.4 892.4 1213.6 895.8 1207.7 900.6 1200.7 904 1195.8 910 1192.3 916.9"/>
    <g>
      <path d="M1089.7,802.2a12.9,12.9,0,0,1,11-4.9l-1.6,4.1c3.9.9,4.3-2.6,6.2-4.7.8.4,1.6,1.2,2.5,1.1,10.6-.2,21.2-.4,31.8-.8,6.6-.3,13.1-1.1,19.7-1.2,4.6-.1,9.2.6,13.8.9s7.1,2,10.2-1.3c.4-.4,1.7-.8,1.9-.5,4.3,4.3,9.3,1.5,14,1.6,10.9.2,21.8.1,32.7.5,4,.2,8,1.7,12,2.7,1.3.3,2.5,1.3,3.8,1.5,8.8,1.2,9.3,1.6,9.9,10.1l8.4,1.6c-4.5,3.6-9.3,5.7-8.8,11.8-7.8-1.4-14.9-.9-20.4,5.6-.8.9-3.2.1-4.7.7l-57.7,23.6c-.4.1-.7.7-1.2,1.1l14.8,16a62.7,62.7,0,0,1,6.8-1.4c3.2-.3,7.4-1.4,9.5.1,4.5,3.4,8.9,1.7,13.4,1.8l17,.5c1.9,5.1,4.3,8.3,9.3,9.1,2.6.4,5,2.2,7.3,3.7,4.9,3.3,5,4.3.9,11.7l-6.3-5.1c-2.8,3.4-5.5,1.6-7.7-1.2s-7.1-5.4-11.7-4.1c-15.1,4.4-28.7,11.2-36.9,25.4a30.9,30.9,0,0,0-3.6,11.5c-.9,7.2.4,8.6,7.3,10.4a13,13,0,0,0,6,.4c-2.1-1.9-4.3-3.8-6.4-5.5,1.5-5.7,5.7-3.6,8.4-4.2,2.4,2.3,5,4.1,6.8,6.5,3.4,4.6,2.6,7.8-2.2,10.8s-7.6,4-12.4,2.3-7.5-1.4-11-2.8c-5.7-2.3-5.7-2.9-3.2-8.4a27.3,27.3,0,0,1,1.3-2.5c-3.6-2.7-7-5-10.1-7.6s-4.7-4.9-8.8-5.6-6.4-5.7-5.1-10.7.6-6.9-3.8-8.9c-1,.4-2.7.5-3.5,1.3-4.8,5.5-11.9,6.2-18,6.5-16,.9-32.1-.1-46.9-7.6-4.8-2.4-9.6-5-14.5-7.2a25.9,25.9,0,0,0-18.4-1.5c-14.5,4.2-29.2,8-43.9,13.6l22.3,11.3c1.2.6,3,.7,3.6,1.7,5,8,13.8,10.4,21.4,14.6,11,6,21.8,12.4,33,18.3,6.2,3.2,13.1,5.4,19.4,8.5,2.3,1.1,4.2,3.3,5.8,5.2s-.5,3-1.4,3.4a8.2,8.2,0,0,1-8.4-.3c-17.9-10.1-35.9-19.9-53.8-29.9l-23.6-13.4c-6.9-3.8-14-7.3-20.9-11.1a19.3,19.3,0,0,1-7.2-7.3c-8.6,3.3-17.2,6.8-25.8,9.9-6.1,2.1-12.1,4.6-18.9,4.8-10.1.4-19.4-2.4-28.4-6.2-5.8-2.5-6.1-11.4-1.1-15.9,7.1-6.4,14.1-12.9,21.8-20-3-2.6-5-4.9-7.5-6.2-15.5-8.6-30.8-17.7-47.4-24.3-5.9-2.4-12.6-4.3-15.8-11-.5-1.1-2.8-1.2-4.2-1.9l-5.4-3.2,8,1.7c11.5,1.9,20.3,9.4,30.4,14.1,11.9,5.4,23.6,11.4,35.4,17.1l13.3,6.2,24.5-21.3c-4.4-5-12.6-3-14.7-10.1-9.3-3.8-15.4-11.4-22.2-18.3-.9-1-2.3-1.5-3.3-2.4-7.5-6.2-15.2-12-22-19s-11.9-12.2-20.6-15.3c-6.1-2.1-11.2-7.4-16.1-11.9-2.2-2.1-3.2-5.6-4.3-8.7s-2.1-7.9-3.2-12l-11-3.9c.6,6.6.4,12.5,1.8,17.9,3.7,14.2,1.1,28.3.8,42.5-.3,8.1-.4,16.1,3.4,23.6-.5,1.2-1.8,2.7-1.4,3.6,2.6,6,.2,12.8,3.9,19,2.1,3.6.3,9.4,1,14.1,2,12.9,1.3,26.2,6,38.7,2.3,6.3.6,12.3-2.9,18.6l-19.6-13.7c-2.5,2.9-4.7,4.7-6.1,6.9-2.4,3.9-4.6,7.6-2.9,12.8s1.8,8.9-2.1,13V929.7l-1.6-.4c-1.3,2.5-2.4,5.2-3.9,7.6s-2.4,3.7-4.2,4.5-6.1-1-5.8-4.4.9-4.8,1.2-7.3-.9-6.9-3.7-10.2c-4.5-5.3-7.5-11.9-11.1-17.9l-2.3-3.7c-7.2,4.5-5.6,16.4-16.7,17.6-4-1.3-4.4-4.9-3.9-9.5,1.9-16.3,3.5-32.6,5-48.9,1.3-14.4,2.4-28.9,3.7-43.3,1-12.4,2.2-24.8,3.1-37.2,1.2-17.7,1.5-35.5,3.5-53.2,1-8.5.9-17.2,3.1-25.9s.7-19.3.8-29.1a37.3,37.3,0,0,1,.4-4.7c.4-1.8,1.6-3.6,1.7-5.4.7-15,1.1-30,1.8-45,.5-11,1.4-21.9,1.8-32.8s1-24.1,1.3-36.2q.3-11.8.3-23.7c0-3.5-.3-7-.5-10.7l5.6-1.6c-4.6-4.9-3.6-10.2-2.9-15.5.1-.5-.3-1.4,0-1.6,9.4-7.2,3.4-17.3,4.6-25.9s1-16.3,1-24.5c0-4.6-1.3-9.2-1.3-13.8-.2-7.8.5-15.7.2-23.6-.2-4.8-1.6-9.5-2.7-16.1l7.1-10.7c2.3,2.8,4.1,5.8,3.9,9.8-.8,10.6-1.9,21.2-2.2,31.8-.6,17.4-1.4,34.9-.9,52.3.2,6.4,3.9,12.7,5.4,19.2.8,3.1.4,6.4.3,9.6-.2,11.2-.9,22.4-.5,33.5.3,8.9,1.9,17.8,3,26.7,2.5,19.3,5.1,38.4,7.5,57.7,1,7.4,1.2,14.9,2.3,22.3,1.4,10.5,3.2,21,5.1,31.4,1.6,8.3,3.4,16.5,5.4,24.7.5,2.1,2.1,4,3.2,6l.6.9c-4.6,4.5-2,9.7-1.8,14.7.2,7.8.5,15.7.8,23.2l15.4,2.3c6.2-5.3,15.6-6.8,25-7.3,6.5-.2,13.1.6,19.7.8,3.4.1,6.8,0,10.4,1.2l8.5-4.8-25.7-12.5.3-.9c7.7,2.5,15.4,4.7,23,7.4,4.8,1.8,9.5,4,14.9,3.3a8.3,8.3,0,0,1,5.6.9c7.1,4.7,15.4,6.4,23.3,9.3a32.1,32.1,0,0,1,2.7,2.5l-8.7-1c2.5,11.5,5.3,13.4,15.9,14.9,5.7.8,11,4.1,16.6,6.3a119,119,0,0,1,11.1,4.7c3.5,1.9,6.6,4.3,10,6.6l-11.2,12.3c19,29.1,48.8,33.9,74.2,15.6ZM1164,886c6.5-.1,9.8-5,13.8-8.9-7.2-.6-9.9,1.1-13.6,9.1-2,1.9-4.5,3.7-3.9,7.6C1165.6,892.6,1165.6,889.6,1164,886Zm-341.5.6c2.6-.1,3.1-1.7,2.8-3.9s-1-6.7-1.8-11.6c-2,4.7-6.3,6.7-4.7,11.6-3.4,2-5.4,5.1-4.4,8.8,1.8,7,4,14,10.6,20.4,0-7.6.2-14-.1-20.3C824.8,889.9,823.3,888.3,822.5,886.6Zm171.4-11.9c4.1-2.6,8-5.5,12.2-7.8,6.7-3.8,13.6-7.3,20.2-10.8-8.2-3.6-15.7-7.2-23.5-10.2-3.2-1.3-6.3-1.6-9.9.9-10.1,7.1-20.2,14.2-29.2,22.7-2.9,2.8-3.5,5.3-.9,8.5-3.7-1.5-6.5-.9-9.5,2.3-6.5,6.9-13.6,13.3-20.3,20.1-1,1-1.1,3-1.8,5.3,7.4-2,13.8-2.9,19.5-5.4a70.2,70.2,0,0,1,21.4-5.4c1.3-.1,3.1-.2,3.6-1.1,3.1-4.5,7.8-5,12.6-6,10.1-2.4,20.1-5.1,30-8s19-7.4,29-9.6c2.8-.6,5.5-2.3,10.1-4.3-8.3-3-14.7-5.2-21-7.6-4.3-1.7-7.8-.7-11.6,1.7s-11,6-16.6,8.8S998.7,872.8,993.9,874.7ZM962.5,766.9c-8.4,7.7-13.2,18-16.1,29.4-1.7,6.5-1.6,7.4,4.1,10.4s11.7,5.1,16.6,8.9c11.1,8.5,24.6,11.4,37.1,16.2,14.5,5.6,29.4,10,44,15.1a103.9,103.9,0,0,1,11.9,5.1c10.9,5,21.6,10.2,32.6,15,5.6,2.5,11.6,5.1,18.1,2.2.3-.1.9.4,1.9.8l-.3,3.5,23.4,11.8c.4-6.2-1.3-12.8,3.7-17.2s9.9-7.3,14.1-10.3c-11.1-25.6-31.6-39.8-56.5-48.7-2.2,1.6-4.3,3.5-6.7,4.6-23.2,11-46.1,7.8-68.6-2-7-3-12-8-14.5-16.5s-2.1-13.1.8-19.5a12.2,12.2,0,0,0,.9-2.7C994.8,762.5,979.1,764.8,962.5,766.9Zm193.1,75.2c5.2-1.5,10.1-2.7,14.9-4.3,8-2.5,16-5.3,24-7.8,4.9-1.6,10.2-2.3,14.7-4.6a90.3,90.3,0,0,1,30.9-8.7c5.5-.7,6.6-2.4,5.9-9.5-14-3.4-28.5-3.9-43-3.5-2.9.1-5.8,1.4-8.6,1.4-12.6-.3-25.1-1.1-37.7-1.2-14.4-.1-28.8.4-43.1.7-.5,0-1,1-1.3,1.3,9.4,5.7,18.8,11.1,28,16.8,6.5,3.9,13,8.1,14.2,16.6A23.3,23.3,0,0,0,1155.6,842.1ZM967.2,751.9c-7.5-2.3-15.3-4.4-22.8-7.2s-21,1.9-23.8,10.2a62.3,62.3,0,0,0-2.1,28.4c.5,4,3.7,7.7,6.2,11.2s4.5,4.3,7.2,6.8a56.5,56.5,0,0,0,2.5-5.5c2.2-5.8,3.4-12.1,6.4-17.3C947.2,767.2,956.6,758.7,967.2,751.9ZM917,743.6c-13.1,1.1-25.5-2.6-35.4,6.9-.3,15.7,12,20.4,23.9,28C905.1,765,907.3,753.7,917,743.6Zm263.9,165.7,20.5-18.5c6.7-6.1,15.6-7.9,23.5-12-6.4-.1-13.1-.5-18.4,1.9-14,6.3-26.3,14.9-32.1,30.1-1.8,4.8-.6,8.4,3.4,11.5C1181.6,915.2,1181.8,914.1,1180.9,909.3Zm-365.6-72c-4.8,9.6-8.9,17.6-13.2,26.1,4,2.1,5.6,6.3,5.6,11.6a9.5,9.5,0,0,0,3.1,7.3c1.7-2.3,3.1-4.1,4.3-6.1,3.2-5.4,6.8-10.8,5.5-17.5S817.4,845.6,815.3,837.3Zm18-252.8-2,.2c0,12.3.2,24.7-.1,37s-.2,24.3,2.3,37.2c5.2-8.4,4.9-8.4,2.9-16-1.6-5.9-2.3-12-3.8-19.9l5.8,6.3C836.6,613.6,835,599.1,833.3,584.5ZM1152,893.1c-.7-6.7,3.7-11.4,7.2-15.7s9.2-7.3,14.7-11.5c-2-.9-3.8-2.2-5.6-2.3-8.8-.4-15.6,3.8-21.1,10.2-2.6,3-1.7,6.2-.3,9.2S1150.3,889.7,1152,893.1ZM818.6,786.4c-5.6,9.6-12.7,19.2-2.2,30.1C825.6,804.2,825.6,796.8,818.6,786.4Zm-2.3-50.9-5,16.1,9.1,16.7C826.3,755.7,819.7,746,816.3,735.5Zm28.8,109c-4.4,9.5-3,17.2,2.4,25.3l8.2-10.2Zm-44.2,2.2,2,.6c2.4-4.7,5.1-9.2,7.2-14.1,3.1-7.1,2.1-9.8-4.9-15.9-5,4.2,1.3,9.5-1.6,14.5S801.7,841.6,800.9,846.7Zm40.4-73.5c-6.1,11.2-5.6,13.7,3.3,21.7C850.1,786.5,849.4,780.9,841.3,773.2ZM846.4,882l-6.6,13.4,10.7,7.4c1.6-3.6,2.9-6.5,4.3-9.3ZM842,734.3c-4.4,2.8-8.3,5-7.8,10.6,2.7,2.8,4.5,6.8,8.3,9C846.5,747.1,847.4,740.9,842,734.3Zm-8.9,127.9c-.5.6-1.8,1.6-1.8,2.6.3,8.7.9,17.4,1.4,26.1l1.8.2c2.3-3.8,4.1-7.9,4-12.6a23.4,23.4,0,0,0-1.3-7.9C836.3,867.8,834.6,865.2,833.1,862.2Zm8.4-205.8c-8.2,10.5-3.8,20.7-.8,30.9C841.7,677.1,845.3,667.1,841.5,656.4Zm16.6,193.4c-.2-7.9-.3-15.8-4.3-23.6C847.1,834.6,847.6,837.2,858.1,849.8ZM828.2,712.7c-8.1,10.6-8.3,15.9-1.4,27.3C830.2,731.3,828,722.8,828.2,712.7Zm-19.7,51.2c-.5,9-1,17-1.4,24.9C817.1,780.1,817.6,773.9,808.5,763.9Zm51.2,104.9-1.7-.6-7.1,8.7a70.6,70.6,0,0,0,3.9,7c1.4,2.1,3.1,4.1,4.9,6.3Zm-25.4,53.6c3.7-5.5,6.7-9.7,9.6-13.9l-11.8-7C832.8,908.4,833.5,914.7,834.3,922.4Zm5-86.7c-4.7-9.1-4.7-9.1-8-10.5l1.2,26.3,1.3.3C835.5,846.8,837.2,841.7,839.3,835.7Zm-7.6-48c-.3,8.8-2.6,16.1,6,20.2C842.9,798.8,841.3,801.8,831.7,787.7Zm20.2-36.1c-6,6.3-6.5,7.7-3.6,11.7s4.6,7.2,4.1,11.9c-.2,1.3,1,2.7,1.6,4l1.8-.4C854.6,770.3,853.4,761.8,851.9,751.6ZM847.5,692c-2.1,2.3-3.5,4.1-2.5,6.8s.7,5-2,7.1-2.6,4-3.6,6.2-.1,4.6,3.1,5.8C845.3,709.5,853,702.6,847.5,692Zm-46,184.8-1.6.4-1.5,21.1,1.2.4c2.5-3.1,5.1-6.1,7.2-8.6C804.8,885.1,803.2,880.9,801.5,876.8Zm38.3-56.7c1.4,2.4,3,4.9,4.6,7.7,6.3-7.2,6.2-8.8.1-18.7C842.9,812.8,841.4,816.2,839.8,820.1ZM827.5,671.6c-6.4,11.9-6.1,16.5,1.6,23.7C828.4,687.3,829.5,679.7,827.5,671.6Zm-9.3,1c6.1-7.4,6.2-10.8,1.5-20.3C815.3,658.9,818.3,665.8,818.2,672.6Zm5.3-44.3c2.5-6.3,2.5-6.6,1.5-18.1l-7.2-1.8C819.7,614.9,821.5,621.3,823.5,628.3Zm1.9,74.2-5.2-8.1c-4.9,6.1-3.7,11.9-1.7,19.1C821.1,709.4,823,706.2,825.4,702.5Zm-2.1,116.8c-6,9.3-2.3,17.6,2.2,25.8C824.7,836.5,824,827.9,823.3,819.3Zm350.6,76.3c-5.3,2.2-10.6,11.9-10.1,15.9.2,1,1.4,1.8,2.2,2.7C1168.8,907.6,1171.4,901.6,1173.9,895.6ZM819,600.6l1.5.4c1.5-4,3.3-7.9,4.5-12,.4-1.2-.3-3.6-1.2-4.1s-3.7.9-3.9,2.7C819.3,591.9,819.2,596.2,819,600.6ZM960.2,746c-7.9-8.9-8.8-9.2-15-5.4a61.4,61.4,0,0,0,6.9,3.2A74.4,74.4,0,0,0,960.2,746ZM851.3,718.2c-7,4.8-7.1,7.1,0,12.8Zm-4.6,82.4c2.5,3.3,4.4,5.5,6.4,8.1,2.7-5.1,2.9-8.9-2.1-11.7ZM823,552.3h-1.9v18.4C824.4,564.7,824.3,558.5,823,552.3Zm9.5,219.8c4.3-7.1,4.3-10.9,1.1-14.1C833.3,762.7,832.9,767.4,832.5,772.1ZM821.6,536.6c2.7-6,2.7-6.5,0-12.8Zm9.2,20.3-2,.2.9,16.1C834.3,567.7,829.5,562.4,830.8,556.9Zm27.1,344.2c-1.6,6.3,3.2,6.5,6.3,8.6C866.6,903.7,862.2,903.1,857.9,901.1ZM811.5,714c-.2,4-.4,8-.7,13.2C814.7,721.1,814.7,720.8,811.5,714Zm19.6,107.3c5.3-8,5.3-8,0-8.4Zm3.7-121h2.4c-.3-2.1-.6-4.3-.8-6.4l-1.6.2ZM1189,883c-.5-.6-.9-1.3-1.4-2l-5.9,3.6.9,1.7Zm-169.7-78-6.3-7.5C1011.8,803.3,1014.4,804.2,1019.3,805Z"/>
      <path d="M1318.6,300.8l-3,1-2.1.7c-2.7-6.5,3.1-9,5.9-12.2s6.6.6,6.6,4.6-1.1,9.2-1,13.7c.2,17.3.7,34.6,1.1,51.9.2,6,.3,12,.8,18,.3,4.3.9,8.4,4,12.1s2.2,6.7-2,11.2c-.3.4-1,1-.9,1.3,2.1,6.5-4,11.1-3.7,17.4,1,21,1.3,42.1,2,63.1,0,2.3,1.1,4.7,1.4,7.1s1.8,6.9,1.2,10.1c-.9,4.7-.9,8.3,2.3,12.2,1.3,1.6,1.6,5.6.5,7.4-4,6.9-2.8,14.6-3.2,21.7-.8,13.2.4,26.6,1,39.9.7,15,1.6,30,2.4,45,.3,7.7.3,15.3.8,22.9.8,10.7,2.1,21.3,3,31.9.7,8.4,1.1,16.8,1.7,25.3.8,10.3,1.7,20.7,2.6,31.1.4,4.6,1.1,9.2,1.7,14l7.8,4.3c-.3,1-.3,2.2-.8,2.5-7.3,4.7-7.1,11.9-6.1,19,1.6,10.8,3.6,21.5,5.7,32.2.7,3.2.6,5.8-2.5,9.1-5.9-3-13.2-3.6-17.3-11-3-5.4-7.5-9.9-11.4-15.1-16.4,9.1-23.8,25.7-37.2,36.9l-4.8-3.7c.6-2.3,1-4.7,1.7-7a98.3,98.3,0,0,0,4.7-26.5c.4-12.6,2.4-25.1,3.5-37.6.6-7.9.8-15.7,1.3-23.7-5.4-2.8-12.9.6-16.2-8.8-2.5,14.8-4.6,27.2-6.8,40.4,5.3-1.3,5.1-5,4.9-8.4a24.2,24.2,0,0,1,5.3-16.8,26.4,26.4,0,0,1,4-3.5c4.4,3,1.1,5.6.3,8.2s-1.8,5-3.3,8.9c4-2.1,7.6-4.3,8.3,1.7-3.9,4.7-7.7,9.7-11.9,14.3-6.7,7.4-6,6.8-2.7,16.7,1.4,4.4,4,8.3,5.9,12.6.9,2.2,1.4,4.6,2.3,7.5l-11.1,3.6c-.9-2.5-1.9-4.9-2.6-7.3a66.2,66.2,0,0,1-2.4-8.4,17.1,17.1,0,0,1,.4-5.5c.3-1.5.8-3,1.6-6-4.6,3.2-8.1,4.8-9,9.5-.2,1.2-2,2.1-3.2,3.2.3-5.8.5-10.7.9-15.6a27.4,27.4,0,0,1,.9-3.9c3.2-13.1,6.8-26.2,9.3-39.5,1.6-8.8,1.9-18,2.4-27s.1-19.8,1.3-29.5,3.5-18.8,5.8-28.1c4.4-18.6,9.6-36.9,13.6-55.6,2.5-11.7,3.4-23.7,5-35.6,1.2-8.4,2.8-16.7,3.9-25,.7-5.6.9-11.3,1.3-16.9,1.2-15,2.2-30,3.6-45,.8-7.7,2.3-15.5,3.4-23.2,1.7-11.1,3.3-22.2,5.1-33.2.4-2.5,1.8-4.9,2.8-7.3s1.9-2.4,1.7-3.4c-.9-5.6,2.4-8.9,5.2-13s3.1-7.6,3-11.5c-.2-16.1-1.1-32.1-1.6-48.1-.1-3.9.8-7.9.9-11.8C1318.7,314.1,1318.6,307.9,1318.6,300.8Zm-16.4,197.8-4.2,38.7c-.5,4.3-.9,8.7-1.5,13-1.7,12.7-3.6,25.3-5.5,38-1.3,8.4-2.5,16.7-4.2,25-1.2,5.9-3.2,11.6-4.7,17.4-.3,1-.6,2.5-.1,3.1,2.7,3.1,2,6.4,1,9.9-.3,1.1.8,2.6,1.2,3.9,2.1-4.3,4.2-8.6,3.9-12.6s1.5-7.7,4.9-10.5c1.5-1.3,3.2-3.3,3.4-5.2.9-8.1,1.2-16.4,1.8-24.6s-1.6-19,.2-28.5c.6-3.4,1-7,1.5-10.5l7.2-45.2a36.7,36.7,0,0,0,.4-8.1C1307.3,499.5,1305.6,498,1302.2,498.6Zm32.1,267c-2.2-3.5-3.9-7-6.3-9.9s-8.2-5.1-10.1-10.2c-.2-.6-3.5-1-4.2-.3-5.3,5.3-10.6,10.7-15.1,17.6,3.5,3.6,6.4,6.8,9.4,9.8l9.8,9.5c4.5-3.8,8.6-7.3,12.6-11C1331.8,769.9,1332.6,768.1,1334.3,765.6Zm-27.5-199,1.6,1.1c1.4-4,3.9-8,4.2-12.1.4-5.9,3.2-8.3,9.4-8.7.2-5.5.4-10.7.7-17.4-4.1,2.9-7.1,5.1-9.9-.2,2.2-2.3,4.8-4.7,7-7.3s2.6-3,2.7-4.6a114.1,114.1,0,0,0-.3-13.1q-.7-11.4-1.8-22.8c-.2-2.2-.8-4.5-1.2-7-1.2.6-2,.8-2.1,1.1C1313.6,505.9,1310.2,536.3,1306.8,566.6Zm14,129.3-15.9,21.9,8.4,12.5,17.3-18.1V699.3Zm-29.3,109.5c5.8-7.5,15-11.3,20.2-20.2l-19.3-18.5C1290.3,780.3,1290.7,792.6,1291.5,805.4Zm3.6-90,1.4.8,20.5-25.3q-3-6.1-6-12.6l-1.9-1.4c-.3,8.2-4.3,8.1-8.7,5.8-1.8,5.6-3.7,10.5-3.5,16.1S1295.8,709.8,1295.1,715.4Zm-21.4-35.9-1.9.5c-.4,4.6-1,9.2-1.1,13.8a80.7,80.7,0,0,0,.7,9.8c5.9.7-.5,3.4,1.2,5.3,9.6-.1,3.6,8.7,6.8,13.3l6.9,2.5c.8-8,1.5-15.2,2.4-23.5l-7.5,3.2c-6-3-3.6-6.7-1.8-9.2C1277.3,689.3,1275.5,684.4,1273.7,679.5Zm38.4-72c2.5,10.1,4.3,20.4,13.2,28.4,1.7-8.2-2.1-14.9-2.5-21.9s-.9-14.2-1.3-21.2l-2.2-1.2c-2.6,3.8-5.3,7.5-7.7,10.8l-5.3-2.3c-.3,2.4-.6,4.3-.8,6.4Zm-6.1-30.6V596l16.1-15.3v-31c-6.6,9.3-5.3,18.8-7,27.7Zm-1.1,36.4h-2.4c3.1,8.7,3.5,17.3,0,26.1,5.2.8,6.6,3.1,6.5,7.5s1.8,7.3,3.1,12.3c2.6-3.9,4.1-6.5,5.8-8.9s1.8-5.6.4-8.5C1313.8,632.2,1309.4,622.7,1304.9,613.3Zm4.9,125.8-7.8-15.6,1.7,2.5-9.9,8.1v21.4ZM1276.3,654c-1,5.6-1.9,11.3-3,17.9l6.1-1.7c1.5,6.1,3.2,12.7,4.9,19.8,7.6-4.6,6.6-11.4,7.2-17.5C1283,666.2,1283,666.2,1276.3,654ZM1309,486c3.4-13.8,4.1-26.4,3.2-40.6-1.8,2.1-3.5,3.2-3.7,4.5-2,10-3.8,20-5.7,30.3Zm13.7,195.8c3.6-1.5,4.9-3.8,4.5-7.2-.7-6.9-1.3-13.9-2-22.4-5.4,7.5-9.1,13.9-9.7,21.6Zm13.1,123,1.6-.6c-1-9.2-2.1-18.3-3.2-27.8-7,2.7-5,7.8-5.3,12.2a10.2,10.2,0,0,1-.9,2.7l-2.5-6.2c-3.1,1.8-3.5,3.6-1.8,5.7C1327.7,795.5,1331.7,800.2,1335.8,804.8Zm-17.1-68,15.1,14.2c-1-9.6-1.8-17.7-2.6-25.7l-1.7-.7Zm-18.3-61.3c8.2-8.2,8.8-16.3,1.4-21.6C1303.8,661.5,1296.8,667.8,1300.4,675.5Zm-5-34.7c-5.8,6-5,12.6-6.6,18.2-.3,1.1,1.6,2.8,3.6,6C1293.5,656.1,1294.3,649.3,1295.4,640.8Z"/>
      <path d="M632.3,966.5c-8.3-6.6-13.1-15-17.9-24.1-7.8-14.8-16.3-29.3-27-42.5-8.2-10.1-13.8-22.2-21.2-32.9-4-5.7-9.4-10.4-14.3-15.4a67.1,67.1,0,0,0-6.3-5.2c1.2-1.4,2-2.4,3.3-4.2l-9.3-3.2c-3.5-2.3,0-9.7-7.2-8.2l-7.4-8.4c-1.1-2.2-1.5-4.7-3-6.1-15.6-15.3-27.2-33.7-39-52-4.6-7.1-11-13-16.6-19.4-.5-.6-1.8-1-1.8-1.6-.5-6.9-6.7-10.4-9.5-17,.3-1,1.3-2.7,1.4-4.5.3-4.6,2-7.6,6.9-9,1.7-.5,2.9-2.9,4.4-4.5.6.4,2,2.4,3.5,2.4,9.8.2,16.8,5.5,21.2,13.1,3.3,5.7,8,7.7,13.9,10.4,1.6-7.7,3.3-15,4.8-22.4,1-4.8,1.9-9.6,2.8-14.4,2-10.7,3.9-21.3,5.9-32a62,62,0,0,1,2.1-9.5c3.5-9.8,5.2-20,6.9-30.3,2.1-12.3,6.1-24.4,8-36.8,1.3-8.6,4.6-16.9,3.6-25.8a16.7,16.7,0,0,0-.8-3c9-7.4,8.6-17.4,7.6-27.5-.2-2.7-1.2-5.3-1.7-8s-1-5.3,1.6-8.1,3.2-5.8.1-9.5-1.9-9.4.6-13.9,6.1-4.2,10.2-2.7a7.2,7.2,0,0,1,4.8,8.4,29.5,29.5,0,0,1-3.5,7.4,32.6,32.6,0,0,0-4.6,18.1c.2,9-.2,18,0,27.1.1,5,.8,10,1,15,0,1.7-.4,4.1-1.5,4.9-4.3,3.3-4.2,8.1-4.7,12.5a142.2,142.2,0,0,0-1.4,14.5,61.7,61.7,0,0,0,.4,12.9c.5,3.3-1.3,7.3,2.3,9.9-3.6,3-1,7.1-1.8,10.4-2.2,9.5-.2,19.1-1,28.6a167.6,167.6,0,0,0-.1,23.5c1,17.7,2.2,35.4,3.5,53,.4,4.5,1.4,9,2.1,13.4-8,2.1-12.7-.8-10.6-6.4,3.1-8.2-2.2-13.8-3.6-21.4L542,720l-9.1-5.6c.9,8.2,4.4,14.4,8.3,20.4-2.5,3.3-4.5,1.8-5.9-.4s-4.1-7.6-6.5-12.2l-16.1,18.4c1.6,1.6,2.8,2.9,4.2,4.1s4.8,3.7,6.9,5.8a96.7,96.7,0,0,0,19.1,15.2c6.4,3.9,11.4,10.2,18.4,13.6s12.6,6.5,19.2,9.1c9.4,3.7,19,1.6,28.1-1.2s17.8-2.7,25.3-8.5,16.3-10,21.9-18.2c4.4-6.3,4.2-11.2-2.4-15a299.7,299.7,0,0,0-29.9-15.2c-18.3-7.8-36.9-14.7-55.3-22.2-3.5-1.4-6.7-3.3-10.4-5.2,5-4,7.5-4.2,12.8-1.7,9.1,4.2,18.1,8.5,27.4,12.3,11.1,4.5,22.4,8.3,33.4,12.9,6.9,2.9,13.9,5.6,20.9,8.1,4.9,1.8,8.8,6.2,13.7,9.9l2.6-3.6v13.9c.1,4.3-.4,8.2-4.3,10.9-1.7,1.3-3,3.3-4.6,4.7-8.5,7.7-16.7,15.7-28.6,18.5-8.7,2-17,5.9-25.8,7.9a48.9,48.9,0,0,1-35.7-5.1c-9.5-5.3-18.8-11.1-27.8-17.3a224.8,224.8,0,0,1-24.9-20c-10.1-9.4-21.4-17.5-32.3-26.1-1.1-.8-3-.7-4-1.6s.6-2.6.1-3.1c-4.3-4.6-9.1-4.4-15.5,1,4.3,5.9,8.4,11.9,12.8,17.7,8.5,11.1,17,22.2,25.8,32.9,6,7.2,12.8,13.6,18.9,20.6s11.7,14.4,17.7,21.5c3.5,4.1,7.4,8,10.9,12.2a61.6,61.6,0,0,1,6.8,10.1c2.8,5.9,5.5,11.5,10.5,16.3s8.1,10.9,11.9,16.5c7.6,11.4,14.8,23.1,22.7,34.2s12.5,19.8,18,30.2c4.5,8.3,7.4,17.5,13.8,24.8C636.9,963.7,635.4,965.6,632.3,966.5ZM533,668.7c-3.6,6.3-13.4,9.3-8.3,19.8l16.1-14.6Zm-12.3,37.6-1.9.9c-1.1,6.7-2.2,13.4-3.2,20.1a32.4,32.4,0,0,0,9.8-7.9,5.2,5.2,0,0,0,.7-4.5C524.6,711.9,522.5,709.2,520.7,706.3Zm14.1-52.2c4.6-2.9,7.7-6.6,7.6-11.3s-5-3.7-7.7-5.7C532.4,642.9,531.1,648.1,534.8,654.1Zm0,42.1,4.4,9.7c2.8-5.6,2.8-11.3.3-17.7C537.8,691.1,536.4,693.6,534.8,696.2Zm-22,100.7-1.5,1.1c4.7,7.8,12.7,16.6,18.7,18.9Zm27.5-192.4-2.1,13.4C545.1,614.3,542.2,609.3,540.3,604.5ZM531.7,699c-5,5.4-5,5.4,1.1,12.8C532.4,706.9,532.1,703,531.7,699Zm7.8-65.8c.2-3.6,1.8-6.6-1.5-9.3-3.6,5.2-4.1,6.3-2.5,8.4S537.7,632.8,539.5,633.2Zm1.9,22.2c-4.5,6.4-4.4,7.1.8,12.5C541.9,663.8,541.7,660.1,541.4,655.4Zm.6,27.3c-4.9-1.4-6.8,0-7.9,5.9ZM500.1,782.8l-1.4,1.1,8,9.7,1.6-1.4C505.6,789.1,502.9,785.9,500.1,782.8Z"/>
      <path d="M728,785.4l-9.5,5.3c1.1.6,1.9,1.6,2.6,1.4,11.2-1.9,22.4-3.6,33.4-6.3a73,73,0,0,1,22.8-1.6c1.7.2,3.5-1.1,5.9-1.9l11.3,7.3c-.6,1.6-1.2,3.5-2,5.8-1.1,0-2.4.4-3.2,0-9-5.4-18.8-3.8-28.1-2.7a264.1,264.1,0,0,0-36.4,6.4c-19.6,5-37.9,13.3-51.5,28.7-9.6,11-18.4,23.1-21,38.2-.3,2-.7,4.4,0,6.2,5.4,13.5,12.7,25.9,25.1,34.4a13.4,13.4,0,0,1,4.1,4.1c5.8,10.4,16.1,16.4,24.2,24.6s18.2,16.8,27.5,25.3l-2.8,7.1,2.9,2.3c-1,.6-2.1,1.8-2.7,1.6a29.1,29.1,0,0,1-9.5-5.3l2.5-.4c-2.7-7.4-9.6-10.7-14.7-15.7-9.9-9.5-20-18.7-29.7-28.4A213.2,213.2,0,0,1,647.7,883c-2.7-4.4-4.2-9.4-5.8-13.1,1.1-5.6,2-10.5,3.1-15.4a15.4,15.4,0,0,1,1.9-4.4c6.3-12.5,13.3-24.6,23.5-34.3a69.2,69.2,0,0,1,23.8-14.2c6.8-2.4,13.2-6.1,19.8-9.2a2.5,2.5,0,0,0,1.3-.9c2.4-6.2,7.9-5.3,12.8-6Z"/>
      <path d="M521.9,639.3c-3.3,2.3-5.9,2.9-8.1-.6a4.8,4.8,0,0,0-2-1.5c-8.9-1.9-16.2-7.9-25.7-8-2.9-.1-5.8-2-8.7-2.4s-5.5-2.5-9.2-2-5-2.9-7.8-3.9c-5.9-2.3-11.9-4.2-18.2-6.3-6.5,5.3-13.6,4.7-20.8,1.1a7.2,7.2,0,0,0-3.8-1c-5,.3-10,.9-16.6,1.5,4.6,2.8,7.7,5.1,11.2,6.7,10,4.5,19.9,9.1,30.2,12.9s18.1,5.4,27.2,8a9.4,9.4,0,0,1,3.4,1.4,70.6,70.6,0,0,0,21.3,12.3c1.8.6,3.1,2.4,4,4.6-3.4-.9-6.9-1.4-10-2.7a156.9,156.9,0,0,1-16.1-7.5c-2.7-1.5-4.4-4.4-7.2-5.8s-5.9-1.1-8.9-1.7c-13-2.9-24.9-8.3-36.7-14-5.7-2.7-11.8-4.5-16.5-8.8-1.3-1.2-3.4-1.6-5.7-2.6v-5.2l-13.8-7.7c2.7-2.6,4.8-1.9,6.8-.4,7.3,5.5,15.8,6,24.6,5,2.3-.3,4.6,0,7.8,0l-8.5-3.8.4-.9,12.4,3.4,1,1-2.9.4c2.5,2.2,4.8,3.3,7,1.8s1.1-2.9,1.8-4.9a27.5,27.5,0,0,1,3.1.5c3.1.7,6.3,2.2,9.2-.8.6-.6,2.1-.4,3.2-.4,7.3-.4,14.5-1.1,21.7-.8,5.2.1,10.3,1.5,15.4,2.3,3.2.6,6.5.9,9.6,1.6s3.7,1.2,4.6,2.5c3.7,5.5,9.9,6.7,15.8,7.9,3.6.7,3.2,4.4,6,5.1-.4,1.3-.9,2.6-1.2,3.4l-13.8-.9c1.5,4.2,5.2,3.9,8,4.7S521.2,635.5,521.9,639.3Zm-78.6-31c22.2,13.8,44,20.3,68.7,17.2-.6-1.3-.7-2-1.1-2.2s-3.6-1.3-5.3-2.1a39.2,39.2,0,0,1-6.4-3.4C482.7,605.5,464.3,604.5,443.3,608.3Z"/>
      <path d="M735.9,680.3c-8.3-11.9-2.9-25.5-4.7-38.1s-3.4-25.1-6.1-37.6c-6.3,16.8-1.9,34.8-7.2,52.2l6.9-1.2a40.7,40.7,0,0,1,.6,5.9,3,3,0,0,1-1.2,1.7c-7.2-4-8.3,9-16.8,4.6,1-10.6,2.1-21.9,3.2-33.2s2.3-22.2,3.5-34.6c-20.1,6-40.2,8.4-57.9,19.9-2.7-7.3,1.2-10,6.2-11.4,13.7-3.9,27.5-7.7,41.3-11.3s15.5-6.9,11.2-19.8c1.3-1.3,3.6-2.3,3.8-3.7,1.9-14.8,6-29.4,3-44.6-.3-1.4-.7-3.3-.1-4.3,7.3-12.5,4.8-26.2,5-39.5.1-4.1-1.6-8.2-2.5-12.2-.4-2.2-1-4.5-1.2-6.7-1.2-12.8,2.7-16.2,15.8-13.3,4.2,9,6.8,18-1.1,27a7.3,7.3,0,0,0-1.9,5.2c1.4,15.6-2.4,31.4,1.5,47.1,1.3,5.1-1.2,11.1-1.8,16.6-3,29.6-.3,58.9,3.4,88.3.9,6.6,4.9,13.4,1.4,20.8-1,2.1,1,5.8,2.2,8.5C746.1,675,745.7,676,735.9,680.3Z"/>
      <path d="M800.2,725.6l-17.1-5.3c-16.7-5.3-33.3-11-50-16.2-21.2-6.5-42.5-12.5-63.7-18.9-5.5-1.6-10.7-4.1-16.1-6.1-18.5-6.6-36.9-13.5-55.6-19.5-9.9-3.2-20.2-4.9-30.3-7.3-1.7-.5-3.5-1.3-5.2-1.9-.2-3.6.8-5,4.3-5.7,7.2-1.6,12.9,2.9,19.4,3.9,11.2,1.9,21.1,8.6,32.7,9.6a2.3,2.3,0,0,1,1.4.4c8.5,7.9,20.2,8.6,30.3,12.8,14.1,5.7,28.7,10.3,43.2,14.8s26.7,7.7,40.1,11.5c2.9.8,5.8,1.5,8.6,2.5,8.4,3.1,16.6,6.4,25.7,7.3,6.5.7,12.8,4.2,19.1,6.7,3.2,1.3,6.9.1,9.9,3S801.1,721.3,800.2,725.6Z"/>
      <path d="M42.6,728.9c1.5-1.2,2.9-2.8,4.6-3.6,13.9-6.7,28.9-8.5,44-7.4s27.6,2.9,41.3,4.8c5.7.8,11.3,2.5,16.9,3.8,12.3,2.9,24.4,6.4,36.8,8.5,15.1,2.5,30.3,3.2,45.4-1.7,20.7-6.7,41.7-12.9,62.7-18.8,7.8-2.2,16.1-3,24.1-4.2s17.8-2.6,26.8-2.9,16.3.6,24.5,1.3c3.6.3,7.2,1.4,12.4,2.5l-5.8,7.2c-9.9-8.5-21.5-5.4-32.1-6.3-8.3-.7-16.9,1.3-25.3,2.1-16.3,1.4-31.6,6.5-47,11.4-13.8,4.5-27.4,9.6-41.4,13.1-9.4,2.3-19.4,2.8-29.2,3.1-4.4.2-8.9-2.3-13.4-3.2s-8.6-1.4-12.9-2.3a92.4,92.4,0,0,1-11.8-2.9c-7.7-2.7-16-2.7-23.7-6.5-3.9-1.9-9.8-.9-14.9-1.6-13.4-1.8-27-2.8-40.6-3.3-11-.3-21.7,2.5-31.8,7.1a55.1,55.1,0,0,1-8.2,2.3Z"/>
      <path d="M1151.6,638.7c-4.8-1.9-9.5-3.8-14.3-5.5s-10-2.8-15.9-1.5c-12.5,2.6-25.5,5.5-38.1,4.8-21.2-1.2-42.7-1.6-63.4-7.6s-40.4-6.8-60.9-1.9c-7.7,1.8-15.9,1.7-23.4,3.8-11.1,3.2-22.3,6.8-32,14.1.3,1.6.6,3.1,1.1,5.4l-12.5-3.2c1.7-2.5,2.5-4.5,4-5.5a55.9,55.9,0,0,1,9.5-4.7c15-5.7,29.8-12,46.1-13.3a158.2,158.2,0,0,0,21.7-3.5c8-1.7,15.7-.9,23.6-.2,10.8.9,20.8,4.3,31.2,6.5,13,2.7,26.3,3.7,39.6,5.4s26.3.1,39.4-2.3c5.9-1.1,11.8-1.2,17.5-3.7,2.1-1,5.3.3,7.9,1.1,7.3,2,14.4,4.8,19.8,10.4Z"/>
      <path d="M633.6,481.5l10.5,12.3c.6-3.7,1-6.6,1.6-10.4l6.6,3.8c-1.2,2.1-2.1,3.7-3.1,5.7a13,13,0,0,0,2,1.5c5.7,2.6,8.9,7.3,10.8,12.8s3.7,7.4,7.6,9.2c5.9,2.5,9.6,7,12.4,12.6a14,14,0,0,0,3.5,4.2c3.9,3.3,8.1,6.3,12,9.7a9.2,9.2,0,0,1,2.5,5,5.6,5.6,0,0,1-1.5,4.2c-.5.6-2.5.1-3.7-.3a8.5,8.5,0,0,1-3.4-2.1c-6.4-7.4-12.7-14.8-19.1-22.1-1.9-2.3-4.1-4.3-6.1-6.4s-7.1-6.3-9-10.3c-3.3-6.9-7.6-11.6-15-14.2-3.6-1.2-7-4.2-9.7-7.2a52.7,52.7,0,0,0-17.9-12.7c-5.7-2.6-10.6-6.6-16.2-9.4-10.7-5.4-21.5-10.7-32.5-15.4-5.4-2.4-11.5-3.3-18.9-5.3,5.5-.8,13.9.7,21.2,3.3s13,4.2,19.2,6.9,12.2,6.7,18.7,9.1,10.6,8.6,18.3,9.1c-.7-4.8-5.6-8.2-2.9-13.1,3.7-.9,6.5,1.1,7.2,4,1.6,6.6,6.4,9.1,12,11.1a21.7,21.7,0,0,1,3.4,2.2C642.4,485.2,638.4,483,633.6,481.5Z"/>
      <path d="M1563.1,368.9c-.5,6.3-4.1,7.5-8.7,8.7-15.3,4.1-30.6,8.5-45.6,13.3-3.1,1-5.9,4-7.8,6.8a36.9,36.9,0,0,1-25.4,16.5c-11,1.8-22.2,3.3-33.2,5.5-3.1.6-6,2.9-10.1,5l-4-3.2c.6-1.2.7-1.9,1.1-2.1,7.3-4,15.1-6.6,23.3-6.6,6.3,0,11.6-2.8,17.3-4.5,2.3-.7,4-3.4,5.9-5.1-.2,1.7-.4,3.9-.6,6.2,10.2,2.4,13.8-6.7,21-11.7l-4.2-6.3c21.6-8.2,43.2-18.6,66.7-23.6C1560,367.5,1561.3,368.4,1563.1,368.9Z"/>
      <path d="M-36.6,491.2c1.4-5.8,2.8-7.2,6.9-6.2,11.3,2.8,22.6,5.9,33.9,9a18.8,18.8,0,0,1,5,2.7c6.5,4.5,13.3,8.6,19.3,13.7,8.4,7.2,18,10.9,28.6,12.8,2.4.4,5.1,1,6.7,2.6a19.3,19.3,0,0,0,15.9,5.7c1.6,3.2.7,5.1-2.2,4.8s-8.8-.9-12.6-2.6c-6.3-2.7-12.2-5.1-19.2-6.1s-12.9-5.6-18.9-9.3C17.7,512.7,9.2,506.2,0,500.9c-4.6-2.6-10.2-3.7-15.4-5C-22.4,494.1-29.6,492.7-36.6,491.2Z"/>
      <path d="M.4,723.9c1.1-3.5,1.1-5.7,2.2-6.4,5.4-3.6,10.8-8.1,16.8-9.8A328.2,328.2,0,0,1,60,699.4c10.3-1.4,20.9-1.3,31.4-1.3,4.8.1,9.8-2.4,14.3.9,12.3-.4,23.4,5.5,35.4,6.2s20.9,2.5,31.6.7c9.1-1.6,18.4-2.2,27.5-3.1,1.3-.1,2.6.4,5.1.8-2.1,1.4-3,2.5-4.2,2.6-6.4,1.1-12.8,2.2-19.3,2.7s-14.2.5-21.3.6-14.7.4-22-.5-15.2-3.2-22.8-4.7c-5.6-1.1-11.3-2.5-16.9-2.5-11.7-.1-23.5,0-35.2,1.4s-23.1,4.2-34.5,6.9c-7.8,1.8-15.1,4.8-21.3,10.2C6.3,721.6,4.2,722.1.4,723.9Z"/>
      <path d="M988.2,716.4c-3-3.4-2.1-5.4,1.2-7.3,10.2-5.8,21.1-9.3,32.7-9.5s25.5-2.6,38.3-.7c4.5.7,9.5-1,13.8.1,12.3,3.1,24.4,7.2,36.7,10.8,15.5,4.6,31.2,7.3,47.2,2.5a83.2,83.2,0,0,1,8.7-1.6c-1.8,2.6-2.4,4.3-3.5,4.7-8.5,3.3-17,6.4-26.5,3.9-5.8-1.5-12-1-17.8-2.3-7.6-1.6-15.6-3.1-22.5-6.5-14.3-6.9-29.3-7.9-44.7-8.7s-29.4,1.5-43.8,5.1c-5.2,1.4-9.9,4.5-14.8,6.8Z"/>
      <path d="M437.5,747.6c-1.4,3-3.4,4.5-5.9,2.6-5.3-4.1-11.7-3.4-17.4-3.9-19.6-1.8-39.4-1.5-58.8-4-13.2-1.6-25.6,1.5-38.3,2.3-4.5.3-9,2.2-13.4,3.6-21.8,6.5-43.8,12.2-66.5,14.6-3.2.3-6.5,1-9.7,1.3-.7.1-1.5-.5-2.5-.9.1-3.3,2.5-4.1,4.9-4,16.3.6,31.8-4.5,47.7-7.2,5.3-.9,10.4-3.3,15.7-4.7,7.4-2,14.7-4.2,22.3-5.5,9.9-1.7,20-2.7,30.1-3.7,16.5-1.4,32.8,1.8,49.1,3.1l8.1.7c8.2,1.1,16.3,1.9,24.4,3.4C430.6,745.9,434.7,742.2,437.5,747.6Z"/>
      <path d="M540.9,450.9c-3.4-1-6.9-1.8-10.2-3-16.2-5.8-32.7-11-50-12.4-3.8-.3-7.7.2-11.5-.1-6.6-.6-13.1-1.5-19.6-2.4a164.5,164.5,0,0,1-23.2-4.7c4.2-.8,8.5-2.2,12.8-2.2,7.8,0,15.7.5,23.5,1.2,9.7.8,19.4,1.9,29.1,3.1a62.3,62.3,0,0,1,9.5,2.2c10.5,3.1,20.7,6.7,31.2,9.3,4.8,1.3,8,3.2,9.4,7.9Z"/>
      <path d="M1121.2,460.3c-.8,3.5-3.6,3.1-6.3,3.8-15,3.6-30.4,2.8-45.5,4.5-6.8.8-13.5,2.1-20.9,3.3-1.7-7.8-7.6-7.3-13.8-6.1s-13.3,2.3-19.8,4a15,15,0,0,0-7.3,5.1c-4.6,6.1-11,8.4-18.1,9.6a3.1,3.1,0,0,1-2.2-.7c-.4-.2-.6-.9-.9-1.3,1.1-3.2,3.6-2.8,6.1-2.6s6.2-.7,7.3-4c2.2-7.5,8.9-9.5,14.8-11.6,12.4-4.6,25.4-3.2,37.9-.6,7.6,1.6,14.6,1.3,22,.5,2.7-.3,5.5.1,8.2,0s7.9.7,10.4-1.1c7.9-5.8,16.7-3,25.2-3.8.9-.1,2,.7,3,1.1Z"/>
      <path d="M557.9,624.9c.3-7.1.4-6.2,6.4-6.8s13.1-3.2,19.5-5c.8-.2,1.2-1.2,2-1.4,10.9-3.2,21.8-6.7,32.9-9.2s19.6.1,27.8,7.4l-3.5,4.4c-9.6-5.7-19.1-10-31.2-3.7l12.3,4.3-.2,1.3a14.2,14.2,0,0,1-4,.8c-7.4-.4-14.8-1.6-22.1-1.1-4.9.3-9.7,3-14.7,4.5C575.1,622.9,567.1,626.4,557.9,624.9Z"/>
      <path d="M513.8,567.9c-2.7-2.3-6-4.1-7.9-6.9s-6.5-6.5-10.3-9.1-6.9-3.2-7.4-7.9c-.2-1.2-2.2-2.6-3.6-3.1-9.3-3.3-18.6-6.4-28-9.2a10,10,0,0,0-6.4.3c-3.2,1.3-5.7.5-8.6-.6a13.4,13.4,0,0,0-7.7-.6c-11.3,2.1-22.5,4.6-33.7,6.9-1,.2-2-.1-4.2-.2,1.5-2,2.2-3.7,3.4-4.1,4.1-1.4,8.6-3.7,12.5-3.1,8.3,1.3,16.1-.4,23.4-2.6,9.3-2.8,17.9-1.4,26.5.5s18.8,4.6,26.8,9.2,12.3,11.3,18.4,17.2c1.7,1.6,3.3,3.7,5.4,4.5C519.1,561.9,519.1,561.7,513.8,567.9Z"/>
      <path d="M90.5,612.1c13.2.7,24.6,6.6,36.1,12.4s23.9,13.6,36.6,18.4c10.8,4.1,22.8,5.2,34.3,7.5,3.7.7,7.9-.1,10.2,4.6-1.5,3.1-4.1,3.7-7.4,2.9-11.3-3-22.6-6.1-34-9a87.6,87.6,0,0,1-26.7-11.4c-13.6-8.8-28.4-15.4-43.3-21.6-2.1-.9-3.8-2.6-5.7-3.9Z"/>
      <path d="M166.2,800.4c-1.6.4-3.3,1.3-4.9,1.1-14.2-1.4-28.3-3-42.4-4.6-7-.9-14-2.7-21-2.9a99.6,99.6,0,0,0-20.4,1.5C60.8,798.3,44.7,803,30.1,812c-5.2,3.3-5.9,3-10.6-.6.3-3.9,3.8-4.6,6.4-5.4,15.4-4.8,30.7-10.1,46.4-13.4a115,115,0,0,1,41.4-.9c15.9,2.7,32,3.8,48,5.6a36.9,36.9,0,0,1,4.5,1.1Z"/>
      <path d="M1457.3,652.1c-2.4-.5-5.1-.7-7.4-1.6-9.2-3.6-18.2-7.7-27.4-11.2-7.4-2.7-15-5.2-22.6-7.2-2.6-.7-6.9-1.8-7.1,3.7,0,.4-1.3.8-2,1.2l-16.8,7.9-2.7-3.7c-3.4-.8-7.4,2.6-11.1-2,4.2-2.2,8.4-2.6,12.6-2.6s4.9-.4,7.2-2.7a31.2,31.2,0,0,1,10.5-6.4c2.8-1,6.5-1.6,9.4-.7,12.8,3.8,25.5,8,38.1,12.4a160.4,160.4,0,0,1,17.1,7.4c1.4.7,2.1,2.6,3.1,3.9Z"/>
      <path d="M412.3,791.7c-1.3.1-2.7.5-3.8.1-4.8-1.7-9.5-3.8-14.3-5.6-13.3-5-26.8-5.3-40.5-2.1a53.4,53.4,0,0,1-8.9,1.5l-52.4,2.8a110.5,110.5,0,0,1-11.5.1,9.3,9.3,0,0,1-5.4-2.7c5.3-2.4,10.7-2.1,15.9-1.5,7.1.8,14,1.1,21.2-.2s12.6-.4,18.8-1.2c9.4-1.3,18.7-3.3,28.2-4.7,14.6-2.2,28.9-1.6,42.3,5.6,2.1,1.2,4.6,1.9,6.7,3a26.1,26.1,0,0,1,4.3,3.1Z"/>
      <path d="M296.4,617.6c-.6,4.4-3.5,5.9-5.9,4.6-7-3.6-14.5-1.2-21.6-2.4-2.7-.5-5.8-.1-7.9-1.4-9.5-5.8-20.8-6.5-30.6-11.3-3.1-1.5-7.2-2.6-3.9-8.6,2.8.9,6,1.3,8.7,2.7,6.7,3.5,13.4,6.4,21.1,6a6.1,6.1,0,0,1,4.4,1.5c4.9,5.1,11.2,5.5,17.6,5.4S290.5,615.6,296.4,617.6Z"/>
      <path d="M244.2,813.4c-11.4,7.8-24,13-37.9,13.3-25.5.5-51,0-76.4.2-8.5.1-16.9,1-25.3,1.5a13.8,13.8,0,0,1-5.7-.5,78.6,78.6,0,0,1,25.4-4.6c17.7-.2,35.5-.2,53.2.1,8.2.1,16.2.9,24.5.3a86.6,86.6,0,0,0,37.2-11.2,14.3,14.3,0,0,1,4.3-1.1Z"/>
      <path d="M1086.8,738.8l5.3-8.2c2,1.5,3.5,2.7,5,3.7s3.8,2.9,5.7,3c16.3,1.4,32.7,3,49,3.3,8.1.2,16.2-1.8,24.2-3.6s12.8-5.8,13.3-14.9c2.9,5.1,1.3,9.9-3.7,13.1-7.1,4.4-15,6.4-23.2,7.7-20.2,3-40.4,1.1-60.6-.3C1097.3,742.3,1092.9,740.4,1086.8,738.8Z"/>
      <path d="M1466.4,788.9c-10.4-3.8-20-7.7-29.8-10.7a105.5,105.5,0,0,0-18.5-3.3c-6.2-.7-11.8,2.1-17.2,4.6-2.5,1.1-4.5,2.2-6.9-1.6,7.1-5.4,14.8-9.5,24.1-8.6,15.3,1.4,29.8,6.6,44.2,11.6C1465.9,782.2,1468.6,784.3,1466.4,788.9Z"/>
      <path d="M406.1,907.1c11.6.6,23.3,1,34.9,1.8a79.8,79.8,0,0,1,13,1.8c12.1,2.9,24.2,6.3,36.3,9.2,3.6.9,7.5.9,11.2,1.7,1.4.2,3.4,1.3,3.6,2.2s-1.4,2.6-1.7,3.1c-32.6-7.5-64.2-16.2-97.3-17Z"/>
      <path d="M1482.4,722.2c1.7-.3,3.5-.9,5.2-.7,11.5,1.3,22.9.1,34.3-1.7a33.2,33.2,0,0,0,5.4-1.5c.6-.1,1-.6,1.5-.8,4.9-1.5,17.6,3.8,22,10.1-3.3,0-5.9.1-8.4,0-6.5-.5-13-1.6-19.5-1.6-9.4.1-18.7,1.3-28,1.5C1490.4,727.6,1485.7,727.2,1482.4,722.2Z"/>
      <path d="M347.7,839.6c12.6-5.4,24.2-5.4,36-4.4,3.5.3,7.1-.2,10.6.2,19.4,2.2,38.6,5.3,57.2,11.5a38.5,38.5,0,0,1,12.4,6.9c-1.6.1-3.2.6-4.5.2-12.1-3.4-24.1-7.1-36.1-10.5-16.5-4.6-33.3-5.7-50.4-5.1Z"/>
      <path d="M1503.7,701.4c-19.3-3.8-38.8-4.7-58.2-7.3s-38.4,2.1-59,3.1c3.3-5.3,7.7-5.2,10.9-5.4,12.2-1,24.2-2.8,36.7-.9s25.1.8,37.6,1a16.8,16.8,0,0,1,4,.6Z"/>
      <path d="M320.8,618.3c-.3,3.7-.5,6-.8,9.3-5.9-4.5-5.3-10.9-7.9-15.6-.5-1,1.1-3.2,1.9-5.5,5.5,3.9,9.4,9,16.7,8.5,3.2-8.5,10.9-8,18.3-7.7,3.4.1,6.2,4,5.9,7.7s-2.1,6.1-7.3,5.3c1.3-2.5,2.3-4.7,3.8-7.7h-9.2a22,22,0,0,0-.7,3.7c-.5,3.5-2.5,4.4-5.8,3.9S326,619,320.8,618.3Z"/>
      <path d="M263.8,500.1c-1.4,1.1-2.9,2.1-4.2,3.2s-6,4.4-7.6,7.3a17.6,17.6,0,0,1-10.2,8.8c-11.1,3.8-16.9,13.4-24,21.6-4.9,5.6-9.6,11.4-14.7,17.4-3.2-3.3-1.6-5.4-.1-7.1,6-6.7,12.1-13.2,18.1-19.7,1.5-1.7,3.8-3,4.3-4.9,1.8-5.9,6.4-7.8,11.5-9.4a21.4,21.4,0,0,0,12.3-9,24.3,24.3,0,0,1,13.3-9.8Z"/>
      <path class="cls-14" d="M1273.6,126.6c4.8,5.7,2,9.4-3.5,10.3a14.9,14.9,0,0,1-6.3.2c-3.1-.9-3.9-3.1-2.5-6a34.3,34.3,0,0,1,3.4-4.8c4.1,2.2,4.1,2.2,2.1,6.6,2.2.8,2.2.8,4.5-.3-.2-1.2-.8-2.6-.4-3.6S1272.6,127.5,1273.6,126.6Z"/>
      <path d="M597.7,599.2c24-6.9,48.6-9.3,73.4-9.2l.5,1.8c-1.5.8-3,2.2-4.6,2.3-6.8.3-13.3,4.1-20.6.7-2.7-1.3-6.9.5-10.4,1.1l-29.7,5.7a57.7,57.7,0,0,1-8.3.4Z"/>
      <path d="M747.6,577.5c-4.5-6.4-4.5-6.4,0-10,.6.1,1.3.1,1.6.5,6.6,7.2,6.5,7.2,15.5,3.2,4.9-2.3,10.2-4.1,15-6.6s7.5-1,11.2,1.2c-1.1,3.7-3.2,4.9-6.2,3.4a7.3,7.3,0,0,0-7,.3c-6.9,3.4-13.7,6.9-20.8,9.9s-12.8,4.5-19.2,6.8c-2.2.8-4.1.5-4.4-1.8s1.3-2.6,3.6-3S743.5,579.1,747.6,577.5Z"/>
      <path d="M1171.9,684.5c.6,1.5,1.4,3.2,2.6,5.8l-3.7,3.4c-10.2-6.9-19.3-13.9-29.2-19.5s-19.9-9.6-29.9-14.3l.7-1.9c6,2,12.3,3.5,18,6,7.7,3.4,15.6,6.3,22.1,12.2,3.4,3.1,8,5.1,12.3,7.2C1166.6,684.2,1168.9,684,1171.9,684.5Z"/>
      <path d="M388.5,419.9c-1.5.8-2.9,2.2-4.5,2.3-3.2.1-6.5-.6-9.8-.6s-8.3-.3-12.1.9c-12.8,4.1-26,6-39.2,7.9a29,29,0,0,1-4.1-.3c5.2-2.2,8.8-4.2,12.7-5.3s8.6-1.3,12.8-2.3a75,75,0,0,0,11.6-3.8c4.6-1.9,9.2-3.5,14.3-2.9l17.7,2Z"/>
      <path d="M215.4,575.5c.8,3.3,1.4,5.9,2.2,8.7,5.1-1.1,8.7-8.4,15.9-3.8-3.1,2.6-6.5,4.5-8.6,7.4s-2.7,6.6-4.1,10.2c-4.9-3.1-1-6.8-2.6-10.1-3.2,1.6-4,4.7-5.2,7.5s-3.6,5.6-7,6.2c-1.6.3-3.3-.7-5.3-1.2,3.1-4.5,6-8.1,8.1-12S209.3,579.5,215.4,575.5Z"/>
      <path class="cls-14" d="M1221.5,206.3c-.7,2-4.7,2-2,5.1,3.4-1,4.8-3.6,5.2-6.9,3.3.4,4.2,1.5,3.5,3.9s-7.7,7.5-11.4,6.9h-.4a3.7,3.7,0,0,1-2.6-4c.2-2.7.1-5.6,3.1-6.9S1220.6,204.2,1221.5,206.3Z"/>
      <path d="M684.2,525.1c-4.9-6.6-8.7-12.6-13.4-17.9s-10.3-9.6-16.8-15.7c3.3-.6,5.9-1.8,6.8-1.1,8.1,6.8,17.8,11.7,23.4,21.2C687.4,516.9,687.6,518.3,684.2,525.1Z"/>
      <path d="M1261.1,900.3c1.3,3.9.7,5.7-2,6.5-4.3,1.3-8.9,2-12.5-1.2s-5.1-2.6-8.2-2.6a99.9,99.9,0,0,1-14.5-.7c-1.8-.2-3.4-2.1-5-3.2,1.5-3.9,3.8-5,6.8-4.5Z"/>
      <path d="M1026.6,545.5c-1.1,5.3-1,9.8-3,12.9s-3.5,7-2.1,11.3c.2.6-1.8,2.7-2.5,2.5s-4.5-1.2-5.2-2.6c-1.9-4.1-2.9-8.6-4.7-14C1015.3,553.7,1017.8,544.9,1026.6,545.5Z"/>
      <path d="M641,508.8c4.8.5,8.8,1,11.4,6.4s6.5,7.1,9.8,10.7c1.1,1.2,2.6,2.7,2.7,4,0,5.4,3,9,6.4,12.6.3.2,0,1-.1,1.5-7.5.8-9.5-.5-11.1-6.9-.3-1.4-.1-3.1-.9-3.9-6.9-7-10.1-16.8-18-22.8C640.9,510.1,641,509.4,641,508.8Z"/>
      <path d="M974.6,661.4c-5.6.9-11.2,1.7-16.7,2.8a97.5,97.5,0,0,0-36.7,14.9,11.4,11.4,0,0,1-2.9,1.5c-2.3.5-5.2,1.7-6.4-1.5s1.7-3.8,3.9-4.9a48.4,48.4,0,0,1,14.6-4.9c6.1-1,12-3.4,17.8-5.8A44.1,44.1,0,0,1,974.6,661.4Z"/>
      <path d="M991.4,657.2l16.7,1.3c8.9.9,17.8,2.7,26.7,2.8,6.4.1,13-1.6,19.4-2.9s14.8-4,22.3-5.4c3.3-.6,7,.4,10.5,1.3-16.3.2-30.6,10-46.9,9.2s-30-2.1-45-3.3c-1.4-.1-2.7-1.2-4-1.9Z"/>
      <path d="M389.7,402.3c4.5-.9,8.9-2.3,13.4-2.5,10.3-.5,20.7-1,31-.4a20,20,0,0,1,13.7,6.5c-5.7,3.3-11,1.4-15.1-.7-7-3.3-13.8-2.5-20.9-2l-21.9,1.3C389.8,403.8,389.8,403,389.7,402.3Z"/>
      <path d="M1134.2,513l-7.5,1.7c-4.2.8-8.8,1.1-12.7,2.6-9.5,3.8-10.5,3.5-13.9-6.4,2-4.7,5.8-6.9,10.8-7.7,5.2,3.8-1.7,4.9-1.8,7.8C1116.7,513.3,1124.8,507.5,1134.2,513Z"/>
      <path class="cls-14" d="M1086.8,128.3c-1.2-4.4-7.3-7.9-2.4-12.8a60.3,60.3,0,0,1,7.6-1.9,5.3,5.3,0,0,1,3.8,1.4c.6.6.5,2.5,0,3.5-1.9,3.6-5.4,4.8-9.3,5.9C1086.6,125.8,1086.7,127,1086.8,128.3Z"/>
      <path d="M74.5,758.8c-28.2,3.6-56,8.6-83.8,16.5-.6-4.3,1.3-5.6,3.9-6,6.7-1,13.4-1.7,20.1-2.8,3.2-.6,6.3-2.1,9.5-2.5,10-1.4,20.1-2.6,30.1-3.6C61,759.7,67.8,759.3,74.5,758.8Z"/>
      <path class="cls-14" d="M747.6,164.8l-3.4,3.9c.5.5.7.9.9,1s3.5-1.6,4.3.9-.9,3.4-2.7,4.2-2.8,1.4-4.1,1.3a4.6,4.6,0,0,1-3.4-1.9c-1.9-3.3-.6-8.8,2.3-11.2S744.9,161.9,747.6,164.8Z"/>
      <path d="M1132.4,694.8c-3.2,1.5-4.9,2.9-6.7,3-7.8.3-15.7-1.1-23.3,1.9-1.1.5-4-1.4-4.9-2.9s-3.3-5-.6-7.4c1.2-1,4.1-1.8,5.1-1.2,8.3,5.8,17.8,4.5,27,4.9C1129.4,693.2,1129.9,693.6,1132.4,694.8Z"/>
      <path d="M1424.3,411.9c-4.2,1.2-8.5,2-12.4,3.6-6.8,2.8-13.5,5.8-20,9.2s-11.6,3.7-19.1,1.5c9.2-4.1,16.8-8.3,25.1-10.8s17.3-3.4,26.1-5Z"/>
      <path d="M1409.4,575.1l7-5.7c-9.7,1.1-14.5-4.8-20.5-8.1-2.5-1.3-2.4-1.6-.3-7.6,5,3.1,10.1,5.8,14.7,9.2s8.2,6.9,12.2,10.3C1419,579.6,1415.1,580.1,1409.4,575.1Z"/>
      <path d="M509,422.4c3.6-.9,7.3.3,11.1,4.1s11.1,5.2,17.4,5.9,7.6,2.6,6,9.5a15.9,15.9,0,0,1-3.2-1.9c-4-4-9.1-4.6-14.3-4.8s-9.6-1.4-12.5-6.1C512.1,426.8,510.5,424.6,509,422.4Z"/>
      <path d="M1209.7,922.1c0-2.4-.5-4.4.1-6s2-4.7-.7-7.2-.9-4.5,1.7-6.1c3.5,2.1,7.5,3.6,10.3,6.4a11.8,11.8,0,0,1,3.4,8.5c-.1,2.7-3.4,3.7-6.5,3.6S1213.2,921.7,1209.7,922.1Z"/>
      <path d="M1053.2,574l-8.6,3.6,7,7.3c-3.1,5.3-6.2,5.9-12.2,2.2-3.3-1.9-4.5-7.7-1.3-10.6a43.5,43.5,0,0,1,12.3-7.3C1052.9,568.3,1054.1,570.7,1053.2,574Z"/>
      <path d="M1431.1,532.2c-4.4,3.1-4.3,7-2,9.7s2.2,9.3,4.6,13.5c1.3,2.3.2,4.7-2.5,4.9s-4-1.2-4.3-2.3c-2-7.1-4.1-14.2-5-21.5C1421.4,531.6,1424.7,529.9,1431.1,532.2Z"/>
      <path d="M863.2,523.6c-.5,1.6-.4,3.1-1.1,3.6-4.5,3.2-4.6,7.5-4,12.3s-2.5,9.5-7.4,11.1c-2.8.9-4-.5-4.8-3.4,4.6-2.5,7.2-6,5.4-11.8-.6-1.8.5-4.2.9-6.3C853.4,523.1,856,521.7,863.2,523.6Z"/>
      <path class="cls-14" d="M1433.9,42.5c.2-2.7.3-5.4.5-8.2l8.2-2.9c1,2,0,3.1-1.7,4.1a34.8,34.8,0,0,0-3.9,2.8l.5.9,2.9-1c1.8,3.1,1.8,3.1-1.6,5.6Z"/>
      <path d="M154.1,580l-10.4.8c-1-9.2,0-10.8,7.4-14.2a41.2,41.2,0,0,1,21.3-3.7c.8,2.6-.1,3.6-2.7,3.5-7.7-.3-13.8,3.6-20.7,7.7Z"/>
      <path d="M1263.3,935.5c-8.8-3.8-17.6-.4-24.3-7.8,1.2-1.9,2.3-3.6,3.5-5.7l6.7,3.5C1257.1,920.7,1257.3,920.7,1263.3,935.5Z"/>
      <path d="M90.6,612l-2.4.5c-13.9.5-27.9.6-41.8,1.6-6.9.4-13.7,2.5-20.5,3.8,3.2-4.2,8.7-4.7,13.3-5.3,13.2-1.8,26.5-2.9,39.8-3.5,3.8-.2,7.6,1.9,11.5,3Z"/>
      <path d="M604.8,434.3l-24.3-4.7c-6.2-1.2-6.6-6.2-7.7-12,2.5.7,4.7.8,5.6,1.9,5.3,6.4,12.8,7.9,20.3,9.3C601.5,429.3,604.1,429.6,604.8,434.3Z"/>
      <path d="M1005.4,587.4c-3.5,3.5-6.4,1.2-8.5-.4a29.1,29.1,0,0,0-12.4-5.6c-2.5-.3-4.2-1.7-3.6-4.4s2.9-2.9,5.2-2.3,6.9,1.8,10.2,2.9C1001.1,579.2,1003,581.3,1005.4,587.4Z"/>
      <path d="M1121.3,460.4c.3-3.1,1.6-5.2,5.1-5.2s9.7.2,14.6.1c6.5-.1,13-.4,20-.7,1.3,1.3,1.3,3-1,4a15.6,15.6,0,0,1-5.6,1.2l-33.2.5Z"/>
      <path d="M1217.5,653.2c-1.7.7-3.5,2.3-5,2.1-8.1-1.4-16.1-3.1-24-5-2.7-.6-5.1-2.3-7.9-3.6,2.2-3.8,4.3-5.6,7.8-3.5,7.6,4.6,15.9,6.4,24.7,6.8a15.4,15.4,0,0,1,3.7.9A20.2,20.2,0,0,1,1217.5,653.2Z"/>
      <path d="M1078.3,795.3c-4.2-2.8-8.4-5.3-14-3.7-1.4.4-3.5-1.3-5.1-2.2s-5.1-3.5-7.8-4.7-5.4-1.7-8.7-2.7c.7-1.9,1.2-3,1.9-4.7,2,1.2,3.4,2.4,5.1,3,5.2,2,9,8.6,15.9,4.8l14.4,5.5c-.7,1.9-1.2,3.4-1.8,4.9Z"/>
      <path class="cls-14" d="M629.4,121.8l1.8,3.4c1,1.9,2,3.6,4.7,2.8a2.9,2.9,0,0,1,2.6,1.2,3.7,3.7,0,0,1-.6,3c-1.2,1.7-3,2-5,1.4a8.8,8.8,0,0,1-6.6-7.5C626.1,123.8,626.4,123.4,629.4,121.8Z"/>
      <path d="M100.2,914.8c-8,1.4-15.8,2.6-23.6,4.3s-15.6,3.6-23.8,5.6c-.3-4.5,1.8-6.3,4.5-6.6,13.9-1.8,27.9-3.3,41.9-4.8C99.4,913.3,99.7,914.1,100.2,914.8Z"/>
      <path d="M267,544.8l3.5,2.3c-.4.9-.6,1.7-.9,2.4a1.2,1.2,0,0,1-.6.6c-10.3,6.2-20.3,12.7-26.6,23.5-.4.6-1.7.7-3.6,1.5,2.3-4.7,3.8-8.6,6-12a20.4,20.4,0,0,1,9.1-7.7C258.7,553.3,262.3,548.7,267,544.8Z"/>
      <path d="M1368.7,745.5c-.3-5.6,3.8-5.6,6.5-6a134,134,0,0,1,17.8-1.7c8-.1,16,.5,24,.8a18.5,18.5,0,0,0-.1,2.3c-8,0-16-.5-24,.2S1377.4,743.8,1368.7,745.5Z"/>
      <path d="M493.3,406.8c.7-2.8,2.6-4.3,5.2-2.6,9.3,5.9,19.9,6.8,31,8.8-1.1,1.1-1.9,2.7-2.6,2.7-11.1-1.6-23,.3-32.7-7.3C493.8,408.1,493.7,407.5,493.3,406.8Z"/>
      <path d="M926.4,491.7c1.3-1.4,2.3-3.4,3.9-4.1,8.6-3.4,17.2-6.5,25.9-9.5.8-.3,2,.9,4.6,2.3-10.2,2.4-17.5,6.9-24.6,11.9-3.4,2.3-6.8,1.3-10-.8Z"/>
      <path d="M611,521.1c7.6.9,13.2,3.6,14.1,10.9.5,4,5.5,9.2-2.5,13.2-1-2.7-2.9-5.1-2.6-7.2.8-5.3-1.9-8.1-5.7-10.7S611.7,525.5,611,521.1Z"/>
      <path d="M1220.1,429.1c8.7,1.7,16.7,3,24.4,5s16.4,5.9,25.8,5.3c-1.1.7-2.2,2.2-3.2,2.1-8.9-1.3-17.9-1.5-26.5-4.8-3.5-1.4-7.6-1-11.3-1.9S1221.9,434.6,1220.1,429.1Z"/>
      <path d="M155.3,518.7l-13.2,12.9c-1.9,1.9-3.8,3.9-5.9,5.7s-4.4,1.6-7.7-3.5l25.8-16.3Z"/>
      <path d="M873.9,530.9l-5.9,1c-3-11.3,3.7-23.1,14.3-24.9C877.9,514.4,872,520.9,873.9,530.9Z"/>
      <path d="M124.3,577.7c1.9-4.6,2.9-7.3,4-9.8,1.9-4.2,3.9-8.2,5.7-12.3,1.1-2.4,3-3.7,5.2-2.6s2.5,2.9,4.7,5.5c-6.7.5-8.7,4.2-9.9,8.9S129.2,574.3,124.3,577.7Z"/>
      <path d="M251.4,916.9c5-5.9,11.1-6.7,17.1-6.9a126,126,0,0,1,16.2,1.1c.9.1,1.6,1.9,2.7,3.3-6.9,0-12.8-.1-18.6,0S258.3,918.6,251.4,916.9Z"/>
      <path d="M1146.7,526.3l-28.3,5.5c-1.6-3.9-2-6.6,2-7.1,7.2-.8,14.5-1.5,21.8-1.8,1.6-.1,3.3,1.2,5,1.9C1147,525.3,1146.9,525.8,1146.7,526.3Z"/>
      <path class="cls-14" d="M897.1,115c-2.7,3.9-7.1,5.4-10.2,3.8a3.7,3.7,0,0,1-1.7-5.1c1.4-2.6,2.8-2.9,5.3-1.6S894.6,113.9,897.1,115Z"/>
      <path class="cls-14" d="M978.8,157.6c.4-1.9.9-3.8,1.4-5.8,3.3-.4,5.4,1.7,7.4,3.4s.6,5.1-2.4,5.8S980.5,160.5,978.8,157.6Z"/>
      <path d="M354.7,587.7a69.7,69.7,0,0,1,30.8-12.5c-.6.5-1.2,1.4-2,1.6-6.6,1.6-11.7,5.5-16.2,10.5a24.6,24.6,0,0,1-5.1,3.9C358.8,593.3,358.8,593.2,354.7,587.7Z"/>
      <path d="M926.2,491.5c-1.4,1.8-2.5,4.1-4.3,5.3-7.4,5.2-14.8,10.3-17.9,19.7-4.8-1.9-5-5-3.1-8a20.7,20.7,0,0,1,6.2-6.3c6.3-3.8,12.8-7.1,19.3-10.5Z"/>
      <path d="M1060.7,556.2c-8.6-1.1-10.4-3-7.9-7.3a18.2,18.2,0,0,1,7.3-6.1c2.8-1.3,5.5-5.1,9.8-1.9C1069.3,547.8,1056.7,546.3,1060.7,556.2Z"/>
      <path d="M185.6,555.4l-5.1-4.2,19-23.8c-.3,3.3.1,5.3-.7,6.6-2.4,3.9-5.4,7.5-7.9,11.4A112,112,0,0,0,185.6,555.4Z"/>
      <path d="M1072.8,511.5c-5.8,4.5-7,4.4-10,.6l-9.2-10.9,2.4-5.1C1062.9,499.9,1067,506.1,1072.8,511.5Z"/>
      <path d="M744.1,560.4c-6.2,3.5-8.5,2.6-9.4-3.7-.3-1.6-.3-3.2-.6-4.8s-.9-3.1-1.3-4.6c5-4.1,7.2-3.7,8.6,1.5C742.4,552.4,743.1,556.1,744.1,560.4Z"/>
      <path d="M126.5,547.4c-2,2.9-4.5,4.8-4.8,7-.5,4.3-2.8,5.3-7.2,5.8l-1.4-7.1L123.8,540Z"/>
      <path d="M98.2,534.5l1.8,8.3c-9.6-2-12.1,6.9-18.2,10.3C80.5,544.9,80.5,544.9,98.2,534.5Z"/>
      <path d="M493.1,510.7H479.7l-8.5-7.1c1.3-2.7,3.9-2.1,6.6-1.4s7.9,1.6,11.7,2.8c1.7.6,3,2.2,4.6,3.3A24.4,24.4,0,0,0,493.1,510.7Z"/>
      <path d="M470.7,577.2c-3.1-1.8-5.4-3.7-8-4.4s-5.6-.1-8.4-.1c-.1-.6-.3-1.2-.4-1.9,5-1.6,9.9-3.8,15-4.8s4.4,4,6.4,7.1Z"/>
      <path d="M440,415.9c-9.5,2.3-18.3-1.3-27,2.4C417.6,409.5,429.6,408.3,440,415.9Z"/>
      <path d="M154.3,581.5c7.9-5.7,16.3-4.7,24.6-4.8a52.6,52.6,0,0,1-20.8,8.1C157.2,585,155.9,583,154.3,581.5Z"/>
      <path d="M1048.5,545.4c-3.3,3.1-8.8,4.3-6.9,10.7.7,2.1-3.5,3.7-5.6,2.3a7.7,7.7,0,0,1-2.6-3.1c-1.4-3.8.7-6.5,3.6-8.3a39.1,39.1,0,0,1,8.9-3.8C1046.4,543.1,1047.4,544.5,1048.5,545.4Z"/>
      <path d="M502.9,464c-3.9-.6-7.9-.8-11.7-1.9-6.4-1.8-12.7-4.2-18.2-6.1,2.7-1.7,2.8-2.1,8.6-1.2a151.2,151.2,0,0,1,18.8,4.5c1.3.3,2.1,2.1,3.1,3.2Z"/>
      <path d="M1083.6,494.5l7,2.2c-.9,6.3-1.8,12.2-2.7,19l-3.9.9C1079.8,509.1,1086.1,502.2,1083.6,494.5Z"/>
      <path d="M1444.5,555.4c-2.3-5.3-1.9-8.6,1.9-11.3s11.2-3.1,16.8,0c-2,1-3.6,2.6-4.9,2.4-5.2-1-8.3.9-10,5.8C1448,553.4,1446.2,554.1,1444.5,555.4Z"/>
      <path d="M94.7,558.9c-.3-10.3,8.5-16.4,18.4-15Z"/>
      <path d="M220.8,659c11.2-1.1,22.3-5.5,35.4-3.3C251.1,660,244,660.5,220.8,659Z"/>
      <path d="M959.4,485.4c2.8-7.1,10.5-7.3,15.9-10.7,2.2-1.4,4.6-1.5,6.8,1.4-.9,1-2.1,3.2-2.8,3.1-5.3-1-8.2,2.7-11.9,5.2-2,1.4-4.6,2-6.9,3Z"/>
      <path d="M1071.5,558.5c3.3-5.9,8.8-6.2,13.7-7.4,1.1-.2,2.6,1.3,4.4,2.2-4.7,3.4-8.6,6.6-13,9C1073.7,563.8,1072.2,561.4,1071.5,558.5Z"/>
      <path d="M270,834.2c-11.4,4.1-23.3,4.1-35,5.2l-.2-2.6,18.2-1.7C258.6,834.5,263.9,830.1,270,834.2Z"/>
      <path d="M1447.6,566.6c.1-6.4,2.7-8.5,7.4-8.6,2.1-.1,4.3-.9,6.5-.8a4.1,4.1,0,0,1,2.9,2.2c.2.9-.7,3-1.5,3.3C1458.1,564.1,1453.2,565.2,1447.6,566.6Z"/>
      <path d="M1243.6,944.7c-.6.7-1.4,2.3-2.6,2.9-3.2,1.5-10.5-2.8-10.6-6.4a6.5,6.5,0,0,1,2.5-4.5C1234.7,935.3,1243.5,941.5,1243.6,944.7Z"/>
      <path d="M354.6,413.1c-1.7.8-3.6,2.4-5.2,2.1a28.3,28.3,0,0,0-18.9,3.6c-.6.3-1.6-.1-2.9-.2v-4.8l26.3-3.3A19.7,19.7,0,0,1,354.6,413.1Z"/>
      <path d="M9.3,875.3c7.7-7.8,16.4-7.2,25.6-4.3-2.4.3-4.9,1-7.4,1s-7.2.9-9.8,4.3S13.2,879.5,9.3,875.3Z"/>
      <path d="M482.3,579.7c3.6-2.8,7.3-3.4,11.2-1.2s6.7,4.2,10,6.4c-2.7,4.8-7.2,5.7-10.2,1.2A12.9,12.9,0,0,0,482.3,579.7Z"/>
      <path d="M1512.5,685.8a51.5,51.5,0,0,1-20.7-.1c-2.8-.5-4.1-2.5-5.7-6.8,4.5,1.4,8.9,3.3,13.4,4.1s8.8.1,13.1.1Z"/>
      <path d="M434.5,573H415.3c-1.8-3-.2-5.4,1.8-5.3,5.2,0,10.5,1,15.7,1.9C433.5,569.7,433.8,571.6,434.5,573Z"/>
      <path d="M606,580c-9.8-.5-16.3-6.8-15.4-15C595.9,570.4,602.4,573.6,606,580Z"/>
      <path d="M154.3,517.5c8.1-4,12.9-11.5,18.8-17.7l2.8-3.1c1.2,7.4-8.7,17.6-20.6,22Z"/>
      <path d="M182.8,531.1c-.5-2.4-1-4.9-1.6-8.2,3.1-1.8,4.8-7.6,10.6-8.3.9,5.7.9,5.7-8.7,16.8Z"/>
      <path d="M1090.5,521.8c2.1,4.7,4.1,9.1.8,14.1-4.7-.4-6.2-3.7-6.9-7.6S1086.8,522.9,1090.5,521.8Z"/>
      <path d="M1490.2,411.8c8.9.9,16.2,6.4,24.4,8.5a4.8,4.8,0,0,1,.4,1.2,2.9,2.9,0,0,1-.2.8c-7.9-2.2-15.8-4.4-23.6-6.8-.8-.2-1.3-1.4-2-2.1Z"/>
      <path d="M1471.9,577.8l12.2,2.2c-1.2,6.4-2.5,6.7-15.3,3.6Z"/>
      <path d="M698,507.6c-4-1.7-7.8-3.1-11.4-4.9s-4.1-3.5-.7-7.3c4,2.2,8,4.2,11.9,6.4S701.5,505.1,698,507.6Z"/>
      <path d="M248.4,463.8c1-1.6,1.6-4.1,3-4.7,5.5-2.2,11-4.7,17-5l.7,1.8-18.8,9.5Z"/>
      <path d="M1461.9,570.6c5.8-6,12.6-3.3,18.6-4.7,2.2,3.1,1.4,5.4-1.2,5.4C1473.5,571.5,1467.7,570.9,1461.9,570.6Z"/>
      <path d="M658.2,457.2l-3.5,4.5L638,456.4c.4-1.9.7-3.6.9-4.3Z"/>
      <path d="M386.2,430.6c.9-.5,1.7-1.5,2.6-1.5,10.3-.7,20.6-1.2,30.9-1.7.6,0,1.3.6,2.1,1-3.7,2.3-29,3.7-35.7,2.1Z"/>
      <path d="M319,517.5c-1.7,1.6-2.4,2.9-3.2,2.9a87.9,87.9,0,0,1-16.2-.7C305.4,516.6,311,512.4,319,517.5Z"/>
      <path d="M668,467c1.3,8.9,9.6,8.3,13.5,12.9a60.7,60.7,0,0,1-9.5-1.4l-11-5.3Z"/>
      <path d="M182.9,589c4.6-5.1,10.6-2.6,15.3-4.5,2.3,2.6,1.4,4.8-.8,5.5a45.4,45.4,0,0,1-11,2C185.4,592,184.2,590.1,182.9,589Z"/>
      <path class="cls-14" d="M1406.4,81.1c1-4.8,2.4-5.3,7.1-2.7C1411.9,82.2,1411.4,82.4,1406.4,81.1Z"/>
      <path d="M600.2,447.7c-1.6,2.3-2.4,3.2-3.1,4.2L578,443.6c.2-.7.5-1.3.7-2C586.9,438.9,591.4,448.8,600.2,447.7Z"/>
      <path d="M526.4,526.9c-2.5-.6-4.8-.8-6.7-1.7s-5.7-3.5-8.7-5.3c1.1-2.5,3.1-4.3,6.2-3.1S526.4,519.6,526.4,526.9Z"/>
      <path class="cls-14" d="M1299.3,196.2h5.1c1.4,1.8.7,3.5-1,4.7a2.9,2.9,0,0,1-4.2-.7C1298.6,199.2,1299.2,197.5,1299.3,196.2Z"/>
      <path d="M311.7,477.2,286.1,485l-.7-1.4c.6-.7,1.1-1.9,1.9-2.1,7.2-2.1,14.4-4.1,21.7-6C309.5,475.3,310.2,476.2,311.7,477.2Z"/>
      <path class="cls-14" d="M882.8,187.9c1-3.6,3.6-4.3,7.2-3.8.2,1.4.5,3,.8,4.8S885.9,189.3,882.8,187.9Z"/>
      <path d="M1443.9,591c1.9-1.4,3.4-3.2,5.1-3.4s5.9.5,8.8,1c.1,0,.3,3.3-.5,3.9C1454,595.4,1449.7,594.9,1443.9,591Z"/>
      <path d="M1434.4,583.8c-.1-5.5,2.1-8.7,6.2-8.6,1.3,0,3.3.9,3.8,2a4.7,4.7,0,0,1-.6,4.3C1441.5,584.3,1438.5,585.3,1434.4,583.8Z"/>
      <path d="M795.7,930.9c2.2.7,4.6,1,6.7,2,4.1,2.1,8.2,4.3,12.1,6.8,1.3.8,2.2,2.6,2.6,4.7-7.7-3.8-15.1-7.7-21.2-13.6Z"/>
      <path d="M352,485.5l7.7,1.2c-.2,2.6-.3,4.9-.5,8.1-3,0-6.3,1-7.9-.2C347.6,491.7,352.4,489,352,485.5Z"/>
      <path d="M297.4,581.9c-5.3,8.9-8.2,11.6-16.2,14.7.6-2.2.5-4.6,1.6-5.3C287.2,588.1,292,585.3,297.4,581.9Z"/>
      <path d="M183.6,493c.4-9.6,5.1-14,13.8-14.6Z"/>
      <path class="cls-14" d="M1351.1,40.5l-.5-3.7,4.6-1.4,2.4,3.9Z"/>
      <path d="M173.6,527.3l-11,18.8C160.2,538.5,164.3,531.5,173.6,527.3Z"/>
      <path class="cls-14" d="M1486.4,147.2c.2-2.6,1.3-3.6,3.3-3.7s2.9,0,2.9,2-.9,2.8-2.5,2.7S1487.6,147.5,1486.4,147.2Z"/>
      <path d="M348.2,927.4c-4.6,4.1-4.6,4.1-11.8,1.2,1.1-2,1.8-4.3,3.4-5.6S344.4,923.7,348.2,927.4Z"/>
      <path d="M240.7,477.2c-4.9,5.9-12.9,5-18.6,10.1-.8-4.6,2.2-5.4,4.3-6.5s5-1.7,7.4-2.8S237.5,473.5,240.7,477.2Z"/>
      <path class="cls-14" d="M1217,115.4l-5.7,2.2a16.5,16.5,0,0,1-.8-4.6,3.2,3.2,0,0,1,2.7-1.1C1214.4,112.5,1215.3,113.7,1217,115.4Z"/>
      <path class="cls-14" d="M706.5,91.9c1.9,5.1,1.5,5.8-3.6,6.5C701.4,93.6,701.6,93.3,706.5,91.9Z"/>
      <path d="M1064.2,597.1c1.3-3,2.1-6.4,3.1-6.5,3.1-.1,7.3-1.5,9.1,3.3C1073.9,597.8,1070.1,597.1,1064.2,597.1Z"/>
      <path class="cls-14" d="M776.7,145.3c1.5-4.6,2.4-5.4,4.7-4.5s2.4,3.2.9,5.8Z"/>
      <path d="M1074.8,571.5c5.3-1.3,7.1,1.7,8.3,4.7.4,1-1.1,3.7-2.3,4.2s-4.1-.3-4.6-1.4S1075.2,574.1,1074.8,571.5Z"/>
      <path d="M1046.2,508.8c3.6.2,5.9,1.8,5.3,5.6-.2,1.3-1.7,3.3-2.6,3.3s-4-.8-4.9-2.1C1041.9,512.8,1044,510.7,1046.2,508.8Z"/>
      <path d="M605.1,541.6l-5,3.3c-1.7-2-3.7-3.6-4.7-5.7s.1-3.3.3-5c1.5.4,3.3.3,4.3,1.1S603.1,539,605.1,541.6Z"/>
      <path d="M138.7,922.1H127.1c-.5-3.7.5-6.1,3.9-6.2S137.5,916.6,138.7,922.1Z"/>
      <path d="M417,461.5c-8.6,3.4-17.2-.6-25.8-.1C399.8,458.9,408.4,461.6,417,461.5Z"/>
      <path class="cls-14" d="M1349.5,156.6c2.1,2.3,2.4,3.8.6,4.8a3.5,3.5,0,0,1-2.8-.4C1345.9,159.7,1346.4,158.7,1349.5,156.6Z"/>
      <path d="M1272.9,931c.3-3.9.5-5.9.7-9.1,2.8,1.2,5.2,1.8,6.9,3.2s1,4,.7,4A58.2,58.2,0,0,1,1272.9,931Z"/>
      <path class="cls-14" d="M1247.4,70.7c1.2-3.5,2.7-4.6,4.2-3.2a4.9,4.9,0,0,1,1,3.2c0,.4-1.7.9-2.6.9A8.9,8.9,0,0,1,1247.4,70.7Z"/>
      <path d="M452.9,495.5c-4.6,2.7-7.7.9-9.7-1.9s.1-4.2.3-8Z"/>
      <path d="M141.1,845.1a30.3,30.3,0,0,1-21.9,2.5c3.8-.9,7.2-2,10.7-2.4S136.7,845.1,141.1,845.1Z"/>
      <path d="M636.6,574.6c6.6-1.6,6.6-1.6,10.9,5.2l-4.2,3Z"/>
      <path d="M294.7,435.3c3-8.5,5.4-10.1,14.2-8.7Z"/>
      <path d="M165.9,849.5l-21.3-1.7C146.9,845.7,157,846,165.9,849.5Z"/>
      <path d="M728.1,785.5c5.9-3.2,12.4-3.5,18.8-4.1-5.8,3.7-12.4,3.9-18.9,4Z"/>
      <path d="M1089.9,802c-1.3-.9-3.2-2.8-3.8-2.5-5.1,3.1-6.2-.9-7.8-4.2v.2h9.5a6.3,6.3,0,0,1,2,6.7Z"/>
      <path d="M1227.4,910.6c1.1-3.7,2.5-7.6,6.4-5.7s1.2,5-.7,8Z"/>
      <path d="M541.9,449.8c7.4.3,11.9,5.8,18.6,10.4-5.4.1-7.4-3.2-10.3-4.7l-9.3-4.6Z"/>
      <path d="M1080,929.9c7.4-1.5,9.4,5,13.9,6.3C1088.1,937.5,1085,933.3,1080,929.9Z"/>
      <path d="M669.4,574.7l-5.5-2.9c.7-4.1,3.3-5.2,6-3.5S672.5,572.7,669.4,574.7Z"/>
      <path d="M361.4,435.4l-16.9,4.1a10.5,10.5,0,0,0-.4-1.7C349.5,435.7,354.8,432.7,361.4,435.4Z"/>
      <path d="M405.5,491.6l16-3.5C417.6,492,413.6,493.1,405.5,491.6Z"/>
      <path d="M1073.3,772.3l-19.4-6.4c.2-.6.3-1.1.5-1.6,5.8,1.8,11.5,3.5,17.2,5.5.8.2,1.2,1.6,1.7,2.5Z"/>
      <path d="M1078.1,935.6l14.2,8.3-.8,1.5-14.4-7.9Z"/>
      <path d="M1501.2,770.7l15.3,3.2c-.1.6-.3,1.3-.4,1.9l-15.3-3.6A8.3,8.3,0,0,0,1501.2,770.7Z"/>
      <path d="M362,542l-13.4,4.8c0,.1-.1-.4-.5-1.3C352.1,542.9,355.8,539.6,362,542Z"/>
      <path d="M271.3,542.6l7.2-5.6,1.3,1.1-4.2,8.2Z"/>
      <path d="M1131.9,464.5l5,13.8-1.9.5c-1.3-4.7-2.6-9.3-4-14Z"/>
      <path d="M1005.1,751.6,995,747.9C1000.1,745.8,1000.1,745.8,1005.1,751.6Z"/>
      <path d="M1042.7,918.1l13,6.4C1051.1,924.2,1046.1,924.8,1042.7,918.1Z"/>
      <path d="M136.8,546.1l13.1,1.7-.3,2.1-13-2.5Z"/>
      <path d="M1027.2,755.2l9.5,2.8-.6,2.1-9.5-3.4Z"/>
      <path d="M386.1,430.5l-13.7,2.4c4.3-3.8,9-3.3,13.8-2.3Z"/>
      <path d="M1025.6,767.6l2.3-3.3,6.8,4.2-.3,1Z"/>
      <path d="M319,557.7l8.9-5.5A17.4,17.4,0,0,0,329,554l-8.7,5.3Z"/>
      <path d="M1083.8,921.2l6.3,3.4-.5,1.2-6.9-1.9Z"/>
      <path d="M557.2,744.8l2.1,6.2-1.5.6-2.7-6Z"/>
      <path d="M895.9,714.7l-8.7-3.3.6-1.7,8.6,3.6A13.6,13.6,0,0,0,895.9,714.7Z"/>
      <path d="M772.4,779.5h6.7C777,784.5,774.6,780.2,772.4,779.5Z"/>
      <path d="M1050.3,764.2l-7.3-1.8c.1-.6.3-1.2.4-1.8l7.4,2A9.8,9.8,0,0,1,1050.3,764.2Z"/>
      <path d="M1073.3,772.3c5.4.7,5.4.7,7.4,4.2a12.2,12.2,0,0,1-7.4-4.2Z"/>
      <path d="M183.1,531.4l-5.5,7.7c.1-3.8.7-7.4,5.2-8Z"/>
      <path d="M230,503.4l-5.9,4.7-1.2-1.4,5.9-5.1Z"/>
      <path d="M315.3,433.2l-7.5,3.3C309.9,433.1,309.9,433.1,315.3,433.2Z"/>
      <path d="M1133.8,839.4a15.7,15.7,0,0,1-1.7,3.1,4.4,4.4,0,0,1-3.9,1,22.7,22.7,0,0,1,2.6-3.5C1131.2,839.5,1132.2,839.7,1133.8,839.4Z"/>
      <path d="M1173.4,816.6l17.5,4.1C1184,823.3,1179.1,822.1,1173.4,816.6Z"/>
      <path d="M1157.2,811c.4,2.9-2.6,3.6-4.7,3.7s-5-1.2-7.5-1.8l.3-1.9Z"/>
      <path d="M962.6,877.9c1.3,0,3.1-.5,3.9.2,4.5,4,9.6,1.5,14.4,1.4l-2.5,7.9C972.1,885.4,965.7,884.5,962.6,877.9Z"/>
      <path d="M980.7,879.7a18.6,18.6,0,0,1,13.4-5.1c-.1,1-.3,2.1-.4,2.7Z"/>
    </g>
    <path class="cls-4" d="M1334.1,294.5c0,6.7-5.4,7.2-12,7.2s-12.1-.5-12.1-7.2a12.1,12.1,0,0,1,24.1,0Z"/>
    <path class="cls-4" d="M836.2,378.4c0,7.9-1.8,10.8-9.7,10.8s-9.4-2.9-9.4-10.8,1.5-10.8,9.4-10.8S836.2,370.5,836.2,378.4Z"/>
    <path class="cls-4" d="M738.4,450.5c0,4.8-.4,4.3-5.2,4.3s-8.1.5-8.1-4.3a8.6,8.6,0,0,1,8.6-8.6C738.4,441.9,738.4,445.8,738.4,450.5Z"/>
    <path class="cls-4" d="M561.8,490.5c0,3.9-3.1,1.6-6.9,1.6s-7,2.3-7-1.6a7,7,0,1,1,13.9,0Z"/>
    <path class="cls-15" d="M449,109.1c5.1,0,5.1-8,0-8s-5.2,8,0,8Z"/>
    <path class="cls-15" d="M167.8,284c5.2,0,5.2-8,0-8s-5.1,8,0,8Z"/>
    <path class="cls-15" d="M502.9,171.2c5.2,0,5.2-8,0-8s-5.1,8,0,8Z"/>
    <path class="cls-15" d="M803.7,110.7c5.1,0,5.1-8,0-8s-5.2,8,0,8Z"/>
    <path class="cls-15" d="M274.1,329.7c5.1,0,5.1-8,0-8s-5.2,8,0,8Z"/>
  </g>
</svg>
