<svg xmlns="http://www.w3.org/2000/svg" viewBox="0 0 1737.7 992.2">
  <defs>
    <style>
      .cls-1 {
        fill: #29323c;
      }

      .cls-2 {
        fill: #38424d;
      }

      .cls-3 {
        fill: #f7f7f1;
      }

      .cls-4 {
        fill: #eee;
      }

      .cls-5 {
        fill: #4c5766;
      }

      .cls-6 {
        fill: #817f82;
      }

      .cls-7 {
        fill: #fff;
      }

      .cls-8 {
        fill: #f99c1c;
      }

      .cls-10, .cls-9 {
        fill-opacity: 0;
        fill-rule: evenodd;
      }

      .cls-9 {
        stroke: #fff;
      }

      .cls-10 {
        stroke: #d0d0d0;
      }

      .cls-11 {
        fill: #d0d0d0;
      }
    </style>
  </defs>
  <title>home-</title>
  <g id="scene-alone">
    <polygon class="cls-1" points="-140 -37.3 1754 -37.3 1754 1033.5 -122.2 1033.5 -140 -37.3"/>
    <path class="cls-2" d="M-26.2,299.6C2,233.5,230.7,15.2,339.3,57.7s46.6,214.1,207.6,189.6,313.5-138.9,360.7-49,50.5,492.6-278.2,604.6C474.8,855.6,51.3,734,29,659S-82,430.4-26.2,299.6Z"/>
    <path class="cls-2" d="M1605.1,419.4c-48.4,87.2,39.6,264.6-71.9,345.6s-106.7,166.8-71.3,210.8,263.6,129.4,294.2,92.5,95.1-731.6,96.9-754.4C1864.4,176.7,1653.3,332.6,1605.1,419.4Z"/>
    <path class="cls-3" d="M406.9,619.3s290-90.4,378.3-105.2c81.1-13.6,266.3,1.1,282.1-3.7s-194.9-19.5-322.2,3.7c-80.7,14.7-347.9,94.7-347.9,94.7Z"/>
    <path class="cls-4" d="M-156.3,532.3S-97,499-67.5,506.1s99.2,12,104.9,11.2,108-10.6,118.1-3.4,156.7,91.2,192.7,84.8,58.5,9.5,66.5,34.2,50.9,45.3,77.1,48.6,63.5,27.9,61.3,45,64.8-1.7,72.4,28.5S665,806.4,679,837.2s80.9,141.3,59.3,168.9-890,9.8-890,9.8Z"/>
    <path class="cls-3" d="M537,927.3s360.2-173,378.2-177.2,135.4-45.8,149.4-62.6,27.5-37.3,25.1-36.8-49.8,38.5-68.6,47.4-60.3,34-75.9,34.6-424.1,156.9-426.3,190"/>
    <path class="cls-5" d="M450.6,976.8s155-104.2,214.9-130.1,33.5,3.9,43.1-7.8,74.7-49.7,82.5-47.3S843,778.9,843,778.9l20.2-13.7,4.7-13.5s45.5-26.8,71.5-12.7,159.7-80.9,159.3-84.1,20.9-51,0-55.4-118.7-13.9-134-13.9-200.3-6.7-288.9,16.9-221.2,71-231.9,74.5-50-60.8-50-60.8,287-92.8,348.7-93.3,338.6-42.1,426.1-7.6,161.8,42.9,168.5,56.8-40.3,121-98.8,167.3-167,82.2-224,102.7S758,993.9,732.6,993.9s-270.6,5-282,2.5S450.6,976.8,450.6,976.8Z"/>
    <path class="cls-6" d="M271.4,795.8c-11,8.1-19.8,85.2-15.2,93.3s48.7,25.2,62.2,20.7-2.6-30.5,18.7-33.7,73.3,4,81.4-6.8S440,846,429.9,820.9,355,758.7,355,758.7,286.1,784.8,271.4,795.8Z"/>
    <path class="cls-6" d="M37.4,517.3a170.7,170.7,0,0,1,46.7-.9c25.1,3.1,51.2-12.4,57.3.5s89.5,48.6,73.1,53.4-80.8,4.7-99.4,2.1-71.9-15.5-71.9-15.5Z"/>
    <path class="cls-6" d="M405.5,632.2s-26.8-11.4-21.8,7,12.6,43.6,47.1,49.3,97.8,39.8,106.2,36.6-12.2-32.7-19-40.4-36.1,1-57.3-15.8S405.5,632.2,405.5,632.2Z"/>
    <path class="cls-6" d="M694.5,555c-3.6,4,2.3,8.4,14.2,8.4s38.3-7.2,34.4-12.2S705,543.7,694.5,555Z"/>
    <path class="cls-6" d="M776.6,549.6s40.7,2.3,45.2-3.2,14.1-7.9,14.1-7.9l-24-9Z"/>
    <path class="cls-6" d="M876.4,526.6l34.6-6.2s-.3,9.4-8.3,10.2-23.1,16.6-24.4,11.1A118.3,118.3,0,0,1,876.4,526.6Z"/>
    <path class="cls-6" d="M898.3,578.7s28,14.1,42.7,8.5,28-7.8,28-8.5-31.7-11-35.4-9S898.3,578.7,898.3,578.7Z"/>
    <path class="cls-6" d="M964.7,551.5s36.1,7.4,41.1,3.7,15.7-2.6,18-8.4-22-3.9-33.7-1.2Z"/>
    <path class="cls-6" d="M-94.6,951.5s73.2-44.7,129.7-32.4,107.9,5.4,126.5,44.3-227.1,21.8-244.8,8.7S-94.6,951.5-94.6,951.5Z"/>
    <path class="cls-6" d="M776.3,576.5s20.1-3.1,20.2-7.9-5.9-15.5-14.5-9.7S771.6,570.1,776.3,576.5Z"/>
    <path class="cls-6" d="M447.2,653.3S538,618.5,539,623.8s4.6,14.9-31.1,21.9-54.9,16.8-56.5,12.8A9.2,9.2,0,0,0,447.2,653.3Z"/>
    <path class="cls-6" d="M753.8,846.4s-46.9-2.4-45.2-7.5,50.9-31,61.3-37,61.8-23.7,59.9-13.3S781.9,837.5,753.8,846.4Z"/>
    <path class="cls-6" d="M1057.9,681.2c-18.2,8.2-37.9,22.5-33.5,25.1s52.3-1.5,51-17S1057.9,681.2,1057.9,681.2Z"/>
    <path class="cls-6" d="M1042.7,814.3s65.8-41.7,77.9-42.5,62.2-15.3,60.2-12.9-63.3,38.6-74.6,46.3-52.4,23.4-52.4,23.4Z"/>
    <path class="cls-6" d="M894.8,843.2s64.5,6.2,88.9-7.4,4.8-47.8-1.3-46.2-45.2,2.2-51.8,11.7S893.9,827.4,894.8,843.2Z"/>
    <path class="cls-6" d="M594.1,970.9s20.5-31.8,40.1-35.7,37.2-2.5,33.4,8.9-39.3,14.3-49.4,24.7S594.1,970.9,594.1,970.9Z"/>
    <path class="cls-6" d="M1179.8,651.2s-80.2,18.9-77.5,27.7,55.6,23.7,66.4,22.5,48.3-19.9,48.4-29,17.9-42.1,8.4-36S1179.8,651.2,1179.8,651.2Z"/>
    <path class="cls-6" d="M1108.7,726.8s-46.9,10.9-45.9,21.6,62.2,13.3,68.8-4.8,2.8-42.4-6.7-33.1S1108.7,726.8,1108.7,726.8Z"/>
    <path class="cls-6" d="M917,736l-49.1,15.7-1,19.4s-24.8,2.7-23.6,10.9,28.1,26.8,28.1,26.8,55.9-30.4,59.1-37S925.5,735.3,917,736Z"/>
    <path class="cls-6" d="M831.9,827.8s-26.4,23-23.6,23.9,15.6-3.1,25.2-4.1,55.5-28,43.4-29.5S831.9,827.8,831.9,827.8Z"/>
    <path class="cls-6" d="M1249,641.6s-12.5,30.8-9.7,30.8,42.7-17.7,46.1-26.9S1249,641.6,1249,641.6Z"/>
    <polygon class="cls-6" points="1104.9 600.8 1113.3 616.6 1136 611.7 1123.5 594.8 1104.9 600.8"/>
    <polygon class="cls-6" points="999.1 579.8 1010.6 603.7 1060.7 587.2 1022.1 569.4 999.1 579.8"/>
    <path class="cls-6" d="M1040,533.8s26.9,14.3,46.2,11.2,38.7-10.8,38.7-10.8l3.1-8.6s-36.2,1.3-43.1,0-49.5-3.7-48.6,0A39.9,39.9,0,0,0,1040,533.8Z"/>
    <path class="cls-6" d="M1141.4,542.8s-7.9,8.9,3,6.8,49.3-3.1,50.9-11.6-21.8-15.1-25.9-11.6S1141.4,542.8,1141.4,542.8Z"/>
    <path class="cls-6" d="M1168.7,561.2l22.2-14.4,32.6,13.1s-35.8,8.6-42.3,4.4A18,18,0,0,0,1168.7,561.2Z"/>
    <path class="cls-6" d="M1173.6,584.1h10.6a24.3,24.3,0,0,1,3.6,12.5c0,7.1-14.2,8.1-14.2,8.1s-2.7,8.6-8.3-1.2,1.7-14.7,1.7-14.7Z"/>
    <path class="cls-6" d="M1285.6,596.4s-8.3,12.5-6.8,13,13.4-.6,17-3,13.4-19.7,8.1-19.2S1292.4,583.3,1285.6,596.4Z"/>
    <g>
      <path d="M-63.9,469.1c-8.8-1-15.3,3.2-20.9,9-.8.7-.5,4,.2,4.3,8.8,4.1,17.8,7.9,26.8,11.8,2.2,1,4.2,2.1,6.3,3.2,0,0-.1.7-.4.9-4.7,5.4-7.3,5.4-15.9.8s-19.4-10.2-29.1-15.2c-5.2-2.7-15-.1-20.2,5a10.7,10.7,0,0,1-3.7,2.4c-1.3.5-2.8.2-4.2.3.5-1.9.4-4.8,1.7-5.5,8.3-5.2,16.1-12.2,27.4-9.6,2.1.4,5.7-.9,7-2.7,7.1-8.9,16.9-10.6,27.2-10.5,6,0,12.6-1.6,17.6,3.2s10.2,10.5,15.6,15.4c2.3,2.1,5.4,3.3,8.3,4.6s6.9,2.5,10.3,3.9,6.3,2.7,9.3,4.1,4.2,1.5,5.2,3c5.3,8.5,15.1,9.3,22.9,13,3.2,1.4,8.3-1.6,12.6-2.3,12.3-1.8,24.5-4.3,36.7,1.8,5.3,2.6,11.9,2.2,17.6,4.1s10.3-.9,15.1-3.7c9.2-5.3,18.3-10.7,29.4-3.8,5.1,3.1,11,5,16.6,7.3.8.3,2.5.3,2.8-.2,2.6-3.9,6.3-4.3,10.4-3.6,6.8,1.3,13.7,2,20.3,4.1,2.8.9,4.7,4.7,7.1,7,6.1,5.8,8.7,13.8,16.3,19.1s16.6,4.3,22.9,10.3c4.7,4.5,9.3,9.1,14,13.5,2.6,2.5,5.6,4.6,7.9,7.2s1.7,5.7-2.4,6c-6.2.4-12.5.7-18.7.5-2.8,0-5.6-1.2-8.3-2.1-9.8-3.2-19.6-5.6-29.6-.6s-18,4.7-27.4.4c-4.2-2-9.2-2.2-13.9-2.7a117.5,117.5,0,0,0-17.7-1.5c-8.1,0-16.1,1.3-24.1,1.1-6.3-.2-12.5-1.5-18.6-2.7-8.8-1.6-17.8-5.4-26.3-4.7-10.7.9-18.1-5.2-27-8.1-3.6-1.1-6.1-5-3.9-9.8,1.4-3,2.8-5.8,0-9.5s-5.2-10.4-8.8-14.9c-2.3-2.8-6.5-4.2-9.8-6.2-6.5-3.8-12.9-7.7-19.5-11.2-8.2-4.4-16.6-8.5-24.8-12.7-3.9-2.1-8.2-3.7-11.6-6.4-5.6-4.6-10.2-10.5-16-14.5C-54.5,469.5-59.6,469.9-63.9,469.1ZM187.4,573.2c4.4-1.8,8.9-3.6,13.4-5.6a29.1,29.1,0,0,0,4.6-3.2l-3.9-2.5a13.9,13.9,0,0,1-2.1-2.1c-3.4-3.2-6.3-6.6-12.3-5.6a10.1,10.1,0,0,1-11.5-6.1c-.5-1.2-2.1-2-3.3-2.8l-16.2-10.5c-2.8-1.8-5.7-3.3-8.6-5s-7.5-3.9-10.4-6.7-7.4-7.1-13.4-5.9-9.6,1.6-14.5,2.3L87,522.8c-.7.1-1.4,1-1.9,1.7-2.2,3.1-5.5,2.9-7.4-.2a6.3,6.3,0,0,0-3.8-2.4c-10.3-2-20.5-3.8-30.8-5.4-1.8-.3-3.8.5-5.7.8,1.2,2.1,2.1,4.3,3.6,6.1s2.4.6,3.7.6c7.2,0,14.6-1.2,21.5.2s16.1,5.7,24.2,8.6a4.6,4.6,0,0,0,2.6.2c6.7-1.9,13.3-3.9,19.9-6,1-.3,1.9-1.1,2.9-1.5a12.5,12.5,0,0,1,3.9-1.5c.6,0,2,1.9,1.8,2.3s-1.7,3.5-3,4c-7.5,2.8-15,5.4-22.7,7.7-2.7.8-6.1,1.8-8.6.9-8-2.7-15.6-6.3-23.3-9.5a9.1,9.1,0,0,0-4-.6c-3.8,0-7.6.3-11.4.5l-3.2.4a10.3,10.3,0,0,0,1,3.1c3.3,4.6,3.9,9.1.5,14-.7,1.1-.3,4.3.6,4.9s5.2,2.3,7.8,3.3a5.6,5.6,0,0,0,.8-1.6c1.2-3.8,3.4-4.7,6.8-2.5s7.6,5.3,11.8,6.6a265.6,265.6,0,0,0,26.3,6.5c8.4,1.7,16.7,3.2,25.4,1.1,5.1-1.2,10.6-1,15.9-.7s12.4,2,18.6,2.3,14.2.2,20.5,4.2C182.9,572,185,572.3,187.4,573.2Zm-20-57.5-.5,1.2-3.1,1a30.7,30.7,0,0,0,1.7,3.1c1.4,1.8,3.4,3.2,4.4,5.2,4.3,9.2,11.3,14.8,21,17.8,3.3,1,6.2,3.2,9.1,5.2s4,4.2,6.4,5.6c5.8,3.4,11.8,6.4,17.8,9.4s11.3,5,17,7.3c.6.3,1.5-.3,2.3-.5a9.5,9.5,0,0,0-1-1.7c-3.6-4.2-7.1-8.4-10.8-12.5-1-1-2.8-2.5-3.6-2.2-8.9,3.4-14.2-.9-19.9-7.2S195,537,191.7,528.7c-.8-1.9-1.8-4.5-3.4-5.2C181.5,520.6,174.4,518.3,167.4,515.7Zm-17.5,3.4-7.6-3.4a9.4,9.4,0,0,0-.9,1.2,44.1,44.1,0,0,0,5.2,4.5C147,521.6,148.5,520.1,149.9,519.1Z"/>
      <path class="cls-6" d="M270.6,816c-3.9,6.9,3.4,16-3,23.7-3.6,4.3-5.8,9-5,15.2.5,3.3-1.9,7.2-3.7,10.4-.8,1.4-3.9,2.9-5.2,2.4-3.4-1.6-4.2-.6-4.2,2.7,0,.5-1.9,1.4-2.7,1.2a3.1,3.1,0,0,1-1.4-2.5c1.5-5,3.4-9.9,5-14.9.5-1.5,1.1-3.3.7-4.7a15.9,15.9,0,0,1,1.3-13.1c2.3-4.1,2.3-9.5,4.4-13.8s-.2-10.6-.2-15.8-.2-8.1,4.6-9.8c.4-.1.9-.4.9-.6,1.3-8.6,9.8-7.7,14.6-11.4,7.3-5.7,16.6-7.8,23.1-15.3,4.5-5.2,12.1-7.8,19.9-7.2.9,0,2,.1,2.6-.4,6.2-4.6,13.3-1.8,19.9-2.4l12.8-1c6-.5,12.1-.9,18.1-1.5a6.1,6.1,0,0,0,1.8-.5,4,4,0,0,1-1.6-.8c-2-2.1-3.6-5.2-6.1-6.4-4.8-2.3-10.1-5.1-15.2-4.9a236.4,236.4,0,0,0-35.6,3.9c-5,1-9.4,5-14.1,7.5l-29.5,15.4a16.4,16.4,0,0,0-2.2,1.4,40.4,40.4,0,0,1-4.5,2.6c-.1.1-1.8-2.1-1.6-2.6s1.9-4.2,3.5-5.1c9.3-5.1,18.8-9.8,28.2-14.8,4.5-2.4,8.7-5.8,13.4-7.7a52.8,52.8,0,0,1,14.6-3.5c10.4-.9,20.8-1.6,31.3-1.6,8.7,0,17.4,2.8,21,11.3,2.4,6,5.7,9.6,11.4,11.1,2.2.6,5.1-1.6,7.5-1.2,5.9.9,11.7,2.7,17.6,3.8s13.3,1.9,19.8,3.5c2.2.5,4.2,2.7,5.8,4.6a128,128,0,0,1,8.9,10.6c5.5,7.2,11.3,14.3,16.1,22,1.3,2.2-.6,6.4-1,9.7-.2,1.1-.9,2.6-.4,3.3,6.9,10.5-.4,17.1-8.4,21.4a3.5,3.5,0,0,0-1.6,2,7.4,7.4,0,0,0-.1,2.6,9.4,9.4,0,0,1-2.9-.1c-9.8-3-17.1-10.2-23.3-17.4-3.8-4.4-3.9-11.9-5.7-18a16.5,16.5,0,0,0-1.6-3.6c-4.7-6.8-10.3-12.7-17.9-16.4-1.2-.6-1.8-2.4-3.1-3.2-3.9-2.7-7.7-4.8-13.2-4.1-3.9.5-8.7-1.4-12.1-3.6-6.1-4.1-12.5-4.5-19.3-5.6-9.4-1.4-17.8,1.9-26.7,3.1-1.4.2-3.4.5-4.1,1.5-7.1,9.8-18.3,9.2-28.3,11.1S270.3,804,270.6,816Zm185.1-6.9,1.5-.5c-2.8-4.5-5.3-9.3-8.6-13.5-5.4-6.9-11.2-13.4-17-20-.6-.8-1.9-1.1-3-1.4-6.8-2.1-13.7-3.7-20.4-6.1-4.7-1.7-3.3,3.8-5.9,4.3-.1,0-.1,1.6.3,1.9,6.7,5.4,13.1,11.5,20.5,15.9s12,11.3,8.7,18.8a17,17,0,0,0-.8,4.5c-1.1,7.1,7,7.2,9.3,11.9,1.1,2.6,3.8,4.4,4.9,7s2.2,4.6,5.6,2.9c7.4-3.7,8-6.3,5.1-14.3C454.7,817.2,455.7,813,455.7,809.1Z"/>
      <path d="M147.7,947.2c1.2,2.9,3.3,5.7,3.5,8.6.4,5,4,4.3,7,5.3a14.6,14.6,0,0,1,3.4,2.3c-2,1-4.3,3-6.1,2.7-12.3-2.1-22.6-8.8-31.8-16.6-5.1-4.3-8.2-10.9-13.2-15.1a82.6,82.6,0,0,0-18.7-11.7c-12.8-5.6-26.2-6-40-2.8a33.8,33.8,0,0,1-16.7-.8c-6.2-1.7-11.3.2-16.5,2.3a47.7,47.7,0,0,1-23.3,3c-8.4-1.1-16.1-.7-23.6,4.1-3.1,2.1-7.7,1.9-11.5,2.9s-6,1-5.7,5.5c0,1.3-2.7,2.8-4.2,4.2a43.5,43.5,0,0,0-3.6-3.8c-.9-.8-2.2-1.8-3-1.6-4.2,1.2-8.2,2.9-12.4,3.9-7.4,1.9-11.2,8-15.9,12.9s-7.6,4.3-10-1c-4.4-9.9-2.8-12.9,7.6-16.6,7.4-2.6,14.5-6.2,21.8-9.2,3.9-1.7,8-2.8,12-4.4a53.6,53.6,0,0,0,6.2-3.4c.8-.4,1.4-1.3,2.2-1.4,11.9-1.9,22.9-7.5,35.3-7.6s21.6-2.3,32.5-3.1c4.8-.3,9.8,1.2,14.5.4,8-1.2,15.9-3.6,23.7-5.6,10.5-2.7,20.4-2.7,30,3.5,6.2,4.1,13.6,6.4,20,10.2a181.2,181.2,0,0,1,22.1,14.8c4.5,3.7,7.7,9,11.5,13.6,1.2,1.3,2.5,2.5,3.7,3.7ZM6.6,919l5.2-1c.6-.2,1.1-.9,1.6-1.3a4.4,4.4,0,0,0-1.9-.7L-3,917.1c-.3,0-.6.3-.9.5s.8.6,1.2.6Zm113,9.8a3.3,3.3,0,0,0-.3.6l7.5,4.6.7-1Zm-143.7-8v-.6l-2.8.5-1.6.6h2.8Z"/>
      <path d="M1127.2,633.5c.4-1.5.8-4.1,1.2-4.2,2.8,0,6.5-.6,8.4.9,6.5,5.1,6.7,5.5,13.5,1l14.7-9.9c7.6-5.3,16.6-3.8,25-5.3s14.8-3.4,22.3-5l33.6-6.6a7.9,7.9,0,0,0,3.9-1.3c3.8-3.2,7.2-.5,8.6,1.9s.3,6.5-1.3,8.5c-5.5,6.8-13.9,8.6-21.8,11.1a4.8,4.8,0,0,0-2.7,3.5c-.2,4.5-3.8,4-6.3,5.1l-2.9,1.3c.7.6,1.9,1.1,2.1,1.9,1.5,3.9,4.1,8.2,3.6,12-.6,6.4-2.9,12.7-5.3,18.8-1,2.2-4.1,4.1-6.7,5.2-4.7,2-8.7,3.8-8.6,10.2s-5.9,8.7-10.2,11a67.6,67.6,0,0,1-38.2,7.5c-7.9-.8-15.7-3.6-23.5-5.6-5-1.2-9.9-2.8-15-3.8-2.3-.4-6.6-.3-6.9.7-1.1,2.9-.3,6.4-.9,9.6s-1.3,5.2-2.8,5.8-6.9.3-7.3-.7c-1.1-3,.3-5.9,4.4-6.2.8,0,1.4-.8,2.1-1.2a4.7,4.7,0,0,0-2-.2c-4.1.8-8.9,2.6-11.1-2.3s-.1-15.4,5.2-18.3c6.9-3.8,13.6-7.9,20.8-11.1,5.5-2.4,11.7-3.4,17.5-5.4,10.6-3.8,21.1-7.9,31.6-12,.7-.3,1.2-1.4,1.9-1.7s2.5-.9,3.3-.5a5.2,5.2,0,0,1,2.4,3c.2.4-1.2,1.7-2.1,2.1-10.9,4.7-21.6,11.2-33.1,13.4-13.8,2.7-24.7,10.2-36.4,16.4-1.5.8-2.2,3.1-3.3,4.6,1.8-.1,3.9.4,5.3-.5,7.2-4.5,14.1-1.4,21,.8s16.3,6.2,24.7,8.4c10.5,2.8,20.5-1.1,30.5-4a43.1,43.1,0,0,0,8.5-3.9c3.3-1.9,4.9-4.5,6-8.7s5.1-9.6,8.8-10.6c7.5-2,8.3-7.7,10.3-13a29.8,29.8,0,0,0,1.6-8.9c0-3.3-.5-6.3-5.6-4.9-8.9,2.4-18,4.3-27,6.2-1.4.3-3-.2-4.6-.4.2-.9-.1-2.3.5-2.8s3.1-2.6,4.9-3c4.1-.8,8.5-1,12.7-1.5s5.5-1.2,6.8-5.2c.7-2.1,5.6-2.6,8.3-4.3s4.1-3.5,6.1-5.3c-2.6-1.3-5.2-3.2-7.9-3.6s-4.6.4-4.2-2.7c.1-.8,2.8-1.6,4.4-1.9a6.1,6.1,0,0,1,4,.3c8.2,4.3,15.6.9,23-2.3a44.8,44.8,0,0,0,4.7-2.8c1.3-.9,2.3-2,3.5-3-1.7-.2-3.4-.9-4.9-.7-7.8,1.3-15.6,2.8-23.4,4.3l-18.9,4c-1,.2-1.9.7-2.9,1l1.7,2.1c3.8,4.1,1.7,11.8-3.5,13.4-3.7,1-7.2,2.9-11,3.6-1.5.3-3.3-1.4-5-2.3,1.4-1.1,2.7-2.6,4.3-3.4s5.9.8,7.6-3.7.3-4.3-2.1-4.6c-4.3-.5-8.7-1-12.9-.4-9.7,1.4-17.7,6.6-25.4,12.4-2.2,1.7-5.3,2.1-7.9,3.2-.7.2-1.7.9-1.6,1.3,1,8.1-5.5,11.5-10.6,14.8a130,130,0,0,1-24.3,11.8c-6.3,2.3-13.2,3.2-20,3.7-1.8.1-4.1-3.6-5.5-6-.4-.7,1.3-3.2,2.6-4.3,10.4-8.4,20.9-16.8,31.6-24.8,2.1-1.6,5.4-1.5,8.2-2.1.4,2.7.1,4.1-2.9,6.2-9.9,6.7-18.9,14.6-28.1,22.1-.8.7-1.1,1.9-1.6,2.8a18.2,18.2,0,0,0,3.2.3c14.6-1.2,27.5-7,39.2-15.4,3.9-2.7,5.8-6.9,2.7-11.6s-4.6-8-10-3.5C1129.4,634.6,1128.1,633.8,1127.2,633.5Z"/>
      <path d="M1060.6,579.5a57.7,57.7,0,0,0,7.2,0,6.6,6.6,0,0,1,7.7,5.4c.5,3.4-2.8,5.5-6.8,5.4a69.8,69.8,0,0,0-10.1.8,42.2,42.2,0,0,0-6.9,2.1l-23.9,8.4c-3,1.1-5.9,2.6-9,3.8-7.5,2.9-14.4-.9-16.6-8.6a18.6,18.6,0,0,0-4.3-7.3c-3.6-3.9-.1-6.8,1.2-9.7s3-2.1,5.5-.2,7,.9,2.9,5.7a5.6,5.6,0,0,0,1.2.4l11.6-.5a11.4,11.4,0,0,1,3.2.7c.2,0,.2.9.2.9a17.7,17.7,0,0,1-3.2.5c-2.4,0-4.9-.5-7.2-.1-7,1.2-8.3,5.8-3.7,11.7,2.7,3.5,5.3,1.6,8.1.7,8.1-2.6,16.3-4.8,24.2-7.8,4.1-1.6,7.8-4.4,11.7-6.7.2-.1.2-.4.3-.7a11.3,11.3,0,0,0-1.8-.3l-11.7-.6a4.4,4.4,0,0,1-2.4-1.8c2.1-5.2-2.4-3.7-4.5-4.5-5.4-2.1-10.9-4.1-16.3-6.3-.6-.2-.7-1.8-1-2.8,1.3-.4,2.8-1.4,4-1.1,4.5.9,9,2.3,13.5,3.4a20.2,20.2,0,0,0,5.5.6c9.5-.2,18.8-.3,27.9-4.4a53.6,53.6,0,0,1,29.4-3.9c4.3.7,8.4,2.6,12.8,3.2,2.1.2,4.6-1.2,6.6-2.4s.6-2.5.9-3.8a11.9,11.9,0,0,1-3.2.3c-1.8-.4-3.8-.8-5.2-1.9s.2-3.2,1.2-4,2.9-.4,4.3-.6,2.1-.5,3.2-.7c-.7-1.8-1-4.9-2.1-5.3-2.9-.9-6.2-.7-9.4-.8a8.6,8.6,0,0,0-.7,3c0,1.4.8,3.6.1,4.3a4.9,4.9,0,0,1-4.4.8,4.8,4.8,0,0,1-2.1-3.8c.2-3.2-1-3.9-3.8-3.1-6.6,1.8-13.3,3.7-20,5.4-.8.3-1.9-.3-2.9-.7s-2-1.4-2.6-1.2c-6.2,2.1-11.9.3-17.6-1.7a16.1,16.1,0,0,1-2.8-1.7c.8-.9,1.4-2.1,2.4-2.5a10.8,10.8,0,0,1,4.4-.8c5.9.1,11.7.7,17.6.6s13.1.3,19.4-1.1c8.9-2,17.6-5.3,26.3-8.5,1.9-.7,3.1-3.3,4.5-5.1a7.6,7.6,0,0,0,.8-2.1,9.9,9.9,0,0,0-2.4-.1c-7.3,1.3-14.6,2.7-21.9,3.9-8.9,1.6-15.8-2.3-22-8a3.3,3.3,0,0,0-1.8-1l-55.7,6.5c-2.5.3-5.1.8-7.6.9-.8.1-1.5-.7-2.3-1.1s.9-2.4,1.6-2.6a163.1,163.1,0,0,1,17-2.9c9.6-.9,19.3-1.1,29-1.8,5.7-.4,11.3-1.2,16.9-1.8a3.4,3.4,0,0,0,1.3-.5,78.1,78.1,0,0,0-1.4-8.2c-.2-.5-2.3-.8-3.5-.7-3.7.1-4.8-2.2-4.1-5.1.4-1.4,2.8-3.5,3.8-3.3s3,2.3,4.3,3.7a10.7,10.7,0,0,1,.8,2.7c.6-.6,1.2-1.1,1.7-1.7s3.3-4.4,5.3-6.2a7.1,7.1,0,0,1,4.5-2c6.7.1,13.3.4,20,.8.8.1,1.7,1.2,2.5,1.8s-1.4,1.7-2.1,1.8l-11.3.9-2.9.5a24.3,24.3,0,0,0,1.6,3.7c.2.3,1.5-.1,2.3-.2,2.8-.5,6-2,6.7,2.4.4,2.1.5,5.5-.8,6.5s-5.1.2-6.6-2.5-9.2-6.2-12.4-4.3c-.9.5-1.5,1.6-2.3,2.4a23.8,23.8,0,0,0,3,1.8c1.1.3,2.4-.2,3.4.1a50.8,50.8,0,0,1,5.1,1.7c-1.7,1.1-3.2,2.4-4.9,3.3a14.5,14.5,0,0,1-3.6.8,31.8,31.8,0,0,0,3.4,3.1c10.2,6.7,20.7,1.2,31,.5,3-.2,5.9-1.3,8.9-1.5a4.4,4.4,0,0,1,3.4,1.9,6,6,0,0,1,.5,4.5c-2.3,4.8-5.2,9.1-10.6,11.1-.5.1-.9,1.8-.6,2.2,4.3,4.5,5.8,17.3,2.7,22.6s-11,8.6-20.1,5.6c-13.4-4.5-26.2-2.4-39,2.2-4.9,1.7-10,2.7-15,4l-2.4,1c.9.5,1.8,1.5,2.8,1.5,3.4.2,6.8.1,10.2.1Z"/>
      <path d="M909.2,887c-4.3-.8-8.6-1.4-12.9-2.6s-4.9-5.4-1.8-8.2a42.1,42.1,0,0,1,27.6-11.3c7-.3,14-3.8,20.8-6.5s14.7-6.1,21.8-9.7c4.6-2.3,8.7-5.5,13-8.3l5.1-3.5c.4-.2.6-.7.9-1.1s-1-.3-1.4-.1c-6.7,1.7-13.4,3.3-20,5.2l-33.5,10c-8.5,2.5-17.3,3.7-25.7.8-3.5-1.2-8-5.4-8.3-8.5s3.3-7.9,6.4-10.3c5.2-4,11.4-6.7,17.1-9.9s7.1-6.4,5.7-12.2,0-7.6,6.6-9.5,15.5-5.8,23.4-8.2c2.6-.8,5.7.1,8.5.6.2.1.5,4.2-.5,4.9a17.2,17.2,0,0,1-7.1,2.9c-2.6.6-5.5-.1-8.1.6a49.9,49.9,0,0,0-10.6,3.9c-1.6.8-3.6,3.2-3.5,4.6,1.3,10.4-5.2,15.2-13.2,19.1a90.6,90.6,0,0,0-12.2,6.8c-2,1.4-3,4.2-4.4,6.4,2.4,1.5,4.9,4.5,7.2,4.4a115.6,115.6,0,0,0,23.5-3.2c13.8-3.5,27.3-7.8,40.9-12,8-2.5,14.7-6.3,17.3-15.3.9-3.4,3.3-6.5,5.1-9.7s1.2-7.1-2.6-8.6-8.3-1.8-12.4-2.8a39.5,39.5,0,0,1-6-2.4c-.2-.1,0-2,.3-2.1,2-.8,4.1-1.7,6.2-1.6a98.3,98.3,0,0,1,11.9,1.3c9.3,1.5,15.9,10.4,7.7,21-1.8,2.4-2.8,5.5-4.5,8.2s-5.3,7.5-7.9,11.3l-.9,1.4c.6,0,1.3.1,1.7-.2,3.9-2.8,7.5-5.8,11.5-8.4,1.8-1.1,4.1-1.3,6.1-1.9-.2,1.9,0,4.1-.7,5.8-2.2,5.1-4.7,10.1-7.2,15-5.3,10.5-15,15-25.1,19.3s-22.1,9.6-32.8,15S921.2,886.6,909.2,887Zm5.5-6.7.3.9c6.2-1.8,12.8-2.7,18.6-5.4,12.4-5.7,24.5-12.2,36.6-18.5a203.9,203.9,0,0,0,18.1-10.6c1.6-1,2-3.7,2.9-5.6-1.8.7-3.7,1.3-5.4,2.1a27.8,27.8,0,0,0-2.7,2.1c-6.6,4.2-12,10.3-20.5,11.8-5.3.9-10.6,3.5-15.3,6.3-8.2,4.8-16.8,7.1-26.1,8.2-4.7.6-9.1,2.8-13.6,4.5-1.2.4-2.1,1.7-3.1,2.6,1.4.3,2.8.8,4.2,1S912.7,880.1,914.7,880.3Z"/>
      <path d="M491.3,607c4.5-1.6,9.4-2.5,13.4-4.9s7.7-2.3,9.1,3c.1.8,1.8,1.7,2.6,1.5,5.3-1,10.6-2.1,15.7-3.6,8.1-2.4,16.1-5.5,24.2-7.9,10.5-3.1,21.2-5.7,31.7-8.7,4.7-1.3,9.2-3.4,13.8-4.9,6.2-2,12.5-3.7,18.7-5.6,2.7-.9,5.1-2.4,7.8-3.1,10.2-2.5,20.4-4.7,30.6-7.1,1.5-.4,3-1.9,4.5-1.8s4,1.4,6.1,2.1c-1.3,1.5-2.3,3.4-3.9,4.6-3.5,2.6-7,5.3-10.9,7.1a190.8,190.8,0,0,1-20.4,8.5c-21.7,7.4-43.3,14.6-65.1,21.5-15.1,4.8-30.3,9-45.6,13.1-4.9,1.3-9.3-.5-12.2-5.3-1.7-2.8-3.3-4.3-7.5-2.2-10.4,5.5-21.1,10.7-32.1,14.5-5.6,2-12.2.9-18.4.8-.7,0-1.4-2.5-2.1-3.8,1.2-.2,2.5-.9,3.5-.6a28.6,28.6,0,0,0,21.8-2.9c5.7-3.1,11.7-5.8,17.5-8.8a9.3,9.3,0,0,0,1.5-1.3c-.6-.2-1.4-.7-2-.6-10.9,2.5-21.9,4.5-32.6,7.8s-22.3,8.4-33.5,12.3c-1.7.6-4-.7-6.1-1.1,1.4-1.6,2.5-4,4.2-4.6,14.3-4.9,28.6-9.7,43-14,7.3-2.2,15-3.3,22.5-4.9Zm31.6,9.2c7.8-1.5,15.3-2.3,22.2-4.6,10.9-3.6,21.4-8.5,32.1-12.4s20.1-6.8,30.2-10c7.3-2.4,14.9-4.2,22.2-6.7s11.9-4.5,17.9-6.9c.6-.3,1-1.3,1.5-1.9s-1.1-.6-1.6-.5c-4,.8-8.2,1.4-12.1,2.6-13.4,4.1-26.6,8.3-39.9,12.6l-34.8,11.3c-8.2,2.6-16.4,5.3-24.7,7.6-4.3,1.2-8.9,1.4-13.2,2.6-1.5.4-2.5,2.5-3.8,3.9Z"/>
      <path d="M499.1,680.3c-3.1.5-5.2,1.2-7.3,1.2s-2.7-.9-4.1-1.3c1.1-1.6,2.1-4.4,3.2-4.4a137,137,0,0,1,20.2,1.3c5.3.8,10.5,2.7,15.7,4.1s6.8,4.5,8.5,8.3c3.2,7.6,6.3,15.3,9.4,23a7.7,7.7,0,0,0,1.9,2.8c3.4,3,2.7,4.2-1.3,6.6-11,6.9-22.6,5.7-33.8,2.8-7.8-2.1-14.8-6.8-22.4-9.8-9.5-3.9-19.2-7.3-28.9-10.7-15.7-5.4-31.6-10.4-47.2-16-7-2.6-10.7-9.1-14.5-15.1-5.1-8-10.2-16-15.1-24.1a10.5,10.5,0,0,1-1.5-5.4c0-1.5,1.2-3,1.8-4.4,1.6.8,3.8,1.2,4.6,2.5,4.2,6.7,7.7,13.9,11.9,20.6s8.4,17.1,17.6,21.4a119,119,0,0,0,13,4.8L471,701.7c8,2.6,16,5,23.8,7.9,4.6,1.8,8.5,5.3,13.2,6.5a138.4,138.4,0,0,0,22.3,3.7c3.6.3,6.5-2,5.1-6.3-2.6-8.2-5.1-16.4-8.8-24.2-1.1-2.4-5.5-3.7-8.6-4.6C511.5,682.8,504.9,681.6,499.1,680.3Z"/>
      <path d="M1076.5,823.2c-7.6,1.8-15.1,4-22.7,5.4a12.6,12.6,0,0,1-8.1-1.3,30.1,30.1,0,0,1-8.1-7.4c-.9-1.2-.2-4,.6-5.6s3.3-.7,4.5,0a16.8,16.8,0,0,1,5.5,5.1c2.9,4.6,6.4,2.7,10.2,1.8a159.4,159.4,0,0,1,16.7-3.4c11.6-1.4,22.4-2.6,31.1-12.6,5.8-6.6,14.9-10.4,22.8-14.9,10.5-5.9,21.5-11,31.9-16.9,6.2-3.6,11.9-8,17.8-12.1a12.1,12.1,0,0,0,2.1-2.4h-2.9c-7.2,1.4-14.5,2.6-21.6,4.3a155.6,155.6,0,0,0-16.4,5.1c-8.4,3-16.9,5.9-25.2,9.4a132.8,132.8,0,0,0-17.5,9.2c-11.9,7.3-23.4,15.1-35.2,22.5-1.4.9-3.6.7-5.3.5s-1.2-1.7-1.4-2.7.5-1.2,1-1.4c3.8-2.1,8.4-3.3,11.3-6.2,12.2-11.9,28-17,42.9-23.7,9.2-4.2,18.4-8.3,27.9-11.8s18.2-5.6,27.4-8.1c5.9-1.6,11.9-2.7,17.9-4a9.9,9.9,0,0,1,4.5-.3c1.6.5,4,1.5,4.4,2.7s-1,3.5-2.2,4.7c-13.2,12.7-29.6,20.7-45.4,29.4-9.3,5.2-19.1,9.6-28.2,15.1-4.8,2.9-8.6,7.3-12.7,11.1C1096.3,822.1,1086.4,822.6,1076.5,823.2Z"/>
      <path d="M1134.1,712.5a35.1,35.1,0,0,0-18.7,7.4c-1,.7-3.6.8-4.2.1-2.1-2.6-4.9-5.7-1.3-9,.8-.8,3.5.5,5.3.8s2.1.5,2.8.1c10.3-6.1,20.7-6.8,31.6-1.1,5.5,2.9,5.9,8.1,1.2,12.2s-6.9,7.3-10.2,11.1c-.4.3-.3,1-.4,1.6s1.6.2,2.1-.2,2.1-2.4,3.2-3.6,1.9-2.7,3.1-3,4-.1,5.9-.1c-.5,2-.4,4.5-1.7,5.9-3.2,3.4-6.9,6.4-10.4,9.6a7.4,7.4,0,0,0-1.2,1.7,16.2,16.2,0,0,0,2.2.1c5.3-.9,10-2.6,13.6-7,.6-.8,2.9-.3,4.4-.5-.1,1.1.1,2.4-.4,3.1-4.6,7-11.9,9.6-19.7,11.5a16.2,16.2,0,0,1-4.8.6c-2.4-.3-5.5-.6-6.8-2.1s.8-4.2,1.4-6.4a10.9,10.9,0,0,1,.5-1.7,5.3,5.3,0,0,0-1.8.4c-12.4,8-26.1,11.9-40.7,13.7-5.1.7-10,2.7-15.1,3.2a25.8,25.8,0,0,1-10.2-1.7c-3.9-1.4-4-7.8-1-10.8,5.6-5.6,13.2-6.4,19.9-9.4a112.1,112.1,0,0,0,18.3-10.7c2.7-1.8,5-4.4,7.7-1.5s.3,5.1-2.4,6.4l-24.7,12.7c-3.3,1.6-6.6,2.9-9.8,4.6-.9.5-1.4,1.8-2.1,2.8,1.3.6,2.7,1.9,3.9,1.8,18.3-2.1,36-6.7,51.9-16.1,5.1-3,8.5-8.9,12.7-13.4,1.7-1.8,3.2-3.7,5-5.4s2.4-3.7-.8-4.8Z"/>
      <path d="M1316.4,572.6c-9.4,1.7-17.5,3.3-25.7,4.6-6.6,1-12.9,4.9-19.9,1.3-.7-.3-2.4,1.9-3.8,2.2-5.4,1-10.9,2-16.4,2.5a6.5,6.5,0,0,1-4.8-2.3c-4.7-7-10.9-7.1-18.2-5-12.3,3.5-24.7,6.5-37,9.7a4.8,4.8,0,0,0-1.6.8,6.3,6.3,0,0,0,1.1,1.2c3.2,2.5,7,5.5,4.6,9.6a17.1,17.1,0,0,1-9.2,7.5c-6.4,2-13.3,2.6-20,3.5-4,.6-6.2-2.2-5.8-6.3s-.2-5.5,0-8.3c.5-5.6,6.7-12.2,11.7-12.3.8,0,2.3,1.9,2.2,2.8s-.9,4-2.1,4.5c-4.3,2-7.1,6.3-5.6,10.7.4,1.2,2.7,2.6,4.1,2.5a105.9,105.9,0,0,0,14.8-2.3c1.2-.2,2-1.9,3-2.9a17.6,17.6,0,0,1-2.8-2.6,18.3,18.3,0,0,1-2.1-4.2c-.3-1-.2-2.2-.5-3.2s-1.9-3-1.6-3.5a7.8,7.8,0,0,1,4.1-2.6c10.6-2.1,21.3-3.8,31.8-6.1,6.6-1.4,12.9-4.3,19.6-5.4,3.2-.6,8.6.2,10.1,2.4,5.2,7.7,11.1,5.4,17.7,3.2,1.4-.5,3.3.5,5,.9s1.6.8,1.8.6c6-5.9,13.9-1,20.6-3.7,3.6-1.4,7.9-1.2,11.7-2.4,2-.6,3.7-4,5.3-3.8,6.6.5,13.1,1.9,19.7,3,.2,0,.4.3.6.4,4.6,2.1,10.1,3.8,7.9,10.6s-11.2,13-17.2,11.8c-1.4-.3-3.6-1.4-3.7-2.4s.4-4.3,1.6-5.2,5.9-2.9,8.9-4.3a15.9,15.9,0,0,0,2.2-1.3c-.5-.6-.9-1.5-1.5-1.8C1323.2,575.3,1319.5,573.9,1316.4,572.6Z"/>
      <path d="M661.9,584.2c7.4-.4,14.9-1.5,22.3-1a65.6,65.6,0,0,1,18.3,4.6c3.6,1.3,3.9,4.9-.2,6.5s-9.9,2.5-14.8,3.9-8.1,2.3-11.7,4.3c-6,3.2-11.5,7.5-17.7,10.5-2.7,1.4-6.6.5-9.9.9-7.4,1-15,1.7-22.3,3.5-10.6,2.6-20.7,6.9-31.4,9.1-5.7,1.2-11.6-1.5-15.8-6.3-2.1-2.4-.8-5.7,2.2-6.6,7.2-2.1,14.7-3.8,21.7-6.7a137.6,137.6,0,0,1,36.5-10.1c2.8-.4,4.8-1,5.7-4.3s8.2-8.3,14.5-8.1l2.6.2Zm8.9,3.7c-4.6.8-10.6,1.6-16.4,3-1.4.3-3.5,2.9-3.2,3.7,1.7,5.3-1.7,6-5.3,6.7s-8.8,1.9-13.3,2.6c-14.4,2-27.7,7.4-40.8,13.6a16.7,16.7,0,0,0-2.4,1.6c1,.6,1.9,1.6,3,1.8a34.5,34.5,0,0,0,24.5-5.1c6.4-4.1,12.5-8.1,20.6-7.6,5.1.3,10.5,1,15.3-.3s12.5-3.9,16.8-8.1,12.5-5.7,18.7-8.5l2.5-1c-.9-.5-1.8-1.5-2.8-1.5C682.8,588.4,677.5,588.2,670.8,587.9Z"/>
      <path d="M533.3,897l20.6,2.5c1.9.2,4-.4,6-.2s6.6-1.9,6.2,2.5c-.1,1.5-5,3.7-7.7,3.7-7.4-.2-14.8-1.6-22.2-1.9-2-.1-5.7,2.1-5.9,3.7-.8,5.3-4.6,7.4-8.5,9.3-5.6,2.6-11.6,4.3-17.1,7.1-7.2,3.8-14.1,8.2-21,12.6-.5.3-.6,2.7,0,3.4,1.7,2.4,4,6.3,5.9,6.2,4.3-.3,8.5-2.6,12.8-4.1,1-.3,2.2-1,3.2-.8a31.4,31.4,0,0,1,5.8,2.2c-1.5.8-2.9,1.7-4.5,2.4s-3.6,1.2-5.3,2a25.3,25.3,0,0,0-3.6,2c1,.4,2.3.6,2.8,1.3a4,4,0,0,1,0,2.9c-3.8.6-7.7.8-11.5,1.4-6,1-12.2,1.5-17.9,3.5-4.2,1.4-7.8,4.7-11.4,7.5-1,.8-2,3.3-1.6,4s3,2.8,4.5,2.7,4.9-1.7,7.5-2.3,4-.5,5,.4a5.7,5.7,0,0,1,1.2,5c-.5,1.3-2.8,2.5-4.4,2.6-5.2.2-10.7.7-15.8-.4-2.7-.7-5.4-4-7-6.7s-1-7.3,3.1-9.6,7.7-5,11.8-7.1,9.1-3.9,13.5-6c.8-.4,1.7-2.1,1.4-2.6-1.4-2.3-3.1-4.3-4.7-6.5s-.5-5.8,2.2-7.4c5.4-3,11.1-5.6,16.6-8.5,7.2-3.7,14.5-7.2,21.3-11.5,3.3-2,6.1-5.2,8.6-8.3S527.9,896.3,533.3,897Z"/>
      <path d="M560.7,724.3c6.7,1.3,13.1,2,19.2,3.8,2.7.8,5.4,3.3,7.1,5.8,3.3,4.7,7.3,4.9,12.2,3.4s10.1,1.2,13.9,4.6,8.1,8.9,12.4,13.1,7.9,8.8,7.9,15.6,4.6,9.7,12.2,10.8c10.8,1.6,19.1,9.4,19.5,20.3.3,7.7,4.1,12.9,8.2,18.5a65.5,65.5,0,0,1,7,11.2c.7,1.5-.1,5.2-1.3,5.8s-4.2,1.8-6.3-2.3c-3.4-6.5-9.6-11.5-14.2-17.4a8.4,8.4,0,0,1-1.8-5.8c1.6-8.3-1.2-18.2-7.1-21a93,93,0,0,0-16.4-5.5c-5-1.1-8.3-4-7.9-9.2.6-10-3.2-17.6-11.3-23.3a3.5,3.5,0,0,1-1.5-1.1c-5.2-8-12.5-9.2-21.2-7.6-2.4.5-6.3-.7-7.7-2.6-6.8-9.2-16.5-10.1-26.6-10.3a7.5,7.5,0,0,1-3-.2,13.2,13.2,0,0,1-2.9-1.9c.6-.9,1.1-2.2,2-2.5C555.6,725.6,558.2,725,560.7,724.3Z"/>
      <path d="M866.4,807.7c-2.4-1.8-5.9-3.1-7-5.5-3-6.7-9.4-8.9-14.9-12.1s-8.9-4.7-8.7-10.6c.2-4.2,6.2-8.5,11.8-9.8s10.4-2.9,15.6-4.5c2.6-.7,2.7-1.7.5-3.4-5.3-4.2-5.6-7.3,0-10.9s10.7-5.1,15.9-7.9,12.4-8.3,19.2-10.7,12.6-1.7,18.9-1.9c1.2,0,2.4,2.8,3.6,4.3-1.4.4-2.9,1.2-4.3,1.3-7.7.4-15,.2-21.6,6-4.2,3.7-10.5,5-15.9,7.3-2.5,1.1-5.2,1.6-7.6,2.9s-3.4,4.4-1.3,7.1c4.6,6,3.6,9.9-3.7,11.8-5.6,1.5-11.4,2.3-16.9,3.8-2.5.7-4.8,2.4-7,4-.5.3-.3,2.7.3,3.1,6.1,4,12.3,7.9,18.5,11.7.4.3,1.2.2,1.3.5,3.9,9,10.8,4.8,16.5,3.3s9.6-4.2,14.4-6.4c.8-.4,2.2-1.4,2.1-1.8-1.8-7.4,5-5.6,8.1-7.5a71.8,71.8,0,0,1,9.5-5c2.4-.9,5.2-.8,7.7-1.1-.7,2.3-.8,5.5-2.4,6.7-6,4.6-12,10.5-19,12.5-11.2,3.2-19.7,13.8-32.8,11.3Z"/>
      <path d="M584.9,971.6l2.3.2h4.7c-.7-1.4-1.9-2.8-2.1-4.2-.3-3-1.1-6.5,0-9,3.9-9.4,13-13.2,21.2-17.6,9.8-5.2,20.1-9.5,29.3-15.5,5.1-3.3,8.6-3.7,14-1.6s9,3.9,11.1,8.6c.5.9-1.7,3.3-3.1,4.6s-2.5-.8-3.5-1.6-3.1-3.6-5.1-4.4c-7.2-2.8-13.3,1.5-19.5,4-10.8,4.1-21.2,9.1-30.2,16.5a23.4,23.4,0,0,0-3.2,3.1,31.1,31.1,0,0,0-2.2,4,18.5,18.5,0,0,0,4.7-.8,48.7,48.7,0,0,0,6-3.1c.1.6.5,1.3.3,1.7-1.7,2.9-3,6.3-5.4,8.4s-6.7,4-10.1,5.9c-.1.1.1,1.3.4,1.4,6.4,2.3,18.5,2,23.7-3.5.5-.5,1.2-1.1,1.3-1.7.8-7.5,5.5-11.2,12.3-13,8.8-2.3,17.6-4.7,26.5-6.8,3.8-.9,4.9,1.3,3.3,4.3s-3.8,5.3-5.8,7.9l-3.6-2.8c-.7-.6-1.5-1.9-2-1.8-10,2.3-19.5,5.2-25.5,14.6-3.8,5.9-8.9,8.8-16.6,9.8a72.4,72.4,0,0,1-22.8-.8c-1.7-.3-3-2.3-4.5-3.6C582.4,973.5,584.1,972.2,584.9,971.6Z"/>
      <path d="M786.3,965c-12.2.2-24.3-1.4-34.7-7.6-6.3-3.8-11.8-1.6-17.7-1.5a5.4,5.4,0,0,0-4,2c-5.6,8.8-15.1,10.2-24,12.9-5.5,1.7-11.2,2.9-16.9,4.1-1.3.3-2.9-.4-4.4-.6.7-1.2,1.1-3,2.1-3.4,5.5-2.2,11.3-4,16.9-6.1s11.9-4.7,17.7-7.4c.7-.3.8-2.2,1.1-3.3s.3-3.6,1.2-4.8,2.5-1,3.9-1.1c6.9-.3,13.9-.5,20.9-.6,2,0,5.2-.1,5.8,1,3.4,6.4,9.8,7,15.7,8.1a86.7,86.7,0,0,0,16.9.9c8.2-.2,14.4-5.5,16.8-13.4.3-1.2,1.3-2.3,1.8-3.6s2.5-5.7-1.3-7.4-2.3-5-.9-7.2,4-.7,5.7,0c8.2,3.8,7.5,7.6,3.8,15.1-1.9,4-3.3,8.3-5.4,12.2C802.8,961.5,795.1,964.3,786.3,965Z"/>
      <path d="M831,791.2c.1,4.5-6,13-10.1,14.4-.3.1-1.3-.6-1.4-1s-.8-3.4-.1-4.3c3.1-4,2-7.1-.3-11.2s-2.3-3.6-5.1-2.2c-5,2.5-9.9,5.2-15.1,7.2-2.8,1.1-6.8,3.6-7.8-2.5a2.8,2.8,0,0,0-2.1-1c-6.4,3.7-12.6,7.8-19.1,11.3s-13.3,6.1-19.6,9.6-13.9,8.4-20.5,13.1a111.3,111.3,0,0,0-11.1,9.5c-.8.7-1,2.1-1.4,3.2l4.3,1.7,5.6,1.7c-1.2,1.5-2.1,3.6-3.6,4.5-6.7,3.6-13.6.7-15-6.3a6.4,6.4,0,0,1,1.6-5.1c4.9-4.5,10.6-8.1,15.2-12.9,8.9-9.3,19.9-14.3,31.9-18.3,5.9-1.9,11-6.1,16.4-9.3s9-5.5,13.7-7.7c1.2-.6,3.2.9,4.8,1.1s5.4.9,7.7.2c6.7-2.2,13.2-5.2,19.9-7.5,1.1-.4,3.3.7,4.3,1.8a60.5,60.5,0,0,1,5.7,7.4A18.5,18.5,0,0,1,831,791.2Z"/>
      <path d="M1002.4,559.2c-5.8-.6-11.1-1.5-16.3-1.6-8.2-.3-16.4,0-24.6-.1-1.2-.1-3.3-1.3-3.3-2,0-3.5-.2-6.5-4.6-6.7a51,51,0,0,0-8.7-.3,107.7,107.7,0,0,0-11.3,2.3c-6.2,1.6-12.4,3.4-18.6,4.7-1.8.4-3.8-.2-5.6-.8-.3-.1-.5-2.8.1-3.3a16.5,16.5,0,0,1,5-2.4l20.7-6.3a45.1,45.1,0,0,1,5.3-.9c3.9-.7,7.9-1.3,11.8-2.1s6.6.3,7.9,4.4a3.5,3.5,0,0,0,2.8,1.8l27.1-.3c.9,0,1.9,1.3,2.8,2-.9.7-1.9,2-2.8,2.1-6.4.3-12.9.2-19.3.4a6.6,6.6,0,0,0-2.5,1c.8.3,1.5.9,2.3.9,9.5.6,19.1,1.8,28.5,1.4,7.4-.3,14.8-2.4,22.1-3.9a4.6,4.6,0,0,0,2.6-2.7c.2-.6-1.2-2-2.1-2.6-5.7-3.7-11.8-6.3-18.8-5.9l-3.4.4-3.1.7c1-1,1.9-3,2.9-3,5.4-.4,11-1.2,16.1-.1s9.9,4.1,14.4,7,2.4,8.3-1.5,9.4C1019.6,555.2,1010.7,557.2,1002.4,559.2Z"/>
      <path class="cls-6" d="M115,894.6c-6.5.9-10.9-1.9-15.6-6.3-3.1-2.9-9.1-4.1-13.6-3.6-11.2,1.1-22.4,3.4-33.5,5.6-5.9,1.1-11.5,3.6-17.5,4.2a46.4,46.4,0,0,1-16.2-1.2c-5.4-1.6-9.9-1-15,.5-9.2,2.7-18.9,3.8-28,6.7s-18.8,7.3-28.2,10.9c-1.4.5-3.1.1-4.6.1.9-1.5,1.5-3.7,2.8-4.1,12-4.6,24.1-8.9,36.3-13,5.6-1.8,11.6-2.7,17.3-4.3a27,27,0,0,0,6.1-2.5c6.7-3.4,13-1.7,19.5.5s16.1,1,23.2-2.1c14.2-6,29.2-6.1,44-7.2,5-.3,10,.3,13.7,5.5s9.1,6.4,15.2,5.7c1.3-.1,2.6,1.2,4,1.8-1.3.9-2.5,2.4-3.9,2.7S117,894.6,115,894.6Z"/>
      <path d="M745.1,550.6a8,8,0,0,0-.3,2.6c.7,3.3-.4,4-3.8,4.5-5.4.9-10.5,3.2-15.8,4.8-2.7.8-6.2,2.2-7-2s2.4-3.8,5.2-4.2,7.9-1.3,11.8-2.1c.3-.1.5-1,.8-1.5s-1.9-1.3-2.7-1.3c-4.1.2-8.2.8-12.3,1.1-.8.1-2.4-.1-2.4-.3-.5-6.6-5.7-2.8-7.3-2.3-6.6,2-12.8,5.1-19.2,7.8a15.4,15.4,0,0,1-3.1.5c-.1-1.2-.7-3-.2-3.4,3.9-2.7,7.7-6.4,12.1-7.5,8.3-2.1,17-2.6,25.5-3.8l24.8-3.7,1.3-.4c-.4-.4-.9-.6-1.2-1s-3.6-3.8-3.4-5.5a13.6,13.6,0,0,1,3.5-7.9,8.6,8.6,0,0,1,6.9-2c2.1.6,5.2,3.5,5,5-.3,3-2.5,5.8-4.2,8.6a10.4,10.4,0,0,1-2.5,2c.8.2,1.9.1,2.3.6,1.8,2.5,4.1,4.9,4.8,7.7.3,1-3.2,4.1-5.2,4.3-4.4.5-8.9-.3-13.4-.6l-2,.6a1,1,0,0,1,.1.3Zm7.1-4.6a5.6,5.6,0,0,0-1.9-.7c-.3,0-.6.5-.9.8a4.2,4.2,0,0,0,1.4.9C751.1,547.1,751.5,546.5,752.2,546Z"/>
      <path d="M809.3,858.6c-2.9,0-5.9.5-8.6-.2a6.8,6.8,0,0,1-4.1-4.3c-.3-.9,1.7-3,3-4.1,5.6-4.2,11.1-8.6,17-12.3,4.2-2.6,7.4-6.1,10.7-9.6.9-.9,3.4-.9,4.6-.3s1.2,3.6.6,4.1c-4.8,4.2-9.9,8-14.9,11.9l-7.6,5.6a19.5,19.5,0,0,0-1.7,2.3,8.6,8.6,0,0,0,2.8,1,54.7,54.7,0,0,0,22.4-5.1c5.1-2.5,8.8-5.7,10.2-11.2,2.6-10,10.8-14,19.1-18a16.2,16.2,0,0,0,2-1.8,18.5,18.5,0,0,0-3.3-.1c-1.7.4-3.4,1.4-5.1,1.6s-2.5-.8-3.7-1.2c.4-1.1.6-3,1.4-3.3a105.2,105.2,0,0,1,11-3c2.1-.6,4.2-1.3,6.3-1.8s4.3-1.2,5.3-.4a13,13,0,0,1,4.2,6.3c.2.6-2.5,2.5-4,3.4-7.9,4.8-16.1,9.2-23.7,14.4-2.2,1.4-2.5,5.4-4.3,7.7C838.7,852.8,825.8,859.6,809.3,858.6Z"/>
      <path d="M759.8,909.1c-2.3-.3-4.4-.4-6.5-.8-6.6-1.4-9.5-8.4-4.9-13.4a208.2,208.2,0,0,1,18.3-16.8c2.2-1.8,5.5-2.3,8.3-3.2s7.2-1.6,9-5.9c.5-1.2,4.2-2.1,6-1.6a127.6,127.6,0,0,1,15.7,5.6c1.2.6,1.8,2.4,2.7,3.6-2,1.3-4,3.5-6,3.5s-6.5-1.5-9.8-2.3c-.7-.2-1.4.2-2.2.3a12.2,12.2,0,0,0,1,2.3c5.5,6,5.5,13.3-1.4,18C781,904.6,770.9,908.8,759.8,909.1Zm-.7-5.7c11.5,0,19.5-4.5,26.8-10.1,3.4-2.7,2.8-7.3-.8-9.6-.7-.5-1.8-.9-1.8-1.5-.3-4.3-3.3-3.1-5.1-2-6.4,3.5-13,6.8-18.6,11.3-2.8,2.3-3.7,6.9-5.5,10.4Zm28.1-25.8-1.1,1c.4.2.7.5,1.1.5s.6-.3.9-.5Z"/>
      <path d="M640.9,882.7l-12.7,2.8a4.9,4.9,0,0,1-2.4-.7c.3-1.7.5-4.8,1.4-5a112.5,112.5,0,0,1,15.4-2.6c5.8-.5,12.2-9.5,10.1-14.8a3.5,3.5,0,0,0-3.2-1.2c-10.9,2.5-22,4.5-32.5,8.2-6.7,2.5-12.8,7.2-18.7,11.5s-8.7,7.8-13.2,11.4c-1.2,1-3.2.8-4.9,1.2-.1-1.4-.9-3.3-.3-4.1a60.3,60.3,0,0,1,8.6-8.9c4.1-3.2,8.5-5.8,12.8-8.6,9.6-6,18.9-12.4,30.9-13.4,5.6-.5,11.1-2.8,16.5-4.7,9.1-3.3,15,1,12.8,10.4-1.4,6-4.4,11.9-7.7,17.2-1,1.8-5.1,2-7.8,2.5s-3.3-.3-4.9-.4A2.4,2.4,0,0,1,640.9,882.7Z"/>
      <path d="M507.9,645.7c6.1-2.3,12.3-4.3,18.3-6.9a114.1,114.1,0,0,0,12.8-7c.6-.4.6-1.7.9-2.6s-1.8-.9-2.6-.7c-15.1,3.3-30.3,6.1-45.2,10.4-11.8,3.4-23.2,8.7-34.7,13.1a55,55,0,0,1-7.5,2.5c-.8.2-2.6-.6-2.7-1.2s.2-2.9.9-3.2c8.8-3.9,17.6-8,26.6-11.3s18.5-5.8,27.8-8.2,18.3-3.8,27.4-6c3.1-.7,6-2.6,9-3.6s5.4-1.6,5.9-.8c1.7,2.4,3.3,5.5,3.1,8.3-.3,5.6-5,8.9-9.6,10.7-10,3.9-20.3,7.1-30.5,10.4-1.6.5-3.6,0-5.4-.2-.1-.1-.4-2.2,0-2.5a47.4,47.4,0,0,1,5.1-2.4Z"/>
      <path class="cls-6" d="M182.6,690.1c-6.3-.4-12.6-1.5-18.7-.7s-11.4,3-16.7,5.3a18.6,18.6,0,0,1-13.9.6c-10.3-3.5-20.6-7.1-31.2-9.7-5.2-1.2-11.1,0-16.6-.5-3.6-.2-7.2-2.2-10.6-1.9a135.4,135.4,0,0,0-20.1,3c-6.8,1.6-10.5-3.9-15.6-6.2a1.9,1.9,0,0,1-.4-1.6,2,2,0,0,1,1.6-.7c2.5.6,5.2.9,7.5,2,4.9,2.6,9.6,1.3,14.3-.1a35.2,35.2,0,0,1,20.1-.4c5.7,1.6,12.2.2,18.2,1.3,8,1.6,15.9,4.2,23.9,6.4,10.3,2.9,20.1,4.5,30.1-2.2,3.3-2.2,8.9-1.3,13.4-1.3s10.8,1.2,16.1,1.2c2.7,0,5,.1,4.7,3-.1,1-3.2,1.8-5,2.6-.3.2-.8,0-1.1,0Z"/>
      <path d="M596,922.3c6-1.6,12-3.4,18.1-4.8,3.7-.8,7.6-1.1,9.4,3.5.1.4-.6,1.8-1.1,1.9-4.2.7-8.3,1.2-12.5,1.7-7.8,1-15.7,1.8-23.6,3-5.7,1-11.4,1.6-14.1,8.7-1.5,3.9-6,6.6-9,10a57.3,57.3,0,0,0-6.9,8.7c-3.5,6-9.3,8-15.4,9-3.3.5-7-.3-10.2-1.3-.7-.2-1.1-5.2,0-6.1,6.9-5.7,13.6-12.7,21.7-15.6s11.7-10.8,19.2-13.4,15.8-5.1,23.7-7.6A20.2,20.2,0,0,1,596,922.3Zm-54.6,37.2,8-6c-.4-.5-1.2-1.5-1.3-1.4a67.3,67.3,0,0,0-7.3,4.4C540.5,956.7,541.1,958.1,541.4,959.5Z"/>
      <path d="M719.3,933.7c-11.5-.9-21.1,9.4-24.1,19.1-1.2,3.7-2.4,6.4-6.7,6.1-.8-.1-1.6-.9-2.4-1.3s-3.6-2.3-4.6-1.8a128.8,128.8,0,0,0-16.8,9c-3,2-4.9,5.7-7.7,8s-5,2.9-6.2,2.1c-3.2-1.9-2.1-5.1.1-7.4,4.1-4.3,7.8-9.4,12.9-12.1s13.3-4.1,20-6.3a14,14,0,0,0,5.9-3.1c4.5-4.6,8.2-10.3,13.3-14.1s13.6-5.2,21.1-4.2c4.1.6,8.5-.4,11.9,3.4s3.3,9-.6,11.4c-.9.5-4.9-1.9-4.8-2.5,1-6.7-4.4-5.1-7.6-6.2C721.9,933.4,720.6,933.7,719.3,933.7Z"/>
      <path d="M1213,727.7l-20,2.8c-2.9.4-5.7,1.4-8.6,1.3-.7,0-2.4-3.7-1.8-4.6a23.7,23.7,0,0,1,6.8-7.3c1.8-1.2,4.5-.5,3.2,3.1-.2.4,1.5,2.1,1.8,2,7.6-2.9,15.3-2.4,23.2-1.8s16.5-8.6,18.8-14.9c.9-2.5-1.1-6-1.9-9a3.3,3.3,0,0,0-2.4-.2c-4.4,7.5-13.4,5.7-19.6,9.6s-10.3,5-15.4,7.4a12.7,12.7,0,0,1-3.6,1.2c-.6.1-1.3-.4-2-.7s.5-1.4,1.1-1.8c10.9-8.1,22.2-15.3,35.9-17.9,2-.4,3.5-2.9,5.2-4.5l3.2-3.1a29.7,29.7,0,0,1,2.7,3.5c.8,1.5.9,3.4,1.8,4.9,3.2,6,3.4,11.5-1.3,17.1a40.9,40.9,0,0,1-26.6,14.9C1213.3,729.1,1213.2,728.4,1213,727.7Z"/>
      <path d="M1251.9,549.4c-5.8.9-11.7,1.9-17.5,2.6s-8.8-2.8-6.8-8.5a12.6,12.6,0,0,0,.2-3.9,31.6,31.6,0,0,0-3.2.3c-3.4.7-6.6,1.8-10,2.3-1.5.2-3.3-.6-4.7-1.4s-.6-2.2-.2-2.6a13.1,13.1,0,0,1,4.5-2.4c4.3-.8,8.6-1.4,13-1.9,2.6-.2,5.4,0,8.1,0-.1,2.8.5,5.9-.5,8.5s.1,3.5,2.3,3.4c8-.2,16.1-.4,24.1-1.1,5.6-.6,6.7,3.2,7.5,6.9s2.8,5.4,6.9,4a7.2,7.2,0,0,1,5-.2c1.2.6,1.6,2.7,2.4,4.1-3,1.4-2.3,3.7-1.9,6.4.2,1.1-2.2,3.9-2.5,3.7-2.3-.9-5.8-2-6.4-3.9-1.2-3.8-2.9-3.8-6.3-3.4a56.7,56.7,0,0,1-15.4-.1c-1.9-.3-3.5-3.6-4.7-5.8-.3-.7,1-2.9,2-3.3s2.7.2,3.9.7c3.4,1.3,6.6,2.9,10,4.2.3.1,1.9-1.8,1.7-2.2-1.5-3-2.7-6.5-7.2-5.9a29.4,29.4,0,0,1-4.2,0Z"/>
      <path d="M862.8,884c-16.6.7-21-10.9-17-20.1,1.4-3.3,5.9-5.2,9.1-7.6,6.4-4.7,12.8-9.4,19.4-13.8,1.8-1.2,4.4-1.4,6.6-1.6.6-.1,2.2,2.1,2,2.5-.9,1.9-2,4-3.7,5.2-7.7,5.7-15.8,11-23.3,16.9-1.6,1.2-2.3,4.6-2,6.7s3.3,3.6,4.9,3.5c7.7-.7,15.4-1.9,23.1-3.2,1-.1,1.8-2,2.5-3.2s.9-3.3,1.4-3.4,4.2,0,5.3,1,1.6,3.9.9,5.1-3.6,4.9-6,5.7C878.4,880.3,870.5,882,862.8,884Z"/>
      <path d="M937.5,570.3l-7.5,1.3c-3.5.6-5.2,2.3-3.5,6,.2.3-1.5,2-1.6,1.9-2-1.2-5.5-2.9-5.3-3.7.6-2.6,2.2-6.4,4.1-6.9a57.5,57.5,0,0,1,17-2.1c6.6.2,13.4.8,19.7,2.8s12.1,5.5,17.9,8.7c1.3.7,1.8,2.9,2.7,4.5-2.3.9-5.2,3.1-6.9,2.4-6.8-2.7-13.4-1.7-19.7.3-13.4,4.4-27.1,6.3-40.9,4.1-5.6-.9-12.1-1.5-15.4-7.5a3.7,3.7,0,0,1,.2-3.4,3.3,3.3,0,0,1,3.1-.2c11,8.7,23.3,8.7,36.2,5.9,6-1.3,12.2-1.7,18.2-2.8a53.6,53.6,0,0,0,7.7-2.6c.5-.2,1.1-1.3,1.1-1.3s-1.5-1.9-2.4-2.2l-24.4-6.1Z"/>
      <path d="M956.8,736.2c2,0,4.1-.3,6,.1a6,6,0,0,1,3.9,2.3c.5.9-.3,2.7-.5,4.1l-.9,3.2c-.2,1.1-.2,2.1-.4,3.2-1-.7-2.9-1.3-2.9-2.1-.4-3.8-2.9-3.7-5.7-3.9-7.2-.6-12.9,2.2-18.4,6.6-3.9,3.1-8.4,5.4-12.5,8.4-.6.5-.8,3.1-.2,3.6,6.2,5.7,20.9,4.2,25.5-2.9,2.2-3.2,4.7-2.9,7.6-2.3.8.1,2.1,1.8,1.9,2.1a31.2,31.2,0,0,1-4.4,5.9c-7.1,6.9-16.4,6.6-25.3,7.3-7,.4-15.4-6.3-15.3-12.1.1-3.9,4.9-8.3,8.8-9.2a25.1,25.1,0,0,0,9.2-4.7C941.5,738.7,946,736.7,956.8,736.2Z"/>
      <path d="M1030.9,714.9c-6,.2-11.6-1.2-15.3-6.4-1.9-2.5-2.1-4.6,1.6-6.5,7.6-3.9,14.9-8.6,22.5-12.6a174.6,174.6,0,0,1,18.2-8.2c1.2-.5,3.4,1.4,5.2,2.2-1.6,1.8-3,5.2-4.6,5.3-9.8.6-16.8,7.1-24.9,11a55.1,55.1,0,0,0-6.1,3.7,28.7,28.7,0,0,0-3.1,2.9c1.4,1,3,2.9,4.3,2.7,6.8-.7,13.7-1.3,20.2-3.3a37.4,37.4,0,0,0,13.8-7.9c2.9-2.5,4.1-6.9,6-10.5.9-1.9,1.5-4,2.6-5.9.2-.3,3.1.3,3.3.9.7,2.3,1.8,5.6.8,7-4,5.6-8,11.7-13.5,15.5C1052.9,711.2,1042.6,715.5,1030.9,714.9Z"/>
      <path d="M1141.6,570.7c2.4.5,4.9,1.5,7.3,1.4s4.4-1.4,6.6-2c4.8-1.2,10.1-1.3,14.3-3.5,7.8-4.2,16.3-.8,24.4-3.6,5.9-2.1,5.1,5.8,7.9,8.6.2.2-2.3,4.1-2.7,3.9a25.4,25.4,0,0,1-5.8-3.6c-1-.6-1.9-2.3-2.7-2.1-10.2,1.5-20.3,3-30.4,5-3,.5-5.6,2.7-8.6,3.5a12.5,12.5,0,0,1-6.9.2c-10.9-3.3-19.7.7-27.9,7.3-2.1,1.7-3.1,5-5.4,6.3s-4.9.4-7.4.6c.7-2.4.8-5.9,2.4-6.9C1117.5,579.1,1127.1,569.3,1141.6,570.7Z"/>
      <path d="M815.3,534.1c-6.8,3-14.2,6.5-21.7,9.6-5.6,2.3-11.3,4.2-17,5.9-.9.3-2.3-1.1-3.4-1.7.8-1.4,1.4-3.5,2.7-4,11.9-5,23.7-10.3,36-14.4,4.6-1.5,10.2-.2,15.3.2a118.3,118.3,0,0,1,14.4,1.9c1.8.3,4.2,1.4,4.8,2.8,1.8,3.8,3.4,6.5,8,3.5.9-.6,3.2-.1,3.8.6a7.2,7.2,0,0,1,1.4,4.9c-.2,1-1.9,2.4-3.1,2.7-2.9.5-6,.4-8.9.7s-3-2.1-3-4.2.1-2.3.1-3.5c-1.2.5-2.6.9-3.8,1.5-4.5,2.3-8.9,4.9-13.6,6.9-1.5.6-3.7-.7-5.5-1.1a50.1,50.1,0,0,1,4.5-5.6c.8-.9,2.3-1,3.5-1.5-1.2-.8-2.2-2-3.4-2.4C823.2,535.9,819.9,535.2,815.3,534.1Z"/>
      <path class="cls-6" d="M244.6,802.5c-.4,8.6-4.6,15.4-9.5,22s-9.9,12.4-10.4,20.6-2.1,16.4-.9,24.2c.9,5.8,3.2,12.4,9.8,15.7.6.3,0,3,0,4.6-2.1,0-5.4.8-6.2-.2a98,98,0,0,1-9.6-15c-1.7-3.2-2.3-7.1-3.2-10.7a9.6,9.6,0,0,1,.2-4.1c1.3-6.2,2.2-12.7,4.3-18.7s5.7-11.3,8.6-16.8,6.7-11.5,9.6-17.5c1.3-2.7,1.4-6-2.5-7.6-.8-.3-1.1-1.8-1.6-2.7l2.9-.2,2.3.2C243.9,796,244.6,796.8,244.6,802.5Z"/>
      <path class="cls-6" d="M554.5,831.6c-.8,3.7-.8,6.3-2,8.3-2.7,4.2-.3,6.2,2.8,8.2.9.6,1.9,2.1,1.7,2.7s-1.9,2.3-2.7,2.1c-3.3-.8-7.2-1.3-9.5-3.4s-.4-5.7.6-8.1c3-6.9,2-11.4-3.1-17.1-3-3.4-4.6-7.9-7.3-11.7-4.7-6.9-12.3-7.5-19.7-8.9-9.6-1.8-19.1-4.2-28.6-6.5-.5-.2-1.4-1.6-1.2-2s1.7-3,2.7-3c3.5-.2,7.5-.6,10.6.7,8.1,3.5,16.2,6.3,25,6.7s15.8,6.1,19.9,14.7c1.8,3.8,4.8,7.1,7.1,10.7S553.6,829.9,554.5,831.6Z"/>
      <path d="M1304,583.4l6,2.4c-1.1,1.5-2.6,2.8-3.3,4.5s-.7,3.8-1.3,5.6c-1.3,3.5-3,6.9-4.3,10.4-.3,1.1-.2,2.8.5,3.5,4.7,5.2,11.4,4.9,17.6,6.2.7.1,1.2,1.3,1.8,2.1a81.6,81.6,0,0,1-8.1,3.4c-1,.3-2.4-.4-3.5-.8-3.8-1.2-7.9-1.8-11.2-3.7a20.4,20.4,0,0,0-21.8.7c-1.6,1.1-3.9,1.3-5.8,1.8.7-2,1.3-4,2-6s1.4-2.4,1.3-3.6c-.5-6.3,2.9-12.1,9-13.8,1.5-.5,3.5.7,5.3,1.1l-2.4,4.3c-.1.2-.5.2-.6.4s-2.3,2.7-3.4,4c2,.1,4.1.8,5.9.3,9.3-2.7,12.2-6.1,11.9-13.5,0-1.7-1.7-4-1-4.9S1302.2,584.8,1304,583.4Z"/>
      <path d="M1043,728.7c1,2.1,3.2,4.6,2.6,6-2.3,5.4-3.7,11.8-10.1,14.1s-13.6,4-20.3,6.1-11.4,3.4-16.6,6.1-7.4,1.7-11.1.8c-.2-.1-.2-4.1.7-4.7,9.5-6.1,19.1-12.1,28.9-17.6,5.8-3.3,12-5.9,18.1-8.7C1037.1,730,1039.3,729.7,1043,728.7Zm-28,21.4c4.6-1.5,10.1-2.8,15.2-5.1,2.4-1.1,3.8-4.2,5.7-6.3-.5-.5-1.4-1.5-1.6-1.4-6.9,3.6-13.7,7.3-20.5,11l-1.8,1.1Z"/>
      <path class="cls-6" d="M391.3,707.8c3.6,2.5,8.1,4.6,11.1,8,7,8,16.1,7.6,25.3,7.6,1.9.1,4.5-.2,5.8.9,6.9,5.9,15.3,6.5,23.5,5.7s15.1-3.5,22.7-5.1a10,10,0,0,1,5.4.5A86.8,86.8,0,0,1,496,730c1.6.8,2.8,2.5,4.1,3.8a29,29,0,0,1-5.5,1.7c-1.4.1-2.9-.7-4.3-1.3-9.7-4.5-19-1.1-28.6.5s-21.6-.1-31.7-5.2c-3.1-1.6-7.3-1.5-11-1.5-7.6,0-14.7-.1-19.9-7.2-2.3-3.1-6.9-4.5-10.1-7-1-.8-1.2-2.9-1.3-4.5S389.5,708.5,391.3,707.8Z"/>
      <path class="cls-6" d="M45,728.9c-.8,3.5-1.3,5.6-5.3,4.6-9.2-2.3-18.6-3.6-27.7-6-4.7-1.2-9-3.9-13.4-6-7.1-3.4-14.3-6.7-21.3-10.4a64.1,64.1,0,0,1-9.8-6.5c-13-10.1-27.8-18.3-36.6-33-.8-1.3-.3-3.4-.4-5.1,1.5.5,4,.6,4.4,1.5,7.3,17.1,23.7,24.3,37.2,34.7,8.3,6.3,17.7,9.6,27.4,12.6,6.7,2.1,12.8,5.9,19.5,7.9s15.8,3.3,23.7,5A10.5,10.5,0,0,1,45,728.9Z"/>
      <path class="cls-6" d="M71.3,591.3c-7.5-1-14.3.7-19.6-5.8-3.3-4.1-9.1-6.2-13.2-9.9s-5.4-7.3-8.7-10.3c-4.9-4.6-10.4-8.6-15.7-12.9-.8-.7-2-1.4-2.3-2.4a32.5,32.5,0,0,1-1.2-5.4c1.5.4,3.3.5,4.5,1.4,7.3,5.1,14.5,10.4,21.7,15.6a4.7,4.7,0,0,1,1.8,1.9c3.5,7.9,11.5,11.3,17.4,16.6s14.3,4.4,21.7,4.4c4.1,0,8.3-1.6,12.4-2.3,1-.2,2.1.5,3.1.9-.9,1.3-1.5,3.4-2.7,3.7C83.9,588.6,77.1,590,71.3,591.3Z"/>
      <path d="M1240.2,679.5c-9.9-.2-11.1-2.5-7.9-9.5s7.5-16.8,11.6-25c.8-1.6,3.4-2.3,5.1-3.4,0,1.9.5,4-.2,5.7-3.1,7.7-6.6,15.2-9.8,22.7-.3.7-.1,2.2.3,2.4a6.1,6.1,0,0,0,2.7,0c10.7-1.4,18.4-8.5,27-13.8,4.9-3.1,10-5.8,12.3-11.7.3-.9,2.9-1.7,4.1-1.4s1.8,2.8,1.5,3.9c-1.4,4.4-2.3,8.7-8,11-7.9,3.2-14.7,8.7-22.3,12.5C1250.7,675.9,1244.3,677.9,1240.2,679.5Z"/>
      <path d="M673.6,898c-1.6-.9-4.7-1.6-5.6-3.4s-.1-4.9,1.1-6.6c6.3-8.6,13.2-16.5,23.9-20,1.3-.5,1.8-3,2.7-4.6s1.6-4.1,2.9-5.7,3.4-.2,3.7.4a17.3,17.3,0,0,1,.8,5.6c.1,1.2-.6,2.8,0,3.6,2,2.9,1.2,4.3-2.1,4.9-10.6,2.1-18.2,8.9-25.1,16.7-.4.4-.4,1.3-.5,2a5.1,5.1,0,0,0,1.7.3c7.9-2,15.9-3.7,23.6-6.3,2.3-.7,3.8-3.9,5.7-5.8s2.4-1.5,2.7-1.2,1.9,2.5,1.6,3c-3.3,5.4-6.3,11-13.8,12.1S681.9,896.2,673.6,898Z"/>
      <path class="cls-6" d="M-83.2,626.5c.8-1.2,1.3-2.6,2.2-2.9s2,.7,3,1.3c3,1.7,5.8,3.7,8.9,5.4,7.2,4.1,14.3,8.6,21.8,12s17,7.3,24.8,3,12.7.7,18.6,2.6,12.7,5,19,7.6a11.8,11.8,0,0,1,4.4,2.8c.6.6.2,2.2.3,3.4a8.5,8.5,0,0,1-2.2-.4c-12-4.1-23.8-8.5-35.9-12-3.6-1-7.9,1.1-11.9,1.3-11.4.7-21.5-3.5-31.1-9.2-6.5-3.8-13.1-7.5-19.5-11.4C-81.8,629.4-82.3,627.9-83.2,626.5Z"/>
      <path class="cls-6" d="M93.6,630.6c-15.3-1.3-31.1-2-46.7-4.3-12.4-1.9-24.6-5.7-34.5-14.4-4.9-4.2-10.2-7.9-15.2-12-.8-.7-.8-2.4-1.2-3.7,1.7,0,4.3-.9,5-.1a78.8,78.8,0,0,0,30.2,20.2c6.4,2.4,13.1,4.6,19.8,5.5,14,1.9,28.1,3,42.3,4.1,3.6.3,7.3-.7,11-1a11.8,11.8,0,0,1,2.6.2c-.5.9-.9,2.4-1.7,2.7C101.6,628.9,97.8,629.6,93.6,630.6Z"/>
      <path class="cls-6" d="M120.7,847.3c-6.3-1.3-12.5-2.4-18.6-3.8-.1,0,0-3.4.7-3.7s4.2-1.8,6.1-1.4c8.6,1.9,17.1,4.1,25.6,6.4,4.9,1.4,9.1,3.7,10,9.6.1,1,1.3,2.2,2.3,2.9l26.9,16.8a8.9,8.9,0,0,0,3.9,1.2c3.5.4,4.7,3.1,3.7,5.6s-4.6,2.6-5.9,1.9c-4.8-2.8-9-6.6-13.7-9.7a81.2,81.2,0,0,0-10.4-5.8c-5.6-2.7-11.5-4.6-13.7-11.8C136.2,850.8,126.4,846.8,120.7,847.3Z"/>
      <path d="M262.1,880.3c.4,1.4.7,2.9,1.1,4.4,3,13.5,14.9,24.3,28.6,26.2,8,1,15.9,2.4,24,3,2.3.2,4.8-1.8,7.3-2.6a23,23,0,0,1,3.7-.2c-.3,1.5-.1,4.1-.9,4.4-4.8,1.9-10.1,5.2-14.8,4.6-12.7-1.7-25.6-4.1-37.5-8.6-5.3-1.9-8.7-9.3-12.7-14.4a28.1,28.1,0,0,1-4.7-8c-.9-2.9-.8-6.2,3.5-6.7Z"/>
      <path d="M1039.2,794.1c-3.2-.8-5.8-1.2-8.1-2.3-4.7-2.1-5.4-9.5-1.3-12.4a73.5,73.5,0,0,1,10.5-6.1c6.6-3.1,13.4-5.1,20.7-2.6a15,15,0,0,1,5.1,2.4,3.2,3.2,0,0,1,.5,3.3,24.1,24.1,0,0,1-4,6.3c-2.3,2.5-4.6,5.4-7.5,6.6C1049.9,791.5,1044.3,792.6,1039.2,794.1Zm12.9-18.7c-4.6,2.1-10,4.3-15.1,7-.8.4-1.1,2.4-1.1,3.6s1.7,1.5,2.3,1.3a4.7,4.7,0,0,0,2.1-2.3c1.4-2.8,5.9-4.1,7.5-1.8s4.7,1,5.9-.3,1.1-3.9,1.4-6C1055.1,776.7,1054,776.4,1052.1,775.4Z"/>
      <path d="M494.8,595c-7.6,1.4-17.1-1.5-25.2,4.4a4.7,4.7,0,0,1-2.1.6c-15.4.8-28.2,8.2-41,15.6-1.6,1-2.8,2.8-4.5,3.5s-3.3-.7-3.4-1.4.1-3.9,1.1-4.5c6.4-3.8,12.7-7.6,19.5-10.5,10.2-4.5,20.6-8.9,31.3-12,5.9-1.7,12.6-1,19-1.2a59.2,59.2,0,0,1,10.3.4c1.6.2,3.1,1.7,4.7,2.6a22.9,22.9,0,0,1-4.7,2.9C498.7,595.8,497.3,595.2,494.8,595Z"/>
      <path class="cls-6" d="M550.8,743.6c2.1,2.6,4.1,5,5.9,7.5s5.3,7.8,8.2,11.6,7.7,5.1,13,5,8.8,1.3,13.3,1.9c2.1.3,4.6,1.1,6.4.3,5.1-2.3,8.4-.9,10.8,3.8a15.8,15.8,0,0,1,1.1,3.7c-1.9.5-4.5,2.1-5.6,1.4a16.9,16.9,0,0,0-10.6-3.2c-7.7.3-15.5-.9-23.2-1.9-9.6-1.3-14.3-8.3-18-16.3-1.2-2.5-3-4.6-4.3-7a5.2,5.2,0,0,1-.6-3.4C547.4,746.1,548.7,745.5,550.8,743.6Z"/>
      <path d="M825.9,931c1.8-4,3.3-7.6,5.1-11s4-7.1,6.1-10.6a6.3,6.3,0,0,1,2.7-2.4l28.7-11.9c.9-.3,1.9-1.1,2.8-1s3.8,1.1,5.8,1.7c-1,1.6-1.7,3.9-3.1,4.6-8.6,4-17.5,7.3-26,11.5-2.2,1.1-3.6,4.1-5,6.5-3,4.7-5.6,9.6-8.7,14.1-.9,1.3-3.2,2.6-4.6,2.4S827.4,932.5,825.9,931Z"/>
      <path d="M550.4,572.7c4.5.5,9.9,1.6,15.2,1.6,3.1,0,6.3-2.3,9.5-2.5s7.5.5,11.3.9c-.5,2-.4,5.2-1.6,5.9a161.2,161.2,0,0,1-17.7,7.4c-.6.2-3-2-2.9-2.7.7-3.3-1.1-3.2-3.4-3.3s-7.7-.6-11.5-1c-8.1-.9-12.1,5.6-17.5,9.6-1.2,1-3,1.2-4.5,1.7,0-2.1-.9-5.2.2-6a145.9,145.9,0,0,1,16.1-10.8C545.2,572.6,547.5,573,550.4,572.7Z"/>
      <path class="cls-6" d="M200.8,596.7c-3.3-.7-6-.8-8.2-1.9-8.8-4.1-17.4-1.5-26.3-.5s-17.5.1-26.3-.2l-15.9-.9c-2.6-.2-4.3-1.5-2.9-4.2.6-1,2.6-1.8,4-1.8,13.7.7,27.3,1.9,41,2.1,4.4.1,8.8-2.6,13.3-3.5a18.2,18.2,0,0,1,7.7.3,126.7,126.7,0,0,1,13.5,4.7,5.3,5.3,0,0,1,2.8,3.3C203.5,595.1,201.5,596.1,200.8,596.7Z"/>
      <path d="M797.5,805.9c4.8,1.9,10.7,4,16.3,6.6,1.3.7,1.8,3.2,2.6,4.9-1.7.2-3.5.9-5,.5a101.3,101.3,0,0,1-12-4.4c-5.7-2.6-13.8.2-18.1,4.7s-9.2,5.3-13.2,8.6-6.3,7.1-9.5,10.6c-1,1.1-2,2.8-3.2,3a5.2,5.2,0,0,1-4.3-1.5,4.3,4.3,0,0,1,.4-4.1c4.5-4.7,9.4-9.1,14.1-13.6l8.1-7.5c.6-.6,1.1-1.6,1.9-1.8Z"/>
      <path class="cls-6" d="M584.6,813.2c-9.8.2-13.9-3.3-15.2-14-1-7.4-6.1-11.2-10.3-16.1-.8-1-2.2-1.6-2.9-2.7-5.3-8.2-14.7-5.9-22-9a29.4,29.4,0,0,1-4.2-3c1.6-.7,3.5-2.1,5-1.8,7.5,1.6,16.5,1.5,22.1,5.8,10,7.4,19.1,16.7,19.5,31,.1,2,4.3,3.9,6.8,5.7a21.4,21.4,0,0,0,4,2Z"/>
      <path d="M791.3,555.2c2.4.3,6,.4,9.3,1.4a7.7,7.7,0,0,1,4.4,4.6c2.4,8.2-3.9,16.5-12.4,17.4-2,.2-3.8,1.8-5.7,2.5l-10.2,3.2-.6-.2c-.9-3.8-2.4-7.6-2.5-11.4,0-1,4.4-2.8,6.8-2.9s5.4,1.9,8,1.8,6.4-1.1,8.1-3,.3-6.4-3.7-6.6c-2.3-.2-4.6.1-6.8-.4s-2.7-1.7-4-2.7c1.3-1.2,2.5-2.8,4.1-3.6S788.8,555.2,791.3,555.2Z"/>
      <path d="M591.9,561.3c.6-.4,2.1-1.5,3.7-2.4a26.1,26.1,0,0,1,5.3-2.6c9.3-3,18.5-6,27.9-8.5,1.6-.4,4.4,1,5.4,2.4s-.6,4.1-1.9,5c-9.1,6.6-18.7,12.4-30,14.8C596.7,571.2,591.7,568,591.9,561.3Zm9.9,2.5c1.4-.4,2.5-.5,3.6-.9s2.5-1.5,3.8-2.2a54,54,0,0,0-5.8-1.1,5.1,5.1,0,0,0-2.3,1.2c-.6.5-1.2,1.2-1.8,1.8Zm14-5.3c-.6-.3-1-.7-1.2-.6l-1.6,1.3c.2.1.5.4.7.3Z"/>
      <path d="M754.6,875.4c-7.8-.4-14-.3-20-1.1-2.3-.3-5-2.4-6.3-4.4s1.5-4.3,3.1-5.7c7.3-6.1,14.7-12.1,22.4-17.8,1.6-1.2,4.6-.8,6.9-.8.7,0,2,1.7,1.8,2.4a5.9,5.9,0,0,1-2,3.7c-6.7,4.3-13.6,8.3-20.3,12.6a9.1,9.1,0,0,0-2.3,2.8c1.2.4,2.5,1.3,3.7,1.2,6.6-.1,13.1-.5,19.6-.8,1,0,2.8.6,2.8,1s-.1,3.6-.9,4C759.9,873.9,756.5,874.7,754.6,875.4Z"/>
      <path d="M900.3,522.8l-22.1,4.3c-.5.1-1.2-.3-1.8-.5s.9-2.9,1.9-3.4a22.6,22.6,0,0,1,6.8-2.2c7.4-1,14.9-1.8,22.3-2.7,1.8-.2,3.5-.9,5.2-.8s3.4.6,4.2,1.6,0,2.9-.7,4.1c-4.5,7.7-12.3,10.1-20.2,11.9-2.8.6-5.9,0-8.6.7s-2.8,2.5-4.1,3.9-1.2,2.4-2.2,3.1a3,3,0,0,1-2.7-1.1c-.8-1.7-1.9-4-1.3-5.5,2-5.1,9.9-8.3,15-6.5,2.9.9,11.7-1.9,13.3-4.4a7.6,7.6,0,0,0,.3-1.6Z"/>
      <path class="cls-6" d="M114.9,820.1c-3,.5-7.1-2-6.5,3.9.1,1-3,2.3-4.6,3.4-.8-1.4-2.4-2.8-2.3-4.1.3-3.8-1.8-4.7-4.7-6.1a185.6,185.6,0,0,1-18.7-10.9c-.9-.6-.3-3.5-.4-5.4,1.7-.1,3.9-.9,5-.1,4.9,3,9,7.7,14.2,9.7S110.3,813,117,814c4.1.7,8.4.9,12.4,1.8.8.1,1.6,2.7,1.3,4a3.9,3.9,0,0,1-3.2,2.1C123.1,821.5,118.8,820.7,114.9,820.1Z"/>
      <path d="M1101.9,614.7c1-4.6,1.7-9.3,3-13.9.3-1.2,2.4-1.9,3.6-2.9.4,1.6,1.2,3.1,1.2,4.7,0,3.5-.8,7-.4,10.5.2,1.3,2.8,3.7,4,3.5,6.1-1.1,12.1-2.8,18.1-4.5.6-.2,1.2-2.5.9-2.9-2.2-2.4-4.7-4.5-7-6.9a28,28,0,0,1-4.1-5c-.2-.3,1.5-2.5,2.3-2.5s5.1.2,6.5,1.5a48.1,48.1,0,0,1,8.7,10.4c.9,1.7.6,6-.7,6.7a51.7,51.7,0,0,1-30.1,8.5C1103.6,621.7,1102.1,618.8,1101.9,614.7Z"/>
      <path d="M1231.2,558.2c-1.1,6.2-6.2,5.4-8.5,4.7-9.1-2.7-19.3-1.9-27.2-8.3-1.1-.9-2.5-1.5-3.2-2.7-1.8-3.2-4.3-2.3-6.4-.8-3.8,2.8-7.2,6.2-11.1,8.9-1.6,1.1-4.1.8-6.1,1.2.4-2.2,0-5.7,1.3-6.5a209,209,0,0,1,20.5-11.8c1.2-.6,4.7.7,5.1,1.9,2.7,6.6,9.1,7.6,14.4,9.2s12.8,1.9,19.2,2.8C1230,556.9,1230.6,557.8,1231.2,558.2Z"/>
      <path d="M348.8,866c2.3,1.6,7,3.4,9.5,6.9,3.9,5.4,8.5,3.4,12.9,2.8s10.3-3,15.4-3.2,8.6,1.7,12.8,2.7a4.4,4.4,0,0,1-.3,1.9c-2.3.2-4.6.2-7,.5-8.3,1-16.8,1.7-25,3.5-6.4,1.4-10.3-.3-14.3-5.1s-10.3-5.3-15.7.1c-1.6,1.5-3,3.1-4.7,4.4s-2.6.8-3.3.2a3.1,3.1,0,0,1-.6-3.2C333.3,872,338.4,866.8,348.8,866Z"/>
      <path d="M1176.7,529.2c-11.5-2.5-15.6,3.7-20.9,7.1s-8.6,5.9-13.1,8.5c-1.1.6-3.2-.5-4.8-.9.9-1.3,1.5-3.2,2.7-4,4.6-3.3,10.4-5.4,14.1-9.5,9.1-10.3,20.5-6.2,31.3-6.1,1,0,2,.3,3,.4,10.6.2,10.7.2,11.9,10.5.2,1.2-1.5,2.9-2.7,3.9s-2.8-.5-2.9-1.1C1192.7,523.6,1180.4,531.1,1176.7,529.2Z"/>
      <path class="cls-6" d="M342.4,706.1c-1,.5-2,1.5-2.7,1.4s-3.4-.9-4.2-2c-3.2-4.6-5.5-10-9.2-14.2-7.5-8.5-15.7-16.5-23.5-24.8a20.6,20.6,0,0,1-3-4.1c-.3-.4,0-1.1,0-1.7s1.6-.1,2.1.3c5.4,3.8,11.1,7.5,16.1,11.8s10.7,9.1,14.7,14.6S339.1,699.4,342.4,706.1Z"/>
      <path class="cls-6" d="M132.3,724.9c-8.2,0-16.6,1.1-24.5-.3A52,52,0,0,0,83,726.2c-2.9,1-7-1.8-10.4-3.2-.6-.2-.8-2.4-.4-3.4s2.4-1.3,2.9-.9c6.8,4.5,13.1.2,19.7-.6a45.9,45.9,0,0,1,7.4.1c11.4.7,22.9,1.3,34.3,2.1,1.7.1,3.4,1,5.1,1.6-1.7,1-3.3,2.4-5.2,3.1s-2.7.1-4.1.1Z"/>
      <path class="cls-6" d="M186.1,888c5.6,0,10.3,4,12.3,8.7s4.2,6.9,6.2,10.4c.4.6.5,2.2.2,2.3-4.6,2.6-1.1,5,.1,7.4s4.1,7,5.2,10.8c.4,1.5-2.2,3.7-3.4,5.6a21.8,21.8,0,0,1-2.5-2.8c-3.3-5.5-6.7-11-9.6-16.7-1-1.8-5-4.7.3-6.7.3-.1.5-1.3.2-1.7-1.4-2.4-2.9-4.8-4.5-7s-3.4-3.9-4.9-5.9a5.9,5.9,0,0,1-1.3-3.3C184.4,888.7,185.8,888.1,186.1,888Z"/>
      <path class="cls-6" d="M293.4,705.3c-6.8.6-12.1-2.5-17.9-5.4s-10.5-3.6-15.3-2.6c-7.4,1.4-12.2-3-18-5.1-.6-.2-1-2.3-.8-3.3s1.5-1.4,2.4-1.8a2.3,2.3,0,0,1,1.8.1c10.9,5,22.9,4.2,34.2,7,1.7.4,3,2.8,4.8,3.2,4.1,1,8.4,1.2,12.5,2a19.9,19.9,0,0,1,4.3,2.3c-1.2,1-2.2,2.4-3.6,3A12.7,12.7,0,0,1,293.4,705.3Z"/>
      <path d="M1276.1,639.1c-1.7-.8-4.1-2.3-6.7-3.3s-3.1-.8-4.1-.2-3.4,3.4-5.4,4.5-4.2.8-6.3,1.1c.5-2.2.2-5.4,1.5-6.4a57.9,57.9,0,0,1,13-6.9c1.7-.7,4.2.6,6.3,1.2s5.7,2.8,8.4,2.5c4.7-.5,9.2-2.4,13.8-3.7s6.5-1.5,7.3,2.6c.2,1.4-2.1,4.5-3.8,4.9-3.6,1-7.6.5-11.3,1S1281.1,638,1276.1,639.1Z"/>
      <path d="M763.1,562.9l-10,1.6a2.3,2.3,0,0,0-1.6,1.4c-.1.5.6,1.3,1.1,1.8a40,40,0,0,0,3.1,2.7c-1.2,1.3-2.3,3.2-3.8,3.6-8,2.1-16.1,3.9-24.3,5.6-.9.1-3.3-1.7-3.2-2s1.5-4.3,2.7-4.6c3.6-.8,7.5-.7,11.3-1s5.7-.4,5.6-5.1,7.9-9.8,14.8-9.1c3.8.4,7.5.2,11.2.6,1.4.2,2.8,1.2,4.1,1.8-1.1.9-2.1,2.3-3.4,2.6a46.5,46.5,0,0,1-7.5.8A2,2,0,0,0,763.1,562.9Z"/>
      <path class="cls-6" d="M439.9,951.2l-5.4,4.1a47.7,47.7,0,0,1-2.4-4.4c-2.3-6.3-4.3-12.7-6.7-18.9s-6.3-14.6-9.1-22.1c-.5-1.3,1.1-3.4,1.7-5.1,1.4,1.1,3.2,2,4,3.4q4.2,7.9,7.8,16.2c3.3,7.7,6.4,15.6,9.5,23.4C439.6,948.4,439.6,949.1,439.9,951.2Z"/>
      <path d="M983.4,732.6c3.2,0,6-.5,8.5.2s2.6,2.5,3.4,4.1-1.7,1.8-2.8,2.6-2.5,1.2-3.6,2c-3.3,2.3-9.3,1.1-14.4-4.1-1.6-1.7-1.9-5.5-1.6-8.2s2.2-3.5,3.9-4.3a95.6,95.6,0,0,1,14.6-5.6c1.4-.3,3.4,1.7,5.2,2.7-1.8,1.6-3.2,3.8-5.3,4.8s-5.5,1.5-8.2,2.5c-.9.3-1.4,1.4-2.2,2.2Z"/>
      <path class="cls-6" d="M139.8,809.4l-10.1-9.9c-3.5-3.4-6.7-7.5-10.8-9.8s-9.8-3.3-14.6-5.1a12.7,12.7,0,0,1-4.4-3.6c-.5-.7-.2-3,.3-3.2a8.2,8.2,0,0,1,4.8-.7c4.5,1.5,8.7,3.9,13.2,5.2,7.1,2,11.7,6.4,15.5,12.5,2,3.1,5.4,5.4,8.1,8l2.4,2C143.1,806,142,807.2,139.8,809.4Z"/>
      <path class="cls-6" d="M55.1,785.7a46.9,46.9,0,0,1-4.6,2.1c-4.4,1.5-8.8,3-13.3,4.3s-8,2.2-12,3.2c-7.9,2-13.5-2.1-18-7.7-1.2-1.4-1.2-5.7,0-6.7s4.7-.4,6.2,2.4c2.4,4.6,6.7,7,11.6,5.9,8.8-1.9,17.4-4.7,26.1-7.1.8-.3,2-.6,2.4-.2S54.3,783.6,55.1,785.7Z"/>
      <path class="cls-6" d="M129.1,874.2c1.7.8,3.9,1.3,5.2,2.6,10.5,11,23.3,18.4,37.3,24.1a20.9,20.9,0,0,1,5.9,3.9c.7.6.4,2.4.5,3.7s-2.5.3-3.4-.2c-11.2-5.9-22.6-11.5-33.3-18.2-5.2-3.2-9.3-8.4-13.8-12.8-.5-.5-.5-1.5-.8-2.2Z"/>
      <path d="M901.9,901.8c-.9,1.5-1.4,2.9-2.4,3.7-3.3,2.7-7,5.1-10.3,8-1.4,1.3-2,3.5-3.2,5.2s-2.7,3.8-4.2,5.6a1.8,1.8,0,0,1-1.6.1c-.8-1.7-1.5-3.4-2.2-5.2a52.5,52.5,0,0,1-1.7-5.2,14.9,14.9,0,0,1-.9-5.4c.1-.8,2.1-1.4,3.3-2l17-7.4c1.2-.5,2.7-1,3.8-.6S901,900.6,901.9,901.8Z"/>
      <path class="cls-6" d="M272.3,728.6l-11.5,3.2c-8,2.1-15.9,5.4-24,6.1-6.2.5-12.6-2.4-18.9-3.9-.5-.1-.8-.8-1.2-1.2s1-.3,1.5-.1c10.4,3,20-1.2,29.9-3.2,7.4-1.6,15-2.4,22.5-3.4a99.5,99.5,0,0,1,10.9-.6c.9,0,1.8.9,2.7,1.4-.7.8-1.4,2.3-2.2,2.3-3.2.3-6.3.1-9.5.1A1.4,1.4,0,0,1,272.3,728.6Z"/>
      <path class="cls-6" d="M237.1,945.7c-.8,4.1-1.2,8.1-2.6,11.6-.4,1.3-3.1,1.8-4.8,2.6-.4-1.4-1.4-3.1-1-4.3,2.8-7.9.6-14.8-3.6-21.6a34.8,34.8,0,0,1-3.7-9.9c-.4-1.4.6-3.2,1-4.8,2.1.7,5.6.9,6.1,2.3C231.8,929.5,234.3,937.7,237.1,945.7Z"/>
      <path d="M853.1,556.7c9.3,0,18.6-.1,27.9,0,1.3.1,2.5,1.1,3.8,1.7-1.1,1.3-2,3.5-3.2,3.7-5.1.7-10.3.7-15.4,1.2-3,.3-6,1.2-9,1.8a35.2,35.2,0,0,1-6.4.9c-3.7.1-6.3-2.4-5.3-5.5s4.3-3.7,6.6-5.4A8.6,8.6,0,0,1,853.1,556.7Z"/>
      <path class="cls-6" d="M192.2,803.4c.4,4.6.6,9.2,1.2,13.8a5.5,5.5,0,0,0,2,2.9c3.4,3.2,4.5,6.7,2.3,11.1-.9,1.7-1,3.9-1.9,5.6s-2.5,2.3-3.8,3.5c-.7-1-1.8-2-1.9-3.1a13.4,13.4,0,0,1,.8-5.6c1.4-3.5,1.7-6-2.5-8-6.6-3.1-6.4-4.1-2.6-10.4,1.6-2.6,1.4-6.3,2.5-9.4.4-1.3,2-2.3,3-3.4l1.8,2.6Z"/>
      <path class="cls-6" d="M187.9,853.3c-5.6-2.1-11.5-3.7-16.8-6.5a105.1,105.1,0,0,1-16.8-11.3c-1.2-.9-.8-4-1.1-6.1,2,.6,4.3.6,6,1.7,6.2,4,12,8.5,18.2,12.3,3.2,1.9,7.2,2.5,10.5,4.2,1.5.7,2.3,2.7,3.5,4.1Z"/>
      <path class="cls-6" d="M500.9,903.7c.4-10.1-6.6-16.8-11.2-24.7-.8-1.2-1.7-2.8-1.4-3.9s1.8-2.5,2.9-3.7c.7,1,1.6,2,2.3,3.1,2.9,4.4,6.2,8.6,8.5,13.3a136.6,136.6,0,0,1,6.6,17.9c.8,2.3.2,5.4-3.2,4.8-1.7-.3-3.1-2.6-4.4-4.2S500.9,904.6,500.9,903.7Z"/>
      <path class="cls-6" d="M380.1,682.1c-2.5,1.2-4.1,2.8-5.6,2.7-6-.3-8.8-4-10.5-9.6s-4.5-9-5.4-13.8c-.5-2.7,2-5.9,3.1-8.9.6.4,1.5.8,1.7,1.4,2.6,6.9,4.9,14,7.8,20.7.8,1.9,3.6,3,5.4,4.5Z"/>
      <path class="cls-6" d="M47.8,817.8l12.8,8.1c5,3.2,10.3,6.2,15,9.7,1.7,1.3,2.7,4.1,3,6.3s-2.9,2-4.7,2.8a2.6,2.6,0,0,1-2.3-1c-1.6-4.7-4.8-7.3-9.6-8.8-1.9-.6-3.2-2.7-4.9-4l-11.5-9.2a17.7,17.7,0,0,1-1.6-2.2Z"/>
      <path d="M439.9,851a13.1,13.1,0,0,1-9.8,12.5c-7.1,1.9-14,4.8-21,7.2a5.6,5.6,0,0,1-3.6.2c-.7-.3-1.7-2.2-1.4-2.7a7.1,7.1,0,0,1,3.3-3.1c6.4-2.3,13.1-4,19.2-6.7,3-1.3,5.2-4.5,7.7-7s2.3-2.4,3.4-3.6Z"/>
      <path class="cls-6" d="M5,825.6c8.1-.7,16.2-1.5,24.4-2,1.5-.1,3.3,1,4.6,2.1s.5,2.6-.1,3a7.7,7.7,0,0,1-4.3,1.7c-10.1.3-20.1.5-30.1.3-2,0-3.9-1.8-5.8-2.8,1.8-1.1,3.3-2.6,5.2-3.2s4-.1,6.1-.1Z"/>
      <path d="M1258.4,597.8a35.3,35.3,0,0,1-4.6,0c-5.7-1.1-11.3-2.9-17-3.4s-10.6.8-15.9.8c-1.1.1-2.3-1.4-3.5-2.1,1.4-1.4,2.7-3.9,4.2-4a92.1,92.1,0,0,1,13.9,0c5.8.3,11.6.3,17.3,1.4,2.3.4,4.1,3.2,6.2,4.9Z"/>
      <path d="M664.5,581c-.4-.2-1.8-.7-1.8-.9s.3-3.8,1.3-4.5,5.3-2.4,8-3.6c4.2-1.8,10.8-2.6,12-5.6s5.4-4.4,8-6.5c.9-.8,3.2-.4,4.7,0a4.5,4.5,0,0,1,1.7,2.4c-1.1,1.2-2.3,2.5-3.7,2.9-3.9,1-7.1,2.4-8.7,6.5-.3,1-1.6,1.9-2.7,2.4l-16.5,6.6C666.2,580.9,665.6,580.8,664.5,581Z"/>
      <path class="cls-6" d="M529.7,850l-2.9,2.1c-.6-.9-1.6-1.7-1.8-2.6-1.7-7.7-7.7-11.2-13.7-14.8a86.7,86.7,0,0,1-8.1-5.3,2.9,2.9,0,0,1-.7-2.6c.1-.5,1.3-1.2,2-1.2C514.8,824.6,529.8,838.5,529.7,850Z"/>
      <path d="M561.9,982.1c-8.4,0-12.9-3.2-16.3-7.9-.9-1.2-.2-3.5-.3-5.2,2,.1,4.7-.4,5.9.6,8,7,10.6,7.4,20.2,3.1,1.4-.6,3.7,1.1,5.6,1.7-1,1.2-1.9,3-3.2,3.6C569.2,979.8,564.5,981.2,561.9,982.1Z"/>
      <path class="cls-6" d="M183,636c-9.3-3.8-15.7,4.7-23.9,6.4a37.2,37.2,0,0,1-9.4.6c-1.2,0-2.4-1.8-3.6-2.7,1.1-.8,2.3-2.2,3.3-2.1,9.1.9,16.3-4.1,24.4-6.8,4.1-1.3,8.9-.4,13.5-.3.9,0,1.8,1.1,2.7,1.7-.9.8-1.5,1.9-2.5,2.3S184.8,635.7,183,636Z"/>
      <path class="cls-6" d="M201.6,749.3c3.3,1.2,5.9,2.3,8.6,3.1,4.7,1.3,9.3,2.8,14.1,3.5s5.8,4.9,7.5,8.3c.1.3-2.3,2.3-3.8,2.8s-4.1.2-4.2-.2c-1.4-8-8.6-6.8-13.8-8.6-3.1-1.1-6.3-1.9-9.2-3.2s-2.4-2.1-3.6-3.3Z"/>
      <path d="M533.5,976.8c-8.4-.9-15.7-1.4-22.8-2.5-1.9-.3-4-2.2-4.9-3.9s1-3.9,2.2-4.4,4-.1,6,.3c5.7,1.2,11.5,2.5,17.2,3.9,1.9.5,3.8,1.4,5.8,2.1Z"/>
      <path class="cls-6" d="M263.8,926.4c-3.7-1.4-8.7-2.8-13.3-5.1s-2.6-5.1-.7-7.8c.3-.5,2.6-.6,3-.1,6.3,7.4,14.8,6.7,23.2,6.5.6,0,1.3-.5,1.8-.4s3.7,1.4,5.5,2.1a27.2,27.2,0,0,1-5,2.2C274,924.7,269.6,925.4,263.8,926.4Z"/>
      <path d="M339.8,909c-1.7-.9-4.7-3.5-7.9-3.7s-5.3,2.6-8.2,3.7-3.8,1.3-5.3.8-1.3-2.8-1.6-4.4.4-1.5.8-1.5c5.4-.4,10.9-.9,16.4-.9s11,.3,16.5.3c1.9.1,3.7-.5,5.6-.4a13.4,13.4,0,0,1,3.6,1.4c-1.2.8-2.2,2.2-3.4,2.5C351.5,907.6,346.6,908.1,339.8,909Z"/>
      <path class="cls-6" d="M466.3,753.9c6.1-.5,12.3-1.4,18.4-1.5,2.2-.1,4.4,1.6,6.5,2.6a15.9,15.9,0,0,1,3.7,1.8,29.9,29.9,0,0,1,2.9,3.2c-1.6,1-4,3.3-4.5,2.9-7.2-5.1-15.5-4.3-23.5-5.2l-5.9-.7-3.3-.2a37.6,37.6,0,0,1,2.8-2.9,11.6,11.6,0,0,1,2.8-1Z"/>
      <path d="M868.5,943.4c-4.2-.9-6.9-4.9-5.1-8.2.4-.8,2.2-1.8,2.6-1.5,5,3.1,8.9-.4,13-2s7.4-3,11.2-4.3a19.7,19.7,0,0,1,1.6,3.7C884.1,935.3,876.3,939.4,868.5,943.4Z"/>
      <path d="M737.1,601.9c-3.9-.6-6.7-.5-9-1.5s-4.5-3.3-4.3-4.4a18.1,18.1,0,0,1,4.5-8.1c1.6-1.7,4.3-2.7,6.7-3.2s3.2.8,4.9,1.3c-.8,1.6-1.4,3.2-2.3,4.8s-1.3.1-1.8.4-2.5,1.9-3.7,2.8c1.4.5,2.9.9,4.3,1.5l4.6,2.1C739.5,599.2,738.1,600.9,737.1,601.9Z"/>
      <path class="cls-6" d="M455.9,875c.9-.5,1.8-1.5,2.7-1.5a2.9,2.9,0,0,1,2.3,1.7c1.7,4.9,2.5,10.1,4.7,14.7s4.6,5.6,6.7,8.5c.9,1.3,1.8,3.4,1.3,4.6s-2.3,1.2-4.2.1C458.3,897,458.5,885.7,455.9,875Z"/>
      <path class="cls-6" d="M87.4,757.4c5.4-1.2,10.6-2.6,16-3.5a99.5,99.5,0,0,1,13.4-1c1-.1,2.1.9,3.1,1.4-1,1-1.8,2.7-3,3a92.5,92.5,0,0,1-11.7,2.1,176.9,176.9,0,0,1-17.7,1.8c-2.4.1-4.8-1.4-7.2-2.1l6.3-3.8Z"/>
      <path class="cls-6" d="M616.7,828.6c-2.9,1.5-4.3,2.8-5.4,2.6-8.4-1.5-16.4-4.4-22.6-10.6-.8-.9-.6-2.8-.8-4.2,1.5,0,3.6-.7,4.6,0,5.3,4.1,10.9,6.8,17.7,7.2C612,823.8,613.6,826.2,616.7,828.6Z"/>
      <path class="cls-6" d="M393.5,948.5l7.4,8.7a54.9,54.9,0,0,1,5,6.9c.9,1.5,1.9,3.5,1.5,5s-2.8,3.3-3.7,3a10.3,10.3,0,0,1-4.9-3.9c-3-4.2-5.6-8.6-8.2-13a5.5,5.5,0,0,1-1-3.8C389.8,950.4,391.5,949.8,393.5,948.5Z"/>
      <path class="cls-6" d="M487.1,844.7l3.1-.8c-.6-1-1.3-1.9-1.8-2.9l-3.2-6.9c2.2,1.2,4.6,2,6.5,3.5a75.6,75.6,0,0,1,6.7,6c.5.5,1.5,1.4,1.4,1.6-1.7,3.3,1.7,4.3,2.6,6.4a24.6,24.6,0,0,1,.9,2.9c-1.4,0-3.4.7-4.1.1a20,20,0,0,0-13.4-6.2c-.9-.1-1.9-1.4-2.8-2.2l3.6-2.4Z"/>
      <path d="M857.8,581.7c-1.4.1-2.8.6-4.1.3a17.5,17.5,0,0,1-5.9-2.2c-.4-.2.2-3.5,1-3.8a30.3,30.3,0,0,1,6.9-.9c.5,0,1.1.5,1.6.7a6.7,6.7,0,0,1,.1-2c.5-1.6.9-3.5,1.9-4.7s2.7.2,3.7.9a13.4,13.4,0,0,1,3.6,3.9c.8,1.2,1.6,3.1,1.2,4.3s-2.2,2.3-3.6,2.7a34,34,0,0,1-6.4.8Z"/>
      <path class="cls-6" d="M139,748.4c10.8,0,21.7-.1,32.5,0,1.4,0,2.7.8,4,1.2-1.5,1-3,2.7-4.5,2.7-9.8.1-19.6-.3-29.4-.3-2.8,0-5.6.9-8.5,1.1-.8.1-1.7-.7-2.6-1.1s.7-2.6,1.5-2.9a53.8,53.8,0,0,1,6.9-1.8Z"/>
      <path class="cls-6" d="M147.1,897.1c1.9,1.3,3.7,2.3,5.3,3.6,3.6,2.9,7.2,5.8,10.6,8.9.8.7,1.3,2.8.8,3.4s-3.2,2.8-3.7,2.5q-7.9-6-15.6-12.6a3.7,3.7,0,0,1-.6-3.4C144.2,898.6,145.6,898.1,147.1,897.1Z"/>
      <path class="cls-6" d="M441.3,927.1c-3-3.2-6-6.2-8.8-9.4a50.4,50.4,0,0,1-4.8-6.6c-.4-.8-.5-2.6,0-3s3.7-2.9,4.7-2.4,5.1,3,5.2,4.8c.3,5.1,3.4,7.8,6.7,10.8.7.6,1.5,2.1,1.2,2.7S443.7,925.5,441.3,927.1Z"/>
      <path class="cls-6" d="M178.2,794c-8.6-.5-16.2,0-21.5-6.5a10,10,0,0,1-2.5-4.9c-.1-.7,2.4-2.7,3.3-2.5s4.6,1.6,5.5,3.3c2.9,5.1,7,6.6,12.6,5.9,1.6-.2,3.4,1.7,5.1,2.6Z"/>
      <path class="cls-6" d="M191.2,733.9l-12.8-5.6c-2.9-1.1-6.1-1.7-8.9-3s-2.1-2.4-3.1-3.7c1.5-.6,3.3-2,4.4-1.6,5.6,1.9,10.9,4.4,16.3,6.5,1.4.6,3.1.6,4.3,1.3a18.1,18.1,0,0,1,3.3,2.9Z"/>
      <path class="cls-6" d="M213.1,792.8l-15.9-5.9c-2.4-.8-5.5-.7-4.4-4.6s2.8-3.7,5.8-2.3c4.7,2.1,9.5,3.9,14.1,6a25.7,25.7,0,0,1,4.4,2.9Z"/>
      <path d="M667,549a29.4,29.4,0,0,1-4.9-.8c-1.3-.4-2.3-1.4-3.5-2.1,1.1-1.4,1.8-3.4,3.2-4.3a29.3,29.3,0,0,1,7.7-2.7c1.7-.5,4-.9,5.3,0s3,3.8,2.5,4.6-3.5,3.5-5.5,4.7S668.8,548.8,667,549Z"/>
      <path class="cls-6" d="M212.1,637.6c3.1.5,8-2.3,7.7,4.2-.1.8-1.9,2.4-2.6,2.2-7-1.6-13.9-3.3-20.8-5.3-1.1-.3-1.7-2.3-2.5-3.6,1.3-.6,2.7-1.9,3.8-1.6,4.9,1.1,9.7,2.6,14.4,4h0Z"/>
      <path class="cls-6" d="M353.8,944.1c.5.3,2.3,1,2.3,1.9a4.4,4.4,0,0,1-1.9,3.4c-4.2,2.3-6,5.7-6.4,10.3a4.5,4.5,0,0,1-3.2,3.2,4.7,4.7,0,0,1-4-2.3C338.6,955.9,347.7,943.9,353.8,944.1Z"/>
      <path class="cls-6" d="M533.3,863.2c.9,1.8,1.8,3.6,2.6,5.5s2.9,6.4,4.1,9.7c.5,1.5.3,3.2.4,4.8-2-.4-5.1,0-5.8-1.1a67.1,67.1,0,0,1-6.5-13.5c-.5-1.4,1.7-3.7,2.6-5.5Z"/>
      <path class="cls-6" d="M278.1,957.1c-6.3,1-9.2-3.3-11.7-8.1-.5-1,1.6-4.6,3-4.9s5,1.6,5.1,2.7c.2,4.4,3.7,3.6,6,4.5a51.6,51.6,0,0,0,5.2,1.6c-2,1.4-4,2.8-6.1,4.1A3.7,3.7,0,0,1,278.1,957.1Z"/>
      <path class="cls-6" d="M621.5,795.2l7.9,8.4c1.1,1.1,2.4,2,3.6,3.2s2.5,2.1,2.3,2.8a5.2,5.2,0,0,1-2.9,2.9,5.3,5.3,0,0,1-4.3-.6c-3.5-3.1-6.7-6.6-9.9-10-.7-.7-1.5-2.3-1.2-2.7S619.4,797,621.5,795.2Z"/>
      <path d="M876.9,508.6a48.1,48.1,0,0,1,5.3-.7,18.1,18.1,0,0,1,3.7.9c-.8,1-1.4,2.5-2.5,3s-3.2.5-4.7.9c-4.9,1.4-9.6,3.1-14.5,4-1.6.4-3.5-1.1-5.3-1.7,1.2-1.5,2.2-3.9,3.8-4.3,4.6-1.2,9.4-1.6,14.1-2.4Z"/>
      <path class="cls-6" d="M252.2,933.5c1.5,1.6,3,2.7,3.9,4.3a44.2,44.2,0,0,1,3.8,7.9c1.6,4.2-2.5,5.6-4.6,5.4s-3.3-3.6-4.4-5.9-1.3-4-1.8-6-1.2-2.5-.8-3.2S250.4,934.6,252.2,933.5Z"/>
      <path d="M747.7,943.4c-3.8,0-5.3-3.3-3.1-6.3a148.6,148.6,0,0,1,9.5-11.5c.6-.5,2.3-.3,3.3,0s1.3,1.8,1,2.3c-2.9,5.1-5.9,10.1-9.1,15C749.1,943.4,748,943.3,747.7,943.4Z"/>
      <path d="M696.3,576c-.4-.5-2-1.7-1.8-2.6s1.5-3.3,2.6-3.5c4.4-.8,8.8-1,13.2-1.5a21.2,21.2,0,0,0,3.1-.9c1.2-.4,2.4-1.2,3.5-1s1.5,2.1,1.2,2.8-1.6,2.9-2.7,3.2C709.4,573.8,703.3,574.8,696.3,576Z"/>
      <path class="cls-6" d="M316.4,956.6c.1-6.5,6.7-14.4,11.4-15,1-.1,2.7.5,2.9,1.2a3.5,3.5,0,0,1-.9,3.1c-4.2,2.8-6.8,6.2-6.5,11.6.1,1-1.9,2.1-2.9,3.2Z"/>
      <path class="cls-6" d="M8.7,749.9l-4.4.7c-5.2,1-9.6-1.4-11.7-6.5a18.6,18.6,0,0,0-1-2c-.5-1.5-1-3-1.4-4.5,2.2.7,4.9.9,6.6,2.3s1.8,4.6,3.5,5.4,5.5.9,8.2,1.4,3.2,1.2,4.8,1.7L9.2,751Z"/>
      <path class="cls-6" d="M201.6,937.8c-2.2.9-4.8,2.9-5.9,2.3a79.6,79.6,0,0,1-11.2-8.9c-.7-.7-.7-3.8-.2-4s3.9-1.3,4.9-.5c3.9,2.6,7.3,5.9,10.9,8.9A18.5,18.5,0,0,1,201.6,937.8Z"/>
      <path class="cls-6" d="M577.5,871.8a13.9,13.9,0,0,1-3.2,2.4c-.5.2-1.4-.6-2-1-4.6-2.8-9.2-5.5-13.6-8.6-1.1-.7-1.3-2.5-1.9-3.8,1.7-.3,3.6-1.1,5-.6a40.7,40.7,0,0,1,8,4.2,5.5,5.5,0,0,1,1.7,2c.9,1.7.1,5.1,4,3.5C575.8,869.8,576.6,870.9,577.5,871.8Z"/>
      <path d="M560.9,636.3c4.9-.9,9.8-1.9,14.8-2.5,1-.2,2.2.9,3.4,1.4-.9.8-1.6,2.2-2.6,2.5-5.4,1.5-10.9,2.9-16.5,4-1.6.3-3.5-.6-5.1-1.3s-.2-2.4.3-2.7a16.1,16.1,0,0,1,4.5-1.7,4,4,0,0,1,1.1,0Z"/>
      <path d="M468.7,667.9l-4.6-2.8c1.9-1.6,3.6-4,5.8-4.7a56.3,56.3,0,0,1,12.3-1.9c1.3-.1,2.7,1.1,4.1,1.8-.8,1-1.3,2.6-2.4,3C479.1,664.9,474.1,666.3,468.7,667.9Z"/>
      <path class="cls-6" d="M218.4,688.4c.8-6.4,5.5-11.2,10.9-10.5.9.1,2.4,1.5,2.3,1.9a12.9,12.9,0,0,1-2.2,3.5,44.6,44.6,0,0,0-3.4,4.2,56.5,56.5,0,0,0-2.9,6.7Z"/>
      <path class="cls-6" d="M214,685.9a83.9,83.9,0,0,1-3.8,8.5,3.4,3.4,0,0,1-3.1.9c-.7-.2-1.3-1.9-1.3-2.8.1-4.3.3-8.6.8-12.9a3.8,3.8,0,0,1,2.4-2.8,3.8,3.8,0,0,1,3.2,1.6C213.1,680.4,213.3,682.8,214,685.9Z"/>
      <path d="M1139.5,515.3a95.5,95.5,0,0,1-9.6-1.1,25.6,25.6,0,0,1-5-1.9c1.6-1.6,3.3-4.7,4.7-4.5,4.5.4,8.8,2,13.2,3.3.3.1.7,1.7.4,1.9A32.2,32.2,0,0,1,1139.5,515.3Z"/>
      <path class="cls-6" d="M51.5,754.9c4.6.9,9.2,1.8,13.7,2.9a9.5,9.5,0,0,1-.1,2.9,68.7,68.7,0,0,1-11.1.4c-2.3-.1-4.6-1.2-6.8-2s-2.7-1.2-4-1.8a26,26,0,0,1,4.7-1.6,9.7,9.7,0,0,1,3.4.1Z"/>
      <path class="cls-6" d="M450.6,903.1c.9-1.4,1.6-3.3,2.9-4.4s3.6-.4,3.8.1,0,3.2.4,4.8,1.5,3.5,1.9,5.4-.2,3.1-.3,4.6c-2-.4-5.1-.2-5.9-1.5S451.6,906.5,450.6,903.1Z"/>
      <path d="M535.8,649c-1.3,1.5-2,2.7-3,3.2a94,94,0,0,1-11.3,4.9c-1.6.6-3.5-.3-5.3-.5.8-1.6,1.2-4.1,2.4-4.7a100.4,100.4,0,0,1,13.4-4.5C532.9,647.2,534.2,648.3,535.8,649Z"/>
      <path class="cls-6" d="M295.4,962.7c-.9-.9-3.3-2-3.4-3.2-.2-2.9.6-5.8,1.3-8.7.2-.5,2.2-.9,3.2-.7s1.8,1.3,2.5,2.2,2.8,2.8,2.9,4.3-.9,3.7-2.1,5.1S297.5,962.3,295.4,962.7Z"/>
      <path d="M410.8,887.1a27.1,27.1,0,0,1,3.9-3c4-1.8,8-3.5,12.1-5.1,1.5-.5,3.1-.7,4.7-1.1-.9,1.5-1.3,3.8-2.6,4.5-4.7,2.8-9.7,5.1-14.6,7.4-.8.3-2.1-.5-3.1-.8A12.9,12.9,0,0,0,410.8,887.1Z"/>
      <path d="M504.4,584.1a32.5,32.5,0,0,1-5.8-.7c-1.5-.4-2.7-1.7-4-2.6,1.7-1.2,3.4-3.5,5.1-3.6a51,51,0,0,1,11,1.4c.8.2,2,2.3,1.9,2.5A11.2,11.2,0,0,1,509,584C507.8,584.4,506.3,584.1,504.4,584.1Z"/>
      <path class="cls-6" d="M304.4,936.8c-.6,0-1.3.3-1.8.1a27.3,27.3,0,0,1-4.7-2.7,3.3,3.3,0,0,1,.2-2.4,24,24,0,0,1,5.3-1.2,78.5,78.5,0,0,1,9.7-.1c1.2.1,2.4,1.2,3.5,1.8-.6.9-1.1,2.4-1.9,2.7-3.3,1-6.8,1.6-10.2,2.3Z"/>
      <path class="cls-6" d="M379.4,932.6c0-1.8-.6-3.8.1-5.2s2.6-2.6,3.9-3.8a27.2,27.2,0,0,1,1.8,4.4,48,48,0,0,1,1.1,7.6c.1,1.3,0,3-.8,3.7s-2.9.4-3.5-.3a41.4,41.4,0,0,1-3.5-6.2Z"/>
      <path d="M574.7,617.1c-1.8,1-3.3,2.6-4.6,2.5-3.8-.3-7.7,5-11.3,0-.5-.7.1-3.5.6-3.7a84.9,84.9,0,0,1,12.2-2.4C572.4,613.4,573.3,615.4,574.7,617.1Z"/>
      <path d="M824.9,520.5c-.9-1.1-2.9-2.3-2.9-3.6s.6-4.8,4.2-4.2,5,.1,7.5.4c.8.1,2.2,1.2,2.2,1.8s-.6,2.7-1.4,3C831.7,518.9,828.7,519.5,824.9,520.5Z"/>
      <path d="M775.2,529.7l7.3,4.4c-1.4,2-3.4,5.9-4.1,5.6-3-.8-5.5-3-8.2-4.7Z"/>
      <path class="cls-6" d="M345.4,645.6a10.8,10.8,0,0,1-3.2-.4c-1.5-.5-3.4-.9-4.1-2s.5-3.5,1.4-4a12.5,12.5,0,0,1,6.3-1c1.5.2,3.7,1.4,4,2.6C350.9,644.4,348.4,645.5,345.4,645.6Z"/>
      <path class="cls-6" d="M264.5,640.9c.8.8,2.2,1.7,2.5,3s-1.5,2.2-2.6,2.7a44.1,44.1,0,0,1-8.3,2.3c-1,.2-2.3-.8-3.5-1.2.7-1.5.9-3.9,2-4.4C257.4,642.1,260.6,641.8,264.5,640.9Z"/>
      <path class="cls-6" d="M477.7,882.6c-3.7-.3-6.4-.1-8.9-.9s-2.3-2.4-3.4-3.7a25.4,25.4,0,0,1,4.4-1.5,24.4,24.4,0,0,1,6.6.3,8.2,8.2,0,0,1,3.9,1.8c.4.2,0,2-.6,2.6A4.5,4.5,0,0,1,477.7,882.6Z"/>
      <path class="cls-6" d="M283.8,655.1l-5.1-4.4c2.6-1.4,5.2-3.1,8-3.9s6-.5,4.8,2.8S286.9,653,283.8,655.1Z"/>
      <path d="M1299.8,659.9l2.5,4c-3.3,2-6.6,4.2-10,6-.2.1-1.8-2.4-2.7-3.6Z"/>
      <path d="M1028.1,831.2l5.1,4.1c-2,1.7-3.7,4.2-6,4.9s-4.1-1.5-6.1-2.4Z"/>
      <path class="cls-6" d="M349.7,926.5c-.1.5,0,.9-.2,1s-3.2,2.9-4.8,2.9-6.4,3.2-8.6-1.3c-.2-.6-.5-1.4-.2-1.9s11.3-3.2,13-1.9A4.2,4.2,0,0,1,349.7,926.5Z"/>
      <path d="M1009,514.1l-6.1-5.4c1.5-1.5,3.7-4.6,4.6-4.3,2.5,1,4.6,3.3,6.8,5.1Z"/>
      <path d="M1051.8,842.6c.1,6.2-3.7,5.9-6.5,6.2-.9.1-3-2.5-2.9-2.7a26.7,26.7,0,0,1,5.5-6.1C1048.5,839.6,1050.9,842,1051.8,842.6Z"/>
      <path d="M933.4,535.7c-2.9,2.3-4.6,4.6-5.9,4.4s-3.9-2.3-5.8-3.5c1.8-1.7,3.4-3.9,5.5-4.7S930.3,533.7,933.4,535.7Z"/>
      <path d="M1184.8,790.9l-5-5.2c2.3-1.9,4.5-3.9,7-5.6.2-.2,3.1,2.4,2.9,2.9A61.9,61.9,0,0,1,1184.8,790.9Z"/>
      <path class="cls-6" d="M52.9,873.7c-2.2-2.3-4.5-4.1-4.2-4.8s2.6-4.2,4-4.1,4.5,1.8,6.7,2.9C57.6,869.5,55.7,871.2,52.9,873.7Z"/>
      <path d="M805.8,584.2c1.8,1.7,3.6,2.9,3.5,3.2-1.7,3.6-4.6,5.9-8.7,5.7-1.1-.1-2.1-1.5-3.2-2.3Z"/>
      <path d="M990.3,518.8c-2.9,1.7-4.8,3.7-6.3,3.4s-3.3-2.3-5-3.7c1.9-1.7,3.6-4.1,5.8-5S987.8,516.4,990.3,518.8Z"/>
      <path d="M1014.4,842.1c2,2.8,4.1,4.9,3.8,5.4-1.3,2-3.1,4-5.2,4.8s-2.9-2.2-4.4-3.4Z"/>
      <path d="M952.3,520.4c1.7,2.3,4.1,4.2,3.9,5.6s-2.7,3.1-4.3,4.6l-5.1-5.4Z"/>
      <path d="M876.4,587.2c-2.4-2.1-5.3-4.1-5-4.5,1.1-2.3,3-4.2,4.6-6.2,1.4,1.7,3.4,3.3,3.8,5.2S878,584.7,876.4,587.2Z"/>
      <path d="M829.8,561.8c-2.2-2-4.4-3.1-4.8-4.6-.9-3.5,2.2-4.4,4.7-4.1s3.6,1.9,5.4,3Z"/>
      <path d="M1202.4,743.4c-3.3,1.8-5.1,3.5-7.2,3.8s-2.5-2-3.8-3.1c1.8-1.8,3.5-3.8,5.6-5S1199.7,741.1,1202.4,743.4Z"/>
      <path d="M1149.2,517.2c2.8-1.6,4.7-3.6,6.2-3.4s3.3,2.6,4.9,4.1c-2.1,1.3-4.1,3-6.4,3.6S1151.5,519.4,1149.2,517.2Z"/>
      <path class="cls-6" d="M225.3,668.8l-8-4.8c2.2-1.2,4.4-3.3,6.7-3.4s3.2,2.8,4.2,4.7S226.4,667.5,225.3,668.8Z"/>
      <path d="M900.8,509.7c-2.3.9-4.5,2.2-6.9,2.4s-2.3-1.8-3.5-2.9a49.3,49.3,0,0,1,6.8-4.4c.7-.3,2.3,1.7,3.5,2.7A16.2,16.2,0,0,0,900.8,509.7Z"/>
      <path d="M1029.5,520.9c-1.5-2.4-3.4-4.5-3.1-5s3.1-3.6,5-3.9,3.3,1.9,4.9,2.9C1034.4,516.7,1032.4,518.4,1029.5,520.9Z"/>
      <path d="M705.4,538.5c-1.9-2.3-3.5-3.3-3.4-4.2.5-4.7,4.8-4,7.8-4.9.5-.1,2.4,2.4,2.3,2.5C710.2,534,708.1,535.9,705.4,538.5Z"/>
      <path d="M833.1,576c-1.8-1.7-4-2.8-4.3-4.3s2.4-4,3.2-3.8c2.4.7,4.5,2.4,6.7,3.7Z"/>
      <path d="M917.3,566.2c-1.7,1.1-3.6,3.3-5.1,3.1s-3-2.7-4.4-4.2c1.3-1.1,2.6-3.1,4-3.1s3.6,1.4,5.3,2.2C917.2,564.9,917.2,565.5,917.3,566.2Z"/>
      <path d="M521.7,584c-1.2-.8-2.4-1.3-2.8-2.1s-.1-2.5.4-2.7a30,30,0,0,1,7.6-2.7c.8-.2,2,1.4,3,2.2l-2.5,1.9Z"/>
      <path d="M1238.5,749.6c-1.8-2.7-3.8-4.4-3.6-5.7s2.2-3,3.5-4.5c1.5,1.5,3.7,2.7,4.2,4.4S1240.6,746.8,1238.5,749.6Z"/>
      <path d="M1107.5,825.6l-4.9-4.5,6.4-5.4c.8,1.6,2.4,3.3,2.2,4.7S1109.2,823.4,1107.5,825.6Z"/>
      <path d="M1158.3,642.5c1.3,1.9,2.9,3.8,2.7,4.1s-3.2,3.7-5.2,4-2.9-2.4-4.4-3.7Z"/>
      <path d="M1027.6,810.5c2.1-1.4,3.6-3.3,4.8-3.1s3.3,2.1,4.9,3.2l-5.3,4.8Z"/>
      <path d="M754.6,587c-1.7,1.6-2.3,2.5-2.5,2.4-3-1.5-5.9-3.1-8.8-4.7,1-1,2.6-3.2,3-2.9A77.3,77.3,0,0,1,754.6,587Z"/>
      <path d="M1084.5,727.8c-1.5-2.2-3.3-4.1-3-4.4a19.4,19.4,0,0,1,5-4.9c.3-.1,3.4,2.8,3.1,3.3S1086.8,725.3,1084.5,727.8Z"/>
      <path d="M595.1,556.8l-6.3-5.3c1.1-.8,2.3-2.3,3.2-2.2a34.2,34.2,0,0,1,6.5,2.4C597.6,553.1,596.7,554.5,595.1,556.8Z"/>
      <path d="M772.6,520.7c-1.3-2.3-2.9-3.8-2.7-5s2.1-3.1,3.2-4.6c1.3,1.5,3.4,3,3.5,4.7S774.5,518.5,772.6,520.7Z"/>
      <path d="M1033.4,851.8c-2.8,1.7-4.2,3.3-5.8,3.4s-2.3-2-3.5-3c1.5-1.4,2.8-3.2,4.5-3.9S1031,850,1033.4,851.8Z"/>
      <path d="M795.3,521c-1.6-2-2.5-3.3-3.5-4.6,1.5-1,2.9-3,4.4-2.9s2.6,2.1,4,3.3C798.8,517.9,797.5,519.1,795.3,521Z"/>
      <path d="M561.1,634l-2.6-3.6c1.9-1.1,3.7-2.6,5.8-3.3.4-.2,1.7,1.9,2.6,3Z"/>
      <path d="M890,562l-3.7-5a19.6,19.6,0,0,1,4.9-2.7c.5-.2,2.5,2,2.3,2.5S891.6,559.8,890,562Z"/>
      <path d="M1266.5,695.8l-2.5-2.1c1.4-1,2.7-2.3,4.3-2.9s2.7,1.2,2.6,1.6a25,25,0,0,1-1.6,5.1Z"/>
      <path d="M211.7,734.1l-2.4-1.2a12.7,12.7,0,0,1,2.8-.6c.6,0,1.2.6,1.8.9Z"/>
      <path d="M293.6,724.5l-1.7,1.8c-.3-.4-.8-.8-.8-1.3s.4-1,.6-1.1A8.2,8.2,0,0,1,293.6,724.5Z"/>
      <path d="M821.9,818.5,823,820c-.2.2-.6.6-.7.5l-1.2-1.1A4.4,4.4,0,0,1,821.9,818.5Z"/>
      <path d="M443.5,913.8h-1c-.2,0-.2-.3-.3-.5a2.7,2.7,0,0,1,.9,0C443.2,913.2,443.3,913.5,443.5,913.8Z"/>
      <polygon points="156.6 756.4 156.6 756.2 156.8 756.3 156.6 756.4"/>
      <path class="cls-7" d="M167.4,515.7c7,2.6,14.1,4.9,20.9,7.8,1.6.7,2.6,3.3,3.4,5.2,3.3,8.3,10.9,12.5,16.5,18.7s11,10.6,19.9,7.2c.8-.3,2.6,1.2,3.6,2.2,3.7,4.1,7.2,8.3,10.8,12.5a9.5,9.5,0,0,1,1,1.7c-.8.2-1.7.8-2.3.5-5.7-2.3-11.4-4.7-17-7.3s-12-6-17.8-9.4c-2.4-1.4-4.1-4-6.4-5.6s-5.8-4.2-9.1-5.2c-9.7-3-16.7-8.6-21-17.8-1-2-3-3.4-4.4-5.2a30.7,30.7,0,0,1-1.7-3.1l3.1-1Z"/>
      <path class="cls-7" d="M149.9,519.1c-1.4,1-2.9,2.5-3.3,2.3a44.1,44.1,0,0,1-5.2-4.5,9.4,9.4,0,0,1,.9-1.2Z"/>
      <path class="cls-6" d="M455.7,809.1c0,3.9-1,8.1.2,11.4,2.9,8,2.3,10.6-5.1,14.3-3.4,1.7-4.4.1-5.6-2.9s-3.8-4.4-4.9-7c-2.3-4.7-10.4-4.8-9.3-11.9a17,17,0,0,1,.8-4.5c3.3-7.5-.2-13.7-8.7-18.8s-13.8-10.5-20.5-15.9c-.4-.3-.4-1.9-.3-1.9,2.6-.5,1.2-6,5.9-4.3,6.7,2.4,13.6,4,20.4,6.1,1.1.3,2.4.6,3,1.4,5.8,6.6,11.6,13.1,17,20,3.3,4.2,5.8,9,8.6,13.5Z"/>
      <path class="cls-7" d="M6.6,919l-9.3-.8c-.4,0-.8-.4-1.2-.6s.6-.5.9-.5L11.5,916a4.4,4.4,0,0,1,1.9.7c-.5.4-1,1.1-1.6,1.3Z"/>
      <path class="cls-7" d="M119.6,928.8l7.9,4.2-.7,1-7.5-4.6A3.3,3.3,0,0,1,119.6,928.8Z"/>
      <path class="cls-6" d="M1127.2,633.5c.9.3,2.2,1.1,2.6.8,5.4-4.5,7.7,0,10,3.5s1.2,8.9-2.7,11.6c-11.7,8.4-24.6,14.2-39.2,15.4a18.2,18.2,0,0,1-3.2-.3c.5-.9.8-2.1,1.6-2.8,9.2-7.5,18.2-15.4,28.1-22.1,3-2.1,3.3-3.5,2.9-6.2Z"/>
      <path class="cls-6" d="M914.7,880.3c-2-.2-4-.3-6-.6s-2.8-.7-4.2-1c1-.9,1.9-2.2,3.1-2.6,4.5-1.7,8.9-3.9,13.6-4.5,9.3-1.1,17.9-3.4,26.1-8.2,4.7-2.8,10-5.4,15.3-6.3,8.5-1.5,13.9-7.6,20.5-11.8a27.8,27.8,0,0,1,2.7-2.1c1.7-.8,3.6-1.4,5.4-2.1-.9,1.9-1.3,4.6-2.9,5.6a203.9,203.9,0,0,1-18.1,10.6c-12.1,6.3-24.2,12.8-36.6,18.5-5.8,2.7-12.4,3.6-18.6,5.4Z"/>
      <path class="cls-6" d="M522.9,616.2l-4-2.4c1.3-1.4,2.3-3.5,3.8-3.9,4.3-1.2,8.9-1.4,13.2-2.6,8.3-2.3,16.5-5,24.7-7.6l34.8-11.3c13.3-4.3,26.5-8.5,39.9-12.6,3.9-1.2,8.1-1.8,12.1-2.6.5-.1,1.1.3,1.6.5s-.9,1.6-1.5,1.9c-6,2.4-11.9,4.9-17.9,6.9s-14.9,4.3-22.2,6.7c-10.1,3.2-20.2,6.4-30.2,10S556,608,545.1,611.6C538.2,613.9,530.7,614.7,522.9,616.2Z"/>
      <path class="cls-6" d="M670.8,587.9c6.7.3,12,.5,17.2.9,1,0,1.9,1,2.8,1.5l-2.5,1c-6.2,2.8-13.2,3.2-18.7,8.5s-10.9,6.5-16.8,8.1-10.2.6-15.3.3c-8.1-.5-14.2,3.5-20.6,7.6a34.5,34.5,0,0,1-24.5,5.1c-1.1-.2-2-1.2-3-1.8a16.7,16.7,0,0,1,2.4-1.6c13.1-6.2,26.4-11.6,40.8-13.6,4.5-.7,8.9-1.6,13.3-2.6s7-1.4,5.3-6.7c-.3-.8,1.8-3.4,3.2-3.7C660.2,589.5,666.2,588.7,670.8,587.9Z"/>
      <path class="cls-7" d="M752.2,546c-.7.5-1.1,1.1-1.4,1a4.2,4.2,0,0,1-1.4-.9c.3-.3.6-.8.9-.8A5.6,5.6,0,0,1,752.2,546Z"/>
      <path class="cls-7" d="M745.1,550.6l-1.9.9a1,1,0,0,0-.1-.3l2-.6Z"/>
      <path class="cls-6" d="M759.1,903.4l-5-1.5c1.8-3.5,2.7-8.1,5.5-10.4,5.6-4.5,12.2-7.8,18.6-11.3,1.8-1.1,4.8-2.3,5.1,2,0,.6,1.1,1,1.8,1.5,3.6,2.3,4.2,6.9.8,9.6C778.6,898.9,770.6,903.4,759.1,903.4Z"/>
      <path class="cls-7" d="M787.2,877.6l.9,1c-.3.2-.6.5-.9.5s-.7-.3-1.1-.5Z"/>
      <path class="cls-7" d="M541.4,959.5c-.3-1.4-.9-2.8-.6-3a67.3,67.3,0,0,1,7.3-4.4c.1-.1.9.9,1.3,1.4Z"/>
      <path class="cls-6" d="M1015,750.1l-3-.7,1.8-1.1c6.8-3.7,13.6-7.4,20.5-11,.2-.1,1.1.9,1.6,1.4-1.9,2.1-3.3,5.2-5.7,6.3C1025.1,747.3,1019.6,748.6,1015,750.1Z"/>
      <path class="cls-6" d="M1052.1,775.4c1.9,1,3,1.3,3,1.5-.3,2.1-.2,4.7-1.4,6s-3.4,3.8-5.9.3-6.1-1-7.5,1.8a4.7,4.7,0,0,1-2.1,2.3c-.6.2-2.3-.8-2.3-1.3s.3-3.2,1.1-3.6C1042.1,779.7,1047.5,777.5,1052.1,775.4Z"/>
      <path class="cls-7" d="M601.8,563.8l-2.5-1.2c.6-.6,1.2-1.3,1.8-1.8a5.1,5.1,0,0,1,2.3-1.2,54,54,0,0,1,5.8,1.1c-1.3.7-2.5,1.6-3.8,2.2S603.2,563.4,601.8,563.8Z"/>
      <path class="cls-7" d="M615.8,558.5l-2.1,1c-.2.1-.5-.2-.7-.3l1.6-1.3C614.8,557.8,615.2,558.2,615.8,558.5Z"/>
      <polygon class="cls-7" points="212.1 637.6 211.9 637.5 212.1 637.5 212.1 637.6"/>
      <path class="cls-7" d="M116,377.6c2.4-1.9,4.2-3.5,6.2-4.4s2.1,1.9,3.2,2.9l-6.2,6.1C118.4,381.1,117.6,380,116,377.6Z"/>
      <path class="cls-7" d="M93.2,440.6a.8.8,0,0,0,.1-.4c.9-4.2-.1-10.1,6-10.4s10,8.2,9.2,13.5-2.9,7.5-7.7,7.3S92.9,445.6,93.2,440.6Z"/>
    </g>
    <g>
      <path class="cls-6" d="M263.7,626.5s-4-15.1,0-15.1,14.3,3.4,14.2-1.8,1.9-23.4,3.1-24.1,29.7-6.1,29.7-6.1l4.8,53.3-54.8-5.8Z"/>
      <polygon class="cls-8" points="235 511.9 243.5 548.6 340.7 540.7 340.7 503.9 235 511.9"/>
      <path d="M345.4,527.2c1.1-7.6-1.9-14.6-4.2-21.9-1-3.2-2.8-3.9-5.7-3.4a23.9,23.9,0,0,1-4.6,1.2c-2.7.1-5.4-.3-8.1-.3l-11.2.5c-7.9,0-15.9-.5-23.8,0-10.1.7-20.1,2.1-30.1,3.3-7.5,1-14.9,2-22.3,3.3-1.3.2-3.4,1.8-3.4,2.7,0,2.9.8,5.8,1.3,8.6s.9,6.1,1.5,9.1c1.4,6.2,2.5,12.5,4.6,18.5.7,2,3.7,4,6,4.6s5.7,0,8.6-.2l24-1.6a2.6,2.6,0,0,1,1.9,1.5c.6,3.8.9,7.5,1.5,11.3s1.4,6.7,1.8,10.1c.7,5.5.6,5.6-4.9,6.9-2.4.5-4.8,4.7-3.5,6.3s2.9,6.4,2.5,10.1a4.2,4.2,0,0,0,.3,1.9c1.5,3.5-.4,8.2-3.5,8.5a32.5,32.5,0,0,1-5.4.1c-5.9-.3-7.9,1.4-8.2,7.1-.2,2.6-.4,5.2-.4,7.8a15.9,15.9,0,0,0,.6,3.7l-4.2-.3-.8-.2-2.2.3c.4,1,.6,2.6,1.3,2.8a30.8,30.8,0,0,0,7.5.9c2,.1,4-.8,5.9-.6s6,1.4,9,2c1,.2,2.7.1,2.9-.3a12.4,12.4,0,0,0,.5-4.7,3,3,0,0,0-2.2-2c-4,0-8.1.3-12.1.5a1.7,1.7,0,0,1-1-1,51.6,51.6,0,0,1,.7-7.9c.2-1.1,1.5-2.7,2.4-2.8,2.9-.3,5.9.1,8.9,0a11.7,11.7,0,0,0,4.5-.9c2.8-1.1,1.3-3.3,1.2-5.2-.4-5.9-.3-11.9-.6-17.8-.2-3.2,1.1-4.4,4.3-4.6,7.1-.5,14.1-1.3,21.2-1.9a1.8,1.8,0,0,1,1.6,1c.8,5.8,1.8,11.7,2.2,17.6s-.2,10.2.2,15.3c.1,1.7,1.4,4.1,2.8,4.7s4.6-2.6,4.3-5.3-.8-6.4-1.3-9.5-1-3-.3-4.6v-2c-.1-.9,0-2.4-.2-4.1-.8-5.4-1.4-10.9-2.3-16.3-.2-1-1.8-2.6-2.6-2.5-5.9.4-11.7,1.4-17.5,1.9-1.6.1-4-.2-4.6-1.2s-1-3.9-1.3-6c-.8-6.1-1.6-12.3-2.2-18.4-.2-2.3.7-4.2,3.5-4.5,5-.4,10-1.2,15-1.6s12.2-.7,18.3-1.2q6.8-.4,13.5-1.2c1.6-.2,3.8-.6,4.5-1.7s.4-3.4.8-5.2a6.7,6.7,0,0,1,1.3-2.5c.7-1,1.9-1.9,2.1-3S345.5,529.3,345.4,527.2Zm-7.1-4a38.8,38.8,0,0,0-2.3,13.1c0,3.4-2.5,2.5-3.5,3.8-6.1.7-11.8,1.5-17.6,2s-11.9.8-17.9,1.3c-1.3.1-2.5.9-3.8,1-6.1.9-12.2,1.9-18.4,2.5s-13.5,1.1-20.3,1.5c-1.9.2-4.1.4-5.6-.4a13,13,0,0,1-4.4-4.9,52.6,52.6,0,0,1-2.3-8c-1.1-4.4-2.1-8.8-3.1-13.2a16.8,16.8,0,0,0-.7-2.4l-1.8-5a54.5,54.5,0,0,1,6.5-2.1c3.5-.6,7.1-.8,10.6-1.2,9.7-1.2,19.4-3,29.2-3.5s22.3,0,33.5,0h17.9c.7,0,1.8.4,2,1C338.1,513.4,340.6,517.7,338.3,523.2Z"/>
      <path d="M289.5,624.7c0-3.4-.2-6.8,0-10.2s3.9-2.9,6.3-3.7,3.4-1.3,5.2-1.8,3.2-1,4.1-.4,1.5,2.5,1.5,3.8c.2,3.5-.2,7,0,10.5a52.9,52.9,0,0,0,1.3,7.8c.4,2.3-3.3,6.4-4.8,5.1s-2.1-4.1-2.5-6.3a99.9,99.9,0,0,1-.8-11c-.1-1-.1-2.1-.2-3.1a3.9,3.9,0,0,0-.6-1.1c-1.5,1.1-4.2,2.2-4.2,3.4a57.8,57.8,0,0,0,1.1,12.4c.2,1.2,1.9,2.2,2.8,3.4s1,1.9.7,2.5a2.8,2.8,0,0,1-2.3,1.2c-4.5,0-5.1-4.1-6.8-6.8s-1.3-3.7-1.9-5.5Z"/>
      <path d="M294.2,607.1h-.5c-5.8-.2-6.4-.8-6.7-6.4a39.8,39.8,0,0,0-1.2-6.9c-.5-2.5.4-3.6,2.8-4.1a76,76,0,0,0,9.5-1.9c5-1.4,7-.2,7.8,4.7a92.4,92.4,0,0,0,2.1,9.1c.8,3.1-.5,4.7-3.4,5s-7,.4-10.4.6Zm3.5-4.7h0a8.1,8.1,0,0,0,2.2-.1,3.1,3.1,0,0,0,1.7-1.3,3.6,3.6,0,0,0-.1-2.3c-.3-.4-1.4-.1-2.2-.1a19.7,19.7,0,0,0-3.4.4,10.5,10.5,0,0,0-2.8,1.4c1,.6,1.9,1.4,2.9,1.9S297.1,602.4,297.7,602.4Zm-2.7-7.6,4.6-.9.8-.5c-.3-.2-.6-.5-.9-.5a22.2,22.2,0,0,0-4.4-.3c-1,.1-1.9.9-2.9,1.3Z"/>
      <path d="M312.1,629.8c-.4-.6-1.5-1.6-1.4-2.4.4-3.6,4-3,6.2-4.2.6-.3,3.1,1.3,3.4,2.4C320.8,628.2,317.6,629.9,312.1,629.8Z"/>
      <path class="cls-7" d="M297.7,602.4c-.6,0-1.3.1-1.7-.2s-1.9-1.3-2.9-1.9a10.5,10.5,0,0,1,2.8-1.4,19.7,19.7,0,0,1,3.4-.4c.8,0,1.9-.3,2.2.1a3.6,3.6,0,0,1,.1,2.3,3.1,3.1,0,0,1-1.7,1.3,8.1,8.1,0,0,1-2.2.1Z"/>
      <path class="cls-7" d="M295,594.8l-2.8-.9c1-.4,1.9-1.2,2.9-1.3a22.2,22.2,0,0,1,4.4.3c.3,0,.6.3.9.5l-.8.5Z"/>
      <path class="cls-3" d="M294.7,537.6c-5.2-.1-5.9-2.8-5.4-6.9a33.1,33.1,0,0,0,.4-5.5c0-.3-1.6-1.1-1.8-1-2.4,2.2-4.8,4.5-7,6.8-.4.4-.1,1.5.1,2.2s1,1.3.9,1.7-.8,4.3-1.6,4.4c-2.5.4-4.3-1.1-4.8-3.8s-1.3-6.9-1.9-10.3-.1-6.9,3-9.1a8.9,8.9,0,0,1,10.8-.2,7.1,7.1,0,0,0,3.5,1c3.1.2,6.3,0,9.4.2a12.7,12.7,0,0,1,3.2,1.3,14.1,14.1,0,0,1-3.2,2.4,38.2,38.2,0,0,1-4.8,1.5,35.6,35.6,0,0,1,4.7,1,25.4,25.4,0,0,1,3.8,1.6c-1.3.8-2.5,1.7-3.9,2.4a4,4,0,0,1-2.1.7c-1.6.1-3.9-.2-2.8,2.4s2.6,1.6,4.1,2,3.2.2,4.7.6a2.4,2.4,0,0,1,1.2,2.1,3.1,3.1,0,0,1-1.9,1.6C300.5,537.2,297.6,537.3,294.7,537.6ZM277.9,522l2.1,3c1.3-1.3,2.7-2.6,4-4-.7-.7-1.7-2.1-2-1.9A22.4,22.4,0,0,0,277.9,522Z"/>
      <path class="cls-3" d="M312.7,528.4c-.2,2.8-.1,5.1-.6,7.1s-1.5,2.9-2.3,2.9-2.6-1.5-2.5-3.6a81.6,81.6,0,0,0-.5-13.1c-.2-1.6-.8-2.8.5-4.3s4.5-2.3,6.4.3,4.3,5.9,6.4,8.8c.3.4.9.6,1.3,1a12.4,12.4,0,0,0,.4-1.6c.1-3.6.1-7.2.2-10.8,0-1.1-.2-2.5.3-3.4a4.6,4.6,0,0,1,2.6-1.7c.5,0,1.8,1.2,1.8,1.8.1,5.2-.1,10.4-.1,15.5a41.7,41.7,0,0,1,.1,5,4.3,4.3,0,0,1-1.6,2.6,3.6,3.6,0,0,1-3.1-.7c-2.8-2.1-5.4-4.5-8.1-6.8-.2-.2-.6-.2-.9-.3S312.7,528.4,312.7,528.4Z"/>
      <path class="cls-3" d="M259.9,540.5c-4.8.1-10.1-5.9-9.3-10.5a5.4,5.4,0,0,0,0-1.8c-.6-5.6,3.5-8.3,7.1-11.2a1,1,0,0,1,.7-.2c4.9-.3,8.3,2.7,11.3,5.9s2.6,5.9,1.1,9.5S265.4,540.2,259.9,540.5Zm-4.2-11.9c-.2,3.4,2,6.6,5,6.7s4.5-2,5-4.9-2.8-9-6-8.9-3.3,4.2-4,6.9Z"/>
    </g>
    <path d="M336.4,584c5.2-1.8,11.3-.5,16.9-1.3s9.9.4,14.7,3,11.7,3.3,16.3,6.6c6.4,4.7,11.7,11.1,17.5,16.8,1.8,1.8,4,3.5,5.1,5.7,2.9,5.9,6.1,11.8,7.8,18.1s5,7.3,9.3,9.5,13.2,5,15.6,9.7c4.8,9.4,13.5,12,21.1,16.8,2.7,1.6,4.3,4.8,6.1,7.5.2.3-1,1.9-1.8,2.4a2.4,2.4,0,0,1-2.3-.7c-3.1-6.4-9.9-6.9-15.4-8.6s-10.6-4.9-12.9-10.9c-3-7.7-10.5-9.2-17-11.2-8.1-2.4-10-8.3-11.9-15.2a55.6,55.6,0,0,0-6.5-14.5,86.1,86.1,0,0,0-11.1-13.8c-2.8-2.8-6.6-4.9-10.2-6.9s-9.4-4.2-13.8-6.8c-8-4.6-16.4-4.2-25-2.8Z"/>
    <path class="cls-9" d="M780.4,504.2c-9.7-6.5,3,15.1,3,1"/>
    <path class="cls-9" d="M717.4,150.2c-12.5,0,2,13.3,2,4"/>
    <path id="path-150" class="cls-10" d="M628.4,59.2c-23.9-9.6-2,8.2-2,0"/>
    <path id="path-151" class="cls-10" d="M393.4,44.2c-18-5.1-1,17.8-1-1"/>
    <path id="path-152" class="cls-10" d="M745.4,262.2c-10.9-9.3-3.9,11.8,1,2"/>
    <path id="path-153" class="cls-10" d="M561.4,244.2c5.7-11.5-7,0,1,0"/>
    <path id="path-154" class="cls-10" d="M502.4,137.2c-10.9-7.3-6.6-.3-2,2"/>
    <path class="cls-11" d="M428.1,350.8c5.2,0,5.2-8,0-8s-5.1,8,0,8Z"/>
    <path class="cls-11" d="M217.3,167.7c5.1,0,5.1-8,0-8s-5.2,8,0,8Z"/>
    <path class="cls-11" d="M598.1,195.5c5.2,0,5.2-8,0-8s-5.1,8,0,8Z"/>
    <path class="cls-11" d="M851.5,370.4c5.2,0,5.2-8,0-8s-5.1,8,0,8Z"/>
    <path class="cls-11" d="M205.8,243.1c5.1,0,5.1-8,0-8s-5.2,8,0,8Z"/>
    <path class="cls-11" d="M127.5,252.2c10.3,0,10.3-16,0-16s-10.4,16,0,16Z"/>
    <path class="cls-11" d="M400.4,461.9c5.1,0,5.1-8,0-8s-5.2,8,0,8Z"/>
    <path class="cls-11" d="M66.9,350.8c5.1,0,5.1-8,0-8s-5.2,8,0,8Z"/>
    <path class="cls-11" d="M62.2,257.1l-.8.5-1.4.5-3,1.1a.6.6,0,1,0,.4,1.2l3.2-1.2c1-.4,2.1-.6,2.7-1.5a.8.8,0,0,0-.2-.9.8.8,0,0,0-.9.3Z"/>
    <path class="cls-11" d="M563.8,42.1a6.1,6.1,0,0,0-6.4,6.1.7.7,0,0,0,.7.6.6.6,0,0,0,.6-.6,4.8,4.8,0,0,1,5.1-4.8c.3,0,.6-.4.6-.7a.6.6,0,0,0-.6-.6Z"/>
    <path class="cls-11" d="M858.8,141.3c1.6-.8,3.3.9,3.6,2.4s-.9,4.4-2.1,6.2.7,1.3,1.1.6,3.1-5,2.1-7.6-3.1-3.7-5.3-2.7-.1,1.5.6,1.1Z"/>
    <path class="cls-11" d="M839.6,423.2a5.9,5.9,0,0,0-5.3-3.2,4.7,4.7,0,0,0-4.2,3.7,4.2,4.2,0,0,0,.6,3.1.7.7,0,0,0,.9.2.5.5,0,0,0,.2-.8,3.3,3.3,0,0,1,1.4-4.7c2-.9,4.4.5,5.3,2.4s1.4,0,1.1-.7Z"/>
    <path class="cls-11" d="M640.6,390.1l.3.4s.1.2,0,.1a.3.3,0,0,1,.1.2c0,.1.1.2.1.4h0v.4h0c0,.1-.1.3-.1.4s-.1.3-.1.4h-.1v.2l-.2.3c0,.1-.1.2,0,.1l-.2.2-.3.3h-.2l-.6.3h-.7a.6.6,0,0,0-.7.6c0,.4.3.6.7.6,2.2.2,4-2.1,3.8-4.2a2.7,2.7,0,0,0-.6-1.7.5.5,0,0,0-.8-.2c-.3.1-.5.6-.3.8Z"/>
    <path class="cls-9" d="M1211.7,889.8c6.4-9.6-15.1,3-1,3"/>
    <path class="cls-9" d="M1565.7,826.8c0-12.4-13.3,2-4,2"/>
    <path id="path-150-2" data-name="path-150" class="cls-10" d="M1656.7,737.8c9.5-23.8-8.2-2,0-2"/>
    <path id="path-151-2" data-name="path-151" class="cls-10" d="M1671.7,502.8c5.1-17.9-17.8-1,1-1"/>
    <path id="path-152-2" data-name="path-152" class="cls-10" d="M1453.7,854.8c9.2-10.8-11.8-3.9-2,1"/>
    <path id="path-153-2" data-name="path-153" class="cls-10" d="M1471.7,670.8c11.4,5.8-.1-6.9,0,1"/>
    <path id="path-154-2" data-name="path-154" class="cls-10" d="M1578.7,611.8c7.2-10.8.3-6.5-2-2"/>
    <path class="cls-11" d="M1369.1,545.6c10.3,0,10.3-16,0-16s-10.3,16,0,16Z"/>
    <path class="cls-11" d="M1552.2,330.8c5.1,0,5.1-8,0-8s-5.2,8,0,8Z"/>
    <path class="cls-11" d="M1489.2,481.2c5.2,0,5.2-8,0-8s-5.1,8,0,8Z"/>
    <path class="cls-11" d="M1456,548.8c5.2,0,5.2-8,0-8s-5.1,8,0,8Z"/>
    <path class="cls-11" d="M1524.4,711.6c5.1,0,5.1-8,0-8s-5.2,8,0,8Z"/>
    <path class="cls-11" d="M1349.5,965c5.1,0,5.1-8,0-8s-5.2,8,0,8Z"/>
    <path class="cls-11" d="M1257.9,513.8c5.2,0,5.2-8,0-8s-5.1,8,0,8Z"/>
    <path class="cls-11" d="M1648,329a2.2,2.2,0,0,1-.5-.8,12.1,12.1,0,0,1-.5-1.4l-1.1-3a.7.7,0,0,0-.8-.4c-.3.1-.6.4-.4.7l1.2,3.3a4.9,4.9,0,0,0,1.5,2.7.6.6,0,0,0,.8-.3.5.5,0,0,0-.2-.8Z"/>
    <path class="cls-11" d="M1673.8,673.2a6,6,0,0,0-6.1-6.3.6.6,0,0,0-.6.6.7.7,0,0,0,.6.7,4.7,4.7,0,0,1,4.8,5,.7.7,0,0,0,.6.7c.4,0,.6-.3.7-.7Z"/>
    <path class="cls-11" d="M1574.5,968.3c.8,1.6-.9,3.3-2.3,3.6s-4.5-1-6.2-2.1a.6.6,0,0,0-.6,1.1c2.1,1.4,4.9,3.1,7.6,2.1s3.7-3.2,2.6-5.4-1.4,0-1.1.7Z"/>
    <path class="cls-11" d="M1292.6,949a5.3,5.3,0,0,0,3.2-5.2,4.5,4.5,0,0,0-3.6-4.2,4,4,0,0,0-3.2.6.7.7,0,0,0,.7,1.1,3.2,3.2,0,0,1,4.6,1.4c1,2-.5,4.4-2.3,5.3s-.1,1.4.6,1Z"/>
    <path class="cls-11" d="M1325.7,750.1l-.3.3h-.7c.1-.1,0,0-.1,0h-.4s-.2-.1-.1,0h-.3l-.4-.2h-.3l-.4-.2s-.1-.1,0-.1h-.2l-.3-.3h0l-.2-.2a3.3,3.3,0,0,0-.3-.6v-.3h0v-.5a.6.6,0,0,0-.6-.6.7.7,0,0,0-.7.6,4,4,0,0,0,4.2,3.9,2.8,2.8,0,0,0,1.8-.6.7.7,0,0,0,.2-.9.8.8,0,0,0-.9-.2Z"/>
  </g>
</svg>
