<svg width="1440" height="790" viewBox="0 0 1440 790" fill="none" xmlns="http://www.w3.org/2000/svg">
<path d="M445 14.843C409 -15.9271 32 69.95 0 79V683C30 683.603 45 692.509 85 731.605C135 780.475 263 755.135 361 731.605C459 708.075 531 749.705 603 782.285C675 814.866 787 738.845 937 655.585C1057 588.977 1318.67 638.957 1440 683V79C1385 92.5 1319.75 130 1291 72.7632C1281 52.8531 1225 2.17294 1185 2.17294C1145 2.17294 1081 38.3731 1009 31.1331C937 23.893 909 14.843 803 2.17294C697 -10.4971 655 34.753 603 72.7632C551 110.773 481 45.6131 445 14.843Z" fill="black" fill-opacity="0.06"/>
</svg>
