<svg xmlns="http://www.w3.org/2000/svg" viewBox="0 0 2881 1801"><defs><style>.cls-1{opacity:0.2;}.cls-2{opacity:0.16;}.cls-3{opacity:0.12;}.cls-4{opacity:0.08;}.cls-5{opacity:0.04;}</style></defs><title>skymouse_banner</title><g id="_20" data-name="20"><polygon class="cls-1" points="0 876 183 786 0 612 0 876"/><polygon class="cls-1" points="581 1048 545 950 869 958 581 1048"/><polygon class="cls-1" points="1161.5 663.5 1356 988 869 958 1161.5 663.5"/><polygon class="cls-1" points="597 316 921 2 567 172 597 316"/><polygon class="cls-1" points="407 822 183 786 312 533 407 822"/><polygon class="cls-1" points="2423 375 2104 100 2375 65 2423 375"/><polygon class="cls-1" points="2732 323 2433 713 2880 613 2732 323"/><polygon class="cls-1" points="2782 954 2880 1192 2632 1139 2782 954"/><polygon class="cls-1" points="1380 1191 1880 1207 1440 1640 1380 1191"/><polygon class="cls-1" points="1897 353 1455 257 1533 677 1897 353"/></g><g id="_16" data-name="16"><polygon class="cls-2" points="2294 925 2296.5 778.5 2052 883 2294 925"/><polygon class="cls-2" points="1440 1640 921 1564 1106 1772 1440 1640"/><polygon class="cls-2" points="597 316 295 322 312 533 597 316"/><polygon class="cls-2" points="407 822 312 533 581 779 407 822"/><polygon class="cls-2" points="98 953 0 1191 248 1138 98 953"/><polygon class="cls-2" points="921 1564 872 1358 461 1300 921 1564"/><polygon class="cls-2" points="1380 1191 872 1358 921 1564 1380 1191"/><polygon class="cls-2" points="667 585 725 430 1020 468 667 585"/><polygon class="cls-2" points="725 430 597 316 794 271 725 430"/><polygon class="cls-2" points="567 172 641 0 349 1 567 172"/><polygon class="cls-2" points="2423 375 2433 713 2249 630 2423 375"/><polygon class="cls-2" points="2296.5 778.5 2006 694 2052 883 2296.5 778.5"/><polygon class="cls-2" points="2352 1352 2663 1680 2761 1523 2352 1352"/><polygon class="cls-2" points="2352 1352 2213 1170 2473 1139 2352 1352"/></g><g id="_12" data-name="12"><polygon class="cls-3" points="248.5 1138.5 0.5 1191.5 189.5 1379.5 248.5 1138.5"/><polygon class="cls-3" points="189.5 1379.5 119.5 1522.5 460.5 1300.5 189.5 1379.5"/><polygon class="cls-3" points="295 322 295 148 567 172 295 322"/><polygon class="cls-3" points="460.5 1300.5 667.5 1168.5 406.5 1138.5 460.5 1300.5"/><polygon class="cls-3" points="2473.5 822.5 2434.5 711.5 2296.5 778.5 2473.5 822.5"/><polygon class="cls-3" points="2178.5 1562.5 2138.5 1325.5 2351.5 1352.5 2178.5 1562.5"/><polygon class="cls-3" points="1355.5 988.5 1532.5 677.5 1161.5 663.5 1355.5 988.5"/><polygon class="cls-3" points="1743 852 1533 677 2006 694 1743 852"/><polygon class="cls-3" points="2104 100 1503 2 1455 257 2104 100"/><polygon class="cls-3" points="1548.5 1800.5 1877.5 1443.5 1960.5 1662.5 1548.5 1800.5"/><path class="cls-3" d="M1019.5,467.5c4-1-99-466-99-466l-127,269Z" transform="translate(0.5 0.5)"/></g><g id="_8" data-name="8"><polygon class="cls-4" points="0 1 295 148 0 514 0 1"/><polygon class="cls-4" points="597 316 312 533 667 585 597 316"/><polygon class="cls-4" points="581 1048 667 1169 869 958 581 1048"/><polygon class="cls-4" points="460.5 1301.5 217.5 1679.5 119.5 1522.5 460.5 1301.5"/><polygon class="cls-4" points="383 1010 407 1138 248 1138 383 1010"/><polygon class="cls-4" points="667 1169 1380 1191 869 958 667 1169"/><polygon class="cls-4" points="2880 2 2585 149 2732 323 2880 2"/><polygon class="cls-4" points="2881 871 2697 787 2880 613 2881 871"/><polygon class="cls-4" points="1877 1444 2179 1562 1960.5 1662.5 1877 1444"/><polygon class="cls-4" points="2632 1139 2473 1139 2352 1352 2632 1139"/><polygon class="cls-4" points="2179 1562 1880 1207 1877 1444 2179 1562"/><polygon class="cls-4" points="2880 1192 2761 1523 2880 1611 2880 1192"/><polygon class="cls-4" points="2423 375 2585 323 2433 713 2423 375"/><polygon class="cls-4" points="2249 630 1897 353 2006 694 2249 630"/><polygon class="cls-4" points="2052 883 1743 852 1880 1207 2052 883"/><polygon class="cls-4" points="2104 100 1455 257 1897 353 2104 100"/><polygon class="cls-4" points="1106 1772 1440 1640 1549 1800 1106 1772"/><polygon class="cls-4" points="581 779 667 585 1161 663 581 779"/><polygon class="cls-4" points="921 2 1455 257 1020 468 921 2"/></g><g id="_4" data-name="4"><polygon class="cls-5" points="248 1138 183 1386 461 1300 248 1138"/><polygon class="cls-5" points="407 822 217 943 383 1010 407 822"/><polygon class="cls-5" points="248 1138 407 1138 461 1300 248 1138"/><polygon class="cls-5" points="407 822 581 779 383 1010 407 822"/><polygon class="cls-5" points="921 1564 1380 1191 1440 1640 921 1564"/><polygon class="cls-5" points="0 1411 119 1522 0 1610 0 1411"/><polygon class="cls-5" points="567 172 295 322 597 316 567 172"/><polygon class="cls-5" points="581 779 1161 663 869 958 581 779"/><polygon class="cls-5" points="667 585 1020 468 1161 663 667 585"/><polygon class="cls-5" points="869 958 1356 988 1380 1191 869 958"/><polygon class="cls-5" points="383 1010 581 1048 545 950 383 1010"/><polygon class="cls-5" points="217 1679 567 1591 779 1800 217 1679"/><polygon class="cls-5" points="119 1522 217 1679 0 1610 119 1522"/><polygon class="cls-5" points="0 514 312 533 0 612 0 514"/><polygon class="cls-5" points="217 943 183 786 98 953 217 943"/><polygon class="cls-5" points="248 1138 383 1010 217 943 248 1138"/><polygon class="cls-5" points="0 876 98 953 183 786 0 876"/><polygon class="cls-5" points="567 1591 461 1300 921 1564 567 1591"/><polygon class="cls-5" points="779 1800 921 1564 1106 1772 779 1800"/><polygon class="cls-5" points="217 1679 0 1800 0 1610 217 1679"/><polygon class="cls-5" points="872 1358 667 1169 461 1300 872 1358"/><polygon class="cls-5" points="1020 468 794 271 725 430 1020 468"/><polygon class="cls-5" points="295 148 349 1 0 1 295 148"/><polygon class="cls-5" points="545 950 581 779 869 958 545 950"/><polygon class="cls-5" points="2632 1139 2547 1369 2352 1352 2632 1139"/><polygon class="cls-5" points="2473 823 2663 944 2386 871 2473 823"/><polygon class="cls-5" points="2375 1092 2213 1170 2052 883 2375 1092"/><polygon class="cls-5" points="2473 823 2296.5 778.5 2386 871 2473 823"/><polygon class="cls-5" points="2375 1092 2294 925 2052 883 2375 1092"/><polygon class="cls-5" points="2632 1139 2880 1192 2547 1369 2632 1139"/><polygon class="cls-5" points="2375 65 2585 323 2423 375 2375 65"/><polygon class="cls-5" points="2386 871 2375 1092 2294 925 2386 871"/><polygon class="cls-5" points="2006 694 1743 852 2052 883 2006 694"/><polygon class="cls-5" points="2547 1369 2761 1523 2352 1352 2547 1369"/><polygon class="cls-5" points="2663 1680 2399 1569 2399 1801 2663 1680"/><polygon class="cls-5" points="2761 1523 2663 1680 2880 1611 2761 1523"/><polygon class="cls-5" points="2585 323 2585 149 2375 65 2585 323"/><polygon class="cls-5" points="2473 823 2697 787 2433 713 2473 823"/><polygon class="cls-5" points="2663 944 2697 787 2782 954 2663 944"/><polygon class="cls-5" points="2632 1139 2386 871 2663 944 2632 1139"/><polygon class="cls-5" points="2881 871 2782 954 2697 787 2881 871"/><polygon class="cls-5" points="2399 1569 2352 1352 2179 1562 2399 1569"/><polygon class="cls-5" points="2399 1801 2179 1562 1960 1662 2399 1801"/><polygon class="cls-5" points="2663 1680 2880 1801 2880 1611 2663 1680"/><polygon class="cls-5" points="2386 871 2473 1139 2632 1139 2386 871"/><polygon class="cls-5" points="1880 1207 2139 1325 2179 1562 1880 1207"/><polygon class="cls-5" points="2213 1170 1880 1207 2052 883 2213 1170"/><polygon class="cls-5" points="2139 1325 2213 1170 2352 1352 2139 1325"/><polygon class="cls-5" points="1897 353 2131 271 2264 413 1897 353"/><polygon class="cls-5" points="2249 630 2264 413 1897 353 2249 630"/><polygon class="cls-5" points="2264 413 2423 375 2131 271 2264 413"/><path class="cls-5" d="M1896.5,352.5c-4-1,207-253,207-253l27,171Z" transform="translate(0.5 0.5)"/><polygon class="cls-5" points="2375 65 2239 1 2531 2 2375 65"/><polygon class="cls-5" points="2585 149 2531 2 2880 2 2585 149"/><polygon class="cls-5" points="407 1138 581 1048 667 1169 407 1138"/><polygon class="cls-5" points="2375 1092 2473 1139 2213 1170 2375 1092"/><polygon class="cls-5" points="2249 630 2296.5 778.5 2433 713 2249 630"/><polygon class="cls-5" points="2585 323 2732 323 2433 713 2585 323"/><polygon class="cls-5" points="1356 988 1743 852 1380 1191 1356 988"/><polygon class="cls-5" points="1455 257 1347 468 1533 677 1455 257"/><polygon class="cls-5" points="1020 468 1347 468 1161 663 1020 468"/><polygon class="cls-5" points="1347 468 1455 257 1020 468 1347 468"/><polygon class="cls-5" points="1533 677 1743 852 1356 988 1533 677"/><polygon class="cls-5" points="2006 694 1533 677 1897 353 2006 694"/><polygon class="cls-5" points="1455 257 1503 2 921 2 1455 257"/><polygon class="cls-5" points="2239 1 2104 100 2375 65 2239 1"/><polygon class="cls-5" points="1440 1640 1877 1444 1880 1207 1440 1640"/></g></svg>