<svg xmlns="http://www.w3.org/2000/svg" viewBox="0 0 485.3 681.8">
  <defs>
    <style>
      .cls-1 {
        fill: #2b3035;
      }

      .cls-2 {
        fill: #817f82;
      }

      .cls-3 {
        fill: #fff;
      }

      .cls-4 {
        fill: none;
      }

      .cls-5 {
        fill: #7fe27f;
      }

      .cls-6 {
        fill: #eb5867;
      }

      .cls-7 {
        fill: #ffef64;
      }
    </style>
  </defs>
  <g id="frame">
    <g>
      <path class="cls-1" d="M155.7,141.7l7.1-.8c1.2-.1,1.7-.4,1.3-1.9a14.5,14.5,0,0,1-.4-5.1c0-.6.9-1.1,1.4-1.7s1.2,1.1,1.3,1.7,0,3.7,0,5.5v.5c1.5,0,2.9-.2,4.4-.3-.1-.1,0-.4-.1-.4-1.8-1.1-.6-2.5-.5-3.9a18,18,0,0,0-.2-2.2c0-.4-.1-.9.1-1.2l2.7-3.7,1.2-.4a4,4,0,0,0,0,1.1c.4,3.4-1.3,6.5-1.4,9.8a.9.9,0,0,0,.6.6l11.6-.9c3.2-.3,6.6-.1,9.6-1.2a16.5,16.5,0,0,1,9.6,0,37.1,37.1,0,0,0,15.9,0,26.9,26.9,0,0,1,7.5,0c1.3.1,1.4-.4,1.5-1.4.6-2.9,1.6-5.8,1.8-8.7s-.8-4.3-1.1-6.5a9.9,9.9,0,0,1,.3-2.4c.7.3,1.6.4,2,.9a7.6,7.6,0,0,1,1.1,2.6c.4,1.2.5,2.5.9,3.6s.5.8.8,1.2a5.7,5.7,0,0,0,.8-1.3c1.4-2.1,2.7-4.4,4.1-6.4a3.3,3.3,0,0,1,2-.8c.2,0,.8.8.7,1s-.9.8-1.2,1.4a40.2,40.2,0,0,0-2.4,4.6c-.1.2.3.6.4,1a4.7,4.7,0,0,0,.6-.9c.5-2.3,2.2-3.2,4.2-4,.4-.2.9.1,1.4.2a8.3,8.3,0,0,1-.7,1.3c0,.1-.2.1-.3.2l-1.2,1.9a12.1,12.1,0,0,0,2-.9c1.3-.8,2.5-1.8,3.9-2.5s1.1.2,1.7.3a6,6,0,0,1-.9,1.3,9.3,9.3,0,0,1-1.3,1.5l1.8.2h8c1.9.1,2.5-.9,2.4-2.4-.6-6.5-1.4-13-2-19.4-.5-4.7-.7-9.3-1-14-.2-2.5,0-5.1-.4-7.5s-1.4-2.9-2.2-4.2a67,67,0,0,1-7.8-19.7c-1.2-5.6-2.5-11.1-3.4-16.7-.4-2.6.4-5.3.5-7.9a1.6,1.6,0,0,0-.8-1c-1.2,0-2.3.4-3.5.5a10.3,10.3,0,0,1-1.7-.1,5.9,5.9,0,0,1,.6-1.6c1.3-1.5,4.7-2.2,6.5-1.6s1,.1,1.2-.2a4.9,4.9,0,0,0,1-1.5c-.5-.1-1,0-1.3-.3a4,4,0,0,1-1.4-1.8c-.1-.4.7-1.2,1.3-1.4a2.6,2.6,0,0,1,2.1.1,4.5,4.5,0,0,0,4.2,0c1.6-.7,1.7-1.6.4-2.5a24.8,24.8,0,0,0-4.4-2c-.5-.3-1.1-.4-1.3-.7a1.8,1.8,0,0,1,.1-1.6,3.8,3.8,0,0,1,1.6-.5c1,0,2.1.2,3,.1s.4-1,.6-1.6-.2-.5-.2-.7.7,0,.8.2a34.7,34.7,0,0,1,3.4,5.9c.5,1.4,1,1.6,2.2,1.2s1.6-1.3,1.4-2.8a51.4,51.4,0,0,1,0-6.8c0-.2.6-.6.8-.5s1.3.5,1.5,1a13.2,13.2,0,0,1,.9,4.3c-.3,3.4.5,5.4,4.2,6.7s8.3,4.7,11.7,8.2l9.2,8.9c.7.7,1.2,1.5,1.9,2.2,2.9,3.3,5.7,6.5,8.7,9.7a1.9,1.9,0,0,0,1.8.3l17.4-9.5c.4-.2.7-.8,1.2-1s1.8-.8,2.2-.5,2.9.2,4.1-.6c3.2-2.1,6.6-3.9,8.8-7.4,1-1.8,3-.4,4.4.4a6.3,6.3,0,0,1,2.1,2.2,2.6,2.6,0,0,1-1.7,4.1,6.6,6.6,0,0,1-3.1.3c-4.7-1.3-7.7,1.9-10.9,4.3-.2.2-.4.6-.3.8.8,1.9-.6,2.4-1.8,3.2-3.3,1.9-6.5,4-9.7,6l-7.8,4.6c-1.4.9-1.1,1.5-.1,2.9a53.7,53.7,0,0,1,4.9,8.8c2.4,5.1,4.5,10.3,6.6,15.5.7,1.7,1.4,3.5,2,5.3s1.5,5.2,4.8,5.8a2.8,2.8,0,0,1,1.8,1.2,7.1,7.1,0,0,1,.6,2.2h-1.8l-.5-.2h-2c.2.6.2,1.2.4,1.6s1.3,2,1.9,3a5.8,5.8,0,0,1,.3,1.4,5.3,5.3,0,0,1-1.8-.1,3,3,0,0,1-.7-1.1c-1-1.8-2.4-1.9-3.4-.2-2.3,3.6-5.2,6.6-9.3,8a26.9,26.9,0,0,1-8.4,1.4,28.2,28.2,0,0,1-14.3-3.1,87.4,87.4,0,0,1-9.6-6.2c-2.2-1.6-4-3.8-6-5.7a6.1,6.1,0,0,0-1.4-.7,5.8,5.8,0,0,0-.3,1.4l.9,17.5a11.7,11.7,0,0,0,.7,2.5c.6,1.8,1.5,2.9,3.9,2.6,4.7-.6,9.5-.8,14.3-1,1.6,0,2.1-.6,2.3-2.1a3.2,3.2,0,0,1,1.2-2c.3-.3,1.3-.1,1.8.2s.3.9.4,1.4.1,2.3.6,2.5,1.5-.4,1.9-1.4,3.8-1.3,4.8.2a2.7,2.7,0,0,0,1.5,1.1c1.9.2,2.4,1.5,3.3,2.8s2.6-.4,3.9-.4.7,1,1.1,1.5-1.2,1.2-1.7,1.1c-2.9-.6-3.1.5-2.4,2.9a6,6,0,0,1-.1,3.5c-.4,1.6.3,2.2,1.7,2.3s5,.4,7.5.4l10.7-.2h.5c3,2.5,6.3,1.2,9.4.8,1.5-.2,2.9-1.3,4.3-1.4s5,.4,7.5.4l13.5-.3a5,5,0,0,1,3,.5c3.8,2.4,8,2.5,12.3,2s8.6-1,12.9-1.1c2.2-.1,4.5.8,6.6,1.5s6.5,1.8,10,.9a57,57,0,0,1,9-1.7,10.5,10.5,0,0,1,5.2,1c4.4,1.9,8.5,1.3,12.7-.8a10.7,10.7,0,0,1,10.8.3c2.8,1.6,5.2.8,7.3-1.8a16.5,16.5,0,0,1,4.1-3.3c.3-.2,1,.1,1.5.2a6.6,6.6,0,0,1-.5,1.5l-2.8,2.8c-.3.3-.3.7-.5,1.1h1.1a19.3,19.3,0,0,1,3.4,0c.6.1,1,.8,1.5,1.1a11.4,11.4,0,0,1-1.7,1.5,18.5,18.5,0,0,1-2.3.4c-1.8.6-2.4,1.7-2.8,3.7-1.7,9.3.7,18.5.4,27.8-.2,6.2-.5,12.5-.6,18.7,0,8.1.3,16.1.3,24.2.1,5.1,0,10.2,0,15.3.1,9.2,0,18.3.3,27.4.2,5,1.3,9.9,1.6,14.9s0,11.1-.1,16.6c0,2.3-.2,4.6-.3,6.8-.5,7.3-1.1,14.5-1.4,21.8-.2,4.3.1,8.7-.2,13.1s-.9,8.6-1.4,12.8a22.5,22.5,0,0,0-.4,4.4c.6,5.7.1,11.5,2,17a22.2,22.2,0,0,1,.7,7.7c-.1,7-.5,13.9-.7,20.9-.4,9.1-.5,18.1-2.9,27-1.3,4.7-1.6,9.7-2.3,14.6s-1.7,10.9-2,16.4-.2,12.1-.1,18.1a8.6,8.6,0,0,0,.9,3.5c1.3,3.2.7,6.5.7,9.7s.5,8.7.8,13.1a2.1,2.1,0,0,0,1.5.6l3.6-.8a7,7,0,0,1,1.9.6,17.4,17.4,0,0,1-1.5,1.3,24.7,24.7,0,0,1-3.6,1.1,2.4,2.4,0,0,0-1.9,2.8c.1,3.6,0,3.6,3.5,3.4a13.2,13.2,0,0,1,2.8.2,5.8,5.8,0,0,1,1.5,1.3,8.2,8.2,0,0,1-1.7,1.1c-1.5.5-3.1.8-4.7,1.2s-1.8,2.1-1.6,3.3,1.5.7,2.4,1.1l1.8,1c-.5.4-.9,1.1-1.4,1.1-4.9.5-5.6,4.4-6.5,8a7.2,7.2,0,0,0,.5,3.8c.7,2.7-.4,4.6-3.4,5s-7.5.7-11.2.8H417.8L392,535a14.6,14.6,0,0,1-5.4-1.2c-4.9-1.8-9.9-.1-14.8-.3l-14.9-.7a33.5,33.5,0,0,0-7.1.2c-5.6,1-11.2,1.9-16.9.9a20.7,20.7,0,0,1-3.3-1c-4.7-1.7-9.6-.5-14.4-.6a50.6,50.6,0,0,1-11.7-1.3c-1.2-.3-2-.4-1.9,1.1s-.3.5-.4.7-.5-.5-.5-.7c0-2.1-1.4-2.1-2.9-2a18.7,18.7,0,0,0-10,3.1,3.1,3.1,0,0,1-1.7.7h-8.8l-14.1-.8c-3-.1-6.1.1-9.2-.1-6.2-.3-12.4-1-18.7-1.2s-10.8,0-16.2.3-10.4.9-15.6,1.5c-.3.1-.5,1-.7,1.5a2.7,2.7,0,0,0,0,.9c-.3-.1-.8-.1-.9-.3-1.7-3.3-4.6-1.9-7.2-2a41.4,41.4,0,0,0-13.6,1.9c-3.9,1.2-7.5-.7-11.3-1.2s-4.8-1.2-7.2-1.6a13.7,13.7,0,0,0-3.5,0,3.4,3.4,0,0,0-2.6,4.6,30.5,30.5,0,0,0,2.1,4,27.3,27.3,0,0,0,3.5,3.3l4.4,3.7,3.1,1.9c3,2.3,6.3,4.3,9.1,6.9a6,6,0,0,1,.9,6.8,27.1,27.1,0,0,0-1.7,3.9c-1.4,4.3-5.5,5.2-8.8,7.2-5.1,3.1-10.9,3.1-16.6,3.7s-10.6,1.5-15.9,2.2-10.1,1.5-15.2,1.5-11.2-1.1-16.9-1.3c-4-.1-8,.7-12.1.9s-7.9.6-11.7,0-7.8-2.6-10.3-6.4a54.3,54.3,0,0,0-6.8-7.6c-1.2-1.2-2.6-.6-3.8.2a5,5,0,0,1-2,.8,1.5,1.5,0,0,1-1.2-.4,1.9,1.9,0,0,1,.5-1.4c.9-.8,2-1.5,3.1-2.3s.3-.4.5-.6-.4-.5-.7-.5H56.1c.2-.6.2-1.4.6-1.7a4.3,4.3,0,0,1,4.8-.7c1.9,1.2,2.7.3,3.3-1.4,0-.1.1-.2.1-.4a20.3,20.3,0,0,0,1.2-2.8c-2-1.3-3.4-3.8-6.3-3.2-.4.1-.9-.4-1.4-.6s1.2-1.8,1.7-1.7a11,11,0,0,1,5.1,1.3c2.9,1.8,5.3,1.8,7.9-.5a4.5,4.5,0,0,1,2.1-1c2.1-.3,2.5-1.5,2.7-3.4.5-4.7.7-9.5,2.1-14s4.2-10.6,6.4-15.8c.1-.3.1-.7.2-1.1l-1.1.5-3.1,1.5a17.5,17.5,0,0,1,1.2-3.2,13.1,13.1,0,0,1,2.8-2.4,4.1,4.1,0,0,0,1.8-4.9,9.1,9.1,0,0,0-.7-1.4c-.4.3-1.1.5-1.3.9a21.9,21.9,0,0,0-1,3.4,5.9,5.9,0,0,1-.4.8c-.8-.8-2.4-1.9-2.2-2.4s.8-4.6,3.7-4.9a1.5,1.5,0,0,0,.5-.7c-.2-.3-.6-.8-.8-.8l-3,.8a2.5,2.5,0,0,1-1.7.2c-.4-.1-1.2-.8-1.1-1.1a4.8,4.8,0,0,1,1.2-1.7,3.5,3.5,0,0,1,1.1-.3c2.8-.6,2.8-.6,2.1-3.3-.2-1.2-.6-1.4-1.9-1.1s-1.6-.4-2.5-.6.9-1.3,1.6-1.6c2.8-1.2,3-1.3,2.1-5-1.3-5.5-3.4-10.6-8.4-14a4.1,4.1,0,0,1-1.6-2.3c-.3-3-.4-5.9-.5-8.9a2.8,2.8,0,0,1,1.4-1.8,57.2,57.2,0,0,1,7.3-3.9A40.9,40.9,0,0,1,89,457a10.7,10.7,0,0,0,3.2-.7,2.4,2.4,0,0,0,.9-2.2c-1-3.6-2.3-7.2-3.5-10.8-1.7-5.3-5.8-8.7-9.7-12.2-1.1-1.1-3.4-1.2-5.1-1.1a38.9,38.9,0,0,0-8.3,1.4c-3.6,1.1-8.8.2-11.1-4.3-.6-1.3-1.4-2.5-1.9-3.9a2.5,2.5,0,0,1,.7-2.1,1.7,1.7,0,0,1,1.7-.1c1.6,1.3,3.1.9,4.8.5,5.6-1.3,9.8-4.9,14-8.5,1.5-1.2,3.1-2.2,4.7-3.3a5.6,5.6,0,0,0,1.5-1c1.6-2.4,4.3-2.6,6.6-3.4s5.7.6,8.2,2.1a21.2,21.2,0,0,1,8,8,7.3,7.3,0,0,0,2,1.9,22.8,22.8,0,0,0-.2-2.6c-1.5-4.5-2.5-9.2-4.7-13.3s-6.3-9.3-9.5-13.8l-4.6-5.9c-.9-1.1-2-1.9-2.8-3-2.1-2.8-4.7-5.5-6-8.7s-1.5-7-1.8-10.6a15.5,15.5,0,0,1,.7-6c.4-1,1.9-1.7,3-2.5a7.7,7.7,0,0,1,1.2,2.4c.8,3.7,2.6,6.4,6.2,7.9s7.7,3.2,11.4,5a18.5,18.5,0,0,1,3.9,3c1,.8,1.7,2,2.8,2.7a17.6,17.6,0,0,1,5.7,5.8,5,5,0,0,0,.8.7c.1-.3.1-.7.2-1,.4-2.4.9-4.8,1.1-7.3s-.5-2.6-.7-4-.6-5.6-1.1-8.3-.8-5.5-2.3-8.1-1-4.1-.9-6.2c.2-3.8.9-7.5,1.2-11.2a3.7,3.7,0,0,0-1-2.8c-1.2-1.2-1.2-2.6-1.2-4.1.2-6.1.3-12.2.2-18.2a5.5,5.5,0,0,0-1.4-3.7c-3.8-3.8-3.6-8.4-3.7-13.2s1.8-11.7,2.5-17.5c.1-1.4-.2-1.9-1.7-1.6a5.8,5.8,0,0,1-2.1-.5,9.2,9.2,0,0,1,1.4-1.4c2.4-1.3,2.8-2.3,1.6-5.7-.3-.9-1-2.2-1.7-2.4s-1.7,1.1-2.6,1.6a12.9,12.9,0,0,1-2.1.7c.1-.8,0-1.9.5-2.4a38,38,0,0,1,3.8-2.9,2,2,0,0,0,.5-1.5c-.4-1.8-1-3.7-1.5-5.5a38.4,38.4,0,0,1-1.4-4c-.2-2.1-1.4-2.2-2.9-2l-4.5.3c-.4.1-1.2-.6-1.2-.6a18.7,18.7,0,0,1,1.7-3.1c.2-.2,1,.1,1.5.2a18.2,18.2,0,0,0,2.5.7c2.2.1,2.8-.6,2.7-2.8l-.9-12.1c-.1-.4-.8-1.1-1.2-1l-5.3.5c-.5.1-1.1-.5-1.6-.8s.5-1.4.9-1.5a25.9,25.9,0,0,1,5.4-1.1c1.5-.1,1.9-.6,1.7-2.1-.5-3.3-1.3-6.5-3.9-8.7a76.6,76.6,0,0,0-6.8-4.1,4.5,4.5,0,0,1-1.1-1.3c.5-.3,1.2-1,1.6-.8a23.2,23.2,0,0,1,4.7,2.4c1.3.9,1.6.6,2.1-.9,1.8-5.2-.4-10.1-1.1-15.1a31.8,31.8,0,0,1-.6-6.2c.5-6.5-1.6-12.6-3-18.8-.7-3.2-1.2-6.4-1.6-9.6-.1-.8.6-1.7,1.1-2.4s2.3-2.8,3.3-4.3c2.8-3.9,7.5-5.3,12.3-4.5a15.4,15.4,0,0,0,7-.9c3.9-1.3,7.6-3.6,11.6-4.8,2.2-.7,4.8,0,7.3.1s5.9.1,8.9-.1c.6,0,1.3-1.4,1.5-2.3s.4-3.6.7-5.3a8,8,0,0,1,1.1-2.5c.2-.3.8-.4,1.2-.6s.5.9.4,1.3c-.1,2.1-.4,4.2-.4,6.3s.4,2,.9,2.2a2.1,2.1,0,0,0,2.8-1.4c.7-2.1,1.7-3.9,4-4.7a3.7,3.7,0,0,1,1.8.1c-.2.6-.4,1.2-.7,1.9l-.5.2-1.8,3.5,3,.9a4.3,4.3,0,0,0,1.6.1ZM113.2,350.5l.3,3.3c.5,3.7.7,7.3,1.5,10.9a20.5,20.5,0,0,1,.6,7.4,86.3,86.3,0,0,0-.3,8.8c0,1.6,0,3.1.1,4.7a5.4,5.4,0,0,0,.5,2.1,8.7,8.7,0,0,0,.9,1.1,5.9,5.9,0,0,0,.6-1.4c.8-9.6.7-19.2-1.5-28.6a61,61,0,0,0-2.8-8.2,12.1,12.1,0,0,0,0-1.9,24.8,24.8,0,0,1,.4-10.5c.5-2.6,1-5.6,0-7.8-2.4-5.7-1.6-11.5-1.7-17.4a36.3,36.3,0,0,0-.3-5.7c-.9-5-3.8-9.5-4.4-14.7-.5-3.4.4-6.5,1-9.7s1.2-3.8,1.5-5.8.4-3.9.6-5.9c.4-3.8.3-8-1.6-11.1s-3.2-8-4.3-12.2a7.5,7.5,0,0,1-.3-2c.5-8.4-.5-16.6-1.9-24.7-.7-3.9-1.2-7.8-1.7-11.7-.4-2.4-.5-4.9-.9-7.4s-1.3-7.9-1.6-11.8,0-6,0-9c0-.5-.5-.9-.7-1.4s-1.2,1-1.2,1.4c0,3.7,0,7.4.3,11.1s2.4,9.3,1.3,14.2a10.9,10.9,0,0,0,.1,4.4c.8,3.2,2.2,6.4,2.7,9.7.7,5.8.7,11.7,1.2,17.5A79.7,79.7,0,0,0,103,248c.9,4,2.3,7.9,3.3,11.9.5,1.8-.1,4.1.8,5.4s.2,5,.1,7.5a19.7,19.7,0,0,1-.4,3.4L105,292.7c-.3,3.6,1,6.7,3.2,9.6a7.5,7.5,0,0,1,1.5,3.8c.1,4.2.1,8.5,0,12.7s-.3,7,1.6,10.3a5.8,5.8,0,0,1,.5,3.7,68.6,68.6,0,0,1-1.2,9.1A9.4,9.4,0,0,0,113.2,350.5Zm316,175.7v.3c2.3,0,4.6.1,6.8-.1a2,2,0,0,0,1.5-1.3c.6-1.8.8-3.7,1.4-5.5a35.7,35.7,0,0,0,2.3-14.4c-.6-7.6-1.8-15.2-1.7-23s-1-13.6-1.3-20.4a64.1,64.1,0,0,1,.3-10.7c.6-6.1,1.5-12.2,2.5-18.2s2.1-10.9,2.8-16.4c1-7.3,1.6-14.7,2.3-22.2.2-2.5,0-5.1.1-7.7s.6-7.6.3-11.4c-.7-7.1-2.1-14.1-2.5-21.3s.2-13.5.5-20.3c.2-3.6.8-7.2,1-10.8s0-7.4,1-11.2a99.3,99.3,0,0,0,2.1-14.5,32.9,32.9,0,0,0-.2-7.7c-.7-5.5-2.1-10.9-2.5-16.4s0-12.4-.2-18.7c0-2.6-.6-5.2-.8-7.8-.4-6.1-1-12.2-1.2-18.3s.1-12.1.3-18.1.8-9.9,1.1-14.9.3-8.7.2-13.1-.5-8.5-.9-12.8c-.1-1.3-1-1.6-2.3-1.6H425.4c-5.6,0-11.2-.7-16.7-.2s-10.3,1.2-15.5,1l-19.7-.6c-3.6-.2-7.2-.9-10.8-1-8.5-.3-16.9-.5-25.3-.4a142.3,142.3,0,0,0-17.3,1.3c-5.6.7-11,2.3-16.6,3.4s-10,1.2-15-.2a35.1,35.1,0,0,0-6.5-.9c-5-.4-10-.5-15-.7s-10.3-.8-15.4-.7-8.4,1.1-12.6,1.7l-12.6,1.8c-3.1.4-6.2.8-9.3-.4a15,15,0,0,0-5.6-.9,46.1,46.1,0,0,0-9.7,1.3c-8.2,2.2-16.5,1.2-24.8,1.7-3.3.2-6.6.9-9.9,1s-5.8.5-8.2-.5-6.5-1.1-9.8-.1a37.6,37.6,0,0,1-7.4,1.6c-7.4.7-14.9,1.2-22.4,1.7-2.6.2-5.4.7-7.8.1a17.5,17.5,0,0,0-8.5-.1,2.4,2.4,0,0,0-2.3,2.4,65.3,65.3,0,0,0,1.5,22,69.3,69.3,0,0,1,1,7.8c.2,1.6.2,3.1.4,4.6.9,4.4,2.2,8.8,2.7,13.2s.6,10.8.8,16.2.8,8.5,3.2,12.3,2.8,7.2,3,10.9a71.4,71.4,0,0,1-2.3,18.4,19.1,19.1,0,0,0,.9,12.5,42,42,0,0,1,3.2,20.4c-.1,2.5-.6,4.9,1.1,7.1a5.3,5.3,0,0,1,.5,1.8,29.3,29.3,0,0,1-.2,12.5,17.6,17.6,0,0,0,1.2,11.9,6.2,6.2,0,0,1,.7,1.9c.7,5,1.5,10.1,2.2,15.1a61.8,61.8,0,0,1,.2,17.7c-.3,2.1-.5,4.3-.6,6.5s.1,2.1,0,3.2a26.2,26.2,0,0,0-.1,2.8c.5,2.5,1.4,4.9,1.7,7.3.8,5.6,1.3,11.3,1.9,16.9a3.5,3.5,0,0,0,.5,1.3l1-1c1.9-2.4,3.7-5,5.7-7.2,5.8-6.2,13.3-10.2,20.5-14.3,5-2.8,10.3-5,15.2-7.8a42.2,42.2,0,0,0,8.1-5.7,13.9,13.9,0,0,0,3.8-5.4,2.2,2.2,0,0,1,2-1.1,2.4,2.4,0,0,1,1.8,1.4,26.9,26.9,0,0,1,0,7.5c-1.2,5.7-4.6,10.2-9.2,13.8s-12.2,9.1-18,14.1c-3.5,3.1-6.4,6.9-9.5,10.5s-4,7.2-5.1,11.1a10.8,10.8,0,0,0-.3,1.9l1.4-1.2c3.5-3.6,6.9-7.2,11.6-9.4s7.3-3.1,10.8-5a10.5,10.5,0,0,1,6.2-1c3,.3,5.8.1,8.4-1.5s2.5-1.8,3.9-2.6a2.8,2.8,0,0,1,2.2-.1c.5.3,1,1.4.8,1.8-1.4,3.3-2.4,6.9-4.7,9.5s-5.6,3.9-8.7,5.4-6.6,2.4-9.8,3.7c-5.8,2.2-10,6.5-13.7,11.4a2.1,2.1,0,0,0-.4,1.1l1,.2c2.3.1,4.7,0,7,.3a12.3,12.3,0,0,1,8.2,4.5,22.1,22.1,0,0,1,3.6,8.3c.9,3.8,1.2,7.7,1.8,11.5a12.7,12.7,0,0,1,.3,4.3c-1,3.7-2.2,7.2-3.4,10.9a9,9,0,0,0-.3,1.6c.5,2.6-.4,4.7-2.1,6.8a12.2,12.2,0,0,0-2.4,4.5,16.4,16.4,0,0,0,.1,4.4c0,.7.3,1.5.3,2.3s.2,2.5-.3,3.3-2.8,3-4.1,4.5a10.3,10.3,0,0,0-1.2,2.6,6.1,6.1,0,0,0,2.5.8l12.2-.5c5.3-.1,10.7-.4,16-.2,10.8.5,21.5-2.1,32.3-.9,3.6.4,7.4-.2,11.2-.2s9.6.3,14.3.2a40.7,40.7,0,0,1,11,1c2.1.5,4.6-.1,6.9-.3s3.6-.5,5.4-.5,4.8.5,7.2.3c5.2-.2,10.3-.9,15.5-1.2a108.4,108.4,0,0,1,11.4-.2c8.2.5,16.4,1.3,24.6,2l13.7.7h20.8c1.6.1,3.3.4,4.9.4l13.1.4c4.7.3,9.4.8,14.1,1a57.7,57.7,0,0,0,7.2,0c4.2,0,8.4,0,12.5-.2S424,526.5,429.2,526.2Zm16.6-361.9h.8c3.8-.5,4.6-1.2,3.7-4.6a13.9,13.9,0,0,1-.3-5c.2-3.4.5-6.9.9-10.3.1-1.1-.1-1.9-1.4-2.1a51.1,51.1,0,0,1-7-1.7,8,8,0,0,0-6.6.2c-4.7,1.9-9.5,2.9-14.6,1a13.6,13.6,0,0,0-8.7-.5,26.3,26.3,0,0,1-17.5-.6c-4-1.7-8.3-1.4-12.4-.5-6,1.2-11.9,1.7-17.6-.9a13.3,13.3,0,0,0-7.4-.6,29.9,29.9,0,0,1-7.9.3,33.3,33.3,0,0,0-14.4.7c-2.8.8-5.6,1.2-8.4-.4a8.5,8.5,0,0,0-4.2-.7c-5.7-.1-11.5,1-17.2-.8-1.7-.5-3.7-.1-5.4.2s-3.1,1.3-4.7,1.7-4.7,1.3-7.3.2-3.6-1.4-5.8-.6c-5.4,1.9-10.8,1.5-16.3-.2-1.4-.5-3.1.1-4.6.4s-3.4,1.1-5,1.1c-5.3-.1-10.6-.6-15.8-.7s-10.1.2-15.2.5c-2.5.1-5,.6-7.5.6-5.2-.1-10.4-.7-15.6-.6s-12.1.7-18.1,1.2-11.4,1.3-17.2,2a50.3,50.3,0,0,1-5.6,1c-5.4.3-10.9.7-16.3.8s-11.7-.4-17.5-.6a14.8,14.8,0,0,0-4.7.5c-3.3,1.1-6.4,2.7-9.7,3.9a25.7,25.7,0,0,1-12.3,1.9c-2.3-.2-4.8.2-5.9,2.3s-2.4,6-3.6,9a.8.8,0,0,0,.1.4c1.1,4.5,2.1,9,3.3,13.6a1.8,1.8,0,0,0,1.4.8l5.6-1.7c3.9-1.3,7.8-2.2,11.8-.4a4.3,4.3,0,0,0,2.5.3c2.9-.4,5.8-1,8.6-1.3a74.3,74.3,0,0,1,9.4-.7,44.4,44.4,0,0,0,17.4-2.2c2.6-.9,5.3-1.4,7.7,0a10,10,0,0,0,7.5,1.1,108.4,108.4,0,0,1,21.3-1.2c5.7.2,11.3-1.3,17-2s10.5-1.9,15.7.4a5,5,0,0,0,2.7.4c4.5-.6,8.9-1.4,13.5-1.9,7.4-.9,14.8-1.8,22.3-2.2,3.8-.2,7.6.9,11.4,1.1,7.5.4,15.1.6,22.5,2.1,5.5,1.1,10.9-.5,16.3-1.5s12.3-2.6,18.5-3.1,13.2,0,19.9,0c4.3,0,8.8-.8,13-.1a202.8,202.8,0,0,0,33,1.7c4.5,0,9-.9,13.5-1.2s6.6-.3,9.8-.2l19.7.7c3.1.2,3.7-.1,4.1-3a2.5,2.5,0,0,1,.2-.7c.1.3.4.5.4.7-.3,2,.6,2.5,2.5,2A9.4,9.4,0,0,1,445.8,164.3ZM99.1,472.2h0c-2.2,0-4.3-.1-6.5,0-4.2.2-8.2.1-11.4-3.3-1-1.2-1.4-2.2-.2-3.4a5.3,5.3,0,0,1,2.3-1.7c3.1-1,6.3-1.7,9.4-2.6.4-.1.8-.7,1.2-1.1s-1-1.2-1.4-1.1c-4.4.7-8.7,1.6-12.5,4.2s-3.7,8.4-.3,10.8,4.7,5.5,6.4,8.6,1.4,4.3,1.9,6.5.7,4.8.9,7.2a25.3,25.3,0,0,0,2.8,9.6c1.9,4,.4,8.5-1.4,12.2-2.8,6.2-5.9,12.2-7.2,18.9a103.2,103.2,0,0,0-1.5,13.5,56.9,56.9,0,0,0,.8,8.2,1.4,1.4,0,0,0,.5,1.1c3.4,3.2,7.2,6,11.9,6.7a113,113,0,0,0,11.7.8,10.7,10.7,0,0,1,3.1,0c2.5.9,5,.5,7.5.1a3.8,3.8,0,0,1,3,1.1,4.7,4.7,0,0,0,4.3,1.4,9,9,0,0,1,4,.1,6.1,6.1,0,0,0,5.3-.3c1.8-.9,3.6-2,5.5-2.8a17.9,17.9,0,0,1,4.6-.9c4.1-.2,7-2.7,10.1-4.7a45.3,45.3,0,0,0,6.2-5.4c1.2-1.2,2.1-2.8,3.5-3.8s.9-1.5-.2-2.3a42.1,42.1,0,0,1-5.8-4.4c-1.4-1.4-3.8-2-4-4.4l-.6-3.4c-.6-3.1-.7-6,1.6-8.5,1-1,1-2.4-.6-3.3s-1.1-1.4-.9-1.9a10.7,10.7,0,0,1,2-3.8c1.1-1.4,2.7-2.4,3.9-3.8s.6-2.3-1.1-2.6-.3-.6-.3-.8a7.9,7.9,0,0,0,.2-6.4,2.3,2.3,0,0,1,.3-1.8c1-1.2,2.4-2.1,3.2-3.3s1.6-2.8,1.3-4,.6-4.3,1.4-6.5a46.3,46.3,0,0,0,1.1-5.6c0-.5-.2-1.3,0-1.4,1.9-1.1,1.1-2.7.9-4.2-.8-4-1.3-7.9-2.2-11.8s-1.8-7.9-6.3-9.6c-3-1.1-6-2.1-9.3-1.7a3.8,3.8,0,0,0-1.6.5,1.7,1.7,0,0,0-.4,1.3,1.3,1.3,0,0,0,1.2.6c4.4-1.1,7.7.8,10.8,3.6s2.9,5.7-1.3,7-5.6,1-8.3,1.6c-.6.2-1.5.6-1.7,1.1s-1.3,1.3-2,.6-3-1.2-4.6-1.2c-3.2.2-6.4.4-9.6.4ZM254.2,46.7c1.2,6.8,3.2,14.8,7.1,22.1a152.2,152.2,0,0,0,8.2,14.1c4.1,6,8.7,11.6,15.3,15.2,5,2.8,10.1,5.4,16.1,4.6S312,98.2,311,91.4a60.8,60.8,0,0,0-3.6-11.7,33.4,33.4,0,0,0-3.8-6.9,51,51,0,0,0-5.1-6.2,3.3,3.3,0,0,0-2.9-.6,15.4,15.4,0,0,0-3.7,2.3c-1.5,1.1-2.7,2.5-4.2,3.5s-1.1.9-.5,1.8,1.3,3-.7,4.1a5.2,5.2,0,0,0-1,1.1c-2.1,1.9-2,2.7-.5,5.1a11.1,11.1,0,0,1,1.2,4.5c.1,1.2-.8,1.9-2.1,1.1a12.9,12.9,0,0,1-1.6-.9,38.4,38.4,0,0,1-5.4-4.4,38.3,38.3,0,0,1-3.3-4.6c-3.8-4.9-7.9-9.7-9.7-15.8-.7-2.6-1.3-5.3-1.8-7.9-.1-.6.6-1.9,1.2-2a2.6,2.6,0,0,1,2.4.6c1.7,1.6,3.2,3.5,4.8,5.3s1.4,2.3,2.3,2.5,2.4-.6,3.7-.9h.3c1,.2,2.3.2,2.9.9s1.3,1,2.3.5l6.9-3.8a1.6,1.6,0,0,0,.3-1.5,40.4,40.4,0,0,0-2.8-4c-5.1-5.7-9.9-11.8-16.3-16.1-3.2-2.2-6.6-3.3-10.3-1.5S253.9,40.9,254.2,46.7ZM155.4,575.4v.7c2.4-.5,4.8-.7,7.1-1.4,4.8-1.7,10-3,12-8.6l.9-2.1a6.3,6.3,0,0,0-2.5-8.1c-1.5-.9-2.8-2.1-4.3-2.9a1.9,1.9,0,0,0-1.8.1c-2.9,2.8-5.5,5.8-8.5,8.3a31.3,31.3,0,0,1-15.7,7.6,22.8,22.8,0,0,0-5.8,1.7,15.6,15.6,0,0,1-9.4,1.9l-4.9-.4c-1.4-.2-3.1-.2-4.1-1a5.8,5.8,0,0,0-3.9-1.3c-3,.1-6,0-9-.1s-7.6-.3-11.4-.6a16,16,0,0,1-4.8-1.1,47.9,47.9,0,0,1-5.8-3.3,20.9,20.9,0,0,1-3.9-2.7,6.7,6.7,0,0,1-.8-3.3c-.3-1.6-.4-3.3-.6-5,0-.1-.8-.2-1.1-.1a16.9,16.9,0,0,0-8.4,7.2c-2.1,3.9-2.6,5.3.6,8.7s4.6,4.4,6.7,6.7a11.5,11.5,0,0,0,8.5,3.7c5,0,10-1,15.1-1.4a36.6,36.6,0,0,1,7.4,0c3.4.3,6.8,1.4,10.2,1.5,8.4.2,16.6-1.1,24.8-2.9C146.5,576.3,151,576,155.4,575.4ZM450.1,171.6h.4a15,15,0,0,0,0-3c0-.5-.8-.9-1.2-1.3s-1,1-1,1.4c.1,3.2.4,6.4.4,9.6q-.1,11.5-.6,23.1c-.2,7.2-.8,14.4-.8,21.5s.3,13.4.6,20.1.8,15.1,1.3,22.7q.4,7.8,1.2,15.6c.3,2.7,1.4,5.4,1.4,8.1a83.3,83.3,0,0,1-.8,12.2c-.3,2.5-1.4,4.9-1.6,7.5-.5,4.2-.6,8.6-1,12.9-.5,5.9-1.3,11.8-1.7,17.7a89.8,89.8,0,0,0,0,11.6c.1,2.7.6,5.4.9,8a31.9,31.9,0,0,0,.6,5.5c1.9,6,1.7,12,1.3,18.1-.2,2-.2,4-.3,6.1-.2,5.6.1,11.3-.6,16.9s-2.5,13.8-3.6,20.8q-2.1,13.7-3.9,27.3c-.7,6.2-.2,12.4.4,18.6.4,4.6.6,9.2.9,13.8a149.4,149.4,0,0,0,1.5,15c.9,5.3-.4,10.2-1.5,15.2-.6,2.7-1.5,5.2-2,7.9s-2.2,4.8-5.9,4.6A104.1,104.1,0,0,0,422,529c-4.8.2-9.5.8-14.3.9s-12.4,0-18.6-.1c-3.5-.1-7-.4-10.6-.7s-4.5-.6-6.7-.7l-11.2-.3c-1.9,0-3.7-.1-5.5,0-3.4.1-6.8.6-10.1.5-6.2-.2-12.4-.8-18.6-1.1-4.3-.3-8.8.2-13.1-.7-7.9-1.6-15.8-.4-23.7-1.2-.4,0-1.2,1-1.2,1.5,0,2.1.9,2.3,3.5,1.5,4.4-1.5,8.9-2.2,13.4-.7a31.3,31.3,0,0,0,12.1,1.6c5.2-.3,10.4-.7,15.5.8s11.8,1.3,17.7-.2a29,29,0,0,1,7.8-.3c1.4,0,2.8.6,4.2.7,5.5.1,11,.8,16.4.1s8.6.2,12.8,1.2a8.4,8.4,0,0,0,2,.5c7.1.1,14.2.9,21.2-.8a6.7,6.7,0,0,1,2,0c7.5,1.3,14.9-1,22.4-.8,1.4.1,1.7-.5,1.8-1.8a44.2,44.2,0,0,1,1.3-7.1,19.2,19.2,0,0,1,1.4-2.9c2.2-5.7,2.4-11.5,2-17.5-.2-3.8-.5-7.6-.6-11.4s.2-5.4.2-8.1c0-1.2,0-2.9-.7-3.4s-1.4-2.2-1.3-3.6c0-3.6.4-7.2.2-10.9-.8-13.5,1.9-26.7,3.9-40,1.2-7.6,3.3-14.9,3-22.8s.5-15.4.7-23.1c0-3.5.4-7.3-.5-10.6a57.7,57.7,0,0,1-1.9-17c.2-4.9,1.2-9.7,1.6-14.5s.5-12.4,1-18.6c.3-4.6,1.4-9.2,1.3-13.8-.3-11.2.6-22.3-.6-33.5s-1.1-22.9-1.5-34.4c-.2-4.7,0-9.4,0-14.1l-.6-29.5ZM120.5,433.3c1.1-10.6-.9-19.6-2.3-28.7a37,37,0,0,0-1.4-5.5,91.5,91.5,0,0,0-4-10.3,133.9,133.9,0,0,0-7.3-12.1c-.8-1.3-2.7-1.9-3.8-3.2-2.8-3.2-6.5-4.9-10.4-6.4s-8.1-2.9-10.6-6.7l-.4-.4-1.1-.5a5.3,5.3,0,0,0-.3,1.2c.2,3.2.1,6.4,2.8,9.2s5.8,7.5,8.7,11.3,4.8,5.1,6.7,8c4.4,6.5,8.4,13.1,10.3,20.9,1.3,5.4,2.8,10.8,2.8,16.4-.1,10.1-.1,20.1,0,30.1a48,48,0,0,0,.8,8.5c.1,1,1.3,1.9,1.3,2.9s.5,1.5,1.5,1.5c3.3.1,3.5-.1,2.9-3.3a8.6,8.6,0,0,0-.7-2.1,17.1,17.1,0,0,1-1.3-3.8c-.3-4.1-.4-8.3-.5-12.4s-.5-10.6.1-15.7,0-9.3-.4-13.8a90.9,90.9,0,0,0-1.5-9.1,48.6,48.6,0,0,0-1.8-8.6c-1.2-2.9-3.2-5.6-4.7-8.4s-1.5-2.9-2.2-4.3.1-.5.1-.7l.7.4c2,2.3,4,4.6,5.9,7,6,7.4,6,16.6,6.9,25.3s.1,17.3.2,26c.1,5.1.4,10.2.9,15.4a60.5,60.5,0,0,0,1.3,7.2c0,.3.4.6.7.6a54.2,54.2,0,0,0,5.7.1c1.1,0,1.5-.7.9-1.7s-1.8-3.1-2.7-4.7a7.6,7.6,0,0,1-.8-2.1c-.3-2.7-.5-5.5-.7-8.2s-.9-3.2-.9-5C121.9,442.4,120.9,437.2,120.5,433.3Zm-13.1,3.2h0c-.1-3-.2-6.1-.5-9.2a4.1,4.1,0,0,0-.8-2.4,42.5,42.5,0,0,1-7.1-9.7,5.1,5.1,0,0,0-1.5-1.4c-2.1-1.3-4.4-2.3-6.4-3.8a5.5,5.5,0,0,0-6.6.1,96,96,0,0,0-9.3,6.4c-4.3,3.4-8.3,7.3-14.1,8.1a9.5,9.5,0,0,0-2.1.9,17.1,17.1,0,0,0,2,1.8c3.1,2.1,6.3.6,9.4-.1s9.1-1.8,13,2c2.1,2,4.8,3.6,6.2,6,2.9,5.3,5.9,10.7,6.6,17,.4,4.7,1.3,9.3,1.9,13.9.3,3.1.2,3.1,3.2,3.1l6.6.2c.3,0,1-.6.9-.9-.4-2.9-.9-5.8-1.5-8.6s.8-5.4-2.2-7c-.2-.2-.2-.8-.3-1.2-.5-3.5-1-6.9-1.7-10.3-.2-1.3-1.2-2.5-1.7-3.8-2.4-6-6-10.6-12.5-12.3L84.7,424a2.3,2.3,0,0,1-.8-1.1,1,1,0,0,1,.6-.5c6-.7,11.3.7,15.2,5.6s5.7,7.4,6.7,12.1c.1.3.4.5.6.8a2.6,2.6,0,0,0,.4-1ZM255.3,127a61.2,61.2,0,0,0-20.9,2.4c-1.7.6-2.4,1.2-2.5,2.8s.1,2,.1,3,.5,1.8,2,1.8c5.8-.1,11.8-.2,17.6.2,3.2.2,6.3.6,9.3-.8s5.5-.4,8.3,0a56.8,56.8,0,0,0,10.9.4c2.3-.1,4.3-2.2,6.9-1a15.4,15.4,0,0,0,11,.4,40.3,40.3,0,0,1,5-1.1c1.2-.2,1.7-.6,1.5-1.7s-.9-3.9-1.3-5.8a2.3,2.3,0,0,0-2.7-2.1c-7.1.3-14.2-.2-21.3.6S263.7,126.7,255.3,127ZM123.6,436.2c.3,2.6.6,5.2,1,7.8.1.5.4,1,.5,1.5a6.1,6.1,0,0,0,1-1.4c1.3-3.7,2.2-7.5,4-10.9s2.5-7.5,5.9-10c.3-.2.4-.8.7-1.1,1.9-2.3,3.6-4.9,5.9-6.7,4-3.1,8.4-5.8,12.7-8.6a4.2,4.2,0,0,1,1.6-.4,4.1,4.1,0,0,1-.7,1.5c-3.3,2.9-6.6,6.1-10.2,8.7-6,4.4-9.8,10.5-13.1,16.9-2.2,4.3-3.6,9.1-5.4,13.7a16,16,0,0,0-.5,11,5,5,0,0,0,.8,1.4c.3-.5.7-.9.9-1.3,2-3.4,4-6.7,5.9-10.1a7,7,0,0,0,1.1-2.3c.2-1.3.1-2.7.3-4a26,26,0,0,1,5.5-13.1,143.2,143.2,0,0,1,11.2-12.2c2.5-2.4,5.7-4.3,8.1-6.8a23,23,0,0,1,7-5c2.7-1.2,4.8-3.9,7-6.1a12.4,12.4,0,0,0,3.6-8.3,5.3,5.3,0,0,0-.3-1.2l-1,.8a13.4,13.4,0,0,1-2,2.1l-14,8.1c-6.1,3.4-12.3,6.6-18.4,10.1A48.6,48.6,0,0,0,129.6,422C126.2,426.2,123.8,430.6,123.6,436.2ZM248,40.5a56.7,56.7,0,0,0,1,7.2c1.6,6.1,3.2,12.2,5.2,18.2a77.1,77.1,0,0,0,4.5,10.2c1.7,3.3,3.4,6.6,5.2,9.9.3.6.3,2,1.7,1a1.1,1.1,0,0,1,.6.6c.1.5-.1,1.3.2,1.7a39,39,0,0,0,4.2,5.6c2,2.2,4.4,4,6.2,6.2a32.4,32.4,0,0,0,14.4,9.6,22.3,22.3,0,0,0,12.3.7c4.4-1,8.3-2.4,10.8-6.3,1.5-2.4,3.9-4.7,3-7.9s-2.9-8.8-4.4-13.2c-.1-.3-.4-.4-.6-.6v.8a62.2,62.2,0,0,1,1.9,7.1c.7,3.9-.1,7.8-2.9,10.5-4.7,4.6-10.8,4.7-16.8,3.3a41.8,41.8,0,0,1-16.1-7.9c-.8-.6-2.2-.6-2.9-1.4a64.3,64.3,0,0,1-6.2-7.6c-3.7-5.7-7.1-11.6-10.7-17.4s-6.3-14.5-8-22.2c-.8-3.6-1.3-7.3.9-10.6a31.9,31.9,0,0,1,3.6-3.8,9.9,9.9,0,0,1,10.4-2.4c3.8,1.2,7.2,3.7,10.3,6.2a97.6,97.6,0,0,1,9.6,9.7,50.2,50.2,0,0,1,5.8,7.3c1,1.7,1.8,1.8,3.2.9l1.6-1c.8-.5.8-.9.1-1.7-3.1-3.1-6.1-6.4-9.1-9.7-6-6.8-12.2-13.1-20.6-17.2-4-1.9-10.8-.1-13.4,2.1A13,13,0,0,0,248,40.5Zm35.9,489.7v.2a10.1,10.1,0,0,0,2.5-.3c.5-.2,1.3-1.1,1.2-1.3s.3-3-1.8-2.9a27.3,27.3,0,0,0-4,.5c-4.1.5-8.1,1.2-12.3.4a12.3,12.3,0,0,0-5.4.2c-3.5.9-6.8,1.3-10.3,0a9.1,9.1,0,0,0-3.7-.8c-4-.1-8,0-12.1,0h-4.3c-4.9.1-9.7.3-14.6.3s-7.2-.4-10.8-.3-6.1.8-9.1.9c-5.5.1-11.1-.3-16.7-.1s-11.1.9-16.7,1.4l-6.2.4c-.4,0-.7.4-1.1.6s.6.5.8.5c4.5-1.4,8.6.8,12.8,1.7s9.9,1.9,14.9,0a13.4,13.4,0,0,1,4.8-1.1c3.5-.1,7,.4,10.5.2,5.6-.3,11.2-.9,16.8-1.3s13.2-1.2,19.9-.3,12.4.9,18.6,1.1c2.1.1,4.3-.4,6.4-.4l15.3.8A36.7,36.7,0,0,0,283.9,530.2ZM139.7,468.6c2.5.1,2.7-.5,2.3-2.9a30,30,0,0,1,0-6.7c.3-3,2.2-5.4,4-7.7,4.1-5.3,8.9-9.5,15.2-11.9.6-.3.9-1.2,1.5-1.7l2.7-2.3c.2-.1.5.1.7.1s0,.6-.2.8-.8.4-1.2.7a6,6,0,0,0-.8.8h1c5-.8,9.1-3.7,13.2-6.4,1.2-.8,1.8-2.5,2.7-3.9s.1-.4.1-.7h-.6c-3.4.8-6.9,2.3-10.3,2.4a28.6,28.6,0,0,0-17.3,6.1,99.8,99.8,0,0,0-14.2,13.4c-3.7,4.3-7.3,9.1-7,15.4a.9.9,0,0,1-.3.5c-1.5,1.2-.3,2.1.4,2.9s1.3.7,1.9,1a22.1,22.1,0,0,0,.5-2.5c.1-.2,0-.4.1-.5a29.5,29.5,0,0,1,10.1-19.1l9-7.9a9.1,9.1,0,0,1,1.3-.8,9,9,0,0,1-.3,1.6,8.4,8.4,0,0,1-1.4,2.4c-2.8,3-5.6,6-8.5,8.9a24.1,24.1,0,0,0-7.2,13C136.6,466.5,137.6,468.5,139.7,468.6ZM274,64.7l-5.2,1.6c-.3.1-.7,1.1-.5,1.4,2.6,3.7,5.1,7.6,8,11.1s2,2.2,4.5-.5,1.9-5.6.3-8.6S278.4,63.6,274,64.7Zm10.1,4,1.5-.8c3.7-2,7.5-4,11.1-6.2,7.4-4.6,14.8-9.4,22.2-14.1.4-.3.6-.8,1-1.2a4.1,4.1,0,0,0-1.6.3c-2.2,1.1-4.3,2.5-6.6,3.6-6.3,3.1-12.7,6.1-19,9.4a90.9,90.9,0,0,0-7.8,4.8c-.5.3-1.1.7-1.1,1.2A11.3,11.3,0,0,0,284.1,68.7ZM265.4,97.2l-2.5-7.4c-.2-.3-.6-.4-.8-.7a3.3,3.3,0,0,0-.4,1.3c.8,9,1.7,18,2.6,27,0,.4.4.7.7,1.1s.9-.7.9-1.1-.4-2.7-.4-4.1C265.4,108.2,265.4,103.1,265.4,97.2ZM148,468.4a48.7,48.7,0,0,0,5.1-.5c.9-.2,2.4-1,2.3-1.5a4.6,4.6,0,0,0-1.5-3.2,10.5,10.5,0,0,0-4.3-1.1c-4.1-.1-4.2.1-3,4a3.2,3.2,0,0,0,.3.9Zm-56.5,1.7.2-.5c2.8-.3,2.8-.3,2.6-3,0-.4.2-.8,0-1.1s-.6-1.3-1-1.4c-3.1-.8-5.8.4-8.2,2.3a1.9,1.9,0,0,0,.1,1.5ZM301.3,62.8c-.2.1-.7.4-.8.7s.2.8.5,1,1.5,1,1.9,1.8c2.6,4.5,5.1,9,7.6,13.6l.4.6a1.9,1.9,0,0,0-.1-.8c-2.5-5.1-5-10.2-7.6-15.2C302.9,63.8,302,63.4,301.3,62.8Zm-33.6.7,2.2-.6-.9-1.3a2,2,0,0,0-.6-.9l-2.9-2.3c.3,1,.5,2.1.8,3.2a.6.6,0,0,0,.1.4Zm-3.5,58.7c.4.8.5,1.5.9,1.8s1.5-.3,1.5-.5-.2-2.7-.3-4h-.2Z" transform="translate(-15.8 -11.6)"/>
      <path class="cls-1" d="M218.7,551.6c-2.1,0-4.2-.3-5.8-2a4.1,4.1,0,0,0-3.1-.7c-4.7.6-9.4,1.4-14.1,1.9-2.3.2-4.7.1-7,.1-.5,0-.9-.7-1.4-1.1s.9-1.1,1.4-1.1c2.5-.2,5.1-.2,7.6-.3l3.8-.4,13.4-1.4a2.9,2.9,0,0,1,2.3,1,4.3,4.3,0,0,0,3.9,1.9c2.9.1,5.7,0,8.5,0s8-.1,11.9-.4a46.9,46.9,0,0,0,5.4-1.1c.6-.1,1.8.1,1.9.5a14.3,14.3,0,0,1,.7,3.7c-.8-.2-2.1-.1-2.4-.6s-1.6-1.2-2.8-.9a83.7,83.7,0,0,1-9.8,1.7c-4.3.1-8.5-.4-12.7-.6Z" transform="translate(-15.8 -11.6)"/>
      <path class="cls-1" d="M38.4,558.5c-5.3-.9-10.7-.5-15.8-2.5-2-.8-2.5-2.1-1-3.4s4.2-3.7,7.4-2.4a6.8,6.8,0,0,0,3.5.3,10.2,10.2,0,0,1,7.6,3.1c.8.8,2.1,1.2,3.1,1.9s.9.9.8,1.2a2,2,0,0,1-1.2,1.2Zm-6-3.2,2.8-.4c.2,0,.4-.3.5-.6s-.2-.4-.4-.5l-5.7-1a6.5,6.5,0,0,0-1.3.4c.3.4.5.9.9,1A17.4,17.4,0,0,0,32.4,555.3Z" transform="translate(-15.8 -11.6)"/>
      <path class="cls-1" d="M471.4,538.9a9.2,9.2,0,0,1,2.3,2c.7,1.2.9,2.7,1.6,3.8a18.3,18.3,0,0,0,3.4,3.9,2.2,2.2,0,0,0,2.1,0A55.4,55.4,0,0,0,487,545c1.9-1.4,3.8-1.8,5.9-.4s2.7,1.5,4,2.4.4.8.6,1.3H496l-.7-.3c-3.7-2.3-7-2.3-10.5.8s-4.8,3.2-7.8,1.7a9,9,0,0,1-4.9-5.7c-.3-.9-.9-1.7-1.3-2.6-.7.7-1.5,1.3-2.2,2.1s-2.9,3.5-4.5,5.1-1.6.3-2.5.4a6.5,6.5,0,0,1,.6-2.1c2-2.4,3.9-4.6,6-6.8A22.2,22.2,0,0,1,471.4,538.9Z" transform="translate(-15.8 -11.6)"/>
      <path class="cls-1" d="M339.7,563.1c-3.2-.1-6.5-.1-9.6-.5a12.3,12.3,0,0,1-5-2,5.9,5.9,0,0,0-6.7-.8,22.7,22.7,0,0,1-11,1.6,5.1,5.1,0,0,1-1.6-1.1c.6-.4,1.2-1.1,1.7-1.1,4.7.3,9.1-1.5,13.5-2.7,2.7-.7,4.8.2,6.8,2s5.9,2.4,9.2,2.3h11.3c.4,0,.9.6,1.4,1s-.9,1.1-1.4,1.1h-8.6Z" transform="translate(-15.8 -11.6)"/>
      <path class="cls-1" d="M296.1,552.1l9,2.5c1,.3,2,.5,3,.9s.6.7.9,1-.9.9-1.3.9a54.6,54.6,0,0,1-5.7-.4c-1.3,0-2.6-.1-3-1.8s-.9-.6-1.4-.6-2.2.1-3.3.1-1.8.3-2.4-.1-2.8-1.4-4.6-.5-2-.2-1.7-1.7,0-1.1.2-1.6a6.9,6.9,0,0,1,.7-1.5,3.1,3.1,0,0,0,.7.9c.2.1.7.2.9,0s3.2-2.2,5-3.1,1.5-.2,2.3-.3a14.6,14.6,0,0,1-.3,2.2c-.1.4-.4.6-.6,1l-.8,2.1,2.2.7Z" transform="translate(-15.8 -11.6)"/>
      <path class="cls-1" d="M390.5,126.8c-2.3-.1-4.4-.3-6-2.1s-1.5-3.8,1.2-4.4a24.1,24.1,0,0,1,5.3-.4c1,0,1.1.1.7-.9s0-1.4,0-2.1a3.5,3.5,0,0,1,1.6.8,26,26,0,0,1,3.8,4.3c1.1,1.9.3,3.4-1.8,4S392.1,126.5,390.5,126.8Zm-.6-4.8-2,1,3,1.3c.3.1.8-.3,1.2-.5A17.4,17.4,0,0,1,389.9,122Z" transform="translate(-15.8 -11.6)"/>
      <path class="cls-1" d="M435.3,560.5c.1,1.3-.4,3.2,2.2,3.1.3,0,.9.8.9,1.1a1.6,1.6,0,0,1-1.1,1,23,23,0,0,1-2.6-.3c-.3-.1-.6-.3-.9-.2-3.8,2-1.1-1.9-2.1-2.5s.2-.7.2-1l-.3-2.5c-.6.5-1,1.2-1.6,1.4-2.7.6-3.4,3-4.9,4.7a2.2,2.2,0,0,1-3.5-.2c-.1-.2-.2-.8-.1-.8,1.8-.9,1.2-2.7,1.5-4.2s.4-.6.6-.8l.6.7.6,1.1a7.6,7.6,0,0,0,1.2-1.9c.2-.3-.2-.9-.3-1.4a.9.9,0,0,1,.4-.5c.1-.1.5.1.6.2.5,1.8,1.6.6,2.5.4s1.1-.8,1.7-1C433.9,555.9,435.3,557,435.3,560.5Z" transform="translate(-15.8 -11.6)"/>
      <path class="cls-1" d="M455.2,568.5l8.7-1a3.8,3.8,0,0,1,1.7.8c-.3.3-.7,1-1,1-5,.5-9.9.9-14.9,1.1-1.5.1-2.2-.8-1.8-2.4s-.7-1-1.1-.9-3.2.4-4.8.4-1.5-.7-2.3-1.1c.7-.5,1.5-1.5,2.2-1.5,3.4,0,6.8.1,10.1.3s2.4.6,1.3,2.4c-.1.1.2.7.4.8a7.5,7.5,0,0,0,1.5,0Z" transform="translate(-15.8 -11.6)"/>
      <path class="cls-1" d="M489.6,105.5c1,.2,2.6.1,3.1.8a16.2,16.2,0,0,1,2.5,5.3c.1.5-1,1.8-1.8,2.2-2.7,1.4-7,.4-8.6-2.1-.7-1-1.1-2.9-.6-3.6s2.7-1.7,4.1-2.5.8.1,1.2.1Zm-.9,3.4c-.2.3-.6.7-.5.8a3.8,3.8,0,0,0,1.1,1.4,11.1,11.1,0,0,0,2.6.7c0-.4.2-1.1,0-1.3Z" transform="translate(-15.8 -11.6)"/>
      <path class="cls-1" d="M203.8,566.7c1.5.2,3.5.3,5.5.7a2,2,0,0,1,1.2,1.2c.5,1.1.6,2.8,1.4,3.1s3.3.6,5,.8.7-.3.9-.2,1,.4,1.1.7a1.3,1.3,0,0,1-.6,1.1c-2,1.1-8.2.5-9.9-1a3.6,3.6,0,0,1-1.1-1.7c-.3-2.2-1.9-2.5-3.5-2.3a54.4,54.4,0,0,0-7,1.5c-1.2.3-2.2.4-2.4-.9s1-1.3,1.7-1.5C198.4,567.6,200.8,567.2,203.8,566.7Z" transform="translate(-15.8 -11.6)"/>
      <path class="cls-1" d="M484.6,263.4c-2.4-.5-5.1-1.7-5-4.7s2.3-4.6,4-4.7,5.2,3.3,5.1,6.5S487.1,263.4,484.6,263.4Z" transform="translate(-15.8 -11.6)"/>
      <path class="cls-1" d="M51.8,171.7c-2.3.1-2.6-1.8-3.1-3.2a3.2,3.2,0,0,1,.8-2.7,27.5,27.5,0,0,1,3.9-3.7,2.4,2.4,0,0,1,1.5-.2,3.9,3.9,0,0,1,2.8,5.9C56.3,169.8,54.4,171.5,51.8,171.7Zm2.9-4.5-1.2-1.6a12.2,12.2,0,0,0-1.2,1.9c-.1.2.7,1,.8,1A15.3,15.3,0,0,0,54.7,167.2Z" transform="translate(-15.8 -11.6)"/>
      <path class="cls-1" d="M484.7,564c3,.5,5.8.1,7.8,2.8.6.8,2.5.8,3.8,1.1l4.1.9c.2,0,.5.4.7.6s-.6.7-.9.8a3.7,3.7,0,0,1-1.8.2c-2.6-.2-5.2-.4-7.7-.8a3,3,0,0,1-2.1-1.2c-1.1-2.1-2.9-1.9-4.7-1.6s-2.1.5-3.2.5-1.1-.5-1.6-.8.6-1.3,1.1-1.5S483.4,564.3,484.7,564Z" transform="translate(-15.8 -11.6)"/>
      <path class="cls-1" d="M472.9,168c-.1,4.1-3.5,6.9-7.2,5.7a3.4,3.4,0,0,1-1.7-2c-.5-1.7,1-5.2,2.5-5.7s1.8.1,2.8.2.8.4,1.2.3S472.9,166.1,472.9,168Z" transform="translate(-15.8 -11.6)"/>
      <path class="cls-1" d="M281.7,550.5a50.7,50.7,0,0,1-3.5,4.6c-.3.3-1.3-.1-2-.1s-.2-1.4.1-1.9c2.2-3,2.5-6.7,3.4-10.2.3-.8,1-1.9,1.8-2.1s1.5.8,1.8,1.9,1,3.4,1.4,5.1a5.2,5.2,0,0,1-.2,1.7l-1.5-.3-1.3-.7-.6,1.7Z" transform="translate(-15.8 -11.6)"/>
      <path class="cls-1" d="M51.2,589.6l-1.5-1.3a7.9,7.9,0,0,1,1.5-1.2c2.1-.8,4.2-1.3,6.3-2a5.9,5.9,0,0,1,6.7,2.2,5.7,5.7,0,0,0,2.2,1.1c1.3.5,2.6.9,3.8,1.5a1.2,1.2,0,0,1,.4,1.3,1.5,1.5,0,0,1-1.3.6c-2.2-.5-4.5-1.1-6.7-1.8a1.7,1.7,0,0,1-1-1c-.3-2-1.7-1.8-3-1.5s-3.7,1-5.6,1.5Z" transform="translate(-15.8 -11.6)"/>
      <path class="cls-1" d="M233,568.1l-3.7.2a6.6,6.6,0,0,1-1.9-.9c.5-.5,1.1-1.4,1.7-1.5a59.4,59.4,0,0,1,7.3-.3H238l8.8.4c.4.1.8,1,1.1,1.5s-1.1.9-1.6.9c-4.5.1-8.9,0-13.3,0Z" transform="translate(-15.8 -11.6)"/>
      <path class="cls-1" d="M53.4,540.5a2.9,2.9,0,0,1,1.3,0,19.1,19.1,0,0,1,3.6,1.3c.4.2.4,1.7.1,2.5s-4.5,3.8-6.6,3.4a3.4,3.4,0,0,1-3.1-3.1c-.4-1.9.7-2.6,2.1-3.2Zm1.8,3.6a2.5,2.5,0,0,0-2.5.2h0c.4.2.8.7,1.1.6s.9-.5,1.4-.7Z" transform="translate(-15.8 -11.6)"/>
      <path class="cls-1" d="M100,120.4c-2.5,0-2.9-.5-2.3-3s.5-2.1-1.2-2.2-.5-.4-.8-.7l.9-.8,2-1.4.3-.4c.1.2.4.3.4.5a2.2,2.2,0,0,1,0,.8,24.4,24.4,0,0,1-.1,2.7l3.5-.2a10.6,10.6,0,0,1,.1-1.5c0-.5,0-1.2.3-1.4a7.6,7.6,0,0,1,2.5-.6c.3-.1.7.6.8,1C106.7,115.7,102.5,120.4,100,120.4Z" transform="translate(-15.8 -11.6)"/>
      <path class="cls-1" d="M433.8,110.4l-6.2-2.4c-.5-.2-.7-1.1-1.1-1.7s1.4-1.1,2-1,3.4.6,4.2-1.7a2.4,2.4,0,0,1,1.6-.3c1.4.3,3.3,3.1,2.7,4.4S434.9,109.5,433.8,110.4Z" transform="translate(-15.8 -11.6)"/>
      <path class="cls-1" d="M214.1,588.5c.3-.5.4-1.4.9-1.5a2.1,2.1,0,0,1,1.9.3,2.9,2.9,0,0,1,.9,2c-.3,2.2-5.6,5.1-7.7,4.2s-1.9-2.3-1.8-4a3,3,0,0,1,3-2.7c.3-.1.9,1.3,1.3,2.1a6.6,6.6,0,0,1,.4,1.5l1.7-1.4Z" transform="translate(-15.8 -11.6)"/>
      <path class="cls-1" d="M80,591.4c1.6-.7,2.9-.6,3.4,1.2s.4,1.8.1,2.2a3.2,3.2,0,0,1-2.3.5c-2.6-1-5.2-2.2-7.8-3.4a1.6,1.6,0,0,1,.1-1.5,27.3,27.3,0,0,1,4.7-2.7c.5-.3,1.3.3,2,.4s-.4,1.3-.7,1.9a2,2,0,0,1-1,.8Z" transform="translate(-15.8 -11.6)"/>
      <path class="cls-1" d="M418.9,555.9c0,2.5,0,4.5-.1,6.5a2.2,2.2,0,0,1-3.1,2c-.3-.1-.6-.9-.6-1.4.3-2.5.8-5,1.1-7.6s-.7-2.5.5-3.7,1.3-.7,1.5.2S418.7,554.9,418.9,555.9Z" transform="translate(-15.8 -11.6)"/>
      <path class="cls-1" d="M111.3,592l8.5.5h.9c.7.8,2,1.8,1.8,2.4s-1.7,1-2.9.7a51.2,51.2,0,0,0-5.4-1,9.3,9.3,0,0,1-2.4-.2,6.2,6.2,0,0,1-1.9-1.4Z" transform="translate(-15.8 -11.6)"/>
      <path class="cls-1" d="M482.3,190.3c2.3,0,6,2.8,6.6,4.8s-.6,2.3-1.6,1.8a18.4,18.4,0,0,1-4.8-3c-.6-.6-.6-2-.8-3.1S482.2,190.4,482.3,190.3Z" transform="translate(-15.8 -11.6)"/>
      <path d="M162.3,134.8c-.1.5-.1,1.1-.4,1.4a30.9,30.9,0,0,1-3.3,3.9c-.4.4-1.2.4-1.8.6a7.9,7.9,0,0,1-.4-2,26,26,0,0,1,.3-4,6.1,6.1,0,0,1,.7-1.4l.6,1.3c.2.6.5,1.1.7,1.7s1.1-1,1.6-1.6a17.7,17.7,0,0,0,1.2-1.7Z" transform="translate(-15.8 -11.6)"/>
      <path class="cls-1" d="M140.9,617.3c-1.8-.3-2.3-1-1.6-2.1a3.5,3.5,0,0,1,1.7-1.7,24.2,24.2,0,0,1,4.7-.7c.4,0,1.1.8,1.1,1.2a1.8,1.8,0,0,1-.8,1.5Z" transform="translate(-15.8 -11.6)"/>
      <path class="cls-1" d="M33.3,576.7h0a1.8,1.8,0,0,1-.2-2.7l1.2-1a5.5,5.5,0,0,1,2.8-.7,2.1,2.1,0,0,1,1.7.9,2,2,0,0,1-.5,1.8,24.3,24.3,0,0,1-3.2,1.8A1.9,1.9,0,0,1,33.3,576.7Z" transform="translate(-15.8 -11.6)"/>
      <path class="cls-1" d="M402.7,99.5a37.9,37.9,0,0,1-4.6-.7c-.7-.2-1.5-.9-1.5-1.5s.7-1.2,1.3-1.6a7,7,0,0,1,2-.8c.4-.2,1.2-.3,1.4-.1s1.1,2.9,2.7,3.5Z" transform="translate(-15.8 -11.6)"/>
      <path class="cls-1" d="M82.4,132.2a5.7,5.7,0,0,1,0,1.3,11.1,11.1,0,0,1-.9,1.9c-.6-.5-1.4-.9-1.7-1.5a18.2,18.2,0,0,1-.9-5.1c0-.8.8-1,1.5-1.3s1.8.5,1.9,1.6l.3,3.1Z" transform="translate(-15.8 -11.6)"/>
      <path class="cls-1" d="M48.4,134.9l5,2.7c.3.2.2,1.4,0,1.4a8.2,8.2,0,0,1-3.1.7,5.2,5.2,0,0,1-2.3-1c-.7-.6-1.2-1.4-1.8-2Z" transform="translate(-15.8 -11.6)"/>
      <path class="cls-1" d="M494.5,133.9c-1.3,1.4-1.9,2.5-2.8,3s-2.2-.2-2.7-1.6-.6-1.2-.7-1.8a7.5,7.5,0,0,1,.2-2.1l1.7.6,1.3.2Z" transform="translate(-15.8 -11.6)"/>
      <path class="cls-1" d="M454.5,65.6c-.6-.2-1.5-.2-1.8-.7s-1.4-.8-2.2-.1-.5,0-.8,0,.3-.6.5-.7a33.8,33.8,0,0,1,5.1-2.4c.4-.2,1.4.7,1.8,1.4a1.5,1.5,0,0,1-.3,1.7A5.7,5.7,0,0,1,454.5,65.6Z" transform="translate(-15.8 -11.6)"/>
      <path class="cls-1" d="M480.8,143.1c.6.6,1.7,1.4,1.6,1.6s-1.5,2.8-2.2,2.8-3.2-1.5-3.2-2.2S478.8,143.4,480.8,143.1Z" transform="translate(-15.8 -11.6)"/>
      <path class="cls-1" d="M59.1,576.8h0a1.2,1.2,0,0,1-.1-1.7,6.9,6.9,0,0,1,1.8-1.6c.2-.2.7-.1,1.1,0a1.2,1.2,0,0,1,.9,1.5,4.3,4.3,0,0,1-.4.7,8.2,8.2,0,0,1-2,1.2A1.1,1.1,0,0,1,59.1,576.8Z" transform="translate(-15.8 -11.6)"/>
      <path class="cls-1" d="M88.1,596.9c.7.4,1.6.5,2.1,1.1a8.5,8.5,0,0,1,.9,2.4l-2.2-.5-1.8-.4a15.3,15.3,0,0,1-1.6-1.1l1.9-1.3c.1-.1.4,0,.6.1Z" transform="translate(-15.8 -11.6)"/>
      <path class="cls-1" d="M479.4,91.3c-.8-1.2-1.9-2.3-1.7-2.6a3.5,3.5,0,0,1,2.4-1.9c.6,0,1.8,1.4,1.8,2.1S480.6,90.2,479.4,91.3Z" transform="translate(-15.8 -11.6)"/>
      <path d="M456.4,153c1.3-.9,2.1-1.9,3-2s1.6.8,2.5,1.2a26.7,26.7,0,0,1-3.6,2.2C458.1,154.5,457.5,153.8,456.4,153Z" transform="translate(-15.8 -11.6)"/>
      <path d="M459.3,149.5c-.9-1.1-1.8-1.8-1.8-2.5s1.4-1.8,1.6-1.6a23.2,23.2,0,0,1,2.5,2.1Z" transform="translate(-15.8 -11.6)"/>
      <path class="cls-1" d="M17.2,587.6c-.7-1.1-1.5-2-1.3-2.3a4.5,4.5,0,0,1,2.2-1.9c.3-.1,1.2,1.2,1.8,1.8Z" transform="translate(-15.8 -11.6)"/>
      <path class="cls-1" d="M162.1,584.2c-1.4,1.2-2.2,2.1-3.2,2.5s-1.1-1.3-1.7-2a19.2,19.2,0,0,1,2.6-1.7C160.2,582.9,161,583.6,162.1,584.2Z" transform="translate(-15.8 -11.6)"/>
      <path class="cls-1" d="M54.2,570.9c-.8.4-1.6,1.2-2.4,1.2s-1.3-1.1-1.9-1.7a10.1,10.1,0,0,1,2.4-1.8c.5-.1,1.3.9,1.9,1.4Z" transform="translate(-15.8 -11.6)"/>
      <path class="cls-1" d="M193.6,580.5c.8,1,1.8,1.9,1.7,2.1s-1.3,1.8-2,1.8-1.6-1-2.4-1.6Z" transform="translate(-15.8 -11.6)"/>
      <path class="cls-1" d="M96.6,603a16.8,16.8,0,0,1-1.9-2.6c-.1-.2,1.1-1.3,1.3-1.2a17.8,17.8,0,0,1,3,1.7Z" transform="translate(-15.8 -11.6)"/>
      <path class="cls-1" d="M192,561l1.9,2.3a6,6,0,0,1-2.3,1.6c-.4.1-1.1-.8-1.7-1.3Z" transform="translate(-15.8 -11.6)"/>
      <path class="cls-1" d="M478.3,91.6c-.3.3-.5.5-.7.5s-1.4-.1-1.6-.5-.2-1.2-.2-1.8h.8c.1.1,0,.5.1.6A9.5,9.5,0,0,0,478.3,91.6Z" transform="translate(-15.8 -11.6)"/>
      <path d="M346.9,692.9c-.5.2-1.1.6-1.4.4s-.7-.9-.9-1.4.6-.8.8-.7.7.5,1.1.8Z" transform="translate(-15.8 -11.6)"/>
      <path class="cls-2" d="M445.8,164.3a9.4,9.4,0,0,0-1.7,0c-1.9.5-2.8,0-2.5-2,0-.2-.3-.4-.4-.7a2.5,2.5,0,0,0-.2.7c-.4,2.9-1,3.2-4.1,3l-19.7-.7c-3.2-.1-6.5,0-9.8.2s-9,1.2-13.5,1.2a202.8,202.8,0,0,1-33-1.7c-4.2-.7-8.7.1-13,.1-6.7,0-13.3-.5-19.9,0s-12.4,2.1-18.5,3.1-10.8,2.6-16.3,1.5c-7.4-1.5-15-1.7-22.5-2.1-3.8-.2-7.6-1.3-11.4-1.1-7.5.4-14.9,1.3-22.3,2.2-4.6.5-9,1.3-13.5,1.9a5,5,0,0,1-2.7-.4c-5.2-2.3-10.5-1.1-15.7-.4s-11.3,2.2-17,2a108.4,108.4,0,0,0-21.3,1.2,10,10,0,0,1-7.5-1.1c-2.4-1.4-5.1-.9-7.7,0a44.4,44.4,0,0,1-17.4,2.2,74.3,74.3,0,0,0-9.4.7c-2.8.3-5.7.9-8.6,1.3a4.3,4.3,0,0,1-2.5-.3c-4-1.8-7.9-.9-11.8.4l-5.6,1.7a1.8,1.8,0,0,1-1.4-.8c-1.2-4.6-2.2-9.1-3.3-13.6a.8.8,0,0,1-.1-.4c1.2-3,2-6.2,3.6-9s3.6-2.5,5.9-2.3a25.7,25.7,0,0,0,12.3-1.9c3.3-1.2,6.4-2.8,9.7-3.9a14.8,14.8,0,0,1,4.7-.5c5.8.2,11.7.6,17.5.6s10.9-.5,16.3-.8a50.3,50.3,0,0,0,5.6-1c5.8-.7,11.5-1.5,17.2-2s12.1-1.1,18.1-1.2,10.4.5,15.6.6c2.5,0,5-.5,7.5-.6,5.1-.3,10.1-.5,15.2-.5s10.5.6,15.8.7c1.6,0,3.3-.8,5-1.1s3.2-.9,4.6-.4c5.5,1.7,10.9,2.1,16.3.2,2.2-.8,4.1-.1,5.8.6s5,.3,7.3-.2,3.1-1.4,4.7-1.7,3.7-.7,5.4-.2c5.7,1.8,11.5.7,17.2.8a8.5,8.5,0,0,1,4.2.7c2.8,1.6,5.6,1.2,8.4.4a33.3,33.3,0,0,1,14.4-.7,29.9,29.9,0,0,0,7.9-.3,13.3,13.3,0,0,1,7.4.6c5.7,2.6,11.6,2.1,17.6.9,4.1-.9,8.4-1.2,12.4.5a26.3,26.3,0,0,0,17.5.6,13.6,13.6,0,0,1,8.7.5c5.1,1.9,9.9.9,14.6-1a8,8,0,0,1,6.6-.2,51.1,51.1,0,0,0,7,1.7c1.3.2,1.5,1,1.4,2.1-.4,3.4-.7,6.9-.9,10.3a13.9,13.9,0,0,0,.3,5c.9,3.4.1,4.1-3.7,4.6Zm-343.2,5.3.2-.7c4.4.4,7-1.8,8.8-5.5.8-1.5.9-3.1-.3-4.2a34.6,34.6,0,0,0-5.6-4.3c-.2-.1-.8.3-1.2.5s-2.2,1.4-3.4,2a21.2,21.2,0,0,0-3.6,2.1c-3.1,3.1-3.1,4.4-.2,7.3C98.6,168.1,100.8,168.7,102.6,169.6Zm35-5.8c6.4-.5,7.9-4.2,6.8-9.3-.5-2.1-3.8-4.2-5.3-3.5a45.9,45.9,0,0,0-5,2.4,13.5,13.5,0,0,0-3.7,3,3.7,3.7,0,0,0,1.3,5.4A58.4,58.4,0,0,0,137.6,163.8Zm-10.3-4.1v-.5c-.3-6.2-1.3-6.9-7-4.2a22.7,22.7,0,0,0-5.8,3.9c-1.4,1.2-.9,3.3.5,4.5a10,10,0,0,0,7.4,2C126.3,165.1,127.5,163.6,127.3,159.7Z" transform="translate(-15.8 -11.6)"/>
      <path class="cls-3" d="M99.1,472.2h31.6c3.2,0,6.4-.2,9.6-.4,1.6,0,3.3-.2,4.6,1.2s1.5.5,2-.6,1.1-.9,1.7-1.1c2.7-.6,5.6-.8,8.3-1.6s4.6-3.9,1.3-7-6.4-4.7-10.8-3.6a1.3,1.3,0,0,1-1.2-.6,1.7,1.7,0,0,1,.4-1.3,3.8,3.8,0,0,1,1.6-.5c3.3-.4,6.3.6,9.3,1.7,4.5,1.7,5.5,5.6,6.3,9.6s1.4,7.8,2.2,11.8c.2,1.5,1,3.1-.9,4.2-.2.1,0,.9,0,1.4A46.3,46.3,0,0,1,164,491c-.8,2.2-2,4-1.4,6.5s-.6,2.8-1.3,4-2.2,2.1-3.2,3.3a2.3,2.3,0,0,0-.3,1.8,7.9,7.9,0,0,1-.2,6.4c0,.2.1.8.3.8s2.2,1.3,1.1,2.6-2.8,2.4-3.9,3.8a10.7,10.7,0,0,0-2,3.8c-.2.5.4,1.5.9,1.9s1.6,2.3.6,3.3c-2.3,2.5-2.2,5.4-1.6,8.5l.6,3.4c.2,2.4,2.6,3,4,4.4a42.1,42.1,0,0,0,5.8,4.4c1.1.8,1.8,1.2.2,2.3s-2.3,2.6-3.5,3.8a45.3,45.3,0,0,1-6.2,5.4c-3.1,2-6,4.5-10.1,4.7a17.9,17.9,0,0,0-4.6.9c-1.9.8-3.7,1.9-5.5,2.8a6.1,6.1,0,0,1-5.3.3,9,9,0,0,0-4-.1,4.7,4.7,0,0,1-4.3-1.4,3.8,3.8,0,0,0-3-1.1c-2.5.4-5,.8-7.5-.1a10.7,10.7,0,0,0-3.1,0,113,113,0,0,1-11.7-.8c-4.7-.7-8.5-3.5-11.9-6.7a1.4,1.4,0,0,1-.5-1.1,56.9,56.9,0,0,1-.8-8.2,103.2,103.2,0,0,1,1.5-13.5c1.3-6.7,4.4-12.7,7.2-18.9,1.8-3.7,3.3-8.2,1.4-12.2a25.3,25.3,0,0,1-2.8-9.6q-.3-3.6-.9-7.2c-.5-2.2-.8-4.6-1.9-6.5s-3.3-6.4-6.4-8.6-3-8.6.3-10.8,8.1-3.5,12.5-4.2c.4-.1.9.7,1.4,1.1s-.8,1-1.2,1.1c-3.1.9-6.3,1.6-9.4,2.6a5.3,5.3,0,0,0-2.3,1.7c-1.2,1.2-.8,2.2.2,3.4,3.2,3.4,7.2,3.5,11.4,3.3,2.2-.1,4.3,0,6.5,0Zm48.4,7.8v.3a32.1,32.1,0,0,0,4.3-.7c.6-.1,1-.9,1.5-1.4a6.1,6.1,0,0,0-1.8-.5q-4.2.2-8.4.6c-3.2.3-6.5.1-9.3,2.2s-2.5,3.3-1.1,4.9a49.1,49.1,0,0,0,4.8,4.3c.7.6,1.7,1.3,1.8,2s1.3,2.1,2.8,2.2l2.3.5.9.4a2.7,2.7,0,0,1-.7.8l-4.6,3c-1.9,1.2-2.7,3.3-1.4,4.1a33.6,33.6,0,0,0,4.3,2l1.7.8a14,14,0,0,1-1,1.6c-1.5,1.9-3.1,3.6-4.4,5.6-.3.4,0,1.7.4,1.8,2.9,1,4.4,2.7,3.3,6,0,.2-.1.4,0,.5s.7,1,1.1,1.1a1.3,1.3,0,0,0,1.2-.7c1.9-2.8,1.3-5.9-1.8-7.5-1.5-.8-1.3-1.6-.4-2.5s3.1-2.8,4.4-4.3a3.2,3.2,0,0,0,.9-2.4c0-.4-1.1-.9-1.7-1.2s-2.3-.5-3.4-.9-2.1-1.3-.6-2.6,3.2-2,4.7-3.2a18.9,18.9,0,0,0,2-2.7,13.4,13.4,0,0,0-2.9-1.5c-1.7-.3-3.1-.6-4.3-2.2s-2.2-1.4-3.2-2.3a16.2,16.2,0,0,1-3.2-3.2,2,2,0,0,1,.2-2.1,11.8,11.8,0,0,1,3.9-1.9C142.3,480.4,144.9,480.3,147.5,480ZM134,561.3v.3l-1.9-.4a15.1,15.1,0,0,1,1.7-1c3.5-1.2,7-2.1,10.4-3.4a70.8,70.8,0,0,0,7.7-4.1,5.4,5.4,0,0,0,.9-1.2c-.5-.3-.9-.8-1.4-.9s-3.2-.4-4.8-.6-2.9-.1-4.2-1.4-2.2-.1-3.2.2-.9,1.1-1.3,1.6a31.3,31.3,0,0,0,3.2,1.5c.2.1.6-.1.9-.1s2.3-.4,3.4-.4a12.9,12.9,0,0,1,2.8.8c-.8.5-1.4,1.3-2.2,1.6l-16.7,5.5a21.1,21.1,0,0,0-3.3,1.8l3.4,2.1c.4.3,1.3.6,1.3.9.2,2.1,1.6,2.4,3.1,2.3s4.4-.4,6.6-.8a5.4,5.4,0,0,0,1.8-1l-1.9-.7h-1.6l1.5-.6.7-.2,1.1-1.2a3.4,3.4,0,0,0-1.4-.5ZM144.4,533l-4.7,1.1c-1.3.4-1.5,1.6-.3,2.5a33,33,0,0,0,3,2.2,39,39,0,0,0-2.9,2.8c-.4.6-.6,2-.3,2.2a6.1,6.1,0,0,0,2.9,1.1c.1.1.6-.6.5-.7-1.6-2,.5-2.5,1.4-3.2,2.7-2,2.8-2.1.3-4.3-.3-.2-.4-.6-.6-.8a4.7,4.7,0,0,1,.9-.6h1.3c.4-.1.7-.5,1.1-.7s-.5-.9-.8-1.1Z" transform="translate(-15.8 -11.6)"/>
      <path class="cls-3" d="M254.2,46.7c-.3-5.8,1.8-9,5.8-10.9s7.1-.7,10.3,1.5c6.4,4.3,11.2,10.4,16.3,16.1a40.4,40.4,0,0,1,2.8,4,1.6,1.6,0,0,1-.3,1.5l-6.9,3.8c-1,.5-1.5.4-2.3-.5s-1.9-.7-2.9-.9h-.3c-1.3.3-2.6,1.1-3.7.9s-1.5-1.7-2.3-2.5-3.1-3.7-4.8-5.3a2.6,2.6,0,0,0-2.4-.6c-.6.1-1.3,1.4-1.2,2,.5,2.6,1.1,5.3,1.8,7.9,1.8,6.1,5.9,10.9,9.7,15.8a38.3,38.3,0,0,0,3.3,4.6,38.4,38.4,0,0,0,5.4,4.4,12.9,12.9,0,0,0,1.6.9c1.3.8,2.2.1,2.1-1.1a11.1,11.1,0,0,0-1.2-4.5c-1.5-2.4-1.6-3.2.5-5.1a5.2,5.2,0,0,1,1-1.1c2-1.1,1.8-2.6.7-4.1s-.4-1.2.5-1.8,2.7-2.4,4.2-3.5a15.4,15.4,0,0,1,3.7-2.3,3.3,3.3,0,0,1,2.9.6,51,51,0,0,1,5.1,6.2,33.4,33.4,0,0,1,3.8,6.9A60.8,60.8,0,0,1,311,91.4c1,6.8-4.6,10.6-10.1,11.3s-11.1-1.8-16.1-4.6c-6.6-3.6-11.2-9.2-15.3-15.2a152.2,152.2,0,0,1-8.2-14.1C257.4,61.5,255.4,53.5,254.2,46.7Z" transform="translate(-15.8 -11.6)"/>
      <path class="cls-3" d="M155.4,575.4c-4.4.6-8.9.9-13.3,1.8-8.2,1.8-16.4,3.1-24.8,2.9-3.4-.1-6.8-1.2-10.2-1.5a36.6,36.6,0,0,0-7.4,0c-5.1.4-10.1,1.4-15.1,1.4a11.5,11.5,0,0,1-8.5-3.7c-2.1-2.3-4.5-4.4-6.7-6.7s-2.7-4.8-.6-8.7a16.9,16.9,0,0,1,8.4-7.2c.3-.1,1.1,0,1.1.1.2,1.7.3,3.4.6,5a6.7,6.7,0,0,0,.8,3.3,20.9,20.9,0,0,0,3.9,2.7,47.9,47.9,0,0,0,5.8,3.3,16,16,0,0,0,4.8,1.1c3.8.3,7.6.4,11.4.6s6,.2,9,.1a5.8,5.8,0,0,1,3.9,1.3c1,.8,2.7.8,4.1,1l4.9.4a15.6,15.6,0,0,0,9.4-1.9,22.8,22.8,0,0,1,5.8-1.7,31.3,31.3,0,0,0,15.7-7.6c3-2.5,5.6-5.5,8.5-8.3a1.9,1.9,0,0,1,1.8-.1c1.5.8,2.8,2,4.3,2.9a6.3,6.3,0,0,1,2.5,8.1l-.9,2.1c-2,5.6-7.2,6.9-12,8.6-2.3.7-4.7.9-7.1,1.4Z" transform="translate(-15.8 -11.6)"/>
      <path class="cls-2" d="M450.1,171.6v20.5l.6,29.5c0,4.7-.2,9.4,0,14.1.4,11.5.4,23,1.5,34.4s.3,22.3.6,33.5c.1,4.6-1,9.2-1.3,13.8-.5,6.2-.6,12.4-1,18.6s-1.4,9.6-1.6,14.5a57.7,57.7,0,0,0,1.9,17c.9,3.3.5,7.1.5,10.6-.2,7.7-1,15.4-.7,23.1s-1.8,15.2-3,22.8c-2,13.3-4.7,26.5-3.9,40,.2,3.7-.2,7.3-.2,10.9-.1,1.4-.1,2.6,1.3,3.6s.7,2.2.7,3.4c0,2.7-.3,5.4-.2,8.1s.4,7.6.6,11.4c.4,6,.2,11.8-2,17.5a19.2,19.2,0,0,0-1.4,2.9,44.2,44.2,0,0,0-1.3,7.1c-.1,1.3-.4,1.9-1.8,1.8-7.5-.2-14.9,2.1-22.4.8a6.7,6.7,0,0,0-2,0c-7,1.7-14.1.9-21.2.8a8.4,8.4,0,0,1-2-.5c-4.2-1-8.3-1.8-12.8-1.2s-10.9,0-16.4-.1c-1.4-.1-2.8-.7-4.2-.7a29,29,0,0,0-7.8.3c-5.9,1.5-11.8,1.9-17.7.2s-10.3-1.1-15.5-.8a31.3,31.3,0,0,1-12.1-1.6c-4.5-1.5-9-.8-13.4.7-2.6.8-3.5.6-3.5-1.5,0-.5.8-1.5,1.2-1.5,7.9.8,15.8-.4,23.7,1.2,4.3.9,8.8.4,13.1.7,6.2.3,12.4.9,18.6,1.1,3.3.1,6.7-.4,10.1-.5,1.8-.1,3.6,0,5.5,0l11.2.3c2.2.1,4.5.5,6.7.7s7.1.6,10.6.7c6.2.1,12.4.3,18.6.1s9.5-.7,14.3-.9a104.1,104.1,0,0,1,12.5.1c3.7.2,5.2-.9,5.9-4.6s1.4-5.2,2-7.9c1.1-5,2.4-9.9,1.5-15.2a149.4,149.4,0,0,1-1.5-15c-.3-4.6-.5-9.2-.9-13.8-.6-6.2-1.1-12.4-.4-18.6q1.8-13.7,3.9-27.3c1.1-7,2.8-13.9,3.6-20.8s.4-11.3.6-16.9c.1-2.1.1-4.1.3-6.1.4-6.1.6-12.1-1.3-18.1a31.9,31.9,0,0,1-.6-5.5c-.3-2.6-.8-5.3-.9-8a89.8,89.8,0,0,1,0-11.6c.4-5.9,1.2-11.8,1.7-17.7.4-4.3.5-8.7,1-12.9.2-2.6,1.3-5,1.6-7.5a83.3,83.3,0,0,0,.8-12.2c0-2.7-1.1-5.4-1.4-8.1q-.7-7.8-1.2-15.6c-.5-7.6-.9-15.1-1.3-22.7s-.7-13.4-.6-20.1.6-14.3.8-21.5.5-15.4.6-23.1c0-3.2-.3-6.4-.4-9.6,0-.4.7-.9,1-1.4s1.2.8,1.2,1.3a15,15,0,0,1,0,3Z" transform="translate(-15.8 -11.6)"/>
      <path class="cls-3" d="M120.5,433.3c.4,3.9,1.4,9.1,1.4,14.3,0,1.8.7,3.3.9,5s.4,5.5.7,8.2a7.6,7.6,0,0,0,.8,2.1c.9,1.6,1.9,3.1,2.7,4.7s.2,1.7-.9,1.7a54.2,54.2,0,0,1-5.7-.1c-.3,0-.7-.3-.7-.6a60.5,60.5,0,0,1-1.3-7.2c-.5-5.2-.8-10.3-.9-15.4-.1-8.7.7-17.5-.2-26s-.9-17.9-6.9-25.3c-1.9-2.4-3.9-4.7-5.9-7l-.7-.4c0,.2-.2.5-.1.7s1.4,2.9,2.2,4.3,3.5,5.5,4.7,8.4a48.6,48.6,0,0,1,1.8,8.6,90.9,90.9,0,0,1,1.5,9.1c.4,4.5,1,9.1.4,13.8s-.2,10.4-.1,15.7.2,8.3.5,12.4a17.1,17.1,0,0,0,1.3,3.8,8.6,8.6,0,0,1,.7,2.1c.6,3.2.4,3.4-2.9,3.3-1,0-1.4-.2-1.5-1.5s-1.2-1.9-1.3-2.9a48,48,0,0,1-.8-8.5c-.1-10-.1-20,0-30.1,0-5.6-1.5-11-2.8-16.4-1.9-7.8-5.9-14.4-10.3-20.9-1.9-2.9-4.5-5.3-6.7-8s-5.5-7.9-8.7-11.3-2.6-6-2.8-9.2a5.3,5.3,0,0,1,.3-1.2l1.1.5.4.4c2.5,3.8,6.6,5.2,10.6,6.7s7.6,3.2,10.4,6.4c1.1,1.3,3,1.9,3.8,3.2a133.9,133.9,0,0,1,7.3,12.1,91.5,91.5,0,0,1,4,10.3,37,37,0,0,1,1.4,5.5C119.6,413.7,121.6,422.7,120.5,433.3Z" transform="translate(-15.8 -11.6)"/>
      <path class="cls-3" d="M107.4,436.5v3.4a2.6,2.6,0,0,1-.4,1c-.2-.3-.5-.5-.6-.8-1-4.7-3.8-8.5-6.7-12.1s-9.2-6.3-15.2-5.6a1,1,0,0,0-.6.5,2.3,2.3,0,0,0,.8,1.1l4.2,1.3c6.5,1.7,10.1,6.3,12.5,12.3.5,1.3,1.5,2.5,1.7,3.8.7,3.4,1.2,6.8,1.7,10.3.1.4.1,1,.3,1.2,3,1.6,1.7,4.6,2.2,7s1.1,5.7,1.5,8.6c.1.3-.6.9-.9.9l-6.6-.2c-3,0-2.9,0-3.2-3.1-.6-4.6-1.5-9.2-1.9-13.9-.7-6.3-3.7-11.7-6.6-17-1.4-2.4-4.1-4-6.2-6-3.9-3.8-8.4-3.1-13-2s-6.3,2.2-9.4.1a17.1,17.1,0,0,1-2-1.8,9.5,9.5,0,0,1,2.1-.9c5.8-.8,9.8-4.7,14.1-8.1a96,96,0,0,1,9.3-6.4,5.5,5.5,0,0,1,6.6-.1c2,1.5,4.3,2.5,6.4,3.8a5.1,5.1,0,0,1,1.5,1.4,42.5,42.5,0,0,0,7.1,9.7,4.1,4.1,0,0,1,.8,2.4c.3,3.1.4,6.2.5,9.2Z" transform="translate(-15.8 -11.6)"/>
      <path class="cls-3" d="M255.3,127c8.4-.3,16.2-.1,23.9-.9s14.2-.3,21.3-.6a2.3,2.3,0,0,1,2.7,2.1c.4,1.9.9,3.8,1.3,5.8s-.3,1.5-1.5,1.7a40.3,40.3,0,0,0-5,1.1,15.4,15.4,0,0,1-11-.4c-2.6-1.2-4.6.9-6.9,1a56.8,56.8,0,0,1-10.9-.4c-2.8-.4-5.5-1.2-8.3,0s-6.1,1-9.3.8c-5.8-.4-11.8-.3-17.6-.2-1.5,0-2.1-.3-2-1.8s-.2-2-.1-3,.8-2.2,2.5-2.8A61.2,61.2,0,0,1,255.3,127Z" transform="translate(-15.8 -11.6)"/>
      <path class="cls-3" d="M123.6,436.2c.2-5.6,2.6-10,6-14.2a48.6,48.6,0,0,1,13.1-11.7c6.1-3.5,12.3-6.7,18.4-10.1l14-8.1a13.4,13.4,0,0,0,2-2.1l1-.8a5.3,5.3,0,0,1,.3,1.2,12.4,12.4,0,0,1-3.6,8.3c-2.2,2.2-4.3,4.9-7,6.1a23,23,0,0,0-7,5c-2.4,2.5-5.6,4.4-8.1,6.8a143.2,143.2,0,0,0-11.2,12.2,26,26,0,0,0-5.5,13.1c-.2,1.3-.1,2.7-.3,4a7,7,0,0,1-1.1,2.3c-1.9,3.4-3.9,6.7-5.9,10.1-.2.4-.6.8-.9,1.3a5,5,0,0,1-.8-1.4,16,16,0,0,1,.5-11c1.8-4.6,3.2-9.4,5.4-13.7,3.3-6.4,7.1-12.5,13.1-16.9,3.6-2.6,6.9-5.8,10.2-8.7a4.1,4.1,0,0,0,.7-1.5,4.2,4.2,0,0,0-1.6.4c-4.3,2.8-8.7,5.5-12.7,8.6-2.3,1.8-4,4.4-5.9,6.7-.3.3-.4.9-.7,1.1-3.4,2.5-4.2,6.6-5.9,10s-2.7,7.2-4,10.9a6.1,6.1,0,0,1-1,1.4c-.1-.5-.4-1-.5-1.5C124.2,441.4,123.9,438.8,123.6,436.2Zm9.6,10.5c.2-.2.5-.6.4-.6a4.1,4.1,0,0,0-1.4-1.2c-.1-.1-.6.3-.8.5Z" transform="translate(-15.8 -11.6)"/>
      <path class="cls-3" d="M248,40.5a13,13,0,0,1,5-12.1c2.6-2.2,9.4-4,13.4-2.1,8.4,4.1,14.6,10.4,20.6,17.2,3,3.3,6,6.6,9.1,9.7.7.8.7,1.2-.1,1.7l-1.6,1c-1.4.9-2.2.8-3.2-.9a50.2,50.2,0,0,0-5.8-7.3,97.6,97.6,0,0,0-9.6-9.7c-3.1-2.5-6.5-5-10.3-6.2a9.9,9.9,0,0,0-10.4,2.4,31.9,31.9,0,0,0-3.6,3.8c-2.2,3.3-1.7,7-.9,10.6,1.7,7.7,3.7,15.4,8,22.2s7,11.7,10.7,17.4a64.3,64.3,0,0,0,6.2,7.6c.7.8,2.1.8,2.9,1.4a41.8,41.8,0,0,0,16.1,7.9c6,1.4,12.1,1.3,16.8-3.3,2.8-2.7,3.6-6.6,2.9-10.5a62.2,62.2,0,0,0-1.9-7.1v-.8c.2.2.5.3.6.6,1.5,4.4,3.2,8.8,4.4,13.2s-1.5,5.5-3,7.9c-2.5,3.9-6.4,5.3-10.8,6.3a22.3,22.3,0,0,1-12.3-.7,32.4,32.4,0,0,1-14.4-9.6c-1.8-2.2-4.2-4-6.2-6.2a39,39,0,0,1-4.2-5.6c-.3-.4-.1-1.2-.2-1.7a1.1,1.1,0,0,0-.6-.6c-1.4,1-1.4-.4-1.7-1-1.8-3.3-3.5-6.6-5.2-9.9a77.1,77.1,0,0,1-4.5-10.2c-2-6-3.6-12.1-5.2-18.2A56.7,56.7,0,0,1,248,40.5Z" transform="translate(-15.8 -11.6)"/>
      <path class="cls-2" d="M283.9,530.2a36.7,36.7,0,0,1-4.6.3l-15.3-.8c-2.1,0-4.3.5-6.4.4-6.2-.2-12.5-.2-18.6-1.1s-13.3-.2-19.9.3-11.2,1-16.8,1.3c-3.5.2-7-.3-10.5-.2a13.4,13.4,0,0,0-4.8,1.1c-5,1.9-9.8,1.1-14.9,0s-8.3-3.1-12.8-1.7c-.2,0-.5-.3-.8-.5s.7-.6,1.1-.6l6.2-.4c5.6-.5,11.1-1.2,16.7-1.4s11.2.2,16.7.1c3-.1,6-.8,9.1-.9s7.2.3,10.8.3,9.7-.2,14.6-.3H238c4.1,0,8.1-.1,12.1,0a9.1,9.1,0,0,1,3.7.8c3.5,1.3,6.8.9,10.3,0a12.3,12.3,0,0,1,5.4-.2c4.2.8,8.2.1,12.3-.4a27.3,27.3,0,0,1,4-.5c2.1-.1,1.2,1.9,1.8,2.9s-.7,1.1-1.2,1.3a10.1,10.1,0,0,1-2.5.3Z" transform="translate(-15.8 -11.6)"/>
      <path class="cls-3" d="M139.7,468.6c-2.1-.1-3.1-2.1-2.6-4.9a24.1,24.1,0,0,1,7.2-13c2.9-2.9,5.7-5.9,8.5-8.9a8.4,8.4,0,0,0,1.4-2.4,9,9,0,0,0,.3-1.6,9.1,9.1,0,0,0-1.3.8l-9,7.9a29.5,29.5,0,0,0-10.1,19.1c-.1.1,0,.3-.1.5a22.1,22.1,0,0,1-.5,2.5c-.6-.3-1.5-.5-1.9-1s-1.9-1.7-.4-2.9a.9.9,0,0,0,.3-.5c-.3-6.3,3.3-11.1,7-15.4a99.8,99.8,0,0,1,14.2-13.4,28.6,28.6,0,0,1,17.3-6.1c3.4-.1,6.9-1.6,10.3-2.4h.6c0,.3,0,.6-.1.7s-1.5,3.1-2.7,3.9c-4.1,2.7-8.2,5.6-13.2,6.4h-1a6,6,0,0,1,.8-.8c.4-.3.9-.4,1.2-.7s.1-.6.2-.8-.5-.2-.7-.1l-2.7,2.3c-.6.5-.9,1.4-1.5,1.7-6.3,2.4-11.1,6.6-15.2,11.9-1.8,2.3-3.7,4.7-4,7.7a30,30,0,0,0,0,6.7C142.4,468.1,142.2,468.7,139.7,468.6Z" transform="translate(-15.8 -11.6)"/>
      <path class="cls-2" d="M113.2,350.5a9.4,9.4,0,0,1-2.6-8.6,68.6,68.6,0,0,0,1.2-9.1,5.8,5.8,0,0,0-.5-3.7c-1.9-3.3-1.6-6.8-1.6-10.3s.1-8.5,0-12.7a7.5,7.5,0,0,0-1.5-3.8c-2.2-2.9-3.5-6-3.2-9.6l1.8-16.5a19.7,19.7,0,0,0,.4-3.4c.1-2.5,1.8-4.8-.1-7.5s-.3-3.6-.8-5.4c-1-4-2.4-7.9-3.3-11.9a79.7,79.7,0,0,1-1.4-9.8c-.5-5.8-.5-11.7-1.2-17.5-.5-3.3-1.9-6.5-2.7-9.7a10.9,10.9,0,0,1-.1-4.4c1.1-4.9-.8-9.5-1.3-14.2S96,185,96,181.3c0-.4.8-.9,1.2-1.4s.7.9.7,1.4c0,3-.3,6,0,9s1.1,7.8,1.6,11.8.5,5,.9,7.4c.5,3.9,1,7.8,1.7,11.7,1.4,8.1,2.4,16.3,1.9,24.7a7.5,7.5,0,0,0,.3,2c1.1,4.2,1.9,8.3,4.3,12.2s2,7.3,1.6,11.1c-.2,2-.3,4-.6,5.9s-1.1,3.9-1.5,5.8-1.5,6.3-1,9.7c.6,5.2,3.5,9.7,4.4,14.7a36.3,36.3,0,0,1,.3,5.7c.1,5.9-.7,11.7,1.7,17.4,1,2.2.5,5.2,0,7.8a24.8,24.8,0,0,0-.4,10.5,12.1,12.1,0,0,1,0,1.9Z" transform="translate(-15.8 -11.6)"/>
      <path class="cls-3" d="M274,64.7c4.4-1.1,5.6,2.2,7.1,5s2.6,5.4-.3,8.6-2.2,3.4-4.5.5-5.4-7.4-8-11.1c-.2-.3.2-1.3.5-1.4Z" transform="translate(-15.8 -11.6)"/>
      <path class="cls-3" d="M284.1,68.7a11.3,11.3,0,0,1-.3-3c0-.5.6-.9,1.1-1.2a90.9,90.9,0,0,1,7.8-4.8c6.3-3.3,12.7-6.3,19-9.4,2.3-1.1,4.4-2.5,6.6-3.6a4.1,4.1,0,0,1,1.6-.3c-.4.4-.6.9-1,1.2-7.4,4.7-14.8,9.5-22.2,14.1-3.6,2.2-7.4,4.2-11.1,6.2Z" transform="translate(-15.8 -11.6)"/>
      <path class="cls-2" d="M113.1,350.6a61,61,0,0,1,2.8,8.2c2.2,9.4,2.3,19,1.5,28.6a5.9,5.9,0,0,1-.6,1.4,8.7,8.7,0,0,1-.9-1.1,5.4,5.4,0,0,1-.5-2.1c-.1-1.6-.1-3.1-.1-4.7a86.3,86.3,0,0,1,.3-8.8,20.5,20.5,0,0,0-.6-7.4c-.8-3.6-1-7.2-1.5-10.9l-.3-3.3Z" transform="translate(-15.8 -11.6)"/>
      <path class="cls-3" d="M265.4,97.2c0,5.9,0,11,.1,16.1,0,1.4.4,2.7.4,4.1s-.6.8-.9,1.1-.7-.7-.7-1.1c-.9-9-1.8-18-2.6-27a3.3,3.3,0,0,1,.4-1.3c.2.3.6.4.8.7Z" transform="translate(-15.8 -11.6)"/>
      <path class="cls-3" d="M148,468.4l-1.1-1.4a3.2,3.2,0,0,1-.3-.9c-1.2-3.9-1.1-4.1,3-4a10.5,10.5,0,0,1,4.3,1.1,4.6,4.6,0,0,1,1.5,3.2c.1.5-1.4,1.3-2.3,1.5A48.7,48.7,0,0,1,148,468.4Z" transform="translate(-15.8 -11.6)"/>
      <path class="cls-3" d="M91.5,470.1l-6.3-2.2a1.9,1.9,0,0,1-.1-1.5c2.4-1.9,5.1-3.1,8.2-2.3.4.1.8.9,1,1.4s0,.7,0,1.1c.2,2.7.2,2.7-2.6,3Z" transform="translate(-15.8 -11.6)"/>
      <path class="cls-3" d="M301.3,62.8c.7.6,1.6,1,1.9,1.7,2.6,5,5.1,10.1,7.6,15.2a1.9,1.9,0,0,1,.1.8l-.4-.6c-2.5-4.6-5-9.1-7.6-13.6-.4-.8-1.3-1.2-1.9-1.8s-.6-.7-.5-1S301.1,62.9,301.3,62.8Z" transform="translate(-15.8 -11.6)"/>
      <path class="cls-3" d="M267.7,63.5,266.4,62a.6.6,0,0,1-.1-.4c-.3-1.1-.5-2.2-.8-3.2l2.9,2.3a2,2,0,0,1,.6.9l.9,1.3Z" transform="translate(-15.8 -11.6)"/>
      <path class="cls-3" d="M264.2,122.2l1.9-2.8h.2c.1,1.3.3,2.7.3,4s-1.2.7-1.5.5S264.6,123,264.2,122.2Z" transform="translate(-15.8 -11.6)"/>
      <path class="cls-4" d="M32.4,555.3a17.4,17.4,0,0,1-3.2-1.1c-.4-.1-.6-.6-.9-1a6.5,6.5,0,0,1,1.3-.4l5.7,1c.2.1.5.4.4.5s-.3.6-.5.6Z" transform="translate(-15.8 -11.6)"/>
      <path class="cls-1" d="M389.9,122l2.2,1.8c-.4.2-.9.6-1.2.5l-3-1.3Z" transform="translate(-15.8 -11.6)"/>
      <path class="cls-1" d="M488.7,108.9l3.2,1.6c.2.2,0,.9,0,1.3a11.1,11.1,0,0,1-2.6-.7,3.8,3.8,0,0,1-1.1-1.4C488.1,109.6,488.5,109.2,488.7,108.9Z" transform="translate(-15.8 -11.6)"/>
      <path class="cls-1" d="M54.7,167.2a15.3,15.3,0,0,1-1.6,1.3c-.1,0-.9-.8-.8-1a12.2,12.2,0,0,1,1.2-1.9Z" transform="translate(-15.8 -11.6)"/>
      <path class="cls-3" d="M53.9,543.4l1.3.8c-.5.2-.9.7-1.4.7s-.7-.4-1.1-.6Z" transform="translate(-15.8 -11.6)"/>
      <path class="cls-1" d="M102.6,169.6c-1.8-.9-4-1.5-5.3-2.8-2.9-2.9-2.9-4.2.2-7.3a21.2,21.2,0,0,1,3.6-2.1c1.2-.6,2.2-1.4,3.4-2s1-.6,1.2-.5a34.6,34.6,0,0,1,5.6,4.3c1.2,1.1,1.1,2.7.3,4.2-1.8,3.7-4.4,5.9-8.8,5.5Zm1.9-10.3c-1.5,1-3.2,1.8-4.6,2.9a2.1,2.1,0,0,0,0,1.9,5.4,5.4,0,0,0,5,2.2,4.1,4.1,0,0,0,3.7-4.4C108.4,159.6,106.2,160.4,104.5,159.3Z" transform="translate(-15.8 -11.6)"/>
      <path class="cls-1" d="M137.6,163.8a58.4,58.4,0,0,1-5.9-2,3.7,3.7,0,0,1-1.3-5.4,13.5,13.5,0,0,1,3.7-3,45.9,45.9,0,0,1,5-2.4c1.5-.7,4.8,1.4,5.3,3.5C145.5,159.6,144,163.3,137.6,163.8Zm4.2-6.6c-.7-1.3-1-2.7-1.7-3s-5.6,1.7-6.2,3.3-.2,1.3,0,1.3c1.8.7,3.6,1.6,5.4,1.6S140.9,158.4,141.8,157.2Z" transform="translate(-15.8 -11.6)"/>
      <path class="cls-1" d="M127.3,159.7c.2,3.9-1,5.4-4.9,5.7a10,10,0,0,1-7.4-2c-1.4-1.2-1.9-3.3-.5-4.5a22.7,22.7,0,0,1,5.8-3.9c5.7-2.7,6.7-2,7,4.2Zm-3.2.3h-.4a19.2,19.2,0,0,0,0-2.4c0-.2-.2-.3-.4-.4-.2,2.8-2.3,1.1-3.5,1.4s-2.8,2-1.7,2.7a11.6,11.6,0,0,0,4.8,1.4C123.2,162.7,123.7,160.9,124.1,160Z" transform="translate(-15.8 -11.6)"/>
      <path class="cls-1" d="M147.5,480c-2.6.3-5.2.4-7.7.9a11.8,11.8,0,0,0-3.9,1.9,2,2,0,0,0-.2,2.1,16.2,16.2,0,0,0,3.2,3.2c1,.9,2.5,1.3,3.2,2.3s2.6,1.9,4.3,2.2a13.4,13.4,0,0,1,2.9,1.5,18.9,18.9,0,0,1-2,2.7c-1.5,1.2-3.3,2-4.7,3.2s-1.3,2.1.6,2.6,2.3.5,3.4.9,1.7.8,1.7,1.2a3.2,3.2,0,0,1-.9,2.4c-1.3,1.5-2.9,2.8-4.4,4.3s-1.1,1.7.4,2.5c3.1,1.6,3.7,4.7,1.8,7.5a1.3,1.3,0,0,1-1.2.7c-.4-.1-.7-.7-1.1-1.1s0-.3,0-.5c1.1-3.3-.4-5-3.3-6-.4-.1-.7-1.4-.4-1.8,1.3-2,2.9-3.7,4.4-5.6a14,14,0,0,0,1-1.6l-1.7-.8a33.6,33.6,0,0,1-4.3-2c-1.3-.8-.5-2.9,1.4-4.1l4.6-3a2.7,2.7,0,0,0,.7-.8l-.9-.4-2.3-.5c-1.5-.1-2.6-.4-2.8-2.2s-1.1-1.4-1.8-2a49.1,49.1,0,0,1-4.8-4.3c-1.4-1.6-.7-3.7,1.1-4.9s6.1-1.9,9.3-2.2,5.6-.5,8.4-.6a6.1,6.1,0,0,1,1.8.5c-.5.5-.9,1.3-1.5,1.4a32.1,32.1,0,0,1-4.3.7Z" transform="translate(-15.8 -11.6)"/>
      <path class="cls-1" d="M134,561.3h6.6a3.4,3.4,0,0,1,1.4.5l-1.1,1.2-.7.2-1.5.6h1.6l1.9.7a5.4,5.4,0,0,1-1.8,1c-2.2.4-4.4.6-6.6.8s-2.9-.2-3.1-2.3c0-.3-.9-.6-1.3-.9l-3.4-2.1a21.1,21.1,0,0,1,3.3-1.8l16.7-5.5c.8-.3,1.4-1.1,2.2-1.6a12.9,12.9,0,0,0-2.8-.8c-1.1,0-2.3.3-3.4.4s-.7.2-.9.1a31.3,31.3,0,0,1-3.2-1.5c.4-.5.7-1.4,1.3-1.6s2.7-.7,3.2-.2,2.7,1.2,4.2,1.4,3.2.3,4.8.6.9.6,1.4.9a5.4,5.4,0,0,1-.9,1.2,70.8,70.8,0,0,1-7.7,4.1c-3.4,1.3-6.9,2.2-10.4,3.4a15.1,15.1,0,0,0-1.7,1l1.9.4Z" transform="translate(-15.8 -11.6)"/>
      <path class="cls-1" d="M144.4,533l1.8.4c.3.2.5.7.8,1.1s-.7.6-1.1.7h-1.3a4.7,4.7,0,0,0-.9.6c.2.2.3.6.6.8,2.5,2.2,2.4,2.3-.3,4.3-.9.7-3,1.2-1.4,3.2.1.1-.4.8-.5.7a6.1,6.1,0,0,1-2.9-1.1c-.3-.2-.1-1.6.3-2.2a39,39,0,0,1,2.9-2.8,33,33,0,0,1-3-2.2c-1.2-.9-1-2.1.3-2.5Z" transform="translate(-15.8 -11.6)"/>
      <path d="M133.2,446.7l-1.8-1.3c.2-.2.7-.6.8-.5a4.1,4.1,0,0,1,1.4,1.2C133.7,446.1,133.4,446.5,133.2,446.7Z" transform="translate(-15.8 -11.6)"/>
      <path class="cls-5" d="M104.5,159.3c1.7,1.1,3.9.3,4.1,2.6a4.1,4.1,0,0,1-3.7,4.4,5.4,5.4,0,0,1-5-2.2,2.1,2.1,0,0,1,0-1.9C101.3,161.1,103,160.3,104.5,159.3Z" transform="translate(-15.8 -11.6)"/>
      <path class="cls-6" d="M141.8,157.2c-.9,1.2-1.7,3.2-2.5,3.2s-3.6-.9-5.4-1.6c-.2,0-.2-.9,0-1.3s4.6-3.9,6.2-3.3S141.1,155.9,141.8,157.2Z" transform="translate(-15.8 -11.6)"/>
      <path class="cls-7" d="M124.1,160c-.4.9-.9,2.7-1.2,2.6a11.6,11.6,0,0,1-4.8-1.4c-1.1-.7-.1-2.2,1.7-2.7s3.3,1.4,3.5-1.4c.2.1.4.2.4.4a19.2,19.2,0,0,1,0,2.4Z" transform="translate(-15.8 -11.6)"/>
    </g>
  </g>
  <!-- <g id="inner-page">
    <path class="cls-3" d="M429.2,526.2c-5.2.3-10.4.7-15.7.9s-8.3.2-12.5.2a57.7,57.7,0,0,1-7.2,0c-4.7-.2-9.4-.7-14.1-1l-13.1-.4c-1.6,0-3.3-.3-4.9-.4H340.9l-13.7-.7c-8.2-.7-16.4-1.5-24.6-2a108.4,108.4,0,0,0-11.4.2c-5.2.3-10.3,1-15.5,1.2-2.4.2-4.8-.3-7.2-.3s-3.6.4-5.4.5-4.8.8-6.9.3a40.7,40.7,0,0,0-11-1c-4.7.1-9.5-.2-14.3-.2s-7.6.6-11.2.2c-10.8-1.2-21.5,1.4-32.3.9-5.3-.2-10.7.1-16,.2l-12.2.5a6.1,6.1,0,0,1-2.5-.8,10.3,10.3,0,0,1,1.2-2.6c1.3-1.5,3-2.8,4.1-4.5s.3-2.2.3-3.3-.3-1.6-.3-2.3a16.4,16.4,0,0,1-.1-4.4,12.2,12.2,0,0,1,2.4-4.5c1.7-2.1,2.6-4.2,2.1-6.8a9,9,0,0,1,.3-1.6c1.2-3.7,2.4-7.2,3.4-10.9a12.7,12.7,0,0,0-.3-4.3c-.6-3.8-.9-7.7-1.8-11.5a22.1,22.1,0,0,0-3.6-8.3,12.3,12.3,0,0,0-8.2-4.5c-2.3-.3-4.7-.2-7-.3l-1-.2a2.1,2.1,0,0,1,.4-1.1c3.7-4.9,7.9-9.2,13.7-11.4,3.2-1.3,6.7-2.2,9.8-3.7s6.5-3,8.7-5.4,3.3-6.2,4.7-9.5c.2-.4-.3-1.5-.8-1.8a2.8,2.8,0,0,0-2.2.1c-1.4.8-2.6,1.8-3.9,2.6s-5.4,1.8-8.4,1.5a10.5,10.5,0,0,0-6.2,1c-3.5,1.9-7.2,3.3-10.8,5s-8.1,5.8-11.6,9.4l-1.4,1.2a10.8,10.8,0,0,1,.3-1.9c1.1-3.9,2.3-7.9,5.1-11.1s6-7.4,9.5-10.5c5.8-5,12-9.4,18-14.1s8-8.1,9.2-13.8a26.9,26.9,0,0,0,0-7.5,2.4,2.4,0,0,0-1.8-1.4,2.2,2.2,0,0,0-2,1.1,13.9,13.9,0,0,1-3.8,5.4,42.2,42.2,0,0,1-8.1,5.7c-4.9,2.8-10.2,5-15.2,7.8-7.2,4.1-14.7,8.1-20.5,14.3-2,2.2-3.8,4.8-5.7,7.2l-1,1a3.5,3.5,0,0,1-.5-1.3c-.6-5.6-1.1-11.3-1.9-16.9-.3-2.4-1.2-4.8-1.7-7.3a26.2,26.2,0,0,1,.1-2.8c.1-1.1-.1-2.1,0-3.2s.3-4.4.6-6.5a61.8,61.8,0,0,0-.2-17.7c-.7-5-1.5-10.1-2.2-15.1a6.2,6.2,0,0,0-.7-1.9,17.6,17.6,0,0,1-1.2-11.9,29.3,29.3,0,0,0,.2-12.5,5.3,5.3,0,0,0-.5-1.8c-1.7-2.2-1.2-4.6-1.1-7.1a42,42,0,0,0-3.2-20.4,19.1,19.1,0,0,1-.9-12.5,71.4,71.4,0,0,0,2.3-18.4c-.2-3.7-.8-7.6-3-10.9s-2.9-8-3.2-12.3-.2-10.9-.8-16.2-1.8-8.8-2.7-13.2c-.2-1.5-.2-3-.4-4.6a69.3,69.3,0,0,0-1-7.8,65.3,65.3,0,0,1-1.5-22,2.4,2.4,0,0,1,2.3-2.4,17.5,17.5,0,0,1,8.5.1c2.4.6,5.2.1,7.8-.1,7.5-.5,15-1,22.4-1.7a37.6,37.6,0,0,0,7.4-1.6c3.3-1,6.4-1.4,9.8.1s5.5.6,8.2.5,6.6-.8,9.9-1c8.3-.5,16.6.5,24.8-1.7a46.1,46.1,0,0,1,9.7-1.3,15,15,0,0,1,5.6.9c3.1,1.2,6.2.8,9.3.4l12.6-1.8c4.2-.6,8.4-1.6,12.6-1.7s10.3.4,15.4.7,10,.3,15,.7a35.1,35.1,0,0,1,6.5.9c5,1.4,10,1.1,15,.2s11-2.7,16.6-3.4a142.3,142.3,0,0,1,17.3-1.3c8.4-.1,16.8.1,25.3.4,3.6.1,7.2.8,10.8,1l19.7.6c5.2.2,10.3-.6,15.5-1s11.1.2,16.7.2h16.7c1.3,0,2.2.3,2.3,1.6.4,4.3.8,8.5.9,12.8s0,8.8-.2,13.1-.9,10-1.1,14.9-.4,12.1-.3,18.1.8,12.2,1.2,18.3c.2,2.6.8,5.2.8,7.8.2,6.3-.2,12.5.2,18.7s1.8,10.9,2.5,16.4a32.9,32.9,0,0,1,.2,7.7,99.3,99.3,0,0,1-2.1,14.5c-1,3.8-.7,7.5-1,11.2s-.8,7.2-1,10.8c-.3,6.8-.9,13.6-.5,20.3s1.8,14.2,2.5,21.3c.3,3.8-.2,7.6-.3,11.4s.1,5.2-.1,7.7c-.7,7.5-1.3,14.9-2.3,22.2-.7,5.5-2,10.9-2.8,16.4s-1.9,12.1-2.5,18.2a64.1,64.1,0,0,0-.3,10.7c.3,6.8,1.5,13.7,1.3,20.4s1.1,15.4,1.7,23a35.7,35.7,0,0,1-2.3,14.4c-.6,1.8-.8,3.7-1.4,5.5a2,2,0,0,1-1.5,1.3c-2.2.2-4.5.1-6.8.1Z" transform="translate(-15.8 -11.6)"/>
  </g> -->
</svg>
