<?xml version="1.0" encoding="UTF-8"?>
<svg width="720px" height="720px" viewBox="0 0 720 720" version="1.1" xmlns="http://www.w3.org/2000/svg" xmlns:xlink="http://www.w3.org/1999/xlink">
    <!-- Generator: Sketch 42 (36781) - http://www.bohemiancoding.com/sketch -->
    <title>pattern</title>
    <desc>Created with Sketch.</desc>
    <defs></defs>
    <g id="Symbols" stroke="none" stroke-width="1" fill="none" fill-rule="evenodd" fill-opacity="0.5">
        <g id="pattern" fill="#D8D8D8">
            <rect id="Rectangle-3" x="410" y="170" width="300" height="60" rx="10"></rect>
            <rect id="Rectangle-3-Copy-13" x="350" y="250" width="160" height="60" rx="10"></rect>
            <rect id="Rectangle-3-Copy-14" x="450" y="490" width="260" height="60" rx="10"></rect>
            <rect id="Rectangle-3-Copy-18" x="570" y="10" width="140" height="60" rx="10"></rect>
            <rect id="Rectangle-3-Copy-15" x="530" y="250" width="180" height="60" rx="10"></rect>
            <rect id="Rectangle-3-Copy-17" x="10" y="330" width="100" height="60" rx="10"></rect>
            <rect id="Rectangle-3-Copy-20" x="10" y="90" width="60" height="60" rx="10"></rect>
            <rect id="Rectangle-3-Copy-5" x="330" y="490" width="100" height="60" rx="10"></rect>
            <rect id="Rectangle-3-Copy" x="90" y="90" width="240" height="60" rx="10"></rect>
            <rect id="Rectangle-3-Copy-19" x="10" y="10" width="240" height="60" rx="10"></rect>
            <rect id="Rectangle-3-Copy-6" x="10" y="410" width="240" height="60" rx="10"></rect>
            <rect id="Rectangle-3-Copy-2" x="270" y="10" width="280" height="60" rx="10"></rect>
            <rect id="Rectangle-3-Copy-3" x="10" y="250" width="320" height="60" rx="10"></rect>
            <rect id="Rectangle-3-Copy-4" x="130" y="330" width="320" height="60" rx="10"></rect>
            <rect id="Rectangle-3-Copy-9" x="470" y="330" width="240" height="60" rx="10"></rect>
            <rect id="Rectangle-3-Copy-10" x="270" y="410" width="340" height="60" rx="10"></rect>
            <rect id="Rectangle-3-Copy-11" x="630" y="410" width="80" height="60" rx="10"></rect>
            <rect id="Rectangle-3-Copy-7" x="10" y="170" width="380" height="60" rx="10"></rect>
            <rect id="Rectangle-3-Copy-12" x="10" y="490" width="300" height="60" rx="10"></rect>
            <rect id="Rectangle-3-Copy-21" x="130" y="570" width="260" height="60" rx="10"></rect>
            <rect id="Rectangle-3-Copy-26" x="10" y="570" width="100" height="60" rx="10"></rect>
            <rect id="Rectangle-3-Copy-27" x="270" y="650" width="440" height="60" rx="10"></rect>
            <rect id="Rectangle-3-Copy-24" x="590" y="570" width="120" height="60" rx="10"></rect>
            <rect id="Rectangle-3-Copy-25" x="410" y="570" width="160" height="60" rx="10"></rect>
            <rect id="Rectangle-3-Copy-22" x="10" y="650" width="60" height="60" rx="10"></rect>
            <rect id="Rectangle-3-Copy-23" x="90" y="650" width="160" height="60" rx="10"></rect>
            <rect id="Rectangle-3-Copy-8" x="350" y="90" width="360" height="60" rx="10"></rect>
        </g>
    </g>
</svg>