<?xml version="1.0" encoding="UTF-8"?>
<svg width="192px" height="192px" viewBox="0 0 192 192" version="1.1" xmlns="http://www.w3.org/2000/svg" xmlns:xlink="http://www.w3.org/1999/xlink">
    <!-- Generator: Sketch 49.3 (51167) - http://www.bohemiancoding.com/sketch -->
    <title>logo</title>
    <desc>Created with Sketch.</desc>
    <defs>
        <polygon id="path-1" points="0 0 149 0 149 149 0 149"></polygon>
    </defs>
    <g id="logo" stroke="none" stroke-width="1" fill="none" fill-rule="evenodd">
        <g id="Page-1" transform="translate(23.000000, 23.000000)">
            <path d="M74.5,12.4954372 C40.3111458,12.4954372 12.497255,40.3111458 12.497255,74.4981822 C12.497255,108.688854 40.3111458,136.502745 74.5,136.502745 C108.688854,136.502745 136.502745,108.688854 136.502745,74.4981822 C136.502745,40.3111458 108.688854,12.4954372 74.5,12.4954372" id="Path-Copy" fill="#FFFFFF"></path>
            <path d="M103.214908,48.3865283 C99.8783057,49.125514 96.9703575,46.2204105 97.7096048,42.8849885 C98.0819529,41.2036599 99.4387533,39.8473397 101.120677,39.4751233 C104.459096,38.7343219 107.367044,41.6412411 106.625981,44.976663 C106.253633,46.6579917 104.896832,48.0143119 103.214908,48.3865283 M76.0171462,60.6969044 C71.3854984,60.6969044 67.6311392,56.9438738 67.6311392,52.3138651 C67.6311392,47.6838564 71.3854984,43.9308258 76.0171462,43.9308258 C80.648794,43.9308258 84.4031532,47.6838564 84.4031532,52.3138651 C84.4031532,56.9438738 80.648794,60.6969044 76.0171462,60.6969044 M76.0171462,103.204016 C73.4906277,103.204016 71.443621,101.155918 71.443621,98.6321092 C71.443621,96.1064849 73.4906277,94.0583869 76.0171462,94.0583869 C78.5436646,94.0583869 80.5906713,96.1064849 80.5906713,98.6321092 C80.5906713,101.155918 78.5436646,103.204016 76.0171462,103.204016 M124.050058,89.3030956 C116.147196,89.3030956 109.740991,82.9009737 109.740991,74.9990922 C109.740991,67.100842 116.147196,60.6969044 124.050058,60.6969044 C124.369733,60.6969044 124.683958,60.7241398 125,60.745928 C118.828102,39.5186998 99.240773,24 76.0171462,24 C64.4580064,24 53.7997675,27.8474465 45.2448416,34.327643 C48.2436065,38.4492586 50.016347,43.5204799 50.016347,49.0093099 C50.016347,62.8103672 38.8295554,74.0004628 25.0254287,74.0149883 C25.0181633,74.3436282 25,74.6704523 25,74.9990922 C25,88.9998754 30.6469776,101.680652 39.7831299,110.895277 C40.302601,105.878527 46.2274775,102.468662 51.6365155,106.588461 C55.3382011,111.458141 52.9442749,116.723641 48.7776083,118.112644 C56.6604911,123.100344 65.9982563,126 76.0171462,126 C99.240773,126 118.828102,110.4813 125,89.2558876 C124.683958,89.2776759 124.369733,89.3030956 124.050058,89.3030956" id="Fill-1" fill="#FBCFA1"></path>
            <mask id="mask-2" fill="white">
                <use xlink:href="#path-1"></use>
            </mask>
            <g id="Clip-4"></g>
            <path d="M74.5,12.4954372 C40.3111458,12.4954372 12.497255,40.3111458 12.497255,74.4981822 C12.497255,108.688854 40.3111458,136.502745 74.5,136.502745 C108.688854,136.502745 136.502745,108.688854 136.502745,74.4981822 C136.502745,40.3111458 108.688854,12.4954372 74.5,12.4954372 M74.5,149 C33.4199322,149 0,115.580068 0,74.4981822 C0,33.4199322 33.4199322,0 74.5,0 C115.580068,0 149,33.4199322 149,74.4981822 C149,115.580068 115.580068,149 74.5,149" id="Fill-3" fill="#5B9DAC" mask="url(#mask-2)"></path>
        </g>
    </g>
</svg>