<svg id="Patrick_s_Business_Cards" data-name="Patrick&apos;s Business Cards" xmlns="http://www.w3.org/2000/svg" viewBox="0 0 474.7 205.33"><defs><style>.cls-1{fill:#70C1DB;}.cls-2{fill:#5c9ead;}.cls-3{fill:#fcd0a1;}.cls-4{fill:#f99c1c;}</style></defs><title>skymse-logo</title><g id="Right_Wings" data-name="Right Wings"><path class="cls-1" d="M424.65,111.43H332.84c-6.16,0-11.16-4.38-11.16-9.77h0c0-5.4,5-9.77,11.16-9.77h91.81c6.16,0,11.16,4.38,11.16,9.77h0C435.81,107.05,430.82,111.43,424.65,111.43Z"/><path class="cls-2" d="M424.65,112.93H332.84c-7,0-12.66-5.06-12.66-11.27s5.68-11.27,12.66-11.27h91.81c7,0,12.66,5.06,12.66,11.27S431.63,112.93,424.65,112.93ZM332.84,93.38c-5.33,0-9.66,3.71-9.66,8.27s4.33,8.27,9.66,8.27h91.81c5.33,0,9.66-3.71,9.66-8.27s-4.33-8.27-9.66-8.27Z"/><path class="cls-1" d="M389.9,138.13H328.41c-6.16,0-11.16-4.35-11.16-9.71h0c0-5.36,5-9.71,11.16-9.71H389.9c6.16,0,11.16,4.35,11.16,9.71h0C401.06,133.79,396.06,138.13,389.9,138.13Z"/><path class="cls-2" d="M389.9,139.63H328.41c-7,0-12.66-5-12.66-11.21s5.68-11.21,12.66-11.21H389.9c7,0,12.66,5,12.66,11.21S396.88,139.63,389.9,139.63Zm-61.49-19.41c-5.33,0-9.66,3.68-9.66,8.21s4.33,8.21,9.66,8.21H389.9c5.33,0,9.66-3.68,9.66-8.21s-4.33-8.21-9.66-8.21Z"/></g><g id="Left_Wings" data-name="Left Wings"><g id="Bottom"><path class="cls-1" d="M85.69,138.25H147c6.15,0,11.13-4.33,11.13-9.68h0c0-5.35-5-9.68-11.13-9.68H85.69c-6.15,0-11.13,4.33-11.13,9.68h0C74.56,133.92,79.54,138.25,85.69,138.25Z"/><path class="cls-2" d="M147,139.75H85.69c-7,0-12.63-5-12.63-11.18s5.67-11.18,12.63-11.18H147c7,0,12.63,5,12.63,11.18S154,139.75,147,139.75ZM85.69,120.39c-5.31,0-9.63,3.67-9.63,8.18s4.32,8.18,9.63,8.18H147c5.31,0,9.63-3.67,9.63-8.18s-4.32-8.18-9.63-8.18Z"/></g><g id="Top"><path class="cls-1" d="M51,111.61h91.55c6.15,0,11.13-4.36,11.13-9.75h0c0-5.38-5-9.75-11.13-9.75H51c-6.15,0-11.13,4.36-11.13,9.75h0C39.9,107.25,44.89,111.61,51,111.61Z"/><path class="cls-2" d="M142.58,113.11H51c-7,0-12.63-5-12.63-11.25S44.07,90.62,51,90.62h91.55c7,0,12.63,5,12.63,11.25S149.55,113.11,142.58,113.11ZM51,93.62c-5.31,0-9.63,3.7-9.63,8.25s4.32,8.25,9.63,8.25h91.55c5.31,0,9.63-3.7,9.63-8.25s-4.32-8.25-9.63-8.25Z"/></g></g><g id="Top_Wings" data-name="Top Wings"><path class="cls-1" d="M332.26,121.31a83.87,83.87,0,0,0,22.14-24.4A28.81,28.81,0,0,1,379,83.14h85a9.81,9.81,0,0,0,0-19.58l-145.22-.17S318.26,131.42,332.26,121.31Zm-180-58.08L10.73,63.07a9.81,9.81,0,0,0,0,19.58h85a28.79,28.79,0,0,1,24,12.84,113.35,113.35,0,0,0,27.42,29.15C139,92.13,152.21,63.23,152.21,63.23Z"/><path class="cls-2" d="M158.13,64.73l-147.4-.16C6.47,64.56,3,68.28,3,72.86a8,8,0,0,0,7.73,8.29h85A30.29,30.29,0,0,1,121,94.65,112,112,0,0,0,148,123.42l2.37,6.34a26.36,26.36,0,0,0-4.13-3.91,114.93,114.93,0,0,1-27.79-29.53A27.3,27.3,0,0,0,95.72,84.15h-85C4.81,84.15,0,79.08,0,72.86S4.81,61.56,10.73,61.56L164,61.75Zm166.82,61.33a44.23,44.23,0,0,1,6.43-6,82.25,82.25,0,0,0,21.74-24A30.15,30.15,0,0,1,379,81.64h85a8.31,8.31,0,0,0,0-16.58h0L317.25,64.9l-.74-3L464,62.06c5.92,0,10.73,5.07,10.73,11.29S469.89,84.64,464,84.64H379A27.17,27.17,0,0,0,355.67,97.7a85.21,85.21,0,0,1-22.54,24.83c-3,2.19-6.38,5.78-10,10.19Z"/></g><g id="Blue_Circle" data-name="Blue Circle"><path class="cls-1" d="M237.16,195.52A93.54,93.54,0,1,1,330.7,102,93.65,93.65,0,0,1,237.16,195.52Zm0-171.4A77.85,77.85,0,1,0,315,102,77.94,77.94,0,0,0,237.16,24.12Z"/><path class="cls-2" d="M237.16,197a95,95,0,1,1,95-95A95.15,95.15,0,0,1,237.16,197Zm0-187.09a92,92,0,1,0,92,92A92.15,92.15,0,0,0,237.16,9.93Zm0,171.4A79.35,79.35,0,1,1,316.51,102,79.44,79.44,0,0,1,237.16,181.33Zm0-155.71A76.35,76.35,0,1,0,313.51,102,76.44,76.44,0,0,0,237.16,25.62Z"/></g><g id="Cheese"><path class="cls-3" d="M297.49,119.64a18,18,0,0,1,0-36c.4,0,.8,0,1.19.06A64.1,64.1,0,0,0,198.46,50.53h0a31.43,31.43,0,0,1-25.41,49.89c0,.41,0,.82,0,1.24a63.9,63.9,0,0,0,18.58,45.12h0c.65-6.31,8.1-10.59,14.9-5.41,4.65,6.12,1.64,12.74-3.59,14.49h0a64.09,64.09,0,0,0,95.78-36.28C298.28,119.6,297.89,119.64,297.49,119.64Zm-60.36,17.47a5.75,5.75,0,1,1,5.75-5.75A5.75,5.75,0,0,1,237.13,137.11Zm0-53.43a10.54,10.54,0,1,1,10.54-10.54A10.54,10.54,0,0,1,237.13,83.67ZM271.31,68.2a5.76,5.76,0,0,1-6.92-6.92A5.7,5.7,0,0,1,268.68,57a5.76,5.76,0,0,1,6.92,6.92A5.7,5.7,0,0,1,271.31,68.2Z"/><path class="cls-4" d="M270,70.85a8.25,8.25,0,1,0-8.25-8.25A8.26,8.26,0,0,0,270,70.85Zm-3.25-8.25A3.25,3.25,0,1,1,270,65.85,3.25,3.25,0,0,1,266.74,62.6Z"/><path class="cls-4" d="M245.38,131.36a8.25,8.25,0,1,0-8.25,8.25A8.26,8.26,0,0,0,245.38,131.36Zm-5,0a3.25,3.25,0,1,1-3.25-3.25A3.25,3.25,0,0,1,240.38,131.36Z"/><path class="cls-4" d="M298.67,117.08h-.15l-.22,0c-.3,0-.55,0-.82,0a15.48,15.48,0,1,1,0-31c.26,0,.51,0,.76,0l.27,0h.16a2.5,2.5,0,0,0,2.41-3.2,66.93,66.93,0,0,0-64-48A66,66,0,0,0,197,48.53a2.51,2.51,0,0,0-.51,3.46A28.93,28.93,0,0,1,173,97.92a2.51,2.51,0,0,0-2.5,2.45v.46c0,.27,0,.55,0,.82a66.2,66.2,0,0,0,19.3,46.88,2.5,2.5,0,0,0,4.26-1.5,6.13,6.13,0,0,1,3.66-5,6,6,0,0,1,2.41-.49,7.9,7.9,0,0,1,4.55,1.59,7.2,7.2,0,0,1,1.32,6.33,6.14,6.14,0,0,1-3.91,4,2.5,2.5,0,0,0-.55,4.48,66.59,66.59,0,0,0,99.52-37.69,2.5,2.5,0,0,0-.45-2.26A2.53,2.53,0,0,0,298.67,117.08ZM210.8,151a12.16,12.16,0,0,0-2.32-11.11,2.52,2.52,0,0,0-.47-.48,13,13,0,0,0-7.84-2.83,11.14,11.14,0,0,0-9.58,5.47,61.4,61.4,0,0,1-15.06-39.2,33.93,33.93,0,0,0,26.35-51.7,61.74,61.74,0,0,1,93.4,30.16,20.48,20.48,0,0,0,0,40.72,61.6,61.6,0,0,1-87.52,33.79A11.17,11.17,0,0,0,210.8,151Z"/><path class="cls-4" d="M250.17,73.14a13,13,0,1,0-13,13A13.05,13.05,0,0,0,250.17,73.14Zm-5,0a8,8,0,1,1-8-8A8,8,0,0,1,245.17,73.14Z"/></g></svg>