<svg xmlns="http://www.w3.org/2000/svg" viewBox="0 0 1000 1000">
  <defs>
    <style>
      .cls-1 {
        fill: #fff;
      }

      .cls-2 {
        fill: #302d85;
      }

      .cls-3 {
        fill: #141339;
      }

      .cls-4 {
        fill: #fdf8c4;
      }

      .cls-5 {
        fill: #da636b;
      }
    </style>
  </defs>
  <g id="Trusted_Partner_Badges" data-name="Trusted Partner Badges">
    <path class="cls-1" d="M716.1,286.7s-16.2-46.8-35.2-62.2-52.2-38.1-82.5-46.5-85.2-10-109,6.3-58.5,37.5-60.6,68.6-13.8,56.5,0,110.8S471.5,502.6,491.5,536s62.9,111,97.9,134.7,57.7,38.2,57.7,38.2,70.2,35.7,102.9,35.2,88.6-4.4,101.8-35.2,27.4-74,21.9-88.8-24.5-21.6-24.5-21.6-12.1,65.4-32.2,69.6-38.4,26.8-117.1,2.1c-60.8-19.1-84.9-77-115-105S511,438.9,502.6,417.3,472.9,312,479.9,290.9s29.1-58,60.3-58.6,63.7-5.7,95.3,15.9S716.1,286.7,716.1,286.7Z"/>
  </g>
  <g id="skymouse-icon">
    <g id="skymouse-icon-COLOR">
      <g id="item-helmet">
        <path id="fill-helmet" class="cls-2" d="M741.1,322.7s2.4-79.2-97.7-131.3S408,154.8,343.9,177.3,233.3,249.9,209.6,299.1s-25.1,126.3-16.8,185.6,41.4,161.7,43.1,166.4c.8,2.5,24.1,84.1,44.9,136.9a144.9,144.9,0,0,0,146.4,91.3c59-4.8,130.7-14.6,185.6-34.7,111.9-41,231.8-95.5,259.8-162.3s-30.7-128-30.7-128-3.9,95.6-45,115.4S649.3,677,576,537.2c-70-133.8-126.9-238.4-60.8-284.4C588.3,201.9,741.1,322.7,741.1,322.7Z"/>
        <path id="stroke-helmet" class="cls-3" d="M887,584.1a184.6,184.6,0,0,0-29.8-44.5l-20.7-21.5C822.2,439,785.1,380.6,761.4,350l.9-26.7c.1-3.7,1.6-93.1-109.1-150.7-106.4-55.3-247.5-39.5-316.4-15.4-62.2,21.9-116.9,71.5-146.3,132.7-26.5,55.2-27,138.3-18.7,197.8,8.9,62.8,42.6,166.3,44,170.3v-.3c.2.6.7,2.3,1.4,4.8,17,57.7,31.8,102.6,43.9,133.3A166.4,166.4,0,0,0,415.3,901c4.5,0,9.1-.2,13.7-.6,79.3-6.4,143.6-18.5,191.1-35.9,160.5-58.8,247-114.1,272.1-174C906.1,657.5,904.3,620.7,887,584.1ZM605.5,824.7c-43.3,15.8-105.5,27.4-180,33.4a122.9,122.9,0,0,1-125-77.9c-11.6-29.6-26-73.2-42.7-129.7-1.4-4.9-1.6-5.6-1.9-6.4s-33.8-103.6-42-162.3c-7.2-50.9-7.6-126.8,14.8-173.5,24.7-51.3,70.4-92.8,122.2-111,26.9-9.5,68.3-17.7,114.1-19.3a110.2,110.2,0,0,0-19.6,16.3c-56.4,59.2-54.8,150.1,4.9,286.1,29.1,66.2,56,119.4,92.6,163.3,38,45.5,84.8,78.2,147.2,103.1a182.8,182.8,0,0,0,64.6,13C698.9,790.4,635.3,813.7,605.5,824.7ZM853.1,674c-3.9,9.3-10.1,18.4-18.1,27.3-33.5,27.8-84.6,35.2-133.1,15.9-58.1-23.1-99.6-52.1-134.5-93.9s-60-91.9-88-155.7c-70.8-161.3-40.1-220.7-10.9-251.4,34.4-36.1,94.8-29,122.3-23.3a257.6,257.6,0,0,1,42.8,17.4c35.9,18.6,56.9,40.8,69.1,60.4-11.4-7-24.1-14.2-37.6-21-70.3-35.4-124.8-40.2-162.1-14.3-56,39-36.3,107-29.8,129.3,14.3,49.1,44.4,106.7,79.4,173.4l4.6,8.9c43.4,82.8,96.1,119.5,132.7,135.7,49.5,21.9,92.5,17.5,116.2,6.1,22-10.6,38.1-35.2,47.9-73.3C861,636.3,860.7,656,853.1,674Z"/>
      </g>
      <g id="item-cooper">
        <path id="fill-nose" class="cls-4" d="M865.8,411.4c-8,.9-32.4,44.2-39.4,44-9.7-.4-15.5,18.4-28.4,24.8s-29.9,22-32.8,27.5S737,529.8,729.9,533s-23.1,12.7-38.4,17.8c-9.5,3.2-33,8.4-44.3,7.9-16.5-.8-53.2,3-66.2-8.9-27.6-25.3-33.4-49.8-27.2-51.7s8.7-19.9,22.8-24.8,85.4-3.9,105.7-14.8,115.5-36.9,132.4-55.3,39.5-31.3,53.6-32.4S873.7,410.5,865.8,411.4Z"/>
        <path class="cls-4" d="M624.3,598.2a13.2,13.2,0,0,1-5.2-.9c-2.8-1.2-9.4-3.9-26.8-28.6l-13.4-19.2L602,553a168.9,168.9,0,0,0,27.2,1.8c1.1,0,47.5-4.7,48.7-4.7l36.7-11.3L705,560c-3.4,7.6-11,21.5-22.8,28.2C675.8,591.9,630.6,598.2,624.3,598.2Z"/>
        <path class="cls-3" d="M885.6,374.8a27.6,27.6,0,0,0-2.2-8.9c2.7-8.6,3.5-21.5,0-39.3-8.2-41.4-26.8-39.4-26.8-39.4-8.8-3.1-9.6,7.9-11.8,38.3a67.9,67.9,0,0,0,6.1,34.3c-14.9,5.9-31.5,17.5-44.6,31.7-9,10-56.5,26.4-84.8,36.2-20.6,7.1-36.8,12.7-44.8,17-10.3,5.5-41.9,7.8-64.9,9.4l-2.1.2c.1,6.7-1.4,11.4-4.6,12.8s-10.6-2.7-16.8-11.1c-7.1.7-12.2,1.6-15.8,2.8a33.4,33.4,0,0,0-6,2.9c-.6,5.8-2.6,9.8-5.9,11.2a8.3,8.3,0,0,1-5.4,0,78.6,78.6,0,0,0-4.4,7.3c-.8,1.3-1.7,3-2.4,4a13.7,13.7,0,0,0-7.5,9.8c-2.4,10.5,4.1,26.3,16.5,42.1h-.1l26.9,38.3c16.7,23.9,24.8,29.6,31.1,32.1a22.8,22.8,0,0,0,9,1.7c6.8,0,22.8-2.5,31.7-3.9,25.7-4.3,28.5-5.8,31.1-7.4,14.3-8.1,23.1-24,27-32.8l9.4-20.7,1.8-1,3.7-1.9,10.4-5.4c10.6-6.1,30.4-19.1,34.5-26.8,2.2-3.6,16.9-17.3,28.3-23,8.2-4.1,13.8-11.3,18.3-17,1.8-2.3,4.4-5.7,5.9-6.8,8.2-.2,14.1-7.8,27.3-25.8,4.4-6,11.6-15.9,14.8-18.6C882.8,413,886.7,385.3,885.6,374.8ZM677.2,579.6c-3,1.7-44.4,8.6-52.9,8.6a3.7,3.7,0,0,1-1.4-.2c-5.4-2.2-15-14.7-21.8-24.3,10.6,1.3,22.1,1.2,32.3,1.1.6,0,23.3-.4,28-1,7.8-1,18.7-3.5,20.7-4l2.9-.7c3.7-.9,6.9-1.9,9.3-2.7l1.6-.5C692.4,563.6,685.8,574.7,677.2,579.6ZM860.6,397.3c-6.8,2.6-13.1,11-24.1,25.9-4.2,5.8-10.4,14.2-13.5,17.3-8.7,1.1-14.3,8.3-19.3,14.8-3.4,4.4-7,9-10.9,11-14.1,6.9-32.6,23.4-37.3,31.4-3.6,4.3-24.3,18.4-30.4,21.1-2.6,1.1-5.8,2.8-9.6,4.8-7.7,4-18.1,9.5-27.9,12.7s-31.3,7.8-40.5,7.4l-6.9-.2h-7c-13.5.1-38.6.4-45.6-6.1-17.5-16-24.3-30.6-25.7-36.8s3.8-7.8,7.4-10.1,5.6-10.1,10.3-11.8,19.8-2.5,33.7-3.5c20.3-1.5,38-3.6,54.1-7.3-20,13.3-15.6,20-13.9,20.5h.9a3.4,3.4,0,0,0,2.8-1.7c2.5-2.7,21.8-15.6,43.1-29.2,7.8-3,17.8-6.4,28.1-10,47.4-16.4,81.8-28.9,93.6-41.8,13.7-15.1,31.2-25.4,42.4-28.3l.3.2C864.9,383.5,862.8,393.3,860.6,397.3Z"/>
        <g id="left-tooth">
          <polygon class="cls-4" points="703.3 543.1 708.8 550.6 716.1 560.5 728.9 557.7 720.4 545 714.5 536 703.3 543.1"/>
        </g>
        <g id="right-tooth">
          <polygon class="cls-4" points="725.1 535.2 729 540.5 737.5 553.9 745 546.3 739.4 535.1 736.5 529.3 725.1 535.2"/>
        </g>
        <g id="fill-left-eye">
          <path class="cls-4" d="M558.1,478.9a15.4,15.4,0,0,1-4.6-.8c-11.5-3.6-25.4-21.7-35.4-45.9-5.7-13.9-9.2-27.7-9.9-39-1.1-17,4.5-22.9,9.4-24.9a11.8,11.8,0,0,1,4.6-.9c14.4,0,30.4,23.4,40,46.6,7.5,18.2,11.1,36.2,9.8,48.3-1.2,10.3-5.7,14.2-9.3,15.7a11.8,11.8,0,0,1-4.6.9Z"/>
          <path class="cls-3" d="M522.3,372.9c9.6,0,24.5,18.1,34.8,43.2,7.4,17.9,10.6,34.8,9.4,45.6-.6,5.8-2.6,9.8-5.9,11.2a7,7,0,0,1-2.5.5,10.4,10.4,0,0,1-2.9-.5c-9.6-3-22.6-20.1-32-42.8-11.3-27.5-12.9-52.9-3.5-56.8a7.1,7.1,0,0,1,2.6-.4m0-11a17.2,17.2,0,0,0-6.8,1.3c-11.8,4.8-13.5,19.2-12.8,30.3s4.4,26.4,10.3,40.8c8.4,20.4,23.1,44.1,38.9,49.1a22.9,22.9,0,0,0,6.2,1,17.1,17.1,0,0,0,6.7-1.4c5-2,11.2-7.2,12.6-20.1s-2.2-31.7-10.1-51c-5.4-13-12.2-25-19.3-33.8-8.8-10.8-17.4-16.2-25.7-16.2Z"/>
        </g>
        <g id="fill-right-eye">
          <path class="cls-4" d="M603.1,470c-7.5,0-14.5-7.5-19.2-13.7a109,109,0,0,1-12.5-22.8c-4.4-10.7-7.1-21.4-7.7-30.2-.8-13.7,3.9-18.6,8-20.3a11.1,11.1,0,0,1,4.1-.8c11.5,0,24.2,18.3,31.7,36.5,4.7,11.6,7.6,23.4,7.7,32.5.2,12-4.2,16.4-8,18a11.5,11.5,0,0,1-4.1.8Z"/>
          <path class="cls-3" d="M575.8,387.7c7.3,0,18.7,13.9,26.6,33.1,4.7,11.4,7.2,22.4,7.3,30.5s-1.4,11.4-4.6,12.8a6.5,6.5,0,0,1-2,.4c-4.1,0-9.5-4.4-14.8-11.5a103.1,103.1,0,0,1-11.8-21.6c-8.7-21-9.9-40.4-2.7-43.3a4.5,4.5,0,0,1,2-.4m0-11a15.9,15.9,0,0,0-6.2,1.2c-5.8,2.4-12.4,8.8-11.4,25.8.6,9.3,3.5,20.7,8.1,31.9a113.5,113.5,0,0,0,13.2,24c7.8,10.5,15.8,15.9,23.6,15.9a16.7,16.7,0,0,0,6.2-1.2c10.2-4.3,11.5-16.4,11.4-23.2-.1-9.9-3-22.1-8.1-34.5-4.3-10.4-9.5-19.5-15.2-26.5-7.2-8.9-14.5-13.4-21.6-13.4Z"/>
        </g>
        <path id="fill-nose-shine" class="cls-4" d="M860.7,303.6s4.5-.2,9.8,16.8,2.8,22.6.5,21.1-8.2-10.4-10.1-22.7S858.3,302.1,860.7,303.6Z"/>
      </g>
      <g id="item-antenna">
        <path id="fill-flag" class="cls-5" d="M178.6,114.6,118,150.7a16.3,16.3,0,0,0-4.6,23.6L146,218a16.4,16.4,0,0,0,21.5,4.2l55.3-30.9Z"/>
        <path id="flll-ear" class="cls-2" d="M329.6,501.6c-32.6,9.7-63.5,65.1-40.5,128.2s81.7,93.6,118.9,80.5c29.3-10.2,68.6-42,52.9-113.9-.5-2.5-1.2-5-1.9-7.5C435.4,511.7,373.9,488.5,329.6,501.6Z"/>
        <path id="fill-inner-ear" class="cls-2" d="M386,571.1l23.2,44.8a11,11,0,0,1-5.3,15.1l-33.6,14.4a10.9,10.9,0,0,1-14.4-5.7L336,593.5a11,11,0,0,1,5.7-14.4l30.3-13A10.9,10.9,0,0,1,386,571.1Z"/>
        <path class="cls-3" d="M481.6,591.9c-.6-3-1.4-6.1-2.3-9.2-6.6-21.4-15.9-39.3-27-54L235.5,192.1,182.4,100l-69.9,41.6a26.9,26.9,0,0,0-7.6,39l32.6,43.7a26.9,26.9,0,0,0,35.3,7l49-27.2,183.1,285c-26.7-13.1-55.9-15.3-81.4-7.8-20.1,6-38.4,22.8-50.1,46.2-16.3,32.3-17.8,72.3-4.2,109.6,12.2,33.6,34.6,61.9,62.8,79.5,18.9,11.8,38.9,18,57.5,18a77.1,77.1,0,0,0,25.5-4.2C458.5,715.1,498.8,670.7,481.6,591.9Zm-319.3-379-.3.2a5.7,5.7,0,0,1-7.5-1.5L122,167.9a5.9,5.9,0,0,1-1.1-4.4,5.8,5.8,0,0,1,2.6-3.7l51.3-30.5,33.4,58ZM401,690.3c-24.3,8.5-72.2-13.6-92-67.8-9.6-26.3-8.8-54,2.3-75.9,7.6-15.1,17.5-22.6,24.3-24.6,29.8-8.8,81.8,3.4,103.1,73.1.5,1.9,1.1,3.9,1.5,5.8C444.8,622,450.2,673.1,401,690.3Z"/>
        <path class="cls-3" d="M366,655.9a20.5,20.5,0,0,1-18.8-12.4l-20-46.2a20.8,20.8,0,0,1-.2-15.7,20,20,0,0,1,10.9-11.2l30.3-13.1a20.6,20.6,0,0,1,26.3,9.4l23.2,44.8a20.4,20.4,0,0,1-10.1,28.2l-33.5,14.5A21,21,0,0,1,366,655.9Zm10.3-81.2h-.6l-30.2,13.1a1.3,1.3,0,0,0-.7.8,1.1,1.1,0,0,0,0,1l19.9,46.2a1.4,1.4,0,0,0,1.8.8l33.6-14.5a1.7,1.7,0,0,0,.7-.8,1.4,1.4,0,0,0,0-1.1l-23.3-44.8A1.3,1.3,0,0,0,376.3,574.7Z"/>
      </g>
    </g>
  </g>
</svg>
