<?xml version="1.0" encoding="UTF-8"?>
<svg width="55px" height="57px" viewBox="0 0 55 57" version="1.1" xmlns="http://www.w3.org/2000/svg" xmlns:xlink="http://www.w3.org/1999/xlink">
    <!-- Generator: Sketch 49.3 (51167) - http://www.bohemiancoding.com/sketch -->
    <title>skymse-logo-circle</title>
    <desc>Created with Sketch.</desc>
    <defs></defs>
    <g id="skymse-logo-circle" stroke="none" stroke-width="1" fill="none" fill-rule="evenodd">
        <g id="Skymouse-Studios-logo" transform="translate(1.000000, 3.000000)">
            <g id="Logo">
                <path d="M26.1230469,51.3415527 C12.1957634,51.3415527 0.865478516,40.0112679 0.865478516,26.0833681 C0.865478516,12.1567009 12.1957634,0.826416016 26.1230469,0.826416016 C40.0503304,0.826416016 51.3806152,12.1567009 51.3806152,26.0833681 C51.3806152,40.0112679 40.0503304,51.3415527 26.1230469,51.3415527" id="Path" fill="#5B9DAC"></path>
                <path d="M26.1230469,5.83447266 C14.9572896,5.83447266 5.87353516,14.9186876 5.87353516,26.0836875 C5.87353516,37.2498749 14.9572896,46.3334961 26.1230469,46.3334961 C37.2888042,46.3334961 46.3725586,37.2498749 46.3725586,26.0836875 C46.3725586,14.9186876 37.2888042,5.83447266 26.1230469,5.83447266" id="Path" fill="#FFFFFF"></path>
                <path d="M9.71249422,25.5217676 C14.0622242,25.5061146 17.5835209,21.9751552 17.5835209,17.6217529 C17.5835209,15.9324165 17.0532751,14.3669258 16.1501369,13.082634 C18.9000646,10.9832597 22.3329302,9.73508951 26.0518629,9.73508951 C33.4325383,9.73508951 39.6864747,14.6512878 41.7113794,21.3806482 C39.2991419,21.4917671 37.3775459,23.4826533 37.3775459,25.9223522 C37.3775459,28.3932105 39.3485398,30.4037185 41.8040423,30.4673909 C39.8835139,37.3606766 33.5489731,42.4328792 26.0518629,42.4328792 C22.7784865,42.4328792 19.7267372,41.4659366 17.1672491,39.8026584 C18.0166417,39.4681228 18.6177696,38.6403231 18.6177696,37.6721225 C18.6177696,36.4079607 17.5929639,35.383155 16.3288021,35.383155 C15.221861,35.383155 14.298442,36.1689065 14.0858766,37.2130777 C11.3677246,34.2925002 9.70296804,30.3789557 9.70296804,26.0837447 C9.70296804,25.8956706 9.70616055,25.7083278 9.71249422,25.5217676 Z M27.264991,22.5633602 C28.8083843,22.5633602 30.0595518,21.3121927 30.0595518,19.7687994 C30.0595518,18.2254062 28.8083843,16.9742387 27.264991,16.9742387 C25.7215978,16.9742387 24.4704303,18.2254062 24.4704303,19.7687994 C24.4704303,21.3121927 25.7215978,22.5633602 27.264991,22.5633602 Z M35.8997451,18.4553411 C36.7392085,18.4553411 37.419728,17.7748216 37.419728,16.9353583 C37.419728,16.095895 36.7392085,15.4153755 35.8997451,15.4153755 C35.0602818,15.4153755 34.3797623,16.095895 34.3797623,16.9353583 C34.3797623,17.7748216 35.0602818,18.4553411 35.8997451,18.4553411 Z M27.0792126,36.0184482 C27.9710114,36.0184482 28.6939572,35.2955024 28.6939572,34.4037036 C28.6939572,33.5119048 27.9710114,32.788959 27.0792126,32.788959 C26.1874138,32.788959 25.464468,33.5119048 25.464468,34.4037036 C25.464468,35.2955024 26.1874138,36.0184482 27.0792126,36.0184482 Z" id="Combined-Shape" fill="#FBCFA1"></path>
            </g>
        </g>
    </g>
</svg>